M48
; DRILL file {KiCad 9.0.4} date 2026-02-14T22:53:23-0600
; FORMAT={-:-/ absolute / inch / decimal}
; #@! TF.CreationDate,2026-02-14T22:53:23-06:00
; #@! TF.GenerationSoftware,Kicad,Pcbnew,9.0.4
; #@! TF.FileFunction,Plated,1,2,PTH
FMAT,2
INCH
; #@! TA.AperFunction,Plated,PTH,ViaDrill
T1C0.0118
; #@! TA.AperFunction,Plated,PTH,ComponentDrill
T2C0.0276
; #@! TA.AperFunction,Plated,PTH,ComponentDrill
T3C0.0394
; #@! TA.AperFunction,Plated,PTH,ComponentDrill
T4C0.0472
%
G90
G05
T1
X5.9409Y-2.811
X5.9902Y-2.498
X6.0453Y-2.6811
X6.0492Y-2.565
X6.128Y-2.9173
X6.1299Y-2.5571
X6.1909Y-2.5787
X6.2224Y-2.7539
X6.2795Y-2.5295
X6.313Y-2.8268
X6.3701Y-2.5472
X6.3898Y-3.0453
X6.4084Y-2.813
X6.4862Y-2.5768
X6.5059Y-2.9409
X6.5787Y-2.7047
T2
X6.122Y-2.2343
X6.5748Y-2.2539
T3
X6.7126Y-2.3756
X6.7126Y-2.4756
X6.7126Y-2.5756
X6.7126Y-2.6756
X6.7126Y-2.7756
T4
X6.25Y-2.3524
X6.25Y-2.4508
X6.3484Y-2.3524
X6.3484Y-2.4508
X6.4469Y-2.3524
X6.4469Y-2.4508
M30
