%TF.GenerationSoftware,KiCad,Pcbnew,9.0.4*%
%TF.CreationDate,2026-02-14T22:53:23-06:00*%
%TF.ProjectId,ir_board,69725f62-6f61-4726-942e-6b696361645f,rev?*%
%TF.SameCoordinates,Original*%
%TF.FileFunction,Copper,L2,Bot*%
%TF.FilePolarity,Positive*%
%FSLAX46Y46*%
G04 Gerber Fmt 4.6, Leading zero omitted, Abs format (unit mm)*
G04 Created by KiCad (PCBNEW 9.0.4) date 2026-02-14 22:53:23*
%MOMM*%
%LPD*%
G01*
G04 APERTURE LIST*
G04 Aperture macros list*
%AMRoundRect*
0 Rectangle with rounded corners*
0 $1 Rounding radius*
0 $2 $3 $4 $5 $6 $7 $8 $9 X,Y pos of 4 corners*
0 Add a 4 corners polygon primitive as box body*
4,1,4,$2,$3,$4,$5,$6,$7,$8,$9,$2,$3,0*
0 Add four circle primitives for the rounded corners*
1,1,$1+$1,$2,$3*
1,1,$1+$1,$4,$5*
1,1,$1+$1,$6,$7*
1,1,$1+$1,$8,$9*
0 Add four rect primitives between the rounded corners*
20,1,$1+$1,$2,$3,$4,$5,0*
20,1,$1+$1,$4,$5,$6,$7,0*
20,1,$1+$1,$6,$7,$8,$9,0*
20,1,$1+$1,$8,$9,$2,$3,0*%
G04 Aperture macros list end*
%TA.AperFunction,ComponentPad*%
%ADD10R,1.500000X1.500000*%
%TD*%
%TA.AperFunction,ComponentPad*%
%ADD11C,1.700000*%
%TD*%
%TA.AperFunction,ComponentPad*%
%ADD12R,1.700000X1.700000*%
%TD*%
%TA.AperFunction,SMDPad,CuDef*%
%ADD13R,1.000000X1.000000*%
%TD*%
%TA.AperFunction,SMDPad,CuDef*%
%ADD14RoundRect,0.237500X0.287500X0.237500X-0.287500X0.237500X-0.287500X-0.237500X0.287500X-0.237500X0*%
%TD*%
%TA.AperFunction,ComponentPad*%
%ADD15RoundRect,0.250000X0.600000X-0.600000X0.600000X0.600000X-0.600000X0.600000X-0.600000X-0.600000X0*%
%TD*%
%TA.AperFunction,ViaPad*%
%ADD16C,0.600000*%
%TD*%
%TA.AperFunction,Conductor*%
%ADD17C,0.200000*%
%TD*%
%TA.AperFunction,Conductor*%
%ADD18C,0.700000*%
%TD*%
%TA.AperFunction,Conductor*%
%ADD19C,0.500000*%
%TD*%
G04 APERTURE END LIST*
D10*
%TO.P,GND,1,1*%
%TO.N,GND*%
X167000000Y-57250000D03*
%TD*%
%TO.P,+3.3v,1,1*%
%TO.N,+3.3V*%
X155500000Y-56750000D03*
%TD*%
D11*
%TO.P,J1,5,Pin_5*%
%TO.N,GND*%
X170500000Y-70500000D03*
%TO.P,J1,4,Pin_4*%
%TO.N,/GPIO1*%
X170500000Y-67960000D03*
%TO.P,J1,3,Pin_3*%
%TO.N,/SDA*%
X170500000Y-65420000D03*
%TO.P,J1,2,Pin_2*%
%TO.N,/SCL*%
X170500000Y-62880000D03*
D12*
%TO.P,J1,1,Pin_1*%
%TO.N,+3.3V*%
X170500000Y-60340000D03*
%TD*%
D13*
%TO.P,XSHUT,1,1*%
%TO.N,/XSHUT*%
X157050000Y-71350000D03*
%TD*%
D14*
%TO.P,D1,1,K*%
%TO.N,GND*%
X155700000Y-66400000D03*
%TO.P,D1,2,A*%
%TO.N,Net-(D1-A)*%
X153950000Y-66400000D03*
%TD*%
D13*
%TO.P,GND,1,1*%
%TO.N,GND*%
X162772500Y-71450000D03*
%TD*%
D14*
%TO.P,D2,1,K*%
%TO.N,Net-(D2-K)*%
X155650000Y-69500000D03*
%TO.P,D2,2,A*%
%TO.N,Net-(D2-A)*%
X153900000Y-69500000D03*
%TD*%
D15*
%TO.P,J2,1,Pin_1*%
%TO.N,unconnected-(J2-Pin_1-Pad1)*%
X163750000Y-62250000D03*
D11*
%TO.P,J2,2,Pin_2*%
%TO.N,GND*%
X161250000Y-62250000D03*
%TO.P,J2,3,Pin_3*%
%TO.N,/SDA*%
X158750000Y-62250000D03*
%TO.P,J2,4,Pin_4*%
%TO.N,+3.3V*%
X163750000Y-59750000D03*
%TO.P,J2,5,Pin_5*%
%TO.N,/SCL*%
X161250000Y-59750000D03*
%TO.P,J2,6,Pin_6*%
%TO.N,/GPIO1*%
X158750000Y-59750000D03*
%TD*%
D16*
%TO.N,GND*%
X155700000Y-64950000D03*
X162772500Y-71450000D03*
%TO.N,+3.3V*%
X150900000Y-71400000D03*
X167100000Y-68700000D03*
X160350000Y-71800000D03*
X165250000Y-74700000D03*
X157250000Y-65500000D03*
X164750000Y-65450000D03*
X152150000Y-63450000D03*
%TO.N,Net-(D1-A)*%
X153650000Y-65150000D03*
%TO.N,Net-(D2-A)*%
X153550000Y-68100000D03*
%TO.N,Net-(D2-K)*%
X155650000Y-74100000D03*
%TO.N,/GPIO1*%
X162300000Y-77350000D03*
%TO.N,/SCL*%
X161800000Y-64700000D03*
%TO.N,/SDA*%
X159500000Y-64250000D03*
%TO.N,/XSHUT*%
X158050000Y-69950000D03*
%TD*%
D17*
%TO.N,/GPIO1*%
X162300000Y-77350000D02*
X162750000Y-77800000D01*
X172700000Y-56729868D02*
X172614997Y-56357446D01*
X158750000Y-56250000D02*
X158750000Y-59750000D01*
X167149361Y-77800000D02*
X167849000Y-77100361D01*
X162750000Y-77800000D02*
X167149361Y-77800000D01*
X167849000Y-77100361D02*
X167849000Y-70771000D01*
X172046814Y-55453186D02*
X171626694Y-55118152D01*
X171142554Y-54885003D02*
X170770132Y-54800000D01*
X170770132Y-54800000D02*
X160200000Y-54800000D01*
X167849000Y-70771000D02*
X172700000Y-65920000D01*
X172700000Y-65920000D02*
X172700000Y-56729868D01*
X172614997Y-56357446D02*
X172381848Y-55873306D01*
X171626694Y-55118152D02*
X171142554Y-54885003D01*
X172381848Y-55873306D02*
X172046814Y-55453186D01*
X160200000Y-54800000D02*
X158750000Y-56250000D01*
D18*
%TO.N,GND*%
X155700000Y-66400000D02*
X155700000Y-64950000D01*
D19*
%TO.N,Net-(D1-A)*%
X153950000Y-65450000D02*
X153650000Y-65150000D01*
X153950000Y-66400000D02*
X153950000Y-65450000D01*
%TO.N,Net-(D2-A)*%
X153900000Y-69500000D02*
X153900000Y-68450000D01*
X153900000Y-68450000D02*
X153550000Y-68100000D01*
%TO.N,Net-(D2-K)*%
X155750000Y-69600000D02*
X155650000Y-69500000D01*
X155650000Y-74100000D02*
X155650000Y-69500000D01*
D17*
%TO.N,/SCL*%
X161250000Y-59750000D02*
X162401000Y-60901000D01*
X162401000Y-60901000D02*
X162401000Y-64099000D01*
X162401000Y-64099000D02*
X161800000Y-64700000D01*
%TO.N,/SDA*%
X159500000Y-63000000D02*
X158750000Y-62250000D01*
X171950000Y-56550000D02*
X170899000Y-55499000D01*
X159901000Y-55971240D02*
X159901000Y-61099000D01*
X170899000Y-55499000D02*
X160373240Y-55499000D01*
X170450000Y-65630000D02*
X171950000Y-64130000D01*
X159901000Y-61099000D02*
X158750000Y-62250000D01*
X159500000Y-64250000D02*
X159500000Y-63000000D01*
X160373240Y-55499000D02*
X159901000Y-55971240D01*
X171950000Y-64130000D02*
X171950000Y-56550000D01*
D19*
%TO.N,/XSHUT*%
X158050000Y-69950000D02*
X157500000Y-69950000D01*
X157500000Y-69950000D02*
X157050000Y-70400000D01*
X157050000Y-70400000D02*
X157050000Y-71350000D01*
%TD*%
%TA.AperFunction,Conductor*%
%TO.N,+3.3V*%
G36*
X165050000Y-58000000D02*
G01*
X162000000Y-58000000D01*
X162000000Y-56099500D01*
X165050000Y-56099500D01*
X165050000Y-58000000D01*
G37*
%TD.AperFunction*%
%TD*%
%TA.AperFunction,Conductor*%
%TO.N,+3.3V*%
G36*
X170503736Y-49750726D02*
G01*
X170793796Y-49768271D01*
X170808659Y-49770076D01*
X171090798Y-49821780D01*
X171105335Y-49825363D01*
X171379172Y-49910695D01*
X171393163Y-49916000D01*
X171654743Y-50033727D01*
X171667989Y-50040680D01*
X171913465Y-50189075D01*
X171925776Y-50197573D01*
X172151573Y-50374473D01*
X172162781Y-50384403D01*
X172365596Y-50587218D01*
X172375526Y-50598426D01*
X172495481Y-50751538D01*
X172552422Y-50824217D01*
X172560926Y-50836537D01*
X172618128Y-50931161D01*
X172709316Y-51082004D01*
X172716275Y-51095263D01*
X172833997Y-51356831D01*
X172839306Y-51370832D01*
X172924635Y-51644663D01*
X172928219Y-51659201D01*
X172979923Y-51941340D01*
X172981728Y-51956205D01*
X172999274Y-52246263D01*
X172999500Y-52253750D01*
X172999500Y-55330317D01*
X172979815Y-55397356D01*
X172927011Y-55443111D01*
X172857853Y-55453055D01*
X172794297Y-55424030D01*
X172778553Y-55407630D01*
X172668329Y-55269415D01*
X172523297Y-55087549D01*
X172483028Y-55032987D01*
X172474120Y-55025883D01*
X172467013Y-55016971D01*
X172467012Y-55016970D01*
X172414299Y-54978066D01*
X172410621Y-54975243D01*
X172011690Y-54657108D01*
X172011689Y-54657108D01*
X172009881Y-54655666D01*
X171958469Y-54611422D01*
X171948200Y-54606477D01*
X171939290Y-54599371D01*
X171939288Y-54599370D01*
X171879237Y-54573169D01*
X171875023Y-54571236D01*
X171415303Y-54349846D01*
X171415303Y-54349845D01*
X171413176Y-54348821D01*
X171353253Y-54317151D01*
X171342146Y-54314615D01*
X171331881Y-54309672D01*
X171331867Y-54309667D01*
X171331531Y-54309604D01*
X171331273Y-54309472D01*
X171324155Y-54307130D01*
X171324520Y-54306018D01*
X171269323Y-54277792D01*
X171234189Y-54217399D01*
X171237284Y-54147598D01*
X171266914Y-54100088D01*
X171394265Y-53972738D01*
X171541936Y-53780289D01*
X171663224Y-53570212D01*
X171756054Y-53346100D01*
X171818838Y-53111789D01*
X171850500Y-52871288D01*
X171850500Y-52628712D01*
X171818838Y-52388211D01*
X171756054Y-52153900D01*
X171663224Y-51929788D01*
X171541936Y-51719711D01*
X171394265Y-51527262D01*
X171394260Y-51527256D01*
X171222743Y-51355739D01*
X171222736Y-51355733D01*
X171030293Y-51208067D01*
X171030292Y-51208066D01*
X171030289Y-51208064D01*
X170834912Y-51095263D01*
X170820214Y-51086777D01*
X170820205Y-51086773D01*
X170596104Y-50993947D01*
X170361785Y-50931161D01*
X170121289Y-50899500D01*
X170121288Y-50899500D01*
X169878712Y-50899500D01*
X169878711Y-50899500D01*
X169638214Y-50931161D01*
X169403895Y-50993947D01*
X169179794Y-51086773D01*
X169179785Y-51086777D01*
X168969706Y-51208067D01*
X168777263Y-51355733D01*
X168777256Y-51355739D01*
X168605739Y-51527256D01*
X168605733Y-51527263D01*
X168458067Y-51719706D01*
X168336777Y-51929785D01*
X168336773Y-51929794D01*
X168243947Y-52153895D01*
X168181161Y-52388214D01*
X168149500Y-52628711D01*
X168149500Y-52871288D01*
X168181161Y-53111785D01*
X168243947Y-53346104D01*
X168336773Y-53570205D01*
X168336776Y-53570212D01*
X168458064Y-53780289D01*
X168458066Y-53780292D01*
X168458067Y-53780293D01*
X168605733Y-53972736D01*
X168605739Y-53972743D01*
X168620815Y-53987819D01*
X168654300Y-54049142D01*
X168649316Y-54118834D01*
X168607444Y-54174767D01*
X168541980Y-54199184D01*
X168533134Y-54199500D01*
X160286670Y-54199500D01*
X160286654Y-54199499D01*
X160279058Y-54199499D01*
X160120943Y-54199499D01*
X160054141Y-54217399D01*
X159968214Y-54240423D01*
X159968209Y-54240426D01*
X159831290Y-54319475D01*
X159831282Y-54319481D01*
X158269479Y-55881284D01*
X158241797Y-55929232D01*
X158230096Y-55949500D01*
X158190423Y-56018215D01*
X158149499Y-56170943D01*
X158149499Y-56170945D01*
X158149499Y-56339046D01*
X158149500Y-56339059D01*
X158149500Y-58464281D01*
X158129815Y-58531320D01*
X158081795Y-58574765D01*
X158042185Y-58594947D01*
X158042184Y-58594948D01*
X157870213Y-58719890D01*
X157719890Y-58870213D01*
X157594951Y-59042179D01*
X157498444Y-59231585D01*
X157432753Y-59433760D01*
X157399500Y-59643713D01*
X157399500Y-59856286D01*
X157432735Y-60066127D01*
X157432754Y-60066243D01*
X157481413Y-60216000D01*
X157498444Y-60268414D01*
X157594951Y-60457820D01*
X157719890Y-60629786D01*
X157870209Y-60780105D01*
X157870214Y-60780109D01*
X158034793Y-60899682D01*
X158077459Y-60955011D01*
X158083438Y-61024625D01*
X158050833Y-61086420D01*
X158034793Y-61100318D01*
X157870214Y-61219890D01*
X157870209Y-61219894D01*
X157719890Y-61370213D01*
X157594951Y-61542179D01*
X157498444Y-61731585D01*
X157432753Y-61933760D01*
X157399500Y-62143713D01*
X157399500Y-62356286D01*
X157432753Y-62566239D01*
X157498444Y-62768414D01*
X157594951Y-62957820D01*
X157719890Y-63129786D01*
X157870213Y-63280109D01*
X158042179Y-63405048D01*
X158042181Y-63405049D01*
X158042184Y-63405051D01*
X158231588Y-63501557D01*
X158433757Y-63567246D01*
X158643713Y-63600500D01*
X158643714Y-63600500D01*
X158739241Y-63600500D01*
X158806280Y-63620185D01*
X158852035Y-63672989D01*
X158861979Y-63742147D01*
X158842343Y-63793391D01*
X158790609Y-63870815D01*
X158790602Y-63870827D01*
X158730264Y-64016498D01*
X158730261Y-64016510D01*
X158699500Y-64171153D01*
X158699500Y-64328846D01*
X158730261Y-64483489D01*
X158730264Y-64483501D01*
X158790602Y-64629172D01*
X158790609Y-64629185D01*
X158878210Y-64760288D01*
X158878213Y-64760292D01*
X158989707Y-64871786D01*
X158989711Y-64871789D01*
X159120814Y-64959390D01*
X159120827Y-64959397D01*
X159250033Y-65012915D01*
X159266503Y-65019737D01*
X159421153Y-65050499D01*
X159421156Y-65050500D01*
X159421158Y-65050500D01*
X159578844Y-65050500D01*
X159578845Y-65050499D01*
X159733497Y-65019737D01*
X159879179Y-64959394D01*
X160010289Y-64871789D01*
X160121789Y-64760289D01*
X160209394Y-64629179D01*
X160212719Y-64621153D01*
X160243377Y-64547137D01*
X160269737Y-64483497D01*
X160300500Y-64328842D01*
X160300500Y-64171158D01*
X160300500Y-64171155D01*
X160300499Y-64171153D01*
X160296291Y-64150000D01*
X160269737Y-64016503D01*
X160269735Y-64016498D01*
X160209397Y-63870827D01*
X160209390Y-63870814D01*
X160121398Y-63739125D01*
X160100520Y-63672447D01*
X160100500Y-63670234D01*
X160100500Y-63309758D01*
X160120185Y-63242719D01*
X160172989Y-63196964D01*
X160242147Y-63187020D01*
X160305703Y-63216045D01*
X160312181Y-63222077D01*
X160370213Y-63280109D01*
X160542179Y-63405048D01*
X160542181Y-63405049D01*
X160542184Y-63405051D01*
X160731588Y-63501557D01*
X160933757Y-63567246D01*
X161143713Y-63600500D01*
X161143714Y-63600500D01*
X161356286Y-63600500D01*
X161356287Y-63600500D01*
X161566243Y-63567246D01*
X161638183Y-63543870D01*
X161666301Y-63543067D01*
X161694147Y-63539064D01*
X161700758Y-63542083D01*
X161708023Y-63541876D01*
X161732112Y-63556402D01*
X161757703Y-63568089D01*
X161761632Y-63574202D01*
X161767856Y-63577956D01*
X161780268Y-63603202D01*
X161795477Y-63626867D01*
X161796953Y-63637137D01*
X161798684Y-63640657D01*
X161800500Y-63661802D01*
X161800500Y-63781953D01*
X161780815Y-63848992D01*
X161728011Y-63894747D01*
X161700692Y-63903570D01*
X161566508Y-63930261D01*
X161566498Y-63930264D01*
X161420827Y-63990602D01*
X161420814Y-63990609D01*
X161289711Y-64078210D01*
X161289707Y-64078213D01*
X161178213Y-64189707D01*
X161178210Y-64189711D01*
X161090609Y-64320814D01*
X161090602Y-64320827D01*
X161030264Y-64466498D01*
X161030261Y-64466510D01*
X160999500Y-64621153D01*
X160999500Y-64778846D01*
X161030261Y-64933489D01*
X161030264Y-64933501D01*
X161090602Y-65079172D01*
X161090609Y-65079185D01*
X161178210Y-65210288D01*
X161178213Y-65210292D01*
X161289707Y-65321786D01*
X161289711Y-65321789D01*
X161420814Y-65409390D01*
X161420827Y-65409397D01*
X161566498Y-65469735D01*
X161566503Y-65469737D01*
X161721153Y-65500499D01*
X161721156Y-65500500D01*
X161721158Y-65500500D01*
X161878844Y-65500500D01*
X161878845Y-65500499D01*
X162033497Y-65469737D01*
X162179179Y-65409394D01*
X162310289Y-65321789D01*
X162421789Y-65210289D01*
X162509394Y-65079179D01*
X162512719Y-65071153D01*
X162569735Y-64933501D01*
X162569737Y-64933497D01*
X162597391Y-64794473D01*
X162600638Y-64778150D01*
X162609403Y-64761393D01*
X162613423Y-64742915D01*
X162632169Y-64717871D01*
X162633023Y-64716239D01*
X162634476Y-64714757D01*
X162759509Y-64589724D01*
X162759514Y-64589721D01*
X162769714Y-64579520D01*
X162769716Y-64579520D01*
X162881520Y-64467716D01*
X162960577Y-64330784D01*
X162997034Y-64194724D01*
X163001500Y-64178058D01*
X163001500Y-64019943D01*
X163001500Y-63724499D01*
X163021185Y-63657460D01*
X163073989Y-63611705D01*
X163125495Y-63600499D01*
X164400008Y-63600499D01*
X164502797Y-63589999D01*
X164669334Y-63534814D01*
X164818656Y-63442712D01*
X164942712Y-63318656D01*
X165034814Y-63169334D01*
X165089999Y-63002797D01*
X165100500Y-62900009D01*
X165100499Y-61599992D01*
X165089999Y-61497203D01*
X165034814Y-61330666D01*
X164942712Y-61181344D01*
X164818656Y-61057288D01*
X164669334Y-60965186D01*
X164600296Y-60942309D01*
X164542851Y-60902535D01*
X164538488Y-60892041D01*
X163961058Y-60314612D01*
X163981591Y-60309111D01*
X164118408Y-60230119D01*
X164230119Y-60118408D01*
X164309111Y-59981591D01*
X164314612Y-59961058D01*
X164865270Y-60511717D01*
X164865270Y-60511716D01*
X164904622Y-60457554D01*
X165001095Y-60268217D01*
X165066757Y-60066130D01*
X165066757Y-60066127D01*
X165100000Y-59856246D01*
X165100000Y-59643753D01*
X165070619Y-59458249D01*
X165066757Y-59433870D01*
X165066757Y-59433869D01*
X165001095Y-59231782D01*
X164904624Y-59042449D01*
X164865270Y-58988282D01*
X164865269Y-58988282D01*
X164314612Y-59538940D01*
X164309111Y-59518409D01*
X164230119Y-59381592D01*
X164118408Y-59269881D01*
X163981591Y-59190889D01*
X163961058Y-59185387D01*
X164511716Y-58634728D01*
X164457550Y-58595375D01*
X164268217Y-58498904D01*
X164066129Y-58433242D01*
X163856246Y-58400000D01*
X163643754Y-58400000D01*
X163433872Y-58433242D01*
X163433869Y-58433242D01*
X163231782Y-58498904D01*
X163042439Y-58595380D01*
X162988282Y-58634727D01*
X162988282Y-58634728D01*
X163538941Y-59185387D01*
X163518409Y-59190889D01*
X163381592Y-59269881D01*
X163269881Y-59381592D01*
X163190889Y-59518409D01*
X163185387Y-59538941D01*
X162634728Y-58988282D01*
X162634726Y-58988282D01*
X162600626Y-59035218D01*
X162545296Y-59077884D01*
X162475683Y-59083863D01*
X162413888Y-59051258D01*
X162399994Y-59035224D01*
X162280104Y-58870208D01*
X162129792Y-58719896D01*
X162129786Y-58719890D01*
X161957820Y-58594951D01*
X161768414Y-58498444D01*
X161768413Y-58498443D01*
X161768412Y-58498443D01*
X161566243Y-58432754D01*
X161566241Y-58432753D01*
X161566240Y-58432753D01*
X161404957Y-58407208D01*
X161356287Y-58399500D01*
X161143713Y-58399500D01*
X161095042Y-58407208D01*
X160933760Y-58432753D01*
X160731582Y-58498445D01*
X160681794Y-58523813D01*
X160613124Y-58536709D01*
X160548384Y-58510432D01*
X160508128Y-58453325D01*
X160501500Y-58413328D01*
X160501500Y-56271337D01*
X160510144Y-56241896D01*
X160516668Y-56211910D01*
X160520422Y-56206894D01*
X160521185Y-56204298D01*
X160537819Y-56183656D01*
X160585656Y-56135819D01*
X160646979Y-56102334D01*
X160673337Y-56099500D01*
X162000000Y-56099500D01*
X162000000Y-58000000D01*
X165050000Y-58000000D01*
X165050000Y-56099500D01*
X165686604Y-56099500D01*
X165753643Y-56119185D01*
X165799398Y-56171989D01*
X165809342Y-56241147D01*
X165802786Y-56266833D01*
X165755908Y-56392517D01*
X165749501Y-56452116D01*
X165749501Y-56452123D01*
X165749500Y-56452135D01*
X165749500Y-58047870D01*
X165749501Y-58047876D01*
X165755908Y-58107483D01*
X165806202Y-58242328D01*
X165806206Y-58242335D01*
X165892452Y-58357544D01*
X165892455Y-58357547D01*
X166007664Y-58443793D01*
X166007671Y-58443797D01*
X166142517Y-58494091D01*
X166142516Y-58494091D01*
X166149444Y-58494835D01*
X166202127Y-58500500D01*
X167797872Y-58500499D01*
X167857483Y-58494091D01*
X167992331Y-58443796D01*
X168107546Y-58357546D01*
X168193796Y-58242331D01*
X168244091Y-58107483D01*
X168250500Y-58047873D01*
X168250499Y-56452128D01*
X168244091Y-56392517D01*
X168224152Y-56339059D01*
X168197214Y-56266833D01*
X168192230Y-56197141D01*
X168225715Y-56135818D01*
X168287038Y-56102334D01*
X168313396Y-56099500D01*
X170598903Y-56099500D01*
X170665942Y-56119185D01*
X170686584Y-56135819D01*
X171313181Y-56762416D01*
X171346666Y-56823739D01*
X171349500Y-56850097D01*
X171349500Y-58866000D01*
X171329815Y-58933039D01*
X171277011Y-58978794D01*
X171225500Y-58990000D01*
X170750000Y-58990000D01*
X170750000Y-59906988D01*
X170692993Y-59874075D01*
X170565826Y-59840000D01*
X170434174Y-59840000D01*
X170307007Y-59874075D01*
X170250000Y-59906988D01*
X170250000Y-58990000D01*
X169602155Y-58990000D01*
X169542627Y-58996401D01*
X169542620Y-58996403D01*
X169407913Y-59046645D01*
X169407906Y-59046649D01*
X169292812Y-59132809D01*
X169292809Y-59132812D01*
X169206649Y-59247906D01*
X169206645Y-59247913D01*
X169156403Y-59382620D01*
X169156401Y-59382627D01*
X169150000Y-59442155D01*
X169150000Y-60090000D01*
X170066988Y-60090000D01*
X170034075Y-60147007D01*
X170000000Y-60274174D01*
X170000000Y-60405826D01*
X170034075Y-60532993D01*
X170066988Y-60590000D01*
X169150000Y-60590000D01*
X169150000Y-61237844D01*
X169156401Y-61297372D01*
X169156403Y-61297379D01*
X169206645Y-61432086D01*
X169206649Y-61432093D01*
X169292809Y-61547187D01*
X169292812Y-61547190D01*
X169407906Y-61633350D01*
X169407913Y-61633354D01*
X169539470Y-61682422D01*
X169595404Y-61724293D01*
X169619821Y-61789758D01*
X169604969Y-61858031D01*
X169583819Y-61886285D01*
X169469889Y-62000215D01*
X169344951Y-62172179D01*
X169248444Y-62361585D01*
X169182753Y-62563760D01*
X169149500Y-62773713D01*
X169149500Y-62986286D01*
X169178491Y-63169331D01*
X169182754Y-63196243D01*
X169219637Y-63309758D01*
X169248444Y-63398414D01*
X169344951Y-63587820D01*
X169469890Y-63759786D01*
X169620213Y-63910109D01*
X169792182Y-64035050D01*
X169800946Y-64039516D01*
X169851742Y-64087491D01*
X169868536Y-64155312D01*
X169845998Y-64221447D01*
X169800946Y-64260484D01*
X169792182Y-64264949D01*
X169620213Y-64389890D01*
X169469890Y-64540213D01*
X169344951Y-64712179D01*
X169248444Y-64901585D01*
X169182753Y-65103760D01*
X169149500Y-65313713D01*
X169149500Y-65526286D01*
X169180283Y-65720646D01*
X169182754Y-65736243D01*
X169219223Y-65848484D01*
X169248444Y-65938414D01*
X169344951Y-66127820D01*
X169469890Y-66299786D01*
X169620213Y-66450109D01*
X169792182Y-66575050D01*
X169800946Y-66579516D01*
X169851742Y-66627491D01*
X169868536Y-66695312D01*
X169845998Y-66761447D01*
X169800946Y-66800484D01*
X169792182Y-66804949D01*
X169620213Y-66929890D01*
X169469890Y-67080213D01*
X169344951Y-67252179D01*
X169248444Y-67441585D01*
X169182753Y-67643760D01*
X169160430Y-67784703D01*
X169149500Y-67853713D01*
X169149500Y-68066287D01*
X169182754Y-68276243D01*
X169235730Y-68439285D01*
X169237725Y-68509125D01*
X169205480Y-68565283D01*
X167480286Y-70290478D01*
X167368481Y-70402282D01*
X167368479Y-70402284D01*
X167346718Y-70439976D01*
X167337520Y-70455909D01*
X167289423Y-70539215D01*
X167248499Y-70691943D01*
X167248499Y-70691945D01*
X167248499Y-70860046D01*
X167248500Y-70860059D01*
X167248500Y-76800264D01*
X167228815Y-76867303D01*
X167212181Y-76887945D01*
X166936945Y-77163181D01*
X166875622Y-77196666D01*
X166849264Y-77199500D01*
X163186878Y-77199500D01*
X163119839Y-77179815D01*
X163074084Y-77127011D01*
X163072215Y-77122069D01*
X163072068Y-77122131D01*
X163009397Y-76970827D01*
X163009390Y-76970814D01*
X162921789Y-76839711D01*
X162921786Y-76839707D01*
X162810292Y-76728213D01*
X162810288Y-76728210D01*
X162679185Y-76640609D01*
X162679172Y-76640602D01*
X162533501Y-76580264D01*
X162533489Y-76580261D01*
X162378845Y-76549500D01*
X162378842Y-76549500D01*
X162221158Y-76549500D01*
X162221155Y-76549500D01*
X162066510Y-76580261D01*
X162066498Y-76580264D01*
X161920827Y-76640602D01*
X161920814Y-76640609D01*
X161789711Y-76728210D01*
X161789707Y-76728213D01*
X161678213Y-76839707D01*
X161678210Y-76839711D01*
X161590609Y-76970814D01*
X161590602Y-76970827D01*
X161530264Y-77116498D01*
X161530261Y-77116510D01*
X161499500Y-77271153D01*
X161499500Y-77428846D01*
X161530261Y-77583489D01*
X161530264Y-77583501D01*
X161590602Y-77729172D01*
X161590609Y-77729185D01*
X161678210Y-77860288D01*
X161678213Y-77860292D01*
X161789707Y-77971786D01*
X161789711Y-77971789D01*
X161920814Y-78059390D01*
X161920827Y-78059397D01*
X162066498Y-78119735D01*
X162066503Y-78119737D01*
X162179435Y-78142200D01*
X162221846Y-78150637D01*
X162283757Y-78183022D01*
X162285336Y-78184572D01*
X162381284Y-78280520D01*
X162433954Y-78310928D01*
X162468095Y-78330639D01*
X162468097Y-78330641D01*
X162506151Y-78352611D01*
X162518215Y-78359577D01*
X162670943Y-78400500D01*
X167062692Y-78400500D01*
X167062708Y-78400501D01*
X167070304Y-78400501D01*
X167228415Y-78400501D01*
X167228418Y-78400501D01*
X167381146Y-78359577D01*
X167431265Y-78330639D01*
X167518077Y-78280520D01*
X167629881Y-78168716D01*
X167629881Y-78168714D01*
X167640089Y-78158507D01*
X167640091Y-78158504D01*
X168217713Y-77580882D01*
X168217716Y-77580881D01*
X168329520Y-77469077D01*
X168379639Y-77382265D01*
X168408577Y-77332146D01*
X168432829Y-77241636D01*
X168435289Y-77235317D01*
X168452642Y-77212808D01*
X168467435Y-77188539D01*
X168473698Y-77185496D01*
X168477949Y-77179983D01*
X168504715Y-77170429D01*
X168530282Y-77158010D01*
X168537195Y-77158836D01*
X168543753Y-77156496D01*
X168571438Y-77162931D01*
X168599657Y-77166305D01*
X168608682Y-77171587D01*
X168611808Y-77172314D01*
X168614294Y-77174872D01*
X168626331Y-77181917D01*
X168769711Y-77291936D01*
X168979788Y-77413224D01*
X169203900Y-77506054D01*
X169438211Y-77568838D01*
X169618586Y-77592584D01*
X169678711Y-77600500D01*
X169678712Y-77600500D01*
X169921289Y-77600500D01*
X169969388Y-77594167D01*
X170161789Y-77568838D01*
X170396100Y-77506054D01*
X170620212Y-77413224D01*
X170830289Y-77291936D01*
X171022738Y-77144265D01*
X171194265Y-76972738D01*
X171341936Y-76780289D01*
X171463224Y-76570212D01*
X171556054Y-76346100D01*
X171618838Y-76111789D01*
X171650500Y-75871288D01*
X171650500Y-75628712D01*
X171618838Y-75388211D01*
X171556054Y-75153900D01*
X171463224Y-74929788D01*
X171341936Y-74719711D01*
X171194265Y-74527262D01*
X171194260Y-74527256D01*
X171022743Y-74355739D01*
X171022736Y-74355733D01*
X170830293Y-74208067D01*
X170830292Y-74208066D01*
X170830289Y-74208064D01*
X170620212Y-74086776D01*
X170620205Y-74086773D01*
X170396104Y-73993947D01*
X170161785Y-73931161D01*
X169921289Y-73899500D01*
X169921288Y-73899500D01*
X169678712Y-73899500D01*
X169678711Y-73899500D01*
X169438214Y-73931161D01*
X169203895Y-73993947D01*
X168979794Y-74086773D01*
X168979785Y-74086777D01*
X168820318Y-74178846D01*
X168779657Y-74202322D01*
X168769706Y-74208067D01*
X168648986Y-74300698D01*
X168583816Y-74325892D01*
X168515372Y-74311853D01*
X168465382Y-74263039D01*
X168449500Y-74202322D01*
X168449500Y-71071096D01*
X168469185Y-71004057D01*
X168485815Y-70983419D01*
X168938400Y-70530833D01*
X168999721Y-70497350D01*
X169069412Y-70502334D01*
X169125346Y-70544205D01*
X169147047Y-70601742D01*
X169148738Y-70601475D01*
X169167468Y-70719735D01*
X169182754Y-70816243D01*
X169210660Y-70902129D01*
X169248444Y-71018414D01*
X169344951Y-71207820D01*
X169469890Y-71379786D01*
X169620213Y-71530109D01*
X169792179Y-71655048D01*
X169792181Y-71655049D01*
X169792184Y-71655051D01*
X169981588Y-71751557D01*
X170183757Y-71817246D01*
X170393713Y-71850500D01*
X170393714Y-71850500D01*
X170606286Y-71850500D01*
X170606287Y-71850500D01*
X170816243Y-71817246D01*
X171018412Y-71751557D01*
X171207816Y-71655051D01*
X171229789Y-71639086D01*
X171379786Y-71530109D01*
X171379788Y-71530106D01*
X171379792Y-71530104D01*
X171530104Y-71379792D01*
X171530106Y-71379788D01*
X171530109Y-71379786D01*
X171655048Y-71207820D01*
X171655047Y-71207820D01*
X171655051Y-71207816D01*
X171751557Y-71018412D01*
X171817246Y-70816243D01*
X171850500Y-70606287D01*
X171850500Y-70393713D01*
X171817246Y-70183757D01*
X171751557Y-69981588D01*
X171655051Y-69792184D01*
X171655049Y-69792181D01*
X171655048Y-69792179D01*
X171530109Y-69620213D01*
X171379786Y-69469890D01*
X171207818Y-69344950D01*
X171207450Y-69344762D01*
X171199054Y-69340485D01*
X171148259Y-69292512D01*
X171131463Y-69224692D01*
X171153999Y-69158556D01*
X171199054Y-69119515D01*
X171207816Y-69115051D01*
X171229789Y-69099086D01*
X171379786Y-68990109D01*
X171379788Y-68990106D01*
X171379792Y-68990104D01*
X171530104Y-68839792D01*
X171530106Y-68839788D01*
X171530109Y-68839786D01*
X171655048Y-68667820D01*
X171655047Y-68667820D01*
X171655051Y-68667816D01*
X171751557Y-68478412D01*
X171817246Y-68276243D01*
X171850500Y-68066287D01*
X171850500Y-67853713D01*
X171828254Y-67713263D01*
X171837208Y-67643973D01*
X171863043Y-67606190D01*
X172787820Y-66681414D01*
X172849142Y-66647930D01*
X172918834Y-66652914D01*
X172974767Y-66694786D01*
X172999184Y-66760250D01*
X172999500Y-66769096D01*
X172999500Y-76246249D01*
X172999274Y-76253736D01*
X172981728Y-76543794D01*
X172979923Y-76558659D01*
X172928219Y-76840798D01*
X172924635Y-76855336D01*
X172839306Y-77129167D01*
X172833997Y-77143168D01*
X172716275Y-77404736D01*
X172709316Y-77417995D01*
X172560928Y-77663459D01*
X172552422Y-77675782D01*
X172375526Y-77901573D01*
X172365596Y-77912781D01*
X172162781Y-78115596D01*
X172151573Y-78125526D01*
X171925782Y-78302422D01*
X171913459Y-78310928D01*
X171667995Y-78459316D01*
X171654736Y-78466275D01*
X171393168Y-78583997D01*
X171379167Y-78589306D01*
X171105336Y-78674635D01*
X171090798Y-78678219D01*
X170808659Y-78729923D01*
X170793794Y-78731728D01*
X170503736Y-78749274D01*
X170496249Y-78749500D01*
X151253751Y-78749500D01*
X151246264Y-78749274D01*
X150956205Y-78731728D01*
X150941340Y-78729923D01*
X150659201Y-78678219D01*
X150644663Y-78674635D01*
X150370832Y-78589306D01*
X150356831Y-78583997D01*
X150095263Y-78466275D01*
X150082004Y-78459316D01*
X149984709Y-78400499D01*
X149836537Y-78310926D01*
X149824217Y-78302422D01*
X149598426Y-78125526D01*
X149587218Y-78115596D01*
X149384403Y-77912781D01*
X149374473Y-77901573D01*
X149197573Y-77675776D01*
X149189075Y-77663465D01*
X149040680Y-77417989D01*
X149033727Y-77404743D01*
X148916000Y-77143163D01*
X148910693Y-77129167D01*
X148910021Y-77127011D01*
X148825363Y-76855335D01*
X148821780Y-76840798D01*
X148770076Y-76558659D01*
X148768271Y-76543794D01*
X148750726Y-76253736D01*
X148750500Y-76246249D01*
X148750500Y-75678711D01*
X149899500Y-75678711D01*
X149899500Y-75921288D01*
X149931161Y-76161785D01*
X149993947Y-76396104D01*
X150070229Y-76580264D01*
X150086776Y-76620212D01*
X150208064Y-76830289D01*
X150208066Y-76830292D01*
X150208067Y-76830293D01*
X150355733Y-77022736D01*
X150355739Y-77022743D01*
X150527256Y-77194260D01*
X150527262Y-77194265D01*
X150719711Y-77341936D01*
X150929788Y-77463224D01*
X151153900Y-77556054D01*
X151388211Y-77618838D01*
X151568586Y-77642584D01*
X151628711Y-77650500D01*
X151628712Y-77650500D01*
X151871289Y-77650500D01*
X151919388Y-77644167D01*
X152111789Y-77618838D01*
X152346100Y-77556054D01*
X152570212Y-77463224D01*
X152780289Y-77341936D01*
X152972738Y-77194265D01*
X153144265Y-77022738D01*
X153291936Y-76830289D01*
X153413224Y-76620212D01*
X153506054Y-76396100D01*
X153568838Y-76161789D01*
X153600500Y-75921288D01*
X153600500Y-75678712D01*
X153593917Y-75628712D01*
X153568838Y-75438214D01*
X153568838Y-75438211D01*
X153506054Y-75203900D01*
X153413224Y-74979788D01*
X153291936Y-74769711D01*
X153169610Y-74610292D01*
X153144266Y-74577263D01*
X153144260Y-74577256D01*
X152972743Y-74405739D01*
X152972736Y-74405733D01*
X152780293Y-74258067D01*
X152780292Y-74258066D01*
X152780289Y-74258064D01*
X152570212Y-74136776D01*
X152570205Y-74136773D01*
X152346104Y-74043947D01*
X152111785Y-73981161D01*
X151871289Y-73949500D01*
X151871288Y-73949500D01*
X151628712Y-73949500D01*
X151628711Y-73949500D01*
X151388214Y-73981161D01*
X151153895Y-74043947D01*
X150929794Y-74136773D01*
X150929785Y-74136777D01*
X150719706Y-74258067D01*
X150527263Y-74405733D01*
X150527256Y-74405739D01*
X150355739Y-74577256D01*
X150355733Y-74577263D01*
X150208067Y-74769706D01*
X150086777Y-74979785D01*
X150086773Y-74979794D01*
X149993947Y-75203895D01*
X149931161Y-75438214D01*
X149899500Y-75678711D01*
X148750500Y-75678711D01*
X148750500Y-68021153D01*
X152749500Y-68021153D01*
X152749500Y-68178846D01*
X152780261Y-68333489D01*
X152780264Y-68333501D01*
X152840602Y-68479172D01*
X152840609Y-68479185D01*
X152928210Y-68610288D01*
X152928213Y-68610292D01*
X152994631Y-68676710D01*
X153028116Y-68738033D01*
X153023132Y-68807725D01*
X153012489Y-68829487D01*
X152939095Y-68948477D01*
X152939092Y-68948484D01*
X152884826Y-69112247D01*
X152884826Y-69112248D01*
X152884825Y-69112248D01*
X152874500Y-69213315D01*
X152874500Y-69786669D01*
X152874501Y-69786687D01*
X152884825Y-69887752D01*
X152915919Y-69981585D01*
X152939092Y-70051516D01*
X153029660Y-70198350D01*
X153151650Y-70320340D01*
X153298484Y-70410908D01*
X153462247Y-70465174D01*
X153563323Y-70475500D01*
X154236676Y-70475499D01*
X154236684Y-70475498D01*
X154236687Y-70475498D01*
X154292030Y-70469844D01*
X154337753Y-70465174D01*
X154501516Y-70410908D01*
X154648350Y-70320340D01*
X154687319Y-70281371D01*
X154695264Y-70277032D01*
X154700690Y-70269785D01*
X154725449Y-70260550D01*
X154748642Y-70247886D01*
X154757671Y-70248531D01*
X154766154Y-70245368D01*
X154791974Y-70250984D01*
X154818334Y-70252870D01*
X154827387Y-70258688D01*
X154834427Y-70260220D01*
X154862681Y-70281371D01*
X154863181Y-70281871D01*
X154896666Y-70343194D01*
X154899500Y-70369552D01*
X154899500Y-73795396D01*
X154890062Y-73842844D01*
X154880263Y-73866503D01*
X154880262Y-73866506D01*
X154880260Y-73866511D01*
X154849500Y-74021153D01*
X154849500Y-74178846D01*
X154880261Y-74333489D01*
X154880264Y-74333501D01*
X154940602Y-74479172D01*
X154940609Y-74479185D01*
X155028210Y-74610288D01*
X155028213Y-74610292D01*
X155139707Y-74721786D01*
X155139711Y-74721789D01*
X155270814Y-74809390D01*
X155270827Y-74809397D01*
X155416498Y-74869735D01*
X155416503Y-74869737D01*
X155571153Y-74900499D01*
X155571156Y-74900500D01*
X155571158Y-74900500D01*
X155728844Y-74900500D01*
X155728845Y-74900499D01*
X155883497Y-74869737D01*
X156029179Y-74809394D01*
X156160289Y-74721789D01*
X156271789Y-74610289D01*
X156359394Y-74479179D01*
X156419737Y-74333497D01*
X156450500Y-74178842D01*
X156450500Y-74021158D01*
X156450500Y-74021155D01*
X156450499Y-74021153D01*
X156419739Y-73866511D01*
X156419738Y-73866508D01*
X156419737Y-73866503D01*
X156409937Y-73842844D01*
X156400500Y-73795396D01*
X156400500Y-72474499D01*
X156420185Y-72407460D01*
X156472989Y-72361705D01*
X156524495Y-72350499D01*
X157597872Y-72350499D01*
X157657483Y-72344091D01*
X157792331Y-72293796D01*
X157907546Y-72207546D01*
X157993796Y-72092331D01*
X158044091Y-71957483D01*
X158050500Y-71897873D01*
X158050499Y-70902135D01*
X161772000Y-70902135D01*
X161772000Y-71997870D01*
X161772001Y-71997876D01*
X161778408Y-72057483D01*
X161828702Y-72192328D01*
X161828706Y-72192335D01*
X161914952Y-72307544D01*
X161914955Y-72307547D01*
X162030164Y-72393793D01*
X162030171Y-72393797D01*
X162165017Y-72444091D01*
X162165016Y-72444091D01*
X162171944Y-72444835D01*
X162224627Y-72450500D01*
X163320372Y-72450499D01*
X163379983Y-72444091D01*
X163514831Y-72393796D01*
X163630046Y-72307546D01*
X163716296Y-72192331D01*
X163766591Y-72057483D01*
X163773000Y-71997873D01*
X163772999Y-70902128D01*
X163766591Y-70842517D01*
X163756791Y-70816243D01*
X163716297Y-70707671D01*
X163716293Y-70707664D01*
X163630047Y-70592455D01*
X163630044Y-70592452D01*
X163514835Y-70506206D01*
X163514828Y-70506202D01*
X163379982Y-70455908D01*
X163379983Y-70455908D01*
X163320383Y-70449501D01*
X163320381Y-70449500D01*
X163320373Y-70449500D01*
X163320364Y-70449500D01*
X162224629Y-70449500D01*
X162224623Y-70449501D01*
X162165016Y-70455908D01*
X162030171Y-70506202D01*
X162030164Y-70506206D01*
X161914955Y-70592452D01*
X161914952Y-70592455D01*
X161828706Y-70707664D01*
X161828702Y-70707671D01*
X161778408Y-70842517D01*
X161772001Y-70902116D01*
X161772001Y-70902123D01*
X161772000Y-70902135D01*
X158050499Y-70902135D01*
X158050499Y-70867846D01*
X158070184Y-70800808D01*
X158122988Y-70755053D01*
X158150307Y-70746230D01*
X158283497Y-70719737D01*
X158429179Y-70659394D01*
X158560289Y-70571789D01*
X158671789Y-70460289D01*
X158759394Y-70329179D01*
X158819737Y-70183497D01*
X158850500Y-70028842D01*
X158850500Y-69871158D01*
X158850500Y-69871155D01*
X158850499Y-69871153D01*
X158834790Y-69792179D01*
X158819737Y-69716503D01*
X158779851Y-69620208D01*
X158759397Y-69570827D01*
X158759390Y-69570814D01*
X158671789Y-69439711D01*
X158671786Y-69439707D01*
X158560292Y-69328213D01*
X158560288Y-69328210D01*
X158429185Y-69240609D01*
X158429172Y-69240602D01*
X158283501Y-69180264D01*
X158283489Y-69180261D01*
X158128845Y-69149500D01*
X158128842Y-69149500D01*
X157971158Y-69149500D01*
X157971155Y-69149500D01*
X157816511Y-69180260D01*
X157816506Y-69180262D01*
X157816504Y-69180262D01*
X157816503Y-69180263D01*
X157792844Y-69190062D01*
X157745396Y-69199500D01*
X157426080Y-69199500D01*
X157281092Y-69228340D01*
X157281082Y-69228343D01*
X157144507Y-69284914D01*
X157054659Y-69344949D01*
X157054658Y-69344950D01*
X157021583Y-69367049D01*
X156887180Y-69501452D01*
X156825857Y-69534936D01*
X156756165Y-69529952D01*
X156700232Y-69488080D01*
X156675815Y-69422616D01*
X156675499Y-69413770D01*
X156675499Y-69213330D01*
X156675498Y-69213313D01*
X156665174Y-69112247D01*
X156610908Y-68948484D01*
X156520340Y-68801650D01*
X156398350Y-68679660D01*
X156251516Y-68589092D01*
X156087753Y-68534826D01*
X156087751Y-68534825D01*
X155986678Y-68524500D01*
X155313330Y-68524500D01*
X155313312Y-68524501D01*
X155212247Y-68534825D01*
X155048484Y-68589092D01*
X155048481Y-68589093D01*
X154901648Y-68679661D01*
X154862681Y-68718629D01*
X154854735Y-68722967D01*
X154849310Y-68730215D01*
X154824550Y-68739449D01*
X154801358Y-68752114D01*
X154792328Y-68751468D01*
X154783846Y-68754632D01*
X154758025Y-68749015D01*
X154731666Y-68747130D01*
X154722612Y-68741311D01*
X154715573Y-68739780D01*
X154687319Y-68718629D01*
X154686819Y-68718129D01*
X154653334Y-68656806D01*
X154650500Y-68630448D01*
X154650500Y-68376080D01*
X154646986Y-68358419D01*
X154633326Y-68289744D01*
X154621659Y-68231088D01*
X154565929Y-68096546D01*
X154565383Y-68094953D01*
X154519366Y-68026083D01*
X154482952Y-67971584D01*
X154296071Y-67784703D01*
X154279406Y-67764013D01*
X154273426Y-67754699D01*
X154259394Y-67720821D01*
X154171789Y-67589711D01*
X154159814Y-67577736D01*
X154152594Y-67566490D01*
X154146372Y-67545267D01*
X154135774Y-67525857D01*
X154136736Y-67512394D01*
X154132940Y-67499442D01*
X154139180Y-67478225D01*
X154140758Y-67456165D01*
X154148846Y-67445360D01*
X154152655Y-67432412D01*
X154169376Y-67417935D01*
X154182630Y-67400232D01*
X154195274Y-67395515D01*
X154205480Y-67386681D01*
X154227373Y-67383543D01*
X154248094Y-67375815D01*
X154256940Y-67375499D01*
X154286670Y-67375499D01*
X154286676Y-67375499D01*
X154387753Y-67365174D01*
X154551516Y-67310908D01*
X154698350Y-67220340D01*
X154737319Y-67181371D01*
X154798642Y-67147886D01*
X154868334Y-67152870D01*
X154912681Y-67181371D01*
X154951650Y-67220340D01*
X155098484Y-67310908D01*
X155262247Y-67365174D01*
X155363323Y-67375500D01*
X156036676Y-67375499D01*
X156036684Y-67375498D01*
X156036687Y-67375498D01*
X156092030Y-67369844D01*
X156137753Y-67365174D01*
X156301516Y-67310908D01*
X156448350Y-67220340D01*
X156570340Y-67098350D01*
X156660908Y-66951516D01*
X156715174Y-66787753D01*
X156725500Y-66686677D01*
X156725499Y-66113324D01*
X156715174Y-66012247D01*
X156660908Y-65848484D01*
X156570340Y-65701650D01*
X156570338Y-65701648D01*
X156568961Y-65699415D01*
X156550500Y-65634318D01*
X156550500Y-64866232D01*
X156550499Y-64866228D01*
X156531522Y-64770822D01*
X156517816Y-64701918D01*
X156453703Y-64547137D01*
X156400636Y-64467717D01*
X156360626Y-64407837D01*
X156242162Y-64289373D01*
X156102860Y-64196295D01*
X155948082Y-64132184D01*
X155948074Y-64132182D01*
X155783771Y-64099500D01*
X155783767Y-64099500D01*
X155616233Y-64099500D01*
X155616228Y-64099500D01*
X155451925Y-64132182D01*
X155451917Y-64132184D01*
X155297139Y-64196295D01*
X155157837Y-64289373D01*
X155039373Y-64407837D01*
X154946295Y-64547139D01*
X154882184Y-64701917D01*
X154882182Y-64701925D01*
X154849500Y-64866228D01*
X154849500Y-65038030D01*
X154839776Y-65071143D01*
X154830266Y-65104363D01*
X154829937Y-65104651D01*
X154829815Y-65105069D01*
X154803812Y-65127600D01*
X154777773Y-65150474D01*
X154777339Y-65150539D01*
X154777011Y-65150824D01*
X154742858Y-65155734D01*
X154708683Y-65160884D01*
X154708285Y-65160705D01*
X154707853Y-65160768D01*
X154676437Y-65146420D01*
X154644932Y-65132290D01*
X154644605Y-65131883D01*
X154644297Y-65131743D01*
X154621640Y-65105773D01*
X154616465Y-65097839D01*
X154615084Y-65094505D01*
X154582186Y-65045270D01*
X154557236Y-65007929D01*
X154532956Y-64971589D01*
X154532952Y-64971584D01*
X154396071Y-64834703D01*
X154369191Y-64794475D01*
X154359394Y-64770821D01*
X154324014Y-64717871D01*
X154271789Y-64639710D01*
X154160292Y-64528213D01*
X154160288Y-64528210D01*
X154029185Y-64440609D01*
X154029172Y-64440602D01*
X153883501Y-64380264D01*
X153883489Y-64380261D01*
X153728845Y-64349500D01*
X153728842Y-64349500D01*
X153571158Y-64349500D01*
X153571155Y-64349500D01*
X153416510Y-64380261D01*
X153416498Y-64380264D01*
X153270827Y-64440602D01*
X153270814Y-64440609D01*
X153139711Y-64528210D01*
X153139707Y-64528213D01*
X153028213Y-64639707D01*
X153028210Y-64639711D01*
X152940609Y-64770814D01*
X152940602Y-64770827D01*
X152880264Y-64916498D01*
X152880261Y-64916510D01*
X152849500Y-65071153D01*
X152849500Y-65228846D01*
X152880261Y-65383489D01*
X152880264Y-65383501D01*
X152940602Y-65529172D01*
X152940609Y-65529185D01*
X153023988Y-65653969D01*
X153044866Y-65720646D01*
X153026425Y-65787956D01*
X152989096Y-65848477D01*
X152989092Y-65848484D01*
X152934826Y-66012247D01*
X152934826Y-66012248D01*
X152934825Y-66012248D01*
X152924500Y-66113315D01*
X152924500Y-66686669D01*
X152924501Y-66686687D01*
X152934825Y-66787752D01*
X152940524Y-66804949D01*
X152989092Y-66951516D01*
X153074999Y-67090794D01*
X153079661Y-67098351D01*
X153184528Y-67203218D01*
X153218013Y-67264541D01*
X153213029Y-67334233D01*
X153171157Y-67390166D01*
X153165738Y-67394001D01*
X153039711Y-67478210D01*
X153039707Y-67478213D01*
X152928213Y-67589707D01*
X152928210Y-67589711D01*
X152840609Y-67720814D01*
X152840602Y-67720827D01*
X152780264Y-67866498D01*
X152780261Y-67866510D01*
X152749500Y-68021153D01*
X148750500Y-68021153D01*
X148750500Y-57547844D01*
X154250000Y-57547844D01*
X154256401Y-57607372D01*
X154256403Y-57607379D01*
X154306645Y-57742086D01*
X154306649Y-57742093D01*
X154392809Y-57857187D01*
X154392812Y-57857190D01*
X154507906Y-57943350D01*
X154507913Y-57943354D01*
X154642620Y-57993596D01*
X154642627Y-57993598D01*
X154702155Y-57999999D01*
X154702172Y-58000000D01*
X155250000Y-58000000D01*
X155750000Y-58000000D01*
X156297828Y-58000000D01*
X156297844Y-57999999D01*
X156357372Y-57993598D01*
X156357379Y-57993596D01*
X156492086Y-57943354D01*
X156492093Y-57943350D01*
X156607187Y-57857190D01*
X156607190Y-57857187D01*
X156693350Y-57742093D01*
X156693354Y-57742086D01*
X156743596Y-57607379D01*
X156743598Y-57607372D01*
X156749999Y-57547844D01*
X156750000Y-57547827D01*
X156750000Y-57000000D01*
X155750000Y-57000000D01*
X155750000Y-58000000D01*
X155250000Y-58000000D01*
X155250000Y-57000000D01*
X154250000Y-57000000D01*
X154250000Y-57547844D01*
X148750500Y-57547844D01*
X148750500Y-56703922D01*
X155150000Y-56703922D01*
X155150000Y-56796078D01*
X155173852Y-56885095D01*
X155219930Y-56964905D01*
X155285095Y-57030070D01*
X155364905Y-57076148D01*
X155453922Y-57100000D01*
X155546078Y-57100000D01*
X155635095Y-57076148D01*
X155714905Y-57030070D01*
X155780070Y-56964905D01*
X155826148Y-56885095D01*
X155850000Y-56796078D01*
X155850000Y-56703922D01*
X155826148Y-56614905D01*
X155780070Y-56535095D01*
X155744975Y-56500000D01*
X155750000Y-56500000D01*
X156750000Y-56500000D01*
X156750000Y-55952172D01*
X156749999Y-55952155D01*
X156743598Y-55892627D01*
X156743596Y-55892620D01*
X156693354Y-55757913D01*
X156693350Y-55757906D01*
X156607190Y-55642812D01*
X156607187Y-55642809D01*
X156492093Y-55556649D01*
X156492086Y-55556645D01*
X156357379Y-55506403D01*
X156357372Y-55506401D01*
X156297844Y-55500000D01*
X155750000Y-55500000D01*
X155750000Y-56500000D01*
X155744975Y-56500000D01*
X155714905Y-56469930D01*
X155635095Y-56423852D01*
X155546078Y-56400000D01*
X155453922Y-56400000D01*
X155364905Y-56423852D01*
X155285095Y-56469930D01*
X155219930Y-56535095D01*
X155173852Y-56614905D01*
X155150000Y-56703922D01*
X148750500Y-56703922D01*
X148750500Y-55952155D01*
X154250000Y-55952155D01*
X154250000Y-56500000D01*
X155250000Y-56500000D01*
X155250000Y-55500000D01*
X154702155Y-55500000D01*
X154642627Y-55506401D01*
X154642620Y-55506403D01*
X154507913Y-55556645D01*
X154507906Y-55556649D01*
X154392812Y-55642809D01*
X154392809Y-55642812D01*
X154306649Y-55757906D01*
X154306645Y-55757913D01*
X154256403Y-55892620D01*
X154256401Y-55892627D01*
X154250000Y-55952155D01*
X148750500Y-55952155D01*
X148750500Y-52628711D01*
X149899500Y-52628711D01*
X149899500Y-52871288D01*
X149931161Y-53111785D01*
X149993947Y-53346104D01*
X150086773Y-53570205D01*
X150086776Y-53570212D01*
X150208064Y-53780289D01*
X150208066Y-53780292D01*
X150208067Y-53780293D01*
X150355733Y-53972736D01*
X150355739Y-53972743D01*
X150527256Y-54144260D01*
X150527263Y-54144266D01*
X150599246Y-54199500D01*
X150719711Y-54291936D01*
X150929788Y-54413224D01*
X151153900Y-54506054D01*
X151388211Y-54568838D01*
X151568586Y-54592584D01*
X151628711Y-54600500D01*
X151628712Y-54600500D01*
X151871289Y-54600500D01*
X151919388Y-54594167D01*
X152111789Y-54568838D01*
X152346100Y-54506054D01*
X152570212Y-54413224D01*
X152780289Y-54291936D01*
X152972738Y-54144265D01*
X153144265Y-53972738D01*
X153291936Y-53780289D01*
X153413224Y-53570212D01*
X153506054Y-53346100D01*
X153568838Y-53111789D01*
X153600500Y-52871288D01*
X153600500Y-52628712D01*
X153581368Y-52483389D01*
X157649500Y-52483389D01*
X157649500Y-52656611D01*
X157676598Y-52827701D01*
X157730127Y-52992445D01*
X157808768Y-53146788D01*
X157910586Y-53286928D01*
X158033072Y-53409414D01*
X158173212Y-53511232D01*
X158327555Y-53589873D01*
X158492299Y-53643402D01*
X158663389Y-53670500D01*
X158663390Y-53670500D01*
X158836610Y-53670500D01*
X158836611Y-53670500D01*
X159007701Y-53643402D01*
X159172445Y-53589873D01*
X159326788Y-53511232D01*
X159466928Y-53409414D01*
X159589414Y-53286928D01*
X159691232Y-53146788D01*
X159769873Y-52992445D01*
X159823402Y-52827701D01*
X159850500Y-52656611D01*
X159850500Y-52483389D01*
X162649500Y-52483389D01*
X162649500Y-52656611D01*
X162676598Y-52827701D01*
X162730127Y-52992445D01*
X162808768Y-53146788D01*
X162910586Y-53286928D01*
X163033072Y-53409414D01*
X163173212Y-53511232D01*
X163327555Y-53589873D01*
X163492299Y-53643402D01*
X163663389Y-53670500D01*
X163663390Y-53670500D01*
X163836610Y-53670500D01*
X163836611Y-53670500D01*
X164007701Y-53643402D01*
X164172445Y-53589873D01*
X164326788Y-53511232D01*
X164466928Y-53409414D01*
X164589414Y-53286928D01*
X164691232Y-53146788D01*
X164769873Y-52992445D01*
X164823402Y-52827701D01*
X164850500Y-52656611D01*
X164850500Y-52483389D01*
X164823402Y-52312299D01*
X164769873Y-52147555D01*
X164691232Y-51993212D01*
X164589414Y-51853072D01*
X164466928Y-51730586D01*
X164326788Y-51628768D01*
X164172445Y-51550127D01*
X164007701Y-51496598D01*
X164007699Y-51496597D01*
X164007698Y-51496597D01*
X163876271Y-51475781D01*
X163836611Y-51469500D01*
X163663389Y-51469500D01*
X163623728Y-51475781D01*
X163492302Y-51496597D01*
X163327552Y-51550128D01*
X163173211Y-51628768D01*
X163093256Y-51686859D01*
X163033072Y-51730586D01*
X163033070Y-51730588D01*
X163033069Y-51730588D01*
X162910588Y-51853069D01*
X162910588Y-51853070D01*
X162910586Y-51853072D01*
X162866859Y-51913256D01*
X162808768Y-51993211D01*
X162730128Y-52147552D01*
X162676597Y-52312302D01*
X162664574Y-52388214D01*
X162649500Y-52483389D01*
X159850500Y-52483389D01*
X159823402Y-52312299D01*
X159769873Y-52147555D01*
X159691232Y-51993212D01*
X159589414Y-51853072D01*
X159466928Y-51730586D01*
X159326788Y-51628768D01*
X159172445Y-51550127D01*
X159007701Y-51496598D01*
X159007699Y-51496597D01*
X159007698Y-51496597D01*
X158876271Y-51475781D01*
X158836611Y-51469500D01*
X158663389Y-51469500D01*
X158623728Y-51475781D01*
X158492302Y-51496597D01*
X158327552Y-51550128D01*
X158173211Y-51628768D01*
X158093256Y-51686859D01*
X158033072Y-51730586D01*
X158033070Y-51730588D01*
X158033069Y-51730588D01*
X157910588Y-51853069D01*
X157910588Y-51853070D01*
X157910586Y-51853072D01*
X157866859Y-51913256D01*
X157808768Y-51993211D01*
X157730128Y-52147552D01*
X157676597Y-52312302D01*
X157664574Y-52388214D01*
X157649500Y-52483389D01*
X153581368Y-52483389D01*
X153568838Y-52388214D01*
X153568838Y-52388211D01*
X153506054Y-52153900D01*
X153413224Y-51929788D01*
X153291936Y-51719711D01*
X153144265Y-51527262D01*
X153144260Y-51527256D01*
X152972743Y-51355739D01*
X152972736Y-51355733D01*
X152780293Y-51208067D01*
X152780292Y-51208066D01*
X152780289Y-51208064D01*
X152584912Y-51095263D01*
X152570214Y-51086777D01*
X152570205Y-51086773D01*
X152346104Y-50993947D01*
X152111785Y-50931161D01*
X151871289Y-50899500D01*
X151871288Y-50899500D01*
X151628712Y-50899500D01*
X151628711Y-50899500D01*
X151388214Y-50931161D01*
X151153895Y-50993947D01*
X150929794Y-51086773D01*
X150929785Y-51086777D01*
X150719706Y-51208067D01*
X150527263Y-51355733D01*
X150527256Y-51355739D01*
X150355739Y-51527256D01*
X150355733Y-51527263D01*
X150208067Y-51719706D01*
X150086777Y-51929785D01*
X150086773Y-51929794D01*
X149993947Y-52153895D01*
X149931161Y-52388214D01*
X149899500Y-52628711D01*
X148750500Y-52628711D01*
X148750500Y-52253750D01*
X148750726Y-52246263D01*
X148768271Y-51956205D01*
X148770076Y-51941340D01*
X148786253Y-51853069D01*
X148821780Y-51659197D01*
X148825364Y-51644663D01*
X148830317Y-51628768D01*
X148910696Y-51370822D01*
X148915998Y-51356841D01*
X149033731Y-51095249D01*
X149040676Y-51082016D01*
X149189080Y-50836526D01*
X149197567Y-50824230D01*
X149374480Y-50598417D01*
X149384395Y-50587226D01*
X149587226Y-50384395D01*
X149598417Y-50374480D01*
X149824230Y-50197567D01*
X149836526Y-50189080D01*
X150082016Y-50040676D01*
X150095249Y-50033731D01*
X150356841Y-49915998D01*
X150370822Y-49910696D01*
X150644668Y-49825362D01*
X150659197Y-49821780D01*
X150941344Y-49770075D01*
X150956201Y-49768271D01*
X151246264Y-49750726D01*
X151253751Y-49750500D01*
X151315892Y-49750500D01*
X170434108Y-49750500D01*
X170496249Y-49750500D01*
X170503736Y-49750726D01*
G37*
%TD.AperFunction*%
%TD*%
M02*
