%TF.GenerationSoftware,KiCad,Pcbnew,9.0.4*%
%TF.CreationDate,2026-02-14T22:53:23-06:00*%
%TF.ProjectId,ir_board,69725f62-6f61-4726-942e-6b696361645f,rev?*%
%TF.SameCoordinates,Original*%
%TF.FileFunction,Legend,Bot*%
%TF.FilePolarity,Positive*%
%FSLAX46Y46*%
G04 Gerber Fmt 4.6, Leading zero omitted, Abs format (unit mm)*
G04 Created by KiCad (PCBNEW 9.0.4) date 2026-02-14 22:53:23*
%MOMM*%
%LPD*%
G01*
G04 APERTURE LIST*
G04 Aperture macros list*
%AMRoundRect*
0 Rectangle with rounded corners*
0 $1 Rounding radius*
0 $2 $3 $4 $5 $6 $7 $8 $9 X,Y pos of 4 corners*
0 Add a 4 corners polygon primitive as box body*
4,1,4,$2,$3,$4,$5,$6,$7,$8,$9,$2,$3,0*
0 Add four circle primitives for the rounded corners*
1,1,$1+$1,$2,$3*
1,1,$1+$1,$4,$5*
1,1,$1+$1,$6,$7*
1,1,$1+$1,$8,$9*
0 Add four rect primitives between the rounded corners*
20,1,$1+$1,$2,$3,$4,$5,0*
20,1,$1+$1,$4,$5,$6,$7,0*
20,1,$1+$1,$6,$7,$8,$9,0*
20,1,$1+$1,$8,$9,$2,$3,0*%
G04 Aperture macros list end*
%ADD10C,0.150000*%
%ADD11C,0.175000*%
%ADD12C,0.100000*%
%ADD13C,0.120000*%
%ADD14R,1.500000X1.500000*%
%ADD15C,1.700000*%
%ADD16R,1.700000X1.700000*%
%ADD17C,3.200000*%
%ADD18R,1.000000X1.000000*%
%ADD19RoundRect,0.237500X0.287500X0.237500X-0.287500X0.237500X-0.287500X-0.237500X0.287500X-0.237500X0*%
%ADD20RoundRect,0.250000X0.600000X-0.600000X0.600000X0.600000X-0.600000X0.600000X-0.600000X-0.600000X0*%
G04 APERTURE END LIST*
D10*
X150066033Y-62250001D02*
X149732700Y-62016668D01*
X150066033Y-61850001D02*
X149366033Y-61850001D01*
X149366033Y-61850001D02*
X149366033Y-62116668D01*
X149366033Y-62116668D02*
X149399366Y-62183335D01*
X149399366Y-62183335D02*
X149432700Y-62216668D01*
X149432700Y-62216668D02*
X149499366Y-62250001D01*
X149499366Y-62250001D02*
X149599366Y-62250001D01*
X149599366Y-62250001D02*
X149666033Y-62216668D01*
X149666033Y-62216668D02*
X149699366Y-62183335D01*
X149699366Y-62183335D02*
X149732700Y-62116668D01*
X149732700Y-62116668D02*
X149732700Y-61850001D01*
X150066033Y-62550001D02*
X149599366Y-62550001D01*
X149366033Y-62550001D02*
X149399366Y-62516668D01*
X149399366Y-62516668D02*
X149432700Y-62550001D01*
X149432700Y-62550001D02*
X149399366Y-62583335D01*
X149399366Y-62583335D02*
X149366033Y-62550001D01*
X149366033Y-62550001D02*
X149432700Y-62550001D01*
X150066033Y-63183334D02*
X149366033Y-63183334D01*
X150032700Y-63183334D02*
X150066033Y-63116668D01*
X150066033Y-63116668D02*
X150066033Y-62983334D01*
X150066033Y-62983334D02*
X150032700Y-62916668D01*
X150032700Y-62916668D02*
X149999366Y-62883334D01*
X149999366Y-62883334D02*
X149932700Y-62850001D01*
X149932700Y-62850001D02*
X149732700Y-62850001D01*
X149732700Y-62850001D02*
X149666033Y-62883334D01*
X149666033Y-62883334D02*
X149632700Y-62916668D01*
X149632700Y-62916668D02*
X149599366Y-62983334D01*
X149599366Y-62983334D02*
X149599366Y-63116668D01*
X149599366Y-63116668D02*
X149632700Y-63183334D01*
X150032700Y-63783334D02*
X150066033Y-63716667D01*
X150066033Y-63716667D02*
X150066033Y-63583334D01*
X150066033Y-63583334D02*
X150032700Y-63516667D01*
X150032700Y-63516667D02*
X149966033Y-63483334D01*
X149966033Y-63483334D02*
X149699366Y-63483334D01*
X149699366Y-63483334D02*
X149632700Y-63516667D01*
X149632700Y-63516667D02*
X149599366Y-63583334D01*
X149599366Y-63583334D02*
X149599366Y-63716667D01*
X149599366Y-63716667D02*
X149632700Y-63783334D01*
X149632700Y-63783334D02*
X149699366Y-63816667D01*
X149699366Y-63816667D02*
X149766033Y-63816667D01*
X149766033Y-63816667D02*
X149832700Y-63483334D01*
X150066033Y-64116667D02*
X149366033Y-64116667D01*
X150066033Y-64416667D02*
X149699366Y-64416667D01*
X149699366Y-64416667D02*
X149632700Y-64383334D01*
X149632700Y-64383334D02*
X149599366Y-64316667D01*
X149599366Y-64316667D02*
X149599366Y-64216667D01*
X149599366Y-64216667D02*
X149632700Y-64150001D01*
X149632700Y-64150001D02*
X149666033Y-64116667D01*
X150032700Y-65016667D02*
X150066033Y-64950000D01*
X150066033Y-64950000D02*
X150066033Y-64816667D01*
X150066033Y-64816667D02*
X150032700Y-64750000D01*
X150032700Y-64750000D02*
X149966033Y-64716667D01*
X149966033Y-64716667D02*
X149699366Y-64716667D01*
X149699366Y-64716667D02*
X149632700Y-64750000D01*
X149632700Y-64750000D02*
X149599366Y-64816667D01*
X149599366Y-64816667D02*
X149599366Y-64950000D01*
X149599366Y-64950000D02*
X149632700Y-65016667D01*
X149632700Y-65016667D02*
X149699366Y-65050000D01*
X149699366Y-65050000D02*
X149766033Y-65050000D01*
X149766033Y-65050000D02*
X149832700Y-64716667D01*
X150066033Y-65350000D02*
X149599366Y-65350000D01*
X149366033Y-65350000D02*
X149399366Y-65316667D01*
X149399366Y-65316667D02*
X149432700Y-65350000D01*
X149432700Y-65350000D02*
X149399366Y-65383334D01*
X149399366Y-65383334D02*
X149366033Y-65350000D01*
X149366033Y-65350000D02*
X149432700Y-65350000D01*
X149599366Y-65983333D02*
X150166033Y-65983333D01*
X150166033Y-65983333D02*
X150232700Y-65950000D01*
X150232700Y-65950000D02*
X150266033Y-65916667D01*
X150266033Y-65916667D02*
X150299366Y-65850000D01*
X150299366Y-65850000D02*
X150299366Y-65750000D01*
X150299366Y-65750000D02*
X150266033Y-65683333D01*
X150032700Y-65983333D02*
X150066033Y-65916667D01*
X150066033Y-65916667D02*
X150066033Y-65783333D01*
X150066033Y-65783333D02*
X150032700Y-65716667D01*
X150032700Y-65716667D02*
X149999366Y-65683333D01*
X149999366Y-65683333D02*
X149932700Y-65650000D01*
X149932700Y-65650000D02*
X149732700Y-65650000D01*
X149732700Y-65650000D02*
X149666033Y-65683333D01*
X149666033Y-65683333D02*
X149632700Y-65716667D01*
X149632700Y-65716667D02*
X149599366Y-65783333D01*
X149599366Y-65783333D02*
X149599366Y-65916667D01*
X149599366Y-65916667D02*
X149632700Y-65983333D01*
X150066033Y-66316666D02*
X149366033Y-66316666D01*
X150066033Y-66616666D02*
X149699366Y-66616666D01*
X149699366Y-66616666D02*
X149632700Y-66583333D01*
X149632700Y-66583333D02*
X149599366Y-66516666D01*
X149599366Y-66516666D02*
X149599366Y-66416666D01*
X149599366Y-66416666D02*
X149632700Y-66350000D01*
X149632700Y-66350000D02*
X149666033Y-66316666D01*
X149599366Y-66849999D02*
X149599366Y-67116666D01*
X149366033Y-66949999D02*
X149966033Y-66949999D01*
X149966033Y-66949999D02*
X150032700Y-66983333D01*
X150032700Y-66983333D02*
X150066033Y-67049999D01*
X150066033Y-67049999D02*
X150066033Y-67116666D01*
X149699366Y-68116666D02*
X149732700Y-68216666D01*
X149732700Y-68216666D02*
X149766033Y-68249999D01*
X149766033Y-68249999D02*
X149832700Y-68283332D01*
X149832700Y-68283332D02*
X149932700Y-68283332D01*
X149932700Y-68283332D02*
X149999366Y-68249999D01*
X149999366Y-68249999D02*
X150032700Y-68216666D01*
X150032700Y-68216666D02*
X150066033Y-68149999D01*
X150066033Y-68149999D02*
X150066033Y-67883332D01*
X150066033Y-67883332D02*
X149366033Y-67883332D01*
X149366033Y-67883332D02*
X149366033Y-68116666D01*
X149366033Y-68116666D02*
X149399366Y-68183332D01*
X149399366Y-68183332D02*
X149432700Y-68216666D01*
X149432700Y-68216666D02*
X149499366Y-68249999D01*
X149499366Y-68249999D02*
X149566033Y-68249999D01*
X149566033Y-68249999D02*
X149632700Y-68216666D01*
X149632700Y-68216666D02*
X149666033Y-68183332D01*
X149666033Y-68183332D02*
X149699366Y-68116666D01*
X149699366Y-68116666D02*
X149699366Y-67883332D01*
X150066033Y-68583332D02*
X149599366Y-68583332D01*
X149732700Y-68583332D02*
X149666033Y-68616666D01*
X149666033Y-68616666D02*
X149632700Y-68649999D01*
X149632700Y-68649999D02*
X149599366Y-68716666D01*
X149599366Y-68716666D02*
X149599366Y-68783332D01*
X150032700Y-69283332D02*
X150066033Y-69216665D01*
X150066033Y-69216665D02*
X150066033Y-69083332D01*
X150066033Y-69083332D02*
X150032700Y-69016665D01*
X150032700Y-69016665D02*
X149966033Y-68983332D01*
X149966033Y-68983332D02*
X149699366Y-68983332D01*
X149699366Y-68983332D02*
X149632700Y-69016665D01*
X149632700Y-69016665D02*
X149599366Y-69083332D01*
X149599366Y-69083332D02*
X149599366Y-69216665D01*
X149599366Y-69216665D02*
X149632700Y-69283332D01*
X149632700Y-69283332D02*
X149699366Y-69316665D01*
X149699366Y-69316665D02*
X149766033Y-69316665D01*
X149766033Y-69316665D02*
X149832700Y-68983332D01*
X150066033Y-69916665D02*
X149699366Y-69916665D01*
X149699366Y-69916665D02*
X149632700Y-69883332D01*
X149632700Y-69883332D02*
X149599366Y-69816665D01*
X149599366Y-69816665D02*
X149599366Y-69683332D01*
X149599366Y-69683332D02*
X149632700Y-69616665D01*
X150032700Y-69916665D02*
X150066033Y-69849999D01*
X150066033Y-69849999D02*
X150066033Y-69683332D01*
X150066033Y-69683332D02*
X150032700Y-69616665D01*
X150032700Y-69616665D02*
X149966033Y-69583332D01*
X149966033Y-69583332D02*
X149899366Y-69583332D01*
X149899366Y-69583332D02*
X149832700Y-69616665D01*
X149832700Y-69616665D02*
X149799366Y-69683332D01*
X149799366Y-69683332D02*
X149799366Y-69849999D01*
X149799366Y-69849999D02*
X149766033Y-69916665D01*
X150066033Y-70249998D02*
X149366033Y-70249998D01*
X149799366Y-70316665D02*
X150066033Y-70516665D01*
X149599366Y-70516665D02*
X149866033Y-70249998D01*
X150066033Y-70916665D02*
X150032700Y-70849999D01*
X150032700Y-70849999D02*
X149999366Y-70816665D01*
X149999366Y-70816665D02*
X149932700Y-70783332D01*
X149932700Y-70783332D02*
X149732700Y-70783332D01*
X149732700Y-70783332D02*
X149666033Y-70816665D01*
X149666033Y-70816665D02*
X149632700Y-70849999D01*
X149632700Y-70849999D02*
X149599366Y-70916665D01*
X149599366Y-70916665D02*
X149599366Y-71016665D01*
X149599366Y-71016665D02*
X149632700Y-71083332D01*
X149632700Y-71083332D02*
X149666033Y-71116665D01*
X149666033Y-71116665D02*
X149732700Y-71149999D01*
X149732700Y-71149999D02*
X149932700Y-71149999D01*
X149932700Y-71149999D02*
X149999366Y-71116665D01*
X149999366Y-71116665D02*
X150032700Y-71083332D01*
X150032700Y-71083332D02*
X150066033Y-71016665D01*
X150066033Y-71016665D02*
X150066033Y-70916665D01*
X149599366Y-71749998D02*
X150066033Y-71749998D01*
X149599366Y-71449998D02*
X149966033Y-71449998D01*
X149966033Y-71449998D02*
X150032700Y-71483332D01*
X150032700Y-71483332D02*
X150066033Y-71549998D01*
X150066033Y-71549998D02*
X150066033Y-71649998D01*
X150066033Y-71649998D02*
X150032700Y-71716665D01*
X150032700Y-71716665D02*
X149999366Y-71749998D01*
X149599366Y-71983331D02*
X149599366Y-72249998D01*
X149366033Y-72083331D02*
X149966033Y-72083331D01*
X149966033Y-72083331D02*
X150032700Y-72116665D01*
X150032700Y-72116665D02*
X150066033Y-72183331D01*
X150066033Y-72183331D02*
X150066033Y-72249998D01*
X169400000Y-60299366D02*
X168866667Y-60299366D01*
X169133333Y-60566033D02*
X169133333Y-60032700D01*
X168600000Y-59866033D02*
X168166666Y-59866033D01*
X168166666Y-59866033D02*
X168400000Y-60132700D01*
X168400000Y-60132700D02*
X168300000Y-60132700D01*
X168300000Y-60132700D02*
X168233333Y-60166033D01*
X168233333Y-60166033D02*
X168200000Y-60199366D01*
X168200000Y-60199366D02*
X168166666Y-60266033D01*
X168166666Y-60266033D02*
X168166666Y-60432700D01*
X168166666Y-60432700D02*
X168200000Y-60499366D01*
X168200000Y-60499366D02*
X168233333Y-60532700D01*
X168233333Y-60532700D02*
X168300000Y-60566033D01*
X168300000Y-60566033D02*
X168500000Y-60566033D01*
X168500000Y-60566033D02*
X168566666Y-60532700D01*
X168566666Y-60532700D02*
X168600000Y-60499366D01*
X167866666Y-60499366D02*
X167833333Y-60532700D01*
X167833333Y-60532700D02*
X167866666Y-60566033D01*
X167866666Y-60566033D02*
X167899999Y-60532700D01*
X167899999Y-60532700D02*
X167866666Y-60499366D01*
X167866666Y-60499366D02*
X167866666Y-60566033D01*
X167600000Y-59866033D02*
X167166666Y-59866033D01*
X167166666Y-59866033D02*
X167400000Y-60132700D01*
X167400000Y-60132700D02*
X167300000Y-60132700D01*
X167300000Y-60132700D02*
X167233333Y-60166033D01*
X167233333Y-60166033D02*
X167200000Y-60199366D01*
X167200000Y-60199366D02*
X167166666Y-60266033D01*
X167166666Y-60266033D02*
X167166666Y-60432700D01*
X167166666Y-60432700D02*
X167200000Y-60499366D01*
X167200000Y-60499366D02*
X167233333Y-60532700D01*
X167233333Y-60532700D02*
X167300000Y-60566033D01*
X167300000Y-60566033D02*
X167500000Y-60566033D01*
X167500000Y-60566033D02*
X167566666Y-60532700D01*
X167566666Y-60532700D02*
X167600000Y-60499366D01*
X166966666Y-59866033D02*
X166733333Y-60566033D01*
X166733333Y-60566033D02*
X166499999Y-59866033D01*
X168533332Y-70399366D02*
X168599999Y-70366033D01*
X168599999Y-70366033D02*
X168699999Y-70366033D01*
X168699999Y-70366033D02*
X168799999Y-70399366D01*
X168799999Y-70399366D02*
X168866666Y-70466033D01*
X168866666Y-70466033D02*
X168899999Y-70532700D01*
X168899999Y-70532700D02*
X168933332Y-70666033D01*
X168933332Y-70666033D02*
X168933332Y-70766033D01*
X168933332Y-70766033D02*
X168899999Y-70899366D01*
X168899999Y-70899366D02*
X168866666Y-70966033D01*
X168866666Y-70966033D02*
X168799999Y-71032700D01*
X168799999Y-71032700D02*
X168699999Y-71066033D01*
X168699999Y-71066033D02*
X168633332Y-71066033D01*
X168633332Y-71066033D02*
X168533332Y-71032700D01*
X168533332Y-71032700D02*
X168499999Y-70999366D01*
X168499999Y-70999366D02*
X168499999Y-70766033D01*
X168499999Y-70766033D02*
X168633332Y-70766033D01*
X168199999Y-71066033D02*
X168199999Y-70366033D01*
X168199999Y-70366033D02*
X167799999Y-71066033D01*
X167799999Y-71066033D02*
X167799999Y-70366033D01*
X167466666Y-71066033D02*
X167466666Y-70366033D01*
X167466666Y-70366033D02*
X167299999Y-70366033D01*
X167299999Y-70366033D02*
X167199999Y-70399366D01*
X167199999Y-70399366D02*
X167133333Y-70466033D01*
X167133333Y-70466033D02*
X167099999Y-70532700D01*
X167099999Y-70532700D02*
X167066666Y-70666033D01*
X167066666Y-70666033D02*
X167066666Y-70766033D01*
X167066666Y-70766033D02*
X167099999Y-70899366D01*
X167099999Y-70899366D02*
X167133333Y-70966033D01*
X167133333Y-70966033D02*
X167199999Y-71032700D01*
X167199999Y-71032700D02*
X167299999Y-71066033D01*
X167299999Y-71066033D02*
X167466666Y-71066033D01*
X168883332Y-68316033D02*
X168883332Y-67616033D01*
X168549999Y-68316033D02*
X168549999Y-67616033D01*
X168549999Y-67616033D02*
X168149999Y-68316033D01*
X168149999Y-68316033D02*
X168149999Y-67616033D01*
X167916666Y-67616033D02*
X167516666Y-67616033D01*
X167716666Y-68316033D02*
X167716666Y-67616033D01*
X168849999Y-66032700D02*
X168749999Y-66066033D01*
X168749999Y-66066033D02*
X168583333Y-66066033D01*
X168583333Y-66066033D02*
X168516666Y-66032700D01*
X168516666Y-66032700D02*
X168483333Y-65999366D01*
X168483333Y-65999366D02*
X168449999Y-65932700D01*
X168449999Y-65932700D02*
X168449999Y-65866033D01*
X168449999Y-65866033D02*
X168483333Y-65799366D01*
X168483333Y-65799366D02*
X168516666Y-65766033D01*
X168516666Y-65766033D02*
X168583333Y-65732700D01*
X168583333Y-65732700D02*
X168716666Y-65699366D01*
X168716666Y-65699366D02*
X168783333Y-65666033D01*
X168783333Y-65666033D02*
X168816666Y-65632700D01*
X168816666Y-65632700D02*
X168849999Y-65566033D01*
X168849999Y-65566033D02*
X168849999Y-65499366D01*
X168849999Y-65499366D02*
X168816666Y-65432700D01*
X168816666Y-65432700D02*
X168783333Y-65399366D01*
X168783333Y-65399366D02*
X168716666Y-65366033D01*
X168716666Y-65366033D02*
X168549999Y-65366033D01*
X168549999Y-65366033D02*
X168449999Y-65399366D01*
X168149999Y-66066033D02*
X168149999Y-65366033D01*
X168149999Y-65366033D02*
X167983332Y-65366033D01*
X167983332Y-65366033D02*
X167883332Y-65399366D01*
X167883332Y-65399366D02*
X167816666Y-65466033D01*
X167816666Y-65466033D02*
X167783332Y-65532700D01*
X167783332Y-65532700D02*
X167749999Y-65666033D01*
X167749999Y-65666033D02*
X167749999Y-65766033D01*
X167749999Y-65766033D02*
X167783332Y-65899366D01*
X167783332Y-65899366D02*
X167816666Y-65966033D01*
X167816666Y-65966033D02*
X167883332Y-66032700D01*
X167883332Y-66032700D02*
X167983332Y-66066033D01*
X167983332Y-66066033D02*
X168149999Y-66066033D01*
X167483332Y-65866033D02*
X167149999Y-65866033D01*
X167549999Y-66066033D02*
X167316666Y-65366033D01*
X167316666Y-65366033D02*
X167083332Y-66066033D01*
X168833333Y-63282700D02*
X168733333Y-63316033D01*
X168733333Y-63316033D02*
X168566667Y-63316033D01*
X168566667Y-63316033D02*
X168500000Y-63282700D01*
X168500000Y-63282700D02*
X168466667Y-63249366D01*
X168466667Y-63249366D02*
X168433333Y-63182700D01*
X168433333Y-63182700D02*
X168433333Y-63116033D01*
X168433333Y-63116033D02*
X168466667Y-63049366D01*
X168466667Y-63049366D02*
X168500000Y-63016033D01*
X168500000Y-63016033D02*
X168566667Y-62982700D01*
X168566667Y-62982700D02*
X168700000Y-62949366D01*
X168700000Y-62949366D02*
X168766667Y-62916033D01*
X168766667Y-62916033D02*
X168800000Y-62882700D01*
X168800000Y-62882700D02*
X168833333Y-62816033D01*
X168833333Y-62816033D02*
X168833333Y-62749366D01*
X168833333Y-62749366D02*
X168800000Y-62682700D01*
X168800000Y-62682700D02*
X168766667Y-62649366D01*
X168766667Y-62649366D02*
X168700000Y-62616033D01*
X168700000Y-62616033D02*
X168533333Y-62616033D01*
X168533333Y-62616033D02*
X168433333Y-62649366D01*
X167733333Y-63249366D02*
X167766666Y-63282700D01*
X167766666Y-63282700D02*
X167866666Y-63316033D01*
X167866666Y-63316033D02*
X167933333Y-63316033D01*
X167933333Y-63316033D02*
X168033333Y-63282700D01*
X168033333Y-63282700D02*
X168100000Y-63216033D01*
X168100000Y-63216033D02*
X168133333Y-63149366D01*
X168133333Y-63149366D02*
X168166666Y-63016033D01*
X168166666Y-63016033D02*
X168166666Y-62916033D01*
X168166666Y-62916033D02*
X168133333Y-62782700D01*
X168133333Y-62782700D02*
X168100000Y-62716033D01*
X168100000Y-62716033D02*
X168033333Y-62649366D01*
X168033333Y-62649366D02*
X167933333Y-62616033D01*
X167933333Y-62616033D02*
X167866666Y-62616033D01*
X167866666Y-62616033D02*
X167766666Y-62649366D01*
X167766666Y-62649366D02*
X167733333Y-62682700D01*
X167100000Y-63316033D02*
X167433333Y-63316033D01*
X167433333Y-63316033D02*
X167433333Y-62616033D01*
D11*
X164968202Y-75651311D02*
X164968202Y-74951311D01*
X164568202Y-75651311D02*
X164868202Y-75251311D01*
X164568202Y-74951311D02*
X164968202Y-75351311D01*
X163968202Y-75651311D02*
X163968202Y-75284644D01*
X163968202Y-75284644D02*
X164001535Y-75217978D01*
X164001535Y-75217978D02*
X164068202Y-75184644D01*
X164068202Y-75184644D02*
X164201535Y-75184644D01*
X164201535Y-75184644D02*
X164268202Y-75217978D01*
X163968202Y-75617978D02*
X164034869Y-75651311D01*
X164034869Y-75651311D02*
X164201535Y-75651311D01*
X164201535Y-75651311D02*
X164268202Y-75617978D01*
X164268202Y-75617978D02*
X164301535Y-75551311D01*
X164301535Y-75551311D02*
X164301535Y-75484644D01*
X164301535Y-75484644D02*
X164268202Y-75417978D01*
X164268202Y-75417978D02*
X164201535Y-75384644D01*
X164201535Y-75384644D02*
X164034869Y-75384644D01*
X164034869Y-75384644D02*
X163968202Y-75351311D01*
X163634869Y-75651311D02*
X163634869Y-75184644D01*
X163634869Y-75317978D02*
X163601536Y-75251311D01*
X163601536Y-75251311D02*
X163568202Y-75217978D01*
X163568202Y-75217978D02*
X163501536Y-75184644D01*
X163501536Y-75184644D02*
X163434869Y-75184644D01*
X163301536Y-75184644D02*
X163034869Y-75184644D01*
X163201536Y-74951311D02*
X163201536Y-75551311D01*
X163201536Y-75551311D02*
X163168203Y-75617978D01*
X163168203Y-75617978D02*
X163101536Y-75651311D01*
X163101536Y-75651311D02*
X163034869Y-75651311D01*
X162801536Y-75651311D02*
X162801536Y-74951311D01*
X162501536Y-75651311D02*
X162501536Y-75284644D01*
X162501536Y-75284644D02*
X162534869Y-75217978D01*
X162534869Y-75217978D02*
X162601536Y-75184644D01*
X162601536Y-75184644D02*
X162701536Y-75184644D01*
X162701536Y-75184644D02*
X162768203Y-75217978D01*
X162768203Y-75217978D02*
X162801536Y-75251311D01*
X162168203Y-75651311D02*
X162168203Y-75184644D01*
X162168203Y-74951311D02*
X162201536Y-74984644D01*
X162201536Y-74984644D02*
X162168203Y-75017978D01*
X162168203Y-75017978D02*
X162134870Y-74984644D01*
X162134870Y-74984644D02*
X162168203Y-74951311D01*
X162168203Y-74951311D02*
X162168203Y-75017978D01*
X161834870Y-75651311D02*
X161834870Y-74951311D01*
X161768203Y-75384644D02*
X161568203Y-75651311D01*
X161568203Y-75184644D02*
X161834870Y-75451311D01*
X160734870Y-75651311D02*
X160734870Y-74951311D01*
X160334870Y-75651311D02*
X160634870Y-75251311D01*
X160334870Y-74951311D02*
X160734870Y-75351311D01*
X159734870Y-75184644D02*
X159734870Y-75651311D01*
X160034870Y-75184644D02*
X160034870Y-75551311D01*
X160034870Y-75551311D02*
X160001537Y-75617978D01*
X160001537Y-75617978D02*
X159934870Y-75651311D01*
X159934870Y-75651311D02*
X159834870Y-75651311D01*
X159834870Y-75651311D02*
X159768203Y-75617978D01*
X159768203Y-75617978D02*
X159734870Y-75584644D01*
X159401537Y-75651311D02*
X159401537Y-75184644D01*
X159401537Y-75317978D02*
X159368204Y-75251311D01*
X159368204Y-75251311D02*
X159334870Y-75217978D01*
X159334870Y-75217978D02*
X159268204Y-75184644D01*
X159268204Y-75184644D02*
X159201537Y-75184644D01*
X158668204Y-75651311D02*
X158668204Y-75284644D01*
X158668204Y-75284644D02*
X158701537Y-75217978D01*
X158701537Y-75217978D02*
X158768204Y-75184644D01*
X158768204Y-75184644D02*
X158901537Y-75184644D01*
X158901537Y-75184644D02*
X158968204Y-75217978D01*
X158668204Y-75617978D02*
X158734871Y-75651311D01*
X158734871Y-75651311D02*
X158901537Y-75651311D01*
X158901537Y-75651311D02*
X158968204Y-75617978D01*
X158968204Y-75617978D02*
X159001537Y-75551311D01*
X159001537Y-75551311D02*
X159001537Y-75484644D01*
X159001537Y-75484644D02*
X158968204Y-75417978D01*
X158968204Y-75417978D02*
X158901537Y-75384644D01*
X158901537Y-75384644D02*
X158734871Y-75384644D01*
X158734871Y-75384644D02*
X158668204Y-75351311D01*
X158334871Y-75184644D02*
X158334871Y-75884644D01*
X158334871Y-75217978D02*
X158268204Y-75184644D01*
X158268204Y-75184644D02*
X158134871Y-75184644D01*
X158134871Y-75184644D02*
X158068204Y-75217978D01*
X158068204Y-75217978D02*
X158034871Y-75251311D01*
X158034871Y-75251311D02*
X158001538Y-75317978D01*
X158001538Y-75317978D02*
X158001538Y-75517978D01*
X158001538Y-75517978D02*
X158034871Y-75584644D01*
X158034871Y-75584644D02*
X158068204Y-75617978D01*
X158068204Y-75617978D02*
X158134871Y-75651311D01*
X158134871Y-75651311D02*
X158268204Y-75651311D01*
X158268204Y-75651311D02*
X158334871Y-75617978D01*
X157401538Y-75651311D02*
X157401538Y-75284644D01*
X157401538Y-75284644D02*
X157434871Y-75217978D01*
X157434871Y-75217978D02*
X157501538Y-75184644D01*
X157501538Y-75184644D02*
X157634871Y-75184644D01*
X157634871Y-75184644D02*
X157701538Y-75217978D01*
X157401538Y-75617978D02*
X157468205Y-75651311D01*
X157468205Y-75651311D02*
X157634871Y-75651311D01*
X157634871Y-75651311D02*
X157701538Y-75617978D01*
X157701538Y-75617978D02*
X157734871Y-75551311D01*
X157734871Y-75551311D02*
X157734871Y-75484644D01*
X157734871Y-75484644D02*
X157701538Y-75417978D01*
X157701538Y-75417978D02*
X157634871Y-75384644D01*
X157634871Y-75384644D02*
X157468205Y-75384644D01*
X157468205Y-75384644D02*
X157401538Y-75351311D01*
X157168205Y-75184644D02*
X156901538Y-75184644D01*
X157068205Y-74951311D02*
X157068205Y-75551311D01*
X157068205Y-75551311D02*
X157034872Y-75617978D01*
X157034872Y-75617978D02*
X156968205Y-75651311D01*
X156968205Y-75651311D02*
X156901538Y-75651311D01*
X156668205Y-75651311D02*
X156668205Y-75184644D01*
X156668205Y-74951311D02*
X156701538Y-74984644D01*
X156701538Y-74984644D02*
X156668205Y-75017978D01*
X156668205Y-75017978D02*
X156634872Y-74984644D01*
X156634872Y-74984644D02*
X156668205Y-74951311D01*
X156668205Y-74951311D02*
X156668205Y-75017978D01*
X164568202Y-76778272D02*
X164801535Y-76444939D01*
X164968202Y-76778272D02*
X164968202Y-76078272D01*
X164968202Y-76078272D02*
X164701535Y-76078272D01*
X164701535Y-76078272D02*
X164634869Y-76111605D01*
X164634869Y-76111605D02*
X164601535Y-76144939D01*
X164601535Y-76144939D02*
X164568202Y-76211605D01*
X164568202Y-76211605D02*
X164568202Y-76311605D01*
X164568202Y-76311605D02*
X164601535Y-76378272D01*
X164601535Y-76378272D02*
X164634869Y-76411605D01*
X164634869Y-76411605D02*
X164701535Y-76444939D01*
X164701535Y-76444939D02*
X164968202Y-76444939D01*
X164001535Y-76744939D02*
X164068202Y-76778272D01*
X164068202Y-76778272D02*
X164201535Y-76778272D01*
X164201535Y-76778272D02*
X164268202Y-76744939D01*
X164268202Y-76744939D02*
X164301535Y-76678272D01*
X164301535Y-76678272D02*
X164301535Y-76411605D01*
X164301535Y-76411605D02*
X164268202Y-76344939D01*
X164268202Y-76344939D02*
X164201535Y-76311605D01*
X164201535Y-76311605D02*
X164068202Y-76311605D01*
X164068202Y-76311605D02*
X164001535Y-76344939D01*
X164001535Y-76344939D02*
X163968202Y-76411605D01*
X163968202Y-76411605D02*
X163968202Y-76478272D01*
X163968202Y-76478272D02*
X164301535Y-76544939D01*
X163734869Y-76311605D02*
X163568202Y-76778272D01*
X163568202Y-76778272D02*
X163401535Y-76311605D01*
X162368203Y-76411605D02*
X162268203Y-76444939D01*
X162268203Y-76444939D02*
X162234869Y-76478272D01*
X162234869Y-76478272D02*
X162201536Y-76544939D01*
X162201536Y-76544939D02*
X162201536Y-76644939D01*
X162201536Y-76644939D02*
X162234869Y-76711605D01*
X162234869Y-76711605D02*
X162268203Y-76744939D01*
X162268203Y-76744939D02*
X162334869Y-76778272D01*
X162334869Y-76778272D02*
X162601536Y-76778272D01*
X162601536Y-76778272D02*
X162601536Y-76078272D01*
X162601536Y-76078272D02*
X162368203Y-76078272D01*
X162368203Y-76078272D02*
X162301536Y-76111605D01*
X162301536Y-76111605D02*
X162268203Y-76144939D01*
X162268203Y-76144939D02*
X162234869Y-76211605D01*
X162234869Y-76211605D02*
X162234869Y-76278272D01*
X162234869Y-76278272D02*
X162268203Y-76344939D01*
X162268203Y-76344939D02*
X162301536Y-76378272D01*
X162301536Y-76378272D02*
X162368203Y-76411605D01*
X162368203Y-76411605D02*
X162601536Y-76411605D01*
X164734869Y-77538566D02*
X164968202Y-77538566D01*
X164968202Y-77905233D02*
X164968202Y-77205233D01*
X164968202Y-77205233D02*
X164634869Y-77205233D01*
X164101535Y-77871900D02*
X164168202Y-77905233D01*
X164168202Y-77905233D02*
X164301535Y-77905233D01*
X164301535Y-77905233D02*
X164368202Y-77871900D01*
X164368202Y-77871900D02*
X164401535Y-77805233D01*
X164401535Y-77805233D02*
X164401535Y-77538566D01*
X164401535Y-77538566D02*
X164368202Y-77471900D01*
X164368202Y-77471900D02*
X164301535Y-77438566D01*
X164301535Y-77438566D02*
X164168202Y-77438566D01*
X164168202Y-77438566D02*
X164101535Y-77471900D01*
X164101535Y-77471900D02*
X164068202Y-77538566D01*
X164068202Y-77538566D02*
X164068202Y-77605233D01*
X164068202Y-77605233D02*
X164401535Y-77671900D01*
X163768202Y-77905233D02*
X163768202Y-77205233D01*
X163768202Y-77471900D02*
X163701535Y-77438566D01*
X163701535Y-77438566D02*
X163568202Y-77438566D01*
X163568202Y-77438566D02*
X163501535Y-77471900D01*
X163501535Y-77471900D02*
X163468202Y-77505233D01*
X163468202Y-77505233D02*
X163434869Y-77571900D01*
X163434869Y-77571900D02*
X163434869Y-77771900D01*
X163434869Y-77771900D02*
X163468202Y-77838566D01*
X163468202Y-77838566D02*
X163501535Y-77871900D01*
X163501535Y-77871900D02*
X163568202Y-77905233D01*
X163568202Y-77905233D02*
X163701535Y-77905233D01*
X163701535Y-77905233D02*
X163768202Y-77871900D01*
X162834869Y-77438566D02*
X162834869Y-77905233D01*
X163134869Y-77438566D02*
X163134869Y-77805233D01*
X163134869Y-77805233D02*
X163101536Y-77871900D01*
X163101536Y-77871900D02*
X163034869Y-77905233D01*
X163034869Y-77905233D02*
X162934869Y-77905233D01*
X162934869Y-77905233D02*
X162868202Y-77871900D01*
X162868202Y-77871900D02*
X162834869Y-77838566D01*
X162201536Y-77905233D02*
X162201536Y-77538566D01*
X162201536Y-77538566D02*
X162234869Y-77471900D01*
X162234869Y-77471900D02*
X162301536Y-77438566D01*
X162301536Y-77438566D02*
X162434869Y-77438566D01*
X162434869Y-77438566D02*
X162501536Y-77471900D01*
X162201536Y-77871900D02*
X162268203Y-77905233D01*
X162268203Y-77905233D02*
X162434869Y-77905233D01*
X162434869Y-77905233D02*
X162501536Y-77871900D01*
X162501536Y-77871900D02*
X162534869Y-77805233D01*
X162534869Y-77805233D02*
X162534869Y-77738566D01*
X162534869Y-77738566D02*
X162501536Y-77671900D01*
X162501536Y-77671900D02*
X162434869Y-77638566D01*
X162434869Y-77638566D02*
X162268203Y-77638566D01*
X162268203Y-77638566D02*
X162201536Y-77605233D01*
X161868203Y-77905233D02*
X161868203Y-77438566D01*
X161868203Y-77571900D02*
X161834870Y-77505233D01*
X161834870Y-77505233D02*
X161801536Y-77471900D01*
X161801536Y-77471900D02*
X161734870Y-77438566D01*
X161734870Y-77438566D02*
X161668203Y-77438566D01*
X161501537Y-77438566D02*
X161334870Y-77905233D01*
X161168203Y-77438566D02*
X161334870Y-77905233D01*
X161334870Y-77905233D02*
X161401537Y-78071900D01*
X161401537Y-78071900D02*
X161434870Y-78105233D01*
X161434870Y-78105233D02*
X161501537Y-78138566D01*
X160401537Y-77271900D02*
X160368204Y-77238566D01*
X160368204Y-77238566D02*
X160301537Y-77205233D01*
X160301537Y-77205233D02*
X160134871Y-77205233D01*
X160134871Y-77205233D02*
X160068204Y-77238566D01*
X160068204Y-77238566D02*
X160034871Y-77271900D01*
X160034871Y-77271900D02*
X160001537Y-77338566D01*
X160001537Y-77338566D02*
X160001537Y-77405233D01*
X160001537Y-77405233D02*
X160034871Y-77505233D01*
X160034871Y-77505233D02*
X160434871Y-77905233D01*
X160434871Y-77905233D02*
X160001537Y-77905233D01*
X159568204Y-77205233D02*
X159501537Y-77205233D01*
X159501537Y-77205233D02*
X159434870Y-77238566D01*
X159434870Y-77238566D02*
X159401537Y-77271900D01*
X159401537Y-77271900D02*
X159368204Y-77338566D01*
X159368204Y-77338566D02*
X159334870Y-77471900D01*
X159334870Y-77471900D02*
X159334870Y-77638566D01*
X159334870Y-77638566D02*
X159368204Y-77771900D01*
X159368204Y-77771900D02*
X159401537Y-77838566D01*
X159401537Y-77838566D02*
X159434870Y-77871900D01*
X159434870Y-77871900D02*
X159501537Y-77905233D01*
X159501537Y-77905233D02*
X159568204Y-77905233D01*
X159568204Y-77905233D02*
X159634870Y-77871900D01*
X159634870Y-77871900D02*
X159668204Y-77838566D01*
X159668204Y-77838566D02*
X159701537Y-77771900D01*
X159701537Y-77771900D02*
X159734870Y-77638566D01*
X159734870Y-77638566D02*
X159734870Y-77471900D01*
X159734870Y-77471900D02*
X159701537Y-77338566D01*
X159701537Y-77338566D02*
X159668204Y-77271900D01*
X159668204Y-77271900D02*
X159634870Y-77238566D01*
X159634870Y-77238566D02*
X159568204Y-77205233D01*
X159068203Y-77271900D02*
X159034870Y-77238566D01*
X159034870Y-77238566D02*
X158968203Y-77205233D01*
X158968203Y-77205233D02*
X158801537Y-77205233D01*
X158801537Y-77205233D02*
X158734870Y-77238566D01*
X158734870Y-77238566D02*
X158701537Y-77271900D01*
X158701537Y-77271900D02*
X158668203Y-77338566D01*
X158668203Y-77338566D02*
X158668203Y-77405233D01*
X158668203Y-77405233D02*
X158701537Y-77505233D01*
X158701537Y-77505233D02*
X159101537Y-77905233D01*
X159101537Y-77905233D02*
X158668203Y-77905233D01*
X158068203Y-77205233D02*
X158201536Y-77205233D01*
X158201536Y-77205233D02*
X158268203Y-77238566D01*
X158268203Y-77238566D02*
X158301536Y-77271900D01*
X158301536Y-77271900D02*
X158368203Y-77371900D01*
X158368203Y-77371900D02*
X158401536Y-77505233D01*
X158401536Y-77505233D02*
X158401536Y-77771900D01*
X158401536Y-77771900D02*
X158368203Y-77838566D01*
X158368203Y-77838566D02*
X158334870Y-77871900D01*
X158334870Y-77871900D02*
X158268203Y-77905233D01*
X158268203Y-77905233D02*
X158134870Y-77905233D01*
X158134870Y-77905233D02*
X158068203Y-77871900D01*
X158068203Y-77871900D02*
X158034870Y-77838566D01*
X158034870Y-77838566D02*
X158001536Y-77771900D01*
X158001536Y-77771900D02*
X158001536Y-77605233D01*
X158001536Y-77605233D02*
X158034870Y-77538566D01*
X158034870Y-77538566D02*
X158068203Y-77505233D01*
X158068203Y-77505233D02*
X158134870Y-77471900D01*
X158134870Y-77471900D02*
X158268203Y-77471900D01*
X158268203Y-77471900D02*
X158334870Y-77505233D01*
X158334870Y-77505233D02*
X158368203Y-77538566D01*
X158368203Y-77538566D02*
X158401536Y-77605233D01*
D10*
X171900000Y-58049366D02*
X171366667Y-58049366D01*
X171633333Y-58316033D02*
X171633333Y-57782700D01*
X171100000Y-57616033D02*
X170666666Y-57616033D01*
X170666666Y-57616033D02*
X170900000Y-57882700D01*
X170900000Y-57882700D02*
X170800000Y-57882700D01*
X170800000Y-57882700D02*
X170733333Y-57916033D01*
X170733333Y-57916033D02*
X170700000Y-57949366D01*
X170700000Y-57949366D02*
X170666666Y-58016033D01*
X170666666Y-58016033D02*
X170666666Y-58182700D01*
X170666666Y-58182700D02*
X170700000Y-58249366D01*
X170700000Y-58249366D02*
X170733333Y-58282700D01*
X170733333Y-58282700D02*
X170800000Y-58316033D01*
X170800000Y-58316033D02*
X171000000Y-58316033D01*
X171000000Y-58316033D02*
X171066666Y-58282700D01*
X171066666Y-58282700D02*
X171100000Y-58249366D01*
X170366666Y-58249366D02*
X170333333Y-58282700D01*
X170333333Y-58282700D02*
X170366666Y-58316033D01*
X170366666Y-58316033D02*
X170399999Y-58282700D01*
X170399999Y-58282700D02*
X170366666Y-58249366D01*
X170366666Y-58249366D02*
X170366666Y-58316033D01*
X170100000Y-57616033D02*
X169666666Y-57616033D01*
X169666666Y-57616033D02*
X169900000Y-57882700D01*
X169900000Y-57882700D02*
X169800000Y-57882700D01*
X169800000Y-57882700D02*
X169733333Y-57916033D01*
X169733333Y-57916033D02*
X169700000Y-57949366D01*
X169700000Y-57949366D02*
X169666666Y-58016033D01*
X169666666Y-58016033D02*
X169666666Y-58182700D01*
X169666666Y-58182700D02*
X169700000Y-58249366D01*
X169700000Y-58249366D02*
X169733333Y-58282700D01*
X169733333Y-58282700D02*
X169800000Y-58316033D01*
X169800000Y-58316033D02*
X170000000Y-58316033D01*
X170000000Y-58316033D02*
X170066666Y-58282700D01*
X170066666Y-58282700D02*
X170100000Y-58249366D01*
X169466666Y-57616033D02*
X169233333Y-58316033D01*
X169233333Y-58316033D02*
X168999999Y-57616033D01*
X157383332Y-60066033D02*
X157383332Y-59366033D01*
X157049999Y-60066033D02*
X157049999Y-59366033D01*
X157049999Y-59366033D02*
X156649999Y-60066033D01*
X156649999Y-60066033D02*
X156649999Y-59366033D01*
X156416666Y-59366033D02*
X156016666Y-59366033D01*
X156216666Y-60066033D02*
X156216666Y-59366033D01*
X161783332Y-63649366D02*
X161849999Y-63616033D01*
X161849999Y-63616033D02*
X161949999Y-63616033D01*
X161949999Y-63616033D02*
X162049999Y-63649366D01*
X162049999Y-63649366D02*
X162116666Y-63716033D01*
X162116666Y-63716033D02*
X162149999Y-63782700D01*
X162149999Y-63782700D02*
X162183332Y-63916033D01*
X162183332Y-63916033D02*
X162183332Y-64016033D01*
X162183332Y-64016033D02*
X162149999Y-64149366D01*
X162149999Y-64149366D02*
X162116666Y-64216033D01*
X162116666Y-64216033D02*
X162049999Y-64282700D01*
X162049999Y-64282700D02*
X161949999Y-64316033D01*
X161949999Y-64316033D02*
X161883332Y-64316033D01*
X161883332Y-64316033D02*
X161783332Y-64282700D01*
X161783332Y-64282700D02*
X161749999Y-64249366D01*
X161749999Y-64249366D02*
X161749999Y-64016033D01*
X161749999Y-64016033D02*
X161883332Y-64016033D01*
X161449999Y-64316033D02*
X161449999Y-63616033D01*
X161449999Y-63616033D02*
X161049999Y-64316033D01*
X161049999Y-64316033D02*
X161049999Y-63616033D01*
X160716666Y-64316033D02*
X160716666Y-63616033D01*
X160716666Y-63616033D02*
X160549999Y-63616033D01*
X160549999Y-63616033D02*
X160449999Y-63649366D01*
X160449999Y-63649366D02*
X160383333Y-63716033D01*
X160383333Y-63716033D02*
X160349999Y-63782700D01*
X160349999Y-63782700D02*
X160316666Y-63916033D01*
X160316666Y-63916033D02*
X160316666Y-64016033D01*
X160316666Y-64016033D02*
X160349999Y-64149366D01*
X160349999Y-64149366D02*
X160383333Y-64216033D01*
X160383333Y-64216033D02*
X160449999Y-64282700D01*
X160449999Y-64282700D02*
X160549999Y-64316033D01*
X160549999Y-64316033D02*
X160716666Y-64316033D01*
X157349999Y-62532700D02*
X157249999Y-62566033D01*
X157249999Y-62566033D02*
X157083333Y-62566033D01*
X157083333Y-62566033D02*
X157016666Y-62532700D01*
X157016666Y-62532700D02*
X156983333Y-62499366D01*
X156983333Y-62499366D02*
X156949999Y-62432700D01*
X156949999Y-62432700D02*
X156949999Y-62366033D01*
X156949999Y-62366033D02*
X156983333Y-62299366D01*
X156983333Y-62299366D02*
X157016666Y-62266033D01*
X157016666Y-62266033D02*
X157083333Y-62232700D01*
X157083333Y-62232700D02*
X157216666Y-62199366D01*
X157216666Y-62199366D02*
X157283333Y-62166033D01*
X157283333Y-62166033D02*
X157316666Y-62132700D01*
X157316666Y-62132700D02*
X157349999Y-62066033D01*
X157349999Y-62066033D02*
X157349999Y-61999366D01*
X157349999Y-61999366D02*
X157316666Y-61932700D01*
X157316666Y-61932700D02*
X157283333Y-61899366D01*
X157283333Y-61899366D02*
X157216666Y-61866033D01*
X157216666Y-61866033D02*
X157049999Y-61866033D01*
X157049999Y-61866033D02*
X156949999Y-61899366D01*
X156649999Y-62566033D02*
X156649999Y-61866033D01*
X156649999Y-61866033D02*
X156483332Y-61866033D01*
X156483332Y-61866033D02*
X156383332Y-61899366D01*
X156383332Y-61899366D02*
X156316666Y-61966033D01*
X156316666Y-61966033D02*
X156283332Y-62032700D01*
X156283332Y-62032700D02*
X156249999Y-62166033D01*
X156249999Y-62166033D02*
X156249999Y-62266033D01*
X156249999Y-62266033D02*
X156283332Y-62399366D01*
X156283332Y-62399366D02*
X156316666Y-62466033D01*
X156316666Y-62466033D02*
X156383332Y-62532700D01*
X156383332Y-62532700D02*
X156483332Y-62566033D01*
X156483332Y-62566033D02*
X156649999Y-62566033D01*
X155983332Y-62366033D02*
X155649999Y-62366033D01*
X156049999Y-62566033D02*
X155816666Y-61866033D01*
X155816666Y-61866033D02*
X155583332Y-62566033D01*
D12*
X156131115Y-68637419D02*
X156131115Y-67637419D01*
X156131115Y-67637419D02*
X155893020Y-67637419D01*
X155893020Y-67637419D02*
X155750163Y-67685038D01*
X155750163Y-67685038D02*
X155654925Y-67780276D01*
X155654925Y-67780276D02*
X155607306Y-67875514D01*
X155607306Y-67875514D02*
X155559687Y-68065990D01*
X155559687Y-68065990D02*
X155559687Y-68208847D01*
X155559687Y-68208847D02*
X155607306Y-68399323D01*
X155607306Y-68399323D02*
X155654925Y-68494561D01*
X155654925Y-68494561D02*
X155750163Y-68589800D01*
X155750163Y-68589800D02*
X155893020Y-68637419D01*
X155893020Y-68637419D02*
X156131115Y-68637419D01*
X154702544Y-68637419D02*
X154702544Y-68113609D01*
X154702544Y-68113609D02*
X154750163Y-68018371D01*
X154750163Y-68018371D02*
X154845401Y-67970752D01*
X154845401Y-67970752D02*
X155035877Y-67970752D01*
X155035877Y-67970752D02*
X155131115Y-68018371D01*
X154702544Y-68589800D02*
X154797782Y-68637419D01*
X154797782Y-68637419D02*
X155035877Y-68637419D01*
X155035877Y-68637419D02*
X155131115Y-68589800D01*
X155131115Y-68589800D02*
X155178734Y-68494561D01*
X155178734Y-68494561D02*
X155178734Y-68399323D01*
X155178734Y-68399323D02*
X155131115Y-68304085D01*
X155131115Y-68304085D02*
X155035877Y-68256466D01*
X155035877Y-68256466D02*
X154797782Y-68256466D01*
X154797782Y-68256466D02*
X154702544Y-68208847D01*
X154369210Y-67970752D02*
X153988258Y-67970752D01*
X154226353Y-67637419D02*
X154226353Y-68494561D01*
X154226353Y-68494561D02*
X154178734Y-68589800D01*
X154178734Y-68589800D02*
X154083496Y-68637419D01*
X154083496Y-68637419D02*
X153988258Y-68637419D01*
X153226353Y-68637419D02*
X153226353Y-68113609D01*
X153226353Y-68113609D02*
X153273972Y-68018371D01*
X153273972Y-68018371D02*
X153369210Y-67970752D01*
X153369210Y-67970752D02*
X153559686Y-67970752D01*
X153559686Y-67970752D02*
X153654924Y-68018371D01*
X153226353Y-68589800D02*
X153321591Y-68637419D01*
X153321591Y-68637419D02*
X153559686Y-68637419D01*
X153559686Y-68637419D02*
X153654924Y-68589800D01*
X153654924Y-68589800D02*
X153702543Y-68494561D01*
X153702543Y-68494561D02*
X153702543Y-68399323D01*
X153702543Y-68399323D02*
X153654924Y-68304085D01*
X153654924Y-68304085D02*
X153559686Y-68256466D01*
X153559686Y-68256466D02*
X153321591Y-68256466D01*
X153321591Y-68256466D02*
X153226353Y-68208847D01*
X156181115Y-65537419D02*
X156181115Y-64537419D01*
X156181115Y-64537419D02*
X155800163Y-64537419D01*
X155800163Y-64537419D02*
X155704925Y-64585038D01*
X155704925Y-64585038D02*
X155657306Y-64632657D01*
X155657306Y-64632657D02*
X155609687Y-64727895D01*
X155609687Y-64727895D02*
X155609687Y-64870752D01*
X155609687Y-64870752D02*
X155657306Y-64965990D01*
X155657306Y-64965990D02*
X155704925Y-65013609D01*
X155704925Y-65013609D02*
X155800163Y-65061228D01*
X155800163Y-65061228D02*
X156181115Y-65061228D01*
X155038258Y-65537419D02*
X155133496Y-65489800D01*
X155133496Y-65489800D02*
X155181115Y-65442180D01*
X155181115Y-65442180D02*
X155228734Y-65346942D01*
X155228734Y-65346942D02*
X155228734Y-65061228D01*
X155228734Y-65061228D02*
X155181115Y-64965990D01*
X155181115Y-64965990D02*
X155133496Y-64918371D01*
X155133496Y-64918371D02*
X155038258Y-64870752D01*
X155038258Y-64870752D02*
X154895401Y-64870752D01*
X154895401Y-64870752D02*
X154800163Y-64918371D01*
X154800163Y-64918371D02*
X154752544Y-64965990D01*
X154752544Y-64965990D02*
X154704925Y-65061228D01*
X154704925Y-65061228D02*
X154704925Y-65346942D01*
X154704925Y-65346942D02*
X154752544Y-65442180D01*
X154752544Y-65442180D02*
X154800163Y-65489800D01*
X154800163Y-65489800D02*
X154895401Y-65537419D01*
X154895401Y-65537419D02*
X155038258Y-65537419D01*
X154371591Y-64870752D02*
X154181115Y-65537419D01*
X154181115Y-65537419D02*
X153990639Y-65061228D01*
X153990639Y-65061228D02*
X153800163Y-65537419D01*
X153800163Y-65537419D02*
X153609687Y-64870752D01*
X152847782Y-65489800D02*
X152943020Y-65537419D01*
X152943020Y-65537419D02*
X153133496Y-65537419D01*
X153133496Y-65537419D02*
X153228734Y-65489800D01*
X153228734Y-65489800D02*
X153276353Y-65394561D01*
X153276353Y-65394561D02*
X153276353Y-65013609D01*
X153276353Y-65013609D02*
X153228734Y-64918371D01*
X153228734Y-64918371D02*
X153133496Y-64870752D01*
X153133496Y-64870752D02*
X152943020Y-64870752D01*
X152943020Y-64870752D02*
X152847782Y-64918371D01*
X152847782Y-64918371D02*
X152800163Y-65013609D01*
X152800163Y-65013609D02*
X152800163Y-65108847D01*
X152800163Y-65108847D02*
X153276353Y-65204085D01*
X152371591Y-65537419D02*
X152371591Y-64870752D01*
X152371591Y-65061228D02*
X152323972Y-64965990D01*
X152323972Y-64965990D02*
X152276353Y-64918371D01*
X152276353Y-64918371D02*
X152181115Y-64870752D01*
X152181115Y-64870752D02*
X152085877Y-64870752D01*
D10*
X159238094Y-72704819D02*
X158571428Y-73704819D01*
X158571428Y-72704819D02*
X159238094Y-73704819D01*
X158238094Y-73657200D02*
X158095237Y-73704819D01*
X158095237Y-73704819D02*
X157857142Y-73704819D01*
X157857142Y-73704819D02*
X157761904Y-73657200D01*
X157761904Y-73657200D02*
X157714285Y-73609580D01*
X157714285Y-73609580D02*
X157666666Y-73514342D01*
X157666666Y-73514342D02*
X157666666Y-73419104D01*
X157666666Y-73419104D02*
X157714285Y-73323866D01*
X157714285Y-73323866D02*
X157761904Y-73276247D01*
X157761904Y-73276247D02*
X157857142Y-73228628D01*
X157857142Y-73228628D02*
X158047618Y-73181009D01*
X158047618Y-73181009D02*
X158142856Y-73133390D01*
X158142856Y-73133390D02*
X158190475Y-73085771D01*
X158190475Y-73085771D02*
X158238094Y-72990533D01*
X158238094Y-72990533D02*
X158238094Y-72895295D01*
X158238094Y-72895295D02*
X158190475Y-72800057D01*
X158190475Y-72800057D02*
X158142856Y-72752438D01*
X158142856Y-72752438D02*
X158047618Y-72704819D01*
X158047618Y-72704819D02*
X157809523Y-72704819D01*
X157809523Y-72704819D02*
X157666666Y-72752438D01*
X157238094Y-73704819D02*
X157238094Y-72704819D01*
X157238094Y-73181009D02*
X156666666Y-73181009D01*
X156666666Y-73704819D02*
X156666666Y-72704819D01*
X156190475Y-72704819D02*
X156190475Y-73514342D01*
X156190475Y-73514342D02*
X156142856Y-73609580D01*
X156142856Y-73609580D02*
X156095237Y-73657200D01*
X156095237Y-73657200D02*
X155999999Y-73704819D01*
X155999999Y-73704819D02*
X155809523Y-73704819D01*
X155809523Y-73704819D02*
X155714285Y-73657200D01*
X155714285Y-73657200D02*
X155666666Y-73609580D01*
X155666666Y-73609580D02*
X155619047Y-73514342D01*
X155619047Y-73514342D02*
X155619047Y-72704819D01*
X155285713Y-72704819D02*
X154714285Y-72704819D01*
X154999999Y-73704819D02*
X154999999Y-72704819D01*
X158338094Y-66804819D02*
X158338094Y-65804819D01*
X158338094Y-65804819D02*
X158099999Y-65804819D01*
X158099999Y-65804819D02*
X157957142Y-65852438D01*
X157957142Y-65852438D02*
X157861904Y-65947676D01*
X157861904Y-65947676D02*
X157814285Y-66042914D01*
X157814285Y-66042914D02*
X157766666Y-66233390D01*
X157766666Y-66233390D02*
X157766666Y-66376247D01*
X157766666Y-66376247D02*
X157814285Y-66566723D01*
X157814285Y-66566723D02*
X157861904Y-66661961D01*
X157861904Y-66661961D02*
X157957142Y-66757200D01*
X157957142Y-66757200D02*
X158099999Y-66804819D01*
X158099999Y-66804819D02*
X158338094Y-66804819D01*
X156814285Y-66804819D02*
X157385713Y-66804819D01*
X157099999Y-66804819D02*
X157099999Y-65804819D01*
X157099999Y-65804819D02*
X157195237Y-65947676D01*
X157195237Y-65947676D02*
X157290475Y-66042914D01*
X157290475Y-66042914D02*
X157385713Y-66090533D01*
X163561904Y-72702438D02*
X163657142Y-72654819D01*
X163657142Y-72654819D02*
X163799999Y-72654819D01*
X163799999Y-72654819D02*
X163942856Y-72702438D01*
X163942856Y-72702438D02*
X164038094Y-72797676D01*
X164038094Y-72797676D02*
X164085713Y-72892914D01*
X164085713Y-72892914D02*
X164133332Y-73083390D01*
X164133332Y-73083390D02*
X164133332Y-73226247D01*
X164133332Y-73226247D02*
X164085713Y-73416723D01*
X164085713Y-73416723D02*
X164038094Y-73511961D01*
X164038094Y-73511961D02*
X163942856Y-73607200D01*
X163942856Y-73607200D02*
X163799999Y-73654819D01*
X163799999Y-73654819D02*
X163704761Y-73654819D01*
X163704761Y-73654819D02*
X163561904Y-73607200D01*
X163561904Y-73607200D02*
X163514285Y-73559580D01*
X163514285Y-73559580D02*
X163514285Y-73226247D01*
X163514285Y-73226247D02*
X163704761Y-73226247D01*
X163085713Y-73654819D02*
X163085713Y-72654819D01*
X163085713Y-72654819D02*
X162514285Y-73654819D01*
X162514285Y-73654819D02*
X162514285Y-72654819D01*
X162038094Y-73654819D02*
X162038094Y-72654819D01*
X162038094Y-72654819D02*
X161799999Y-72654819D01*
X161799999Y-72654819D02*
X161657142Y-72702438D01*
X161657142Y-72702438D02*
X161561904Y-72797676D01*
X161561904Y-72797676D02*
X161514285Y-72892914D01*
X161514285Y-72892914D02*
X161466666Y-73083390D01*
X161466666Y-73083390D02*
X161466666Y-73226247D01*
X161466666Y-73226247D02*
X161514285Y-73416723D01*
X161514285Y-73416723D02*
X161561904Y-73511961D01*
X161561904Y-73511961D02*
X161657142Y-73607200D01*
X161657142Y-73607200D02*
X161799999Y-73654819D01*
X161799999Y-73654819D02*
X162038094Y-73654819D01*
X158488094Y-70004819D02*
X158488094Y-69004819D01*
X158488094Y-69004819D02*
X158249999Y-69004819D01*
X158249999Y-69004819D02*
X158107142Y-69052438D01*
X158107142Y-69052438D02*
X158011904Y-69147676D01*
X158011904Y-69147676D02*
X157964285Y-69242914D01*
X157964285Y-69242914D02*
X157916666Y-69433390D01*
X157916666Y-69433390D02*
X157916666Y-69576247D01*
X157916666Y-69576247D02*
X157964285Y-69766723D01*
X157964285Y-69766723D02*
X158011904Y-69861961D01*
X158011904Y-69861961D02*
X158107142Y-69957200D01*
X158107142Y-69957200D02*
X158249999Y-70004819D01*
X158249999Y-70004819D02*
X158488094Y-70004819D01*
X157535713Y-69100057D02*
X157488094Y-69052438D01*
X157488094Y-69052438D02*
X157392856Y-69004819D01*
X157392856Y-69004819D02*
X157154761Y-69004819D01*
X157154761Y-69004819D02*
X157059523Y-69052438D01*
X157059523Y-69052438D02*
X157011904Y-69100057D01*
X157011904Y-69100057D02*
X156964285Y-69195295D01*
X156964285Y-69195295D02*
X156964285Y-69290533D01*
X156964285Y-69290533D02*
X157011904Y-69433390D01*
X157011904Y-69433390D02*
X157583332Y-70004819D01*
X157583332Y-70004819D02*
X156964285Y-70004819D01*
X166124819Y-53266666D02*
X166839104Y-53266666D01*
X166839104Y-53266666D02*
X166981961Y-53219047D01*
X166981961Y-53219047D02*
X167077200Y-53123809D01*
X167077200Y-53123809D02*
X167124819Y-52980952D01*
X167124819Y-52980952D02*
X167124819Y-52885714D01*
X166220057Y-53695238D02*
X166172438Y-53742857D01*
X166172438Y-53742857D02*
X166124819Y-53838095D01*
X166124819Y-53838095D02*
X166124819Y-54076190D01*
X166124819Y-54076190D02*
X166172438Y-54171428D01*
X166172438Y-54171428D02*
X166220057Y-54219047D01*
X166220057Y-54219047D02*
X166315295Y-54266666D01*
X166315295Y-54266666D02*
X166410533Y-54266666D01*
X166410533Y-54266666D02*
X166553390Y-54219047D01*
X166553390Y-54219047D02*
X167124819Y-53647619D01*
X167124819Y-53647619D02*
X167124819Y-54266666D01*
D13*
%TO.C,XSHUT*%
X156350000Y-70650000D02*
X156350000Y-72050000D01*
X156350000Y-72050000D02*
X157750000Y-72050000D01*
X157750000Y-70650000D02*
X156350000Y-70650000D01*
X157750000Y-72050000D02*
X157750000Y-70650000D01*
%TO.C,D1*%
X154025000Y-65665000D02*
X156485000Y-65665000D01*
X156485000Y-65665000D02*
X156485000Y-67135000D01*
X156485000Y-67135000D02*
X154025000Y-67135000D01*
%TO.C,GND*%
X162072500Y-70750000D02*
X162072500Y-72150000D01*
X162072500Y-72150000D02*
X163472500Y-72150000D01*
X163472500Y-70750000D02*
X162072500Y-70750000D01*
X163472500Y-72150000D02*
X163472500Y-70750000D01*
%TO.C,D2*%
X153975000Y-68765000D02*
X156435000Y-68765000D01*
X156435000Y-68765000D02*
X156435000Y-70235000D01*
X156435000Y-70235000D02*
X153975000Y-70235000D01*
%TO.C,J2*%
X156920000Y-49260000D02*
X165580000Y-49260000D01*
X156920000Y-57940000D02*
X156920000Y-49260000D01*
X158600000Y-57940000D02*
X158900000Y-57940000D01*
X158600000Y-58640000D02*
X158600000Y-57940000D01*
X158900000Y-57940000D02*
X158900000Y-58640000D01*
X158900000Y-58640000D02*
X158600000Y-58640000D01*
X161100000Y-57940000D02*
X161400000Y-57940000D01*
X161100000Y-58640000D02*
X161100000Y-57940000D01*
X161400000Y-57940000D02*
X161400000Y-58640000D01*
X161400000Y-58640000D02*
X161100000Y-58640000D01*
X163600000Y-57940000D02*
X163900000Y-57940000D01*
X163600000Y-58640000D02*
X163600000Y-57940000D01*
X163900000Y-57940000D02*
X163900000Y-58640000D01*
X163900000Y-58640000D02*
X163600000Y-58640000D01*
X164860000Y-62250000D02*
X165284264Y-61950000D01*
X165284264Y-61950000D02*
X165284264Y-62550000D01*
X165284264Y-62550000D02*
X164860000Y-62250000D01*
X165580000Y-49260000D02*
X165580000Y-57940000D01*
X165580000Y-57940000D02*
X156920000Y-57940000D01*
%TD*%
%LPC*%
D14*
%TO.C,GND*%
X167000000Y-57250000D03*
%TD*%
%TO.C,+3.3v*%
X155500000Y-56750000D03*
%TD*%
D15*
%TO.C,J1*%
X170500000Y-70500000D03*
X170500000Y-67960000D03*
X170500000Y-65420000D03*
X170500000Y-62880000D03*
D16*
X170500000Y-60340000D03*
%TD*%
D17*
%TO.C,H2*%
X170000000Y-52750000D03*
%TD*%
%TO.C,H3*%
X151750000Y-75800000D03*
%TD*%
%TO.C,H1*%
X151750000Y-52750000D03*
%TD*%
%TO.C,H4*%
X169800000Y-75750000D03*
%TD*%
D18*
%TO.C,XSHUT*%
X157050000Y-71350000D03*
%TD*%
D19*
%TO.C,D1*%
X155700000Y-66400000D03*
X153950000Y-66400000D03*
%TD*%
D18*
%TO.C,GND*%
X162772500Y-71450000D03*
%TD*%
D19*
%TO.C,D2*%
X155650000Y-69500000D03*
X153900000Y-69500000D03*
%TD*%
D15*
%TO.C,J2*%
X158750000Y-52570000D03*
X163750000Y-52570000D03*
D20*
X163750000Y-62250000D03*
D15*
X161250000Y-62250000D03*
X158750000Y-62250000D03*
X163750000Y-59750000D03*
X161250000Y-59750000D03*
X158750000Y-59750000D03*
%TD*%
%LPD*%
M02*
