%TF.GenerationSoftware,KiCad,Pcbnew,9.0.4*%
%TF.CreationDate,2026-02-14T22:53:23-06:00*%
%TF.ProjectId,ir_board,69725f62-6f61-4726-942e-6b696361645f,rev?*%
%TF.SameCoordinates,Original*%
%TF.FileFunction,Soldermask,Top*%
%TF.FilePolarity,Negative*%
%FSLAX46Y46*%
G04 Gerber Fmt 4.6, Leading zero omitted, Abs format (unit mm)*
G04 Created by KiCad (PCBNEW 9.0.4) date 2026-02-14 22:53:23*
%MOMM*%
%LPD*%
G01*
G04 APERTURE LIST*
G04 Aperture macros list*
%AMRoundRect*
0 Rectangle with rounded corners*
0 $1 Rounding radius*
0 $2 $3 $4 $5 $6 $7 $8 $9 X,Y pos of 4 corners*
0 Add a 4 corners polygon primitive as box body*
4,1,4,$2,$3,$4,$5,$6,$7,$8,$9,$2,$3,0*
0 Add four circle primitives for the rounded corners*
1,1,$1+$1,$2,$3*
1,1,$1+$1,$4,$5*
1,1,$1+$1,$6,$7*
1,1,$1+$1,$8,$9*
0 Add four rect primitives between the rounded corners*
20,1,$1+$1,$2,$3,$4,$5,0*
20,1,$1+$1,$4,$5,$6,$7,0*
20,1,$1+$1,$6,$7,$8,$9,0*
20,1,$1+$1,$8,$9,$2,$3,0*%
G04 Aperture macros list end*
%ADD10RoundRect,0.250000X0.475000X-0.337500X0.475000X0.337500X-0.475000X0.337500X-0.475000X-0.337500X0*%
%ADD11R,1.500000X1.500000*%
%ADD12C,1.700000*%
%ADD13R,1.700000X1.700000*%
%ADD14RoundRect,0.062500X0.127500X0.062500X-0.127500X0.062500X-0.127500X-0.062500X0.127500X-0.062500X0*%
%ADD15RoundRect,0.125000X0.125000X0.125000X-0.125000X0.125000X-0.125000X-0.125000X0.125000X-0.125000X0*%
%ADD16RoundRect,0.237500X0.237500X-0.250000X0.237500X0.250000X-0.237500X0.250000X-0.237500X-0.250000X0*%
%ADD17RoundRect,0.237500X0.250000X0.237500X-0.250000X0.237500X-0.250000X-0.237500X0.250000X-0.237500X0*%
%ADD18RoundRect,0.237500X0.237500X-0.300000X0.237500X0.300000X-0.237500X0.300000X-0.237500X-0.300000X0*%
%ADD19RoundRect,0.237500X-0.250000X-0.237500X0.250000X-0.237500X0.250000X0.237500X-0.250000X0.237500X0*%
%ADD20RoundRect,0.237500X-0.237500X0.250000X-0.237500X-0.250000X0.237500X-0.250000X0.237500X0.250000X0*%
%ADD21RoundRect,0.150000X0.587500X0.150000X-0.587500X0.150000X-0.587500X-0.150000X0.587500X-0.150000X0*%
%ADD22RoundRect,0.250000X0.600000X-0.600000X0.600000X0.600000X-0.600000X0.600000X-0.600000X-0.600000X0*%
G04 APERTURE END LIST*
D10*
%TO.C,C1*%
X166000000Y-68887500D03*
X166000000Y-66812500D03*
%TD*%
D11*
%TO.C,GND*%
X167000000Y-57250000D03*
%TD*%
%TO.C,+3.3v*%
X155500000Y-56750000D03*
%TD*%
D12*
%TO.C,J1*%
X170500000Y-70500000D03*
X170500000Y-67960000D03*
X170500000Y-65420000D03*
X170500000Y-62880000D03*
D13*
X170500000Y-60340000D03*
%TD*%
D14*
%TO.C,U1*%
X162490000Y-68375000D03*
D15*
X162350000Y-68500000D03*
X161550000Y-68500000D03*
X160750000Y-68500000D03*
X159950000Y-68500000D03*
X159150000Y-68500000D03*
X159150000Y-67700000D03*
X159150000Y-66900000D03*
X159950000Y-66900000D03*
X160750000Y-66900000D03*
X161550000Y-66900000D03*
X162350000Y-66900000D03*
X162350000Y-67700000D03*
%TD*%
D16*
%TO.C,R1*%
X159150000Y-71775000D03*
X159150000Y-69950000D03*
%TD*%
D17*
%TO.C,R2*%
X163650000Y-65450000D03*
X161825000Y-65450000D03*
%TD*%
D16*
%TO.C,R7*%
X162250000Y-76475000D03*
X162250000Y-74650000D03*
%TD*%
D18*
%TO.C,C2*%
X164200000Y-68712500D03*
X164200000Y-66987500D03*
%TD*%
D19*
%TO.C,R3*%
X158487500Y-65450000D03*
X160312500Y-65450000D03*
%TD*%
D20*
%TO.C,R8*%
X164100000Y-74700000D03*
X164100000Y-76525000D03*
%TD*%
D21*
%TO.C,Q1*%
X160150000Y-76550000D03*
X160150000Y-74650000D03*
X158275000Y-75600000D03*
%TD*%
D20*
%TO.C,R4*%
X152150000Y-64575000D03*
X152150000Y-66400000D03*
%TD*%
D16*
%TO.C,R6*%
X152300000Y-71362500D03*
X152300000Y-69537500D03*
%TD*%
D22*
%TO.C,J2*%
X163750000Y-62250000D03*
D12*
X161250000Y-62250000D03*
X158750000Y-62250000D03*
X163750000Y-59750000D03*
X161250000Y-59750000D03*
X158750000Y-59750000D03*
%TD*%
M02*
