%TF.GenerationSoftware,KiCad,Pcbnew,9.0.4*%
%TF.CreationDate,2026-02-27T14:08:25-06:00*%
%TF.ProjectId,TempBoard,54656d70-426f-4617-9264-2e6b69636164,rev?*%
%TF.SameCoordinates,Original*%
%TF.FileFunction,Legend,Top*%
%TF.FilePolarity,Positive*%
%FSLAX46Y46*%
G04 Gerber Fmt 4.6, Leading zero omitted, Abs format (unit mm)*
G04 Created by KiCad (PCBNEW 9.0.4) date 2026-02-27 14:08:25*
%MOMM*%
%LPD*%
G01*
G04 APERTURE LIST*
G04 Aperture macros list*
%AMRoundRect*
0 Rectangle with rounded corners*
0 $1 Rounding radius*
0 $2 $3 $4 $5 $6 $7 $8 $9 X,Y pos of 4 corners*
0 Add a 4 corners polygon primitive as box body*
4,1,4,$2,$3,$4,$5,$6,$7,$8,$9,$2,$3,0*
0 Add four circle primitives for the rounded corners*
1,1,$1+$1,$2,$3*
1,1,$1+$1,$4,$5*
1,1,$1+$1,$6,$7*
1,1,$1+$1,$8,$9*
0 Add four rect primitives between the rounded corners*
20,1,$1+$1,$2,$3,$4,$5,0*
20,1,$1+$1,$4,$5,$6,$7,0*
20,1,$1+$1,$6,$7,$8,$9,0*
20,1,$1+$1,$8,$9,$2,$3,0*%
G04 Aperture macros list end*
%ADD10C,0.100000*%
%ADD11C,0.200000*%
%ADD12C,0.150000*%
%ADD13C,0.000000*%
%ADD14C,0.120000*%
%ADD15RoundRect,0.237500X-0.300000X-0.237500X0.300000X-0.237500X0.300000X0.237500X-0.300000X0.237500X0*%
%ADD16RoundRect,0.237500X0.250000X0.237500X-0.250000X0.237500X-0.250000X-0.237500X0.250000X-0.237500X0*%
%ADD17R,0.350000X0.500000*%
%ADD18RoundRect,0.237500X0.300000X0.237500X-0.300000X0.237500X-0.300000X-0.237500X0.300000X-0.237500X0*%
%ADD19RoundRect,0.237500X-0.250000X-0.237500X0.250000X-0.237500X0.250000X0.237500X-0.250000X0.237500X0*%
%ADD20C,1.700000*%
%ADD21RoundRect,0.250000X0.600000X-0.850000X0.600000X0.850000X-0.600000X0.850000X-0.600000X-0.850000X0*%
%ADD22O,1.700000X2.200000*%
%ADD23C,3.200000*%
%ADD24R,1.700000X1.700000*%
%ADD25RoundRect,0.237500X-0.287500X-0.237500X0.287500X-0.237500X0.287500X0.237500X-0.287500X0.237500X0*%
G04 APERTURE END LIST*
D10*
X138847931Y-72349942D02*
X138790789Y-72321371D01*
X138790789Y-72321371D02*
X138705074Y-72321371D01*
X138705074Y-72321371D02*
X138619360Y-72349942D01*
X138619360Y-72349942D02*
X138562217Y-72407085D01*
X138562217Y-72407085D02*
X138533646Y-72464228D01*
X138533646Y-72464228D02*
X138505074Y-72578514D01*
X138505074Y-72578514D02*
X138505074Y-72664228D01*
X138505074Y-72664228D02*
X138533646Y-72778514D01*
X138533646Y-72778514D02*
X138562217Y-72835657D01*
X138562217Y-72835657D02*
X138619360Y-72892800D01*
X138619360Y-72892800D02*
X138705074Y-72921371D01*
X138705074Y-72921371D02*
X138762217Y-72921371D01*
X138762217Y-72921371D02*
X138847931Y-72892800D01*
X138847931Y-72892800D02*
X138876503Y-72864228D01*
X138876503Y-72864228D02*
X138876503Y-72664228D01*
X138876503Y-72664228D02*
X138762217Y-72664228D01*
X139133646Y-72921371D02*
X139133646Y-72321371D01*
X139133646Y-72321371D02*
X139476503Y-72921371D01*
X139476503Y-72921371D02*
X139476503Y-72321371D01*
X139762217Y-72921371D02*
X139762217Y-72321371D01*
X139762217Y-72321371D02*
X139905074Y-72321371D01*
X139905074Y-72321371D02*
X139990788Y-72349942D01*
X139990788Y-72349942D02*
X140047931Y-72407085D01*
X140047931Y-72407085D02*
X140076502Y-72464228D01*
X140076502Y-72464228D02*
X140105074Y-72578514D01*
X140105074Y-72578514D02*
X140105074Y-72664228D01*
X140105074Y-72664228D02*
X140076502Y-72778514D01*
X140076502Y-72778514D02*
X140047931Y-72835657D01*
X140047931Y-72835657D02*
X139990788Y-72892800D01*
X139990788Y-72892800D02*
X139905074Y-72921371D01*
X139905074Y-72921371D02*
X139762217Y-72921371D01*
X138655074Y-70317800D02*
X138740789Y-70346371D01*
X138740789Y-70346371D02*
X138883646Y-70346371D01*
X138883646Y-70346371D02*
X138940789Y-70317800D01*
X138940789Y-70317800D02*
X138969360Y-70289228D01*
X138969360Y-70289228D02*
X138997931Y-70232085D01*
X138997931Y-70232085D02*
X138997931Y-70174942D01*
X138997931Y-70174942D02*
X138969360Y-70117800D01*
X138969360Y-70117800D02*
X138940789Y-70089228D01*
X138940789Y-70089228D02*
X138883646Y-70060657D01*
X138883646Y-70060657D02*
X138769360Y-70032085D01*
X138769360Y-70032085D02*
X138712217Y-70003514D01*
X138712217Y-70003514D02*
X138683646Y-69974942D01*
X138683646Y-69974942D02*
X138655074Y-69917800D01*
X138655074Y-69917800D02*
X138655074Y-69860657D01*
X138655074Y-69860657D02*
X138683646Y-69803514D01*
X138683646Y-69803514D02*
X138712217Y-69774942D01*
X138712217Y-69774942D02*
X138769360Y-69746371D01*
X138769360Y-69746371D02*
X138912217Y-69746371D01*
X138912217Y-69746371D02*
X138997931Y-69774942D01*
X139255075Y-70346371D02*
X139255075Y-69746371D01*
X139255075Y-69746371D02*
X139397932Y-69746371D01*
X139397932Y-69746371D02*
X139483646Y-69774942D01*
X139483646Y-69774942D02*
X139540789Y-69832085D01*
X139540789Y-69832085D02*
X139569360Y-69889228D01*
X139569360Y-69889228D02*
X139597932Y-70003514D01*
X139597932Y-70003514D02*
X139597932Y-70089228D01*
X139597932Y-70089228D02*
X139569360Y-70203514D01*
X139569360Y-70203514D02*
X139540789Y-70260657D01*
X139540789Y-70260657D02*
X139483646Y-70317800D01*
X139483646Y-70317800D02*
X139397932Y-70346371D01*
X139397932Y-70346371D02*
X139255075Y-70346371D01*
X139826503Y-70174942D02*
X140112218Y-70174942D01*
X139769360Y-70346371D02*
X139969360Y-69746371D01*
X139969360Y-69746371D02*
X140169360Y-70346371D01*
X138680074Y-67767800D02*
X138765789Y-67796371D01*
X138765789Y-67796371D02*
X138908646Y-67796371D01*
X138908646Y-67796371D02*
X138965789Y-67767800D01*
X138965789Y-67767800D02*
X138994360Y-67739228D01*
X138994360Y-67739228D02*
X139022931Y-67682085D01*
X139022931Y-67682085D02*
X139022931Y-67624942D01*
X139022931Y-67624942D02*
X138994360Y-67567800D01*
X138994360Y-67567800D02*
X138965789Y-67539228D01*
X138965789Y-67539228D02*
X138908646Y-67510657D01*
X138908646Y-67510657D02*
X138794360Y-67482085D01*
X138794360Y-67482085D02*
X138737217Y-67453514D01*
X138737217Y-67453514D02*
X138708646Y-67424942D01*
X138708646Y-67424942D02*
X138680074Y-67367800D01*
X138680074Y-67367800D02*
X138680074Y-67310657D01*
X138680074Y-67310657D02*
X138708646Y-67253514D01*
X138708646Y-67253514D02*
X138737217Y-67224942D01*
X138737217Y-67224942D02*
X138794360Y-67196371D01*
X138794360Y-67196371D02*
X138937217Y-67196371D01*
X138937217Y-67196371D02*
X139022931Y-67224942D01*
X139622932Y-67739228D02*
X139594360Y-67767800D01*
X139594360Y-67767800D02*
X139508646Y-67796371D01*
X139508646Y-67796371D02*
X139451503Y-67796371D01*
X139451503Y-67796371D02*
X139365789Y-67767800D01*
X139365789Y-67767800D02*
X139308646Y-67710657D01*
X139308646Y-67710657D02*
X139280075Y-67653514D01*
X139280075Y-67653514D02*
X139251503Y-67539228D01*
X139251503Y-67539228D02*
X139251503Y-67453514D01*
X139251503Y-67453514D02*
X139280075Y-67339228D01*
X139280075Y-67339228D02*
X139308646Y-67282085D01*
X139308646Y-67282085D02*
X139365789Y-67224942D01*
X139365789Y-67224942D02*
X139451503Y-67196371D01*
X139451503Y-67196371D02*
X139508646Y-67196371D01*
X139508646Y-67196371D02*
X139594360Y-67224942D01*
X139594360Y-67224942D02*
X139622932Y-67253514D01*
X140165789Y-67796371D02*
X139880075Y-67796371D01*
X139880075Y-67796371D02*
X139880075Y-67196371D01*
X137858646Y-65042800D02*
X138315789Y-65042800D01*
X138087217Y-65271371D02*
X138087217Y-64814228D01*
X138544360Y-64671371D02*
X138915788Y-64671371D01*
X138915788Y-64671371D02*
X138715788Y-64899942D01*
X138715788Y-64899942D02*
X138801503Y-64899942D01*
X138801503Y-64899942D02*
X138858646Y-64928514D01*
X138858646Y-64928514D02*
X138887217Y-64957085D01*
X138887217Y-64957085D02*
X138915788Y-65014228D01*
X138915788Y-65014228D02*
X138915788Y-65157085D01*
X138915788Y-65157085D02*
X138887217Y-65214228D01*
X138887217Y-65214228D02*
X138858646Y-65242800D01*
X138858646Y-65242800D02*
X138801503Y-65271371D01*
X138801503Y-65271371D02*
X138630074Y-65271371D01*
X138630074Y-65271371D02*
X138572931Y-65242800D01*
X138572931Y-65242800D02*
X138544360Y-65214228D01*
X139172932Y-65214228D02*
X139201503Y-65242800D01*
X139201503Y-65242800D02*
X139172932Y-65271371D01*
X139172932Y-65271371D02*
X139144360Y-65242800D01*
X139144360Y-65242800D02*
X139172932Y-65214228D01*
X139172932Y-65214228D02*
X139172932Y-65271371D01*
X139401503Y-64671371D02*
X139772931Y-64671371D01*
X139772931Y-64671371D02*
X139572931Y-64899942D01*
X139572931Y-64899942D02*
X139658646Y-64899942D01*
X139658646Y-64899942D02*
X139715789Y-64928514D01*
X139715789Y-64928514D02*
X139744360Y-64957085D01*
X139744360Y-64957085D02*
X139772931Y-65014228D01*
X139772931Y-65014228D02*
X139772931Y-65157085D01*
X139772931Y-65157085D02*
X139744360Y-65214228D01*
X139744360Y-65214228D02*
X139715789Y-65242800D01*
X139715789Y-65242800D02*
X139658646Y-65271371D01*
X139658646Y-65271371D02*
X139487217Y-65271371D01*
X139487217Y-65271371D02*
X139430074Y-65242800D01*
X139430074Y-65242800D02*
X139401503Y-65214228D01*
X139972932Y-64871371D02*
X140115789Y-65271371D01*
X140115789Y-65271371D02*
X140258646Y-64871371D01*
X135967800Y-68416353D02*
X135967800Y-67959211D01*
X136196371Y-68187782D02*
X135739228Y-68187782D01*
X135596371Y-67730639D02*
X135596371Y-67359211D01*
X135596371Y-67359211D02*
X135824942Y-67559211D01*
X135824942Y-67559211D02*
X135824942Y-67473496D01*
X135824942Y-67473496D02*
X135853514Y-67416354D01*
X135853514Y-67416354D02*
X135882085Y-67387782D01*
X135882085Y-67387782D02*
X135939228Y-67359211D01*
X135939228Y-67359211D02*
X136082085Y-67359211D01*
X136082085Y-67359211D02*
X136139228Y-67387782D01*
X136139228Y-67387782D02*
X136167800Y-67416354D01*
X136167800Y-67416354D02*
X136196371Y-67473496D01*
X136196371Y-67473496D02*
X136196371Y-67644925D01*
X136196371Y-67644925D02*
X136167800Y-67702068D01*
X136167800Y-67702068D02*
X136139228Y-67730639D01*
X136139228Y-67102067D02*
X136167800Y-67073496D01*
X136167800Y-67073496D02*
X136196371Y-67102067D01*
X136196371Y-67102067D02*
X136167800Y-67130639D01*
X136167800Y-67130639D02*
X136139228Y-67102067D01*
X136139228Y-67102067D02*
X136196371Y-67102067D01*
X135596371Y-66873496D02*
X135596371Y-66502068D01*
X135596371Y-66502068D02*
X135824942Y-66702068D01*
X135824942Y-66702068D02*
X135824942Y-66616353D01*
X135824942Y-66616353D02*
X135853514Y-66559211D01*
X135853514Y-66559211D02*
X135882085Y-66530639D01*
X135882085Y-66530639D02*
X135939228Y-66502068D01*
X135939228Y-66502068D02*
X136082085Y-66502068D01*
X136082085Y-66502068D02*
X136139228Y-66530639D01*
X136139228Y-66530639D02*
X136167800Y-66559211D01*
X136167800Y-66559211D02*
X136196371Y-66616353D01*
X136196371Y-66616353D02*
X136196371Y-66787782D01*
X136196371Y-66787782D02*
X136167800Y-66844925D01*
X136167800Y-66844925D02*
X136139228Y-66873496D01*
X135796371Y-66302067D02*
X136196371Y-66159210D01*
X136196371Y-66159210D02*
X135796371Y-66016353D01*
X133567800Y-67894925D02*
X133596371Y-67809211D01*
X133596371Y-67809211D02*
X133596371Y-67666353D01*
X133596371Y-67666353D02*
X133567800Y-67609211D01*
X133567800Y-67609211D02*
X133539228Y-67580639D01*
X133539228Y-67580639D02*
X133482085Y-67552068D01*
X133482085Y-67552068D02*
X133424942Y-67552068D01*
X133424942Y-67552068D02*
X133367800Y-67580639D01*
X133367800Y-67580639D02*
X133339228Y-67609211D01*
X133339228Y-67609211D02*
X133310657Y-67666353D01*
X133310657Y-67666353D02*
X133282085Y-67780639D01*
X133282085Y-67780639D02*
X133253514Y-67837782D01*
X133253514Y-67837782D02*
X133224942Y-67866353D01*
X133224942Y-67866353D02*
X133167800Y-67894925D01*
X133167800Y-67894925D02*
X133110657Y-67894925D01*
X133110657Y-67894925D02*
X133053514Y-67866353D01*
X133053514Y-67866353D02*
X133024942Y-67837782D01*
X133024942Y-67837782D02*
X132996371Y-67780639D01*
X132996371Y-67780639D02*
X132996371Y-67637782D01*
X132996371Y-67637782D02*
X133024942Y-67552068D01*
X133539228Y-66952067D02*
X133567800Y-66980639D01*
X133567800Y-66980639D02*
X133596371Y-67066353D01*
X133596371Y-67066353D02*
X133596371Y-67123496D01*
X133596371Y-67123496D02*
X133567800Y-67209210D01*
X133567800Y-67209210D02*
X133510657Y-67266353D01*
X133510657Y-67266353D02*
X133453514Y-67294924D01*
X133453514Y-67294924D02*
X133339228Y-67323496D01*
X133339228Y-67323496D02*
X133253514Y-67323496D01*
X133253514Y-67323496D02*
X133139228Y-67294924D01*
X133139228Y-67294924D02*
X133082085Y-67266353D01*
X133082085Y-67266353D02*
X133024942Y-67209210D01*
X133024942Y-67209210D02*
X132996371Y-67123496D01*
X132996371Y-67123496D02*
X132996371Y-67066353D01*
X132996371Y-67066353D02*
X133024942Y-66980639D01*
X133024942Y-66980639D02*
X133053514Y-66952067D01*
X133596371Y-66409210D02*
X133596371Y-66694924D01*
X133596371Y-66694924D02*
X132996371Y-66694924D01*
X130967800Y-67944925D02*
X130996371Y-67859211D01*
X130996371Y-67859211D02*
X130996371Y-67716353D01*
X130996371Y-67716353D02*
X130967800Y-67659211D01*
X130967800Y-67659211D02*
X130939228Y-67630639D01*
X130939228Y-67630639D02*
X130882085Y-67602068D01*
X130882085Y-67602068D02*
X130824942Y-67602068D01*
X130824942Y-67602068D02*
X130767800Y-67630639D01*
X130767800Y-67630639D02*
X130739228Y-67659211D01*
X130739228Y-67659211D02*
X130710657Y-67716353D01*
X130710657Y-67716353D02*
X130682085Y-67830639D01*
X130682085Y-67830639D02*
X130653514Y-67887782D01*
X130653514Y-67887782D02*
X130624942Y-67916353D01*
X130624942Y-67916353D02*
X130567800Y-67944925D01*
X130567800Y-67944925D02*
X130510657Y-67944925D01*
X130510657Y-67944925D02*
X130453514Y-67916353D01*
X130453514Y-67916353D02*
X130424942Y-67887782D01*
X130424942Y-67887782D02*
X130396371Y-67830639D01*
X130396371Y-67830639D02*
X130396371Y-67687782D01*
X130396371Y-67687782D02*
X130424942Y-67602068D01*
X130996371Y-67344924D02*
X130396371Y-67344924D01*
X130396371Y-67344924D02*
X130396371Y-67202067D01*
X130396371Y-67202067D02*
X130424942Y-67116353D01*
X130424942Y-67116353D02*
X130482085Y-67059210D01*
X130482085Y-67059210D02*
X130539228Y-67030639D01*
X130539228Y-67030639D02*
X130653514Y-67002067D01*
X130653514Y-67002067D02*
X130739228Y-67002067D01*
X130739228Y-67002067D02*
X130853514Y-67030639D01*
X130853514Y-67030639D02*
X130910657Y-67059210D01*
X130910657Y-67059210D02*
X130967800Y-67116353D01*
X130967800Y-67116353D02*
X130996371Y-67202067D01*
X130996371Y-67202067D02*
X130996371Y-67344924D01*
X130824942Y-66773496D02*
X130824942Y-66487782D01*
X130996371Y-66830639D02*
X130396371Y-66630639D01*
X130396371Y-66630639D02*
X130996371Y-66430639D01*
X127974942Y-67652068D02*
X127946371Y-67709211D01*
X127946371Y-67709211D02*
X127946371Y-67794925D01*
X127946371Y-67794925D02*
X127974942Y-67880639D01*
X127974942Y-67880639D02*
X128032085Y-67937782D01*
X128032085Y-67937782D02*
X128089228Y-67966353D01*
X128089228Y-67966353D02*
X128203514Y-67994925D01*
X128203514Y-67994925D02*
X128289228Y-67994925D01*
X128289228Y-67994925D02*
X128403514Y-67966353D01*
X128403514Y-67966353D02*
X128460657Y-67937782D01*
X128460657Y-67937782D02*
X128517800Y-67880639D01*
X128517800Y-67880639D02*
X128546371Y-67794925D01*
X128546371Y-67794925D02*
X128546371Y-67737782D01*
X128546371Y-67737782D02*
X128517800Y-67652068D01*
X128517800Y-67652068D02*
X128489228Y-67623496D01*
X128489228Y-67623496D02*
X128289228Y-67623496D01*
X128289228Y-67623496D02*
X128289228Y-67737782D01*
X128546371Y-67366353D02*
X127946371Y-67366353D01*
X127946371Y-67366353D02*
X128546371Y-67023496D01*
X128546371Y-67023496D02*
X127946371Y-67023496D01*
X128546371Y-66737782D02*
X127946371Y-66737782D01*
X127946371Y-66737782D02*
X127946371Y-66594925D01*
X127946371Y-66594925D02*
X127974942Y-66509211D01*
X127974942Y-66509211D02*
X128032085Y-66452068D01*
X128032085Y-66452068D02*
X128089228Y-66423497D01*
X128089228Y-66423497D02*
X128203514Y-66394925D01*
X128203514Y-66394925D02*
X128289228Y-66394925D01*
X128289228Y-66394925D02*
X128403514Y-66423497D01*
X128403514Y-66423497D02*
X128460657Y-66452068D01*
X128460657Y-66452068D02*
X128517800Y-66509211D01*
X128517800Y-66509211D02*
X128546371Y-66594925D01*
X128546371Y-66594925D02*
X128546371Y-66737782D01*
X126067800Y-68819925D02*
X126096371Y-68734211D01*
X126096371Y-68734211D02*
X126096371Y-68591353D01*
X126096371Y-68591353D02*
X126067800Y-68534211D01*
X126067800Y-68534211D02*
X126039228Y-68505639D01*
X126039228Y-68505639D02*
X125982085Y-68477068D01*
X125982085Y-68477068D02*
X125924942Y-68477068D01*
X125924942Y-68477068D02*
X125867800Y-68505639D01*
X125867800Y-68505639D02*
X125839228Y-68534211D01*
X125839228Y-68534211D02*
X125810657Y-68591353D01*
X125810657Y-68591353D02*
X125782085Y-68705639D01*
X125782085Y-68705639D02*
X125753514Y-68762782D01*
X125753514Y-68762782D02*
X125724942Y-68791353D01*
X125724942Y-68791353D02*
X125667800Y-68819925D01*
X125667800Y-68819925D02*
X125610657Y-68819925D01*
X125610657Y-68819925D02*
X125553514Y-68791353D01*
X125553514Y-68791353D02*
X125524942Y-68762782D01*
X125524942Y-68762782D02*
X125496371Y-68705639D01*
X125496371Y-68705639D02*
X125496371Y-68562782D01*
X125496371Y-68562782D02*
X125524942Y-68477068D01*
X126096371Y-68219924D02*
X125496371Y-68219924D01*
X126096371Y-67962782D02*
X125782085Y-67962782D01*
X125782085Y-67962782D02*
X125724942Y-67991353D01*
X125724942Y-67991353D02*
X125696371Y-68048496D01*
X125696371Y-68048496D02*
X125696371Y-68134210D01*
X125696371Y-68134210D02*
X125724942Y-68191353D01*
X125724942Y-68191353D02*
X125753514Y-68219924D01*
X126096371Y-67677067D02*
X125696371Y-67677067D01*
X125496371Y-67677067D02*
X125524942Y-67705639D01*
X125524942Y-67705639D02*
X125553514Y-67677067D01*
X125553514Y-67677067D02*
X125524942Y-67648496D01*
X125524942Y-67648496D02*
X125496371Y-67677067D01*
X125496371Y-67677067D02*
X125553514Y-67677067D01*
X126067800Y-67162782D02*
X126096371Y-67219925D01*
X126096371Y-67219925D02*
X126096371Y-67334211D01*
X126096371Y-67334211D02*
X126067800Y-67391353D01*
X126067800Y-67391353D02*
X126010657Y-67419925D01*
X126010657Y-67419925D02*
X125782085Y-67419925D01*
X125782085Y-67419925D02*
X125724942Y-67391353D01*
X125724942Y-67391353D02*
X125696371Y-67334211D01*
X125696371Y-67334211D02*
X125696371Y-67219925D01*
X125696371Y-67219925D02*
X125724942Y-67162782D01*
X125724942Y-67162782D02*
X125782085Y-67134211D01*
X125782085Y-67134211D02*
X125839228Y-67134211D01*
X125839228Y-67134211D02*
X125896371Y-67419925D01*
X126096371Y-66791353D02*
X126067800Y-66848496D01*
X126067800Y-66848496D02*
X126010657Y-66877067D01*
X126010657Y-66877067D02*
X125496371Y-66877067D01*
X126096371Y-66305639D02*
X125496371Y-66305639D01*
X126067800Y-66305639D02*
X126096371Y-66362781D01*
X126096371Y-66362781D02*
X126096371Y-66477067D01*
X126096371Y-66477067D02*
X126067800Y-66534210D01*
X126067800Y-66534210D02*
X126039228Y-66562781D01*
X126039228Y-66562781D02*
X125982085Y-66591353D01*
X125982085Y-66591353D02*
X125810657Y-66591353D01*
X125810657Y-66591353D02*
X125753514Y-66562781D01*
X125753514Y-66562781D02*
X125724942Y-66534210D01*
X125724942Y-66534210D02*
X125696371Y-66477067D01*
X125696371Y-66477067D02*
X125696371Y-66362781D01*
X125696371Y-66362781D02*
X125724942Y-66305639D01*
D11*
G36*
X135165893Y-80927191D02*
G01*
X135123194Y-80915379D01*
X135087552Y-80911803D01*
X135041777Y-80918522D01*
X135005669Y-80937632D01*
X134978252Y-80967104D01*
X134961645Y-81003944D01*
X134961645Y-81455000D01*
X134779745Y-81455000D01*
X134779745Y-80755488D01*
X134921039Y-80755488D01*
X134942044Y-80847629D01*
X134947601Y-80847629D01*
X134976186Y-80801077D01*
X135011959Y-80767883D01*
X135055449Y-80747040D01*
X135107091Y-80739856D01*
X135144358Y-80743444D01*
X135189645Y-80755366D01*
X135165893Y-80927191D01*
G37*
G36*
X135625931Y-80739460D02*
G01*
X135676849Y-80749931D01*
X135724588Y-80768491D01*
X135766364Y-80795971D01*
X135801077Y-80832760D01*
X135829317Y-80882433D01*
X135846688Y-80940703D01*
X135853131Y-81017683D01*
X135849651Y-81080453D01*
X135839148Y-81150184D01*
X135419478Y-81150184D01*
X135427168Y-81208222D01*
X135442706Y-81251985D01*
X135464907Y-81284640D01*
X135495547Y-81308455D01*
X135538660Y-81324078D01*
X135598508Y-81329947D01*
X135653972Y-81325399D01*
X135701334Y-81312484D01*
X135743607Y-81293645D01*
X135770638Y-81276763D01*
X135830783Y-81395282D01*
X135783817Y-81424797D01*
X135716721Y-81451641D01*
X135643062Y-81468717D01*
X135563581Y-81474539D01*
X135494703Y-81469941D01*
X135437204Y-81457082D01*
X135389193Y-81436955D01*
X135349131Y-81409971D01*
X135315919Y-81375926D01*
X135283223Y-81325130D01*
X135258787Y-81264416D01*
X135243162Y-81191888D01*
X135237578Y-81105244D01*
X135242314Y-81036856D01*
X135423630Y-81036856D01*
X135683871Y-81036856D01*
X135683474Y-80987178D01*
X135675294Y-80949498D01*
X135660790Y-80921024D01*
X135638792Y-80899073D01*
X135609516Y-80885475D01*
X135570542Y-80880540D01*
X135524961Y-80885803D01*
X135490673Y-80900211D01*
X135464907Y-80923100D01*
X135445821Y-80953172D01*
X135431874Y-80990554D01*
X135423630Y-81036856D01*
X135242314Y-81036856D01*
X135244030Y-81012074D01*
X135261813Y-80936959D01*
X135289254Y-80876575D01*
X135325689Y-80828272D01*
X135372489Y-80789029D01*
X135428090Y-80760397D01*
X135494255Y-80742358D01*
X135573351Y-80735949D01*
X135625931Y-80739460D01*
G37*
G36*
X136203925Y-81122707D02*
G01*
X136227677Y-81230601D01*
X136234699Y-81230601D01*
X136254300Y-81119898D01*
X136373185Y-80755488D01*
X136569068Y-80755488D01*
X136276648Y-81462815D01*
X136166128Y-81462815D01*
X135862534Y-80755488D01*
X136073804Y-80755488D01*
X136203925Y-81122707D01*
G37*
G36*
X137114890Y-80812397D02*
G01*
X137120446Y-80812397D01*
X137153462Y-80782805D01*
X137195978Y-80759396D01*
X137243948Y-80744872D01*
X137298133Y-80739856D01*
X137359741Y-80745688D01*
X137411073Y-80762163D01*
X137454193Y-80788632D01*
X137490474Y-80825647D01*
X137517330Y-80869398D01*
X137538144Y-80925582D01*
X137551913Y-80997034D01*
X137556969Y-81087109D01*
X137550249Y-81181743D01*
X137531615Y-81258944D01*
X137502652Y-81321864D01*
X137463913Y-81372995D01*
X137414465Y-81414773D01*
X137356633Y-81445029D01*
X137288767Y-81463949D01*
X137208618Y-81470631D01*
X137121101Y-81466788D01*
X137044914Y-81455915D01*
X136975662Y-81439120D01*
X136932990Y-81423065D01*
X136932990Y-80993136D01*
X137114890Y-80993136D01*
X137114890Y-81298623D01*
X137163128Y-81314010D01*
X137218387Y-81318224D01*
X137265034Y-81311883D01*
X137301758Y-81293987D01*
X137330983Y-81264307D01*
X137350664Y-81226100D01*
X137364276Y-81170742D01*
X137369513Y-81092604D01*
X137364630Y-81021128D01*
X137351880Y-80970212D01*
X137333352Y-80934879D01*
X137309916Y-80911307D01*
X137281051Y-80897220D01*
X137244949Y-80892264D01*
X137198240Y-80899105D01*
X137163128Y-80918215D01*
X137136054Y-80948752D01*
X137114890Y-80993136D01*
X136932990Y-80993136D01*
X136932990Y-80474120D01*
X137114890Y-80474120D01*
X137114890Y-80812397D01*
G37*
G36*
X123732021Y-78905488D02*
G01*
X123828497Y-78905488D01*
X123828497Y-78773719D01*
X124010397Y-78721817D01*
X124010397Y-78905488D01*
X124181062Y-78905488D01*
X124181062Y-79057896D01*
X124010397Y-79057896D01*
X124010397Y-79327906D01*
X124014812Y-79395695D01*
X124025052Y-79432686D01*
X124037497Y-79450038D01*
X124055305Y-79460505D01*
X124080373Y-79464316D01*
X124128611Y-79458759D01*
X124174101Y-79441906D01*
X124206280Y-79581369D01*
X124166577Y-79597622D01*
X124118108Y-79611960D01*
X124067373Y-79621397D01*
X124016015Y-79624539D01*
X123953627Y-79618204D01*
X123907632Y-79601144D01*
X123873988Y-79574774D01*
X123850523Y-79538565D01*
X123834595Y-79485992D01*
X123828497Y-79411376D01*
X123828497Y-79057896D01*
X123732021Y-79057896D01*
X123732021Y-78905488D01*
G37*
G36*
X124640184Y-78889460D02*
G01*
X124691102Y-78899931D01*
X124738841Y-78918491D01*
X124780617Y-78945971D01*
X124815330Y-78982760D01*
X124843571Y-79032433D01*
X124860941Y-79090703D01*
X124867384Y-79167683D01*
X124863904Y-79230453D01*
X124853401Y-79300184D01*
X124433731Y-79300184D01*
X124441421Y-79358222D01*
X124456959Y-79401985D01*
X124479160Y-79434640D01*
X124509801Y-79458455D01*
X124552914Y-79474078D01*
X124612761Y-79479947D01*
X124668226Y-79475399D01*
X124715587Y-79462484D01*
X124757860Y-79443645D01*
X124784891Y-79426763D01*
X124845036Y-79545282D01*
X124798070Y-79574797D01*
X124730975Y-79601641D01*
X124657315Y-79618717D01*
X124577834Y-79624539D01*
X124508956Y-79619941D01*
X124451458Y-79607082D01*
X124403446Y-79586955D01*
X124363384Y-79559971D01*
X124330172Y-79525926D01*
X124297476Y-79475130D01*
X124273040Y-79414416D01*
X124257416Y-79341888D01*
X124251831Y-79255244D01*
X124256567Y-79186856D01*
X124437883Y-79186856D01*
X124698124Y-79186856D01*
X124697727Y-79137178D01*
X124689547Y-79099498D01*
X124675043Y-79071024D01*
X124653045Y-79049073D01*
X124623770Y-79035475D01*
X124584795Y-79030540D01*
X124539214Y-79035803D01*
X124504926Y-79050211D01*
X124479160Y-79073100D01*
X124460074Y-79103172D01*
X124446127Y-79140554D01*
X124437883Y-79186856D01*
X124256567Y-79186856D01*
X124258283Y-79162074D01*
X124276066Y-79086959D01*
X124303507Y-79026575D01*
X124339942Y-78978272D01*
X124386742Y-78939029D01*
X124442343Y-78910397D01*
X124508508Y-78892358D01*
X124587604Y-78885949D01*
X124640184Y-78889460D01*
G37*
G36*
X125392995Y-79605000D02*
G01*
X125392995Y-79224042D01*
X125387473Y-79134559D01*
X125374799Y-79086777D01*
X125359034Y-79064848D01*
X125334927Y-79051251D01*
X125299267Y-79046172D01*
X125255292Y-79052987D01*
X125222330Y-79072123D01*
X125196743Y-79101267D01*
X125177573Y-79138618D01*
X125177573Y-79605000D01*
X124995673Y-79605000D01*
X124995673Y-78905488D01*
X125136967Y-78905488D01*
X125157972Y-78997873D01*
X125163529Y-78997873D01*
X125199657Y-78956309D01*
X125245350Y-78919532D01*
X125280005Y-78901512D01*
X125322108Y-78890055D01*
X125373394Y-78885949D01*
X125417467Y-78889301D01*
X125453593Y-78898633D01*
X125483243Y-78913243D01*
X125508419Y-78934291D01*
X125530602Y-78964166D01*
X125549677Y-79004895D01*
X125586700Y-78955599D01*
X125632231Y-78918128D01*
X125667125Y-78900634D01*
X125707308Y-78889761D01*
X125753925Y-78885949D01*
X125810293Y-78889725D01*
X125853942Y-78899931D01*
X125891430Y-78919039D01*
X125921109Y-78948230D01*
X125942885Y-78986407D01*
X125959577Y-79039822D01*
X125968710Y-79101001D01*
X125972217Y-79185329D01*
X125972217Y-79605000D01*
X125790317Y-79605000D01*
X125790317Y-79211463D01*
X125785197Y-79134180D01*
X125772793Y-79087510D01*
X125757283Y-79065320D01*
X125732639Y-79051424D01*
X125695184Y-79046172D01*
X125663557Y-79049396D01*
X125638114Y-79058402D01*
X125617515Y-79072794D01*
X125593114Y-79103347D01*
X125574895Y-79145640D01*
X125574895Y-79605000D01*
X125392995Y-79605000D01*
G37*
G36*
X126553522Y-78891748D02*
G01*
X126606561Y-78907970D01*
X126650142Y-78933691D01*
X126685894Y-78969174D01*
X126712078Y-79011593D01*
X126732685Y-79067952D01*
X126746517Y-79141733D01*
X126751657Y-79237048D01*
X126746168Y-79324002D01*
X126730652Y-79398614D01*
X126704077Y-79466321D01*
X126668431Y-79521041D01*
X126622613Y-79565426D01*
X126567681Y-79597978D01*
X126505312Y-79617618D01*
X126431332Y-79624539D01*
X126389845Y-79622790D01*
X126359952Y-79618250D01*
X126304021Y-79597978D01*
X126304021Y-79886367D01*
X126122121Y-79886367D01*
X126122121Y-79145396D01*
X126304021Y-79145396D01*
X126304021Y-79438304D01*
X126346641Y-79462972D01*
X126371719Y-79469580D01*
X126407519Y-79472131D01*
X126456869Y-79465522D01*
X126495121Y-79447001D01*
X126525000Y-79416505D01*
X126544824Y-79377072D01*
X126558769Y-79318075D01*
X126564200Y-79232712D01*
X126560197Y-79171168D01*
X126549463Y-79124322D01*
X126533426Y-79089098D01*
X126509172Y-79061271D01*
X126476952Y-79044413D01*
X126434080Y-79038356D01*
X126399622Y-79041651D01*
X126372404Y-79050759D01*
X126350854Y-79065101D01*
X126325109Y-79096831D01*
X126304021Y-79145396D01*
X126122121Y-79145396D01*
X126122121Y-78905488D01*
X126255050Y-78905488D01*
X126275994Y-78989446D01*
X126281612Y-78989446D01*
X126322100Y-78942606D01*
X126367646Y-78911167D01*
X126420811Y-78892659D01*
X126488668Y-78885949D01*
X126553522Y-78891748D01*
G37*
G36*
X127232089Y-78889460D02*
G01*
X127283007Y-78899931D01*
X127330746Y-78918491D01*
X127372522Y-78945971D01*
X127407235Y-78982760D01*
X127435476Y-79032433D01*
X127452847Y-79090703D01*
X127459289Y-79167683D01*
X127455809Y-79230453D01*
X127445307Y-79300184D01*
X127025636Y-79300184D01*
X127033326Y-79358222D01*
X127048864Y-79401985D01*
X127071065Y-79434640D01*
X127101706Y-79458455D01*
X127144819Y-79474078D01*
X127204666Y-79479947D01*
X127260131Y-79475399D01*
X127307493Y-79462484D01*
X127349765Y-79443645D01*
X127376796Y-79426763D01*
X127436941Y-79545282D01*
X127389975Y-79574797D01*
X127322880Y-79601641D01*
X127249220Y-79618717D01*
X127169740Y-79624539D01*
X127100861Y-79619941D01*
X127043363Y-79607082D01*
X126995352Y-79586955D01*
X126955289Y-79559971D01*
X126922077Y-79525926D01*
X126889381Y-79475130D01*
X126864945Y-79414416D01*
X126849321Y-79341888D01*
X126843736Y-79255244D01*
X126848472Y-79186856D01*
X127029788Y-79186856D01*
X127290029Y-79186856D01*
X127289632Y-79137178D01*
X127281452Y-79099498D01*
X127266948Y-79071024D01*
X127244951Y-79049073D01*
X127215675Y-79035475D01*
X127176700Y-79030540D01*
X127131119Y-79035803D01*
X127096831Y-79050211D01*
X127071065Y-79073100D01*
X127051979Y-79103172D01*
X127038032Y-79140554D01*
X127029788Y-79186856D01*
X126848472Y-79186856D01*
X126850188Y-79162074D01*
X126867971Y-79086959D01*
X126895412Y-79026575D01*
X126931847Y-78978272D01*
X126978647Y-78939029D01*
X127034248Y-78910397D01*
X127100413Y-78892358D01*
X127179509Y-78885949D01*
X127232089Y-78889460D01*
G37*
G36*
X127973726Y-79077191D02*
G01*
X127931028Y-79065379D01*
X127895385Y-79061803D01*
X127849611Y-79068522D01*
X127813503Y-79087632D01*
X127786085Y-79117104D01*
X127769478Y-79153944D01*
X127769478Y-79605000D01*
X127587578Y-79605000D01*
X127587578Y-78905488D01*
X127728872Y-78905488D01*
X127749877Y-78997629D01*
X127755434Y-78997629D01*
X127784019Y-78951077D01*
X127819792Y-78917883D01*
X127863282Y-78897040D01*
X127914924Y-78889856D01*
X127952191Y-78893444D01*
X127997479Y-78905366D01*
X127973726Y-79077191D01*
G37*
G36*
X128438061Y-78894632D02*
G01*
X128490300Y-78907381D01*
X128535102Y-78929113D01*
X128567908Y-78957023D01*
X128592227Y-78992018D01*
X128608513Y-79034021D01*
X128617296Y-79080362D01*
X128620420Y-79134771D01*
X128616207Y-79258602D01*
X128611322Y-79381090D01*
X128614802Y-79497960D01*
X128622247Y-79553492D01*
X128635807Y-79605000D01*
X128487491Y-79605000D01*
X128458121Y-79509989D01*
X128451160Y-79509989D01*
X128418344Y-79549952D01*
X128373490Y-79585155D01*
X128339015Y-79602040D01*
X128296930Y-79612840D01*
X128245507Y-79616723D01*
X128198118Y-79612899D01*
X128157336Y-79602008D01*
X128120704Y-79583916D01*
X128090169Y-79559876D01*
X128065423Y-79530114D01*
X128046816Y-79495212D01*
X128035410Y-79456414D01*
X128031428Y-79411620D01*
X128033854Y-79381700D01*
X128218885Y-79381700D01*
X128224981Y-79417381D01*
X128241966Y-79442639D01*
X128268400Y-79458539D01*
X128305652Y-79464316D01*
X128356265Y-79457710D01*
X128392358Y-79439830D01*
X128421055Y-79413633D01*
X128439924Y-79387318D01*
X128439924Y-79296277D01*
X128356699Y-79294933D01*
X128318124Y-79299627D01*
X128286051Y-79307512D01*
X128257719Y-79319792D01*
X128237081Y-79335478D01*
X128223535Y-79355877D01*
X128218885Y-79381700D01*
X128033854Y-79381700D01*
X128034853Y-79369373D01*
X128044556Y-79333462D01*
X128060066Y-79302749D01*
X128094359Y-79263314D01*
X128142620Y-79231125D01*
X128199930Y-79208480D01*
X128271336Y-79193206D01*
X128348358Y-79186423D01*
X128438520Y-79186856D01*
X128441557Y-79135122D01*
X128437050Y-79099673D01*
X128427346Y-79076031D01*
X128410132Y-79058838D01*
X128380785Y-79046988D01*
X128333618Y-79042264D01*
X128278382Y-79044984D01*
X128218152Y-79053499D01*
X128160386Y-79067132D01*
X128118196Y-79082869D01*
X128074781Y-78945422D01*
X128133913Y-78923093D01*
X128207711Y-78904816D01*
X128285727Y-78893660D01*
X128368606Y-78889856D01*
X128438061Y-78894632D01*
G37*
G36*
X128699921Y-78905488D02*
G01*
X128796397Y-78905488D01*
X128796397Y-78773719D01*
X128978297Y-78721817D01*
X128978297Y-78905488D01*
X129148961Y-78905488D01*
X129148961Y-79057896D01*
X128978297Y-79057896D01*
X128978297Y-79327906D01*
X128982711Y-79395695D01*
X128992951Y-79432686D01*
X129005396Y-79450038D01*
X129023204Y-79460505D01*
X129048272Y-79464316D01*
X129096510Y-79458759D01*
X129142001Y-79441906D01*
X129174180Y-79581369D01*
X129134477Y-79597622D01*
X129086008Y-79611960D01*
X129035273Y-79621397D01*
X128983914Y-79624539D01*
X128921527Y-79618204D01*
X128875532Y-79601144D01*
X128841887Y-79574774D01*
X128818422Y-79538565D01*
X128802494Y-79485992D01*
X128796397Y-79411376D01*
X128796397Y-79057896D01*
X128699921Y-79057896D01*
X128699921Y-78905488D01*
G37*
G36*
X129436008Y-78905488D02*
G01*
X129436008Y-79303237D01*
X129442046Y-79382311D01*
X129456280Y-79426519D01*
X129473047Y-79446718D01*
X129498308Y-79459507D01*
X129535354Y-79464316D01*
X129568649Y-79460725D01*
X129596945Y-79450435D01*
X129621327Y-79433541D01*
X129651147Y-79399380D01*
X129672435Y-79357887D01*
X129672435Y-78905488D01*
X129854335Y-78905488D01*
X129854335Y-79392325D01*
X129859891Y-79504982D01*
X129867105Y-79558843D01*
X129876683Y-79605000D01*
X129739602Y-79605000D01*
X129707423Y-79501441D01*
X129701805Y-79501441D01*
X129663763Y-79549655D01*
X129612290Y-79589612D01*
X129572716Y-79608655D01*
X129527842Y-79620432D01*
X129476552Y-79624539D01*
X129425113Y-79620880D01*
X129381420Y-79610556D01*
X129342809Y-79591920D01*
X129311505Y-79564394D01*
X129287629Y-79528190D01*
X129268824Y-79477688D01*
X129258165Y-79419530D01*
X129254108Y-79340546D01*
X129254108Y-78905488D01*
X129436008Y-78905488D01*
G37*
G36*
X130399546Y-79077191D02*
G01*
X130356848Y-79065379D01*
X130321205Y-79061803D01*
X130275430Y-79068522D01*
X130239323Y-79087632D01*
X130211905Y-79117104D01*
X130195298Y-79153944D01*
X130195298Y-79605000D01*
X130013398Y-79605000D01*
X130013398Y-78905488D01*
X130154692Y-78905488D01*
X130175697Y-78997629D01*
X130181254Y-78997629D01*
X130209839Y-78951077D01*
X130245612Y-78917883D01*
X130289102Y-78897040D01*
X130340744Y-78889856D01*
X130378011Y-78893444D01*
X130423299Y-78905366D01*
X130399546Y-79077191D01*
G37*
G36*
X130859584Y-78889460D02*
G01*
X130910502Y-78899931D01*
X130958241Y-78918491D01*
X131000017Y-78945971D01*
X131034730Y-78982760D01*
X131062971Y-79032433D01*
X131080341Y-79090703D01*
X131086784Y-79167683D01*
X131083304Y-79230453D01*
X131072801Y-79300184D01*
X130653131Y-79300184D01*
X130660821Y-79358222D01*
X130676359Y-79401985D01*
X130698560Y-79434640D01*
X130729201Y-79458455D01*
X130772314Y-79474078D01*
X130832161Y-79479947D01*
X130887626Y-79475399D01*
X130934987Y-79462484D01*
X130977260Y-79443645D01*
X131004291Y-79426763D01*
X131064436Y-79545282D01*
X131017470Y-79574797D01*
X130950375Y-79601641D01*
X130876715Y-79618717D01*
X130797234Y-79624539D01*
X130728356Y-79619941D01*
X130670857Y-79607082D01*
X130622846Y-79586955D01*
X130582784Y-79559971D01*
X130549572Y-79525926D01*
X130516876Y-79475130D01*
X130492440Y-79414416D01*
X130476815Y-79341888D01*
X130471231Y-79255244D01*
X130475967Y-79186856D01*
X130657283Y-79186856D01*
X130917524Y-79186856D01*
X130917127Y-79137178D01*
X130908947Y-79099498D01*
X130894443Y-79071024D01*
X130872445Y-79049073D01*
X130843169Y-79035475D01*
X130804195Y-79030540D01*
X130758614Y-79035803D01*
X130724326Y-79050211D01*
X130698560Y-79073100D01*
X130679474Y-79103172D01*
X130665527Y-79140554D01*
X130657283Y-79186856D01*
X130475967Y-79186856D01*
X130477683Y-79162074D01*
X130495466Y-79086959D01*
X130522907Y-79026575D01*
X130559342Y-78978272D01*
X130606142Y-78939029D01*
X130661743Y-78910397D01*
X130727908Y-78892358D01*
X130807004Y-78885949D01*
X130859584Y-78889460D01*
G37*
G36*
X131750636Y-78962397D02*
G01*
X131756193Y-78962397D01*
X131789209Y-78932805D01*
X131831725Y-78909396D01*
X131879694Y-78894872D01*
X131933879Y-78889856D01*
X131995487Y-78895688D01*
X132046819Y-78912163D01*
X132089939Y-78938632D01*
X132126221Y-78975647D01*
X132153076Y-79019398D01*
X132173891Y-79075582D01*
X132187659Y-79147034D01*
X132192716Y-79237109D01*
X132185995Y-79331743D01*
X132167362Y-79408944D01*
X132138399Y-79471864D01*
X132099659Y-79522995D01*
X132050211Y-79564773D01*
X131992380Y-79595029D01*
X131924513Y-79613949D01*
X131844364Y-79620631D01*
X131756848Y-79616788D01*
X131680661Y-79605915D01*
X131611408Y-79589120D01*
X131568736Y-79573065D01*
X131568736Y-79143136D01*
X131750636Y-79143136D01*
X131750636Y-79448623D01*
X131798874Y-79464010D01*
X131854134Y-79468224D01*
X131900781Y-79461883D01*
X131937505Y-79443987D01*
X131966730Y-79414307D01*
X131986411Y-79376100D01*
X132000023Y-79320742D01*
X132005259Y-79242604D01*
X132000377Y-79171128D01*
X131987627Y-79120212D01*
X131969099Y-79084879D01*
X131945663Y-79061307D01*
X131916798Y-79047220D01*
X131880696Y-79042264D01*
X131833987Y-79049105D01*
X131798874Y-79068215D01*
X131771800Y-79098752D01*
X131750636Y-79143136D01*
X131568736Y-79143136D01*
X131568736Y-78624120D01*
X131750636Y-78624120D01*
X131750636Y-78962397D01*
G37*
G36*
X132671124Y-78889146D02*
G01*
X132719280Y-78898216D01*
X132761130Y-78912571D01*
X132817815Y-78944836D01*
X132863224Y-78987370D01*
X132898271Y-79039785D01*
X132924101Y-79104180D01*
X132939166Y-79174839D01*
X132944434Y-79255244D01*
X132938257Y-79344538D01*
X132921060Y-79418150D01*
X132894246Y-79478819D01*
X132858339Y-79528735D01*
X132812310Y-79569669D01*
X132757765Y-79599335D01*
X132692992Y-79617941D01*
X132615622Y-79624539D01*
X132560160Y-79621350D01*
X132512000Y-79612302D01*
X132470115Y-79597978D01*
X132413289Y-79565700D01*
X132367288Y-79523117D01*
X132331746Y-79470667D01*
X132305739Y-79406369D01*
X132290719Y-79335659D01*
X132285467Y-79255244D01*
X132472923Y-79255244D01*
X132475091Y-79300731D01*
X132481289Y-79341156D01*
X132492077Y-79378881D01*
X132506507Y-79410216D01*
X132526112Y-79436620D01*
X132550593Y-79455950D01*
X132579790Y-79467908D01*
X132615622Y-79472131D01*
X132660439Y-79465962D01*
X132695032Y-79448658D01*
X132721929Y-79420047D01*
X132739765Y-79383336D01*
X132752149Y-79330175D01*
X132756917Y-79255244D01*
X132752865Y-79190994D01*
X132741748Y-79139433D01*
X132724738Y-79098257D01*
X132705986Y-79072190D01*
X132682303Y-79053850D01*
X132652753Y-79042441D01*
X132615622Y-79038356D01*
X132573429Y-79044207D01*
X132539106Y-79060957D01*
X132510720Y-79089098D01*
X132491503Y-79125181D01*
X132478112Y-79178575D01*
X132472923Y-79255244D01*
X132285467Y-79255244D01*
X132291683Y-79165990D01*
X132308991Y-79092404D01*
X132335991Y-79031741D01*
X132372173Y-78981814D01*
X132418553Y-78940827D01*
X132473356Y-78911141D01*
X132538269Y-78892539D01*
X132615622Y-78885949D01*
X132671124Y-78889146D01*
G37*
G36*
X133429408Y-78894632D02*
G01*
X133481646Y-78907381D01*
X133526449Y-78929113D01*
X133559255Y-78957023D01*
X133583573Y-78992018D01*
X133599860Y-79034021D01*
X133608643Y-79080362D01*
X133611767Y-79134771D01*
X133607554Y-79258602D01*
X133602669Y-79381090D01*
X133606149Y-79497960D01*
X133613594Y-79553492D01*
X133627154Y-79605000D01*
X133478838Y-79605000D01*
X133449467Y-79509989D01*
X133442506Y-79509989D01*
X133409691Y-79549952D01*
X133364837Y-79585155D01*
X133330362Y-79602040D01*
X133288277Y-79612840D01*
X133236854Y-79616723D01*
X133189465Y-79612899D01*
X133148682Y-79602008D01*
X133112050Y-79583916D01*
X133081516Y-79559876D01*
X133056770Y-79530114D01*
X133038162Y-79495212D01*
X133026756Y-79456414D01*
X133022775Y-79411620D01*
X133025200Y-79381700D01*
X133210232Y-79381700D01*
X133216328Y-79417381D01*
X133233312Y-79442639D01*
X133259747Y-79458539D01*
X133296999Y-79464316D01*
X133347611Y-79457710D01*
X133383705Y-79439830D01*
X133412402Y-79413633D01*
X133431271Y-79387318D01*
X133431271Y-79296277D01*
X133348046Y-79294933D01*
X133309471Y-79299627D01*
X133277398Y-79307512D01*
X133249066Y-79319792D01*
X133228428Y-79335478D01*
X133214882Y-79355877D01*
X133210232Y-79381700D01*
X133025200Y-79381700D01*
X133026199Y-79369373D01*
X133035903Y-79333462D01*
X133051413Y-79302749D01*
X133085705Y-79263314D01*
X133133967Y-79231125D01*
X133191277Y-79208480D01*
X133262683Y-79193206D01*
X133339705Y-79186423D01*
X133429867Y-79186856D01*
X133432904Y-79135122D01*
X133428396Y-79099673D01*
X133418693Y-79076031D01*
X133401479Y-79058838D01*
X133372132Y-79046988D01*
X133324965Y-79042264D01*
X133269728Y-79044984D01*
X133209499Y-79053499D01*
X133151733Y-79067132D01*
X133109542Y-79082869D01*
X133066128Y-78945422D01*
X133125259Y-78923093D01*
X133199057Y-78904816D01*
X133277073Y-78893660D01*
X133359952Y-78889856D01*
X133429408Y-78894632D01*
G37*
G36*
X134150139Y-79077191D02*
G01*
X134107441Y-79065379D01*
X134071798Y-79061803D01*
X134026024Y-79068522D01*
X133989916Y-79087632D01*
X133962498Y-79117104D01*
X133945891Y-79153944D01*
X133945891Y-79605000D01*
X133763991Y-79605000D01*
X133763991Y-78905488D01*
X133905286Y-78905488D01*
X133926290Y-78997629D01*
X133931847Y-78997629D01*
X133960432Y-78951077D01*
X133996205Y-78917883D01*
X134039695Y-78897040D01*
X134091338Y-78889856D01*
X134128604Y-78893444D01*
X134173892Y-78905366D01*
X134150139Y-79077191D01*
G37*
G36*
X134850017Y-79357337D02*
G01*
X134851360Y-79474879D01*
X134855051Y-79535002D01*
X134864000Y-79605000D01*
X134733879Y-79605000D01*
X134708661Y-79515607D01*
X134703105Y-79515607D01*
X134669356Y-79559451D01*
X134622627Y-79594558D01*
X134586548Y-79610877D01*
X134545614Y-79621003D01*
X134498857Y-79624539D01*
X134434331Y-79618666D01*
X134379988Y-79602022D01*
X134333848Y-79575267D01*
X134294548Y-79537955D01*
X134265197Y-79493447D01*
X134242455Y-79435653D01*
X134227379Y-79361422D01*
X134222158Y-79272646D01*
X134409281Y-79272646D01*
X134413235Y-79331982D01*
X134424085Y-79379486D01*
X134440727Y-79417360D01*
X134465728Y-79447686D01*
X134498250Y-79465729D01*
X134540806Y-79472131D01*
X134575374Y-79468935D01*
X134602860Y-79460092D01*
X134624764Y-79446181D01*
X134650347Y-79415486D01*
X134668117Y-79371015D01*
X134668117Y-79073161D01*
X134647471Y-79059655D01*
X134624703Y-79050019D01*
X134599125Y-79044420D01*
X134563215Y-79042264D01*
X134514482Y-79048503D01*
X134476900Y-79065887D01*
X134447749Y-79094227D01*
X134428416Y-79131325D01*
X134414680Y-79188352D01*
X134409281Y-79272646D01*
X134222158Y-79272646D01*
X134221824Y-79266967D01*
X134227660Y-79176806D01*
X134243917Y-79102073D01*
X134269230Y-79040184D01*
X134302974Y-78989019D01*
X134346916Y-78946649D01*
X134399841Y-78915990D01*
X134463591Y-78896720D01*
X134540806Y-78889856D01*
X134612124Y-78894741D01*
X134668117Y-78910861D01*
X134668117Y-78624120D01*
X134850017Y-78624120D01*
X134850017Y-79357337D01*
G37*
D12*
X117561779Y-67569819D02*
X117561779Y-66569819D01*
X117561779Y-66569819D02*
X117942731Y-66569819D01*
X117942731Y-66569819D02*
X118037969Y-66617438D01*
X118037969Y-66617438D02*
X118085588Y-66665057D01*
X118085588Y-66665057D02*
X118133207Y-66760295D01*
X118133207Y-66760295D02*
X118133207Y-66903152D01*
X118133207Y-66903152D02*
X118085588Y-66998390D01*
X118085588Y-66998390D02*
X118037969Y-67046009D01*
X118037969Y-67046009D02*
X117942731Y-67093628D01*
X117942731Y-67093628D02*
X117561779Y-67093628D01*
X118704636Y-67569819D02*
X118609398Y-67522200D01*
X118609398Y-67522200D02*
X118561779Y-67474580D01*
X118561779Y-67474580D02*
X118514160Y-67379342D01*
X118514160Y-67379342D02*
X118514160Y-67093628D01*
X118514160Y-67093628D02*
X118561779Y-66998390D01*
X118561779Y-66998390D02*
X118609398Y-66950771D01*
X118609398Y-66950771D02*
X118704636Y-66903152D01*
X118704636Y-66903152D02*
X118847493Y-66903152D01*
X118847493Y-66903152D02*
X118942731Y-66950771D01*
X118942731Y-66950771D02*
X118990350Y-66998390D01*
X118990350Y-66998390D02*
X119037969Y-67093628D01*
X119037969Y-67093628D02*
X119037969Y-67379342D01*
X119037969Y-67379342D02*
X118990350Y-67474580D01*
X118990350Y-67474580D02*
X118942731Y-67522200D01*
X118942731Y-67522200D02*
X118847493Y-67569819D01*
X118847493Y-67569819D02*
X118704636Y-67569819D01*
X119371303Y-66903152D02*
X119561779Y-67569819D01*
X119561779Y-67569819D02*
X119752255Y-67093628D01*
X119752255Y-67093628D02*
X119942731Y-67569819D01*
X119942731Y-67569819D02*
X120133207Y-66903152D01*
X120895112Y-67522200D02*
X120799874Y-67569819D01*
X120799874Y-67569819D02*
X120609398Y-67569819D01*
X120609398Y-67569819D02*
X120514160Y-67522200D01*
X120514160Y-67522200D02*
X120466541Y-67426961D01*
X120466541Y-67426961D02*
X120466541Y-67046009D01*
X120466541Y-67046009D02*
X120514160Y-66950771D01*
X120514160Y-66950771D02*
X120609398Y-66903152D01*
X120609398Y-66903152D02*
X120799874Y-66903152D01*
X120799874Y-66903152D02*
X120895112Y-66950771D01*
X120895112Y-66950771D02*
X120942731Y-67046009D01*
X120942731Y-67046009D02*
X120942731Y-67141247D01*
X120942731Y-67141247D02*
X120466541Y-67236485D01*
X121371303Y-67569819D02*
X121371303Y-66903152D01*
X121371303Y-67093628D02*
X121418922Y-66998390D01*
X121418922Y-66998390D02*
X121466541Y-66950771D01*
X121466541Y-66950771D02*
X121561779Y-66903152D01*
X121561779Y-66903152D02*
X121657017Y-66903152D01*
X134658333Y-75434580D02*
X134610714Y-75482200D01*
X134610714Y-75482200D02*
X134467857Y-75529819D01*
X134467857Y-75529819D02*
X134372619Y-75529819D01*
X134372619Y-75529819D02*
X134229762Y-75482200D01*
X134229762Y-75482200D02*
X134134524Y-75386961D01*
X134134524Y-75386961D02*
X134086905Y-75291723D01*
X134086905Y-75291723D02*
X134039286Y-75101247D01*
X134039286Y-75101247D02*
X134039286Y-74958390D01*
X134039286Y-74958390D02*
X134086905Y-74767914D01*
X134086905Y-74767914D02*
X134134524Y-74672676D01*
X134134524Y-74672676D02*
X134229762Y-74577438D01*
X134229762Y-74577438D02*
X134372619Y-74529819D01*
X134372619Y-74529819D02*
X134467857Y-74529819D01*
X134467857Y-74529819D02*
X134610714Y-74577438D01*
X134610714Y-74577438D02*
X134658333Y-74625057D01*
X135610714Y-75529819D02*
X135039286Y-75529819D01*
X135325000Y-75529819D02*
X135325000Y-74529819D01*
X135325000Y-74529819D02*
X135229762Y-74672676D01*
X135229762Y-74672676D02*
X135134524Y-74767914D01*
X135134524Y-74767914D02*
X135039286Y-74815533D01*
X128708333Y-77134580D02*
X128660714Y-77182200D01*
X128660714Y-77182200D02*
X128517857Y-77229819D01*
X128517857Y-77229819D02*
X128422619Y-77229819D01*
X128422619Y-77229819D02*
X128279762Y-77182200D01*
X128279762Y-77182200D02*
X128184524Y-77086961D01*
X128184524Y-77086961D02*
X128136905Y-76991723D01*
X128136905Y-76991723D02*
X128089286Y-76801247D01*
X128089286Y-76801247D02*
X128089286Y-76658390D01*
X128089286Y-76658390D02*
X128136905Y-76467914D01*
X128136905Y-76467914D02*
X128184524Y-76372676D01*
X128184524Y-76372676D02*
X128279762Y-76277438D01*
X128279762Y-76277438D02*
X128422619Y-76229819D01*
X128422619Y-76229819D02*
X128517857Y-76229819D01*
X128517857Y-76229819D02*
X128660714Y-76277438D01*
X128660714Y-76277438D02*
X128708333Y-76325057D01*
X129041667Y-76229819D02*
X129660714Y-76229819D01*
X129660714Y-76229819D02*
X129327381Y-76610771D01*
X129327381Y-76610771D02*
X129470238Y-76610771D01*
X129470238Y-76610771D02*
X129565476Y-76658390D01*
X129565476Y-76658390D02*
X129613095Y-76706009D01*
X129613095Y-76706009D02*
X129660714Y-76801247D01*
X129660714Y-76801247D02*
X129660714Y-77039342D01*
X129660714Y-77039342D02*
X129613095Y-77134580D01*
X129613095Y-77134580D02*
X129565476Y-77182200D01*
X129565476Y-77182200D02*
X129470238Y-77229819D01*
X129470238Y-77229819D02*
X129184524Y-77229819D01*
X129184524Y-77229819D02*
X129089286Y-77182200D01*
X129089286Y-77182200D02*
X129041667Y-77134580D01*
X135358333Y-70879819D02*
X135025000Y-70403628D01*
X134786905Y-70879819D02*
X134786905Y-69879819D01*
X134786905Y-69879819D02*
X135167857Y-69879819D01*
X135167857Y-69879819D02*
X135263095Y-69927438D01*
X135263095Y-69927438D02*
X135310714Y-69975057D01*
X135310714Y-69975057D02*
X135358333Y-70070295D01*
X135358333Y-70070295D02*
X135358333Y-70213152D01*
X135358333Y-70213152D02*
X135310714Y-70308390D01*
X135310714Y-70308390D02*
X135263095Y-70356009D01*
X135263095Y-70356009D02*
X135167857Y-70403628D01*
X135167857Y-70403628D02*
X134786905Y-70403628D01*
X135739286Y-69975057D02*
X135786905Y-69927438D01*
X135786905Y-69927438D02*
X135882143Y-69879819D01*
X135882143Y-69879819D02*
X136120238Y-69879819D01*
X136120238Y-69879819D02*
X136215476Y-69927438D01*
X136215476Y-69927438D02*
X136263095Y-69975057D01*
X136263095Y-69975057D02*
X136310714Y-70070295D01*
X136310714Y-70070295D02*
X136310714Y-70165533D01*
X136310714Y-70165533D02*
X136263095Y-70308390D01*
X136263095Y-70308390D02*
X135691667Y-70879819D01*
X135691667Y-70879819D02*
X136310714Y-70879819D01*
X127763095Y-72629819D02*
X127763095Y-73439342D01*
X127763095Y-73439342D02*
X127810714Y-73534580D01*
X127810714Y-73534580D02*
X127858333Y-73582200D01*
X127858333Y-73582200D02*
X127953571Y-73629819D01*
X127953571Y-73629819D02*
X128144047Y-73629819D01*
X128144047Y-73629819D02*
X128239285Y-73582200D01*
X128239285Y-73582200D02*
X128286904Y-73534580D01*
X128286904Y-73534580D02*
X128334523Y-73439342D01*
X128334523Y-73439342D02*
X128334523Y-72629819D01*
X129334523Y-73629819D02*
X128763095Y-73629819D01*
X129048809Y-73629819D02*
X129048809Y-72629819D01*
X129048809Y-72629819D02*
X128953571Y-72772676D01*
X128953571Y-72772676D02*
X128858333Y-72867914D01*
X128858333Y-72867914D02*
X128763095Y-72915533D01*
X136458333Y-72429819D02*
X136125000Y-71953628D01*
X135886905Y-72429819D02*
X135886905Y-71429819D01*
X135886905Y-71429819D02*
X136267857Y-71429819D01*
X136267857Y-71429819D02*
X136363095Y-71477438D01*
X136363095Y-71477438D02*
X136410714Y-71525057D01*
X136410714Y-71525057D02*
X136458333Y-71620295D01*
X136458333Y-71620295D02*
X136458333Y-71763152D01*
X136458333Y-71763152D02*
X136410714Y-71858390D01*
X136410714Y-71858390D02*
X136363095Y-71906009D01*
X136363095Y-71906009D02*
X136267857Y-71953628D01*
X136267857Y-71953628D02*
X135886905Y-71953628D01*
X137363095Y-71429819D02*
X136886905Y-71429819D01*
X136886905Y-71429819D02*
X136839286Y-71906009D01*
X136839286Y-71906009D02*
X136886905Y-71858390D01*
X136886905Y-71858390D02*
X136982143Y-71810771D01*
X136982143Y-71810771D02*
X137220238Y-71810771D01*
X137220238Y-71810771D02*
X137315476Y-71858390D01*
X137315476Y-71858390D02*
X137363095Y-71906009D01*
X137363095Y-71906009D02*
X137410714Y-72001247D01*
X137410714Y-72001247D02*
X137410714Y-72239342D01*
X137410714Y-72239342D02*
X137363095Y-72334580D01*
X137363095Y-72334580D02*
X137315476Y-72382200D01*
X137315476Y-72382200D02*
X137220238Y-72429819D01*
X137220238Y-72429819D02*
X136982143Y-72429819D01*
X136982143Y-72429819D02*
X136886905Y-72382200D01*
X136886905Y-72382200D02*
X136839286Y-72334580D01*
X126108333Y-75284580D02*
X126060714Y-75332200D01*
X126060714Y-75332200D02*
X125917857Y-75379819D01*
X125917857Y-75379819D02*
X125822619Y-75379819D01*
X125822619Y-75379819D02*
X125679762Y-75332200D01*
X125679762Y-75332200D02*
X125584524Y-75236961D01*
X125584524Y-75236961D02*
X125536905Y-75141723D01*
X125536905Y-75141723D02*
X125489286Y-74951247D01*
X125489286Y-74951247D02*
X125489286Y-74808390D01*
X125489286Y-74808390D02*
X125536905Y-74617914D01*
X125536905Y-74617914D02*
X125584524Y-74522676D01*
X125584524Y-74522676D02*
X125679762Y-74427438D01*
X125679762Y-74427438D02*
X125822619Y-74379819D01*
X125822619Y-74379819D02*
X125917857Y-74379819D01*
X125917857Y-74379819D02*
X126060714Y-74427438D01*
X126060714Y-74427438D02*
X126108333Y-74475057D01*
X126489286Y-74475057D02*
X126536905Y-74427438D01*
X126536905Y-74427438D02*
X126632143Y-74379819D01*
X126632143Y-74379819D02*
X126870238Y-74379819D01*
X126870238Y-74379819D02*
X126965476Y-74427438D01*
X126965476Y-74427438D02*
X127013095Y-74475057D01*
X127013095Y-74475057D02*
X127060714Y-74570295D01*
X127060714Y-74570295D02*
X127060714Y-74665533D01*
X127060714Y-74665533D02*
X127013095Y-74808390D01*
X127013095Y-74808390D02*
X126441667Y-75379819D01*
X126441667Y-75379819D02*
X127060714Y-75379819D01*
X136458333Y-73979819D02*
X136125000Y-73503628D01*
X135886905Y-73979819D02*
X135886905Y-72979819D01*
X135886905Y-72979819D02*
X136267857Y-72979819D01*
X136267857Y-72979819D02*
X136363095Y-73027438D01*
X136363095Y-73027438D02*
X136410714Y-73075057D01*
X136410714Y-73075057D02*
X136458333Y-73170295D01*
X136458333Y-73170295D02*
X136458333Y-73313152D01*
X136458333Y-73313152D02*
X136410714Y-73408390D01*
X136410714Y-73408390D02*
X136363095Y-73456009D01*
X136363095Y-73456009D02*
X136267857Y-73503628D01*
X136267857Y-73503628D02*
X135886905Y-73503628D01*
X137315476Y-73313152D02*
X137315476Y-73979819D01*
X137077381Y-72932200D02*
X136839286Y-73646485D01*
X136839286Y-73646485D02*
X137458333Y-73646485D01*
X126608333Y-70879819D02*
X126275000Y-70403628D01*
X126036905Y-70879819D02*
X126036905Y-69879819D01*
X126036905Y-69879819D02*
X126417857Y-69879819D01*
X126417857Y-69879819D02*
X126513095Y-69927438D01*
X126513095Y-69927438D02*
X126560714Y-69975057D01*
X126560714Y-69975057D02*
X126608333Y-70070295D01*
X126608333Y-70070295D02*
X126608333Y-70213152D01*
X126608333Y-70213152D02*
X126560714Y-70308390D01*
X126560714Y-70308390D02*
X126513095Y-70356009D01*
X126513095Y-70356009D02*
X126417857Y-70403628D01*
X126417857Y-70403628D02*
X126036905Y-70403628D01*
X126941667Y-69879819D02*
X127560714Y-69879819D01*
X127560714Y-69879819D02*
X127227381Y-70260771D01*
X127227381Y-70260771D02*
X127370238Y-70260771D01*
X127370238Y-70260771D02*
X127465476Y-70308390D01*
X127465476Y-70308390D02*
X127513095Y-70356009D01*
X127513095Y-70356009D02*
X127560714Y-70451247D01*
X127560714Y-70451247D02*
X127560714Y-70689342D01*
X127560714Y-70689342D02*
X127513095Y-70784580D01*
X127513095Y-70784580D02*
X127465476Y-70832200D01*
X127465476Y-70832200D02*
X127370238Y-70879819D01*
X127370238Y-70879819D02*
X127084524Y-70879819D01*
X127084524Y-70879819D02*
X126989286Y-70832200D01*
X126989286Y-70832200D02*
X126941667Y-70784580D01*
X118449405Y-70554819D02*
X118449405Y-69554819D01*
X118449405Y-69554819D02*
X118687500Y-69554819D01*
X118687500Y-69554819D02*
X118830357Y-69602438D01*
X118830357Y-69602438D02*
X118925595Y-69697676D01*
X118925595Y-69697676D02*
X118973214Y-69792914D01*
X118973214Y-69792914D02*
X119020833Y-69983390D01*
X119020833Y-69983390D02*
X119020833Y-70126247D01*
X119020833Y-70126247D02*
X118973214Y-70316723D01*
X118973214Y-70316723D02*
X118925595Y-70411961D01*
X118925595Y-70411961D02*
X118830357Y-70507200D01*
X118830357Y-70507200D02*
X118687500Y-70554819D01*
X118687500Y-70554819D02*
X118449405Y-70554819D01*
X119973214Y-70554819D02*
X119401786Y-70554819D01*
X119687500Y-70554819D02*
X119687500Y-69554819D01*
X119687500Y-69554819D02*
X119592262Y-69697676D01*
X119592262Y-69697676D02*
X119497024Y-69792914D01*
X119497024Y-69792914D02*
X119401786Y-69840533D01*
X123020833Y-70454819D02*
X122687500Y-69978628D01*
X122449405Y-70454819D02*
X122449405Y-69454819D01*
X122449405Y-69454819D02*
X122830357Y-69454819D01*
X122830357Y-69454819D02*
X122925595Y-69502438D01*
X122925595Y-69502438D02*
X122973214Y-69550057D01*
X122973214Y-69550057D02*
X123020833Y-69645295D01*
X123020833Y-69645295D02*
X123020833Y-69788152D01*
X123020833Y-69788152D02*
X122973214Y-69883390D01*
X122973214Y-69883390D02*
X122925595Y-69931009D01*
X122925595Y-69931009D02*
X122830357Y-69978628D01*
X122830357Y-69978628D02*
X122449405Y-69978628D01*
X123973214Y-70454819D02*
X123401786Y-70454819D01*
X123687500Y-70454819D02*
X123687500Y-69454819D01*
X123687500Y-69454819D02*
X123592262Y-69597676D01*
X123592262Y-69597676D02*
X123497024Y-69692914D01*
X123497024Y-69692914D02*
X123401786Y-69740533D01*
D13*
%TO.C,G\u002A\u002A\u002A*%
G36*
X132309960Y-55904574D02*
G01*
X132319355Y-55914610D01*
X132335489Y-55920140D01*
X132351727Y-55923497D01*
X132372734Y-55928031D01*
X132389238Y-55931700D01*
X132413538Y-55935856D01*
X132440709Y-55938565D01*
X132457270Y-55939170D01*
X132480102Y-55940163D01*
X132495879Y-55943609D01*
X132505900Y-55948851D01*
X132523214Y-55956194D01*
X132550348Y-55960817D01*
X132558161Y-55961511D01*
X132582702Y-55964475D01*
X132608396Y-55969274D01*
X132627267Y-55974167D01*
X132649813Y-55981180D01*
X132673851Y-55988473D01*
X132686134Y-55992113D01*
X132704725Y-55999159D01*
X132721372Y-56008148D01*
X132728310Y-56013400D01*
X132737212Y-56023015D01*
X132738976Y-56030185D01*
X132736287Y-56036143D01*
X132732839Y-56046839D01*
X132735067Y-56061442D01*
X132735868Y-56064158D01*
X132738878Y-56077834D01*
X132736798Y-56087348D01*
X132732286Y-56093864D01*
X132725904Y-56099872D01*
X132716927Y-56103650D01*
X132702731Y-56105913D01*
X132683036Y-56107258D01*
X132657916Y-56107592D01*
X132631363Y-56105869D01*
X132601200Y-56101809D01*
X132565250Y-56095129D01*
X132530007Y-56087519D01*
X132494161Y-56079746D01*
X132460358Y-56072984D01*
X132430450Y-56067562D01*
X132406287Y-56063812D01*
X132389722Y-56062063D01*
X132386795Y-56061976D01*
X132374264Y-56060998D01*
X132355594Y-56058419D01*
X132334656Y-56054780D01*
X132333047Y-56054469D01*
X132311465Y-56050369D01*
X132284227Y-56045358D01*
X132253318Y-56039785D01*
X132220724Y-56033997D01*
X132188433Y-56028343D01*
X132158431Y-56023170D01*
X132132702Y-56018827D01*
X132113235Y-56015661D01*
X132102579Y-56014089D01*
X132059754Y-56007768D01*
X132023743Y-56000521D01*
X131996003Y-55992658D01*
X131988544Y-55989829D01*
X131971379Y-55983782D01*
X131958033Y-55982483D01*
X131945033Y-55984966D01*
X131928543Y-55988557D01*
X131913701Y-55990265D01*
X131912467Y-55990287D01*
X131898389Y-55993546D01*
X131887056Y-55999952D01*
X131879056Y-56008158D01*
X131878610Y-56016329D01*
X131881036Y-56022494D01*
X131891956Y-56035066D01*
X131912144Y-56044950D01*
X131941789Y-56052202D01*
X131981081Y-56056877D01*
X132004112Y-56058252D01*
X132033347Y-56059888D01*
X132054652Y-56062049D01*
X132070333Y-56065111D01*
X132082698Y-56069449D01*
X132087690Y-56071863D01*
X132105920Y-56079146D01*
X132124184Y-56080458D01*
X132132408Y-56079649D01*
X132144230Y-56079458D01*
X132163086Y-56080612D01*
X132186668Y-56082819D01*
X132212664Y-56085785D01*
X132238765Y-56089218D01*
X132262659Y-56092825D01*
X132282038Y-56096312D01*
X132294590Y-56099386D01*
X132297442Y-56100585D01*
X132306729Y-56103727D01*
X132323682Y-56107230D01*
X132345755Y-56110751D01*
X132370401Y-56113942D01*
X132395071Y-56116460D01*
X132417220Y-56117959D01*
X132427629Y-56118225D01*
X132457643Y-56119744D01*
X132478390Y-56124145D01*
X132483937Y-56126575D01*
X132500127Y-56133293D01*
X132523311Y-56140490D01*
X132550321Y-56147423D01*
X132577986Y-56153353D01*
X132603137Y-56157537D01*
X132622603Y-56159233D01*
X132623570Y-56159239D01*
X132654326Y-56163224D01*
X132681015Y-56172037D01*
X132704984Y-56180316D01*
X132729170Y-56184176D01*
X132748720Y-56184834D01*
X132770185Y-56185548D01*
X132790131Y-56187416D01*
X132803802Y-56189934D01*
X132816297Y-56192347D01*
X132835998Y-56194837D01*
X132859880Y-56197062D01*
X132877992Y-56198309D01*
X132901691Y-56200010D01*
X132922098Y-56202074D01*
X132936730Y-56204214D01*
X132942599Y-56205780D01*
X132951522Y-56208878D01*
X132967176Y-56213032D01*
X132986241Y-56217365D01*
X132987019Y-56217528D01*
X133007198Y-56221331D01*
X133021551Y-56222510D01*
X133034164Y-56221018D01*
X133049122Y-56216805D01*
X133049191Y-56216782D01*
X133064431Y-56212189D01*
X133073689Y-56211178D01*
X133080733Y-56214203D01*
X133089232Y-56221628D01*
X133103111Y-56233236D01*
X133116784Y-56240777D01*
X133133381Y-56245365D01*
X133156028Y-56248114D01*
X133165558Y-56248821D01*
X133189389Y-56250968D01*
X133213814Y-56254429D01*
X133241452Y-56259675D01*
X133274922Y-56267174D01*
X133295283Y-56272067D01*
X133323250Y-56278697D01*
X133344147Y-56283048D01*
X133360769Y-56285577D01*
X133375912Y-56286744D01*
X133386481Y-56286989D01*
X133410018Y-56285375D01*
X133425906Y-56280334D01*
X133433149Y-56272234D01*
X133433494Y-56269621D01*
X133428448Y-56260318D01*
X133413573Y-56251712D01*
X133389264Y-56243949D01*
X133355913Y-56237177D01*
X133339821Y-56234735D01*
X133303815Y-56228765D01*
X133277744Y-56222301D01*
X133262433Y-56215809D01*
X133249756Y-56209768D01*
X133234210Y-56206487D01*
X133212490Y-56205339D01*
X133207069Y-56205310D01*
X133185066Y-56204692D01*
X133170298Y-56202446D01*
X133159814Y-56197984D01*
X133155676Y-56195072D01*
X133139761Y-56187300D01*
X133124108Y-56184834D01*
X133110411Y-56183270D01*
X133103187Y-56177421D01*
X133101273Y-56173316D01*
X133098922Y-56158774D01*
X133105170Y-56149324D01*
X133112756Y-56145782D01*
X133120916Y-56144774D01*
X133137696Y-56143939D01*
X133161480Y-56143314D01*
X133190650Y-56142933D01*
X133223589Y-56142834D01*
X133241080Y-56142903D01*
X133279331Y-56143071D01*
X133308844Y-56142974D01*
X133331117Y-56142512D01*
X133347647Y-56141582D01*
X133359934Y-56140087D01*
X133369476Y-56137924D01*
X133377770Y-56134994D01*
X133381221Y-56133520D01*
X133401170Y-56126356D01*
X133420236Y-56123899D01*
X133442061Y-56126030D01*
X133463468Y-56130833D01*
X133478971Y-56134009D01*
X133501991Y-56137703D01*
X133529851Y-56141531D01*
X133559871Y-56145108D01*
X133571704Y-56146364D01*
X133600377Y-56149501D01*
X133626539Y-56152745D01*
X133647986Y-56155795D01*
X133662512Y-56158350D01*
X133666404Y-56159319D01*
X133677740Y-56162212D01*
X133697158Y-56166449D01*
X133722648Y-56171647D01*
X133752201Y-56177425D01*
X133783807Y-56183398D01*
X133815458Y-56189185D01*
X133845144Y-56194401D01*
X133870855Y-56198665D01*
X133881398Y-56200291D01*
X133902782Y-56204112D01*
X133921873Y-56208643D01*
X133935042Y-56213000D01*
X133936426Y-56213657D01*
X133950503Y-56220929D01*
X133950504Y-56278385D01*
X133950505Y-56335842D01*
X133905713Y-56334124D01*
X133877965Y-56332005D01*
X133856501Y-56328201D01*
X133845566Y-56324311D01*
X133830729Y-56319488D01*
X133807465Y-56316455D01*
X133779020Y-56315162D01*
X133745807Y-56313343D01*
X133719172Y-56309534D01*
X133705153Y-56305681D01*
X133687646Y-56300689D01*
X133671054Y-56298315D01*
X133666568Y-56298325D01*
X133653462Y-56298010D01*
X133644869Y-56295818D01*
X133631210Y-56289772D01*
X133610387Y-56283301D01*
X133585414Y-56277084D01*
X133559305Y-56271798D01*
X133535076Y-56268123D01*
X133515739Y-56266737D01*
X133515652Y-56266736D01*
X133490783Y-56267852D01*
X133471071Y-56270933D01*
X133458233Y-56275581D01*
X133453970Y-56281018D01*
X133458564Y-56286972D01*
X133470395Y-56293116D01*
X133486537Y-56298418D01*
X133504062Y-56301841D01*
X133514926Y-56302569D01*
X133535536Y-56304311D01*
X133556402Y-56308651D01*
X133561466Y-56310247D01*
X133578854Y-56314469D01*
X133600737Y-56317257D01*
X133615936Y-56317926D01*
X133639570Y-56319204D01*
X133664661Y-56322481D01*
X133677999Y-56325194D01*
X133700670Y-56330560D01*
X133724971Y-56335946D01*
X133735509Y-56338143D01*
X133755917Y-56342401D01*
X133775983Y-56346806D01*
X133784139Y-56348689D01*
X133798275Y-56351339D01*
X133819141Y-56354396D01*
X133843268Y-56357374D01*
X133855803Y-56358716D01*
X133880453Y-56361303D01*
X133903825Y-56363934D01*
X133922360Y-56366201D01*
X133928748Y-56367076D01*
X133950503Y-56370277D01*
X133950503Y-56436811D01*
X133950503Y-56503345D01*
X133931307Y-56499695D01*
X133914714Y-56496764D01*
X133894179Y-56493429D01*
X133883957Y-56491869D01*
X133862254Y-56488000D01*
X133837884Y-56482723D01*
X133825294Y-56479593D01*
X133805516Y-56475129D01*
X133786800Y-56472187D01*
X133777005Y-56471493D01*
X133762011Y-56469791D01*
X133742788Y-56465430D01*
X133730731Y-56461763D01*
X133712511Y-56456919D01*
X133689039Y-56453298D01*
X133658540Y-56450682D01*
X133627952Y-56449169D01*
X133592860Y-56447257D01*
X133563547Y-56444531D01*
X133541671Y-56441173D01*
X133531849Y-56438606D01*
X133515211Y-56434617D01*
X133493344Y-56431810D01*
X133473041Y-56430838D01*
X133452391Y-56429865D01*
X133429669Y-56427338D01*
X133407626Y-56423742D01*
X133389014Y-56419560D01*
X133376583Y-56415276D01*
X133373668Y-56413373D01*
X133372263Y-56407081D01*
X133371486Y-56393481D01*
X133371502Y-56375492D01*
X133371511Y-56375129D01*
X133370999Y-56351482D01*
X133368029Y-56337695D01*
X133365834Y-56334676D01*
X133353760Y-56329373D01*
X133332468Y-56324953D01*
X133302952Y-56321521D01*
X133266201Y-56319178D01*
X133223208Y-56318028D01*
X133204768Y-56317926D01*
X133171325Y-56318278D01*
X133142321Y-56319273D01*
X133119465Y-56320815D01*
X133104468Y-56322809D01*
X133101130Y-56323684D01*
X133084770Y-56326868D01*
X133072125Y-56323754D01*
X133062592Y-56321498D01*
X133045078Y-56319244D01*
X133021838Y-56317217D01*
X132995126Y-56315639D01*
X132986782Y-56315287D01*
X132956391Y-56313840D01*
X132925809Y-56311886D01*
X132898379Y-56309669D01*
X132877442Y-56307432D01*
X132875533Y-56307175D01*
X132854855Y-56305250D01*
X132827630Y-56304041D01*
X132797530Y-56303656D01*
X132770596Y-56304116D01*
X132730322Y-56304660D01*
X132698464Y-56303161D01*
X132673390Y-56299535D01*
X132671759Y-56299180D01*
X132653349Y-56295639D01*
X132628297Y-56291590D01*
X132600146Y-56287575D01*
X132576944Y-56284655D01*
X132550455Y-56281149D01*
X132525634Y-56277138D01*
X132505404Y-56273138D01*
X132493400Y-56269925D01*
X132473097Y-56264139D01*
X132447830Y-56259574D01*
X132416185Y-56256064D01*
X132376745Y-56253438D01*
X132342995Y-56252011D01*
X132325931Y-56248146D01*
X132305374Y-56238526D01*
X132298225Y-56234190D01*
X132286975Y-56227191D01*
X132277219Y-56222314D01*
X132266664Y-56219071D01*
X132253015Y-56216975D01*
X132233979Y-56215540D01*
X132207261Y-56214279D01*
X132203698Y-56214128D01*
X132172603Y-56212217D01*
X132144245Y-56209369D01*
X132121349Y-56205903D01*
X132109362Y-56203079D01*
X132092484Y-56199012D01*
X132069201Y-56194888D01*
X132043322Y-56191339D01*
X132030019Y-56189923D01*
X132003630Y-56187428D01*
X131977163Y-56184912D01*
X131954740Y-56182768D01*
X131946452Y-56181969D01*
X131929204Y-56179533D01*
X131905285Y-56175132D01*
X131877927Y-56169404D01*
X131851753Y-56163326D01*
X131823462Y-56157032D01*
X131794858Y-56151748D01*
X131769433Y-56148061D01*
X131751934Y-56146586D01*
X131729542Y-56145167D01*
X131707489Y-56142561D01*
X131693067Y-56139880D01*
X131677851Y-56137153D01*
X131655959Y-56134470D01*
X131630945Y-56132230D01*
X131617029Y-56131325D01*
X131592040Y-56129530D01*
X131568419Y-56127105D01*
X131549618Y-56124436D01*
X131542418Y-56122964D01*
X131528872Y-56121299D01*
X131509194Y-56120965D01*
X131486285Y-56121765D01*
X131463047Y-56123503D01*
X131442382Y-56125982D01*
X131427192Y-56129006D01*
X131421679Y-56131139D01*
X131417714Y-56138183D01*
X131416646Y-56146161D01*
X131421611Y-56157747D01*
X131436485Y-56166865D01*
X131461241Y-56173502D01*
X131485751Y-56176794D01*
X131505538Y-56179571D01*
X131522536Y-56183492D01*
X131532772Y-56187560D01*
X131543314Y-56191955D01*
X131560414Y-56196570D01*
X131580458Y-56200438D01*
X131581402Y-56200583D01*
X131607197Y-56205571D01*
X131628691Y-56211754D01*
X131644103Y-56218468D01*
X131651651Y-56225050D01*
X131652115Y-56226928D01*
X131647402Y-56229555D01*
X131634512Y-56230465D01*
X131615323Y-56229878D01*
X131591711Y-56228015D01*
X131565553Y-56225095D01*
X131538726Y-56221340D01*
X131513107Y-56216968D01*
X131490572Y-56212201D01*
X131472998Y-56207259D01*
X131467835Y-56205306D01*
X131455569Y-56201179D01*
X131438447Y-56197332D01*
X131415428Y-56193621D01*
X131385469Y-56189904D01*
X131347528Y-56186037D01*
X131300563Y-56181876D01*
X131292432Y-56181198D01*
X131255752Y-56181019D01*
X131213723Y-56185519D01*
X131169760Y-56194080D01*
X131127276Y-56206084D01*
X131101279Y-56215771D01*
X131039791Y-56237934D01*
X130970443Y-56256188D01*
X130944283Y-56261683D01*
X130921425Y-56268654D01*
X130906994Y-56278517D01*
X130901606Y-56290648D01*
X130904468Y-56302031D01*
X130913486Y-56310044D01*
X130931178Y-56318212D01*
X130955999Y-56326080D01*
X130986404Y-56333194D01*
X131020848Y-56339098D01*
X131037847Y-56341309D01*
X131067040Y-56344969D01*
X131098099Y-56349279D01*
X131129216Y-56353942D01*
X131158582Y-56358661D01*
X131184389Y-56363138D01*
X131204829Y-56367076D01*
X131218094Y-56370177D01*
X131222000Y-56371595D01*
X131233612Y-56373527D01*
X131246542Y-56368855D01*
X131256384Y-56359466D01*
X131258013Y-56356177D01*
X131267357Y-56343142D01*
X131282831Y-56331678D01*
X131300380Y-56324374D01*
X131309889Y-56323064D01*
X131322065Y-56324488D01*
X131338478Y-56328203D01*
X131356352Y-56333328D01*
X131372910Y-56338984D01*
X131385376Y-56344293D01*
X131390973Y-56348375D01*
X131391051Y-56348758D01*
X131395440Y-56354028D01*
X131406776Y-56361246D01*
X131422311Y-56369068D01*
X131439297Y-56376149D01*
X131454987Y-56381146D01*
X131459112Y-56382054D01*
X131473976Y-56386718D01*
X131492502Y-56395033D01*
X131505475Y-56402151D01*
X131525165Y-56413515D01*
X131545825Y-56424694D01*
X131556711Y-56430200D01*
X131570170Y-56437436D01*
X131578773Y-56443447D01*
X131580451Y-56445755D01*
X131584721Y-56449861D01*
X131595861Y-56456560D01*
X131609884Y-56463637D01*
X131628544Y-56473538D01*
X131645758Y-56484558D01*
X131654675Y-56491587D01*
X131670093Y-56504181D01*
X131686836Y-56515715D01*
X131688031Y-56516437D01*
X131698529Y-56524264D01*
X131713941Y-56537734D01*
X131732224Y-56554982D01*
X131751331Y-56574141D01*
X131751995Y-56574828D01*
X131773821Y-56597320D01*
X131797353Y-56621335D01*
X131819464Y-56643692D01*
X131834114Y-56658333D01*
X131851674Y-56676356D01*
X131868154Y-56694346D01*
X131880978Y-56709449D01*
X131884939Y-56714641D01*
X131897158Y-56730156D01*
X131912569Y-56747724D01*
X131922018Y-56757640D01*
X131935659Y-56772625D01*
X131947259Y-56787567D01*
X131952547Y-56796031D01*
X131961441Y-56810521D01*
X131972995Y-56825975D01*
X131975285Y-56828678D01*
X131987497Y-56844696D01*
X131998399Y-56862113D01*
X131999671Y-56864511D01*
X132009562Y-56880351D01*
X132021082Y-56894358D01*
X132022738Y-56895974D01*
X132031453Y-56906457D01*
X132035332Y-56919102D01*
X132036033Y-56932961D01*
X132037289Y-56948032D01*
X132041679Y-56964068D01*
X132050141Y-56983852D01*
X132059203Y-57001832D01*
X132072274Y-57025377D01*
X132086841Y-57049378D01*
X132100350Y-57069688D01*
X132104163Y-57074902D01*
X132117501Y-57093656D01*
X132130072Y-57113225D01*
X132137732Y-57126712D01*
X132148697Y-57144614D01*
X132162792Y-57163217D01*
X132169022Y-57170223D01*
X132180906Y-57184145D01*
X132186208Y-57195107D01*
X132186540Y-57206055D01*
X132185680Y-57216961D01*
X132184782Y-57235573D01*
X132183947Y-57259359D01*
X132183277Y-57285788D01*
X132183234Y-57287958D01*
X132182771Y-57315226D01*
X132182896Y-57334676D01*
X132183988Y-57348727D01*
X132186428Y-57359797D01*
X132190594Y-57370303D01*
X132196867Y-57382663D01*
X132198621Y-57385973D01*
X132208003Y-57402163D01*
X132216604Y-57414461D01*
X132222575Y-57420226D01*
X132222612Y-57420241D01*
X132231579Y-57420193D01*
X132245437Y-57416748D01*
X132251120Y-57414706D01*
X132265072Y-57409834D01*
X132274646Y-57409275D01*
X132284800Y-57413145D01*
X132289465Y-57415597D01*
X132303873Y-57427209D01*
X132312606Y-57440852D01*
X132318022Y-57454688D01*
X132325471Y-57472982D01*
X132330501Y-57485036D01*
X132357271Y-57559722D01*
X132377508Y-57641199D01*
X132379208Y-57649941D01*
X132381393Y-57669985D01*
X132378666Y-57686961D01*
X132375721Y-57695214D01*
X132367381Y-57711330D01*
X132356563Y-57720684D01*
X132340527Y-57724886D01*
X132323921Y-57725624D01*
X132309553Y-57724746D01*
X132298152Y-57721132D01*
X132288088Y-57713316D01*
X132277734Y-57699830D01*
X132265462Y-57679205D01*
X132258638Y-57666757D01*
X132246251Y-57644865D01*
X132236303Y-57630673D01*
X132226985Y-57622563D01*
X132216488Y-57618921D01*
X132204157Y-57618127D01*
X132184515Y-57622553D01*
X132166215Y-57634120D01*
X132152364Y-57650259D01*
X132146376Y-57665868D01*
X132145555Y-57675490D01*
X132144655Y-57693693D01*
X132143732Y-57718820D01*
X132142842Y-57749216D01*
X132142043Y-57783225D01*
X132141625Y-57804967D01*
X132141000Y-57857800D01*
X132141327Y-57901414D01*
X132142855Y-57936806D01*
X132145837Y-57964971D01*
X132150524Y-57986905D01*
X132157167Y-58003603D01*
X132166017Y-58016061D01*
X132177327Y-58025274D01*
X132191346Y-58032239D01*
X132199769Y-58035295D01*
X132221162Y-58041073D01*
X132247846Y-58046378D01*
X132276512Y-58050746D01*
X132303850Y-58053715D01*
X132326550Y-58054822D01*
X132336438Y-58054413D01*
X132367349Y-58056349D01*
X132400100Y-58068219D01*
X132417392Y-58078053D01*
X132429569Y-58084553D01*
X132444083Y-58089410D01*
X132463464Y-58093253D01*
X132490244Y-58096713D01*
X132494057Y-58097130D01*
X132518656Y-58099885D01*
X132535389Y-58102364D01*
X132546568Y-58105383D01*
X132554508Y-58109759D01*
X132561522Y-58116305D01*
X132567458Y-58123006D01*
X132577599Y-58136960D01*
X132589962Y-58157351D01*
X132603326Y-58181744D01*
X132616467Y-58207705D01*
X132628165Y-58232797D01*
X132637195Y-58254585D01*
X132642337Y-58270635D01*
X132642825Y-58273156D01*
X132646018Y-58289223D01*
X132650808Y-58308754D01*
X132653052Y-58316857D01*
X132670534Y-58387797D01*
X132684575Y-58467508D01*
X132695112Y-58555098D01*
X132702083Y-58649675D01*
X132705426Y-58750346D01*
X132705080Y-58856219D01*
X132700984Y-58966402D01*
X132699642Y-58989993D01*
X132697583Y-59027164D01*
X132696007Y-59061787D01*
X132694959Y-59092298D01*
X132694483Y-59117133D01*
X132694622Y-59134729D01*
X132695313Y-59143093D01*
X132701727Y-59158127D01*
X132711809Y-59169985D01*
X132711942Y-59170086D01*
X132714158Y-59171520D01*
X132717120Y-59172802D01*
X132721381Y-59173942D01*
X132727490Y-59174946D01*
X132735998Y-59175824D01*
X132747457Y-59176583D01*
X132762417Y-59177232D01*
X132781429Y-59177780D01*
X132805045Y-59178233D01*
X132833813Y-59178601D01*
X132868287Y-59178892D01*
X132909016Y-59179114D01*
X132956551Y-59179276D01*
X133011444Y-59179385D01*
X133074244Y-59179450D01*
X133145504Y-59179478D01*
X133225773Y-59179479D01*
X133315603Y-59179461D01*
X133337614Y-59179455D01*
X133950503Y-59179281D01*
X133950503Y-59826878D01*
X133950487Y-59907402D01*
X133950439Y-59985042D01*
X133950363Y-60059188D01*
X133950259Y-60129231D01*
X133950129Y-60194562D01*
X133949977Y-60254571D01*
X133949803Y-60308650D01*
X133949609Y-60356188D01*
X133949399Y-60396577D01*
X133949173Y-60429207D01*
X133948933Y-60453469D01*
X133948682Y-60468753D01*
X133948422Y-60474451D01*
X133948403Y-60474475D01*
X133943078Y-60472448D01*
X133931059Y-60467117D01*
X133914880Y-60459609D01*
X133913851Y-60459123D01*
X133895524Y-60451308D01*
X133879103Y-60445778D01*
X133868490Y-60443766D01*
X133857155Y-60442373D01*
X133839780Y-60438724D01*
X133820102Y-60433604D01*
X133819860Y-60433534D01*
X133792935Y-60427023D01*
X133757313Y-60420451D01*
X133712600Y-60413760D01*
X133658398Y-60406890D01*
X133602418Y-60400635D01*
X133576711Y-60397587D01*
X133553717Y-60394277D01*
X133535909Y-60391101D01*
X133525763Y-60388451D01*
X133525634Y-60388397D01*
X133512579Y-60384362D01*
X133495167Y-60380762D01*
X133488882Y-60379825D01*
X133471590Y-60375930D01*
X133456788Y-60369888D01*
X133453050Y-60367482D01*
X133439352Y-60357874D01*
X133425743Y-60351276D01*
X133409117Y-60346631D01*
X133386370Y-60342883D01*
X133377249Y-60341695D01*
X133349023Y-60336587D01*
X133315381Y-60328052D01*
X133279044Y-60317018D01*
X133242733Y-60304409D01*
X133209168Y-60291154D01*
X133181070Y-60278178D01*
X133166267Y-60269855D01*
X133151200Y-60258904D01*
X133130690Y-60241997D01*
X133106314Y-60220627D01*
X133079649Y-60196289D01*
X133052271Y-60170478D01*
X133025757Y-60144690D01*
X133001685Y-60120418D01*
X132981630Y-60099158D01*
X132967171Y-60082405D01*
X132963636Y-60077760D01*
X132949428Y-60059023D01*
X132933579Y-60039565D01*
X132925598Y-60030379D01*
X132914064Y-60015597D01*
X132905644Y-60001181D01*
X132903061Y-59994006D01*
X132897921Y-59981657D01*
X132888153Y-59966740D01*
X132882166Y-59959485D01*
X132868593Y-59943263D01*
X132855694Y-59926011D01*
X132851770Y-59920180D01*
X132841656Y-59905665D01*
X132831754Y-59893361D01*
X132829438Y-59890895D01*
X132821905Y-59881108D01*
X132812341Y-59865686D01*
X132804384Y-59850991D01*
X132792965Y-59830387D01*
X132779735Y-59809367D01*
X132771529Y-59797791D01*
X132760902Y-59782623D01*
X132752751Y-59768751D01*
X132749951Y-59762366D01*
X132744060Y-59747849D01*
X132733684Y-59726540D01*
X132719807Y-59700299D01*
X132703415Y-59670987D01*
X132685493Y-59640463D01*
X132684744Y-59639220D01*
X132670384Y-59616560D01*
X132658750Y-59601273D01*
X132648213Y-59591467D01*
X132638955Y-59586051D01*
X132626139Y-59580768D01*
X132617773Y-59580197D01*
X132609247Y-59584288D01*
X132607043Y-59585710D01*
X132598025Y-59593490D01*
X132592569Y-59603826D01*
X132590339Y-59618655D01*
X132591001Y-59639915D01*
X132593515Y-59663916D01*
X132597355Y-59689402D01*
X132601724Y-59706143D01*
X132607039Y-59715630D01*
X132608302Y-59716829D01*
X132618947Y-59728314D01*
X132629905Y-59744091D01*
X132639118Y-59760689D01*
X132644533Y-59774638D01*
X132645183Y-59779111D01*
X132648893Y-59789467D01*
X132658379Y-59802085D01*
X132663099Y-59806785D01*
X132673328Y-59817070D01*
X132678700Y-59826464D01*
X132680770Y-59838983D01*
X132681093Y-59853219D01*
X132681577Y-59871834D01*
X132683897Y-59884528D01*
X132689536Y-59895611D01*
X132699980Y-59909394D01*
X132700770Y-59910374D01*
X132712004Y-59924406D01*
X132721960Y-59936990D01*
X132729700Y-59945098D01*
X132734769Y-59945042D01*
X132736507Y-59942960D01*
X132740853Y-59939111D01*
X132744145Y-59944284D01*
X132744957Y-59956376D01*
X132740489Y-59968531D01*
X132732702Y-59976661D01*
X132728005Y-59977942D01*
X132717491Y-59981540D01*
X132709124Y-59988229D01*
X132703493Y-60000312D01*
X132707386Y-60012633D01*
X132720132Y-60024491D01*
X132741061Y-60035188D01*
X132760358Y-60041649D01*
X132764734Y-60043588D01*
X132770792Y-60047793D01*
X132779373Y-60055056D01*
X132791317Y-60066170D01*
X132807464Y-60081929D01*
X132828656Y-60103126D01*
X132855734Y-60130552D01*
X132869885Y-60144957D01*
X132887136Y-60164510D01*
X132902890Y-60185803D01*
X132914095Y-60204695D01*
X132914422Y-60205377D01*
X132923480Y-60222546D01*
X132931508Y-60232261D01*
X132940562Y-60236833D01*
X132942915Y-60237381D01*
X132954408Y-60240884D01*
X132961780Y-60247520D01*
X132967491Y-60260102D01*
X132970233Y-60268652D01*
X132972579Y-60274716D01*
X132976552Y-60281767D01*
X132982892Y-60290665D01*
X132992341Y-60302269D01*
X133005638Y-60317440D01*
X133023524Y-60337036D01*
X133046739Y-60361918D01*
X133076024Y-60392944D01*
X133090091Y-60407782D01*
X133108776Y-60427840D01*
X133125626Y-60446603D01*
X133138971Y-60462164D01*
X133147143Y-60472620D01*
X133147917Y-60473783D01*
X133159068Y-60485999D01*
X133172495Y-60494206D01*
X133172668Y-60494267D01*
X133183397Y-60501364D01*
X133188221Y-60511161D01*
X133185949Y-60520307D01*
X133182891Y-60522967D01*
X133180102Y-60529626D01*
X133180879Y-60533507D01*
X133179692Y-60539338D01*
X133173345Y-60541128D01*
X133166392Y-60538070D01*
X133165008Y-60536317D01*
X133158885Y-60534861D01*
X133148305Y-60538647D01*
X133136359Y-60546000D01*
X133126139Y-60555244D01*
X133123365Y-60558883D01*
X133112494Y-60568473D01*
X133098474Y-60573906D01*
X133084794Y-60578269D01*
X133075290Y-60584399D01*
X133075058Y-60584667D01*
X133065102Y-60591154D01*
X133059489Y-60592210D01*
X133050128Y-60594452D01*
X133047328Y-60596825D01*
X133041846Y-60601860D01*
X133030319Y-60610494D01*
X133016313Y-60620134D01*
X132998439Y-60633697D01*
X132989472Y-60645955D01*
X132989253Y-60658827D01*
X132997620Y-60674230D01*
X133010504Y-60689794D01*
X133022806Y-60705307D01*
X133032133Y-60720433D01*
X133035943Y-60730081D01*
X133039159Y-60739760D01*
X133045648Y-60745891D01*
X133057825Y-60749867D01*
X133075171Y-60752687D01*
X133085597Y-60757177D01*
X133089588Y-60768013D01*
X133088942Y-60778060D01*
X133085446Y-60781610D01*
X133082073Y-60784725D01*
X133082849Y-60786728D01*
X133082443Y-60791445D01*
X133080592Y-60791847D01*
X133075952Y-60796073D01*
X133075082Y-60800805D01*
X133070362Y-60812868D01*
X133058272Y-60824193D01*
X133041570Y-60832554D01*
X133032940Y-60834820D01*
X133020393Y-60838572D01*
X133013407Y-60843397D01*
X133012964Y-60844548D01*
X133011269Y-60854590D01*
X133010995Y-60855834D01*
X133009394Y-60865647D01*
X133009215Y-60867351D01*
X133004518Y-60873097D01*
X133001201Y-60873750D01*
X132992046Y-60877642D01*
X132989683Y-60880388D01*
X132983310Y-60885860D01*
X132970387Y-60894018D01*
X132953619Y-60903165D01*
X132952317Y-60903826D01*
X132934337Y-60913405D01*
X132918976Y-60922476D01*
X132909514Y-60929100D01*
X132909423Y-60929181D01*
X132899967Y-60941397D01*
X132890713Y-60959243D01*
X132883622Y-60978264D01*
X132880657Y-60994005D01*
X132880652Y-60994509D01*
X132882968Y-61003887D01*
X132889250Y-61019870D01*
X132898500Y-61040108D01*
X132908188Y-61059351D01*
X132919649Y-61082133D01*
X132929465Y-61103425D01*
X132936466Y-61120576D01*
X132939285Y-61129695D01*
X132944442Y-61146774D01*
X132954683Y-61172107D01*
X132969784Y-61205192D01*
X132989521Y-61245528D01*
X133000890Y-61267930D01*
X133012933Y-61293014D01*
X133024892Y-61320573D01*
X133034584Y-61345515D01*
X133036350Y-61350604D01*
X133044612Y-61373518D01*
X133053830Y-61396522D01*
X133062060Y-61414770D01*
X133062329Y-61415309D01*
X133069392Y-61429965D01*
X133074056Y-61440784D01*
X133075171Y-61444461D01*
X133077832Y-61450762D01*
X133084275Y-61461097D01*
X133084647Y-61461633D01*
X133092039Y-61474599D01*
X133100021Y-61492051D01*
X133103445Y-61500815D01*
X133109418Y-61516267D01*
X133114534Y-61527880D01*
X133116579Y-61531542D01*
X133120473Y-61538904D01*
X133126440Y-61552393D01*
X133130938Y-61563429D01*
X133139325Y-61582508D01*
X133148753Y-61600833D01*
X133153118Y-61608143D01*
X133164751Y-61626102D01*
X133301107Y-61626165D01*
X133437462Y-61626229D01*
X133437556Y-61624408D01*
X133550716Y-61624408D01*
X133558556Y-61625626D01*
X133563373Y-61625824D01*
X133575691Y-61625565D01*
X133579572Y-61623444D01*
X133576780Y-61618498D01*
X133576771Y-61618487D01*
X133568798Y-61613791D01*
X133564626Y-61615240D01*
X133554602Y-61621147D01*
X133551229Y-61622578D01*
X133550716Y-61624408D01*
X133437556Y-61624408D01*
X133440160Y-61574105D01*
X133854365Y-61574105D01*
X133858827Y-61574064D01*
X133864746Y-61567712D01*
X133867661Y-61558008D01*
X133867111Y-61548039D01*
X133863822Y-61544326D01*
X133858907Y-61548436D01*
X133858363Y-61551586D01*
X133856576Y-61562643D01*
X133854988Y-61567641D01*
X133854365Y-61574105D01*
X133440160Y-61574105D01*
X133441175Y-61554509D01*
X133442821Y-61528455D01*
X133444789Y-61506217D01*
X133445362Y-61501667D01*
X133802145Y-61501667D01*
X133805287Y-61505374D01*
X133812293Y-61504858D01*
X133818110Y-61504278D01*
X133821180Y-61507909D01*
X133822364Y-61517942D01*
X133822531Y-61530932D01*
X133823356Y-61546535D01*
X133825488Y-61556976D01*
X133827649Y-61559683D01*
X133830229Y-61554919D01*
X133832027Y-61542024D01*
X133832584Y-61527713D01*
X133878839Y-61527713D01*
X133881238Y-61545907D01*
X133889137Y-61556135D01*
X133903583Y-61559652D01*
X133905567Y-61559683D01*
X133918738Y-61556291D01*
X133925745Y-61547095D01*
X133927448Y-61532475D01*
X133921317Y-61518607D01*
X133909357Y-61509055D01*
X133903279Y-61507221D01*
X133895778Y-61505530D01*
X133896751Y-61503320D01*
X133905713Y-61499297D01*
X133916105Y-61493009D01*
X133919637Y-61486945D01*
X133915505Y-61483242D01*
X133911879Y-61482899D01*
X133899434Y-61487488D01*
X133888319Y-61499219D01*
X133880784Y-61515038D01*
X133878839Y-61527713D01*
X133832584Y-61527713D01*
X133832764Y-61523091D01*
X133832768Y-61521291D01*
X133832484Y-61502939D01*
X133831733Y-61489363D01*
X133830666Y-61483067D01*
X133830450Y-61482899D01*
X133824593Y-61484796D01*
X133815093Y-61488840D01*
X133805562Y-61495306D01*
X133802145Y-61501667D01*
X133445362Y-61501667D01*
X133446865Y-61489719D01*
X133448835Y-61480888D01*
X133449429Y-61479982D01*
X133452074Y-61473639D01*
X133453711Y-61460644D01*
X133453970Y-61452186D01*
X133454832Y-61437094D01*
X133457028Y-61426729D01*
X133458548Y-61424366D01*
X133461122Y-61420879D01*
X133463539Y-61412814D01*
X133466081Y-61398670D01*
X133469033Y-61376948D01*
X133471669Y-61354927D01*
X133475097Y-61328083D01*
X133478459Y-61309791D01*
X133482382Y-61298386D01*
X133487490Y-61292207D01*
X133494409Y-61289589D01*
X133496348Y-61289312D01*
X133505913Y-61286315D01*
X133506659Y-61282072D01*
X133499412Y-61278768D01*
X133492128Y-61278143D01*
X133481434Y-61273434D01*
X133472375Y-61260934D01*
X133466219Y-61243084D01*
X133464207Y-61224396D01*
X133461976Y-61210827D01*
X133456602Y-61201421D01*
X133456529Y-61201360D01*
X133449487Y-61189801D01*
X133452007Y-61175054D01*
X133457145Y-61166201D01*
X133462516Y-61154912D01*
X133460254Y-61144263D01*
X133459778Y-61143307D01*
X133455835Y-61129877D01*
X133454965Y-61116898D01*
X133453860Y-61103983D01*
X133450108Y-61090740D01*
X133444991Y-61080301D01*
X133439794Y-61075800D01*
X133438277Y-61076154D01*
X133432243Y-61074873D01*
X133424444Y-61068668D01*
X133418863Y-61061089D01*
X133418137Y-61058212D01*
X133422213Y-61052979D01*
X133426081Y-61050958D01*
X133431373Y-61050561D01*
X133430409Y-61053761D01*
X133429864Y-61057202D01*
X133432703Y-61055960D01*
X133438227Y-61048611D01*
X133438613Y-61046211D01*
X133442318Y-61039576D01*
X133451667Y-61029947D01*
X133456789Y-61025612D01*
X133479241Y-61013588D01*
X133510483Y-61006381D01*
X133550647Y-61003963D01*
X133556348Y-61003997D01*
X133570960Y-61004933D01*
X133578200Y-61008117D01*
X133580886Y-61014823D01*
X133580929Y-61015120D01*
X133578069Y-61025092D01*
X133569234Y-61036720D01*
X133557521Y-61046909D01*
X133546022Y-61052562D01*
X133543158Y-61052911D01*
X133536111Y-61055127D01*
X133537494Y-61061197D01*
X133546650Y-61070261D01*
X133562921Y-61081456D01*
X133566545Y-61083625D01*
X133588160Y-61098794D01*
X133603677Y-61116430D01*
X133615050Y-61139310D01*
X133622404Y-61162968D01*
X133630784Y-61181158D01*
X133647802Y-61204775D01*
X133663404Y-61222938D01*
X133679516Y-61241777D01*
X133693728Y-61260159D01*
X133704035Y-61275404D01*
X133707457Y-61281806D01*
X133713959Y-61296093D01*
X133719493Y-61307182D01*
X133720437Y-61308857D01*
X133725827Y-61318608D01*
X133732751Y-61331889D01*
X133733250Y-61332874D01*
X133743879Y-61346448D01*
X133755109Y-61350790D01*
X133768977Y-61357095D01*
X133775389Y-61365165D01*
X133786712Y-61385547D01*
X133797404Y-61400261D01*
X133809412Y-61410232D01*
X133824679Y-61416388D01*
X133845150Y-61419654D01*
X133872770Y-61420960D01*
X133892915Y-61421184D01*
X133950503Y-61421472D01*
X133950503Y-61451559D01*
X133949116Y-61473220D01*
X133944849Y-61485778D01*
X133942825Y-61488018D01*
X133937748Y-61497586D01*
X133935244Y-61513057D01*
X133935312Y-61530425D01*
X133937952Y-61545685D01*
X133942825Y-61554564D01*
X133946718Y-61560592D01*
X133949123Y-61572022D01*
X133950289Y-61590633D01*
X133950503Y-61608939D01*
X133950503Y-61656942D01*
X130699999Y-61656942D01*
X127449496Y-61656942D01*
X127449496Y-61641585D01*
X127449496Y-61626229D01*
X128737753Y-61626229D01*
X128851833Y-61626220D01*
X128963191Y-61626194D01*
X129071394Y-61626152D01*
X129176012Y-61626094D01*
X129276614Y-61626021D01*
X129372770Y-61625934D01*
X129464047Y-61625834D01*
X129550015Y-61625721D01*
X129630243Y-61625597D01*
X129704300Y-61625461D01*
X129771756Y-61625315D01*
X129832178Y-61625160D01*
X129885136Y-61624995D01*
X129930199Y-61624823D01*
X129966937Y-61624643D01*
X129994917Y-61624457D01*
X130013710Y-61624265D01*
X130022883Y-61624068D01*
X130023762Y-61623980D01*
X130018001Y-61621914D01*
X130004886Y-61618547D01*
X129987104Y-61614561D01*
X129984685Y-61614053D01*
X129954128Y-61605134D01*
X129921376Y-61591423D01*
X130267026Y-61591423D01*
X130267701Y-61607701D01*
X130268327Y-61611407D01*
X130270570Y-61619685D01*
X130274847Y-61624113D01*
X130283841Y-61625894D01*
X130300237Y-61626228D01*
X130301433Y-61626229D01*
X130331576Y-61626229D01*
X130323758Y-61607033D01*
X130315303Y-61591805D01*
X130303533Y-61577117D01*
X130290979Y-61565602D01*
X130280172Y-61559897D01*
X130278279Y-61559683D01*
X130272922Y-61564261D01*
X130268969Y-61575892D01*
X130267026Y-61591423D01*
X129921376Y-61591423D01*
X129920117Y-61590896D01*
X129902898Y-61582174D01*
X129870121Y-61564571D01*
X129845149Y-61551282D01*
X129826799Y-61541718D01*
X129813889Y-61535293D01*
X129805234Y-61531418D01*
X129799652Y-61529507D01*
X129795960Y-61528971D01*
X129795780Y-61528969D01*
X129781440Y-61526590D01*
X129760073Y-61520021D01*
X129733562Y-61510117D01*
X129703791Y-61497733D01*
X129672641Y-61483721D01*
X129641996Y-61468938D01*
X129613738Y-61454236D01*
X129589751Y-61440470D01*
X129571916Y-61428495D01*
X129568722Y-61425949D01*
X129551910Y-61413832D01*
X129533310Y-61403054D01*
X129529927Y-61401427D01*
X129516490Y-61393748D01*
X129498524Y-61381439D01*
X129479143Y-61366684D01*
X129471713Y-61360604D01*
X129455232Y-61347097D01*
X129441654Y-61336524D01*
X129432883Y-61330338D01*
X129430778Y-61329332D01*
X129425820Y-61325966D01*
X129415370Y-61316902D01*
X129401165Y-61303689D01*
X129390942Y-61293806D01*
X129354705Y-61258280D01*
X129291510Y-61259164D01*
X129259348Y-61259091D01*
X129234801Y-61257283D01*
X129215282Y-61252895D01*
X129198208Y-61245083D01*
X129180993Y-61233006D01*
X129162413Y-61217045D01*
X129138513Y-61194838D01*
X129115226Y-61171947D01*
X129094029Y-61149940D01*
X129076400Y-61130387D01*
X129063816Y-61114859D01*
X129058508Y-61106660D01*
X129050900Y-61095230D01*
X129038460Y-61080220D01*
X129024385Y-61065390D01*
X129003584Y-61042898D01*
X128986314Y-61018956D01*
X128970760Y-60990682D01*
X128955296Y-60955652D01*
X128939449Y-60914995D01*
X128928642Y-60883104D01*
X128922839Y-60859853D01*
X128922008Y-60845116D01*
X128923871Y-60840318D01*
X128931681Y-60834231D01*
X128940996Y-60834330D01*
X128953003Y-60841210D01*
X128968893Y-60855467D01*
X128982571Y-60869733D01*
X128999329Y-60887058D01*
X129015575Y-60902530D01*
X129028796Y-60913807D01*
X129033395Y-60917083D01*
X129043254Y-60924860D01*
X129057941Y-60938424D01*
X129075499Y-60955891D01*
X129093974Y-60975377D01*
X129094664Y-60976128D01*
X129133726Y-61016807D01*
X129177935Y-61059708D01*
X129223798Y-61101561D01*
X129267821Y-61139097D01*
X129275716Y-61145494D01*
X129293673Y-61160256D01*
X129309789Y-61174128D01*
X129321472Y-61184859D01*
X129324345Y-61187790D01*
X129338599Y-61201260D01*
X129357727Y-61216656D01*
X129378978Y-61232041D01*
X129399604Y-61245476D01*
X129416854Y-61255021D01*
X129423740Y-61257858D01*
X129441209Y-61265098D01*
X129457465Y-61274200D01*
X129458650Y-61275015D01*
X129472349Y-61283688D01*
X129490048Y-61293593D01*
X129509090Y-61303404D01*
X129526816Y-61311795D01*
X129540568Y-61317442D01*
X129547058Y-61319094D01*
X129554635Y-61321567D01*
X129568225Y-61328106D01*
X129585131Y-61337395D01*
X129588302Y-61339248D01*
X129615616Y-61352909D01*
X129647122Y-61364898D01*
X129665721Y-61370331D01*
X129691198Y-61378120D01*
X129720169Y-61389024D01*
X129747289Y-61400993D01*
X129753183Y-61403926D01*
X129773428Y-61413762D01*
X129791254Y-61421444D01*
X129804072Y-61425901D01*
X129808015Y-61426591D01*
X129818297Y-61428084D01*
X129834548Y-61431974D01*
X129851085Y-61436763D01*
X129874172Y-61442360D01*
X129899222Y-61445991D01*
X129914248Y-61446788D01*
X129932718Y-61446032D01*
X129945335Y-61442988D01*
X129956449Y-61436163D01*
X129964179Y-61429656D01*
X129983397Y-61412671D01*
X129975322Y-61402406D01*
X131669347Y-61402406D01*
X131669656Y-61431605D01*
X131670535Y-61463264D01*
X131671928Y-61495836D01*
X131673777Y-61527771D01*
X131676025Y-61557521D01*
X131678617Y-61583537D01*
X131681494Y-61604272D01*
X131684600Y-61618177D01*
X131685178Y-61619830D01*
X131691357Y-61623567D01*
X131706727Y-61625670D01*
X131727647Y-61626229D01*
X131767667Y-61626229D01*
X131767606Y-61624032D01*
X131918298Y-61624032D01*
X131923281Y-61624397D01*
X131937681Y-61624743D01*
X131960681Y-61625065D01*
X131991459Y-61625359D01*
X132029198Y-61625618D01*
X132073077Y-61625838D01*
X132122276Y-61626014D01*
X132175977Y-61626140D01*
X132233359Y-61626213D01*
X132276283Y-61626229D01*
X132634268Y-61626229D01*
X132702554Y-61626229D01*
X132835114Y-61626229D01*
X132871157Y-61626061D01*
X132903365Y-61625588D01*
X132930424Y-61624855D01*
X132951024Y-61623906D01*
X132963853Y-61622786D01*
X132967674Y-61621695D01*
X132965492Y-61614348D01*
X132960222Y-61602875D01*
X132960027Y-61602499D01*
X132954591Y-61589724D01*
X132952348Y-61579857D01*
X132949381Y-61569645D01*
X132944801Y-61561941D01*
X132939920Y-61549474D01*
X132937385Y-61529235D01*
X132937123Y-61519851D01*
X132936261Y-61500353D01*
X132933655Y-61489208D01*
X132929282Y-61484750D01*
X132924471Y-61479415D01*
X132922071Y-61466974D01*
X132921604Y-61452601D01*
X132921066Y-61435383D01*
X132918529Y-61424769D01*
X132912608Y-61417142D01*
X132905990Y-61411854D01*
X132894192Y-61400766D01*
X132886134Y-61389032D01*
X132885641Y-61387856D01*
X132879278Y-61378480D01*
X132872764Y-61375402D01*
X132861747Y-61377921D01*
X132848821Y-61383712D01*
X132839855Y-61390127D01*
X132839701Y-61390312D01*
X132834763Y-61394769D01*
X132823865Y-61403882D01*
X132809063Y-61415939D01*
X132803818Y-61420155D01*
X132783291Y-61438226D01*
X132767770Y-61456439D01*
X132755745Y-61477368D01*
X132745709Y-61503587D01*
X132737066Y-61534088D01*
X132730363Y-61557658D01*
X132722702Y-61580759D01*
X132715532Y-61599082D01*
X132714228Y-61601914D01*
X132702554Y-61626229D01*
X132634268Y-61626229D01*
X132649753Y-61604473D01*
X132661652Y-61586789D01*
X132673141Y-61568221D01*
X132676564Y-61562242D01*
X132683710Y-61546911D01*
X132691613Y-61526234D01*
X132699345Y-61503161D01*
X132705977Y-61480642D01*
X132710582Y-61461626D01*
X132712232Y-61449063D01*
X132712228Y-61448889D01*
X132715566Y-61436821D01*
X132720042Y-61431183D01*
X132730318Y-61417582D01*
X132737002Y-61396275D01*
X132740258Y-61369446D01*
X132742974Y-61348533D01*
X132747732Y-61327918D01*
X132750629Y-61319316D01*
X132756989Y-61294295D01*
X132754620Y-61270963D01*
X132743121Y-61247506D01*
X132731449Y-61232355D01*
X132719293Y-61219184D01*
X132709141Y-61209866D01*
X132703367Y-61206481D01*
X132697540Y-61202203D01*
X132694889Y-61196241D01*
X132689444Y-61188462D01*
X132677040Y-61185500D01*
X132675096Y-61185409D01*
X132666186Y-61184472D01*
X132665629Y-61182895D01*
X132666938Y-61182474D01*
X132674955Y-61177982D01*
X132673121Y-61171535D01*
X132661558Y-61163502D01*
X132660539Y-61162968D01*
X132649791Y-61155095D01*
X132644496Y-61146735D01*
X132644425Y-61146200D01*
X132643428Y-61133380D01*
X132643145Y-61129243D01*
X132639597Y-61118168D01*
X132636870Y-61113886D01*
X132632640Y-61104576D01*
X132628836Y-61089760D01*
X132627779Y-61083546D01*
X132623264Y-61065335D01*
X132616166Y-61048650D01*
X132614032Y-61045154D01*
X132605515Y-61031380D01*
X132599213Y-61019051D01*
X132599040Y-61018634D01*
X132590206Y-61008929D01*
X132575978Y-61003563D01*
X132560576Y-61003359D01*
X132548595Y-61008793D01*
X132536301Y-61015325D01*
X132526306Y-61017079D01*
X132513710Y-61020760D01*
X132499941Y-61029918D01*
X132488226Y-61041728D01*
X132481794Y-61053362D01*
X132481378Y-61056412D01*
X132477886Y-61065927D01*
X132468635Y-61080172D01*
X132455456Y-61097009D01*
X132440184Y-61114302D01*
X132424652Y-61129915D01*
X132410694Y-61141709D01*
X132404981Y-61145450D01*
X132389649Y-61157145D01*
X132376762Y-61171992D01*
X132374845Y-61175089D01*
X132364318Y-61191300D01*
X132351482Y-61207973D01*
X132348647Y-61211240D01*
X132339247Y-61222546D01*
X132333630Y-61230855D01*
X132332930Y-61232824D01*
X132329764Y-61238419D01*
X132321467Y-61249208D01*
X132309895Y-61262786D01*
X132298153Y-61277236D01*
X132289843Y-61289808D01*
X132286826Y-61297510D01*
X132285382Y-61305220D01*
X132280534Y-61314990D01*
X132271426Y-61327987D01*
X132257204Y-61345373D01*
X132237012Y-61368315D01*
X132225433Y-61381110D01*
X132185941Y-61423673D01*
X132151246Y-61459366D01*
X132121756Y-61487783D01*
X132097879Y-61508521D01*
X132092341Y-61512832D01*
X132075175Y-61526472D01*
X132058020Y-61541172D01*
X132051390Y-61547264D01*
X132036941Y-61558111D01*
X132017298Y-61569235D01*
X131999649Y-61577044D01*
X131982556Y-61584331D01*
X131963839Y-61593641D01*
X131945789Y-61603650D01*
X131930697Y-61613036D01*
X131920856Y-61620475D01*
X131918298Y-61624032D01*
X131767606Y-61624032D01*
X131765795Y-61558403D01*
X131764559Y-61523377D01*
X131762715Y-61496853D01*
X131759752Y-61477097D01*
X131755162Y-61462374D01*
X131748436Y-61450950D01*
X131739066Y-61441091D01*
X131728967Y-61432892D01*
X131713195Y-61419343D01*
X131705269Y-61408189D01*
X131703596Y-61400510D01*
X131699626Y-61386761D01*
X131693355Y-61378223D01*
X131684939Y-61366114D01*
X131681838Y-61356069D01*
X131678825Y-61345562D01*
X131674950Y-61341178D01*
X131672410Y-61345052D01*
X131670667Y-61357581D01*
X131669665Y-61377215D01*
X131669347Y-61402406D01*
X129975322Y-61402406D01*
X129973137Y-61399628D01*
X129965984Y-61389014D01*
X129962881Y-61381397D01*
X129962877Y-61381248D01*
X129959002Y-61374267D01*
X129955769Y-61371818D01*
X129948720Y-61363602D01*
X129946811Y-61358279D01*
X129941393Y-61351865D01*
X129928133Y-61342597D01*
X129908750Y-61331286D01*
X129884962Y-61318740D01*
X129858488Y-61305770D01*
X129831046Y-61293183D01*
X129804355Y-61281791D01*
X129780132Y-61272402D01*
X129760098Y-61265826D01*
X129745969Y-61262872D01*
X129744061Y-61262786D01*
X129728663Y-61260735D01*
X129711831Y-61255738D01*
X129710419Y-61255166D01*
X129697287Y-61250992D01*
X129677374Y-61246189D01*
X129654039Y-61241528D01*
X129642347Y-61239526D01*
X129616731Y-61234839D01*
X129596206Y-61229312D01*
X129576696Y-61221496D01*
X129554126Y-61209940D01*
X129545055Y-61204916D01*
X129509318Y-61182317D01*
X129471569Y-61153995D01*
X129434567Y-61122332D01*
X129401076Y-61089710D01*
X129373854Y-61058508D01*
X129371005Y-61054793D01*
X129358724Y-61037906D01*
X129349269Y-61023778D01*
X129344065Y-61014591D01*
X129343490Y-61012690D01*
X129340006Y-61006752D01*
X129330761Y-60995987D01*
X129317564Y-60982458D01*
X129313804Y-60978833D01*
X129298177Y-60963220D01*
X129288411Y-60950810D01*
X129282466Y-60938301D01*
X129278301Y-60922386D01*
X129277972Y-60920810D01*
X129274647Y-60903681D01*
X129272415Y-60890211D01*
X129271825Y-60884614D01*
X129275408Y-60880725D01*
X129284337Y-60882240D01*
X129295882Y-60888273D01*
X129304705Y-60895312D01*
X129315079Y-60903134D01*
X129330768Y-60912814D01*
X129343490Y-60919720D01*
X129360390Y-60929272D01*
X129374699Y-60939000D01*
X129381395Y-60944855D01*
X129390080Y-60952749D01*
X129396015Y-60955652D01*
X129403149Y-60958830D01*
X129415007Y-60966949D01*
X129428903Y-60977884D01*
X129442150Y-60989513D01*
X129452062Y-60999712D01*
X129452638Y-61000412D01*
X129460575Y-61008749D01*
X129465847Y-61011960D01*
X129467529Y-61007306D01*
X129468167Y-60995127D01*
X129467652Y-60978687D01*
X129467209Y-60958522D01*
X129468898Y-60947458D01*
X129471080Y-60945414D01*
X129476356Y-60949085D01*
X129476581Y-60950533D01*
X129480278Y-60955008D01*
X129487990Y-60954881D01*
X129494653Y-60950277D01*
X129494773Y-60950087D01*
X129494770Y-60942121D01*
X129492516Y-60938826D01*
X129488193Y-60929595D01*
X129486996Y-60916943D01*
X129489001Y-60905849D01*
X129491952Y-60901895D01*
X129492780Y-60899344D01*
X129507295Y-60899344D01*
X129511190Y-60904314D01*
X129512414Y-60904463D01*
X129517384Y-60900568D01*
X129517533Y-60899344D01*
X129513637Y-60894374D01*
X129512414Y-60894225D01*
X129507444Y-60898121D01*
X129507295Y-60899344D01*
X129492780Y-60899344D01*
X129494173Y-60895050D01*
X129491569Y-60888417D01*
X129488889Y-60880121D01*
X129494214Y-60876042D01*
X129496674Y-60875333D01*
X129505362Y-60869073D01*
X129507295Y-60862915D01*
X129510722Y-60855195D01*
X129519790Y-60853274D01*
X129530629Y-60851387D01*
X129535449Y-60848155D01*
X129542256Y-60844693D01*
X129554660Y-60843056D01*
X129556226Y-60843036D01*
X129568970Y-60842379D01*
X129573170Y-60839065D01*
X129570501Y-60831081D01*
X129568829Y-60827881D01*
X129566979Y-60817999D01*
X129571389Y-60812234D01*
X129576973Y-60805336D01*
X129578394Y-60795815D01*
X129575539Y-60781439D01*
X129568816Y-60761393D01*
X129563694Y-60746102D01*
X129560897Y-60735142D01*
X129560830Y-60731486D01*
X129560067Y-60726338D01*
X129558104Y-60723476D01*
X129549110Y-60711409D01*
X129539819Y-60697022D01*
X129532149Y-60683527D01*
X129528015Y-60674137D01*
X129527751Y-60672605D01*
X129525243Y-60664322D01*
X129519151Y-60652365D01*
X129518380Y-60651077D01*
X129510687Y-60635977D01*
X129505508Y-60621658D01*
X129503268Y-60615014D01*
X129499045Y-60606029D01*
X129492201Y-60593633D01*
X129482098Y-60576753D01*
X129468099Y-60554318D01*
X129449568Y-60525256D01*
X129431694Y-60497510D01*
X129416334Y-60475621D01*
X129398297Y-60452648D01*
X129381482Y-60433559D01*
X129381448Y-60433524D01*
X129357766Y-60404116D01*
X129343001Y-60374657D01*
X129334638Y-60354362D01*
X129325116Y-60334615D01*
X129319125Y-60324011D01*
X129309884Y-60306918D01*
X129300796Y-60286410D01*
X129297345Y-60277182D01*
X129289639Y-60260132D01*
X129276761Y-60237470D01*
X129260139Y-60211409D01*
X129241199Y-60184167D01*
X129221366Y-60157958D01*
X129217509Y-60153147D01*
X129206703Y-60139812D01*
X129181677Y-60149365D01*
X129160300Y-60160819D01*
X129137404Y-60179860D01*
X129126118Y-60191284D01*
X129111655Y-60205903D01*
X129099313Y-60217087D01*
X129091072Y-60223089D01*
X129089398Y-60223649D01*
X129081737Y-60226721D01*
X129070616Y-60234319D01*
X129068003Y-60236446D01*
X129057183Y-60244687D01*
X129049470Y-60249040D01*
X129048459Y-60249244D01*
X129039102Y-60251864D01*
X129024054Y-60258684D01*
X129006085Y-60268144D01*
X128987967Y-60278682D01*
X128972472Y-60288738D01*
X128962371Y-60296749D01*
X128960699Y-60298672D01*
X128953673Y-60308190D01*
X128942224Y-60323175D01*
X128928305Y-60341082D01*
X128921180Y-60350145D01*
X128907339Y-60367306D01*
X128896063Y-60379537D01*
X128884723Y-60388788D01*
X128870684Y-60397007D01*
X128851316Y-60406145D01*
X128837116Y-60412410D01*
X128809556Y-60425177D01*
X128789049Y-60436612D01*
X128772875Y-60448422D01*
X128759441Y-60461127D01*
X128729947Y-60484864D01*
X128692121Y-60503154D01*
X128645724Y-60516113D01*
X128645598Y-60516139D01*
X128625955Y-60521467D01*
X128606802Y-60528700D01*
X128601732Y-60531131D01*
X128594255Y-60534707D01*
X128586633Y-60537161D01*
X128577130Y-60538563D01*
X128564007Y-60538986D01*
X128545526Y-60538501D01*
X128519952Y-60537178D01*
X128493396Y-60535575D01*
X128451450Y-60533779D01*
X128407000Y-60533275D01*
X128362046Y-60533973D01*
X128318587Y-60535778D01*
X128278623Y-60538599D01*
X128244151Y-60542342D01*
X128217172Y-60546914D01*
X128209653Y-60548752D01*
X128171665Y-60557895D01*
X128139194Y-60562615D01*
X128108751Y-60563352D01*
X128098610Y-60562801D01*
X128077197Y-60562186D01*
X128058321Y-60564303D01*
X128037207Y-60569868D01*
X128025487Y-60573762D01*
X128001546Y-60581179D01*
X127976149Y-60587717D01*
X127954808Y-60591959D01*
X127934392Y-60595577D01*
X127915207Y-60599883D01*
X127905078Y-60602773D01*
X127893712Y-60604984D01*
X127874414Y-60607030D01*
X127849488Y-60608733D01*
X127821239Y-60609918D01*
X127807819Y-60610239D01*
X127772525Y-60611170D01*
X127745746Y-60612779D01*
X127725761Y-60615451D01*
X127710852Y-60619576D01*
X127699299Y-60625540D01*
X127689382Y-60633733D01*
X127685366Y-60637851D01*
X127676837Y-60645687D01*
X127667197Y-60650661D01*
X127653403Y-60653829D01*
X127632445Y-60656246D01*
X127608734Y-60657528D01*
X127589181Y-60656805D01*
X127578587Y-60654794D01*
X127561601Y-60652499D01*
X127554691Y-60654823D01*
X127543993Y-60657391D01*
X127528555Y-60657501D01*
X127523600Y-60656974D01*
X127501713Y-60653974D01*
X127487122Y-60683239D01*
X127476519Y-60701779D01*
X127467206Y-60711676D01*
X127461013Y-60714140D01*
X127449496Y-60715776D01*
X127449496Y-59950144D01*
X127449496Y-59948485D01*
X129714424Y-59948485D01*
X129715843Y-59972829D01*
X129720754Y-59998508D01*
X129728487Y-60021676D01*
X129735534Y-60034800D01*
X129743024Y-60048885D01*
X129751001Y-60068951D01*
X129757880Y-60090953D01*
X129758592Y-60093668D01*
X129766687Y-60124734D01*
X129773248Y-60148137D01*
X129779037Y-60166189D01*
X129784818Y-60181203D01*
X129791354Y-60195494D01*
X129793892Y-60200614D01*
X129802543Y-60216018D01*
X129810981Y-60224866D01*
X129822632Y-60230172D01*
X129829791Y-60232195D01*
X129849594Y-60235963D01*
X129871885Y-60238294D01*
X129879362Y-60238594D01*
X129903260Y-60240400D01*
X129922127Y-60246046D01*
X129939588Y-60257157D01*
X129957608Y-60273684D01*
X129985909Y-60301666D01*
X130008370Y-60322898D01*
X130025988Y-60338255D01*
X130039754Y-60348611D01*
X130048891Y-60353998D01*
X130063446Y-60362658D01*
X130075476Y-60372087D01*
X130075881Y-60372485D01*
X130086225Y-60380280D01*
X130101861Y-60389378D01*
X130112721Y-60394720D01*
X130131945Y-60405145D01*
X130152826Y-60418981D01*
X130165013Y-60428424D01*
X130182334Y-60441770D01*
X130200395Y-60453728D01*
X130211460Y-60459805D01*
X130234496Y-60474536D01*
X130256984Y-60495629D01*
X130275404Y-60519647D01*
X130278938Y-60525664D01*
X130286138Y-60536532D01*
X130295669Y-60545244D01*
X130310192Y-60553822D01*
X130325996Y-60561398D01*
X130331967Y-60567956D01*
X130338616Y-60580679D01*
X130341353Y-60587709D01*
X130349388Y-60606354D01*
X130359461Y-60624306D01*
X130362152Y-60628241D01*
X130372981Y-60644994D01*
X130382585Y-60662770D01*
X130383521Y-60664785D01*
X130394209Y-60680735D01*
X130411200Y-60692380D01*
X130414697Y-60694040D01*
X130434437Y-60706764D01*
X130454226Y-60725606D01*
X130470850Y-60747049D01*
X130480608Y-60766121D01*
X130488827Y-60779095D01*
X130502914Y-60785602D01*
X130524134Y-60786127D01*
X130530733Y-60785376D01*
X130544976Y-60784590D01*
X130555202Y-60785992D01*
X130556361Y-60786537D01*
X130564293Y-60788124D01*
X130579170Y-60788777D01*
X130597753Y-60788604D01*
X130616799Y-60787712D01*
X130633070Y-60786206D01*
X130643326Y-60784195D01*
X130644568Y-60783627D01*
X130651258Y-60782243D01*
X130666290Y-60780542D01*
X130687777Y-60778695D01*
X130713835Y-60776872D01*
X130729747Y-60775925D01*
X130775111Y-60772975D01*
X130811465Y-60769483D01*
X130840036Y-60765044D01*
X130862053Y-60759258D01*
X130878741Y-60751722D01*
X130891327Y-60742034D01*
X130901040Y-60729792D01*
X130907694Y-60717623D01*
X130921199Y-60699871D01*
X130942078Y-60685051D01*
X130967511Y-60675142D01*
X130968742Y-60674837D01*
X130999191Y-60666860D01*
X131021642Y-60658896D01*
X131038223Y-60649449D01*
X131051059Y-60637021D01*
X131062279Y-60620116D01*
X131071403Y-60602603D01*
X131082590Y-60581490D01*
X131094325Y-60562044D01*
X131104588Y-60547538D01*
X131107425Y-60544269D01*
X131118876Y-60531738D01*
X131126241Y-60521385D01*
X131131201Y-60509755D01*
X131135435Y-60493392D01*
X131138027Y-60481298D01*
X131149228Y-60445031D01*
X131166544Y-60410442D01*
X131188184Y-60380655D01*
X131205317Y-60364031D01*
X131236670Y-60336706D01*
X131260080Y-60312036D01*
X131274988Y-60290645D01*
X131279050Y-60281467D01*
X131287263Y-60264017D01*
X131298392Y-60247765D01*
X131299333Y-60246684D01*
X131310174Y-60231444D01*
X131318289Y-60214785D01*
X131318813Y-60213233D01*
X131329811Y-60191811D01*
X131348548Y-60169415D01*
X131372980Y-60148086D01*
X131401061Y-60129863D01*
X131403849Y-60128366D01*
X131422102Y-60118636D01*
X131437655Y-60110163D01*
X131447576Y-60104547D01*
X131448511Y-60103979D01*
X131458098Y-60101340D01*
X131463612Y-60104763D01*
X131473480Y-60109775D01*
X131481992Y-60111033D01*
X131496313Y-60113369D01*
X131504192Y-60116433D01*
X131512136Y-60118590D01*
X131521227Y-60115383D01*
X131533501Y-60106611D01*
X131543726Y-60097670D01*
X131550221Y-60088677D01*
X131554521Y-60076430D01*
X131558159Y-60057728D01*
X131558792Y-60053861D01*
X131563849Y-60021499D01*
X131567086Y-59997050D01*
X131568585Y-59978368D01*
X131568425Y-59963306D01*
X131566686Y-59949718D01*
X131563447Y-59935455D01*
X131563224Y-59934600D01*
X131559061Y-59916289D01*
X131558388Y-59905575D01*
X131561096Y-59900472D01*
X131561305Y-59900336D01*
X131566458Y-59895471D01*
X131563733Y-59893098D01*
X131555224Y-59893396D01*
X131543026Y-59896547D01*
X131538272Y-59898357D01*
X131522397Y-59904861D01*
X131508843Y-59910288D01*
X131505587Y-59911554D01*
X131498661Y-59916470D01*
X131494245Y-59926409D01*
X131491181Y-59943954D01*
X131485449Y-59968061D01*
X131475443Y-59989162D01*
X131462620Y-60005100D01*
X131448435Y-60013719D01*
X131443488Y-60014603D01*
X131413835Y-60015150D01*
X131383605Y-60013649D01*
X131355871Y-60010405D01*
X131333705Y-60005723D01*
X131325608Y-60002912D01*
X131306154Y-59995690D01*
X131292283Y-59994020D01*
X131280930Y-59997972D01*
X131272820Y-60004141D01*
X131258018Y-60015885D01*
X131241745Y-60026848D01*
X131226934Y-60035234D01*
X131216518Y-60039248D01*
X131215255Y-60039368D01*
X131207256Y-60042368D01*
X131195178Y-60049955D01*
X131189222Y-60054433D01*
X131164059Y-60069316D01*
X131134056Y-60077322D01*
X131098015Y-60078666D01*
X131068865Y-60075800D01*
X131041431Y-60072695D01*
X131011188Y-60070461D01*
X130984305Y-60069545D01*
X130982299Y-60069542D01*
X130945683Y-60067412D01*
X130910999Y-60060083D01*
X130901100Y-60057097D01*
X130887283Y-60052807D01*
X130875586Y-60049714D01*
X130864139Y-60047724D01*
X130851071Y-60046743D01*
X130834512Y-60046678D01*
X130812590Y-60047434D01*
X130783434Y-60048919D01*
X130761805Y-60050114D01*
X130723037Y-60052063D01*
X130692791Y-60053054D01*
X130669396Y-60053077D01*
X130651180Y-60052122D01*
X130636472Y-60050179D01*
X130632225Y-60049345D01*
X130615849Y-60045274D01*
X130603940Y-60041200D01*
X130599729Y-60038637D01*
X130592415Y-60035085D01*
X130579560Y-60034450D01*
X130565368Y-60036506D01*
X130554042Y-60041031D01*
X130553970Y-60041080D01*
X130543113Y-60046337D01*
X130526986Y-60051948D01*
X130518278Y-60054372D01*
X130497158Y-60060389D01*
X130474514Y-60067823D01*
X130467089Y-60070526D01*
X130448922Y-60075630D01*
X130425444Y-60079853D01*
X130401584Y-60082317D01*
X130400543Y-60082375D01*
X130377081Y-60083685D01*
X130348038Y-60085416D01*
X130318047Y-60087287D01*
X130303284Y-60088244D01*
X130241924Y-60089131D01*
X130193228Y-60084858D01*
X130163494Y-60081644D01*
X130130502Y-60079189D01*
X130099861Y-60077878D01*
X130089986Y-60077760D01*
X130066276Y-60078019D01*
X130050140Y-60079127D01*
X130038920Y-60081581D01*
X130029958Y-60085881D01*
X130023711Y-60090177D01*
X130013987Y-60096442D01*
X130003757Y-60100143D01*
X129990003Y-60101892D01*
X129969706Y-60102302D01*
X129964093Y-60102273D01*
X129942114Y-60101754D01*
X129927644Y-60100205D01*
X129917964Y-60097042D01*
X129910357Y-60091679D01*
X129908969Y-60090408D01*
X129899021Y-60077223D01*
X129887983Y-60056241D01*
X129876791Y-60029699D01*
X129866382Y-59999836D01*
X129857693Y-59968890D01*
X129857133Y-59966570D01*
X129851968Y-59946369D01*
X129847330Y-59933615D01*
X129841759Y-59925711D01*
X129835409Y-59921207D01*
X130551551Y-59921207D01*
X130555802Y-59927257D01*
X130565360Y-59929745D01*
X130571166Y-59928906D01*
X130580934Y-59926876D01*
X130582985Y-59926753D01*
X130585652Y-59923592D01*
X130584824Y-59921634D01*
X130578415Y-59918086D01*
X130567810Y-59916651D01*
X130557442Y-59917387D01*
X130551741Y-59920351D01*
X130551551Y-59921207D01*
X129835409Y-59921207D01*
X129833795Y-59920062D01*
X129829786Y-59917941D01*
X129815285Y-59909397D01*
X129803418Y-59900492D01*
X129802338Y-59899477D01*
X129794524Y-59893949D01*
X129784144Y-59892146D01*
X129767614Y-59893484D01*
X129766506Y-59893630D01*
X129744168Y-59898613D01*
X129729426Y-59907528D01*
X129719875Y-59922114D01*
X129717167Y-59929321D01*
X129714424Y-59948485D01*
X127449496Y-59948485D01*
X127449496Y-59863572D01*
X130259818Y-59863572D01*
X130263361Y-59869755D01*
X130272697Y-59880289D01*
X130285810Y-59892905D01*
X130285922Y-59893005D01*
X130312070Y-59916515D01*
X130371663Y-59916023D01*
X130398218Y-59915302D01*
X130423646Y-59913733D01*
X130444669Y-59911566D01*
X130455879Y-59909625D01*
X130470147Y-59905277D01*
X130479231Y-59900738D01*
X130480899Y-59898599D01*
X130476829Y-59892016D01*
X130465762Y-59885948D01*
X130450902Y-59881789D01*
X130439884Y-59880758D01*
X130419494Y-59877581D01*
X130396228Y-59869440D01*
X130374318Y-59858183D01*
X130357997Y-59845661D01*
X130356927Y-59844513D01*
X130338571Y-59829545D01*
X130317461Y-59820725D01*
X130305833Y-59819256D01*
X130297202Y-59822866D01*
X130285410Y-59831852D01*
X130273333Y-59843443D01*
X130263846Y-59854871D01*
X130259824Y-59863367D01*
X130259818Y-59863572D01*
X127449496Y-59863572D01*
X127449496Y-59184512D01*
X127519880Y-59183309D01*
X127549938Y-59182699D01*
X127580295Y-59181917D01*
X127607484Y-59181063D01*
X127628037Y-59180236D01*
X127628657Y-59180205D01*
X127639205Y-59179922D01*
X127659226Y-59179624D01*
X127687955Y-59179317D01*
X127724627Y-59179005D01*
X127768476Y-59178693D01*
X127818738Y-59178385D01*
X127874647Y-59178086D01*
X127935440Y-59177800D01*
X128000350Y-59177532D01*
X128068613Y-59177287D01*
X128139463Y-59177069D01*
X128168343Y-59176990D01*
X128669637Y-59175675D01*
X128678953Y-59164170D01*
X128685707Y-59148954D01*
X128688154Y-59127045D01*
X128686309Y-59101028D01*
X128680189Y-59073489D01*
X128678359Y-59067745D01*
X128671966Y-59045592D01*
X128666671Y-59021779D01*
X128664807Y-59010319D01*
X128661001Y-58992055D01*
X128655290Y-58976268D01*
X128651701Y-58970129D01*
X128643831Y-58956541D01*
X128637698Y-58940269D01*
X128637473Y-58939416D01*
X128634428Y-58922343D01*
X128631584Y-58896465D01*
X128628974Y-58863214D01*
X128626632Y-58824019D01*
X128624590Y-58780313D01*
X128622881Y-58733527D01*
X128621540Y-58685092D01*
X128620598Y-58636439D01*
X128620090Y-58589000D01*
X128620049Y-58544205D01*
X128620110Y-58538819D01*
X128858872Y-58538819D01*
X128858949Y-58563777D01*
X128860005Y-58582089D01*
X128862002Y-58594767D01*
X128865376Y-58613613D01*
X128866934Y-58631806D01*
X128866903Y-58636789D01*
X128868736Y-58653518D01*
X128874564Y-58675299D01*
X128883078Y-58698425D01*
X128892973Y-58719190D01*
X128899748Y-58729967D01*
X128917921Y-58746359D01*
X128941772Y-58755298D01*
X128969344Y-58756148D01*
X128976863Y-58754969D01*
X129018594Y-58747664D01*
X129052895Y-58743421D01*
X129079185Y-58742266D01*
X129096883Y-58744227D01*
X129105279Y-58749110D01*
X129107535Y-58756615D01*
X129110875Y-58772952D01*
X129115071Y-58796801D01*
X129119892Y-58826842D01*
X129125109Y-58861754D01*
X129126251Y-58869699D01*
X129130343Y-58896245D01*
X129135035Y-58923405D01*
X129139538Y-58946715D01*
X129141156Y-58954161D01*
X129145177Y-58974007D01*
X129147973Y-58992088D01*
X129148865Y-59002780D01*
X129150242Y-59013494D01*
X129153923Y-59031587D01*
X129159360Y-59054601D01*
X129166005Y-59080082D01*
X129166564Y-59082123D01*
X129174229Y-59112795D01*
X129181346Y-59146232D01*
X129187021Y-59177955D01*
X129189917Y-59199062D01*
X129197886Y-59245097D01*
X129210988Y-59282771D01*
X129229481Y-59312726D01*
X129240302Y-59324506D01*
X129249163Y-59335890D01*
X129259820Y-59353873D01*
X129270555Y-59375438D01*
X129274673Y-59384837D01*
X129287902Y-59413352D01*
X129301864Y-59436091D01*
X129319271Y-59457323D01*
X129323804Y-59462186D01*
X129337445Y-59477117D01*
X129347828Y-59489531D01*
X129353288Y-59497397D01*
X129353728Y-59498712D01*
X129356931Y-59507502D01*
X129365082Y-59520628D01*
X129375996Y-59535289D01*
X129387483Y-59548683D01*
X129397358Y-59558007D01*
X129402025Y-59560590D01*
X129413497Y-59562342D01*
X129429935Y-59564257D01*
X129436860Y-59564935D01*
X129455397Y-59568993D01*
X129479549Y-59577623D01*
X129506504Y-59589583D01*
X129533451Y-59603628D01*
X129556867Y-59618029D01*
X129570628Y-59625337D01*
X129592632Y-59634074D01*
X129623328Y-59644393D01*
X129663164Y-59656443D01*
X129712051Y-59670229D01*
X129724766Y-59672861D01*
X129744530Y-59675976D01*
X129768199Y-59679105D01*
X129783716Y-59680876D01*
X129835173Y-59686624D01*
X129877136Y-59691918D01*
X129910336Y-59696872D01*
X129935500Y-59701602D01*
X129953358Y-59706222D01*
X129960318Y-59708754D01*
X129976318Y-59717858D01*
X129990652Y-59729956D01*
X130000621Y-59742417D01*
X130003644Y-59750975D01*
X130008408Y-59760252D01*
X130020422Y-59770437D01*
X130037037Y-59779826D01*
X130055604Y-59786716D01*
X130061357Y-59788081D01*
X130116566Y-59799622D01*
X130164422Y-59810587D01*
X130167633Y-59811365D01*
X130197799Y-59817190D01*
X130222255Y-59818833D01*
X130239786Y-59816320D01*
X130249178Y-59809681D01*
X130249288Y-59809481D01*
X130251583Y-59798531D01*
X130247660Y-59783383D01*
X130246494Y-59780499D01*
X130241102Y-59758720D01*
X130241634Y-59744423D01*
X130242307Y-59731861D01*
X130238143Y-59719788D01*
X130229297Y-59706155D01*
X130218985Y-59690179D01*
X130211564Y-59673687D01*
X130206375Y-59654230D01*
X130202758Y-59629357D01*
X130200134Y-59597838D01*
X130198781Y-59574293D01*
X130198650Y-59558616D01*
X130199984Y-59548484D01*
X130203024Y-59541577D01*
X130206446Y-59537250D01*
X130213608Y-59531068D01*
X130222468Y-59528622D01*
X130236574Y-59529214D01*
X130243303Y-59529997D01*
X130264086Y-59533977D01*
X130284820Y-59540060D01*
X130292020Y-59542884D01*
X130309278Y-59548273D01*
X130333180Y-59552746D01*
X130359592Y-59555592D01*
X130402992Y-59558840D01*
X130437673Y-59562017D01*
X130465148Y-59565389D01*
X130486930Y-59569226D01*
X130504534Y-59573794D01*
X130519472Y-59579362D01*
X130533257Y-59586197D01*
X130533635Y-59586406D01*
X130562185Y-59600508D01*
X130588827Y-59609292D01*
X130617690Y-59613792D01*
X130648043Y-59615028D01*
X130686254Y-59611758D01*
X130720253Y-59600773D01*
X130752526Y-59581114D01*
X130767180Y-59569155D01*
X130786642Y-59553155D01*
X130801982Y-59543500D01*
X130815842Y-59538851D01*
X130828915Y-59537837D01*
X130840745Y-59536954D01*
X130859823Y-59534468D01*
X130883356Y-59530777D01*
X130904755Y-59526995D01*
X130929073Y-59522479D01*
X130950484Y-59518525D01*
X130966513Y-59515589D01*
X130974266Y-59514199D01*
X130984116Y-59510076D01*
X130997986Y-59501455D01*
X131007539Y-59494377D01*
X131029139Y-59480826D01*
X131047866Y-59476638D01*
X131063309Y-59481896D01*
X131064341Y-59482688D01*
X131070923Y-59489519D01*
X131077674Y-59500167D01*
X131085228Y-59516013D01*
X131094221Y-59538439D01*
X131105288Y-59568825D01*
X131109639Y-59581227D01*
X131118137Y-59605533D01*
X131125710Y-59627057D01*
X131131564Y-59643549D01*
X131134905Y-59652760D01*
X131135012Y-59653042D01*
X131141439Y-59662002D01*
X131153238Y-59672923D01*
X131160096Y-59678066D01*
X131173090Y-59686264D01*
X131184247Y-59690220D01*
X131197908Y-59690910D01*
X131212499Y-59689865D01*
X131231994Y-59687218D01*
X131245578Y-59682447D01*
X131257571Y-59673805D01*
X131261755Y-59669960D01*
X131278902Y-59649729D01*
X131290835Y-59627633D01*
X131296267Y-59606504D01*
X131295793Y-59595071D01*
X131295024Y-59584816D01*
X131298133Y-59577010D01*
X131306278Y-59571242D01*
X131320614Y-59567101D01*
X131342299Y-59564174D01*
X131372487Y-59562050D01*
X131391051Y-59561165D01*
X131444378Y-59558715D01*
X131488783Y-59556243D01*
X131525578Y-59553532D01*
X131556077Y-59550364D01*
X131581594Y-59546523D01*
X131603442Y-59541790D01*
X131622934Y-59535950D01*
X131641383Y-59528785D01*
X131660104Y-59520079D01*
X131670032Y-59515050D01*
X131698808Y-59499868D01*
X131720892Y-59487240D01*
X131738884Y-59475434D01*
X131755388Y-59462712D01*
X131773005Y-59447341D01*
X131776883Y-59443804D01*
X131793526Y-59428947D01*
X131808930Y-59415891D01*
X131820356Y-59406937D01*
X131822393Y-59405529D01*
X131835112Y-59394985D01*
X131851242Y-59378314D01*
X131869575Y-59357139D01*
X131888904Y-59333083D01*
X131908020Y-59307768D01*
X131925717Y-59282817D01*
X131940785Y-59259854D01*
X131952018Y-59240500D01*
X131958208Y-59226378D01*
X131959032Y-59221957D01*
X131961044Y-59208623D01*
X131964538Y-59196864D01*
X131968024Y-59183770D01*
X131971135Y-59165548D01*
X131972428Y-59154299D01*
X131976213Y-59128206D01*
X131982973Y-59096316D01*
X131991795Y-59062304D01*
X132001769Y-59029847D01*
X132006815Y-59015588D01*
X132013445Y-58992478D01*
X132016639Y-58966196D01*
X132017143Y-58944228D01*
X132017345Y-58922442D01*
X132018580Y-58908138D01*
X132021441Y-58898569D01*
X132026520Y-58890990D01*
X132029287Y-58887920D01*
X132040968Y-58873925D01*
X132051747Y-58858659D01*
X132051758Y-58858641D01*
X132057833Y-58847518D01*
X132059160Y-58838202D01*
X132056103Y-58825753D01*
X132054511Y-58821035D01*
X132049625Y-58800950D01*
X132050696Y-58782755D01*
X132058162Y-58762314D01*
X132061393Y-58755751D01*
X132066171Y-58741165D01*
X132070380Y-58718389D01*
X132073875Y-58689464D01*
X132076513Y-58656427D01*
X132078149Y-58621319D01*
X132078640Y-58586178D01*
X132077841Y-58553044D01*
X132076844Y-58536970D01*
X132075769Y-58522173D01*
X132144149Y-58522173D01*
X132144356Y-58578221D01*
X132145351Y-58624745D01*
X132147258Y-58662438D01*
X132150203Y-58691994D01*
X132154310Y-58714103D01*
X132159702Y-58729460D01*
X132166504Y-58738756D01*
X132174841Y-58742685D01*
X132183654Y-58742229D01*
X132196793Y-58739492D01*
X132214641Y-58736048D01*
X132223651Y-58734390D01*
X132247848Y-58732226D01*
X132270515Y-58735848D01*
X132274374Y-58736957D01*
X132296596Y-58742607D01*
X132312185Y-58743546D01*
X132323689Y-58739590D01*
X132331671Y-58732768D01*
X132336060Y-58727225D01*
X132340126Y-58719686D01*
X132344346Y-58708672D01*
X132349197Y-58692702D01*
X132355153Y-58670297D01*
X132362692Y-58639977D01*
X132366265Y-58625271D01*
X132371804Y-58605916D01*
X132379097Y-58585197D01*
X132387152Y-58565404D01*
X132394979Y-58548831D01*
X132401587Y-58537769D01*
X132405535Y-58534411D01*
X132409072Y-58538650D01*
X132409713Y-58543444D01*
X132412947Y-58554219D01*
X132421209Y-58568427D01*
X132432340Y-58583336D01*
X132444184Y-58596218D01*
X132454581Y-58604340D01*
X132458996Y-58605793D01*
X132465255Y-58605656D01*
X132470360Y-58604170D01*
X132474595Y-58600265D01*
X132478244Y-58592870D01*
X132481591Y-58580912D01*
X132484921Y-58563321D01*
X132488516Y-58539026D01*
X132492662Y-58506955D01*
X132497642Y-58466036D01*
X132498959Y-58455068D01*
X132502577Y-58417225D01*
X132503189Y-58387569D01*
X132500712Y-58364476D01*
X132495063Y-58346320D01*
X132493192Y-58342452D01*
X132489600Y-58332355D01*
X132485327Y-58315754D01*
X132481323Y-58296382D01*
X132476978Y-58278534D01*
X132470188Y-58257418D01*
X132461821Y-58235042D01*
X132452741Y-58213414D01*
X132443815Y-58194543D01*
X132435909Y-58180436D01*
X132429889Y-58173102D01*
X132427937Y-58172572D01*
X132424597Y-58175267D01*
X132422076Y-58181511D01*
X132420330Y-58192305D01*
X132419318Y-58208651D01*
X132418997Y-58231550D01*
X132419326Y-58262003D01*
X132420261Y-58301012D01*
X132421200Y-58332214D01*
X132422288Y-58373013D01*
X132422810Y-58408089D01*
X132422771Y-58436407D01*
X132422176Y-58456931D01*
X132421031Y-58468625D01*
X132420508Y-58470424D01*
X132414891Y-58483960D01*
X132412445Y-58490798D01*
X132409850Y-58495907D01*
X132405816Y-58495322D01*
X132398476Y-58488107D01*
X132392005Y-58480561D01*
X132382495Y-58467308D01*
X132374992Y-58451590D01*
X132368314Y-58430535D01*
X132363608Y-58411557D01*
X132353435Y-58369192D01*
X132344468Y-58335788D01*
X132336202Y-58310212D01*
X132328131Y-58291332D01*
X132319751Y-58278015D01*
X132310555Y-58269129D01*
X132300038Y-58263540D01*
X132297097Y-58262511D01*
X132279689Y-58255554D01*
X132262743Y-58246833D01*
X132262551Y-58246718D01*
X132251991Y-58240998D01*
X132243281Y-58239295D01*
X132232138Y-58241425D01*
X132221055Y-58244946D01*
X132201642Y-58253179D01*
X132187449Y-58264338D01*
X132176475Y-58280721D01*
X132166722Y-58304627D01*
X132165183Y-58309179D01*
X132158857Y-58329756D01*
X132153915Y-58349979D01*
X132150193Y-58371511D01*
X132147527Y-58396015D01*
X132145752Y-58425153D01*
X132144704Y-58460590D01*
X132144219Y-58503987D01*
X132144149Y-58522173D01*
X132075769Y-58522173D01*
X132074882Y-58509973D01*
X132072745Y-58477421D01*
X132070731Y-58443986D01*
X132069513Y-58421795D01*
X132067283Y-58386663D01*
X132064422Y-58359084D01*
X132060470Y-58336374D01*
X132054968Y-58315849D01*
X132048062Y-58296382D01*
X132043810Y-58279700D01*
X132040621Y-58255626D01*
X132038859Y-58226982D01*
X132038795Y-58224717D01*
X132036074Y-58183339D01*
X132030372Y-58150500D01*
X132021801Y-58126724D01*
X132015954Y-58117761D01*
X132006836Y-58110290D01*
X131992063Y-58101485D01*
X131981005Y-58096070D01*
X131965314Y-58088302D01*
X131957144Y-58081624D01*
X131954286Y-58073950D01*
X131954131Y-58070683D01*
X131951237Y-58055951D01*
X131943673Y-58037243D01*
X131933115Y-58017466D01*
X131921240Y-57999531D01*
X131909726Y-57986347D01*
X131902710Y-57981473D01*
X131890483Y-57972488D01*
X131877467Y-57956849D01*
X131865796Y-57937715D01*
X131857605Y-57918243D01*
X131856069Y-57912464D01*
X131853277Y-57898811D01*
X131849674Y-57880032D01*
X131847232Y-57866771D01*
X131843468Y-57849657D01*
X131839343Y-57836509D01*
X131836517Y-57831195D01*
X131832454Y-57822372D01*
X131831227Y-57812901D01*
X131828306Y-57798947D01*
X131820193Y-57778632D01*
X131807747Y-57753853D01*
X131792864Y-57728183D01*
X131783944Y-57711886D01*
X131781007Y-57699051D01*
X131784044Y-57685712D01*
X131792713Y-57668493D01*
X131800027Y-57654422D01*
X131802651Y-57644098D01*
X131801119Y-57632545D01*
X131797832Y-57620965D01*
X131793409Y-57604162D01*
X131790712Y-57589854D01*
X131790326Y-57585123D01*
X131788034Y-57573854D01*
X131782304Y-57558885D01*
X131779916Y-57553943D01*
X131773409Y-57539295D01*
X131765542Y-57518743D01*
X131757803Y-57496220D01*
X131756256Y-57491363D01*
X131745422Y-57462206D01*
X131733511Y-57442093D01*
X131719380Y-57429832D01*
X131701889Y-57424230D01*
X131691394Y-57423553D01*
X131660714Y-57419867D01*
X131626606Y-57408680D01*
X131590263Y-57390955D01*
X131572093Y-57381841D01*
X131555833Y-57375214D01*
X131544782Y-57372406D01*
X131544193Y-57372386D01*
X131528128Y-57368353D01*
X131510867Y-57357988D01*
X131496415Y-57343779D01*
X131495001Y-57341849D01*
X131485892Y-57333413D01*
X131471011Y-57323932D01*
X131459181Y-57318022D01*
X131436383Y-57305033D01*
X131423002Y-57290227D01*
X131422775Y-57289817D01*
X131405904Y-57264105D01*
X131387267Y-57244673D01*
X131375112Y-57236467D01*
X131366399Y-57230322D01*
X131353022Y-57218983D01*
X131336586Y-57204020D01*
X131318694Y-57187006D01*
X131300951Y-57169511D01*
X131284960Y-57153109D01*
X131272324Y-57139370D01*
X131264649Y-57129866D01*
X131263079Y-57126683D01*
X131258614Y-57121684D01*
X131246664Y-57114237D01*
X131229395Y-57105313D01*
X131208972Y-57095880D01*
X131187561Y-57086908D01*
X131167328Y-57079365D01*
X131150440Y-57074221D01*
X131142238Y-57072617D01*
X131121575Y-57068517D01*
X131099710Y-57061714D01*
X131092927Y-57058967D01*
X131079525Y-57053421D01*
X131069046Y-57050962D01*
X131057653Y-57051419D01*
X131041511Y-57054621D01*
X131034060Y-57056351D01*
X131012446Y-57060785D01*
X130985534Y-57065401D01*
X130958217Y-57069378D01*
X130950826Y-57070306D01*
X130903545Y-57076516D01*
X130862916Y-57082964D01*
X130829876Y-57089471D01*
X130805360Y-57095854D01*
X130792315Y-57100851D01*
X130776156Y-57107918D01*
X130760790Y-57113120D01*
X130759413Y-57113470D01*
X130744605Y-57118865D01*
X130723588Y-57128936D01*
X130698515Y-57142451D01*
X130671539Y-57158178D01*
X130644813Y-57174885D01*
X130620489Y-57191341D01*
X130610217Y-57198850D01*
X130589936Y-57213181D01*
X130569573Y-57225941D01*
X130552436Y-57235111D01*
X130546950Y-57237425D01*
X130529903Y-57243961D01*
X130508297Y-57252665D01*
X130487881Y-57261200D01*
X130467700Y-57269244D01*
X130452311Y-57273366D01*
X130437406Y-57274335D01*
X130420926Y-57273156D01*
X130397092Y-57269764D01*
X130371388Y-57264711D01*
X130359183Y-57261721D01*
X130338680Y-57256386D01*
X130318608Y-57251517D01*
X130308403Y-57249246D01*
X130292893Y-57244447D01*
X130271426Y-57235766D01*
X130246845Y-57224549D01*
X130221995Y-57212143D01*
X130199722Y-57199893D01*
X130185972Y-57191316D01*
X130171711Y-57183884D01*
X130151745Y-57176219D01*
X130130675Y-57170055D01*
X130110234Y-57164901D01*
X130083692Y-57157922D01*
X130054790Y-57150113D01*
X130032251Y-57143871D01*
X130007793Y-57137244D01*
X129986166Y-57131814D01*
X129969688Y-57128136D01*
X129960675Y-57126762D01*
X129960586Y-57126762D01*
X129945468Y-57129925D01*
X129924804Y-57138393D01*
X129900814Y-57150802D01*
X129875719Y-57165790D01*
X129851741Y-57181991D01*
X129831100Y-57198043D01*
X129816017Y-57212582D01*
X129811687Y-57218189D01*
X129800768Y-57231469D01*
X129785227Y-57246642D01*
X129772478Y-57257244D01*
X129756178Y-57270772D01*
X129736596Y-57288656D01*
X129717278Y-57307622D01*
X129712178Y-57312914D01*
X129695411Y-57329687D01*
X129673376Y-57350461D01*
X129648745Y-57372774D01*
X129624194Y-57394167D01*
X129620409Y-57397376D01*
X129598351Y-57415994D01*
X129577745Y-57433388D01*
X129560494Y-57447951D01*
X129548501Y-57458077D01*
X129545909Y-57460266D01*
X129533197Y-57469632D01*
X129515222Y-57481217D01*
X129495825Y-57492551D01*
X129495379Y-57492796D01*
X129478073Y-57501953D01*
X129464598Y-57507506D01*
X129451258Y-57510302D01*
X129434359Y-57511190D01*
X129415647Y-57511095D01*
X129370315Y-57510485D01*
X129335040Y-57552788D01*
X129319072Y-57572669D01*
X129304537Y-57592067D01*
X129293445Y-57608236D01*
X129289109Y-57615568D01*
X129281075Y-57635352D01*
X129272959Y-57663126D01*
X129265248Y-57696660D01*
X129258433Y-57733723D01*
X129253002Y-57772083D01*
X129251192Y-57788636D01*
X129248436Y-57812625D01*
X129245290Y-57833851D01*
X129242198Y-57849591D01*
X129240223Y-57856062D01*
X129237348Y-57870431D01*
X129240535Y-57884855D01*
X129243541Y-57898051D01*
X129242087Y-57911511D01*
X129237796Y-57924926D01*
X129228768Y-57946084D01*
X129220634Y-57957457D01*
X129213057Y-57959420D01*
X129209155Y-57956778D01*
X129206852Y-57951548D01*
X129205145Y-57940447D01*
X129203982Y-57922503D01*
X129203314Y-57896746D01*
X129203088Y-57862203D01*
X129203123Y-57841822D01*
X129204640Y-57770410D01*
X129208682Y-57708314D01*
X129215340Y-57654907D01*
X129224701Y-57609560D01*
X129236856Y-57571647D01*
X129243666Y-57555993D01*
X129257062Y-57521277D01*
X129262103Y-57490866D01*
X129258841Y-57465245D01*
X129247327Y-57444901D01*
X129230445Y-57431768D01*
X129212653Y-57424958D01*
X129197675Y-57426247D01*
X129183865Y-57436275D01*
X129169719Y-57455456D01*
X129162299Y-57469614D01*
X129153407Y-57489890D01*
X129143945Y-57513792D01*
X129134813Y-57538827D01*
X129126912Y-57562505D01*
X129121144Y-57582333D01*
X129118408Y-57595820D01*
X129118303Y-57597651D01*
X129116187Y-57606024D01*
X129110714Y-57620330D01*
X129103727Y-57636043D01*
X129094133Y-57657732D01*
X129084850Y-57680964D01*
X129079945Y-57694653D01*
X129067686Y-57720718D01*
X129049965Y-57744912D01*
X129049113Y-57745842D01*
X129036919Y-57760236D01*
X129022814Y-57778777D01*
X129008119Y-57799478D01*
X128994159Y-57820353D01*
X128982253Y-57839413D01*
X128973726Y-57854671D01*
X128969898Y-57864140D01*
X128969810Y-57865027D01*
X128972848Y-57872475D01*
X128980905Y-57885276D01*
X128992390Y-57900961D01*
X128995404Y-57904786D01*
X129007435Y-57920493D01*
X129016464Y-57933535D01*
X129020914Y-57941593D01*
X129021126Y-57942550D01*
X129024847Y-57952450D01*
X129034146Y-57966153D01*
X129046697Y-57980953D01*
X129060177Y-57994144D01*
X129072258Y-58003022D01*
X129073769Y-58003797D01*
X129095825Y-58013035D01*
X129112073Y-58016196D01*
X129125023Y-58013170D01*
X129137184Y-58003849D01*
X129140016Y-58000929D01*
X129155569Y-57986907D01*
X129173723Y-57973947D01*
X129178457Y-57971163D01*
X129194597Y-57963737D01*
X129204153Y-57963329D01*
X129207494Y-57970425D01*
X129204989Y-57985511D01*
X129200325Y-58000046D01*
X129192767Y-58021838D01*
X129185915Y-58042806D01*
X129178998Y-58065490D01*
X129171250Y-58092428D01*
X129161900Y-58126160D01*
X129159446Y-58135136D01*
X129152139Y-58160436D01*
X129144621Y-58184005D01*
X129137847Y-58202972D01*
X129133377Y-58213357D01*
X129126987Y-58228428D01*
X129123561Y-58241778D01*
X129123377Y-58244356D01*
X129120405Y-58255894D01*
X129113041Y-58269831D01*
X129110848Y-58272983D01*
X129101752Y-58287961D01*
X129095566Y-58302860D01*
X129095008Y-58305037D01*
X129089375Y-58318661D01*
X129081607Y-58323664D01*
X129073392Y-58320924D01*
X129066417Y-58311318D01*
X129062371Y-58295723D01*
X129061950Y-58287856D01*
X129060476Y-58273742D01*
X129054544Y-58265348D01*
X129047873Y-58261262D01*
X129028466Y-58253517D01*
X129003142Y-58246360D01*
X128976214Y-58240783D01*
X128951996Y-58237777D01*
X128944566Y-58237514D01*
X128919451Y-58238961D01*
X128901566Y-58244393D01*
X128888175Y-58255447D01*
X128876540Y-58273761D01*
X128873359Y-58280136D01*
X128865135Y-58298384D01*
X128861222Y-58311603D01*
X128860857Y-58323653D01*
X128862557Y-58334786D01*
X128863801Y-58348036D01*
X128864285Y-58369881D01*
X128864022Y-58398706D01*
X128863023Y-58432898D01*
X128861641Y-58464235D01*
X128859771Y-58506032D01*
X128858872Y-58538819D01*
X128620110Y-58538819D01*
X128620507Y-58503487D01*
X128621499Y-58468276D01*
X128623057Y-58440003D01*
X128625214Y-58420100D01*
X128625391Y-58419043D01*
X128630577Y-58396498D01*
X128637801Y-58374103D01*
X128644307Y-58359151D01*
X128652515Y-58341435D01*
X128658732Y-58323973D01*
X128660343Y-58317448D01*
X128665355Y-58302655D01*
X128672904Y-58291283D01*
X128673300Y-58290913D01*
X128679713Y-58283047D01*
X128680527Y-58278361D01*
X128681877Y-58272397D01*
X128685624Y-58268299D01*
X128693282Y-58264937D01*
X128700898Y-58269886D01*
X128705487Y-58278102D01*
X128707318Y-58292108D01*
X128706975Y-58310066D01*
X128706702Y-58330370D01*
X128708891Y-58343890D01*
X128714108Y-58353903D01*
X128714680Y-58354660D01*
X128721644Y-58367534D01*
X128724103Y-58378603D01*
X128728262Y-58389879D01*
X128738313Y-58401383D01*
X128750609Y-58409615D01*
X128758409Y-58411557D01*
X128766559Y-58407727D01*
X128778166Y-58397843D01*
X128790929Y-58384315D01*
X128802543Y-58369549D01*
X128809799Y-58357812D01*
X128817659Y-58344161D01*
X128828280Y-58327725D01*
X128832779Y-58321245D01*
X128841582Y-58307846D01*
X128844694Y-58298919D01*
X128843019Y-58291108D01*
X128841640Y-58288334D01*
X128839388Y-58278364D01*
X128838251Y-58260777D01*
X128838126Y-58238122D01*
X128838909Y-58212946D01*
X128840497Y-58187799D01*
X128842787Y-58165228D01*
X128845676Y-58147782D01*
X128847602Y-58140970D01*
X128854286Y-58129067D01*
X128865164Y-58114927D01*
X128870141Y-58109485D01*
X128879873Y-58098123D01*
X128886088Y-58086322D01*
X128890262Y-58070503D01*
X128892879Y-58054274D01*
X128896501Y-58033160D01*
X128900890Y-58013805D01*
X128905030Y-58000583D01*
X128909367Y-57986388D01*
X128913384Y-57966942D01*
X128915516Y-57952124D01*
X128919203Y-57930637D01*
X128924828Y-57909516D01*
X128929002Y-57898375D01*
X128935026Y-57883248D01*
X128938585Y-57870733D01*
X128938984Y-57867435D01*
X128936578Y-57859055D01*
X128930052Y-57844509D01*
X128920610Y-57826374D01*
X128916061Y-57818302D01*
X128893026Y-57778366D01*
X128893026Y-57701348D01*
X128893026Y-57624329D01*
X128907877Y-57608431D01*
X128918797Y-57598505D01*
X128928100Y-57592956D01*
X128930208Y-57592533D01*
X128939849Y-57590408D01*
X128955632Y-57584883D01*
X128974590Y-57577228D01*
X128993753Y-57568714D01*
X129010156Y-57560611D01*
X129020829Y-57554191D01*
X129022020Y-57553217D01*
X129027309Y-57546247D01*
X129030196Y-57536046D01*
X129030696Y-57521046D01*
X129028825Y-57499676D01*
X129024597Y-57470369D01*
X129022912Y-57460040D01*
X129014587Y-57409913D01*
X129038713Y-57341257D01*
X129047806Y-57315119D01*
X129055948Y-57291227D01*
X129062381Y-57271841D01*
X129066347Y-57259220D01*
X129066903Y-57257244D01*
X129080955Y-57219996D01*
X129101536Y-57187329D01*
X129113021Y-57174425D01*
X129127589Y-57157588D01*
X129135228Y-57141977D01*
X129137287Y-57132194D01*
X129139947Y-57119252D01*
X129143241Y-57111952D01*
X129144329Y-57111356D01*
X129148696Y-57106806D01*
X129152823Y-57095410D01*
X129155971Y-57080546D01*
X129157400Y-57065594D01*
X129156651Y-57055052D01*
X129150973Y-57041778D01*
X129141077Y-57027706D01*
X129138978Y-57025396D01*
X129126684Y-57006894D01*
X129120931Y-56989174D01*
X129119736Y-56979378D01*
X129120166Y-56970120D01*
X129122906Y-56959960D01*
X129128636Y-56947459D01*
X129138039Y-56931178D01*
X129151797Y-56909678D01*
X129170592Y-56881519D01*
X129175158Y-56874751D01*
X129194185Y-56847250D01*
X129212567Y-56822365D01*
X129231578Y-56798671D01*
X129252491Y-56774741D01*
X129276582Y-56749151D01*
X129305124Y-56720475D01*
X129339391Y-56687287D01*
X129361502Y-56666251D01*
X129389222Y-56640302D01*
X129411741Y-56620117D01*
X129431038Y-56604166D01*
X129449097Y-56590920D01*
X129467897Y-56578848D01*
X129489421Y-56566421D01*
X129494200Y-56563772D01*
X129515122Y-56551545D01*
X129534872Y-56538818D01*
X129549994Y-56527850D01*
X129553068Y-56525279D01*
X129564209Y-56516404D01*
X129579221Y-56505649D01*
X129591040Y-56497714D01*
X131237484Y-56497714D01*
X131238605Y-56505109D01*
X131243383Y-56503624D01*
X131245163Y-56502206D01*
X131251598Y-56494817D01*
X131252841Y-56491341D01*
X131248686Y-56487353D01*
X131245163Y-56486849D01*
X131238925Y-56491174D01*
X131237484Y-56497714D01*
X129591040Y-56497714D01*
X129595593Y-56494657D01*
X129610814Y-56485073D01*
X129622376Y-56478539D01*
X129627392Y-56476612D01*
X129632584Y-56474217D01*
X129644100Y-56467932D01*
X129659466Y-56459108D01*
X129659770Y-56458930D01*
X129681363Y-56447364D01*
X129705241Y-56436178D01*
X129720191Y-56430095D01*
X129736912Y-56423603D01*
X129749927Y-56417953D01*
X129755681Y-56414840D01*
X129762832Y-56411710D01*
X129777191Y-56407026D01*
X129796020Y-56401661D01*
X129801751Y-56400148D01*
X129812772Y-56396932D01*
X131346171Y-56396932D01*
X131346737Y-56401740D01*
X131353399Y-56406965D01*
X131362502Y-56409909D01*
X131363875Y-56409987D01*
X131371965Y-56406457D01*
X131373042Y-56405097D01*
X131371219Y-56400790D01*
X131363397Y-56397075D01*
X131353793Y-56395234D01*
X131346623Y-56396547D01*
X131346171Y-56396932D01*
X129812772Y-56396932D01*
X129825170Y-56393314D01*
X129848518Y-56385259D01*
X129867029Y-56377637D01*
X129868177Y-56377087D01*
X129890521Y-56366433D01*
X129909302Y-56358386D01*
X129926632Y-56352526D01*
X129944622Y-56348432D01*
X129965383Y-56345682D01*
X129991027Y-56343856D01*
X130023665Y-56342533D01*
X130044780Y-56341884D01*
X130086434Y-56340353D01*
X130118870Y-56338421D01*
X130143104Y-56335999D01*
X130160149Y-56332997D01*
X130166997Y-56331006D01*
X130185125Y-56325981D01*
X130202824Y-56323224D01*
X130207062Y-56323044D01*
X130227147Y-56318849D01*
X130242120Y-56306126D01*
X130252142Y-56284669D01*
X130256944Y-56258887D01*
X130260334Y-56236836D01*
X130265408Y-56215389D01*
X130270168Y-56201470D01*
X130277122Y-56187811D01*
X130284084Y-56181412D01*
X130293979Y-56179723D01*
X130295120Y-56179715D01*
X130305715Y-56177473D01*
X130322913Y-56171379D01*
X130344272Y-56162383D01*
X130365793Y-56152214D01*
X130407633Y-56131600D01*
X130440945Y-56115687D01*
X130466187Y-56104265D01*
X130483813Y-56097122D01*
X130489621Y-56095177D01*
X130504224Y-56089793D01*
X130524865Y-56080897D01*
X130548601Y-56069892D01*
X130572488Y-56058179D01*
X130593584Y-56047160D01*
X130608146Y-56038743D01*
X130626973Y-56028052D01*
X130647247Y-56018275D01*
X130653929Y-56015519D01*
X130669421Y-56009344D01*
X130690491Y-56000650D01*
X130713331Y-55991013D01*
X130720475Y-55987952D01*
X130744905Y-55977624D01*
X130770572Y-55967068D01*
X130792719Y-55958235D01*
X130796817Y-55956651D01*
X130816125Y-55948509D01*
X130840388Y-55937218D01*
X130865645Y-55924654D01*
X130877251Y-55918565D01*
X130924854Y-55893057D01*
X131614881Y-55893057D01*
X132304907Y-55893057D01*
X132309960Y-55904574D01*
G37*
G36*
X133948774Y-61517452D02*
G01*
X133949450Y-61527932D01*
X133948774Y-61530249D01*
X133946906Y-61530892D01*
X133946193Y-61523851D01*
X133946997Y-61516584D01*
X133948774Y-61517452D01*
G37*
G36*
X128904463Y-61120789D02*
G01*
X128907708Y-61125714D01*
X128907426Y-61128415D01*
X128901699Y-61135860D01*
X128891467Y-61139447D01*
X128882129Y-61137458D01*
X128881298Y-61136736D01*
X128877218Y-61128191D01*
X128882018Y-61121790D01*
X128893402Y-61119457D01*
X128904463Y-61120789D01*
G37*
G36*
X133453970Y-61101541D02*
G01*
X133451410Y-61104100D01*
X133448851Y-61101541D01*
X133451410Y-61098982D01*
X133453970Y-61101541D01*
G37*
G36*
X128884423Y-61085356D02*
G01*
X128886653Y-61090023D01*
X128880278Y-61095890D01*
X128869794Y-61098340D01*
X128861112Y-61096055D01*
X128860823Y-61095785D01*
X128857294Y-61088688D01*
X128863242Y-61084536D01*
X128872977Y-61083625D01*
X128884423Y-61085356D01*
G37*
G36*
X133809793Y-60983288D02*
G01*
X133809168Y-60988553D01*
X133803973Y-60994589D01*
X133797198Y-60996500D01*
X133792895Y-60993871D01*
X133793094Y-60990205D01*
X133799419Y-60983722D01*
X133803741Y-60982155D01*
X133809793Y-60983288D01*
G37*
G36*
X133394660Y-60951203D02*
G01*
X133401469Y-60960005D01*
X133401652Y-60971959D01*
X133394736Y-60983441D01*
X133388078Y-60989225D01*
X133381565Y-60990347D01*
X133370787Y-60987956D01*
X133363155Y-60982105D01*
X133362697Y-60973471D01*
X133367197Y-60968296D01*
X133369496Y-60962534D01*
X133366570Y-60957756D01*
X133363320Y-60951755D01*
X133367601Y-60949943D01*
X133379303Y-60948877D01*
X133382305Y-60948582D01*
X133394660Y-60951203D01*
G37*
G36*
X133333885Y-60873686D02*
G01*
X133334508Y-60883941D01*
X133334528Y-60886547D01*
X133334141Y-60899712D01*
X133332615Y-60903990D01*
X133329408Y-60900712D01*
X133329011Y-60900080D01*
X133327938Y-60892236D01*
X133329125Y-60880731D01*
X133331816Y-60871684D01*
X133332662Y-60870498D01*
X133333885Y-60873686D01*
G37*
G36*
X133350964Y-60843091D02*
G01*
X133352871Y-60843115D01*
X133355536Y-60844884D01*
X133351591Y-60848155D01*
X133346495Y-60852167D01*
X133350320Y-60853240D01*
X133351591Y-60853274D01*
X133356688Y-60854097D01*
X133352863Y-60857563D01*
X133351591Y-60858393D01*
X133342181Y-60862994D01*
X133338424Y-60859811D01*
X133338213Y-60853209D01*
X133340290Y-60844870D01*
X133342633Y-60842971D01*
X133350964Y-60843091D01*
G37*
G36*
X133950503Y-56576624D02*
G01*
X133950181Y-56588164D01*
X133949388Y-56593543D01*
X133949223Y-56593594D01*
X133943870Y-56592653D01*
X133931414Y-56591018D01*
X133919790Y-56589645D01*
X133902237Y-56586887D01*
X133887838Y-56583292D01*
X133882354Y-56581055D01*
X133875988Y-56576255D01*
X133878237Y-56571508D01*
X133881692Y-56568507D01*
X133891359Y-56564389D01*
X133907250Y-56561270D01*
X133920408Y-56560128D01*
X133950503Y-56558901D01*
X133950503Y-56576624D01*
G37*
G36*
X133854158Y-56561311D02*
G01*
X133864716Y-56564114D01*
X133866212Y-56566475D01*
X133860922Y-56569117D01*
X133845920Y-56573221D01*
X133837072Y-56570790D01*
X133835117Y-56568411D01*
X133833770Y-56561477D01*
X133841350Y-56559411D01*
X133854158Y-56561311D01*
G37*
G36*
X133748032Y-56534579D02*
G01*
X133767334Y-56537678D01*
X133784742Y-56542519D01*
X133797993Y-56548371D01*
X133804824Y-56554503D01*
X133804689Y-56558393D01*
X133798058Y-56561013D01*
X133783842Y-56562467D01*
X133764626Y-56562736D01*
X133743000Y-56561799D01*
X133721550Y-56559636D01*
X133717593Y-56559067D01*
X133703854Y-56555794D01*
X133697928Y-56550534D01*
X133697117Y-56545717D01*
X133698329Y-56540012D01*
X133703482Y-56536666D01*
X133714858Y-56534842D01*
X133729100Y-56533955D01*
X133748032Y-56534579D01*
G37*
G36*
X133545054Y-56517259D02*
G01*
X133551229Y-56518461D01*
X133567225Y-56520845D01*
X133587233Y-56522331D01*
X133596446Y-56522560D01*
X133613652Y-56523545D01*
X133621333Y-56526397D01*
X133621720Y-56528760D01*
X133620239Y-56532183D01*
X133617290Y-56534290D01*
X133610983Y-56535228D01*
X133599428Y-56535141D01*
X133580736Y-56534175D01*
X133564432Y-56533181D01*
X133541124Y-56531099D01*
X133524887Y-56528287D01*
X133517172Y-56525013D01*
X133516799Y-56524391D01*
X133518969Y-56518616D01*
X133529025Y-56516129D01*
X133545054Y-56517259D01*
G37*
G36*
X133408912Y-56491336D02*
G01*
X133414490Y-56492293D01*
X133433803Y-56495846D01*
X133452988Y-56499173D01*
X133455391Y-56499569D01*
X133466920Y-56502658D01*
X133471923Y-56506486D01*
X133471726Y-56507584D01*
X133464904Y-56510295D01*
X133450261Y-56511472D01*
X133430104Y-56511075D01*
X133406739Y-56509064D01*
X133404060Y-56508741D01*
X133391818Y-56504749D01*
X133387045Y-56497868D01*
X133390175Y-56490923D01*
X133396444Y-56490108D01*
X133408912Y-56491336D01*
G37*
G36*
X133223047Y-56442985D02*
G01*
X133227862Y-56450756D01*
X133228141Y-56461389D01*
X133223876Y-56468774D01*
X133217972Y-56467413D01*
X133213995Y-56462402D01*
X133211800Y-56452482D01*
X133214519Y-56444495D01*
X133220513Y-56441956D01*
X133223047Y-56442985D01*
G37*
G36*
X133014308Y-56417404D02*
G01*
X133016115Y-56428720D01*
X133015276Y-56440688D01*
X133011750Y-56448704D01*
X133010251Y-56449622D01*
X133003310Y-56447389D01*
X132999339Y-56442370D01*
X132997192Y-56431871D01*
X132999250Y-56420743D01*
X133004224Y-56412772D01*
X133009898Y-56411343D01*
X133014308Y-56417404D01*
G37*
G36*
X132620870Y-56365574D02*
G01*
X132627267Y-56369115D01*
X132625104Y-56372598D01*
X132614675Y-56374196D01*
X132612212Y-56374233D01*
X132600250Y-56372968D01*
X132594182Y-56369848D01*
X132593994Y-56369115D01*
X132598435Y-56365493D01*
X132609048Y-56363996D01*
X132620870Y-56365574D01*
G37*
G36*
X132416807Y-56330034D02*
G01*
X132440250Y-56332294D01*
X132466518Y-56334690D01*
X132481378Y-56335980D01*
X132506178Y-56338359D01*
X132522778Y-56340907D01*
X132533207Y-56344211D01*
X132539494Y-56348861D01*
X132542837Y-56353818D01*
X132545355Y-56360132D01*
X132542498Y-56362981D01*
X132532211Y-56363569D01*
X132526348Y-56363459D01*
X132506380Y-56361356D01*
X132486290Y-56356910D01*
X132483937Y-56356174D01*
X132467893Y-56352573D01*
X132446602Y-56349948D01*
X132427629Y-56348954D01*
X132402253Y-56347608D01*
X132386593Y-56344291D01*
X132380295Y-56338880D01*
X132381598Y-56333219D01*
X132387972Y-56329674D01*
X132401859Y-56328941D01*
X132416807Y-56330034D01*
G37*
G36*
X132227304Y-56299239D02*
G01*
X132242179Y-56303784D01*
X132256782Y-56309852D01*
X132268306Y-56316211D01*
X132273948Y-56321628D01*
X132273881Y-56323337D01*
X132266795Y-56326558D01*
X132252933Y-56327845D01*
X132235545Y-56327326D01*
X132217884Y-56325125D01*
X132203202Y-56321367D01*
X132201118Y-56320532D01*
X132188443Y-56312902D01*
X132185486Y-56305983D01*
X132191728Y-56300639D01*
X132206650Y-56297735D01*
X132214963Y-56297450D01*
X132227304Y-56299239D01*
G37*
G36*
X132094296Y-56284321D02*
G01*
X132111023Y-56286542D01*
X132125882Y-56289908D01*
X132133292Y-56292812D01*
X132133401Y-56295059D01*
X132126017Y-56296435D01*
X132113851Y-56296941D01*
X132099611Y-56296573D01*
X132086007Y-56295329D01*
X132075747Y-56293208D01*
X132074765Y-56292854D01*
X132068577Y-56288634D01*
X132070941Y-56285224D01*
X132079627Y-56283722D01*
X132094296Y-56284321D01*
G37*
G36*
X131837973Y-56249157D02*
G01*
X131864653Y-56250383D01*
X131892805Y-56252219D01*
X131920254Y-56254516D01*
X131944829Y-56257126D01*
X131964354Y-56259899D01*
X131976656Y-56262687D01*
X131978939Y-56263691D01*
X131984471Y-56271556D01*
X131984844Y-56274169D01*
X131980385Y-56282177D01*
X131968185Y-56286130D01*
X131950006Y-56285774D01*
X131931096Y-56281875D01*
X131914492Y-56277859D01*
X131892548Y-56273383D01*
X131868352Y-56268979D01*
X131844990Y-56265181D01*
X131825549Y-56262522D01*
X131813361Y-56261535D01*
X131801079Y-56260173D01*
X131791259Y-56257011D01*
X131786642Y-56253250D01*
X131788500Y-56250634D01*
X131797722Y-56249134D01*
X131814938Y-56248691D01*
X131837973Y-56249157D01*
G37*
G36*
X132984497Y-55985002D02*
G01*
X132988745Y-55994942D01*
X132999413Y-56011848D01*
X133015636Y-56022315D01*
X133034594Y-56025781D01*
X133053468Y-56021684D01*
X133068299Y-56010791D01*
X133081341Y-55998808D01*
X133090885Y-55996266D01*
X133097259Y-56003111D01*
X133098249Y-56005809D01*
X133103948Y-56016876D01*
X133113776Y-56024122D01*
X133129343Y-56028038D01*
X133152260Y-56029118D01*
X133172508Y-56028499D01*
X133197441Y-56026832D01*
X133214681Y-56024369D01*
X133226769Y-56020577D01*
X133235851Y-56015219D01*
X133246502Y-56008306D01*
X133254257Y-56007481D01*
X133264005Y-56012200D01*
X133278367Y-56018562D01*
X133295387Y-56023454D01*
X133296854Y-56023743D01*
X133314242Y-56030294D01*
X133325700Y-56043228D01*
X133332611Y-56064172D01*
X133333024Y-56066320D01*
X133334147Y-56088806D01*
X133327821Y-56104592D01*
X133316645Y-56113034D01*
X133305872Y-56115655D01*
X133286526Y-56117982D01*
X133260272Y-56119868D01*
X133228774Y-56121162D01*
X133224538Y-56121275D01*
X133197119Y-56122114D01*
X133173339Y-56123124D01*
X133155072Y-56124203D01*
X133144191Y-56125249D01*
X133142070Y-56125748D01*
X133136365Y-56126506D01*
X133135997Y-56126219D01*
X133130580Y-56125695D01*
X133116129Y-56125134D01*
X133093845Y-56124560D01*
X133064933Y-56123999D01*
X133030595Y-56123474D01*
X132992033Y-56123010D01*
X132962520Y-56122728D01*
X132791071Y-56121266D01*
X132771654Y-56103141D01*
X132760398Y-56092027D01*
X132755515Y-56084176D01*
X132755659Y-56076125D01*
X132758108Y-56068291D01*
X132761307Y-56054768D01*
X132758627Y-56043969D01*
X132755061Y-56037955D01*
X132750358Y-56030036D01*
X132749827Y-56024048D01*
X132754550Y-56017205D01*
X132765608Y-56006725D01*
X132768054Y-56004509D01*
X132789966Y-55984674D01*
X132803316Y-55997407D01*
X132817928Y-56009014D01*
X132833639Y-56015669D01*
X132853275Y-56018057D01*
X132879664Y-56016864D01*
X132882515Y-56016600D01*
X132904120Y-56013962D01*
X132918605Y-56010373D01*
X132929085Y-56004810D01*
X132935773Y-55999131D01*
X132949899Y-55988929D01*
X132965192Y-55982404D01*
X132966620Y-55982080D01*
X132978274Y-55980831D01*
X132984497Y-55985002D01*
G37*
G36*
X133950503Y-56003113D02*
G01*
X133950503Y-56113169D01*
X133915951Y-56112969D01*
X133894385Y-56111636D01*
X133874593Y-56108364D01*
X133863482Y-56104950D01*
X133851420Y-56101334D01*
X133831879Y-56097291D01*
X133807571Y-56093317D01*
X133781579Y-56089950D01*
X133752132Y-56086140D01*
X133721761Y-56081362D01*
X133694418Y-56076281D01*
X133677103Y-56072375D01*
X133653612Y-56067259D01*
X133629782Y-56063548D01*
X133610490Y-56061990D01*
X133609298Y-56061980D01*
X133588348Y-56060156D01*
X133564847Y-56055493D01*
X133552529Y-56051894D01*
X133532803Y-56046061D01*
X133507901Y-56039967D01*
X133482779Y-56034813D01*
X133479564Y-56034241D01*
X133448103Y-56028207D01*
X133425611Y-56022451D01*
X133410844Y-56016521D01*
X133402558Y-56009965D01*
X133400139Y-56005415D01*
X133399421Y-55995356D01*
X133400700Y-55979660D01*
X133403386Y-55961952D01*
X133406887Y-55945860D01*
X133410611Y-55935010D01*
X133411937Y-55933041D01*
X133418955Y-55929829D01*
X133432396Y-55926088D01*
X133441352Y-55924176D01*
X133461692Y-55918567D01*
X133481453Y-55910840D01*
X133547803Y-55910840D01*
X133556508Y-55917904D01*
X133574739Y-55927205D01*
X133574854Y-55927258D01*
X133593056Y-55934686D01*
X133608756Y-55938179D01*
X133627017Y-55938591D01*
X133638292Y-55937935D01*
X133661049Y-55937254D01*
X133677898Y-55939430D01*
X133692730Y-55944903D01*
X133706497Y-55949255D01*
X133724620Y-55952080D01*
X133744302Y-55953330D01*
X133762748Y-55952962D01*
X133777160Y-55950930D01*
X133784742Y-55947188D01*
X133785142Y-55946407D01*
X133782542Y-55940053D01*
X133771968Y-55934490D01*
X133755682Y-55930507D01*
X133735947Y-55928893D01*
X133734859Y-55928889D01*
X133714254Y-55926694D01*
X133688119Y-55920639D01*
X133665586Y-55913532D01*
X133626583Y-55902542D01*
X133591274Y-55898125D01*
X133561419Y-55900481D01*
X133557627Y-55901402D01*
X133548288Y-55905507D01*
X133547803Y-55910840D01*
X133481453Y-55910840D01*
X133483379Y-55910087D01*
X133491352Y-55906184D01*
X133515938Y-55893057D01*
X133733221Y-55893057D01*
X133950503Y-55893057D01*
X133950503Y-56003113D01*
G37*
G36*
X129723321Y-55894041D02*
G01*
X129755632Y-55894907D01*
X129783606Y-55896549D01*
X129809213Y-55899164D01*
X129834418Y-55902953D01*
X129861189Y-55908113D01*
X129891492Y-55914844D01*
X129925686Y-55922958D01*
X129995357Y-55938493D01*
X130056886Y-55949526D01*
X130111240Y-55956224D01*
X130124123Y-55957262D01*
X130148040Y-55959734D01*
X130174726Y-55963727D01*
X130201916Y-55968757D01*
X130227347Y-55974339D01*
X130248756Y-55979988D01*
X130263879Y-55985219D01*
X130269572Y-55988423D01*
X130274149Y-55995230D01*
X130270225Y-56002856D01*
X130265039Y-56006934D01*
X130256652Y-56009244D01*
X130243432Y-56009833D01*
X130223744Y-56008748D01*
X130195955Y-56006032D01*
X130188109Y-56005167D01*
X130164209Y-56001845D01*
X130139714Y-55997416D01*
X130121563Y-55993248D01*
X130105643Y-55989972D01*
X130082476Y-55986527D01*
X130055040Y-55983300D01*
X130026311Y-55980678D01*
X130023227Y-55980445D01*
X129995844Y-55977993D01*
X129970698Y-55974958D01*
X129950298Y-55971695D01*
X129937149Y-55968561D01*
X129935708Y-55968022D01*
X129920205Y-55963078D01*
X129900475Y-55958728D01*
X129890715Y-55957203D01*
X129871197Y-55954470D01*
X129847976Y-55950905D01*
X129823660Y-55946949D01*
X129800859Y-55943039D01*
X129782183Y-55939616D01*
X129770240Y-55937118D01*
X129768359Y-55936614D01*
X129760071Y-55935029D01*
X129744361Y-55932762D01*
X129723987Y-55930198D01*
X129713701Y-55929012D01*
X129685707Y-55925209D01*
X129654966Y-55920001D01*
X129627501Y-55914421D01*
X129624044Y-55913618D01*
X129596656Y-55907903D01*
X129565781Y-55902640D01*
X129538076Y-55898965D01*
X129537932Y-55898950D01*
X129526971Y-55897625D01*
X129522463Y-55896554D01*
X129524992Y-55895704D01*
X129535144Y-55895048D01*
X129553504Y-55894553D01*
X129580655Y-55894191D01*
X129617184Y-55893932D01*
X129637827Y-55893837D01*
X129684709Y-55893751D01*
X129723321Y-55894041D01*
G37*
G36*
X132972716Y-55893173D02*
G01*
X132994369Y-55893775D01*
X133008292Y-55895238D01*
X133015739Y-55897937D01*
X133017963Y-55902249D01*
X133016219Y-55908551D01*
X133013272Y-55914414D01*
X133009248Y-55920001D01*
X133003082Y-55922667D01*
X132992061Y-55922903D01*
X132974785Y-55921339D01*
X132956837Y-55919668D01*
X132945453Y-55920159D01*
X132937023Y-55923854D01*
X132927935Y-55931798D01*
X132923557Y-55936150D01*
X132908226Y-55948883D01*
X132894191Y-55954112D01*
X132888672Y-55954483D01*
X132876205Y-55953519D01*
X132868833Y-55951186D01*
X132868708Y-55951071D01*
X132866791Y-55944406D01*
X132865553Y-55930988D01*
X132865296Y-55920357D01*
X132865296Y-55893057D01*
X132942079Y-55893057D01*
X132972716Y-55893173D01*
G37*
G36*
X133336235Y-55936567D02*
G01*
X133341158Y-55943111D01*
X133341354Y-55944548D01*
X133337449Y-55949227D01*
X133336235Y-55949364D01*
X133331742Y-55945198D01*
X133331116Y-55941384D01*
X133333597Y-55936086D01*
X133336235Y-55936567D01*
G37*
G36*
X133169078Y-55895561D02*
G01*
X133174721Y-55903972D01*
X133173981Y-55919637D01*
X133173851Y-55920331D01*
X133169584Y-55933431D01*
X133163723Y-55936419D01*
X133156266Y-55929295D01*
X133155272Y-55927772D01*
X133148136Y-55914120D01*
X133144464Y-55904574D01*
X133143340Y-55896449D01*
X133148414Y-55893417D01*
X133156180Y-55893057D01*
X133169078Y-55895561D01*
G37*
G36*
X130518278Y-55903871D02*
G01*
X130482188Y-55915146D01*
X130439686Y-55923111D01*
X130394148Y-55927451D01*
X130348955Y-55927850D01*
X130307482Y-55923992D01*
X130305844Y-55923727D01*
X130285857Y-55920189D01*
X130263897Y-55915957D01*
X130257617Y-55914671D01*
X130241782Y-55912065D01*
X130229680Y-55911325D01*
X130226111Y-55911831D01*
X130218138Y-55911956D01*
X130203572Y-55909890D01*
X130187316Y-55906477D01*
X130168734Y-55902061D01*
X130152981Y-55898376D01*
X130144598Y-55896472D01*
X130147262Y-55895980D01*
X130159152Y-55895509D01*
X130179254Y-55895071D01*
X130206556Y-55894681D01*
X130240047Y-55894352D01*
X130278713Y-55894096D01*
X130321541Y-55893928D01*
X130339117Y-55893890D01*
X130543873Y-55893535D01*
X130518278Y-55903871D01*
G37*
G36*
X133903153Y-61524825D02*
G01*
X133910611Y-61530623D01*
X133912111Y-61536291D01*
X133909117Y-61545518D01*
X133902422Y-61548574D01*
X133897714Y-61546139D01*
X133893838Y-61537643D01*
X133895375Y-61529026D01*
X133901196Y-61524717D01*
X133903153Y-61524825D01*
G37*
G36*
X130807348Y-60313051D02*
G01*
X130810056Y-60313247D01*
X130836701Y-60316520D01*
X130861362Y-60321527D01*
X130881910Y-60327651D01*
X130896214Y-60334273D01*
X130901911Y-60339928D01*
X130900846Y-60350432D01*
X130892214Y-60363933D01*
X130877680Y-60379003D01*
X130858909Y-60394212D01*
X130837567Y-60408134D01*
X130815318Y-60419337D01*
X130804662Y-60423378D01*
X130779868Y-60433760D01*
X130763857Y-60445296D01*
X130761572Y-60447999D01*
X130753126Y-60458791D01*
X130746839Y-60465950D01*
X130746711Y-60466072D01*
X130740446Y-60472005D01*
X130729818Y-60482080D01*
X130723760Y-60487827D01*
X130713196Y-60497135D01*
X130703896Y-60502297D01*
X130692233Y-60504474D01*
X130674583Y-60504823D01*
X130670736Y-60504785D01*
X130650291Y-60503816D01*
X130631778Y-60501700D01*
X130620656Y-60499291D01*
X130596968Y-60489424D01*
X130571674Y-60475559D01*
X130546979Y-60459279D01*
X130525093Y-60442167D01*
X130508222Y-60425808D01*
X130498574Y-60411785D01*
X130498523Y-60411666D01*
X130491029Y-60399607D01*
X130478452Y-60384586D01*
X130465224Y-60371458D01*
X130448720Y-60355454D01*
X130440711Y-60344056D01*
X130441212Y-60336135D01*
X130450238Y-60330562D01*
X130465809Y-60326591D01*
X130499145Y-60320341D01*
X130525194Y-60316307D01*
X130546605Y-60314240D01*
X130566029Y-60313890D01*
X130586115Y-60315007D01*
X130587562Y-60315129D01*
X130607415Y-60316072D01*
X130634195Y-60316289D01*
X130664621Y-60315802D01*
X130695409Y-60314632D01*
X130700178Y-60314382D01*
X130730377Y-60313080D01*
X130760412Y-60312403D01*
X130787122Y-60312382D01*
X130807348Y-60313051D01*
G37*
G36*
X129951646Y-58378762D02*
G01*
X129988475Y-58379897D01*
X130019032Y-58382123D01*
X130045297Y-58385748D01*
X130069247Y-58391076D01*
X130092861Y-58398414D01*
X130118115Y-58408069D01*
X130129892Y-58412975D01*
X130150548Y-58421460D01*
X130169180Y-58428638D01*
X130182632Y-58433310D01*
X130185394Y-58434096D01*
X130197946Y-58438323D01*
X130214888Y-58445330D01*
X130225373Y-58450165D01*
X130243074Y-58457322D01*
X130259856Y-58461879D01*
X130267491Y-58462746D01*
X130276597Y-58463940D01*
X130285199Y-58468598D01*
X130295374Y-58478338D01*
X130309197Y-58494776D01*
X130310134Y-58495944D01*
X130327701Y-58515846D01*
X130342441Y-58528441D01*
X130350724Y-58532430D01*
X130361698Y-58536732D01*
X130377018Y-58544744D01*
X130393644Y-58554617D01*
X130408537Y-58564502D01*
X130418657Y-58572550D01*
X130420851Y-58575090D01*
X130423349Y-58582397D01*
X130426699Y-58596196D01*
X130428906Y-58606959D01*
X130430614Y-58625225D01*
X130430563Y-58649768D01*
X130429012Y-58677201D01*
X130426221Y-58704133D01*
X130422451Y-58727174D01*
X130418582Y-58741404D01*
X130411714Y-58749051D01*
X130396039Y-58759976D01*
X130372277Y-58773707D01*
X130356413Y-58782085D01*
X130333203Y-58794270D01*
X130312408Y-58805636D01*
X130296241Y-58814945D01*
X130286912Y-58820957D01*
X130286686Y-58821132D01*
X130276363Y-58827206D01*
X130259584Y-58834990D01*
X130239615Y-58842991D01*
X130235403Y-58844531D01*
X130213793Y-58853527D01*
X130193477Y-58864090D01*
X130178466Y-58874106D01*
X130177167Y-58875210D01*
X130162090Y-58886097D01*
X130146358Y-58893878D01*
X130141334Y-58895375D01*
X130128510Y-58899771D01*
X130110615Y-58907936D01*
X130091254Y-58918206D01*
X130088899Y-58919561D01*
X130072427Y-58928643D01*
X130056413Y-58936119D01*
X130038809Y-58942652D01*
X130017569Y-58948902D01*
X129990647Y-58955532D01*
X129955997Y-58963204D01*
X129950080Y-58964470D01*
X129913314Y-58970708D01*
X129876641Y-58973291D01*
X129836518Y-58972336D01*
X129801632Y-58969325D01*
X129769286Y-58962293D01*
X129735281Y-58948802D01*
X129702653Y-58930531D01*
X129674440Y-58909161D01*
X129655043Y-58888275D01*
X129639692Y-58872049D01*
X129620083Y-58861377D01*
X129613875Y-58859157D01*
X129595349Y-58851121D01*
X129578330Y-58840698D01*
X129572350Y-58835772D01*
X129559788Y-58826370D01*
X129547757Y-58821336D01*
X129545261Y-58821069D01*
X129521325Y-58816178D01*
X129496503Y-58801916D01*
X129488390Y-58795293D01*
X129476182Y-58786015D01*
X129465947Y-58780649D01*
X129463300Y-58780118D01*
X129454995Y-58776472D01*
X129442369Y-58766896D01*
X129430304Y-58755959D01*
X129788834Y-58755959D01*
X129791712Y-58768947D01*
X129798698Y-58781290D01*
X129807319Y-58789222D01*
X129811397Y-58790356D01*
X129819497Y-58792628D01*
X129832785Y-58798421D01*
X129841138Y-58802647D01*
X129856539Y-58810392D01*
X129869541Y-58816181D01*
X129873894Y-58817748D01*
X129887786Y-58819472D01*
X129908533Y-58819343D01*
X129932976Y-58817642D01*
X129957957Y-58814648D01*
X129980318Y-58810643D01*
X129993591Y-58807105D01*
X130017684Y-58798103D01*
X130039854Y-58788035D01*
X130058167Y-58777968D01*
X130070689Y-58768967D01*
X130075489Y-58762099D01*
X130075493Y-58761936D01*
X130072193Y-58749656D01*
X130061745Y-58736716D01*
X130043326Y-58722368D01*
X130016114Y-58705869D01*
X130009764Y-58702365D01*
X129987798Y-58690552D01*
X129971923Y-58682862D01*
X129959273Y-58678460D01*
X129946983Y-58676514D01*
X129932186Y-58676190D01*
X129920635Y-58676433D01*
X129892371Y-58678505D01*
X129869561Y-58683662D01*
X129853931Y-58689810D01*
X129834349Y-58701115D01*
X129815969Y-58715782D01*
X129800899Y-58731669D01*
X129791248Y-58746631D01*
X129788834Y-58755959D01*
X129430304Y-58755959D01*
X129427518Y-58753433D01*
X129412543Y-58738127D01*
X129399542Y-58723022D01*
X129390613Y-58710160D01*
X129389724Y-58708489D01*
X129383093Y-58692466D01*
X129376720Y-58672655D01*
X129374465Y-58663985D01*
X129371137Y-58646833D01*
X129371285Y-58635193D01*
X129375069Y-58624890D01*
X129376052Y-58623033D01*
X129384360Y-58607076D01*
X129393135Y-58589148D01*
X129401147Y-58571907D01*
X129407168Y-58558011D01*
X129409968Y-58550117D01*
X129410036Y-58549561D01*
X129414147Y-58543652D01*
X129425291Y-58533902D01*
X129441678Y-58521672D01*
X129461522Y-58508319D01*
X129476581Y-58498989D01*
X129495194Y-58486789D01*
X129513189Y-58473249D01*
X129522651Y-58465034D01*
X129537859Y-58452664D01*
X129554218Y-58442466D01*
X129558959Y-58440228D01*
X129573850Y-58432293D01*
X129590988Y-58420749D01*
X129599115Y-58414384D01*
X129613867Y-58403929D01*
X129627930Y-58396969D01*
X129634472Y-58395384D01*
X129645223Y-58394945D01*
X129663334Y-58394414D01*
X129685931Y-58393870D01*
X129702135Y-58393537D01*
X129727884Y-58392386D01*
X129751527Y-58390145D01*
X129769856Y-58387167D01*
X129776359Y-58385396D01*
X129787160Y-58382759D01*
X129803330Y-58380803D01*
X129826015Y-58379468D01*
X129856360Y-58378691D01*
X129895508Y-58378413D01*
X129906569Y-58378413D01*
X129951646Y-58378762D01*
G37*
G36*
X131231501Y-58347813D02*
G01*
X131252831Y-58349605D01*
X131260519Y-58350432D01*
X131280833Y-58352141D01*
X131309092Y-58353751D01*
X131343003Y-58355170D01*
X131380274Y-58356310D01*
X131418612Y-58357080D01*
X131434562Y-58357272D01*
X131557416Y-58358429D01*
X131613404Y-58377909D01*
X131638484Y-58386803D01*
X131662515Y-58395622D01*
X131682367Y-58403199D01*
X131692747Y-58407418D01*
X131712296Y-58415396D01*
X131734214Y-58423757D01*
X131742379Y-58426703D01*
X131769043Y-58439747D01*
X131789425Y-58457201D01*
X131802134Y-58477550D01*
X131805864Y-58495878D01*
X131808525Y-58511981D01*
X131813361Y-58524173D01*
X131817716Y-58536860D01*
X131820432Y-58554468D01*
X131820858Y-58563385D01*
X131820086Y-58579726D01*
X131816391Y-58592389D01*
X131808107Y-58605730D01*
X131801279Y-58614574D01*
X131777824Y-58641925D01*
X131754013Y-58666010D01*
X131731367Y-58685517D01*
X131711407Y-58699136D01*
X131695803Y-58705525D01*
X131664027Y-58715672D01*
X131637316Y-58733906D01*
X131629447Y-58741630D01*
X131615801Y-58753375D01*
X131597639Y-58765699D01*
X131585570Y-58772472D01*
X131568558Y-58781819D01*
X131546781Y-58794830D01*
X131523866Y-58809309D01*
X131513905Y-58815881D01*
X131473714Y-58840338D01*
X131433178Y-58860395D01*
X131394191Y-58875323D01*
X131358648Y-58884393D01*
X131329175Y-58886903D01*
X131312877Y-58885689D01*
X131290972Y-58883153D01*
X131267920Y-58879818D01*
X131265638Y-58879446D01*
X131243802Y-58876508D01*
X131215558Y-58873645D01*
X131184732Y-58871203D01*
X131158141Y-58869664D01*
X131091595Y-58866627D01*
X131070683Y-58846169D01*
X131061992Y-58837983D01*
X131054009Y-58831967D01*
X131044694Y-58827388D01*
X131032004Y-58823512D01*
X131013899Y-58819609D01*
X130988336Y-58814944D01*
X130979175Y-58813334D01*
X130940433Y-58805769D01*
X130910367Y-58798077D01*
X130887421Y-58789835D01*
X130879793Y-58786242D01*
X130859432Y-58776896D01*
X130834870Y-58767113D01*
X130813829Y-58759802D01*
X130779484Y-58745160D01*
X130753372Y-58725683D01*
X130736010Y-58701823D01*
X130730370Y-58686965D01*
X130729864Y-58684139D01*
X131194238Y-58684139D01*
X131194559Y-58685099D01*
X131201475Y-58692661D01*
X131214301Y-58700407D01*
X131228963Y-58706265D01*
X131240044Y-58708215D01*
X131251693Y-58707068D01*
X131267251Y-58704248D01*
X131270226Y-58703583D01*
X131287574Y-58697719D01*
X131294931Y-58690301D01*
X131292471Y-58680997D01*
X131285824Y-58673901D01*
X131272997Y-58666767D01*
X131256251Y-58662969D01*
X131237887Y-58662224D01*
X131220204Y-58664251D01*
X131205502Y-58668767D01*
X131196080Y-58675491D01*
X131194238Y-58684139D01*
X130729864Y-58684139D01*
X130727322Y-58669946D01*
X130725199Y-58646418D01*
X130724014Y-58619088D01*
X130723782Y-58590663D01*
X130724517Y-58563850D01*
X130726234Y-58541357D01*
X130728947Y-58525889D01*
X130729501Y-58524173D01*
X130738652Y-58510001D01*
X130755517Y-58494044D01*
X130778090Y-58477721D01*
X130804360Y-58462451D01*
X130832321Y-58449652D01*
X130838210Y-58447414D01*
X130861231Y-58438308D01*
X130886914Y-58427132D01*
X130905208Y-58418492D01*
X130925938Y-58409111D01*
X130946917Y-58401088D01*
X130962415Y-58396471D01*
X130979452Y-58392230D01*
X130994111Y-58387885D01*
X130997795Y-58386570D01*
X131025801Y-58377373D01*
X131061512Y-58368724D01*
X131105898Y-58360407D01*
X131137666Y-58355402D01*
X131168547Y-58351043D01*
X131192432Y-58348408D01*
X131212393Y-58347373D01*
X131231501Y-58347813D01*
G37*
D14*
%TO.C,C1*%
X132028733Y-75635000D02*
X132321267Y-75635000D01*
X132028733Y-74615000D02*
X132321267Y-74615000D01*
%TO.C,C3*%
X131316233Y-77185000D02*
X131608767Y-77185000D01*
X131316233Y-76165000D02*
X131608767Y-76165000D01*
%TO.C,R2*%
X133029724Y-70947500D02*
X132520276Y-70947500D01*
X133029724Y-69902500D02*
X132520276Y-69902500D01*
%TO.C,U1*%
X129400000Y-71500000D02*
X129040000Y-71500000D01*
X129400000Y-71140000D01*
X129400000Y-71500000D01*
G36*
X129400000Y-71500000D02*
G01*
X129040000Y-71500000D01*
X129400000Y-71140000D01*
X129400000Y-71500000D01*
G37*
D10*
X132100000Y-74200000D02*
X132100000Y-74050000D01*
X132100000Y-74200000D02*
X131950000Y-74200000D01*
X132100000Y-71500000D02*
X132100000Y-71650000D01*
X131950000Y-71500000D02*
X132100000Y-71500000D01*
X129400000Y-74210000D02*
X129550000Y-74210000D01*
X129400000Y-74200000D02*
X129400000Y-74050000D01*
D14*
%TO.C,R5*%
X134267224Y-72497500D02*
X133757776Y-72497500D01*
X134267224Y-71452500D02*
X133757776Y-71452500D01*
%TO.C,C2*%
X128971267Y-75635000D02*
X128678733Y-75635000D01*
X128971267Y-74615000D02*
X128678733Y-74615000D01*
%TO.C,R4*%
X133757776Y-73997500D02*
X134267224Y-73997500D01*
X133757776Y-72952500D02*
X134267224Y-72952500D01*
%TO.C,R3*%
X129020276Y-70947500D02*
X129529724Y-70947500D01*
X129020276Y-69902500D02*
X129529724Y-69902500D01*
%TO.C,J3*%
X124265736Y-64780000D02*
X124690000Y-64480000D01*
X124690000Y-64480000D02*
X124265736Y-64180000D01*
X124265736Y-64180000D02*
X124265736Y-64780000D01*
X125650000Y-63120000D02*
X125950000Y-63120000D01*
X125950000Y-63120000D02*
X125950000Y-62670000D01*
X128150000Y-63120000D02*
X128450000Y-63120000D01*
X128450000Y-63120000D02*
X128450000Y-62670000D01*
X130650000Y-63120000D02*
X130950000Y-63120000D01*
X130950000Y-63120000D02*
X130950000Y-62670000D01*
X133150000Y-63120000D02*
X133450000Y-63120000D01*
X133450000Y-63120000D02*
X133450000Y-62670000D01*
X135650000Y-63120000D02*
X135950000Y-63120000D01*
X135950000Y-63120000D02*
X135950000Y-62670000D01*
X123970000Y-62670000D02*
X137630000Y-62670000D01*
X125650000Y-62670000D02*
X125650000Y-63120000D01*
X125950000Y-62670000D02*
X125650000Y-62670000D01*
X128150000Y-62670000D02*
X128150000Y-63120000D01*
X128450000Y-62670000D02*
X128150000Y-62670000D01*
X130650000Y-62670000D02*
X130650000Y-63120000D01*
X130950000Y-62670000D02*
X130650000Y-62670000D01*
X133150000Y-62670000D02*
X133150000Y-63120000D01*
X133450000Y-62670000D02*
X133150000Y-62670000D01*
X135650000Y-62670000D02*
X135650000Y-63120000D01*
X135950000Y-62670000D02*
X135650000Y-62670000D01*
X137630000Y-62670000D02*
X137630000Y-53990000D01*
X123970000Y-53990000D02*
X123970000Y-62670000D01*
X137630000Y-53990000D02*
X123970000Y-53990000D01*
%TO.C,J2*%
X140620000Y-63640000D02*
X142000000Y-63640000D01*
X140620000Y-65020000D02*
X140620000Y-63640000D01*
X140620000Y-66290000D02*
X140620000Y-74020000D01*
X140620000Y-66290000D02*
X143380000Y-66290000D01*
X140620000Y-74020000D02*
X143380000Y-74020000D01*
X143380000Y-66290000D02*
X143380000Y-74020000D01*
%TO.C,D1*%
X117440000Y-67815000D02*
X117440000Y-69285000D01*
X117440000Y-69285000D02*
X119900000Y-69285000D01*
X119900000Y-67815000D02*
X117440000Y-67815000D01*
%TO.C,R1*%
X123342224Y-68027500D02*
X122832776Y-68027500D01*
X123342224Y-69072500D02*
X122832776Y-69072500D01*
%TD*%
%LPC*%
D15*
%TO.C,C1*%
X133037500Y-75125000D03*
X131312500Y-75125000D03*
%TD*%
%TO.C,C3*%
X132325000Y-76675000D03*
X130600000Y-76675000D03*
%TD*%
D16*
%TO.C,R2*%
X131862500Y-70425000D03*
X133687500Y-70425000D03*
%TD*%
D17*
%TO.C,U1*%
X129775000Y-73875000D03*
X130425000Y-73875000D03*
X131075000Y-73875000D03*
X131725000Y-73875000D03*
X131725000Y-71825000D03*
X131075000Y-71825000D03*
X130425000Y-71825000D03*
X129775000Y-71825000D03*
%TD*%
D16*
%TO.C,R5*%
X133100000Y-71975000D03*
X134925000Y-71975000D03*
%TD*%
D18*
%TO.C,C2*%
X127962500Y-75125000D03*
X129687500Y-75125000D03*
%TD*%
D19*
%TO.C,R4*%
X134925000Y-73475000D03*
X133100000Y-73475000D03*
%TD*%
%TO.C,R3*%
X130187500Y-70425000D03*
X128362500Y-70425000D03*
%TD*%
D20*
%TO.C,J3*%
X125800000Y-57300000D03*
X135800000Y-57300000D03*
D21*
X125800000Y-64480000D03*
D22*
X128300000Y-64480000D03*
X130800000Y-64480000D03*
X133300000Y-64480000D03*
X135800000Y-64480000D03*
%TD*%
D23*
%TO.C,H2*%
X141700000Y-79900000D03*
%TD*%
D24*
%TO.C,J2*%
X142000000Y-65020000D03*
D20*
X142000000Y-67560000D03*
X142000000Y-70100000D03*
X142000000Y-72640000D03*
%TD*%
D23*
%TO.C,H3*%
X141700000Y-57900000D03*
%TD*%
D25*
%TO.C,D1*%
X118225000Y-68550000D03*
X119975000Y-68550000D03*
%TD*%
D16*
%TO.C,R1*%
X124000000Y-68550000D03*
X122175000Y-68550000D03*
%TD*%
D23*
%TO.C,H1*%
X119700000Y-57900000D03*
%TD*%
%TO.C,H4*%
X119700000Y-79900000D03*
%TD*%
%LPD*%
M02*
