%TF.GenerationSoftware,KiCad,Pcbnew,9.0.4*%
%TF.CreationDate,2026-02-28T23:26:40-06:00*%
%TF.ProjectId,TempBoard,54656d70-426f-4617-9264-2e6b69636164,rev?*%
%TF.SameCoordinates,Original*%
%TF.FileFunction,Copper,L1,Top*%
%TF.FilePolarity,Positive*%
%FSLAX46Y46*%
G04 Gerber Fmt 4.6, Leading zero omitted, Abs format (unit mm)*
G04 Created by KiCad (PCBNEW 9.0.4) date 2026-02-28 23:26:40*
%MOMM*%
%LPD*%
G01*
G04 APERTURE LIST*
G04 Aperture macros list*
%AMRoundRect*
0 Rectangle with rounded corners*
0 $1 Rounding radius*
0 $2 $3 $4 $5 $6 $7 $8 $9 X,Y pos of 4 corners*
0 Add a 4 corners polygon primitive as box body*
4,1,4,$2,$3,$4,$5,$6,$7,$8,$9,$2,$3,0*
0 Add four circle primitives for the rounded corners*
1,1,$1+$1,$2,$3*
1,1,$1+$1,$4,$5*
1,1,$1+$1,$6,$7*
1,1,$1+$1,$8,$9*
0 Add four rect primitives between the rounded corners*
20,1,$1+$1,$2,$3,$4,$5,0*
20,1,$1+$1,$4,$5,$6,$7,0*
20,1,$1+$1,$6,$7,$8,$9,0*
20,1,$1+$1,$8,$9,$2,$3,0*%
G04 Aperture macros list end*
%TA.AperFunction,ComponentPad*%
%ADD10RoundRect,0.250000X0.850000X0.600000X-0.850000X0.600000X-0.850000X-0.600000X0.850000X-0.600000X0*%
%TD*%
%TA.AperFunction,ComponentPad*%
%ADD11O,2.200000X1.700000*%
%TD*%
%TA.AperFunction,SMDPad,CuDef*%
%ADD12RoundRect,0.237500X-0.250000X-0.237500X0.250000X-0.237500X0.250000X0.237500X-0.250000X0.237500X0*%
%TD*%
%TA.AperFunction,SMDPad,CuDef*%
%ADD13RoundRect,0.237500X0.300000X0.237500X-0.300000X0.237500X-0.300000X-0.237500X0.300000X-0.237500X0*%
%TD*%
%TA.AperFunction,SMDPad,CuDef*%
%ADD14R,0.350000X0.500000*%
%TD*%
%TA.AperFunction,ComponentPad*%
%ADD15R,1.000000X1.000000*%
%TD*%
%TA.AperFunction,SMDPad,CuDef*%
%ADD16RoundRect,0.250000X-0.337500X-0.475000X0.337500X-0.475000X0.337500X0.475000X-0.337500X0.475000X0*%
%TD*%
%TA.AperFunction,SMDPad,CuDef*%
%ADD17RoundRect,0.237500X0.250000X0.237500X-0.250000X0.237500X-0.250000X-0.237500X0.250000X-0.237500X0*%
%TD*%
%TA.AperFunction,SMDPad,CuDef*%
%ADD18RoundRect,0.237500X-0.237500X0.287500X-0.237500X-0.287500X0.237500X-0.287500X0.237500X0.287500X0*%
%TD*%
%TA.AperFunction,SMDPad,CuDef*%
%ADD19RoundRect,0.237500X0.237500X-0.250000X0.237500X0.250000X-0.237500X0.250000X-0.237500X-0.250000X0*%
%TD*%
%TA.AperFunction,ComponentPad*%
%ADD20R,1.700000X1.700000*%
%TD*%
%TA.AperFunction,ComponentPad*%
%ADD21C,1.700000*%
%TD*%
%TA.AperFunction,SMDPad,CuDef*%
%ADD22RoundRect,0.237500X-0.300000X-0.237500X0.300000X-0.237500X0.300000X0.237500X-0.300000X0.237500X0*%
%TD*%
%TA.AperFunction,ViaPad*%
%ADD23C,0.600000*%
%TD*%
%TA.AperFunction,Conductor*%
%ADD24C,0.200000*%
%TD*%
%TA.AperFunction,Conductor*%
%ADD25C,0.500000*%
%TD*%
G04 APERTURE END LIST*
D10*
%TO.P,J3,1,Pin_1*%
%TO.N,GND*%
X131340000Y-72225000D03*
D11*
%TO.P,J3,2,Pin_2*%
X131340000Y-69725000D03*
%TO.P,J3,3,Pin_3*%
%TO.N,/SDA*%
X131340000Y-67225000D03*
%TO.P,J3,4,Pin_4*%
%TO.N,/SCL*%
X131340000Y-64725000D03*
%TO.P,J3,5,Pin_5*%
%TO.N,+3.3V*%
X131340000Y-62225000D03*
%TD*%
D12*
%TO.P,R3,1*%
%TO.N,+3.3V*%
X133987500Y-74200000D03*
%TO.P,R3,2*%
%TO.N,/SDA*%
X135812500Y-74200000D03*
%TD*%
D13*
%TO.P,C2,1*%
%TO.N,+3.3V*%
X135312500Y-78900000D03*
%TO.P,C2,2*%
%TO.N,GND*%
X133587500Y-78900000D03*
%TD*%
D14*
%TO.P,U1,1,GND*%
%TO.N,GND*%
X135400000Y-75600000D03*
%TO.P,U1,2,CSB*%
%TO.N,+3.3V*%
X136050000Y-75600000D03*
%TO.P,U1,3,SDI*%
%TO.N,/SDA*%
X136700000Y-75600000D03*
%TO.P,U1,4,SCK*%
%TO.N,/SCL*%
X137350000Y-75600000D03*
%TO.P,U1,5,SDO*%
%TO.N,Net-(U1-SDO)*%
X137350000Y-77650000D03*
%TO.P,U1,6,VDDIO*%
%TO.N,+3.3V*%
X136700000Y-77650000D03*
%TO.P,U1,7,GND*%
%TO.N,GND*%
X136050000Y-77650000D03*
%TO.P,U1,8,VDD*%
%TO.N,+3.3V*%
X135400000Y-77650000D03*
%TD*%
D15*
%TO.P,GND_TP1,1,1*%
%TO.N,GND*%
X130950000Y-80125000D03*
%TD*%
D16*
%TO.P,C3,1*%
%TO.N,+3.3V*%
X136312500Y-80625000D03*
%TO.P,C3,2*%
%TO.N,GND*%
X138387500Y-80625000D03*
%TD*%
D17*
%TO.P,R2,1*%
%TO.N,+3.3V*%
X139312500Y-74200000D03*
%TO.P,R2,2*%
%TO.N,/SCL*%
X137487500Y-74200000D03*
%TD*%
D18*
%TO.P,D1,1,K*%
%TO.N,GND*%
X128075000Y-75500000D03*
%TO.P,D1,2,A*%
%TO.N,Net-(D1-A)*%
X128075000Y-77250000D03*
%TD*%
D12*
%TO.P,R4,1*%
%TO.N,Net-(U1-SDO)*%
X138725000Y-77250000D03*
%TO.P,R4,2*%
%TO.N,+3.3V*%
X140550000Y-77250000D03*
%TD*%
D15*
%TO.P,3.3vTP1,1,1*%
%TO.N,+3.3V*%
X130900000Y-77000000D03*
%TD*%
D19*
%TO.P,R1,1*%
%TO.N,+3.3V*%
X128075000Y-81275000D03*
%TO.P,R1,2*%
%TO.N,Net-(D1-A)*%
X128075000Y-79450000D03*
%TD*%
D20*
%TO.P,J1,1,Pin_1*%
%TO.N,+3.3V*%
X141025000Y-69085000D03*
D21*
%TO.P,J1,2,Pin_2*%
%TO.N,/SCL*%
X141025000Y-71625000D03*
%TD*%
D20*
%TO.P,J4,1,Pin_1*%
%TO.N,/SDA*%
X137450000Y-69085000D03*
D21*
%TO.P,J4,2,Pin_2*%
%TO.N,GND*%
X137450000Y-71625000D03*
%TD*%
D17*
%TO.P,R5,1*%
%TO.N,GND*%
X140550000Y-75750000D03*
%TO.P,R5,2*%
%TO.N,Net-(U1-SDO)*%
X138725000Y-75750000D03*
%TD*%
D22*
%TO.P,C1,1*%
%TO.N,+3.3V*%
X136937500Y-78900000D03*
%TO.P,C1,2*%
%TO.N,GND*%
X138662500Y-78900000D03*
%TD*%
D23*
%TO.N,GND*%
X139900000Y-78900000D03*
X141400000Y-74900000D03*
X133200000Y-80075000D03*
X134337500Y-76100000D03*
X128950000Y-74550000D03*
%TO.N,/SCL*%
X134175000Y-69350000D03*
%TD*%
D24*
%TO.N,+3.3V*%
X136050000Y-76550000D02*
X136050000Y-75600000D01*
X136700000Y-77200000D02*
X136050000Y-76550000D01*
D25*
X136225000Y-79812500D02*
X135312500Y-78900000D01*
X136225000Y-80450000D02*
X136225000Y-79812500D01*
X136700000Y-78662500D02*
X136700000Y-77650000D01*
D24*
X128100000Y-81375000D02*
X128125000Y-81350000D01*
D25*
X135312500Y-77737500D02*
X135400000Y-77650000D01*
X136937500Y-78900000D02*
X136700000Y-78662500D01*
X135312500Y-78900000D02*
X135312500Y-77737500D01*
D24*
X136700000Y-77650000D02*
X136700000Y-77200000D01*
%TO.N,GND*%
X133587500Y-79687500D02*
X133200000Y-80075000D01*
X135400000Y-76600000D02*
X135400000Y-75600000D01*
X141400000Y-74900000D02*
X140550000Y-75750000D01*
X138575000Y-80525000D02*
X138575000Y-78987500D01*
D25*
X138662500Y-78900000D02*
X139900000Y-78900000D01*
D24*
X138575000Y-78987500D02*
X138662500Y-78900000D01*
X133587500Y-78900000D02*
X133587500Y-79687500D01*
X136050000Y-77250000D02*
X135400000Y-76600000D01*
X134837500Y-75600000D02*
X135400000Y-75600000D01*
X128075000Y-75425000D02*
X128950000Y-74550000D01*
X138350000Y-80750000D02*
X138575000Y-80525000D01*
X134337500Y-76100000D02*
X134837500Y-75600000D01*
X136050000Y-77650000D02*
X136050000Y-77250000D01*
X128075000Y-75500000D02*
X128075000Y-75425000D01*
D25*
%TO.N,Net-(D1-A)*%
X128075000Y-79450000D02*
X128075000Y-77250000D01*
D24*
%TO.N,/SDA*%
X136700000Y-75600000D02*
X136700000Y-75087500D01*
X133425000Y-71812500D02*
X133425000Y-68150000D01*
X135812500Y-74200000D02*
X133425000Y-71812500D01*
X133425000Y-68150000D02*
X132500000Y-67225000D01*
X132500000Y-67225000D02*
X131340000Y-67225000D01*
X136700000Y-75087500D02*
X135812500Y-74200000D01*
%TO.N,/SCL*%
X132817100Y-64725000D02*
X131340000Y-64725000D01*
X134175000Y-70887500D02*
X134175000Y-69350000D01*
X137350000Y-75600000D02*
X137350000Y-74337500D01*
X134175000Y-66082900D02*
X132817100Y-64725000D01*
X137487500Y-74200000D02*
X134175000Y-70887500D01*
X137487500Y-74200000D02*
X137400000Y-74112500D01*
X134175000Y-69350000D02*
X134175000Y-66082900D01*
X137350000Y-74337500D02*
X137487500Y-74200000D01*
%TO.N,Net-(U1-SDO)*%
X137750000Y-77250000D02*
X137350000Y-77650000D01*
X138725000Y-77250000D02*
X137750000Y-77250000D01*
X138725000Y-75750000D02*
X138725000Y-77250000D01*
%TD*%
%TA.AperFunction,Conductor*%
%TO.N,+3.3V*%
G36*
X139303032Y-59825648D02*
G01*
X139636929Y-59842052D01*
X139649037Y-59843245D01*
X139752146Y-59858539D01*
X139976699Y-59891849D01*
X139988617Y-59894219D01*
X140309951Y-59974709D01*
X140321588Y-59978240D01*
X140392806Y-60003722D01*
X140633467Y-60089832D01*
X140644688Y-60094479D01*
X140944163Y-60236120D01*
X140954871Y-60241844D01*
X141238988Y-60412137D01*
X141249106Y-60418897D01*
X141515170Y-60616224D01*
X141524576Y-60623944D01*
X141770013Y-60846395D01*
X141778604Y-60854986D01*
X141886385Y-60973904D01*
X142001055Y-61100423D01*
X142008775Y-61109829D01*
X142206102Y-61375893D01*
X142212862Y-61386011D01*
X142378149Y-61661777D01*
X142383148Y-61670116D01*
X142388883Y-61680844D01*
X142528008Y-61975000D01*
X142530514Y-61980297D01*
X142535170Y-61991540D01*
X142646759Y-62303411D01*
X142650292Y-62315055D01*
X142730777Y-62636369D01*
X142733151Y-62648305D01*
X142781754Y-62975962D01*
X142782947Y-62988071D01*
X142799351Y-63321966D01*
X142799500Y-63328051D01*
X142799500Y-78546948D01*
X142799351Y-78553033D01*
X142782947Y-78886928D01*
X142781754Y-78899037D01*
X142733151Y-79226694D01*
X142730777Y-79238630D01*
X142650292Y-79559944D01*
X142646759Y-79571588D01*
X142535170Y-79883459D01*
X142530514Y-79894702D01*
X142388885Y-80194151D01*
X142383148Y-80204883D01*
X142212862Y-80488988D01*
X142206102Y-80499106D01*
X142008775Y-80765170D01*
X142001055Y-80774576D01*
X141778611Y-81020006D01*
X141770006Y-81028611D01*
X141524576Y-81251055D01*
X141515170Y-81258775D01*
X141249106Y-81456102D01*
X141238988Y-81462862D01*
X140954883Y-81633148D01*
X140944151Y-81638885D01*
X140644702Y-81780514D01*
X140633459Y-81785170D01*
X140321588Y-81896759D01*
X140309944Y-81900292D01*
X139988630Y-81980777D01*
X139976694Y-81983151D01*
X139649037Y-82031754D01*
X139636928Y-82032947D01*
X139321989Y-82048419D01*
X139303031Y-82049351D01*
X139296949Y-82049500D01*
X139013989Y-82049500D01*
X138946950Y-82029815D01*
X138901195Y-81977011D01*
X138891251Y-81907853D01*
X138920276Y-81844297D01*
X138974982Y-81807794D01*
X139044334Y-81784814D01*
X139193656Y-81692712D01*
X139317712Y-81568656D01*
X139409814Y-81419334D01*
X139464999Y-81252797D01*
X139475500Y-81150009D01*
X139475499Y-80099992D01*
X139471027Y-80056218D01*
X139464999Y-79997203D01*
X139464998Y-79997200D01*
X139439179Y-79919284D01*
X139409814Y-79830666D01*
X139409812Y-79830664D01*
X139409781Y-79830568D01*
X139409245Y-79814999D01*
X139403803Y-79800406D01*
X139408068Y-79780798D01*
X139407379Y-79760740D01*
X139415550Y-79746412D01*
X139418657Y-79732134D01*
X139439802Y-79703887D01*
X139456875Y-79686814D01*
X139518197Y-79653333D01*
X139544552Y-79650500D01*
X139595396Y-79650500D01*
X139642844Y-79659937D01*
X139666503Y-79669737D01*
X139666508Y-79669738D01*
X139666511Y-79669739D01*
X139821153Y-79700499D01*
X139821156Y-79700500D01*
X139821158Y-79700500D01*
X139978844Y-79700500D01*
X139978845Y-79700499D01*
X140133497Y-79669737D01*
X140279179Y-79609394D01*
X140410289Y-79521789D01*
X140521789Y-79410289D01*
X140609394Y-79279179D01*
X140614252Y-79267452D01*
X140647710Y-79186676D01*
X140669737Y-79133497D01*
X140700500Y-78978842D01*
X140700500Y-78821158D01*
X140700500Y-78821155D01*
X140700499Y-78821153D01*
X140680873Y-78722489D01*
X140669737Y-78666503D01*
X140647710Y-78613324D01*
X140609397Y-78520827D01*
X140609390Y-78520814D01*
X140521789Y-78389711D01*
X140521786Y-78389707D01*
X140410292Y-78278213D01*
X140410288Y-78278210D01*
X140355109Y-78241340D01*
X140341453Y-78224999D01*
X140800000Y-78224999D01*
X140849140Y-78224999D01*
X140849154Y-78224998D01*
X140950152Y-78214680D01*
X141113800Y-78160453D01*
X141113811Y-78160448D01*
X141260534Y-78069947D01*
X141260538Y-78069944D01*
X141382444Y-77948038D01*
X141382447Y-77948034D01*
X141472948Y-77801311D01*
X141472953Y-77801300D01*
X141527180Y-77637652D01*
X141537499Y-77536654D01*
X141537500Y-77536641D01*
X141537500Y-77500000D01*
X140800000Y-77500000D01*
X140800000Y-78224999D01*
X140341453Y-78224999D01*
X140310304Y-78187727D01*
X140300000Y-78138238D01*
X140300000Y-77374000D01*
X140319685Y-77306961D01*
X140372489Y-77261206D01*
X140424000Y-77250000D01*
X140550000Y-77250000D01*
X140550000Y-77124000D01*
X140569685Y-77056961D01*
X140622489Y-77011206D01*
X140674000Y-77000000D01*
X141537499Y-77000000D01*
X141537499Y-76963360D01*
X141537498Y-76963345D01*
X141527180Y-76862347D01*
X141472953Y-76698699D01*
X141472948Y-76698688D01*
X141390841Y-76565573D01*
X141372400Y-76498181D01*
X141390839Y-76435380D01*
X141473408Y-76301516D01*
X141527674Y-76137753D01*
X141538000Y-76036677D01*
X141537999Y-75790495D01*
X141557683Y-75723457D01*
X141610487Y-75677702D01*
X141627844Y-75672100D01*
X141627664Y-75671506D01*
X141633486Y-75669739D01*
X141633497Y-75669737D01*
X141779179Y-75609394D01*
X141910289Y-75521789D01*
X142021789Y-75410289D01*
X142109394Y-75279179D01*
X142169737Y-75133497D01*
X142200500Y-74978842D01*
X142200500Y-74821158D01*
X142200500Y-74821155D01*
X142200499Y-74821153D01*
X142193273Y-74784826D01*
X142169737Y-74666503D01*
X142154138Y-74628844D01*
X142109397Y-74520827D01*
X142109390Y-74520814D01*
X142021789Y-74389711D01*
X142021786Y-74389707D01*
X141910292Y-74278213D01*
X141910288Y-74278210D01*
X141779185Y-74190609D01*
X141779172Y-74190602D01*
X141633501Y-74130264D01*
X141633489Y-74130261D01*
X141478845Y-74099500D01*
X141478842Y-74099500D01*
X141321158Y-74099500D01*
X141321155Y-74099500D01*
X141166510Y-74130261D01*
X141166498Y-74130264D01*
X141020827Y-74190602D01*
X141020814Y-74190609D01*
X140889711Y-74278210D01*
X140889707Y-74278213D01*
X140778213Y-74389707D01*
X140778210Y-74389711D01*
X140690609Y-74520814D01*
X140690602Y-74520827D01*
X140630263Y-74666500D01*
X140630260Y-74666512D01*
X140628632Y-74674696D01*
X140613918Y-74702821D01*
X140600729Y-74731703D01*
X140597837Y-74733560D01*
X140596245Y-74736606D01*
X140568653Y-74752316D01*
X140541951Y-74769477D01*
X140537354Y-74770137D01*
X140535528Y-74771178D01*
X140507016Y-74774500D01*
X140399485Y-74774500D01*
X140332446Y-74754815D01*
X140286691Y-74702011D01*
X140276747Y-74632853D01*
X140281780Y-74611493D01*
X140289681Y-74587651D01*
X140299999Y-74486654D01*
X140300000Y-74486641D01*
X140300000Y-74450000D01*
X139436500Y-74450000D01*
X139369461Y-74430315D01*
X139323706Y-74377511D01*
X139312500Y-74326000D01*
X139312500Y-74200000D01*
X139186500Y-74200000D01*
X139119461Y-74180315D01*
X139073706Y-74127511D01*
X139062500Y-74076000D01*
X139062500Y-73950000D01*
X139562500Y-73950000D01*
X140299999Y-73950000D01*
X140299999Y-73913360D01*
X140299998Y-73913345D01*
X140289680Y-73812347D01*
X140235453Y-73648699D01*
X140235448Y-73648688D01*
X140144947Y-73501965D01*
X140144944Y-73501961D01*
X140023038Y-73380055D01*
X140023034Y-73380052D01*
X139876311Y-73289551D01*
X139876300Y-73289546D01*
X139712652Y-73235319D01*
X139611654Y-73225000D01*
X139562500Y-73225000D01*
X139562500Y-73950000D01*
X139062500Y-73950000D01*
X139062500Y-73225000D01*
X139062499Y-73224999D01*
X139013361Y-73225000D01*
X139013343Y-73225001D01*
X138912347Y-73235319D01*
X138748699Y-73289546D01*
X138748688Y-73289551D01*
X138601965Y-73380052D01*
X138488034Y-73493983D01*
X138426711Y-73527467D01*
X138357019Y-73522483D01*
X138312672Y-73493982D01*
X138198351Y-73379661D01*
X138198350Y-73379660D01*
X138058917Y-73293657D01*
X138051518Y-73289093D01*
X138051513Y-73289091D01*
X138050069Y-73288612D01*
X137887753Y-73234826D01*
X137887751Y-73234825D01*
X137786684Y-73224500D01*
X137786677Y-73224500D01*
X137412597Y-73224500D01*
X137383156Y-73215855D01*
X137353170Y-73209332D01*
X137348154Y-73205577D01*
X137345558Y-73204815D01*
X137324916Y-73188181D01*
X137323916Y-73187181D01*
X137290431Y-73125858D01*
X137295415Y-73056166D01*
X137337287Y-73000233D01*
X137402751Y-72975816D01*
X137411597Y-72975500D01*
X137556286Y-72975500D01*
X137556287Y-72975500D01*
X137766243Y-72942246D01*
X137968412Y-72876557D01*
X138157816Y-72780051D01*
X138179789Y-72764086D01*
X138329786Y-72655109D01*
X138329788Y-72655106D01*
X138329792Y-72655104D01*
X138480104Y-72504792D01*
X138480106Y-72504788D01*
X138480109Y-72504786D01*
X138605048Y-72332820D01*
X138605047Y-72332820D01*
X138605051Y-72332816D01*
X138701557Y-72143412D01*
X138767246Y-71941243D01*
X138800500Y-71731287D01*
X138800500Y-71518713D01*
X139674500Y-71518713D01*
X139674500Y-71731286D01*
X139707753Y-71941239D01*
X139773444Y-72143414D01*
X139869951Y-72332820D01*
X139994890Y-72504786D01*
X140145213Y-72655109D01*
X140317179Y-72780048D01*
X140317181Y-72780049D01*
X140317184Y-72780051D01*
X140506588Y-72876557D01*
X140708757Y-72942246D01*
X140918713Y-72975500D01*
X140918714Y-72975500D01*
X141131286Y-72975500D01*
X141131287Y-72975500D01*
X141341243Y-72942246D01*
X141543412Y-72876557D01*
X141732816Y-72780051D01*
X141754789Y-72764086D01*
X141904786Y-72655109D01*
X141904788Y-72655106D01*
X141904792Y-72655104D01*
X142055104Y-72504792D01*
X142055106Y-72504788D01*
X142055109Y-72504786D01*
X142180048Y-72332820D01*
X142180047Y-72332820D01*
X142180051Y-72332816D01*
X142276557Y-72143412D01*
X142342246Y-71941243D01*
X142375500Y-71731287D01*
X142375500Y-71518713D01*
X142342246Y-71308757D01*
X142276557Y-71106588D01*
X142180051Y-70917184D01*
X142180049Y-70917181D01*
X142180048Y-70917179D01*
X142055109Y-70745213D01*
X141941181Y-70631285D01*
X141907696Y-70569962D01*
X141912680Y-70500270D01*
X141954552Y-70444337D01*
X141985529Y-70427422D01*
X142117086Y-70378354D01*
X142117093Y-70378350D01*
X142232187Y-70292190D01*
X142232190Y-70292187D01*
X142318350Y-70177093D01*
X142318354Y-70177086D01*
X142368596Y-70042379D01*
X142368598Y-70042372D01*
X142374999Y-69982844D01*
X142375000Y-69982827D01*
X142375000Y-69335000D01*
X141458012Y-69335000D01*
X141490925Y-69277993D01*
X141525000Y-69150826D01*
X141525000Y-69019174D01*
X141490925Y-68892007D01*
X141458012Y-68835000D01*
X142375000Y-68835000D01*
X142375000Y-68187172D01*
X142374999Y-68187155D01*
X142368598Y-68127627D01*
X142368596Y-68127620D01*
X142318354Y-67992913D01*
X142318350Y-67992906D01*
X142232190Y-67877812D01*
X142232187Y-67877809D01*
X142117093Y-67791649D01*
X142117086Y-67791645D01*
X141982379Y-67741403D01*
X141982372Y-67741401D01*
X141922844Y-67735000D01*
X141275000Y-67735000D01*
X141275000Y-68651988D01*
X141217993Y-68619075D01*
X141090826Y-68585000D01*
X140959174Y-68585000D01*
X140832007Y-68619075D01*
X140775000Y-68651988D01*
X140775000Y-67735000D01*
X140127155Y-67735000D01*
X140067627Y-67741401D01*
X140067620Y-67741403D01*
X139932913Y-67791645D01*
X139932906Y-67791649D01*
X139817812Y-67877809D01*
X139817809Y-67877812D01*
X139731649Y-67992906D01*
X139731645Y-67992913D01*
X139681403Y-68127620D01*
X139681401Y-68127627D01*
X139675000Y-68187155D01*
X139675000Y-68835000D01*
X140591988Y-68835000D01*
X140559075Y-68892007D01*
X140525000Y-69019174D01*
X140525000Y-69150826D01*
X140559075Y-69277993D01*
X140591988Y-69335000D01*
X139675000Y-69335000D01*
X139675000Y-69982844D01*
X139681401Y-70042372D01*
X139681403Y-70042379D01*
X139731645Y-70177086D01*
X139731649Y-70177093D01*
X139817809Y-70292187D01*
X139817812Y-70292190D01*
X139932906Y-70378350D01*
X139932913Y-70378354D01*
X140064470Y-70427422D01*
X140120404Y-70469293D01*
X140144821Y-70534758D01*
X140129969Y-70603031D01*
X140108819Y-70631285D01*
X139994889Y-70745215D01*
X139869951Y-70917179D01*
X139773444Y-71106585D01*
X139707753Y-71308760D01*
X139674500Y-71518713D01*
X138800500Y-71518713D01*
X138767246Y-71308757D01*
X138701557Y-71106588D01*
X138605051Y-70917184D01*
X138605049Y-70917181D01*
X138605048Y-70917179D01*
X138480109Y-70745213D01*
X138366569Y-70631673D01*
X138333084Y-70570350D01*
X138338068Y-70500658D01*
X138379940Y-70444725D01*
X138410915Y-70427810D01*
X138542331Y-70378796D01*
X138657546Y-70292546D01*
X138743796Y-70177331D01*
X138794091Y-70042483D01*
X138800500Y-69982873D01*
X138800499Y-68187128D01*
X138794091Y-68127517D01*
X138743884Y-67992906D01*
X138743797Y-67992671D01*
X138743793Y-67992664D01*
X138657547Y-67877455D01*
X138657544Y-67877452D01*
X138542335Y-67791206D01*
X138542328Y-67791202D01*
X138407482Y-67740908D01*
X138407483Y-67740908D01*
X138347883Y-67734501D01*
X138347881Y-67734500D01*
X138347873Y-67734500D01*
X138347864Y-67734500D01*
X136552129Y-67734500D01*
X136552123Y-67734501D01*
X136492516Y-67740908D01*
X136357671Y-67791202D01*
X136357664Y-67791206D01*
X136242455Y-67877452D01*
X136242452Y-67877455D01*
X136156206Y-67992664D01*
X136156202Y-67992671D01*
X136105908Y-68127517D01*
X136103538Y-68149565D01*
X136099501Y-68187123D01*
X136099500Y-68187135D01*
X136099500Y-69982870D01*
X136099501Y-69982876D01*
X136105908Y-70042483D01*
X136156202Y-70177328D01*
X136156206Y-70177335D01*
X136242452Y-70292544D01*
X136242455Y-70292547D01*
X136357664Y-70378793D01*
X136357671Y-70378797D01*
X136489082Y-70427810D01*
X136545016Y-70469681D01*
X136569433Y-70535145D01*
X136554582Y-70603418D01*
X136533431Y-70631673D01*
X136419889Y-70745215D01*
X136294951Y-70917179D01*
X136198444Y-71106585D01*
X136132753Y-71308760D01*
X136099500Y-71518713D01*
X136099500Y-71663403D01*
X136079815Y-71730442D01*
X136027011Y-71776197D01*
X135957853Y-71786141D01*
X135894297Y-71757116D01*
X135887819Y-71751084D01*
X134811819Y-70675084D01*
X134778334Y-70613761D01*
X134775500Y-70587403D01*
X134775500Y-69929765D01*
X134795185Y-69862726D01*
X134796398Y-69860874D01*
X134816168Y-69831287D01*
X134884394Y-69729179D01*
X134944737Y-69583497D01*
X134975500Y-69428842D01*
X134975500Y-69271158D01*
X134975500Y-69271155D01*
X134975499Y-69271153D01*
X134962656Y-69206588D01*
X134944737Y-69116503D01*
X134944735Y-69116498D01*
X134884397Y-68970827D01*
X134884390Y-68970814D01*
X134796398Y-68839125D01*
X134775520Y-68772447D01*
X134775500Y-68770234D01*
X134775500Y-66171960D01*
X134775501Y-66171947D01*
X134775501Y-66003844D01*
X134775501Y-66003843D01*
X134734577Y-65851116D01*
X134679145Y-65755104D01*
X134655524Y-65714190D01*
X134655518Y-65714182D01*
X133304690Y-64363355D01*
X133304688Y-64363352D01*
X133185817Y-64244481D01*
X133185816Y-64244480D01*
X133099004Y-64194360D01*
X133099004Y-64194359D01*
X133099000Y-64194358D01*
X133048885Y-64165423D01*
X132896157Y-64124499D01*
X132896154Y-64124499D01*
X132875718Y-64124499D01*
X132808679Y-64104814D01*
X132765233Y-64056794D01*
X132745048Y-64017179D01*
X132620109Y-63845213D01*
X132469790Y-63694894D01*
X132469785Y-63694890D01*
X132304781Y-63575008D01*
X132262115Y-63519678D01*
X132256136Y-63450065D01*
X132288741Y-63388270D01*
X132304781Y-63374371D01*
X132469466Y-63254721D01*
X132520476Y-63203711D01*
X137449500Y-63203711D01*
X137449500Y-63446288D01*
X137481161Y-63686785D01*
X137543947Y-63921104D01*
X137628196Y-64124499D01*
X137636776Y-64145212D01*
X137758064Y-64355289D01*
X137758066Y-64355292D01*
X137758067Y-64355293D01*
X137905733Y-64547736D01*
X137905739Y-64547743D01*
X138077256Y-64719260D01*
X138077262Y-64719265D01*
X138269711Y-64866936D01*
X138479788Y-64988224D01*
X138703900Y-65081054D01*
X138938211Y-65143838D01*
X139118586Y-65167584D01*
X139178711Y-65175500D01*
X139178712Y-65175500D01*
X139421289Y-65175500D01*
X139469388Y-65169167D01*
X139661789Y-65143838D01*
X139896100Y-65081054D01*
X140120212Y-64988224D01*
X140330289Y-64866936D01*
X140522738Y-64719265D01*
X140694265Y-64547738D01*
X140841936Y-64355289D01*
X140963224Y-64145212D01*
X141056054Y-63921100D01*
X141118838Y-63686789D01*
X141150500Y-63446288D01*
X141150500Y-63203712D01*
X141118838Y-62963211D01*
X141056054Y-62728900D01*
X140963224Y-62504788D01*
X140841936Y-62294711D01*
X140694265Y-62102262D01*
X140694260Y-62102256D01*
X140522743Y-61930739D01*
X140522736Y-61930733D01*
X140330293Y-61783067D01*
X140330292Y-61783066D01*
X140330289Y-61783064D01*
X140120212Y-61661776D01*
X140087466Y-61648212D01*
X139896104Y-61568947D01*
X139668917Y-61508072D01*
X139661789Y-61506162D01*
X139661788Y-61506161D01*
X139661785Y-61506161D01*
X139421289Y-61474500D01*
X139421288Y-61474500D01*
X139178712Y-61474500D01*
X139178711Y-61474500D01*
X138938214Y-61506161D01*
X138703895Y-61568947D01*
X138479794Y-61661773D01*
X138479785Y-61661777D01*
X138269706Y-61783067D01*
X138077263Y-61930733D01*
X138077256Y-61930739D01*
X137905739Y-62102256D01*
X137905733Y-62102263D01*
X137758067Y-62294706D01*
X137636777Y-62504785D01*
X137636773Y-62504794D01*
X137543947Y-62728895D01*
X137481161Y-62963214D01*
X137449500Y-63203711D01*
X132520476Y-63203711D01*
X132612216Y-63111972D01*
X132619723Y-63104464D01*
X132619727Y-63104459D01*
X132744620Y-62932557D01*
X132841095Y-62743217D01*
X132906757Y-62541129D01*
X132906757Y-62541126D01*
X132917231Y-62475000D01*
X131888482Y-62475000D01*
X131899111Y-62456591D01*
X131940000Y-62303991D01*
X131940000Y-62146009D01*
X131899111Y-61993409D01*
X131888482Y-61975000D01*
X132917231Y-61975000D01*
X132906757Y-61908873D01*
X132906757Y-61908870D01*
X132841095Y-61706782D01*
X132744620Y-61517442D01*
X132619727Y-61345540D01*
X132619723Y-61345535D01*
X132469464Y-61195276D01*
X132469459Y-61195272D01*
X132297557Y-61070379D01*
X132108217Y-60973904D01*
X131906129Y-60908242D01*
X131696246Y-60875000D01*
X131590000Y-60875000D01*
X131590000Y-61676517D01*
X131571591Y-61665889D01*
X131418991Y-61625000D01*
X131261009Y-61625000D01*
X131108409Y-61665889D01*
X131090000Y-61676517D01*
X131090000Y-60875000D01*
X130983754Y-60875000D01*
X130773872Y-60908242D01*
X130773869Y-60908242D01*
X130571782Y-60973904D01*
X130382442Y-61070379D01*
X130210540Y-61195272D01*
X130210535Y-61195276D01*
X130060276Y-61345535D01*
X130060272Y-61345540D01*
X129935379Y-61517442D01*
X129838904Y-61706782D01*
X129773242Y-61908870D01*
X129773242Y-61908873D01*
X129762769Y-61975000D01*
X130791518Y-61975000D01*
X130780889Y-61993409D01*
X130740000Y-62146009D01*
X130740000Y-62303991D01*
X130780889Y-62456591D01*
X130791518Y-62475000D01*
X129762769Y-62475000D01*
X129773242Y-62541126D01*
X129773242Y-62541129D01*
X129838904Y-62743217D01*
X129935379Y-62932557D01*
X130060272Y-63104459D01*
X130060276Y-63104464D01*
X130210535Y-63254723D01*
X130210540Y-63254727D01*
X130375218Y-63374372D01*
X130417884Y-63429701D01*
X130423863Y-63499315D01*
X130391258Y-63561110D01*
X130375218Y-63575008D01*
X130210214Y-63694890D01*
X130210209Y-63694894D01*
X130059890Y-63845213D01*
X129934951Y-64017179D01*
X129838444Y-64206585D01*
X129772753Y-64408760D01*
X129739500Y-64618713D01*
X129739500Y-64831286D01*
X129764356Y-64988224D01*
X129772754Y-65041243D01*
X129806089Y-65143838D01*
X129838444Y-65243414D01*
X129934951Y-65432820D01*
X130059890Y-65604786D01*
X130210209Y-65755105D01*
X130210214Y-65755109D01*
X130374793Y-65874682D01*
X130417459Y-65930011D01*
X130423438Y-65999625D01*
X130390833Y-66061420D01*
X130374793Y-66075318D01*
X130210214Y-66194890D01*
X130210209Y-66194894D01*
X130059890Y-66345213D01*
X129934951Y-66517179D01*
X129838444Y-66706585D01*
X129772753Y-66908760D01*
X129739500Y-67118713D01*
X129739500Y-67331287D01*
X129772754Y-67541243D01*
X129837790Y-67741403D01*
X129838444Y-67743414D01*
X129934951Y-67932820D01*
X130059890Y-68104786D01*
X130210209Y-68255105D01*
X130210214Y-68255109D01*
X130374793Y-68374682D01*
X130417459Y-68430011D01*
X130423438Y-68499625D01*
X130390833Y-68561420D01*
X130374793Y-68575318D01*
X130210214Y-68694890D01*
X130210209Y-68694894D01*
X130059890Y-68845213D01*
X129934951Y-69017179D01*
X129838444Y-69206585D01*
X129772753Y-69408760D01*
X129745079Y-69583489D01*
X129739500Y-69618713D01*
X129739500Y-69831287D01*
X129747465Y-69881578D01*
X129763510Y-69982883D01*
X129772754Y-70041243D01*
X129816973Y-70177335D01*
X129838444Y-70243414D01*
X129934951Y-70432820D01*
X130059890Y-70604786D01*
X130198705Y-70743601D01*
X130232190Y-70804924D01*
X130227206Y-70874616D01*
X130185334Y-70930549D01*
X130176121Y-70936821D01*
X130021342Y-71032289D01*
X129897289Y-71156342D01*
X129805187Y-71305663D01*
X129805185Y-71305668D01*
X129778703Y-71385586D01*
X129750001Y-71472203D01*
X129750001Y-71472204D01*
X129750000Y-71472204D01*
X129739500Y-71574983D01*
X129739500Y-72875001D01*
X129739501Y-72875018D01*
X129750000Y-72977796D01*
X129750001Y-72977799D01*
X129775970Y-73056166D01*
X129805186Y-73144334D01*
X129897288Y-73293656D01*
X130021344Y-73417712D01*
X130170666Y-73509814D01*
X130337203Y-73564999D01*
X130439991Y-73575500D01*
X132240008Y-73575499D01*
X132342797Y-73564999D01*
X132509334Y-73509814D01*
X132658656Y-73417712D01*
X132782712Y-73293656D01*
X132874814Y-73144334D01*
X132929999Y-72977797D01*
X132940500Y-72875009D01*
X132940499Y-72476594D01*
X132960183Y-72409557D01*
X133012987Y-72363802D01*
X133082146Y-72353858D01*
X133145701Y-72382883D01*
X133152180Y-72388915D01*
X133776584Y-73013319D01*
X133810069Y-73074642D01*
X133805085Y-73144334D01*
X133763213Y-73200267D01*
X133697749Y-73224684D01*
X133688936Y-73225000D01*
X133688377Y-73225000D01*
X133688344Y-73225001D01*
X133587347Y-73235319D01*
X133423699Y-73289546D01*
X133423688Y-73289551D01*
X133276965Y-73380052D01*
X133276961Y-73380055D01*
X133155055Y-73501961D01*
X133155052Y-73501965D01*
X133064551Y-73648688D01*
X133064546Y-73648699D01*
X133010319Y-73812347D01*
X133000000Y-73913345D01*
X133000000Y-73950000D01*
X133863500Y-73950000D01*
X133930539Y-73969685D01*
X133976294Y-74022489D01*
X133987500Y-74074000D01*
X133987500Y-74200000D01*
X134113500Y-74200000D01*
X134180539Y-74219685D01*
X134226294Y-74272489D01*
X134237500Y-74324000D01*
X134237500Y-75201944D01*
X134217815Y-75268983D01*
X134165011Y-75314738D01*
X134137693Y-75323561D01*
X134104007Y-75330261D01*
X134103998Y-75330264D01*
X133958327Y-75390602D01*
X133958314Y-75390609D01*
X133827211Y-75478210D01*
X133827207Y-75478213D01*
X133715713Y-75589707D01*
X133715710Y-75589711D01*
X133628109Y-75720814D01*
X133628102Y-75720827D01*
X133567764Y-75866498D01*
X133567761Y-75866510D01*
X133537000Y-76021153D01*
X133537000Y-76178846D01*
X133567761Y-76333489D01*
X133567764Y-76333501D01*
X133628102Y-76479172D01*
X133628109Y-76479185D01*
X133715710Y-76610288D01*
X133715713Y-76610292D01*
X133827207Y-76721786D01*
X133827211Y-76721789D01*
X133958314Y-76809390D01*
X133958327Y-76809397D01*
X134103967Y-76869722D01*
X134104003Y-76869737D01*
X134251605Y-76899097D01*
X134258653Y-76900499D01*
X134258656Y-76900500D01*
X134258658Y-76900500D01*
X134416344Y-76900500D01*
X134416345Y-76900499D01*
X134570997Y-76869737D01*
X134685200Y-76822433D01*
X134705642Y-76813966D01*
X134706393Y-76813885D01*
X134706989Y-76813417D01*
X134741066Y-76810157D01*
X134775111Y-76806497D01*
X134775788Y-76806836D01*
X134776541Y-76806764D01*
X134806948Y-76822433D01*
X134837590Y-76837772D01*
X134838200Y-76838538D01*
X134838649Y-76838770D01*
X134860158Y-76866116D01*
X134860471Y-76866509D01*
X134862325Y-76869719D01*
X134862325Y-76869722D01*
X134862333Y-76869735D01*
X134862336Y-76869739D01*
X134880239Y-76900749D01*
X134896710Y-76968649D01*
X134873857Y-77034676D01*
X134872118Y-77037058D01*
X134781646Y-77157911D01*
X134781645Y-77157913D01*
X134731403Y-77292620D01*
X134731401Y-77292627D01*
X134725000Y-77352155D01*
X134725000Y-77475000D01*
X135250500Y-77475000D01*
X135317539Y-77494685D01*
X135363294Y-77547489D01*
X135374500Y-77599000D01*
X135374500Y-77947869D01*
X135374501Y-77947876D01*
X135380908Y-78007483D01*
X135431202Y-78142328D01*
X135431203Y-78142329D01*
X135431204Y-78142331D01*
X135517454Y-78257546D01*
X135525308Y-78263425D01*
X135528045Y-78267082D01*
X135532203Y-78268981D01*
X135548791Y-78294793D01*
X135567180Y-78319356D01*
X135568196Y-78324988D01*
X135569977Y-78327759D01*
X135575000Y-78362694D01*
X135575000Y-78466138D01*
X135562500Y-78508707D01*
X135562500Y-78650000D01*
X136813500Y-78650000D01*
X136880539Y-78669685D01*
X136926294Y-78722489D01*
X136937500Y-78774000D01*
X136937500Y-79026000D01*
X136917815Y-79093039D01*
X136865011Y-79138794D01*
X136813500Y-79150000D01*
X135436500Y-79150000D01*
X135369461Y-79130315D01*
X135323706Y-79077511D01*
X135312500Y-79026000D01*
X135312500Y-78900000D01*
X135186500Y-78900000D01*
X135119461Y-78880315D01*
X135073706Y-78827511D01*
X135062500Y-78776000D01*
X135062500Y-77825000D01*
X134725000Y-77825000D01*
X134725000Y-77904116D01*
X134722886Y-77911314D01*
X134724138Y-77918712D01*
X134713177Y-77944380D01*
X134705315Y-77971155D01*
X134698962Y-77977667D01*
X134696699Y-77982968D01*
X134677236Y-77999940D01*
X134670608Y-78006736D01*
X134519961Y-78108921D01*
X134497453Y-78116141D01*
X134476708Y-78127468D01*
X134464799Y-78126615D01*
X134453430Y-78130263D01*
X134430593Y-78124168D01*
X134407016Y-78122482D01*
X134394763Y-78114607D01*
X134385923Y-78112248D01*
X134378622Y-78104233D01*
X134362672Y-78093982D01*
X134348351Y-78079661D01*
X134348350Y-78079660D01*
X134231333Y-78007483D01*
X134201518Y-77989093D01*
X134201513Y-77989091D01*
X134183035Y-77982968D01*
X134037753Y-77934826D01*
X134037751Y-77934825D01*
X133936678Y-77924500D01*
X133238330Y-77924500D01*
X133238312Y-77924501D01*
X133137247Y-77934825D01*
X132973484Y-77989092D01*
X132973481Y-77989093D01*
X132826648Y-78079661D01*
X132704661Y-78201648D01*
X132614093Y-78348481D01*
X132614091Y-78348486D01*
X132587507Y-78428711D01*
X132559826Y-78512247D01*
X132559826Y-78512248D01*
X132559825Y-78512248D01*
X132549500Y-78613315D01*
X132549500Y-79186669D01*
X132549501Y-79186687D01*
X132559825Y-79287752D01*
X132559826Y-79287755D01*
X132609276Y-79436984D01*
X132611678Y-79506812D01*
X132581578Y-79559601D01*
X132582072Y-79560007D01*
X132579696Y-79562900D01*
X132579268Y-79563653D01*
X132578214Y-79564706D01*
X132578208Y-79564714D01*
X132490609Y-79695814D01*
X132490602Y-79695827D01*
X132430264Y-79841498D01*
X132430261Y-79841510D01*
X132399500Y-79996153D01*
X132399500Y-80153846D01*
X132430261Y-80308489D01*
X132430264Y-80308501D01*
X132490602Y-80454172D01*
X132490609Y-80454185D01*
X132578210Y-80585288D01*
X132578213Y-80585292D01*
X132689707Y-80696786D01*
X132689711Y-80696789D01*
X132820814Y-80784390D01*
X132820827Y-80784397D01*
X132966498Y-80844735D01*
X132966503Y-80844737D01*
X133117875Y-80874847D01*
X133121153Y-80875499D01*
X133121156Y-80875500D01*
X133121158Y-80875500D01*
X133278844Y-80875500D01*
X133278845Y-80875499D01*
X133433497Y-80844737D01*
X133579179Y-80784394D01*
X133710289Y-80696789D01*
X133821789Y-80585289D01*
X133909394Y-80454179D01*
X133969737Y-80308497D01*
X134000500Y-80153842D01*
X134000500Y-80153840D01*
X134000637Y-80153152D01*
X134033021Y-80091241D01*
X134034545Y-80089689D01*
X134068020Y-80056216D01*
X134102697Y-79996153D01*
X134147074Y-79919290D01*
X134147074Y-79919288D01*
X134147077Y-79919284D01*
X134158337Y-79877258D01*
X134172203Y-79854509D01*
X134182783Y-79830052D01*
X134191970Y-79822078D01*
X134194700Y-79817600D01*
X134208986Y-79806407D01*
X134210934Y-79805098D01*
X134348350Y-79720340D01*
X134371213Y-79697476D01*
X134381228Y-79690752D01*
X134403496Y-79683723D01*
X134423989Y-79672533D01*
X134436191Y-79673405D01*
X134447858Y-79669723D01*
X134470389Y-79675849D01*
X134493681Y-79677514D01*
X134506272Y-79685605D01*
X134515280Y-79688055D01*
X134522452Y-79696003D01*
X134538034Y-79706017D01*
X134551961Y-79719944D01*
X134551965Y-79719947D01*
X134698688Y-79810448D01*
X134698699Y-79810453D01*
X134862347Y-79864680D01*
X134963351Y-79874999D01*
X135110674Y-79874999D01*
X135177714Y-79894683D01*
X135223469Y-79947487D01*
X135234033Y-80011602D01*
X135225000Y-80100013D01*
X135225000Y-80375000D01*
X136188500Y-80375000D01*
X136255539Y-80394685D01*
X136301294Y-80447489D01*
X136312500Y-80499000D01*
X136312500Y-80751000D01*
X136292815Y-80818039D01*
X136240011Y-80863794D01*
X136188500Y-80875000D01*
X135225001Y-80875000D01*
X135225001Y-81149986D01*
X135235494Y-81252697D01*
X135290641Y-81419119D01*
X135290643Y-81419124D01*
X135382684Y-81568345D01*
X135506654Y-81692315D01*
X135655875Y-81784356D01*
X135655880Y-81784358D01*
X135726605Y-81807794D01*
X135784050Y-81847566D01*
X135810873Y-81912082D01*
X135798558Y-81980858D01*
X135751015Y-82032058D01*
X135687601Y-82049500D01*
X129077668Y-82049500D01*
X129010629Y-82029815D01*
X128964874Y-81977011D01*
X128954930Y-81907853D01*
X128972130Y-81860402D01*
X128985450Y-81838807D01*
X128985453Y-81838800D01*
X129039680Y-81675152D01*
X129049999Y-81574154D01*
X129050000Y-81574141D01*
X129050000Y-81525000D01*
X127100001Y-81525000D01*
X127100001Y-81574154D01*
X127110319Y-81675152D01*
X127164546Y-81838800D01*
X127164549Y-81838807D01*
X127177870Y-81860402D01*
X127196311Y-81927794D01*
X127175389Y-81994458D01*
X127121748Y-82039228D01*
X127072332Y-82049500D01*
X123478051Y-82049500D01*
X123471968Y-82049351D01*
X123451900Y-82048365D01*
X123138071Y-82032947D01*
X123125962Y-82031754D01*
X122798305Y-81983151D01*
X122786369Y-81980777D01*
X122465055Y-81900292D01*
X122453411Y-81896759D01*
X122141540Y-81785170D01*
X122130301Y-81780515D01*
X121830844Y-81638883D01*
X121820121Y-81633150D01*
X121536011Y-81462862D01*
X121525893Y-81456102D01*
X121259829Y-81258775D01*
X121250423Y-81251055D01*
X121211475Y-81215755D01*
X121004986Y-81028604D01*
X120996395Y-81020013D01*
X120773944Y-80774576D01*
X120766224Y-80765170D01*
X120697771Y-80672872D01*
X120568895Y-80499103D01*
X120562137Y-80488988D01*
X120541277Y-80454185D01*
X120391844Y-80204871D01*
X120386120Y-80194163D01*
X120244477Y-79894683D01*
X120239829Y-79883459D01*
X120237611Y-79877261D01*
X120141766Y-79609390D01*
X120128240Y-79571588D01*
X120124707Y-79559944D01*
X120114080Y-79517517D01*
X120044219Y-79238617D01*
X120041848Y-79226694D01*
X120030592Y-79150815D01*
X120005083Y-78978842D01*
X119993245Y-78899037D01*
X119992052Y-78886927D01*
X119975649Y-78553032D01*
X119975500Y-78546948D01*
X119975500Y-78428711D01*
X121624500Y-78428711D01*
X121624500Y-78671288D01*
X121653689Y-78893011D01*
X121656162Y-78911789D01*
X121674130Y-78978846D01*
X121718947Y-79146104D01*
X121774066Y-79279172D01*
X121811776Y-79370212D01*
X121933064Y-79580289D01*
X121933066Y-79580292D01*
X121933067Y-79580293D01*
X122080733Y-79772736D01*
X122080739Y-79772743D01*
X122252256Y-79944260D01*
X122252263Y-79944266D01*
X122343162Y-80014015D01*
X122444711Y-80091936D01*
X122654788Y-80213224D01*
X122878900Y-80306054D01*
X123113211Y-80368838D01*
X123267962Y-80389211D01*
X123353711Y-80400500D01*
X123353712Y-80400500D01*
X123596289Y-80400500D01*
X123644388Y-80394167D01*
X123836789Y-80368838D01*
X124071100Y-80306054D01*
X124295212Y-80213224D01*
X124505289Y-80091936D01*
X124697738Y-79944265D01*
X124869265Y-79772738D01*
X125016936Y-79580289D01*
X125138224Y-79370212D01*
X125231054Y-79146100D01*
X125293838Y-78911789D01*
X125325500Y-78671288D01*
X125325500Y-78428712D01*
X125293838Y-78188211D01*
X125231054Y-77953900D01*
X125138224Y-77729788D01*
X125016936Y-77519711D01*
X124869265Y-77327262D01*
X124869260Y-77327256D01*
X124697743Y-77155739D01*
X124697736Y-77155733D01*
X124505293Y-77008067D01*
X124505292Y-77008066D01*
X124505289Y-77008064D01*
X124295212Y-76886776D01*
X124281953Y-76881284D01*
X124071104Y-76793947D01*
X123836785Y-76731161D01*
X123596289Y-76699500D01*
X123596288Y-76699500D01*
X123353712Y-76699500D01*
X123353711Y-76699500D01*
X123113214Y-76731161D01*
X122878895Y-76793947D01*
X122654794Y-76886773D01*
X122654785Y-76886777D01*
X122511021Y-76969780D01*
X122452627Y-77003494D01*
X122444706Y-77008067D01*
X122252263Y-77155733D01*
X122252256Y-77155739D01*
X122080739Y-77327256D01*
X122080733Y-77327263D01*
X121933067Y-77519706D01*
X121933064Y-77519710D01*
X121933064Y-77519711D01*
X121923282Y-77536654D01*
X121811777Y-77729785D01*
X121811773Y-77729794D01*
X121718947Y-77953895D01*
X121656161Y-78188214D01*
X121624500Y-78428711D01*
X119975500Y-78428711D01*
X119975500Y-75163315D01*
X127099500Y-75163315D01*
X127099500Y-75836669D01*
X127099501Y-75836687D01*
X127109825Y-75937752D01*
X127132574Y-76006401D01*
X127161048Y-76092331D01*
X127164092Y-76101515D01*
X127164093Y-76101518D01*
X127254661Y-76248351D01*
X127293629Y-76287319D01*
X127327114Y-76348642D01*
X127322130Y-76418334D01*
X127293629Y-76462681D01*
X127254661Y-76501648D01*
X127164093Y-76648481D01*
X127164091Y-76648486D01*
X127109825Y-76812248D01*
X127099500Y-76913315D01*
X127099500Y-77586669D01*
X127099501Y-77586687D01*
X127109825Y-77687752D01*
X127146109Y-77797249D01*
X127164092Y-77851516D01*
X127248950Y-77989093D01*
X127254661Y-77998351D01*
X127288181Y-78031871D01*
X127321666Y-78093194D01*
X127324500Y-78119552D01*
X127324500Y-78617948D01*
X127304815Y-78684987D01*
X127288181Y-78705629D01*
X127254661Y-78739148D01*
X127164093Y-78885981D01*
X127164091Y-78885986D01*
X127155542Y-78911785D01*
X127109826Y-79049747D01*
X127109826Y-79049748D01*
X127109825Y-79049748D01*
X127099500Y-79150815D01*
X127099500Y-79749169D01*
X127099501Y-79749187D01*
X127109825Y-79850252D01*
X127140977Y-79944260D01*
X127164092Y-80014016D01*
X127250337Y-80153842D01*
X127254661Y-80160851D01*
X127368982Y-80275172D01*
X127402467Y-80336495D01*
X127397483Y-80406187D01*
X127368983Y-80450534D01*
X127255052Y-80564465D01*
X127164551Y-80711188D01*
X127164546Y-80711199D01*
X127110319Y-80874847D01*
X127100000Y-80975845D01*
X127100000Y-81025000D01*
X129049999Y-81025000D01*
X129049999Y-80975860D01*
X129049998Y-80975845D01*
X129039680Y-80874847D01*
X128985453Y-80711199D01*
X128985448Y-80711188D01*
X128894947Y-80564465D01*
X128894944Y-80564461D01*
X128781017Y-80450534D01*
X128747532Y-80389211D01*
X128752516Y-80319519D01*
X128781013Y-80275176D01*
X128895340Y-80160850D01*
X128985908Y-80014016D01*
X129040174Y-79850253D01*
X129050500Y-79749177D01*
X129050499Y-79577135D01*
X129949500Y-79577135D01*
X129949500Y-80672870D01*
X129949501Y-80672876D01*
X129955908Y-80732483D01*
X130006202Y-80867328D01*
X130006206Y-80867335D01*
X130092452Y-80982544D01*
X130092455Y-80982547D01*
X130207664Y-81068793D01*
X130207671Y-81068797D01*
X130342517Y-81119091D01*
X130342516Y-81119091D01*
X130349444Y-81119835D01*
X130402127Y-81125500D01*
X131497872Y-81125499D01*
X131557483Y-81119091D01*
X131692331Y-81068796D01*
X131807546Y-80982546D01*
X131893796Y-80867331D01*
X131944091Y-80732483D01*
X131950500Y-80672873D01*
X131950499Y-79577128D01*
X131944091Y-79517517D01*
X131940098Y-79506812D01*
X131893797Y-79382671D01*
X131893793Y-79382664D01*
X131807547Y-79267455D01*
X131807544Y-79267452D01*
X131692335Y-79181206D01*
X131692328Y-79181202D01*
X131557482Y-79130908D01*
X131557483Y-79130908D01*
X131497883Y-79124501D01*
X131497881Y-79124500D01*
X131497873Y-79124500D01*
X131497864Y-79124500D01*
X130402129Y-79124500D01*
X130402123Y-79124501D01*
X130342516Y-79130908D01*
X130207671Y-79181202D01*
X130207664Y-79181206D01*
X130092455Y-79267452D01*
X130092452Y-79267455D01*
X130006206Y-79382664D01*
X130006202Y-79382671D01*
X129955908Y-79517517D01*
X129949857Y-79573805D01*
X129949501Y-79577123D01*
X129949500Y-79577135D01*
X129050499Y-79577135D01*
X129050499Y-79436984D01*
X129050499Y-79150830D01*
X129050498Y-79150812D01*
X129040174Y-79049747D01*
X129032305Y-79026000D01*
X128985908Y-78885984D01*
X128895340Y-78739150D01*
X128861819Y-78705629D01*
X128828334Y-78644306D01*
X128825500Y-78617948D01*
X128825500Y-78119552D01*
X128845185Y-78052513D01*
X128861819Y-78031871D01*
X128895340Y-77998350D01*
X128985908Y-77851516D01*
X129040174Y-77687753D01*
X129050500Y-77586677D01*
X129050500Y-77547844D01*
X129900000Y-77547844D01*
X129906401Y-77607372D01*
X129906403Y-77607379D01*
X129956645Y-77742086D01*
X129956649Y-77742093D01*
X130042809Y-77857187D01*
X130042812Y-77857190D01*
X130157906Y-77943350D01*
X130157913Y-77943354D01*
X130292620Y-77993596D01*
X130292627Y-77993598D01*
X130352155Y-77999999D01*
X130352172Y-78000000D01*
X130650000Y-78000000D01*
X131150000Y-78000000D01*
X131447828Y-78000000D01*
X131447844Y-77999999D01*
X131507372Y-77993598D01*
X131507379Y-77993596D01*
X131642086Y-77943354D01*
X131642093Y-77943350D01*
X131757187Y-77857190D01*
X131757190Y-77857187D01*
X131843350Y-77742093D01*
X131843354Y-77742086D01*
X131893596Y-77607379D01*
X131893598Y-77607372D01*
X131899999Y-77547844D01*
X131900000Y-77547827D01*
X131900000Y-77250000D01*
X131150000Y-77250000D01*
X131150000Y-78000000D01*
X130650000Y-78000000D01*
X130650000Y-77250000D01*
X129900000Y-77250000D01*
X129900000Y-77547844D01*
X129050500Y-77547844D01*
X129050499Y-76950272D01*
X130650000Y-76950272D01*
X130650000Y-77049728D01*
X130688060Y-77141614D01*
X130758386Y-77211940D01*
X130850272Y-77250000D01*
X130949728Y-77250000D01*
X131041614Y-77211940D01*
X131111940Y-77141614D01*
X131150000Y-77049728D01*
X131150000Y-76950272D01*
X131111940Y-76858386D01*
X131041614Y-76788060D01*
X130949728Y-76750000D01*
X131150000Y-76750000D01*
X131900000Y-76750000D01*
X131900000Y-76452172D01*
X131899999Y-76452155D01*
X131893598Y-76392627D01*
X131893596Y-76392620D01*
X131843354Y-76257913D01*
X131843350Y-76257906D01*
X131757190Y-76142812D01*
X131757187Y-76142809D01*
X131642093Y-76056649D01*
X131642086Y-76056645D01*
X131507379Y-76006403D01*
X131507372Y-76006401D01*
X131447844Y-76000000D01*
X131150000Y-76000000D01*
X131150000Y-76750000D01*
X130949728Y-76750000D01*
X130850272Y-76750000D01*
X130758386Y-76788060D01*
X130688060Y-76858386D01*
X130650000Y-76950272D01*
X129050499Y-76950272D01*
X129050499Y-76913324D01*
X129049214Y-76900749D01*
X129040174Y-76812246D01*
X129013305Y-76731162D01*
X128985908Y-76648484D01*
X128895340Y-76501650D01*
X128853372Y-76459682D01*
X128850602Y-76456506D01*
X128848598Y-76452155D01*
X129900000Y-76452155D01*
X129900000Y-76750000D01*
X130650000Y-76750000D01*
X130650000Y-76000000D01*
X130352155Y-76000000D01*
X130292627Y-76006401D01*
X130292620Y-76006403D01*
X130157913Y-76056645D01*
X130157906Y-76056649D01*
X130042812Y-76142809D01*
X130042809Y-76142812D01*
X129956649Y-76257906D01*
X129956645Y-76257913D01*
X129906403Y-76392620D01*
X129906401Y-76392627D01*
X129900000Y-76452155D01*
X128848598Y-76452155D01*
X128837681Y-76428453D01*
X128822886Y-76401358D01*
X128823197Y-76397006D01*
X128821372Y-76393044D01*
X128825667Y-76362464D01*
X128827870Y-76331666D01*
X128830587Y-76327437D01*
X128831091Y-76323854D01*
X128838191Y-76315605D01*
X128856371Y-76287319D01*
X128868910Y-76274780D01*
X128895340Y-76248350D01*
X128985908Y-76101516D01*
X129040174Y-75937753D01*
X129050500Y-75836677D01*
X129050499Y-75447955D01*
X129070183Y-75380917D01*
X129122987Y-75335162D01*
X129150308Y-75326339D01*
X129164272Y-75323561D01*
X129183497Y-75319737D01*
X129329179Y-75259394D01*
X129460289Y-75171789D01*
X129571789Y-75060289D01*
X129659394Y-74929179D01*
X129668911Y-74906204D01*
X129704137Y-74821158D01*
X129719737Y-74783497D01*
X129750500Y-74628842D01*
X129750500Y-74486654D01*
X133000001Y-74486654D01*
X133010319Y-74587652D01*
X133064546Y-74751300D01*
X133064551Y-74751311D01*
X133155052Y-74898034D01*
X133155055Y-74898038D01*
X133276961Y-75019944D01*
X133276965Y-75019947D01*
X133423688Y-75110448D01*
X133423699Y-75110453D01*
X133587347Y-75164680D01*
X133688351Y-75174999D01*
X133737499Y-75174998D01*
X133737500Y-75174998D01*
X133737500Y-74450000D01*
X133000001Y-74450000D01*
X133000001Y-74486654D01*
X129750500Y-74486654D01*
X129750500Y-74471158D01*
X129750500Y-74471155D01*
X129740887Y-74422830D01*
X129740887Y-74422829D01*
X129719738Y-74316510D01*
X129719737Y-74316503D01*
X129679634Y-74219685D01*
X129659397Y-74170827D01*
X129659390Y-74170814D01*
X129571789Y-74039711D01*
X129571786Y-74039707D01*
X129460292Y-73928213D01*
X129460288Y-73928210D01*
X129329185Y-73840609D01*
X129329172Y-73840602D01*
X129183501Y-73780264D01*
X129183489Y-73780261D01*
X129028845Y-73749500D01*
X129028842Y-73749500D01*
X128871158Y-73749500D01*
X128871155Y-73749500D01*
X128716510Y-73780261D01*
X128716498Y-73780264D01*
X128570827Y-73840602D01*
X128570814Y-73840609D01*
X128439711Y-73928210D01*
X128439707Y-73928213D01*
X128328213Y-74039707D01*
X128328210Y-74039711D01*
X128240609Y-74170814D01*
X128240602Y-74170827D01*
X128180264Y-74316498D01*
X128180261Y-74316507D01*
X128168687Y-74374693D01*
X128136301Y-74436604D01*
X128075584Y-74471177D01*
X128047070Y-74474500D01*
X127788331Y-74474500D01*
X127788312Y-74474501D01*
X127687247Y-74484825D01*
X127523484Y-74539092D01*
X127523481Y-74539093D01*
X127376648Y-74629661D01*
X127254661Y-74751648D01*
X127164093Y-74898481D01*
X127164091Y-74898486D01*
X127153761Y-74929660D01*
X127109826Y-75062247D01*
X127109826Y-75062248D01*
X127109825Y-75062248D01*
X127099500Y-75163315D01*
X119975500Y-75163315D01*
X119975500Y-72138389D01*
X123059500Y-72138389D01*
X123059500Y-72311611D01*
X123086598Y-72482701D01*
X123140127Y-72647445D01*
X123218768Y-72801788D01*
X123320586Y-72941928D01*
X123443072Y-73064414D01*
X123583212Y-73166232D01*
X123737555Y-73244873D01*
X123902299Y-73298402D01*
X124073389Y-73325500D01*
X124073390Y-73325500D01*
X124246610Y-73325500D01*
X124246611Y-73325500D01*
X124417701Y-73298402D01*
X124582445Y-73244873D01*
X124736788Y-73166232D01*
X124876928Y-73064414D01*
X124999414Y-72941928D01*
X125101232Y-72801788D01*
X125179873Y-72647445D01*
X125233402Y-72482701D01*
X125260500Y-72311611D01*
X125260500Y-72138389D01*
X125233402Y-71967299D01*
X125179873Y-71802555D01*
X125101232Y-71648212D01*
X124999414Y-71508072D01*
X124876928Y-71385586D01*
X124736788Y-71283768D01*
X124582445Y-71205127D01*
X124417701Y-71151598D01*
X124417699Y-71151597D01*
X124417698Y-71151597D01*
X124286271Y-71130781D01*
X124246611Y-71124500D01*
X124073389Y-71124500D01*
X124033728Y-71130781D01*
X123902302Y-71151597D01*
X123737552Y-71205128D01*
X123583211Y-71283768D01*
X123503256Y-71341859D01*
X123443072Y-71385586D01*
X123443070Y-71385588D01*
X123443069Y-71385588D01*
X123320588Y-71508069D01*
X123320588Y-71508070D01*
X123320586Y-71508072D01*
X123312855Y-71518713D01*
X123218768Y-71648211D01*
X123140128Y-71802552D01*
X123086597Y-71967302D01*
X123059500Y-72138389D01*
X119975500Y-72138389D01*
X119975500Y-63328051D01*
X119975649Y-63321967D01*
X119981458Y-63203712D01*
X119992052Y-62988068D01*
X119993245Y-62975962D01*
X119998293Y-62941928D01*
X120041849Y-62648296D01*
X120044218Y-62636385D01*
X120124710Y-62315043D01*
X120128240Y-62303411D01*
X120131355Y-62294706D01*
X120187286Y-62138389D01*
X123059500Y-62138389D01*
X123059500Y-62311611D01*
X123065578Y-62349985D01*
X123082462Y-62456591D01*
X123086598Y-62482701D01*
X123140127Y-62647445D01*
X123218768Y-62801788D01*
X123320586Y-62941928D01*
X123443072Y-63064414D01*
X123583212Y-63166232D01*
X123737555Y-63244873D01*
X123902299Y-63298402D01*
X124073389Y-63325500D01*
X124073390Y-63325500D01*
X124246610Y-63325500D01*
X124246611Y-63325500D01*
X124417701Y-63298402D01*
X124582445Y-63244873D01*
X124736788Y-63166232D01*
X124876928Y-63064414D01*
X124999414Y-62941928D01*
X125101232Y-62801788D01*
X125179873Y-62647445D01*
X125233402Y-62482701D01*
X125260500Y-62311611D01*
X125260500Y-62138389D01*
X125233402Y-61967299D01*
X125179873Y-61802555D01*
X125101232Y-61648212D01*
X124999414Y-61508072D01*
X124876928Y-61385586D01*
X124736788Y-61283768D01*
X124582445Y-61205127D01*
X124417701Y-61151598D01*
X124417699Y-61151597D01*
X124417698Y-61151597D01*
X124286271Y-61130781D01*
X124246611Y-61124500D01*
X124073389Y-61124500D01*
X124033728Y-61130781D01*
X123902302Y-61151597D01*
X123737552Y-61205128D01*
X123583211Y-61283768D01*
X123503256Y-61341859D01*
X123443072Y-61385586D01*
X123443070Y-61385588D01*
X123443069Y-61385588D01*
X123320588Y-61508069D01*
X123320588Y-61508070D01*
X123320586Y-61508072D01*
X123276859Y-61568256D01*
X123218768Y-61648211D01*
X123140128Y-61802552D01*
X123086597Y-61967302D01*
X123065223Y-62102256D01*
X123059500Y-62138389D01*
X120187286Y-62138389D01*
X120239841Y-61991507D01*
X120244476Y-61980318D01*
X120386124Y-61680828D01*
X120391840Y-61670136D01*
X120562145Y-61385998D01*
X120568888Y-61375905D01*
X120766232Y-61109818D01*
X120773935Y-61100433D01*
X120996405Y-60854975D01*
X121004975Y-60846405D01*
X121250433Y-60623935D01*
X121259818Y-60616232D01*
X121525905Y-60418888D01*
X121535998Y-60412145D01*
X121820136Y-60241840D01*
X121830828Y-60236124D01*
X122130318Y-60094476D01*
X122141525Y-60089835D01*
X122453412Y-59978239D01*
X122465043Y-59974710D01*
X122786385Y-59894218D01*
X122798296Y-59891849D01*
X123125962Y-59843244D01*
X123138068Y-59842052D01*
X123471967Y-59825648D01*
X123478051Y-59825500D01*
X123540892Y-59825500D01*
X139234108Y-59825500D01*
X139296949Y-59825500D01*
X139303032Y-59825648D01*
G37*
%TD.AperFunction*%
%TA.AperFunction,Conductor*%
G36*
X137826913Y-76348937D02*
G01*
X137844771Y-76371522D01*
X137883865Y-76434903D01*
X137887975Y-76449924D01*
X137896636Y-76462867D01*
X137897007Y-76482933D01*
X137902306Y-76502295D01*
X137897660Y-76518117D01*
X137897931Y-76532724D01*
X137883867Y-76565095D01*
X137868139Y-76590595D01*
X137816191Y-76637321D01*
X137762599Y-76649500D01*
X137670941Y-76649500D01*
X137633334Y-76659576D01*
X137633335Y-76659577D01*
X137518214Y-76690423D01*
X137518209Y-76690426D01*
X137381290Y-76769475D01*
X137381286Y-76769478D01*
X137287582Y-76863182D01*
X137264872Y-76875582D01*
X137244304Y-76891277D01*
X137231930Y-76893568D01*
X137226258Y-76896666D01*
X137209887Y-76899097D01*
X137204894Y-76899500D01*
X137127128Y-76899501D01*
X137067517Y-76905909D01*
X137051462Y-76911897D01*
X137034272Y-76913286D01*
X137016269Y-76909543D01*
X136997926Y-76910855D01*
X136984357Y-76906870D01*
X136982372Y-76906401D01*
X136922844Y-76900000D01*
X136875000Y-76900000D01*
X136875000Y-76937305D01*
X136865463Y-76969780D01*
X136856487Y-77002486D01*
X136855564Y-77003494D01*
X136855315Y-77004344D01*
X136833850Y-77029565D01*
X136829734Y-77033261D01*
X136817454Y-77042454D01*
X136813263Y-77048052D01*
X136804170Y-77056218D01*
X136783226Y-77066234D01*
X136764638Y-77080146D01*
X136752298Y-77081026D01*
X136741139Y-77086364D01*
X136718105Y-77083467D01*
X136694946Y-77085121D01*
X136684087Y-77079190D01*
X136671815Y-77077647D01*
X136654004Y-77062758D01*
X136633627Y-77051628D01*
X136624693Y-77038255D01*
X136618209Y-77032835D01*
X136615684Y-77024770D01*
X136615349Y-77024267D01*
X136613641Y-77025254D01*
X136603716Y-77008064D01*
X136549018Y-76913324D01*
X136530520Y-76881284D01*
X136418716Y-76769480D01*
X136418715Y-76769479D01*
X136414385Y-76765149D01*
X136414374Y-76765139D01*
X136209060Y-76559825D01*
X136202859Y-76548469D01*
X136193009Y-76540082D01*
X136186436Y-76518393D01*
X136175575Y-76498502D01*
X136176497Y-76485596D01*
X136172746Y-76473216D01*
X136178942Y-76451418D01*
X136180559Y-76428810D01*
X136188312Y-76418452D01*
X136191850Y-76406009D01*
X136208848Y-76391020D01*
X136222431Y-76372877D01*
X136235766Y-76367285D01*
X136244257Y-76359799D01*
X136272241Y-76351991D01*
X136278034Y-76349563D01*
X136355578Y-76337729D01*
X136378029Y-76340759D01*
X136400624Y-76339140D01*
X136417387Y-76344060D01*
X136417511Y-76344088D01*
X136417517Y-76344091D01*
X136477127Y-76350500D01*
X136922872Y-76350499D01*
X136982483Y-76344091D01*
X136982485Y-76344090D01*
X136982487Y-76344090D01*
X136990031Y-76342308D01*
X136990377Y-76343775D01*
X137051342Y-76339408D01*
X137066378Y-76343822D01*
X137067511Y-76344089D01*
X137067517Y-76344091D01*
X137127127Y-76350500D01*
X137572872Y-76350499D01*
X137632483Y-76344091D01*
X137695900Y-76320437D01*
X137765590Y-76315453D01*
X137826913Y-76348937D01*
G37*
%TD.AperFunction*%
%TD*%
M02*
