%TF.GenerationSoftware,KiCad,Pcbnew,9.0.4*%
%TF.CreationDate,2026-02-28T23:06:37-06:00*%
%TF.ProjectId,TempBoard,54656d70-426f-4617-9264-2e6b69636164,rev?*%
%TF.SameCoordinates,Original*%
%TF.FileFunction,Copper,L2,Bot*%
%TF.FilePolarity,Positive*%
%FSLAX46Y46*%
G04 Gerber Fmt 4.6, Leading zero omitted, Abs format (unit mm)*
G04 Created by KiCad (PCBNEW 9.0.4) date 2026-02-28 23:06:37*
%MOMM*%
%LPD*%
G01*
G04 APERTURE LIST*
G04 Aperture macros list*
%AMRoundRect*
0 Rectangle with rounded corners*
0 $1 Rounding radius*
0 $2 $3 $4 $5 $6 $7 $8 $9 X,Y pos of 4 corners*
0 Add a 4 corners polygon primitive as box body*
4,1,4,$2,$3,$4,$5,$6,$7,$8,$9,$2,$3,0*
0 Add four circle primitives for the rounded corners*
1,1,$1+$1,$2,$3*
1,1,$1+$1,$4,$5*
1,1,$1+$1,$6,$7*
1,1,$1+$1,$8,$9*
0 Add four rect primitives between the rounded corners*
20,1,$1+$1,$2,$3,$4,$5,0*
20,1,$1+$1,$4,$5,$6,$7,0*
20,1,$1+$1,$6,$7,$8,$9,0*
20,1,$1+$1,$8,$9,$2,$3,0*%
G04 Aperture macros list end*
%TA.AperFunction,ComponentPad*%
%ADD10RoundRect,0.250000X0.850000X0.600000X-0.850000X0.600000X-0.850000X-0.600000X0.850000X-0.600000X0*%
%TD*%
%TA.AperFunction,ComponentPad*%
%ADD11O,2.200000X1.700000*%
%TD*%
%TA.AperFunction,ComponentPad*%
%ADD12R,1.000000X1.000000*%
%TD*%
%TA.AperFunction,ComponentPad*%
%ADD13R,1.700000X1.700000*%
%TD*%
%TA.AperFunction,ComponentPad*%
%ADD14C,1.700000*%
%TD*%
%TA.AperFunction,ViaPad*%
%ADD15C,0.600000*%
%TD*%
%TA.AperFunction,Conductor*%
%ADD16C,0.200000*%
%TD*%
G04 APERTURE END LIST*
D10*
%TO.P,J3,1,Pin_1*%
%TO.N,GND*%
X131340000Y-72225000D03*
D11*
%TO.P,J3,2,Pin_2*%
X131340000Y-69725000D03*
%TO.P,J3,3,Pin_3*%
%TO.N,/SDA*%
X131340000Y-67225000D03*
%TO.P,J3,4,Pin_4*%
%TO.N,/SCL*%
X131340000Y-64725000D03*
%TO.P,J3,5,Pin_5*%
%TO.N,+3.3V*%
X131340000Y-62225000D03*
%TD*%
D12*
%TO.P,GND_TP1,1,1*%
%TO.N,GND*%
X130950000Y-80125000D03*
%TD*%
%TO.P,3.3vTP1,1,1*%
%TO.N,+3.3V*%
X130900000Y-77000000D03*
%TD*%
D13*
%TO.P,J1,1,Pin_1*%
%TO.N,+3.3V*%
X141025000Y-69085000D03*
D14*
%TO.P,J1,2,Pin_2*%
%TO.N,/SCL*%
X141025000Y-71625000D03*
%TD*%
D13*
%TO.P,J4,1,Pin_1*%
%TO.N,/SDA*%
X137450000Y-69085000D03*
D14*
%TO.P,J4,2,Pin_2*%
%TO.N,GND*%
X137450000Y-71625000D03*
%TD*%
D15*
%TO.N,/SCL*%
X134175000Y-69350000D03*
%TO.N,GND*%
X139900000Y-78900000D03*
X141400000Y-74900000D03*
X133200000Y-80075000D03*
X134337500Y-76100000D03*
X128950000Y-74550000D03*
%TD*%
D16*
%TO.N,/SCL*%
X139874000Y-70474000D02*
X135299000Y-70474000D01*
X135299000Y-70474000D02*
X134175000Y-69350000D01*
X141025000Y-71625000D02*
X139874000Y-70474000D01*
%TO.N,/SDA*%
X135590000Y-67225000D02*
X131340000Y-67225000D01*
X137450000Y-69085000D02*
X135590000Y-67225000D01*
%TD*%
%TA.AperFunction,Conductor*%
%TO.N,GND*%
G36*
X131590000Y-71676517D02*
G01*
X131571591Y-71665889D01*
X131418991Y-71625000D01*
X131261009Y-71625000D01*
X131108409Y-71665889D01*
X131090000Y-71676517D01*
X131090000Y-70273482D01*
X131108409Y-70284111D01*
X131261009Y-70325000D01*
X131418991Y-70325000D01*
X131571591Y-70284111D01*
X131590000Y-70273482D01*
X131590000Y-71676517D01*
G37*
%TD.AperFunction*%
%TA.AperFunction,Conductor*%
G36*
X139303032Y-59825648D02*
G01*
X139636929Y-59842052D01*
X139649037Y-59843245D01*
X139752146Y-59858539D01*
X139976699Y-59891849D01*
X139988617Y-59894219D01*
X140309951Y-59974709D01*
X140321588Y-59978240D01*
X140392806Y-60003722D01*
X140633467Y-60089832D01*
X140644688Y-60094479D01*
X140944163Y-60236120D01*
X140954871Y-60241844D01*
X141238988Y-60412137D01*
X141249106Y-60418897D01*
X141515170Y-60616224D01*
X141524576Y-60623944D01*
X141770013Y-60846395D01*
X141778604Y-60854986D01*
X141885967Y-60973443D01*
X142001055Y-61100423D01*
X142008775Y-61109829D01*
X142206102Y-61375893D01*
X142212862Y-61386011D01*
X142378149Y-61661777D01*
X142383148Y-61670116D01*
X142388883Y-61680844D01*
X142437229Y-61783064D01*
X142530514Y-61980297D01*
X142535170Y-61991540D01*
X142646759Y-62303411D01*
X142650292Y-62315055D01*
X142730777Y-62636369D01*
X142733151Y-62648305D01*
X142781754Y-62975962D01*
X142782947Y-62988071D01*
X142799351Y-63321966D01*
X142799500Y-63328051D01*
X142799500Y-78546948D01*
X142799351Y-78553033D01*
X142782947Y-78886928D01*
X142781754Y-78899037D01*
X142733151Y-79226694D01*
X142730777Y-79238630D01*
X142650292Y-79559944D01*
X142646759Y-79571588D01*
X142535170Y-79883459D01*
X142530514Y-79894702D01*
X142388885Y-80194151D01*
X142383148Y-80204883D01*
X142212862Y-80488988D01*
X142206102Y-80499106D01*
X142008775Y-80765170D01*
X142001055Y-80774576D01*
X141778611Y-81020006D01*
X141770006Y-81028611D01*
X141524576Y-81251055D01*
X141515170Y-81258775D01*
X141249106Y-81456102D01*
X141238988Y-81462862D01*
X140954883Y-81633148D01*
X140944151Y-81638885D01*
X140644702Y-81780514D01*
X140633459Y-81785170D01*
X140321588Y-81896759D01*
X140309944Y-81900292D01*
X139988630Y-81980777D01*
X139976694Y-81983151D01*
X139649037Y-82031754D01*
X139636928Y-82032947D01*
X139321989Y-82048419D01*
X139303031Y-82049351D01*
X139296949Y-82049500D01*
X123478051Y-82049500D01*
X123471968Y-82049351D01*
X123451900Y-82048365D01*
X123138071Y-82032947D01*
X123125962Y-82031754D01*
X122798305Y-81983151D01*
X122786369Y-81980777D01*
X122465055Y-81900292D01*
X122453411Y-81896759D01*
X122141540Y-81785170D01*
X122130301Y-81780515D01*
X121830844Y-81638883D01*
X121820121Y-81633150D01*
X121536011Y-81462862D01*
X121525893Y-81456102D01*
X121259829Y-81258775D01*
X121250423Y-81251055D01*
X121211475Y-81215755D01*
X121004986Y-81028604D01*
X120996395Y-81020013D01*
X120773944Y-80774576D01*
X120766224Y-80765170D01*
X120697750Y-80672844D01*
X129950000Y-80672844D01*
X129956401Y-80732372D01*
X129956403Y-80732379D01*
X130006645Y-80867086D01*
X130006649Y-80867093D01*
X130092809Y-80982187D01*
X130092812Y-80982190D01*
X130207906Y-81068350D01*
X130207913Y-81068354D01*
X130342620Y-81118596D01*
X130342627Y-81118598D01*
X130402155Y-81124999D01*
X130402172Y-81125000D01*
X130700000Y-81125000D01*
X131200000Y-81125000D01*
X131497828Y-81125000D01*
X131497844Y-81124999D01*
X131557372Y-81118598D01*
X131557379Y-81118596D01*
X131692086Y-81068354D01*
X131692093Y-81068350D01*
X131807187Y-80982190D01*
X131807190Y-80982187D01*
X131893350Y-80867093D01*
X131893354Y-80867086D01*
X131943596Y-80732379D01*
X131943598Y-80732372D01*
X131949999Y-80672844D01*
X131950000Y-80672827D01*
X131950000Y-80375000D01*
X131200000Y-80375000D01*
X131200000Y-81125000D01*
X130700000Y-81125000D01*
X130700000Y-80375000D01*
X129950000Y-80375000D01*
X129950000Y-80672844D01*
X120697750Y-80672844D01*
X120568895Y-80499103D01*
X120562137Y-80488988D01*
X120391844Y-80204871D01*
X120386120Y-80194163D01*
X120244479Y-79894688D01*
X120239829Y-79883459D01*
X120236802Y-79875000D01*
X120167902Y-79682438D01*
X120128240Y-79571588D01*
X120124707Y-79559944D01*
X120115958Y-79525015D01*
X120044219Y-79238617D01*
X120041848Y-79226694D01*
X119993245Y-78899037D01*
X119992052Y-78886927D01*
X119975649Y-78553032D01*
X119975500Y-78546948D01*
X119975500Y-78428711D01*
X121624500Y-78428711D01*
X121624500Y-78671288D01*
X121656161Y-78911785D01*
X121718947Y-79146104D01*
X121811773Y-79370205D01*
X121811776Y-79370212D01*
X121933064Y-79580289D01*
X121933066Y-79580292D01*
X121933067Y-79580293D01*
X122080733Y-79772736D01*
X122080739Y-79772743D01*
X122252256Y-79944260D01*
X122252263Y-79944266D01*
X122365321Y-80031018D01*
X122444711Y-80091936D01*
X122654788Y-80213224D01*
X122878900Y-80306054D01*
X123113211Y-80368838D01*
X123293586Y-80392584D01*
X123353711Y-80400500D01*
X123353712Y-80400500D01*
X123596289Y-80400500D01*
X123644388Y-80394167D01*
X123836789Y-80368838D01*
X124071100Y-80306054D01*
X124295212Y-80213224D01*
X124505289Y-80091936D01*
X124527006Y-80075272D01*
X130700000Y-80075272D01*
X130700000Y-80174728D01*
X130738060Y-80266614D01*
X130808386Y-80336940D01*
X130900272Y-80375000D01*
X130999728Y-80375000D01*
X131091614Y-80336940D01*
X131161940Y-80266614D01*
X131200000Y-80174728D01*
X131200000Y-80075272D01*
X131161940Y-79983386D01*
X131091614Y-79913060D01*
X130999728Y-79875000D01*
X131200000Y-79875000D01*
X131950000Y-79875000D01*
X131950000Y-79577172D01*
X131949999Y-79577155D01*
X131943598Y-79517627D01*
X131943596Y-79517620D01*
X131893354Y-79382913D01*
X131893350Y-79382906D01*
X131807190Y-79267812D01*
X131807187Y-79267809D01*
X131692093Y-79181649D01*
X131692086Y-79181645D01*
X131557379Y-79131403D01*
X131557372Y-79131401D01*
X131497844Y-79125000D01*
X131200000Y-79125000D01*
X131200000Y-79875000D01*
X130999728Y-79875000D01*
X130900272Y-79875000D01*
X130808386Y-79913060D01*
X130738060Y-79983386D01*
X130700000Y-80075272D01*
X124527006Y-80075272D01*
X124697738Y-79944265D01*
X124869265Y-79772738D01*
X125016936Y-79580289D01*
X125018745Y-79577155D01*
X129950000Y-79577155D01*
X129950000Y-79875000D01*
X130700000Y-79875000D01*
X130700000Y-79125000D01*
X130402155Y-79125000D01*
X130342627Y-79131401D01*
X130342620Y-79131403D01*
X130207913Y-79181645D01*
X130207906Y-79181649D01*
X130092812Y-79267809D01*
X130092809Y-79267812D01*
X130006649Y-79382906D01*
X130006645Y-79382913D01*
X129956403Y-79517620D01*
X129956401Y-79517627D01*
X129950000Y-79577155D01*
X125018745Y-79577155D01*
X125138224Y-79370212D01*
X125231054Y-79146100D01*
X125293838Y-78911789D01*
X125325500Y-78671288D01*
X125325500Y-78428712D01*
X125293838Y-78188211D01*
X125231054Y-77953900D01*
X125138224Y-77729788D01*
X125016936Y-77519711D01*
X124869265Y-77327262D01*
X124869260Y-77327256D01*
X124697743Y-77155739D01*
X124697736Y-77155733D01*
X124505293Y-77008067D01*
X124505292Y-77008066D01*
X124505289Y-77008064D01*
X124295212Y-76886776D01*
X124295205Y-76886773D01*
X124071104Y-76793947D01*
X123836785Y-76731161D01*
X123596289Y-76699500D01*
X123596288Y-76699500D01*
X123353712Y-76699500D01*
X123353711Y-76699500D01*
X123113214Y-76731161D01*
X122878895Y-76793947D01*
X122654794Y-76886773D01*
X122654785Y-76886777D01*
X122444706Y-77008067D01*
X122252263Y-77155733D01*
X122252256Y-77155739D01*
X122080739Y-77327256D01*
X122080733Y-77327263D01*
X121933067Y-77519706D01*
X121811777Y-77729785D01*
X121811773Y-77729794D01*
X121718947Y-77953895D01*
X121656161Y-78188214D01*
X121624500Y-78428711D01*
X119975500Y-78428711D01*
X119975500Y-76452135D01*
X129899500Y-76452135D01*
X129899500Y-77547870D01*
X129899501Y-77547876D01*
X129905908Y-77607483D01*
X129956202Y-77742328D01*
X129956206Y-77742335D01*
X130042452Y-77857544D01*
X130042455Y-77857547D01*
X130157664Y-77943793D01*
X130157671Y-77943797D01*
X130292517Y-77994091D01*
X130292516Y-77994091D01*
X130299444Y-77994835D01*
X130352127Y-78000500D01*
X131447872Y-78000499D01*
X131507483Y-77994091D01*
X131642331Y-77943796D01*
X131757546Y-77857546D01*
X131843796Y-77742331D01*
X131894091Y-77607483D01*
X131900500Y-77547873D01*
X131900499Y-76452128D01*
X131894091Y-76392517D01*
X131843796Y-76257669D01*
X131843795Y-76257668D01*
X131843793Y-76257664D01*
X131757547Y-76142455D01*
X131757544Y-76142452D01*
X131642335Y-76056206D01*
X131642328Y-76056202D01*
X131507482Y-76005908D01*
X131507483Y-76005908D01*
X131447883Y-75999501D01*
X131447881Y-75999500D01*
X131447873Y-75999500D01*
X131447864Y-75999500D01*
X130352129Y-75999500D01*
X130352123Y-75999501D01*
X130292516Y-76005908D01*
X130157671Y-76056202D01*
X130157664Y-76056206D01*
X130042455Y-76142452D01*
X130042452Y-76142455D01*
X129956206Y-76257664D01*
X129956202Y-76257671D01*
X129905908Y-76392517D01*
X129899501Y-76452116D01*
X129899501Y-76452123D01*
X129899500Y-76452135D01*
X119975500Y-76452135D01*
X119975500Y-72138389D01*
X123059500Y-72138389D01*
X123059500Y-72311611D01*
X123062817Y-72332554D01*
X123082462Y-72456591D01*
X123086598Y-72482701D01*
X123140127Y-72647445D01*
X123218768Y-72801788D01*
X123320586Y-72941928D01*
X123443072Y-73064414D01*
X123583212Y-73166232D01*
X123737555Y-73244873D01*
X123902299Y-73298402D01*
X124073389Y-73325500D01*
X124073390Y-73325500D01*
X124246610Y-73325500D01*
X124246611Y-73325500D01*
X124417701Y-73298402D01*
X124582445Y-73244873D01*
X124736788Y-73166232D01*
X124876928Y-73064414D01*
X124999414Y-72941928D01*
X125101232Y-72801788D01*
X125179873Y-72647445D01*
X125233402Y-72482701D01*
X125260500Y-72311611D01*
X125260500Y-72138389D01*
X125233402Y-71967299D01*
X125179873Y-71802555D01*
X125101232Y-71648212D01*
X125084367Y-71625000D01*
X125052400Y-71581001D01*
X124999414Y-71508072D01*
X124876928Y-71385586D01*
X124736788Y-71283768D01*
X124582445Y-71205127D01*
X124417701Y-71151598D01*
X124417699Y-71151597D01*
X124417698Y-71151597D01*
X124286271Y-71130781D01*
X124246611Y-71124500D01*
X124073389Y-71124500D01*
X124033728Y-71130781D01*
X123902302Y-71151597D01*
X123902299Y-71151598D01*
X123747798Y-71201799D01*
X123737552Y-71205128D01*
X123583211Y-71283768D01*
X123548659Y-71308872D01*
X123443072Y-71385586D01*
X123443070Y-71385588D01*
X123443069Y-71385588D01*
X123320588Y-71508069D01*
X123320588Y-71508070D01*
X123320586Y-71508072D01*
X123312855Y-71518713D01*
X123218768Y-71648211D01*
X123140128Y-71802552D01*
X123086597Y-71967302D01*
X123061621Y-72125000D01*
X123059500Y-72138389D01*
X119975500Y-72138389D01*
X119975500Y-63328051D01*
X119975649Y-63321967D01*
X119978737Y-63259108D01*
X119992052Y-62988068D01*
X119993245Y-62975962D01*
X119998293Y-62941928D01*
X120041849Y-62648296D01*
X120044218Y-62636385D01*
X120124710Y-62315043D01*
X120128240Y-62303411D01*
X120131355Y-62294706D01*
X120187286Y-62138389D01*
X123059500Y-62138389D01*
X123059500Y-62311611D01*
X123086598Y-62482701D01*
X123140127Y-62647445D01*
X123218768Y-62801788D01*
X123320586Y-62941928D01*
X123443072Y-63064414D01*
X123583212Y-63166232D01*
X123737555Y-63244873D01*
X123902299Y-63298402D01*
X124073389Y-63325500D01*
X124073390Y-63325500D01*
X124246610Y-63325500D01*
X124246611Y-63325500D01*
X124417701Y-63298402D01*
X124582445Y-63244873D01*
X124736788Y-63166232D01*
X124876928Y-63064414D01*
X124999414Y-62941928D01*
X125101232Y-62801788D01*
X125179873Y-62647445D01*
X125233402Y-62482701D01*
X125260500Y-62311611D01*
X125260500Y-62138389D01*
X125257384Y-62118713D01*
X129739500Y-62118713D01*
X129739500Y-62331287D01*
X129749534Y-62394644D01*
X129766979Y-62504785D01*
X129772754Y-62541243D01*
X129807261Y-62647445D01*
X129838444Y-62743414D01*
X129934951Y-62932820D01*
X130059890Y-63104786D01*
X130210209Y-63255105D01*
X130210214Y-63255109D01*
X130374793Y-63374682D01*
X130417459Y-63430011D01*
X130423438Y-63499625D01*
X130390833Y-63561420D01*
X130374793Y-63575318D01*
X130210214Y-63694890D01*
X130210209Y-63694894D01*
X130059890Y-63845213D01*
X129934951Y-64017179D01*
X129838444Y-64206585D01*
X129772753Y-64408760D01*
X129739500Y-64618713D01*
X129739500Y-64831286D01*
X129764356Y-64988224D01*
X129772754Y-65041243D01*
X129806089Y-65143838D01*
X129838444Y-65243414D01*
X129934951Y-65432820D01*
X130059890Y-65604786D01*
X130210209Y-65755105D01*
X130210214Y-65755109D01*
X130374793Y-65874682D01*
X130417459Y-65930011D01*
X130423438Y-65999625D01*
X130390833Y-66061420D01*
X130374793Y-66075318D01*
X130210214Y-66194890D01*
X130210209Y-66194894D01*
X130059890Y-66345213D01*
X129934951Y-66517179D01*
X129838444Y-66706585D01*
X129772753Y-66908760D01*
X129739500Y-67118713D01*
X129739500Y-67331287D01*
X129772754Y-67541243D01*
X129837629Y-67740908D01*
X129838444Y-67743414D01*
X129934951Y-67932820D01*
X130059890Y-68104786D01*
X130210209Y-68255105D01*
X130210214Y-68255109D01*
X130375218Y-68374991D01*
X130417884Y-68430320D01*
X130423863Y-68499934D01*
X130391258Y-68561729D01*
X130375218Y-68575627D01*
X130210540Y-68695272D01*
X130210535Y-68695276D01*
X130060276Y-68845535D01*
X130060272Y-68845540D01*
X129935379Y-69017442D01*
X129838904Y-69206782D01*
X129773242Y-69408870D01*
X129773242Y-69408873D01*
X129762769Y-69475000D01*
X130791518Y-69475000D01*
X130780889Y-69493409D01*
X130740000Y-69646009D01*
X130740000Y-69803991D01*
X130780889Y-69956591D01*
X130791518Y-69975000D01*
X129762769Y-69975000D01*
X129773242Y-70041126D01*
X129773242Y-70041129D01*
X129838904Y-70243217D01*
X129935379Y-70432557D01*
X130060272Y-70604459D01*
X130060276Y-70604464D01*
X130199506Y-70743694D01*
X130232991Y-70805017D01*
X130228007Y-70874709D01*
X130186135Y-70930642D01*
X130176922Y-70936913D01*
X130021659Y-71032680D01*
X130021655Y-71032683D01*
X129897684Y-71156654D01*
X129805643Y-71305875D01*
X129805641Y-71305880D01*
X129750494Y-71472302D01*
X129750493Y-71472309D01*
X129740000Y-71575013D01*
X129740000Y-71975000D01*
X130791518Y-71975000D01*
X130780889Y-71993409D01*
X130740000Y-72146009D01*
X130740000Y-72303991D01*
X130780889Y-72456591D01*
X130791518Y-72475000D01*
X129740001Y-72475000D01*
X129740001Y-72874986D01*
X129750494Y-72977697D01*
X129805641Y-73144119D01*
X129805643Y-73144124D01*
X129897684Y-73293345D01*
X130021654Y-73417315D01*
X130170875Y-73509356D01*
X130170880Y-73509358D01*
X130337302Y-73564505D01*
X130337309Y-73564506D01*
X130440019Y-73574999D01*
X131089999Y-73574999D01*
X131090000Y-73574998D01*
X131090000Y-72773482D01*
X131108409Y-72784111D01*
X131261009Y-72825000D01*
X131418991Y-72825000D01*
X131571591Y-72784111D01*
X131590000Y-72773482D01*
X131590000Y-73574999D01*
X132239972Y-73574999D01*
X132239986Y-73574998D01*
X132342697Y-73564505D01*
X132509119Y-73509358D01*
X132509124Y-73509356D01*
X132658345Y-73417315D01*
X132782315Y-73293345D01*
X132874356Y-73144124D01*
X132874358Y-73144119D01*
X132929505Y-72977697D01*
X132929506Y-72977690D01*
X132939999Y-72874986D01*
X132940000Y-72874973D01*
X132940000Y-72475000D01*
X131888482Y-72475000D01*
X131899111Y-72456591D01*
X131940000Y-72303991D01*
X131940000Y-72146009D01*
X131899111Y-71993409D01*
X131888482Y-71975000D01*
X132939999Y-71975000D01*
X132939999Y-71575028D01*
X132939998Y-71575013D01*
X132929505Y-71472302D01*
X132874358Y-71305880D01*
X132874356Y-71305875D01*
X132782315Y-71156654D01*
X132658345Y-71032684D01*
X132503077Y-70936914D01*
X132456353Y-70884966D01*
X132445130Y-70816003D01*
X132472974Y-70751921D01*
X132480493Y-70743693D01*
X132619728Y-70604458D01*
X132744620Y-70432557D01*
X132841095Y-70243217D01*
X132906757Y-70041129D01*
X132906757Y-70041126D01*
X132917231Y-69975000D01*
X131888482Y-69975000D01*
X131899111Y-69956591D01*
X131940000Y-69803991D01*
X131940000Y-69646009D01*
X131899111Y-69493409D01*
X131888482Y-69475000D01*
X132917231Y-69475000D01*
X132906757Y-69408873D01*
X132906757Y-69408870D01*
X132841095Y-69206782D01*
X132744620Y-69017442D01*
X132619727Y-68845540D01*
X132619723Y-68845535D01*
X132469464Y-68695276D01*
X132469459Y-68695272D01*
X132304781Y-68575627D01*
X132262115Y-68520297D01*
X132256136Y-68450684D01*
X132288741Y-68388889D01*
X132304776Y-68374994D01*
X132469792Y-68255104D01*
X132620104Y-68104792D01*
X132620106Y-68104788D01*
X132620109Y-68104786D01*
X132701564Y-67992671D01*
X132745051Y-67932816D01*
X132745349Y-67932230D01*
X132765235Y-67893205D01*
X132813209Y-67842409D01*
X132875719Y-67825500D01*
X135289903Y-67825500D01*
X135356942Y-67845185D01*
X135377584Y-67861819D01*
X136063181Y-68547416D01*
X136096666Y-68608739D01*
X136099500Y-68635097D01*
X136099500Y-69206782D01*
X136099501Y-69749500D01*
X136079816Y-69816539D01*
X136027013Y-69862294D01*
X135975501Y-69873500D01*
X135599097Y-69873500D01*
X135532058Y-69853815D01*
X135511416Y-69837181D01*
X135009574Y-69335339D01*
X134976089Y-69274016D01*
X134975638Y-69271849D01*
X134957595Y-69181147D01*
X134944737Y-69116503D01*
X134903705Y-69017442D01*
X134884397Y-68970827D01*
X134884390Y-68970814D01*
X134796789Y-68839711D01*
X134796786Y-68839707D01*
X134685292Y-68728213D01*
X134685288Y-68728210D01*
X134554185Y-68640609D01*
X134554172Y-68640602D01*
X134408501Y-68580264D01*
X134408489Y-68580261D01*
X134253845Y-68549500D01*
X134253842Y-68549500D01*
X134096158Y-68549500D01*
X134096155Y-68549500D01*
X133941510Y-68580261D01*
X133941498Y-68580264D01*
X133795827Y-68640602D01*
X133795814Y-68640609D01*
X133664711Y-68728210D01*
X133664707Y-68728213D01*
X133553213Y-68839707D01*
X133553210Y-68839711D01*
X133465609Y-68970814D01*
X133465602Y-68970827D01*
X133405264Y-69116498D01*
X133405261Y-69116510D01*
X133374500Y-69271153D01*
X133374500Y-69428846D01*
X133405261Y-69583489D01*
X133405264Y-69583501D01*
X133465602Y-69729172D01*
X133465609Y-69729185D01*
X133553210Y-69860288D01*
X133553213Y-69860292D01*
X133664707Y-69971786D01*
X133664711Y-69971789D01*
X133795814Y-70059390D01*
X133795827Y-70059397D01*
X133941498Y-70119735D01*
X133941503Y-70119737D01*
X134006147Y-70132595D01*
X134096849Y-70150638D01*
X134158760Y-70183023D01*
X134160339Y-70184574D01*
X134814139Y-70838374D01*
X134814149Y-70838385D01*
X134818479Y-70842715D01*
X134818480Y-70842716D01*
X134930284Y-70954520D01*
X135017095Y-71004639D01*
X135017097Y-71004641D01*
X135055151Y-71026611D01*
X135067215Y-71033577D01*
X135219943Y-71074501D01*
X135219946Y-71074501D01*
X135385653Y-71074501D01*
X135385669Y-71074500D01*
X136038723Y-71074500D01*
X136105762Y-71094185D01*
X136151517Y-71146989D01*
X136161461Y-71216147D01*
X136156654Y-71236818D01*
X136133242Y-71308869D01*
X136133242Y-71308872D01*
X136100000Y-71518753D01*
X136100000Y-71731246D01*
X136133242Y-71941127D01*
X136133242Y-71941130D01*
X136198904Y-72143217D01*
X136295375Y-72332550D01*
X136334728Y-72386716D01*
X136967036Y-71754407D01*
X136984075Y-71817993D01*
X137049901Y-71932007D01*
X137142993Y-72025099D01*
X137257007Y-72090925D01*
X137320590Y-72107962D01*
X136688282Y-72740269D01*
X136688282Y-72740270D01*
X136742449Y-72779624D01*
X136931782Y-72876095D01*
X137133870Y-72941757D01*
X137343754Y-72975000D01*
X137556246Y-72975000D01*
X137766127Y-72941757D01*
X137766130Y-72941757D01*
X137968217Y-72876095D01*
X138157554Y-72779622D01*
X138211716Y-72740270D01*
X138211717Y-72740270D01*
X137579408Y-72107962D01*
X137642993Y-72090925D01*
X137757007Y-72025099D01*
X137850099Y-71932007D01*
X137915925Y-71817993D01*
X137932962Y-71754409D01*
X138565270Y-72386717D01*
X138565270Y-72386716D01*
X138604622Y-72332554D01*
X138701095Y-72143217D01*
X138766757Y-71941130D01*
X138766757Y-71941127D01*
X138800000Y-71731246D01*
X138800000Y-71518753D01*
X138766757Y-71308872D01*
X138766757Y-71308869D01*
X138743346Y-71236818D01*
X138741351Y-71166977D01*
X138777431Y-71107144D01*
X138840132Y-71076316D01*
X138861277Y-71074500D01*
X139573903Y-71074500D01*
X139603343Y-71083144D01*
X139633330Y-71089668D01*
X139638345Y-71093422D01*
X139640942Y-71094185D01*
X139661584Y-71110819D01*
X139691241Y-71140476D01*
X139724726Y-71201799D01*
X139721492Y-71266473D01*
X139707753Y-71308757D01*
X139674500Y-71518713D01*
X139674500Y-71731286D01*
X139707735Y-71941127D01*
X139707754Y-71941243D01*
X139718722Y-71975000D01*
X139773444Y-72143414D01*
X139869951Y-72332820D01*
X139994890Y-72504786D01*
X140145213Y-72655109D01*
X140317179Y-72780048D01*
X140317181Y-72780049D01*
X140317184Y-72780051D01*
X140506588Y-72876557D01*
X140708757Y-72942246D01*
X140918713Y-72975500D01*
X140918714Y-72975500D01*
X141131286Y-72975500D01*
X141131287Y-72975500D01*
X141341243Y-72942246D01*
X141543412Y-72876557D01*
X141732816Y-72780051D01*
X141835952Y-72705119D01*
X141904786Y-72655109D01*
X141904788Y-72655106D01*
X141904792Y-72655104D01*
X142055104Y-72504792D01*
X142055106Y-72504788D01*
X142055109Y-72504786D01*
X142180048Y-72332820D01*
X142180047Y-72332820D01*
X142180051Y-72332816D01*
X142276557Y-72143412D01*
X142342246Y-71941243D01*
X142375500Y-71731287D01*
X142375500Y-71518713D01*
X142342246Y-71308757D01*
X142276557Y-71106588D01*
X142180051Y-70917184D01*
X142180049Y-70917181D01*
X142180048Y-70917179D01*
X142055109Y-70745213D01*
X141941569Y-70631673D01*
X141908084Y-70570350D01*
X141913068Y-70500658D01*
X141954940Y-70444725D01*
X141985915Y-70427810D01*
X142117331Y-70378796D01*
X142232546Y-70292546D01*
X142318796Y-70177331D01*
X142369091Y-70042483D01*
X142375500Y-69982873D01*
X142375499Y-68187128D01*
X142369091Y-68127517D01*
X142318796Y-67992669D01*
X142318795Y-67992668D01*
X142318793Y-67992664D01*
X142232547Y-67877455D01*
X142232544Y-67877452D01*
X142117335Y-67791206D01*
X142117328Y-67791202D01*
X141982482Y-67740908D01*
X141982483Y-67740908D01*
X141922883Y-67734501D01*
X141922881Y-67734500D01*
X141922873Y-67734500D01*
X141922864Y-67734500D01*
X140127129Y-67734500D01*
X140127123Y-67734501D01*
X140067516Y-67740908D01*
X139932671Y-67791202D01*
X139932664Y-67791206D01*
X139817455Y-67877452D01*
X139817452Y-67877455D01*
X139731206Y-67992664D01*
X139731202Y-67992671D01*
X139680908Y-68127517D01*
X139674501Y-68187116D01*
X139674500Y-68187127D01*
X139674500Y-69017442D01*
X139674501Y-69749500D01*
X139654816Y-69816539D01*
X139602013Y-69862294D01*
X139550501Y-69873500D01*
X138924500Y-69873500D01*
X138857461Y-69853815D01*
X138811706Y-69801011D01*
X138800500Y-69749500D01*
X138800499Y-68187129D01*
X138800498Y-68187123D01*
X138800497Y-68187116D01*
X138794091Y-68127517D01*
X138743796Y-67992669D01*
X138743795Y-67992668D01*
X138743793Y-67992664D01*
X138657547Y-67877455D01*
X138657544Y-67877452D01*
X138542335Y-67791206D01*
X138542328Y-67791202D01*
X138407482Y-67740908D01*
X138407483Y-67740908D01*
X138347883Y-67734501D01*
X138347881Y-67734500D01*
X138347873Y-67734500D01*
X138347865Y-67734500D01*
X137000097Y-67734500D01*
X136933058Y-67714815D01*
X136912416Y-67698181D01*
X136077590Y-66863355D01*
X136077588Y-66863352D01*
X135958717Y-66744481D01*
X135958716Y-66744480D01*
X135871904Y-66694360D01*
X135871904Y-66694359D01*
X135871900Y-66694358D01*
X135821785Y-66665423D01*
X135669057Y-66624499D01*
X135510943Y-66624499D01*
X135503347Y-66624499D01*
X135503331Y-66624500D01*
X132875719Y-66624500D01*
X132808680Y-66604815D01*
X132765235Y-66556795D01*
X132745052Y-66517185D01*
X132745051Y-66517184D01*
X132620109Y-66345213D01*
X132469792Y-66194896D01*
X132469784Y-66194890D01*
X132305204Y-66075316D01*
X132262540Y-66019989D01*
X132256561Y-65950376D01*
X132289166Y-65888580D01*
X132305199Y-65874686D01*
X132469792Y-65755104D01*
X132620104Y-65604792D01*
X132620106Y-65604788D01*
X132620109Y-65604786D01*
X132745048Y-65432820D01*
X132745047Y-65432820D01*
X132745051Y-65432816D01*
X132841557Y-65243412D01*
X132907246Y-65041243D01*
X132940500Y-64831287D01*
X132940500Y-64618713D01*
X132907246Y-64408757D01*
X132841557Y-64206588D01*
X132745051Y-64017184D01*
X132745049Y-64017181D01*
X132745048Y-64017179D01*
X132620109Y-63845213D01*
X132469792Y-63694896D01*
X132458628Y-63686785D01*
X132305204Y-63575316D01*
X132262540Y-63519989D01*
X132256561Y-63450376D01*
X132289166Y-63388580D01*
X132305199Y-63374686D01*
X132469792Y-63255104D01*
X132521185Y-63203711D01*
X137449500Y-63203711D01*
X137449500Y-63446288D01*
X137481161Y-63686785D01*
X137543947Y-63921104D01*
X137583743Y-64017179D01*
X137636776Y-64145212D01*
X137758064Y-64355289D01*
X137758066Y-64355292D01*
X137758067Y-64355293D01*
X137905733Y-64547736D01*
X137905739Y-64547743D01*
X138077256Y-64719260D01*
X138077262Y-64719265D01*
X138269711Y-64866936D01*
X138479788Y-64988224D01*
X138703900Y-65081054D01*
X138938211Y-65143838D01*
X139118586Y-65167584D01*
X139178711Y-65175500D01*
X139178712Y-65175500D01*
X139421289Y-65175500D01*
X139469388Y-65169167D01*
X139661789Y-65143838D01*
X139896100Y-65081054D01*
X140120212Y-64988224D01*
X140330289Y-64866936D01*
X140522738Y-64719265D01*
X140694265Y-64547738D01*
X140841936Y-64355289D01*
X140963224Y-64145212D01*
X141056054Y-63921100D01*
X141118838Y-63686789D01*
X141150500Y-63446288D01*
X141150500Y-63203712D01*
X141118838Y-62963211D01*
X141056054Y-62728900D01*
X140963224Y-62504788D01*
X140841936Y-62294711D01*
X140781018Y-62215321D01*
X140694266Y-62102263D01*
X140694260Y-62102256D01*
X140522743Y-61930739D01*
X140522736Y-61930733D01*
X140330293Y-61783067D01*
X140330292Y-61783066D01*
X140330289Y-61783064D01*
X140120212Y-61661776D01*
X140087466Y-61648212D01*
X139896104Y-61568947D01*
X139702923Y-61517184D01*
X139661789Y-61506162D01*
X139661788Y-61506161D01*
X139661785Y-61506161D01*
X139421289Y-61474500D01*
X139421288Y-61474500D01*
X139178712Y-61474500D01*
X139178711Y-61474500D01*
X138938214Y-61506161D01*
X138703895Y-61568947D01*
X138479794Y-61661773D01*
X138479785Y-61661777D01*
X138269706Y-61783067D01*
X138077263Y-61930733D01*
X138077256Y-61930739D01*
X137905739Y-62102256D01*
X137905733Y-62102263D01*
X137758067Y-62294706D01*
X137636777Y-62504785D01*
X137636773Y-62504794D01*
X137543947Y-62728895D01*
X137481161Y-62963214D01*
X137449500Y-63203711D01*
X132521185Y-63203711D01*
X132620104Y-63104792D01*
X132620106Y-63104788D01*
X132620109Y-63104786D01*
X132745048Y-62932820D01*
X132745047Y-62932820D01*
X132745051Y-62932816D01*
X132841557Y-62743412D01*
X132907246Y-62541243D01*
X132940500Y-62331287D01*
X132940500Y-62118713D01*
X132907246Y-61908757D01*
X132841557Y-61706588D01*
X132745051Y-61517184D01*
X132745049Y-61517181D01*
X132745048Y-61517179D01*
X132620109Y-61345213D01*
X132469786Y-61194890D01*
X132297820Y-61069951D01*
X132108414Y-60973444D01*
X132108413Y-60973443D01*
X132108412Y-60973443D01*
X131906243Y-60907754D01*
X131906241Y-60907753D01*
X131906240Y-60907753D01*
X131744957Y-60882208D01*
X131696287Y-60874500D01*
X130983713Y-60874500D01*
X130935042Y-60882208D01*
X130773760Y-60907753D01*
X130571585Y-60973444D01*
X130382179Y-61069951D01*
X130210213Y-61194890D01*
X130059890Y-61345213D01*
X129934951Y-61517179D01*
X129838444Y-61706585D01*
X129772753Y-61908760D01*
X129759642Y-61991540D01*
X129739500Y-62118713D01*
X125257384Y-62118713D01*
X125233402Y-61967299D01*
X125179873Y-61802555D01*
X125101232Y-61648212D01*
X124999414Y-61508072D01*
X124876928Y-61385586D01*
X124736788Y-61283768D01*
X124582445Y-61205127D01*
X124417701Y-61151598D01*
X124417699Y-61151597D01*
X124417698Y-61151597D01*
X124286271Y-61130781D01*
X124246611Y-61124500D01*
X124073389Y-61124500D01*
X124033728Y-61130781D01*
X123902302Y-61151597D01*
X123737552Y-61205128D01*
X123583211Y-61283768D01*
X123503256Y-61341859D01*
X123443072Y-61385586D01*
X123443070Y-61385588D01*
X123443069Y-61385588D01*
X123320588Y-61508069D01*
X123320588Y-61508070D01*
X123320586Y-61508072D01*
X123313966Y-61517184D01*
X123218768Y-61648211D01*
X123140128Y-61802552D01*
X123086597Y-61967302D01*
X123065223Y-62102256D01*
X123059500Y-62138389D01*
X120187286Y-62138389D01*
X120239841Y-61991507D01*
X120244476Y-61980318D01*
X120386124Y-61680828D01*
X120391840Y-61670136D01*
X120562145Y-61385998D01*
X120568888Y-61375905D01*
X120766232Y-61109818D01*
X120773935Y-61100433D01*
X120996405Y-60854975D01*
X121004975Y-60846405D01*
X121250433Y-60623935D01*
X121259818Y-60616232D01*
X121525905Y-60418888D01*
X121535998Y-60412145D01*
X121820136Y-60241840D01*
X121830828Y-60236124D01*
X122130318Y-60094476D01*
X122141525Y-60089835D01*
X122453412Y-59978239D01*
X122465043Y-59974710D01*
X122786385Y-59894218D01*
X122798296Y-59891849D01*
X123125962Y-59843244D01*
X123138068Y-59842052D01*
X123471967Y-59825648D01*
X123478051Y-59825500D01*
X123540892Y-59825500D01*
X139234108Y-59825500D01*
X139296949Y-59825500D01*
X139303032Y-59825648D01*
G37*
%TD.AperFunction*%
%TD*%
M02*
