%TF.GenerationSoftware,KiCad,Pcbnew,9.0.4*%
%TF.CreationDate,2026-02-27T14:08:25-06:00*%
%TF.ProjectId,TempBoard,54656d70-426f-4617-9264-2e6b69636164,rev?*%
%TF.SameCoordinates,Original*%
%TF.FileFunction,Copper,L1,Top*%
%TF.FilePolarity,Positive*%
%FSLAX46Y46*%
G04 Gerber Fmt 4.6, Leading zero omitted, Abs format (unit mm)*
G04 Created by KiCad (PCBNEW 9.0.4) date 2026-02-27 14:08:25*
%MOMM*%
%LPD*%
G01*
G04 APERTURE LIST*
G04 Aperture macros list*
%AMRoundRect*
0 Rectangle with rounded corners*
0 $1 Rounding radius*
0 $2 $3 $4 $5 $6 $7 $8 $9 X,Y pos of 4 corners*
0 Add a 4 corners polygon primitive as box body*
4,1,4,$2,$3,$4,$5,$6,$7,$8,$9,$2,$3,0*
0 Add four circle primitives for the rounded corners*
1,1,$1+$1,$2,$3*
1,1,$1+$1,$4,$5*
1,1,$1+$1,$6,$7*
1,1,$1+$1,$8,$9*
0 Add four rect primitives between the rounded corners*
20,1,$1+$1,$2,$3,$4,$5,0*
20,1,$1+$1,$4,$5,$6,$7,0*
20,1,$1+$1,$6,$7,$8,$9,0*
20,1,$1+$1,$8,$9,$2,$3,0*%
G04 Aperture macros list end*
%TA.AperFunction,SMDPad,CuDef*%
%ADD10RoundRect,0.237500X-0.300000X-0.237500X0.300000X-0.237500X0.300000X0.237500X-0.300000X0.237500X0*%
%TD*%
%TA.AperFunction,SMDPad,CuDef*%
%ADD11RoundRect,0.237500X0.250000X0.237500X-0.250000X0.237500X-0.250000X-0.237500X0.250000X-0.237500X0*%
%TD*%
%TA.AperFunction,SMDPad,CuDef*%
%ADD12R,0.350000X0.500000*%
%TD*%
%TA.AperFunction,SMDPad,CuDef*%
%ADD13RoundRect,0.237500X0.300000X0.237500X-0.300000X0.237500X-0.300000X-0.237500X0.300000X-0.237500X0*%
%TD*%
%TA.AperFunction,SMDPad,CuDef*%
%ADD14RoundRect,0.237500X-0.250000X-0.237500X0.250000X-0.237500X0.250000X0.237500X-0.250000X0.237500X0*%
%TD*%
%TA.AperFunction,ComponentPad*%
%ADD15RoundRect,0.250000X0.600000X-0.850000X0.600000X0.850000X-0.600000X0.850000X-0.600000X-0.850000X0*%
%TD*%
%TA.AperFunction,ComponentPad*%
%ADD16O,1.700000X2.200000*%
%TD*%
%TA.AperFunction,ComponentPad*%
%ADD17R,1.700000X1.700000*%
%TD*%
%TA.AperFunction,ComponentPad*%
%ADD18C,1.700000*%
%TD*%
%TA.AperFunction,SMDPad,CuDef*%
%ADD19RoundRect,0.237500X-0.287500X-0.237500X0.287500X-0.237500X0.287500X0.237500X-0.287500X0.237500X0*%
%TD*%
%TA.AperFunction,ViaPad*%
%ADD20C,0.600000*%
%TD*%
%TA.AperFunction,Conductor*%
%ADD21C,0.200000*%
%TD*%
%TA.AperFunction,Conductor*%
%ADD22C,0.500000*%
%TD*%
G04 APERTURE END LIST*
D10*
%TO.P,C1,2*%
%TO.N,GND*%
X133037500Y-75125000D03*
%TO.P,C1,1*%
%TO.N,+3.3V*%
X131312500Y-75125000D03*
%TD*%
%TO.P,C3,2*%
%TO.N,GND*%
X132325000Y-76675000D03*
%TO.P,C3,1*%
%TO.N,+3.3V*%
X130600000Y-76675000D03*
%TD*%
D11*
%TO.P,R2,2*%
%TO.N,/SCL*%
X131862500Y-70425000D03*
%TO.P,R2,1*%
%TO.N,+3.3V*%
X133687500Y-70425000D03*
%TD*%
D12*
%TO.P,U1,8,VDD*%
%TO.N,+3.3V*%
X129775000Y-73875000D03*
%TO.P,U1,7,GND*%
%TO.N,GND*%
X130425000Y-73875000D03*
%TO.P,U1,6,VDDIO*%
%TO.N,+3.3V*%
X131075000Y-73875000D03*
%TO.P,U1,5,SDO*%
%TO.N,Net-(U1-SDO)*%
X131725000Y-73875000D03*
%TO.P,U1,4,SCK*%
%TO.N,/SCL*%
X131725000Y-71825000D03*
%TO.P,U1,3,SDI*%
%TO.N,/SDA*%
X131075000Y-71825000D03*
%TO.P,U1,2,CSB*%
%TO.N,+3.3V*%
X130425000Y-71825000D03*
%TO.P,U1,1,GND*%
%TO.N,GND*%
X129775000Y-71825000D03*
%TD*%
D11*
%TO.P,R5,2*%
%TO.N,Net-(U1-SDO)*%
X133100000Y-71975000D03*
%TO.P,R5,1*%
%TO.N,GND*%
X134925000Y-71975000D03*
%TD*%
D13*
%TO.P,C2,2*%
%TO.N,GND*%
X127962500Y-75125000D03*
%TO.P,C2,1*%
%TO.N,+3.3V*%
X129687500Y-75125000D03*
%TD*%
D14*
%TO.P,R4,2*%
%TO.N,+3.3V*%
X134925000Y-73475000D03*
%TO.P,R4,1*%
%TO.N,Net-(U1-SDO)*%
X133100000Y-73475000D03*
%TD*%
%TO.P,R3,2*%
%TO.N,/SDA*%
X130187500Y-70425000D03*
%TO.P,R3,1*%
%TO.N,+3.3V*%
X128362500Y-70425000D03*
%TD*%
D15*
%TO.P,J3,1,Pin_1*%
%TO.N,GND*%
X125800000Y-64480000D03*
D16*
%TO.P,J3,2,Pin_2*%
X128300000Y-64480000D03*
%TO.P,J3,3,Pin_3*%
%TO.N,/SDA*%
X130800000Y-64480000D03*
%TO.P,J3,4,Pin_4*%
%TO.N,/SCL*%
X133300000Y-64480000D03*
%TO.P,J3,5,Pin_5*%
%TO.N,+3.3V*%
X135800000Y-64480000D03*
%TD*%
D17*
%TO.P,J2,1,Pin_1*%
%TO.N,+3.3V*%
X142000000Y-65020000D03*
D18*
%TO.P,J2,2,Pin_2*%
%TO.N,/SCL*%
X142000000Y-67560000D03*
%TO.P,J2,3,Pin_3*%
%TO.N,/SDA*%
X142000000Y-70100000D03*
%TO.P,J2,4,Pin_4*%
%TO.N,GND*%
X142000000Y-72640000D03*
%TD*%
D19*
%TO.P,D1,1,K*%
%TO.N,GND*%
X118225000Y-68550000D03*
%TO.P,D1,2,A*%
%TO.N,Net-(D1-A)*%
X119975000Y-68550000D03*
%TD*%
D11*
%TO.P,R1,1*%
%TO.N,+3.3V*%
X124000000Y-68550000D03*
%TO.P,R1,2*%
%TO.N,Net-(D1-A)*%
X122175000Y-68550000D03*
%TD*%
D20*
%TO.N,GND*%
X136312500Y-72450000D03*
X117800000Y-69826251D03*
X134275000Y-75125000D03*
X133475000Y-76675000D03*
X128712500Y-72325000D03*
X126825000Y-75125000D03*
%TD*%
D21*
%TO.N,/SDA*%
X130187500Y-70425000D02*
X131325000Y-69287500D01*
X131325000Y-69287500D02*
X131325000Y-66600000D01*
X131325000Y-66600000D02*
X130800000Y-66075000D01*
X130800000Y-66075000D02*
X130800000Y-64480000D01*
%TO.N,GND*%
X130425000Y-73875000D02*
X130425000Y-73475000D01*
X130425000Y-73475000D02*
X129775000Y-72825000D01*
X129775000Y-72825000D02*
X129775000Y-71825000D01*
X134925000Y-71975000D02*
X135837500Y-71975000D01*
X135837500Y-71975000D02*
X136312500Y-72450000D01*
X118225000Y-68550000D02*
X118225000Y-69401251D01*
X118225000Y-69401251D02*
X117800000Y-69826251D01*
%TO.N,/SCL*%
X131862500Y-70425000D02*
X131818750Y-70381250D01*
X131818750Y-67356250D02*
X133300000Y-65875000D01*
X133300000Y-65875000D02*
X133300000Y-64480000D01*
X131818750Y-70381250D02*
X131818750Y-67356250D01*
%TO.N,GND*%
X129212500Y-71825000D02*
X129775000Y-71825000D01*
X128712500Y-72325000D02*
X129212500Y-71825000D01*
%TO.N,Net-(U1-SDO)*%
X133100000Y-71975000D02*
X133100000Y-73475000D01*
X133100000Y-73475000D02*
X132125000Y-73475000D01*
X132125000Y-73475000D02*
X131725000Y-73875000D01*
%TO.N,/SCL*%
X131725000Y-71825000D02*
X131725000Y-70562500D01*
%TO.N,/SDA*%
X131075000Y-71312500D02*
X130187500Y-70425000D01*
X131075000Y-71825000D02*
X131075000Y-71312500D01*
D22*
%TO.N,GND*%
X133037500Y-75125000D02*
X134275000Y-75125000D01*
X132325000Y-76675000D02*
X133475000Y-76675000D01*
D21*
%TO.N,+3.3V*%
X131075000Y-73875000D02*
X131075000Y-73425000D01*
D22*
X129687500Y-75125000D02*
X129687500Y-73962500D01*
X131312500Y-75125000D02*
X131075000Y-74887500D01*
X129687500Y-73962500D02*
X129775000Y-73875000D01*
X131075000Y-74887500D02*
X131075000Y-73875000D01*
X130600000Y-76037500D02*
X129687500Y-75125000D01*
X130600000Y-76675000D02*
X130600000Y-76037500D01*
D21*
X131075000Y-73425000D02*
X130425000Y-72775000D01*
X130425000Y-72775000D02*
X130425000Y-71825000D01*
%TO.N,/SDA*%
X131300000Y-64980000D02*
X130800000Y-64480000D01*
D22*
%TO.N,GND*%
X127962500Y-75125000D02*
X126825000Y-75125000D01*
%TO.N,Net-(D1-A)*%
X122175000Y-68550000D02*
X119975000Y-68550000D01*
D21*
%TO.N,/SCL*%
X133312500Y-65350000D02*
X133112500Y-65150000D01*
X131862500Y-70425000D02*
X131775000Y-70337500D01*
X131725000Y-70562500D02*
X131862500Y-70425000D01*
%TD*%
%TA.AperFunction,Conductor*%
%TO.N,+3.3V*%
G36*
X132201913Y-72573937D02*
G01*
X132219771Y-72596522D01*
X132258865Y-72659903D01*
X132262975Y-72674924D01*
X132271636Y-72687867D01*
X132272007Y-72707933D01*
X132277306Y-72727295D01*
X132272660Y-72743117D01*
X132272931Y-72757724D01*
X132258867Y-72790095D01*
X132243139Y-72815595D01*
X132191191Y-72862321D01*
X132137599Y-72874500D01*
X132045941Y-72874500D01*
X132008334Y-72884576D01*
X132008335Y-72884577D01*
X131893214Y-72915423D01*
X131893209Y-72915426D01*
X131756290Y-72994475D01*
X131756286Y-72994478D01*
X131662582Y-73088182D01*
X131639872Y-73100582D01*
X131619304Y-73116277D01*
X131606930Y-73118568D01*
X131601258Y-73121666D01*
X131584887Y-73124097D01*
X131579894Y-73124500D01*
X131502128Y-73124501D01*
X131442517Y-73130909D01*
X131426462Y-73136897D01*
X131409272Y-73138286D01*
X131391269Y-73134543D01*
X131372926Y-73135855D01*
X131359357Y-73131870D01*
X131357372Y-73131401D01*
X131297844Y-73125000D01*
X131250000Y-73125000D01*
X131250000Y-73162305D01*
X131240463Y-73194780D01*
X131231487Y-73227486D01*
X131230564Y-73228494D01*
X131230315Y-73229344D01*
X131208850Y-73254565D01*
X131204734Y-73258261D01*
X131192454Y-73267454D01*
X131188263Y-73273052D01*
X131179170Y-73281218D01*
X131158226Y-73291234D01*
X131139638Y-73305146D01*
X131127298Y-73306026D01*
X131116139Y-73311364D01*
X131093105Y-73308467D01*
X131069946Y-73310121D01*
X131059087Y-73304190D01*
X131046815Y-73302647D01*
X131029004Y-73287758D01*
X131008627Y-73276628D01*
X130999693Y-73263255D01*
X130993209Y-73257835D01*
X130990684Y-73249770D01*
X130990349Y-73249267D01*
X130988641Y-73250254D01*
X130980530Y-73236206D01*
X130948775Y-73181204D01*
X130905520Y-73106284D01*
X130793716Y-72994480D01*
X130793715Y-72994479D01*
X130789385Y-72990149D01*
X130789374Y-72990139D01*
X130584060Y-72784825D01*
X130577859Y-72773469D01*
X130568009Y-72765082D01*
X130561436Y-72743393D01*
X130550575Y-72723502D01*
X130551497Y-72710596D01*
X130547746Y-72698216D01*
X130553942Y-72676418D01*
X130555559Y-72653810D01*
X130563312Y-72643452D01*
X130566850Y-72631009D01*
X130583848Y-72616020D01*
X130597431Y-72597877D01*
X130610766Y-72592285D01*
X130619257Y-72584799D01*
X130647241Y-72576991D01*
X130653034Y-72574563D01*
X130730578Y-72562729D01*
X130753029Y-72565759D01*
X130775624Y-72564140D01*
X130792387Y-72569060D01*
X130792511Y-72569088D01*
X130792517Y-72569091D01*
X130852127Y-72575500D01*
X131297872Y-72575499D01*
X131357483Y-72569091D01*
X131357485Y-72569090D01*
X131357487Y-72569090D01*
X131365031Y-72567308D01*
X131365377Y-72568775D01*
X131426342Y-72564408D01*
X131441378Y-72568822D01*
X131442511Y-72569089D01*
X131442517Y-72569091D01*
X131502127Y-72575500D01*
X131947872Y-72575499D01*
X132007483Y-72569091D01*
X132070900Y-72545437D01*
X132140590Y-72540453D01*
X132201913Y-72573937D01*
G37*
%TD.AperFunction*%
%TA.AperFunction,Conductor*%
G36*
X141703032Y-54400648D02*
G01*
X142036929Y-54417052D01*
X142049037Y-54418245D01*
X142152146Y-54433539D01*
X142376699Y-54466849D01*
X142388617Y-54469219D01*
X142709951Y-54549709D01*
X142721588Y-54553240D01*
X142792806Y-54578722D01*
X143033467Y-54664832D01*
X143044688Y-54669479D01*
X143344163Y-54811120D01*
X143354871Y-54816844D01*
X143638988Y-54987137D01*
X143649106Y-54993897D01*
X143915170Y-55191224D01*
X143924576Y-55198944D01*
X144170013Y-55421395D01*
X144178604Y-55429986D01*
X144365755Y-55636475D01*
X144401055Y-55675423D01*
X144408775Y-55684829D01*
X144606102Y-55950893D01*
X144612862Y-55961011D01*
X144778149Y-56236777D01*
X144783148Y-56245116D01*
X144788883Y-56255844D01*
X144837562Y-56358768D01*
X144930514Y-56555297D01*
X144935170Y-56566540D01*
X145046759Y-56878411D01*
X145050292Y-56890055D01*
X145130777Y-57211369D01*
X145133151Y-57223305D01*
X145181754Y-57550962D01*
X145182947Y-57563071D01*
X145199351Y-57896966D01*
X145199500Y-57903051D01*
X145199500Y-79896948D01*
X145199351Y-79903033D01*
X145182947Y-80236928D01*
X145181754Y-80249037D01*
X145133151Y-80576694D01*
X145130777Y-80588630D01*
X145050292Y-80909944D01*
X145046759Y-80921588D01*
X144935170Y-81233459D01*
X144930514Y-81244702D01*
X144788885Y-81544151D01*
X144783148Y-81554883D01*
X144612862Y-81838988D01*
X144606102Y-81849106D01*
X144408775Y-82115170D01*
X144401055Y-82124576D01*
X144178611Y-82370006D01*
X144170006Y-82378611D01*
X143924576Y-82601055D01*
X143915170Y-82608775D01*
X143649106Y-82806102D01*
X143638988Y-82812862D01*
X143354883Y-82983148D01*
X143344151Y-82988885D01*
X143044702Y-83130514D01*
X143033459Y-83135170D01*
X142721588Y-83246759D01*
X142709944Y-83250292D01*
X142388630Y-83330777D01*
X142376694Y-83333151D01*
X142049037Y-83381754D01*
X142036928Y-83382947D01*
X141721989Y-83398419D01*
X141703031Y-83399351D01*
X141696949Y-83399500D01*
X119703051Y-83399500D01*
X119696968Y-83399351D01*
X119676900Y-83398365D01*
X119363071Y-83382947D01*
X119350962Y-83381754D01*
X119023305Y-83333151D01*
X119011369Y-83330777D01*
X118690055Y-83250292D01*
X118678411Y-83246759D01*
X118366540Y-83135170D01*
X118355301Y-83130515D01*
X118055844Y-82988883D01*
X118045121Y-82983150D01*
X117761011Y-82812862D01*
X117750893Y-82806102D01*
X117484829Y-82608775D01*
X117475423Y-82601055D01*
X117436475Y-82565755D01*
X117229986Y-82378604D01*
X117221395Y-82370013D01*
X116998944Y-82124576D01*
X116991224Y-82115170D01*
X116793897Y-81849106D01*
X116787137Y-81838988D01*
X116616844Y-81554871D01*
X116611120Y-81544163D01*
X116469479Y-81244688D01*
X116464829Y-81233459D01*
X116425212Y-81122738D01*
X116392902Y-81032438D01*
X116353240Y-80921588D01*
X116349707Y-80909944D01*
X116340958Y-80875015D01*
X116269219Y-80588617D01*
X116266848Y-80576694D01*
X116218245Y-80249037D01*
X116217052Y-80236927D01*
X116200649Y-79903032D01*
X116200500Y-79896948D01*
X116200500Y-79778711D01*
X117849500Y-79778711D01*
X117849500Y-80021288D01*
X117881161Y-80261785D01*
X117943947Y-80496104D01*
X117982273Y-80588630D01*
X118036776Y-80720212D01*
X118158064Y-80930289D01*
X118158066Y-80930292D01*
X118158067Y-80930293D01*
X118305733Y-81122736D01*
X118305739Y-81122743D01*
X118477256Y-81294260D01*
X118477262Y-81294265D01*
X118669711Y-81441936D01*
X118879788Y-81563224D01*
X119103900Y-81656054D01*
X119338211Y-81718838D01*
X119518586Y-81742584D01*
X119578711Y-81750500D01*
X119578712Y-81750500D01*
X119821289Y-81750500D01*
X119869388Y-81744167D01*
X120061789Y-81718838D01*
X120296100Y-81656054D01*
X120520212Y-81563224D01*
X120730289Y-81441936D01*
X120922738Y-81294265D01*
X121094265Y-81122738D01*
X121241936Y-80930289D01*
X121363224Y-80720212D01*
X121456054Y-80496100D01*
X121518838Y-80261789D01*
X121550500Y-80021288D01*
X121550500Y-79778712D01*
X121550500Y-79778711D01*
X139849500Y-79778711D01*
X139849500Y-80021288D01*
X139881161Y-80261785D01*
X139943947Y-80496104D01*
X139982273Y-80588630D01*
X140036776Y-80720212D01*
X140158064Y-80930289D01*
X140158066Y-80930292D01*
X140158067Y-80930293D01*
X140305733Y-81122736D01*
X140305739Y-81122743D01*
X140477256Y-81294260D01*
X140477262Y-81294265D01*
X140669711Y-81441936D01*
X140879788Y-81563224D01*
X141103900Y-81656054D01*
X141338211Y-81718838D01*
X141518586Y-81742584D01*
X141578711Y-81750500D01*
X141578712Y-81750500D01*
X141821289Y-81750500D01*
X141869388Y-81744167D01*
X142061789Y-81718838D01*
X142296100Y-81656054D01*
X142520212Y-81563224D01*
X142730289Y-81441936D01*
X142922738Y-81294265D01*
X143094265Y-81122738D01*
X143241936Y-80930289D01*
X143363224Y-80720212D01*
X143456054Y-80496100D01*
X143518838Y-80261789D01*
X143550500Y-80021288D01*
X143550500Y-79778712D01*
X143518838Y-79538211D01*
X143456054Y-79303900D01*
X143363224Y-79079788D01*
X143241936Y-78869711D01*
X143094265Y-78677262D01*
X143094260Y-78677256D01*
X142922743Y-78505739D01*
X142922736Y-78505733D01*
X142730293Y-78358067D01*
X142730292Y-78358066D01*
X142730289Y-78358064D01*
X142520212Y-78236776D01*
X142520205Y-78236773D01*
X142296104Y-78143947D01*
X142061785Y-78081161D01*
X141821289Y-78049500D01*
X141821288Y-78049500D01*
X141578712Y-78049500D01*
X141578711Y-78049500D01*
X141338214Y-78081161D01*
X141103895Y-78143947D01*
X140879794Y-78236773D01*
X140879785Y-78236777D01*
X140669706Y-78358067D01*
X140477263Y-78505733D01*
X140477256Y-78505739D01*
X140305739Y-78677256D01*
X140305733Y-78677263D01*
X140158067Y-78869706D01*
X140036777Y-79079785D01*
X140036773Y-79079794D01*
X139943947Y-79303895D01*
X139881161Y-79538214D01*
X139849500Y-79778711D01*
X121550500Y-79778711D01*
X121518838Y-79538211D01*
X121456054Y-79303900D01*
X121363224Y-79079788D01*
X121241936Y-78869711D01*
X121094265Y-78677262D01*
X121094260Y-78677256D01*
X120922743Y-78505739D01*
X120922736Y-78505733D01*
X120730293Y-78358067D01*
X120730292Y-78358066D01*
X120730289Y-78358064D01*
X120520212Y-78236776D01*
X120520205Y-78236773D01*
X120296104Y-78143947D01*
X120061785Y-78081161D01*
X119821289Y-78049500D01*
X119821288Y-78049500D01*
X119578712Y-78049500D01*
X119578711Y-78049500D01*
X119338214Y-78081161D01*
X119103895Y-78143947D01*
X118879794Y-78236773D01*
X118879785Y-78236777D01*
X118669706Y-78358067D01*
X118477263Y-78505733D01*
X118477256Y-78505739D01*
X118305739Y-78677256D01*
X118305733Y-78677263D01*
X118158067Y-78869706D01*
X118036777Y-79079785D01*
X118036773Y-79079794D01*
X117943947Y-79303895D01*
X117881161Y-79538214D01*
X117849500Y-79778711D01*
X116200500Y-79778711D01*
X116200500Y-76961654D01*
X129562501Y-76961654D01*
X129572819Y-77062652D01*
X129627046Y-77226300D01*
X129627051Y-77226311D01*
X129717552Y-77373034D01*
X129717555Y-77373038D01*
X129839461Y-77494944D01*
X129839465Y-77494947D01*
X129986188Y-77585448D01*
X129986199Y-77585453D01*
X130149847Y-77639680D01*
X130250851Y-77649999D01*
X130350000Y-77649998D01*
X130350000Y-76925000D01*
X129562501Y-76925000D01*
X129562501Y-76961654D01*
X116200500Y-76961654D01*
X116200500Y-70711654D01*
X127375001Y-70711654D01*
X127385319Y-70812652D01*
X127439546Y-70976300D01*
X127439551Y-70976311D01*
X127530052Y-71123034D01*
X127530055Y-71123038D01*
X127651961Y-71244944D01*
X127651965Y-71244947D01*
X127798688Y-71335448D01*
X127798699Y-71335453D01*
X127962347Y-71389680D01*
X128063351Y-71399999D01*
X128112499Y-71399998D01*
X128112500Y-71399998D01*
X128112500Y-70675000D01*
X127375001Y-70675000D01*
X127375001Y-70711654D01*
X116200500Y-70711654D01*
X116200500Y-69747404D01*
X116999500Y-69747404D01*
X116999500Y-69905097D01*
X117030261Y-70059740D01*
X117030264Y-70059752D01*
X117090602Y-70205423D01*
X117090609Y-70205436D01*
X117178210Y-70336539D01*
X117178213Y-70336543D01*
X117289707Y-70448037D01*
X117289711Y-70448040D01*
X117420814Y-70535641D01*
X117420827Y-70535648D01*
X117566498Y-70595986D01*
X117566503Y-70595988D01*
X117721153Y-70626750D01*
X117721156Y-70626751D01*
X117721158Y-70626751D01*
X117878844Y-70626751D01*
X117878845Y-70626750D01*
X118033497Y-70595988D01*
X118179179Y-70535645D01*
X118179185Y-70535641D01*
X118201792Y-70520536D01*
X118250313Y-70488114D01*
X118310289Y-70448040D01*
X118421789Y-70336540D01*
X118509394Y-70205430D01*
X118537181Y-70138345D01*
X127375000Y-70138345D01*
X127375000Y-70175000D01*
X128112500Y-70175000D01*
X128112500Y-69450000D01*
X128112499Y-69449999D01*
X128063361Y-69450000D01*
X128063343Y-69450001D01*
X127962347Y-69460319D01*
X127798699Y-69514546D01*
X127798688Y-69514551D01*
X127651965Y-69605052D01*
X127651961Y-69605055D01*
X127530055Y-69726961D01*
X127530052Y-69726965D01*
X127439551Y-69873688D01*
X127439546Y-69873699D01*
X127385319Y-70037347D01*
X127375000Y-70138345D01*
X118537181Y-70138345D01*
X118569737Y-70059748D01*
X118600500Y-69905093D01*
X118600500Y-69904568D01*
X118601674Y-69899674D01*
X118617901Y-69871396D01*
X118633021Y-69842492D01*
X118634574Y-69840912D01*
X118705517Y-69769970D01*
X118705517Y-69769969D01*
X118705520Y-69769967D01*
X118784577Y-69633035D01*
X118818778Y-69505397D01*
X118831347Y-69484775D01*
X118840007Y-69462228D01*
X118851347Y-69451964D01*
X118855141Y-69445740D01*
X118865203Y-69437513D01*
X118869203Y-69434577D01*
X118973350Y-69370340D01*
X119019020Y-69324669D01*
X119026652Y-69319071D01*
X119050959Y-69310271D01*
X119073642Y-69297886D01*
X119083271Y-69298574D01*
X119092350Y-69295288D01*
X119117553Y-69301026D01*
X119143334Y-69302870D01*
X119153035Y-69309104D01*
X119160476Y-69310799D01*
X119168669Y-69319152D01*
X119187681Y-69331371D01*
X119226650Y-69370340D01*
X119373484Y-69460908D01*
X119537247Y-69515174D01*
X119638323Y-69525500D01*
X120311676Y-69525499D01*
X120311684Y-69525498D01*
X120311687Y-69525498D01*
X120367030Y-69519844D01*
X120412753Y-69515174D01*
X120576516Y-69460908D01*
X120723350Y-69370340D01*
X120756871Y-69336819D01*
X120818194Y-69303334D01*
X120844552Y-69300500D01*
X121342948Y-69300500D01*
X121409987Y-69320185D01*
X121430629Y-69336819D01*
X121464150Y-69370340D01*
X121610984Y-69460908D01*
X121774747Y-69515174D01*
X121875823Y-69525500D01*
X122474176Y-69525499D01*
X122474184Y-69525498D01*
X122474187Y-69525498D01*
X122529530Y-69519844D01*
X122575253Y-69515174D01*
X122739016Y-69460908D01*
X122885850Y-69370340D01*
X123000175Y-69256014D01*
X123061494Y-69222532D01*
X123131186Y-69227516D01*
X123175534Y-69256017D01*
X123289461Y-69369944D01*
X123289465Y-69369947D01*
X123436188Y-69460448D01*
X123436199Y-69460453D01*
X123599847Y-69514680D01*
X123700851Y-69524999D01*
X124250000Y-69524999D01*
X124299140Y-69524999D01*
X124299154Y-69524998D01*
X124400152Y-69514680D01*
X124563800Y-69460453D01*
X124563811Y-69460448D01*
X124710534Y-69369947D01*
X124710538Y-69369944D01*
X124832444Y-69248038D01*
X124832447Y-69248034D01*
X124922948Y-69101311D01*
X124922953Y-69101300D01*
X124977180Y-68937652D01*
X124987499Y-68836654D01*
X124987500Y-68836641D01*
X124987500Y-68800000D01*
X124250000Y-68800000D01*
X124250000Y-69524999D01*
X123700851Y-69524999D01*
X123749999Y-69524998D01*
X123750000Y-69524998D01*
X123750000Y-68300000D01*
X124250000Y-68300000D01*
X124987499Y-68300000D01*
X124987499Y-68263360D01*
X124987498Y-68263345D01*
X124977180Y-68162347D01*
X124922953Y-67998699D01*
X124922948Y-67998688D01*
X124832447Y-67851965D01*
X124832444Y-67851961D01*
X124710538Y-67730055D01*
X124710534Y-67730052D01*
X124563811Y-67639551D01*
X124563800Y-67639546D01*
X124400152Y-67585319D01*
X124299154Y-67575000D01*
X124250000Y-67575000D01*
X124250000Y-68300000D01*
X123750000Y-68300000D01*
X123750000Y-67575000D01*
X123749999Y-67574999D01*
X123700861Y-67575000D01*
X123700843Y-67575001D01*
X123599847Y-67585319D01*
X123436199Y-67639546D01*
X123436188Y-67639551D01*
X123289465Y-67730052D01*
X123175534Y-67843983D01*
X123114211Y-67877467D01*
X123044519Y-67872483D01*
X123000172Y-67843982D01*
X122885851Y-67729661D01*
X122885850Y-67729660D01*
X122783106Y-67666287D01*
X122739018Y-67639093D01*
X122739013Y-67639091D01*
X122737569Y-67638612D01*
X122575253Y-67584826D01*
X122575251Y-67584825D01*
X122474178Y-67574500D01*
X121875830Y-67574500D01*
X121875812Y-67574501D01*
X121774747Y-67584825D01*
X121610984Y-67639092D01*
X121610981Y-67639093D01*
X121464148Y-67729661D01*
X121430629Y-67763181D01*
X121369306Y-67796666D01*
X121342948Y-67799500D01*
X120844552Y-67799500D01*
X120777513Y-67779815D01*
X120756871Y-67763181D01*
X120723351Y-67729661D01*
X120723350Y-67729660D01*
X120620606Y-67666287D01*
X120576518Y-67639093D01*
X120576513Y-67639091D01*
X120575069Y-67638612D01*
X120412753Y-67584826D01*
X120412751Y-67584825D01*
X120311678Y-67574500D01*
X119638330Y-67574500D01*
X119638312Y-67574501D01*
X119537247Y-67584825D01*
X119373484Y-67639092D01*
X119373481Y-67639093D01*
X119226648Y-67729661D01*
X119187681Y-67768629D01*
X119126358Y-67802114D01*
X119056666Y-67797130D01*
X119012319Y-67768629D01*
X118973351Y-67729661D01*
X118973350Y-67729660D01*
X118870606Y-67666287D01*
X118826518Y-67639093D01*
X118826513Y-67639091D01*
X118825069Y-67638612D01*
X118662753Y-67584826D01*
X118662751Y-67584825D01*
X118561678Y-67574500D01*
X117888330Y-67574500D01*
X117888312Y-67574501D01*
X117787247Y-67584825D01*
X117623484Y-67639092D01*
X117623481Y-67639093D01*
X117476648Y-67729661D01*
X117354661Y-67851648D01*
X117264093Y-67998481D01*
X117264091Y-67998486D01*
X117237606Y-68078412D01*
X117209826Y-68162247D01*
X117209826Y-68162248D01*
X117209825Y-68162248D01*
X117199500Y-68263315D01*
X117199500Y-68836669D01*
X117199501Y-68836676D01*
X117209825Y-68937752D01*
X117212211Y-68944951D01*
X117264020Y-69101300D01*
X117264092Y-69101515D01*
X117267146Y-69108064D01*
X117264830Y-69109143D01*
X117280107Y-69164986D01*
X117259179Y-69231648D01*
X117243810Y-69250362D01*
X117178210Y-69315962D01*
X117090609Y-69447065D01*
X117090602Y-69447078D01*
X117030264Y-69592749D01*
X117030261Y-69592761D01*
X116999500Y-69747404D01*
X116200500Y-69747404D01*
X116200500Y-63579983D01*
X124449500Y-63579983D01*
X124449500Y-65380001D01*
X124449501Y-65380018D01*
X124460000Y-65482796D01*
X124460001Y-65482799D01*
X124505894Y-65621294D01*
X124515186Y-65649334D01*
X124607288Y-65798656D01*
X124731344Y-65922712D01*
X124880666Y-66014814D01*
X125047203Y-66069999D01*
X125149991Y-66080500D01*
X126450008Y-66080499D01*
X126552797Y-66069999D01*
X126719334Y-66014814D01*
X126868656Y-65922712D01*
X126992712Y-65798656D01*
X127084814Y-65649334D01*
X127084814Y-65649331D01*
X127088178Y-65643879D01*
X127140126Y-65597154D01*
X127209088Y-65585931D01*
X127273170Y-65613774D01*
X127281398Y-65621294D01*
X127420213Y-65760109D01*
X127592179Y-65885048D01*
X127592181Y-65885049D01*
X127592184Y-65885051D01*
X127781588Y-65981557D01*
X127983757Y-66047246D01*
X128193713Y-66080500D01*
X128193714Y-66080500D01*
X128406286Y-66080500D01*
X128406287Y-66080500D01*
X128616243Y-66047246D01*
X128818412Y-65981557D01*
X129007816Y-65885051D01*
X129067799Y-65841471D01*
X129179786Y-65760109D01*
X129179788Y-65760106D01*
X129179792Y-65760104D01*
X129330104Y-65609792D01*
X129449683Y-65445204D01*
X129505011Y-65402540D01*
X129574624Y-65396561D01*
X129636420Y-65429166D01*
X129650313Y-65445199D01*
X129704659Y-65520000D01*
X129769896Y-65609792D01*
X129920213Y-65760109D01*
X130092179Y-65885048D01*
X130092181Y-65885049D01*
X130092184Y-65885051D01*
X130124332Y-65901431D01*
X130131794Y-65905233D01*
X130182590Y-65953207D01*
X130199499Y-66015718D01*
X130199499Y-66154054D01*
X130199498Y-66154054D01*
X130240423Y-66306786D01*
X130240424Y-66306787D01*
X130253081Y-66328710D01*
X130268560Y-66355520D01*
X130319480Y-66443716D01*
X130319482Y-66443718D01*
X130438349Y-66562585D01*
X130438355Y-66562590D01*
X130688181Y-66812416D01*
X130721666Y-66873739D01*
X130724500Y-66900097D01*
X130724500Y-68987402D01*
X130704815Y-69054441D01*
X130688181Y-69075083D01*
X130350082Y-69413181D01*
X130288759Y-69446666D01*
X130262401Y-69449500D01*
X129888330Y-69449500D01*
X129888312Y-69449501D01*
X129787247Y-69459825D01*
X129623484Y-69514092D01*
X129623481Y-69514093D01*
X129476651Y-69604659D01*
X129362327Y-69718983D01*
X129301004Y-69752467D01*
X129231312Y-69747483D01*
X129186965Y-69718982D01*
X129073038Y-69605055D01*
X129073034Y-69605052D01*
X128926311Y-69514551D01*
X128926300Y-69514546D01*
X128762652Y-69460319D01*
X128661654Y-69450000D01*
X128612500Y-69450000D01*
X128612500Y-71426944D01*
X128592815Y-71493983D01*
X128540011Y-71539738D01*
X128512693Y-71548561D01*
X128479007Y-71555261D01*
X128478998Y-71555264D01*
X128333327Y-71615602D01*
X128333314Y-71615609D01*
X128202211Y-71703210D01*
X128202207Y-71703213D01*
X128090713Y-71814707D01*
X128090710Y-71814711D01*
X128003109Y-71945814D01*
X128003102Y-71945827D01*
X127942764Y-72091498D01*
X127942761Y-72091510D01*
X127912000Y-72246153D01*
X127912000Y-72403846D01*
X127942761Y-72558489D01*
X127942764Y-72558501D01*
X128003102Y-72704172D01*
X128003109Y-72704185D01*
X128090710Y-72835288D01*
X128090713Y-72835292D01*
X128202207Y-72946786D01*
X128202211Y-72946789D01*
X128333314Y-73034390D01*
X128333327Y-73034397D01*
X128478967Y-73094722D01*
X128479003Y-73094737D01*
X128626605Y-73124097D01*
X128633653Y-73125499D01*
X128633656Y-73125500D01*
X128633658Y-73125500D01*
X128791344Y-73125500D01*
X128791345Y-73125499D01*
X128945997Y-73094737D01*
X129060200Y-73047433D01*
X129080642Y-73038966D01*
X129081393Y-73038885D01*
X129081989Y-73038417D01*
X129116066Y-73035157D01*
X129150111Y-73031497D01*
X129150788Y-73031836D01*
X129151541Y-73031764D01*
X129181948Y-73047433D01*
X129212590Y-73062772D01*
X129213200Y-73063538D01*
X129213649Y-73063770D01*
X129235158Y-73091116D01*
X129235471Y-73091509D01*
X129237325Y-73094719D01*
X129237325Y-73094722D01*
X129237333Y-73094735D01*
X129237336Y-73094739D01*
X129255239Y-73125749D01*
X129271710Y-73193649D01*
X129248857Y-73259676D01*
X129247118Y-73262058D01*
X129156646Y-73382911D01*
X129156645Y-73382913D01*
X129106403Y-73517620D01*
X129106401Y-73517627D01*
X129100000Y-73577155D01*
X129100000Y-73700000D01*
X129625500Y-73700000D01*
X129692539Y-73719685D01*
X129738294Y-73772489D01*
X129749500Y-73824000D01*
X129749500Y-74172869D01*
X129749501Y-74172876D01*
X129755908Y-74232483D01*
X129806202Y-74367328D01*
X129806203Y-74367329D01*
X129806204Y-74367331D01*
X129892454Y-74482546D01*
X129900308Y-74488425D01*
X129903045Y-74492082D01*
X129907203Y-74493981D01*
X129923791Y-74519793D01*
X129942180Y-74544356D01*
X129943196Y-74549988D01*
X129944977Y-74552759D01*
X129950000Y-74587694D01*
X129950000Y-74691138D01*
X129937500Y-74733707D01*
X129937500Y-74875000D01*
X131188500Y-74875000D01*
X131255539Y-74894685D01*
X131301294Y-74947489D01*
X131312500Y-74999000D01*
X131312500Y-75251000D01*
X131292815Y-75318039D01*
X131240011Y-75363794D01*
X131188500Y-75375000D01*
X129811500Y-75375000D01*
X129744461Y-75355315D01*
X129698706Y-75302511D01*
X129687500Y-75251000D01*
X129687500Y-75125000D01*
X129561500Y-75125000D01*
X129494461Y-75105315D01*
X129448706Y-75052511D01*
X129437500Y-75001000D01*
X129437500Y-74050000D01*
X129100000Y-74050000D01*
X129100000Y-74129116D01*
X129097886Y-74136314D01*
X129099138Y-74143712D01*
X129088177Y-74169380D01*
X129080315Y-74196155D01*
X129073962Y-74202667D01*
X129071699Y-74207968D01*
X129052236Y-74224940D01*
X129045608Y-74231736D01*
X128894961Y-74333921D01*
X128872453Y-74341141D01*
X128851708Y-74352468D01*
X128839799Y-74351615D01*
X128828430Y-74355263D01*
X128805593Y-74349168D01*
X128782016Y-74347482D01*
X128769763Y-74339607D01*
X128760923Y-74337248D01*
X128753622Y-74329233D01*
X128737672Y-74318982D01*
X128723351Y-74304661D01*
X128723350Y-74304660D01*
X128606333Y-74232483D01*
X128576518Y-74214093D01*
X128576513Y-74214091D01*
X128558035Y-74207968D01*
X128412753Y-74159826D01*
X128412751Y-74159825D01*
X128311678Y-74149500D01*
X127613330Y-74149500D01*
X127613312Y-74149501D01*
X127512247Y-74159825D01*
X127348484Y-74214092D01*
X127348481Y-74214093D01*
X127201648Y-74304661D01*
X127182058Y-74324251D01*
X127120735Y-74357735D01*
X127064665Y-74355480D01*
X127064472Y-74356451D01*
X126903845Y-74324500D01*
X126903842Y-74324500D01*
X126746158Y-74324500D01*
X126746155Y-74324500D01*
X126591510Y-74355261D01*
X126591498Y-74355264D01*
X126445827Y-74415602D01*
X126445814Y-74415609D01*
X126314711Y-74503210D01*
X126314707Y-74503213D01*
X126203213Y-74614707D01*
X126203210Y-74614711D01*
X126115609Y-74745814D01*
X126115602Y-74745827D01*
X126055264Y-74891498D01*
X126055261Y-74891510D01*
X126024500Y-75046153D01*
X126024500Y-75203846D01*
X126055261Y-75358489D01*
X126055264Y-75358501D01*
X126115602Y-75504172D01*
X126115609Y-75504185D01*
X126203210Y-75635288D01*
X126203213Y-75635292D01*
X126314707Y-75746786D01*
X126314711Y-75746789D01*
X126445814Y-75834390D01*
X126445827Y-75834397D01*
X126591498Y-75894735D01*
X126591503Y-75894737D01*
X126714039Y-75919111D01*
X126746153Y-75925499D01*
X126746156Y-75925500D01*
X126746158Y-75925500D01*
X126903844Y-75925500D01*
X126903845Y-75925499D01*
X126949831Y-75916352D01*
X127064472Y-75893549D01*
X127064704Y-75894719D01*
X127128230Y-75894141D01*
X127182060Y-75925750D01*
X127201650Y-75945340D01*
X127348484Y-76035908D01*
X127512247Y-76090174D01*
X127613323Y-76100500D01*
X128311676Y-76100499D01*
X128311684Y-76100498D01*
X128311687Y-76100498D01*
X128367030Y-76094844D01*
X128412753Y-76090174D01*
X128576516Y-76035908D01*
X128723350Y-75945340D01*
X128737671Y-75931018D01*
X128798989Y-75897533D01*
X128868681Y-75902514D01*
X128913034Y-75931017D01*
X128926961Y-75944944D01*
X128926965Y-75944947D01*
X129073688Y-76035448D01*
X129073699Y-76035453D01*
X129237347Y-76089680D01*
X129338351Y-76099999D01*
X129463178Y-76099999D01*
X129530218Y-76119683D01*
X129575973Y-76172487D01*
X129585917Y-76241645D01*
X129580886Y-76262999D01*
X129572819Y-76287344D01*
X129572819Y-76287346D01*
X129562500Y-76388345D01*
X129562500Y-76425000D01*
X130476000Y-76425000D01*
X130543039Y-76444685D01*
X130588794Y-76497489D01*
X130600000Y-76549000D01*
X130600000Y-76675000D01*
X130726000Y-76675000D01*
X130793039Y-76694685D01*
X130838794Y-76747489D01*
X130850000Y-76799000D01*
X130850000Y-77649999D01*
X130949140Y-77649999D01*
X130949154Y-77649998D01*
X131050152Y-77639680D01*
X131213800Y-77585453D01*
X131213811Y-77585448D01*
X131360535Y-77494947D01*
X131374460Y-77481021D01*
X131435782Y-77447533D01*
X131505473Y-77452514D01*
X131549827Y-77481017D01*
X131564150Y-77495340D01*
X131710984Y-77585908D01*
X131874747Y-77640174D01*
X131975823Y-77650500D01*
X132674176Y-77650499D01*
X132674184Y-77650498D01*
X132674187Y-77650498D01*
X132729530Y-77644844D01*
X132775253Y-77640174D01*
X132939016Y-77585908D01*
X133085850Y-77495340D01*
X133108636Y-77472553D01*
X133169955Y-77439070D01*
X133235442Y-77443752D01*
X133235680Y-77442970D01*
X133239127Y-77444015D01*
X133239646Y-77444053D01*
X133240981Y-77444578D01*
X133241499Y-77444735D01*
X133241503Y-77444737D01*
X133241507Y-77444737D01*
X133241511Y-77444739D01*
X133396153Y-77475499D01*
X133396156Y-77475500D01*
X133396158Y-77475500D01*
X133553844Y-77475500D01*
X133553845Y-77475499D01*
X133708497Y-77444737D01*
X133854179Y-77384394D01*
X133985289Y-77296789D01*
X134096789Y-77185289D01*
X134184394Y-77054179D01*
X134244737Y-76908497D01*
X134275500Y-76753842D01*
X134275500Y-76596158D01*
X134275500Y-76596155D01*
X134275499Y-76596153D01*
X134244738Y-76441510D01*
X134244737Y-76441503D01*
X134237901Y-76425000D01*
X134184397Y-76295827D01*
X134184390Y-76295814D01*
X134096789Y-76164711D01*
X134096786Y-76164707D01*
X134062555Y-76130476D01*
X134029070Y-76069153D01*
X134034054Y-75999461D01*
X134075926Y-75943528D01*
X134141390Y-75919111D01*
X134174428Y-75921178D01*
X134196155Y-75925500D01*
X134196158Y-75925500D01*
X134353844Y-75925500D01*
X134353845Y-75925499D01*
X134508497Y-75894737D01*
X134654179Y-75834394D01*
X134785289Y-75746789D01*
X134896789Y-75635289D01*
X134984394Y-75504179D01*
X135044737Y-75358497D01*
X135075500Y-75203842D01*
X135075500Y-75046158D01*
X135075500Y-75046155D01*
X135075499Y-75046153D01*
X135044738Y-74891510D01*
X135044737Y-74891503D01*
X135022710Y-74838324D01*
X134984397Y-74745827D01*
X134984390Y-74745814D01*
X134896789Y-74614711D01*
X134896786Y-74614707D01*
X134785292Y-74503213D01*
X134785288Y-74503210D01*
X134730109Y-74466340D01*
X134716453Y-74449999D01*
X135175000Y-74449999D01*
X135224140Y-74449999D01*
X135224154Y-74449998D01*
X135325152Y-74439680D01*
X135488800Y-74385453D01*
X135488811Y-74385448D01*
X135635534Y-74294947D01*
X135635538Y-74294944D01*
X135757444Y-74173038D01*
X135757447Y-74173034D01*
X135847948Y-74026311D01*
X135847953Y-74026300D01*
X135902180Y-73862652D01*
X135912499Y-73761654D01*
X135912500Y-73761641D01*
X135912500Y-73725000D01*
X135175000Y-73725000D01*
X135175000Y-74449999D01*
X134716453Y-74449999D01*
X134685304Y-74412727D01*
X134675000Y-74363238D01*
X134675000Y-73599000D01*
X134694685Y-73531961D01*
X134747489Y-73486206D01*
X134799000Y-73475000D01*
X134925000Y-73475000D01*
X134925000Y-73349000D01*
X134944685Y-73281961D01*
X134997489Y-73236206D01*
X135049000Y-73225000D01*
X135917566Y-73225000D01*
X135967722Y-73197612D01*
X136037414Y-73202596D01*
X136041517Y-73204210D01*
X136079003Y-73219737D01*
X136227459Y-73249267D01*
X136233653Y-73250499D01*
X136233656Y-73250500D01*
X136233658Y-73250500D01*
X136391344Y-73250500D01*
X136391345Y-73250499D01*
X136545997Y-73219737D01*
X136691679Y-73159394D01*
X136822789Y-73071789D01*
X136934289Y-72960289D01*
X137021894Y-72829179D01*
X137082237Y-72683497D01*
X137113000Y-72528842D01*
X137113000Y-72371158D01*
X137113000Y-72371155D01*
X137112999Y-72371153D01*
X137082237Y-72216503D01*
X137082235Y-72216498D01*
X137021897Y-72070827D01*
X137021890Y-72070814D01*
X136934289Y-71939711D01*
X136934286Y-71939707D01*
X136822792Y-71828213D01*
X136822788Y-71828210D01*
X136691685Y-71740609D01*
X136691672Y-71740602D01*
X136546001Y-71680264D01*
X136545991Y-71680261D01*
X136390649Y-71649361D01*
X136373892Y-71640595D01*
X136355414Y-71636576D01*
X136330377Y-71617833D01*
X136328738Y-71616976D01*
X136327160Y-71615425D01*
X136325090Y-71613355D01*
X136325088Y-71613352D01*
X136206217Y-71494481D01*
X136206216Y-71494480D01*
X136119404Y-71444360D01*
X136119404Y-71444359D01*
X136119400Y-71444358D01*
X136069285Y-71415423D01*
X135916557Y-71374499D01*
X135916554Y-71374499D01*
X135887401Y-71374499D01*
X135820362Y-71354814D01*
X135781863Y-71315596D01*
X135757842Y-71276653D01*
X135757839Y-71276649D01*
X135635851Y-71154661D01*
X135635850Y-71154660D01*
X135489016Y-71064092D01*
X135325253Y-71009826D01*
X135325251Y-71009825D01*
X135224184Y-70999500D01*
X134774485Y-70999500D01*
X134707446Y-70979815D01*
X134661691Y-70927011D01*
X134651747Y-70857853D01*
X134656780Y-70836493D01*
X134664681Y-70812651D01*
X134674999Y-70711654D01*
X134675000Y-70711641D01*
X134675000Y-70675000D01*
X133811500Y-70675000D01*
X133744461Y-70655315D01*
X133698706Y-70602511D01*
X133687500Y-70551000D01*
X133687500Y-70425000D01*
X133561500Y-70425000D01*
X133494461Y-70405315D01*
X133448706Y-70352511D01*
X133437500Y-70301000D01*
X133437500Y-70175000D01*
X133937500Y-70175000D01*
X134674999Y-70175000D01*
X134674999Y-70138360D01*
X134674998Y-70138345D01*
X134664680Y-70037347D01*
X134610453Y-69873699D01*
X134610448Y-69873688D01*
X134519947Y-69726965D01*
X134519944Y-69726961D01*
X134398038Y-69605055D01*
X134398034Y-69605052D01*
X134251311Y-69514551D01*
X134251300Y-69514546D01*
X134087652Y-69460319D01*
X133986654Y-69450000D01*
X133937500Y-69450000D01*
X133937500Y-70175000D01*
X133437500Y-70175000D01*
X133437500Y-69450000D01*
X133437499Y-69449999D01*
X133388361Y-69450000D01*
X133388343Y-69450001D01*
X133287347Y-69460319D01*
X133123699Y-69514546D01*
X133123688Y-69514551D01*
X132976965Y-69605052D01*
X132863034Y-69718983D01*
X132801711Y-69752467D01*
X132732019Y-69747483D01*
X132687672Y-69718982D01*
X132573350Y-69604660D01*
X132573346Y-69604657D01*
X132478153Y-69545941D01*
X132431428Y-69493993D01*
X132419250Y-69440403D01*
X132419250Y-67656346D01*
X132438935Y-67589307D01*
X132455564Y-67568670D01*
X132570521Y-67453713D01*
X140649500Y-67453713D01*
X140649500Y-67666286D01*
X140678908Y-67851965D01*
X140682754Y-67876243D01*
X140722473Y-67998486D01*
X140748444Y-68078414D01*
X140844951Y-68267820D01*
X140969890Y-68439786D01*
X141120213Y-68590109D01*
X141292182Y-68715050D01*
X141300946Y-68719516D01*
X141351742Y-68767491D01*
X141368536Y-68835312D01*
X141345998Y-68901447D01*
X141300946Y-68940484D01*
X141292182Y-68944949D01*
X141120213Y-69069890D01*
X140969890Y-69220213D01*
X140844951Y-69392179D01*
X140748444Y-69581585D01*
X140682753Y-69783760D01*
X140664394Y-69899674D01*
X140649500Y-69993713D01*
X140649500Y-70206287D01*
X140682754Y-70416243D01*
X140743276Y-70602511D01*
X140748444Y-70618414D01*
X140844951Y-70807820D01*
X140969890Y-70979786D01*
X141120213Y-71130109D01*
X141292182Y-71255050D01*
X141300946Y-71259516D01*
X141351742Y-71307491D01*
X141368536Y-71375312D01*
X141345998Y-71441447D01*
X141300946Y-71480484D01*
X141292182Y-71484949D01*
X141120213Y-71609890D01*
X140969890Y-71760213D01*
X140844951Y-71932179D01*
X140748444Y-72121585D01*
X140682753Y-72323760D01*
X140670069Y-72403846D01*
X140649500Y-72533713D01*
X140649500Y-72746287D01*
X140652477Y-72765082D01*
X140681256Y-72946789D01*
X140682754Y-72956243D01*
X140740687Y-73134543D01*
X140748444Y-73158414D01*
X140844951Y-73347820D01*
X140969890Y-73519786D01*
X141120213Y-73670109D01*
X141292179Y-73795048D01*
X141292181Y-73795049D01*
X141292184Y-73795051D01*
X141481588Y-73891557D01*
X141683757Y-73957246D01*
X141893713Y-73990500D01*
X141893714Y-73990500D01*
X142106286Y-73990500D01*
X142106287Y-73990500D01*
X142316243Y-73957246D01*
X142518412Y-73891557D01*
X142707816Y-73795051D01*
X142804234Y-73725000D01*
X142879786Y-73670109D01*
X142879788Y-73670106D01*
X142879792Y-73670104D01*
X143030104Y-73519792D01*
X143030106Y-73519788D01*
X143030109Y-73519786D01*
X143155048Y-73347820D01*
X143155047Y-73347820D01*
X143155051Y-73347816D01*
X143251557Y-73158412D01*
X143317246Y-72956243D01*
X143350500Y-72746287D01*
X143350500Y-72533713D01*
X143317246Y-72323757D01*
X143251557Y-72121588D01*
X143155051Y-71932184D01*
X143155049Y-71932181D01*
X143155048Y-71932179D01*
X143030109Y-71760213D01*
X142879786Y-71609890D01*
X142707820Y-71484951D01*
X142707115Y-71484591D01*
X142699054Y-71480485D01*
X142648259Y-71432512D01*
X142631463Y-71364692D01*
X142653999Y-71298556D01*
X142699054Y-71259515D01*
X142707816Y-71255051D01*
X142759564Y-71217454D01*
X142879786Y-71130109D01*
X142879788Y-71130106D01*
X142879792Y-71130104D01*
X143030104Y-70979792D01*
X143030106Y-70979788D01*
X143030109Y-70979786D01*
X143155048Y-70807820D01*
X143155047Y-70807820D01*
X143155051Y-70807816D01*
X143251557Y-70618412D01*
X143317246Y-70416243D01*
X143350500Y-70206287D01*
X143350500Y-69993713D01*
X143317246Y-69783757D01*
X143251557Y-69581588D01*
X143155051Y-69392184D01*
X143155049Y-69392181D01*
X143155048Y-69392179D01*
X143030109Y-69220213D01*
X142879786Y-69069890D01*
X142707820Y-68944951D01*
X142707115Y-68944591D01*
X142699054Y-68940485D01*
X142648259Y-68892512D01*
X142631463Y-68824692D01*
X142653999Y-68758556D01*
X142699054Y-68719515D01*
X142707816Y-68715051D01*
X142729789Y-68699086D01*
X142879786Y-68590109D01*
X142879788Y-68590106D01*
X142879792Y-68590104D01*
X143030104Y-68439792D01*
X143030106Y-68439788D01*
X143030109Y-68439786D01*
X143155048Y-68267820D01*
X143155047Y-68267820D01*
X143155051Y-68267816D01*
X143251557Y-68078412D01*
X143317246Y-67876243D01*
X143350500Y-67666287D01*
X143350500Y-67453713D01*
X143317246Y-67243757D01*
X143251557Y-67041588D01*
X143155051Y-66852184D01*
X143155049Y-66852181D01*
X143155048Y-66852179D01*
X143030109Y-66680213D01*
X142916181Y-66566285D01*
X142882696Y-66504962D01*
X142887680Y-66435270D01*
X142929552Y-66379337D01*
X142960529Y-66362422D01*
X143092086Y-66313354D01*
X143092093Y-66313350D01*
X143207187Y-66227190D01*
X143207190Y-66227187D01*
X143293350Y-66112093D01*
X143293354Y-66112086D01*
X143343596Y-65977379D01*
X143343598Y-65977372D01*
X143349999Y-65917844D01*
X143350000Y-65917827D01*
X143350000Y-65270000D01*
X142433012Y-65270000D01*
X142465925Y-65212993D01*
X142500000Y-65085826D01*
X142500000Y-64954174D01*
X142465925Y-64827007D01*
X142433012Y-64770000D01*
X143350000Y-64770000D01*
X143350000Y-64122172D01*
X143349999Y-64122155D01*
X143343598Y-64062627D01*
X143343596Y-64062620D01*
X143293354Y-63927913D01*
X143293350Y-63927906D01*
X143207190Y-63812812D01*
X143207187Y-63812809D01*
X143092093Y-63726649D01*
X143092086Y-63726645D01*
X142957379Y-63676403D01*
X142957372Y-63676401D01*
X142897844Y-63670000D01*
X142250000Y-63670000D01*
X142250000Y-64586988D01*
X142192993Y-64554075D01*
X142065826Y-64520000D01*
X141934174Y-64520000D01*
X141807007Y-64554075D01*
X141750000Y-64586988D01*
X141750000Y-63670000D01*
X141102155Y-63670000D01*
X141042627Y-63676401D01*
X141042620Y-63676403D01*
X140907913Y-63726645D01*
X140907906Y-63726649D01*
X140792812Y-63812809D01*
X140792809Y-63812812D01*
X140706649Y-63927906D01*
X140706645Y-63927913D01*
X140656403Y-64062620D01*
X140656401Y-64062627D01*
X140650000Y-64122155D01*
X140650000Y-64770000D01*
X141566988Y-64770000D01*
X141534075Y-64827007D01*
X141500000Y-64954174D01*
X141500000Y-65085826D01*
X141534075Y-65212993D01*
X141566988Y-65270000D01*
X140650000Y-65270000D01*
X140650000Y-65917844D01*
X140656401Y-65977372D01*
X140656403Y-65977379D01*
X140706645Y-66112086D01*
X140706649Y-66112093D01*
X140792809Y-66227187D01*
X140792812Y-66227190D01*
X140907906Y-66313350D01*
X140907913Y-66313354D01*
X141039470Y-66362422D01*
X141095404Y-66404293D01*
X141119821Y-66469758D01*
X141104969Y-66538031D01*
X141083819Y-66566285D01*
X140969889Y-66680215D01*
X140844951Y-66852179D01*
X140748444Y-67041585D01*
X140682753Y-67243760D01*
X140649500Y-67453713D01*
X132570521Y-67453713D01*
X133658506Y-66365727D01*
X133658511Y-66365724D01*
X133668714Y-66355520D01*
X133668716Y-66355520D01*
X133780520Y-66243716D01*
X133852247Y-66119480D01*
X133859577Y-66106785D01*
X133891434Y-65987893D01*
X133892342Y-65985060D01*
X133910332Y-65958512D01*
X133927022Y-65931131D01*
X133930529Y-65928707D01*
X133931538Y-65927220D01*
X133934544Y-65925934D01*
X133954131Y-65912404D01*
X134007816Y-65885051D01*
X134179792Y-65760104D01*
X134330104Y-65609792D01*
X134449991Y-65444779D01*
X134505320Y-65402115D01*
X134574933Y-65396136D01*
X134636729Y-65428741D01*
X134650627Y-65444781D01*
X134770272Y-65609459D01*
X134770276Y-65609464D01*
X134920535Y-65759723D01*
X134920540Y-65759727D01*
X135092442Y-65884620D01*
X135281782Y-65981095D01*
X135483871Y-66046757D01*
X135550000Y-66057231D01*
X135550000Y-65028482D01*
X135568409Y-65039111D01*
X135721009Y-65080000D01*
X135878991Y-65080000D01*
X136031591Y-65039111D01*
X136050000Y-65028482D01*
X136050000Y-66057230D01*
X136116126Y-66046757D01*
X136116129Y-66046757D01*
X136318217Y-65981095D01*
X136507557Y-65884620D01*
X136679459Y-65759727D01*
X136679464Y-65759723D01*
X136829723Y-65609464D01*
X136829727Y-65609459D01*
X136954620Y-65437557D01*
X137051095Y-65248217D01*
X137116757Y-65046130D01*
X137116757Y-65046127D01*
X137150000Y-64836246D01*
X137150000Y-64730000D01*
X136348482Y-64730000D01*
X136359111Y-64711591D01*
X136400000Y-64558991D01*
X136400000Y-64401009D01*
X136359111Y-64248409D01*
X136348482Y-64230000D01*
X137150000Y-64230000D01*
X137150000Y-64123755D01*
X137149999Y-64123752D01*
X137116757Y-63913872D01*
X137116757Y-63913869D01*
X137051095Y-63711782D01*
X136954620Y-63522442D01*
X136829727Y-63350540D01*
X136829723Y-63350535D01*
X136679464Y-63200276D01*
X136679459Y-63200272D01*
X136507557Y-63075379D01*
X136318215Y-62978903D01*
X136116124Y-62913241D01*
X136050000Y-62902768D01*
X136050000Y-63931517D01*
X136031591Y-63920889D01*
X135878991Y-63880000D01*
X135721009Y-63880000D01*
X135568409Y-63920889D01*
X135550000Y-63931517D01*
X135550000Y-62902768D01*
X135549999Y-62902768D01*
X135483875Y-62913241D01*
X135281784Y-62978903D01*
X135092442Y-63075379D01*
X134920540Y-63200272D01*
X134920535Y-63200276D01*
X134770276Y-63350535D01*
X134770272Y-63350540D01*
X134650627Y-63515218D01*
X134595297Y-63557884D01*
X134525684Y-63563863D01*
X134463889Y-63531257D01*
X134449991Y-63515218D01*
X134330109Y-63350214D01*
X134330105Y-63350209D01*
X134179786Y-63199890D01*
X134007820Y-63074951D01*
X133818414Y-62978444D01*
X133818413Y-62978443D01*
X133818412Y-62978443D01*
X133616243Y-62912754D01*
X133616241Y-62912753D01*
X133616240Y-62912753D01*
X133454957Y-62887208D01*
X133406287Y-62879500D01*
X133193713Y-62879500D01*
X133145042Y-62887208D01*
X132983760Y-62912753D01*
X132781585Y-62978444D01*
X132592179Y-63074951D01*
X132420213Y-63199890D01*
X132269894Y-63350209D01*
X132269890Y-63350214D01*
X132150318Y-63514793D01*
X132094989Y-63557459D01*
X132025375Y-63563438D01*
X131963580Y-63530833D01*
X131949682Y-63514793D01*
X131830109Y-63350214D01*
X131830105Y-63350209D01*
X131679786Y-63199890D01*
X131507820Y-63074951D01*
X131318414Y-62978444D01*
X131318413Y-62978443D01*
X131318412Y-62978443D01*
X131116243Y-62912754D01*
X131116241Y-62912753D01*
X131116240Y-62912753D01*
X130954957Y-62887208D01*
X130906287Y-62879500D01*
X130693713Y-62879500D01*
X130645042Y-62887208D01*
X130483760Y-62912753D01*
X130281585Y-62978444D01*
X130092179Y-63074951D01*
X129920213Y-63199890D01*
X129769894Y-63350209D01*
X129769890Y-63350214D01*
X129650318Y-63514793D01*
X129594989Y-63557459D01*
X129525375Y-63563438D01*
X129463580Y-63530833D01*
X129449682Y-63514793D01*
X129330109Y-63350214D01*
X129330105Y-63350209D01*
X129179786Y-63199890D01*
X129007820Y-63074951D01*
X128818414Y-62978444D01*
X128818413Y-62978443D01*
X128818412Y-62978443D01*
X128616243Y-62912754D01*
X128616241Y-62912753D01*
X128616240Y-62912753D01*
X128454957Y-62887208D01*
X128406287Y-62879500D01*
X128193713Y-62879500D01*
X128145042Y-62887208D01*
X127983760Y-62912753D01*
X127781585Y-62978444D01*
X127592179Y-63074951D01*
X127420215Y-63199889D01*
X127281398Y-63338706D01*
X127220075Y-63372190D01*
X127150383Y-63367206D01*
X127094450Y-63325334D01*
X127088178Y-63316120D01*
X126992712Y-63161344D01*
X126868657Y-63037289D01*
X126868656Y-63037288D01*
X126719334Y-62945186D01*
X126552797Y-62890001D01*
X126552795Y-62890000D01*
X126450010Y-62879500D01*
X125149998Y-62879500D01*
X125149981Y-62879501D01*
X125047203Y-62890000D01*
X125047200Y-62890001D01*
X124880668Y-62945185D01*
X124880663Y-62945187D01*
X124731342Y-63037289D01*
X124607289Y-63161342D01*
X124515187Y-63310663D01*
X124515185Y-63310668D01*
X124510325Y-63325334D01*
X124460001Y-63477203D01*
X124460001Y-63477204D01*
X124460000Y-63477204D01*
X124449500Y-63579983D01*
X116200500Y-63579983D01*
X116200500Y-57903051D01*
X116200649Y-57896966D01*
X116206459Y-57778711D01*
X117849500Y-57778711D01*
X117849500Y-58021288D01*
X117881161Y-58261785D01*
X117943947Y-58496104D01*
X118036773Y-58720205D01*
X118036776Y-58720212D01*
X118158064Y-58930289D01*
X118158066Y-58930292D01*
X118158067Y-58930293D01*
X118305733Y-59122736D01*
X118305739Y-59122743D01*
X118477256Y-59294260D01*
X118477262Y-59294265D01*
X118669711Y-59441936D01*
X118879788Y-59563224D01*
X119103900Y-59656054D01*
X119338211Y-59718838D01*
X119518586Y-59742584D01*
X119578711Y-59750500D01*
X119578712Y-59750500D01*
X119821289Y-59750500D01*
X119869388Y-59744167D01*
X120061789Y-59718838D01*
X120296100Y-59656054D01*
X120520212Y-59563224D01*
X120730289Y-59441936D01*
X120922738Y-59294265D01*
X121094265Y-59122738D01*
X121241936Y-58930289D01*
X121363224Y-58720212D01*
X121456054Y-58496100D01*
X121518838Y-58261789D01*
X121550500Y-58021288D01*
X121550500Y-57778712D01*
X121549164Y-57768567D01*
X121522111Y-57563072D01*
X121518838Y-57538211D01*
X121456054Y-57303900D01*
X121418563Y-57213389D01*
X124699500Y-57213389D01*
X124699500Y-57386610D01*
X124725530Y-57550962D01*
X124726598Y-57557701D01*
X124780127Y-57722445D01*
X124858768Y-57876788D01*
X124960586Y-58016928D01*
X125083072Y-58139414D01*
X125223212Y-58241232D01*
X125377555Y-58319873D01*
X125542299Y-58373402D01*
X125713389Y-58400500D01*
X125713390Y-58400500D01*
X125886610Y-58400500D01*
X125886611Y-58400500D01*
X126057701Y-58373402D01*
X126222445Y-58319873D01*
X126376788Y-58241232D01*
X126516928Y-58139414D01*
X126639414Y-58016928D01*
X126741232Y-57876788D01*
X126819873Y-57722445D01*
X126873402Y-57557701D01*
X126900500Y-57386611D01*
X126900500Y-57213389D01*
X134699500Y-57213389D01*
X134699500Y-57386610D01*
X134725530Y-57550962D01*
X134726598Y-57557701D01*
X134780127Y-57722445D01*
X134858768Y-57876788D01*
X134960586Y-58016928D01*
X135083072Y-58139414D01*
X135223212Y-58241232D01*
X135377555Y-58319873D01*
X135542299Y-58373402D01*
X135713389Y-58400500D01*
X135713390Y-58400500D01*
X135886610Y-58400500D01*
X135886611Y-58400500D01*
X136057701Y-58373402D01*
X136222445Y-58319873D01*
X136376788Y-58241232D01*
X136516928Y-58139414D01*
X136639414Y-58016928D01*
X136741232Y-57876788D01*
X136791204Y-57778711D01*
X139849500Y-57778711D01*
X139849500Y-58021288D01*
X139881161Y-58261785D01*
X139943947Y-58496104D01*
X140036773Y-58720205D01*
X140036776Y-58720212D01*
X140158064Y-58930289D01*
X140158066Y-58930292D01*
X140158067Y-58930293D01*
X140305733Y-59122736D01*
X140305739Y-59122743D01*
X140477256Y-59294260D01*
X140477262Y-59294265D01*
X140669711Y-59441936D01*
X140879788Y-59563224D01*
X141103900Y-59656054D01*
X141338211Y-59718838D01*
X141518586Y-59742584D01*
X141578711Y-59750500D01*
X141578712Y-59750500D01*
X141821289Y-59750500D01*
X141869388Y-59744167D01*
X142061789Y-59718838D01*
X142296100Y-59656054D01*
X142520212Y-59563224D01*
X142730289Y-59441936D01*
X142922738Y-59294265D01*
X143094265Y-59122738D01*
X143241936Y-58930289D01*
X143363224Y-58720212D01*
X143456054Y-58496100D01*
X143518838Y-58261789D01*
X143550500Y-58021288D01*
X143550500Y-57778712D01*
X143549164Y-57768567D01*
X143522111Y-57563072D01*
X143518838Y-57538211D01*
X143456054Y-57303900D01*
X143363224Y-57079788D01*
X143241936Y-56869711D01*
X143094265Y-56677262D01*
X143094260Y-56677256D01*
X142922743Y-56505739D01*
X142922736Y-56505733D01*
X142730293Y-56358067D01*
X142730292Y-56358066D01*
X142730289Y-56358064D01*
X142520212Y-56236776D01*
X142430220Y-56199500D01*
X142296104Y-56143947D01*
X142061785Y-56081161D01*
X141821289Y-56049500D01*
X141821288Y-56049500D01*
X141578712Y-56049500D01*
X141578711Y-56049500D01*
X141338214Y-56081161D01*
X141103895Y-56143947D01*
X140879794Y-56236773D01*
X140879785Y-56236777D01*
X140669706Y-56358067D01*
X140477263Y-56505733D01*
X140477256Y-56505739D01*
X140305739Y-56677256D01*
X140305733Y-56677263D01*
X140158067Y-56869706D01*
X140036777Y-57079785D01*
X140036773Y-57079794D01*
X139943947Y-57303895D01*
X139881161Y-57538214D01*
X139849500Y-57778711D01*
X136791204Y-57778711D01*
X136819873Y-57722445D01*
X136873402Y-57557701D01*
X136900500Y-57386611D01*
X136900500Y-57213389D01*
X136873402Y-57042299D01*
X136819873Y-56877555D01*
X136741232Y-56723212D01*
X136639414Y-56583072D01*
X136516928Y-56460586D01*
X136376788Y-56358768D01*
X136222445Y-56280127D01*
X136057701Y-56226598D01*
X136057699Y-56226597D01*
X136057698Y-56226597D01*
X135926271Y-56205781D01*
X135886611Y-56199500D01*
X135713389Y-56199500D01*
X135673728Y-56205781D01*
X135542302Y-56226597D01*
X135377552Y-56280128D01*
X135223211Y-56358768D01*
X135143256Y-56416859D01*
X135083072Y-56460586D01*
X135083070Y-56460588D01*
X135083069Y-56460588D01*
X134960588Y-56583069D01*
X134960588Y-56583070D01*
X134960586Y-56583072D01*
X134916859Y-56643256D01*
X134858768Y-56723211D01*
X134780128Y-56877552D01*
X134726597Y-57042302D01*
X134699500Y-57213389D01*
X126900500Y-57213389D01*
X126873402Y-57042299D01*
X126819873Y-56877555D01*
X126741232Y-56723212D01*
X126639414Y-56583072D01*
X126516928Y-56460586D01*
X126376788Y-56358768D01*
X126222445Y-56280127D01*
X126057701Y-56226598D01*
X126057699Y-56226597D01*
X126057698Y-56226597D01*
X125926271Y-56205781D01*
X125886611Y-56199500D01*
X125713389Y-56199500D01*
X125673728Y-56205781D01*
X125542302Y-56226597D01*
X125377552Y-56280128D01*
X125223211Y-56358768D01*
X125143256Y-56416859D01*
X125083072Y-56460586D01*
X125083070Y-56460588D01*
X125083069Y-56460588D01*
X124960588Y-56583069D01*
X124960588Y-56583070D01*
X124960586Y-56583072D01*
X124916859Y-56643256D01*
X124858768Y-56723211D01*
X124780128Y-56877552D01*
X124726597Y-57042302D01*
X124699500Y-57213389D01*
X121418563Y-57213389D01*
X121417726Y-57211369D01*
X121363226Y-57079794D01*
X121363224Y-57079788D01*
X121241936Y-56869711D01*
X121094265Y-56677262D01*
X121094260Y-56677256D01*
X120922743Y-56505739D01*
X120922736Y-56505733D01*
X120730293Y-56358067D01*
X120730292Y-56358066D01*
X120730289Y-56358064D01*
X120520212Y-56236776D01*
X120430220Y-56199500D01*
X120296104Y-56143947D01*
X120061785Y-56081161D01*
X119821289Y-56049500D01*
X119821288Y-56049500D01*
X119578712Y-56049500D01*
X119578711Y-56049500D01*
X119338214Y-56081161D01*
X119103895Y-56143947D01*
X118879794Y-56236773D01*
X118879785Y-56236777D01*
X118669706Y-56358067D01*
X118477263Y-56505733D01*
X118477256Y-56505739D01*
X118305739Y-56677256D01*
X118305733Y-56677263D01*
X118158067Y-56869706D01*
X118036777Y-57079785D01*
X118036773Y-57079794D01*
X117943947Y-57303895D01*
X117881161Y-57538214D01*
X117849500Y-57778711D01*
X116206459Y-57778711D01*
X116206957Y-57768568D01*
X116206957Y-57768567D01*
X116217052Y-57563072D01*
X116218245Y-57550962D01*
X116242624Y-57386610D01*
X116266849Y-57223296D01*
X116269218Y-57211385D01*
X116349710Y-56890043D01*
X116353240Y-56878411D01*
X116408771Y-56723212D01*
X116464835Y-56566525D01*
X116469476Y-56555318D01*
X116611124Y-56255828D01*
X116616840Y-56245136D01*
X116787145Y-55960998D01*
X116793888Y-55950905D01*
X116991232Y-55684818D01*
X116998935Y-55675433D01*
X117221405Y-55429975D01*
X117229975Y-55421405D01*
X117475433Y-55198935D01*
X117484818Y-55191232D01*
X117750905Y-54993888D01*
X117760998Y-54987145D01*
X118045136Y-54816840D01*
X118055828Y-54811124D01*
X118355318Y-54669476D01*
X118366525Y-54664835D01*
X118678412Y-54553239D01*
X118690043Y-54549710D01*
X119011385Y-54469218D01*
X119023296Y-54466849D01*
X119350962Y-54418244D01*
X119363068Y-54417052D01*
X119696967Y-54400648D01*
X119703051Y-54400500D01*
X119765892Y-54400500D01*
X141634108Y-54400500D01*
X141696949Y-54400500D01*
X141703032Y-54400648D01*
G37*
%TD.AperFunction*%
%TD*%
M02*
