M48
; DRILL file {KiCad 9.0.4} date 2026-02-14T16:11:11-0600
; FORMAT={-:-/ absolute / inch / decimal}
; #@! TF.CreationDate,2026-02-14T16:11:11-06:00
; #@! TF.GenerationSoftware,Kicad,Pcbnew,9.0.4
; #@! TF.FileFunction,Plated,1,2,PTH
FMAT,2
INCH
; #@! TA.AperFunction,Plated,PTH,ViaDrill
T1C0.0118
; #@! TA.AperFunction,Plated,PTH,ComponentDrill
T2C0.0320
; #@! TA.AperFunction,Plated,PTH,ComponentDrill
T3C0.0394
; #@! TA.AperFunction,Plated,PTH,ComponentDrill
T4C0.0400
; #@! TA.AperFunction,Plated,PTH,ComponentDrill
T5C0.0472
; #@! TA.AperFunction,Plated,PTH,ComponentDrill
T6C0.1260
%
G90
G05
T1
X4.6752Y-2.9429
X4.685Y-3.2913
X4.6949Y-3.757
X4.7283Y-3.2795
X4.7441Y-2.9429
X4.7638Y-3.7598
X4.7722Y-2.0992
X4.7722Y-2.2252
X4.7722Y-2.3512
X4.7722Y-2.7291
X4.7722Y-2.8551
X4.7722Y-3.3591
X4.7722Y-3.611
X4.7722Y-3.863
X4.7722Y-4.2409
X4.8524Y-4.1142
X4.8819Y-3.2402
X4.8982Y-2.3512
X4.8982Y-4.2409
X4.905Y-3.57
X4.905Y-3.69
X4.94Y-3.57
X4.94Y-3.69
X4.9409Y-4.124
X5.0242Y-2.7291
X5.0242Y-3.863
X5.0394Y-3.5984
X5.1502Y-2.6031
X5.1502Y-2.9811
X5.1502Y-3.1071
X5.1502Y-3.2331
X5.1502Y-3.3591
X5.1502Y-3.611
X5.1502Y-3.737
X5.1502Y-3.863
X5.2762Y-2.8551
X5.2762Y-2.9811
X5.2762Y-3.1071
X5.2762Y-3.2331
X5.2762Y-3.3591
X5.2762Y-3.485
X5.2762Y-3.611
X5.2762Y-3.737
X5.2762Y-4.115
X5.4022Y-2.7291
X5.4022Y-2.8551
X5.4022Y-2.9811
X5.4022Y-3.1071
X5.4022Y-3.2331
X5.4022Y-3.3591
X5.4022Y-3.485
X5.4022Y-3.611
X5.4022Y-3.737
X5.4022Y-3.989
X5.4022Y-4.115
X5.4022Y-4.2409
X5.4238Y-2.5388
X5.4488Y-2.439
X5.5281Y-2.9811
X5.5281Y-3.1071
X5.5281Y-3.2331
X5.5281Y-3.3591
X5.5281Y-3.485
X5.5281Y-3.611
X5.5281Y-3.737
X5.5281Y-4.115
X5.5551Y-2.5394
X5.5748Y-2.3488
X5.6541Y-3.1071
X5.6541Y-3.2331
X5.6541Y-3.3591
X5.6541Y-3.485
X5.6541Y-3.611
X5.6541Y-3.737
X5.6541Y-4.115
X5.6541Y-4.2409
X5.67Y-2.2432
X5.67Y-3.897
X5.7056Y-2.6772
X5.7371Y-2.572
X5.7382Y-2.8423
X5.7382Y-3.0118
X5.7801Y-2.7291
X5.7801Y-3.1071
X5.7801Y-3.2331
X5.7801Y-3.3591
X5.7801Y-3.485
X5.7801Y-4.115
X5.789Y-3.896
X5.8954Y-2.6216
X5.9061Y-2.0992
X5.9061Y-2.2252
X5.9061Y-2.7291
X5.9061Y-2.8551
X5.9061Y-3.2331
X5.9061Y-3.3591
X5.9061Y-3.989
X5.9061Y-4.115
X5.9061Y-4.2409
X5.9261Y-2.598
X6.029Y-2.689
X6.029Y-2.816
X6.029Y-3.364
X6.0291Y-3.039
X6.0321Y-2.3512
X6.0321Y-2.4772
X6.0321Y-3.611
X6.0321Y-3.737
X6.0321Y-3.863
X6.0321Y-3.989
X6.0321Y-4.115
X6.0321Y-4.2409
X6.0915Y-3.4245
X6.1Y-2.6792
X6.1Y-2.906
X6.1Y-3.139
X6.1327Y-2.7563
X6.1581Y-2.3512
X6.1581Y-2.4772
X6.1581Y-2.9811
X6.1581Y-3.1071
X6.1581Y-3.863
X6.1581Y-3.989
X6.1581Y-4.115
X6.1581Y-4.2409
X6.1614Y-2.2835
X6.174Y-2.8543
X6.25Y-2.2835
X6.284Y-3.611
X6.41Y-2.6031
X6.41Y-2.9811
X6.41Y-3.2331
X6.4173Y-3.3858
X6.5354Y-2.2835
X6.536Y-2.3512
X6.536Y-3.2331
X6.536Y-3.3591
X6.536Y-3.611
X6.536Y-3.863
X6.6102Y-2.2795
X6.6102Y-2.3504
T2
X4.6711Y-2.5969
X4.6711Y-3.1118
X4.672Y-3.4614
X4.672Y-3.9764
X4.7711Y-2.5969
X4.7711Y-3.1118
X4.772Y-3.4614
X4.772Y-3.9764
X4.8711Y-2.5969
X4.8711Y-3.1118
X4.872Y-3.4614
X4.872Y-3.9764
X4.9711Y-2.5969
X4.9711Y-3.1118
X4.972Y-3.4614
X4.972Y-3.9764
T3
X4.742Y-2.3917
X6.577Y-2.51
X6.586Y-4.275
X6.588Y-3.972
T4
X4.8488Y-2.0732
X4.8488Y-2.1732
X4.9488Y-2.0732
X4.9488Y-2.1732
X5.0488Y-2.0732
X5.0488Y-2.1732
X5.1488Y-2.0732
X5.1488Y-2.1732
X5.2488Y-2.0732
X5.2488Y-2.1732
T5
X5.5413Y-3.9862
X5.6398Y-3.9862
X5.7382Y-3.9862
X5.8366Y-3.9862
X6.2626Y-3.1299
X6.2626Y-3.2283
X6.2626Y-3.3268
X6.2626Y-3.4252
X6.2626Y-3.5236
X6.2626Y-3.7008
X6.2626Y-3.7992
X6.2626Y-3.8976
X6.2626Y-3.9961
X6.2626Y-4.0945
X6.2642Y-2.6575
X6.2642Y-2.7559
X6.2642Y-2.8543
X6.2642Y-2.9528
T6
X5.1635Y-2.4335
X5.1639Y-4.263
X6.3741Y-2.4335
X6.3741Y-4.263
M30
