%TF.GenerationSoftware,KiCad,Pcbnew,9.0.4*%
%TF.CreationDate,2026-02-14T16:11:11-06:00*%
%TF.ProjectId,Pitot,5069746f-742e-46b6-9963-61645f706362,A*%
%TF.SameCoordinates,Original*%
%TF.FileFunction,Soldermask,Bot*%
%TF.FilePolarity,Negative*%
%FSLAX46Y46*%
G04 Gerber Fmt 4.6, Leading zero omitted, Abs format (unit mm)*
G04 Created by KiCad (PCBNEW 9.0.4) date 2026-02-14 16:11:11*
%MOMM*%
%LPD*%
G01*
G04 APERTURE LIST*
G04 Aperture macros list*
%AMRoundRect*
0 Rectangle with rounded corners*
0 $1 Rounding radius*
0 $2 $3 $4 $5 $6 $7 $8 $9 X,Y pos of 4 corners*
0 Add a 4 corners polygon primitive as box body*
4,1,4,$2,$3,$4,$5,$6,$7,$8,$9,$2,$3,0*
0 Add four circle primitives for the rounded corners*
1,1,$1+$1,$2,$3*
1,1,$1+$1,$4,$5*
1,1,$1+$1,$6,$7*
1,1,$1+$1,$8,$9*
0 Add four rect primitives between the rounded corners*
20,1,$1+$1,$2,$3,$4,$5,0*
20,1,$1+$1,$4,$5,$6,$7,0*
20,1,$1+$1,$6,$7,$8,$9,0*
20,1,$1+$1,$8,$9,$2,$3,0*%
G04 Aperture macros list end*
%ADD10C,0.000000*%
%ADD11C,3.600000*%
%ADD12C,6.400000*%
%ADD13R,2.000000X2.000000*%
%ADD14C,1.321000*%
%ADD15C,1.524000*%
%ADD16C,1.700000*%
%ADD17RoundRect,0.250000X-0.850000X-0.600000X0.850000X-0.600000X0.850000X0.600000X-0.850000X0.600000X0*%
%ADD18O,2.200000X1.700000*%
%ADD19RoundRect,0.250000X-0.600000X0.850000X-0.600000X-0.850000X0.600000X-0.850000X0.600000X0.850000X0*%
%ADD20O,1.700000X2.200000*%
G04 APERTURE END LIST*
D10*
%TO.C,G\u002A\u002A\u002A*%
G36*
X169079122Y-52843098D02*
G01*
X169092518Y-54241610D01*
X167756205Y-54241610D01*
X166419892Y-54241610D01*
X166419892Y-53990669D01*
X166419892Y-53739729D01*
X167440428Y-53726086D01*
X168460963Y-53712443D01*
X168486162Y-52578515D01*
X168511360Y-51444586D01*
X168788543Y-51444586D01*
X169065725Y-51444586D01*
X169079122Y-52843098D01*
G37*
G36*
X157636956Y-52570578D02*
G01*
X157636956Y-53276134D01*
X156855805Y-53276134D01*
X156074655Y-53276134D01*
X156074655Y-53528118D01*
X156074655Y-53780102D01*
X156855805Y-53780102D01*
X157636956Y-53780102D01*
X157636956Y-54006888D01*
X157636956Y-54233673D01*
X156629020Y-54233673D01*
X155621083Y-54233673D01*
X155621083Y-53528118D01*
X155621083Y-52822562D01*
X156402234Y-52822562D01*
X157183385Y-52822562D01*
X157183385Y-52570578D01*
X157183385Y-52318594D01*
X156402234Y-52318594D01*
X155621083Y-52318594D01*
X155621083Y-52091808D01*
X155621083Y-51865023D01*
X156629020Y-51865023D01*
X157636956Y-51865023D01*
X157636956Y-52570578D01*
G37*
G36*
X162906966Y-51428715D02*
G01*
X162983175Y-51478119D01*
X163025185Y-51581389D01*
X163044895Y-51754165D01*
X163054204Y-52012084D01*
X163068503Y-52553316D01*
X164152035Y-52553316D01*
X165235567Y-52553316D01*
X165250109Y-52052171D01*
X165256080Y-51915411D01*
X165272905Y-51712853D01*
X165295681Y-51560183D01*
X165321228Y-51482854D01*
X165326593Y-51477030D01*
X165435166Y-51434471D01*
X165634265Y-51429635D01*
X165890725Y-51444586D01*
X165904126Y-52845524D01*
X165917527Y-54246461D01*
X165601745Y-54231436D01*
X165285963Y-54216411D01*
X165271705Y-53648469D01*
X165257446Y-53080526D01*
X164162974Y-53094104D01*
X163068503Y-53107681D01*
X163054253Y-53674646D01*
X163040004Y-54241610D01*
X162713278Y-54241610D01*
X162386552Y-54241610D01*
X162399948Y-52843098D01*
X162413344Y-51444586D01*
X162610128Y-51428480D01*
X162784658Y-51417540D01*
X162906966Y-51428715D01*
G37*
G36*
X161632194Y-52856657D02*
G01*
X161632194Y-54241610D01*
X161304614Y-54241610D01*
X160977035Y-54241610D01*
X160977035Y-53813237D01*
X160977035Y-53384864D01*
X160023153Y-53384864D01*
X159069271Y-53384864D01*
X158964820Y-53517652D01*
X158915058Y-53595961D01*
X158872614Y-53739323D01*
X158860368Y-53946025D01*
X158860368Y-54241610D01*
X158526624Y-54241610D01*
X158192880Y-54241610D01*
X158214518Y-53789039D01*
X158216322Y-53752515D01*
X158231640Y-53535244D01*
X158254726Y-53390385D01*
X158291393Y-53292961D01*
X158347457Y-53217995D01*
X158356668Y-53208182D01*
X158423659Y-53127992D01*
X158423826Y-53075686D01*
X158359585Y-53009770D01*
X158315534Y-52954576D01*
X158245261Y-52793958D01*
X158194768Y-52585415D01*
X158177341Y-52421072D01*
X158835170Y-52421072D01*
X158835549Y-52456107D01*
X158859761Y-52647572D01*
X158925103Y-52765703D01*
X158941607Y-52780507D01*
X158992097Y-52809161D01*
X159070815Y-52830495D01*
X159192275Y-52846014D01*
X159370991Y-52857220D01*
X159621474Y-52865617D01*
X159958237Y-52872708D01*
X159959798Y-52872736D01*
X160258611Y-52876129D01*
X160522392Y-52875371D01*
X160734712Y-52870814D01*
X160879137Y-52862809D01*
X160939237Y-52851709D01*
X160945140Y-52840622D01*
X160961414Y-52748984D01*
X160972768Y-52591263D01*
X160977035Y-52393726D01*
X160977035Y-51973753D01*
X160025078Y-51973753D01*
X159769892Y-51974164D01*
X159497716Y-51976733D01*
X159300168Y-51982857D01*
X159162142Y-51993897D01*
X159068533Y-52011211D01*
X159004236Y-52036156D01*
X158954146Y-52070094D01*
X158883546Y-52144806D01*
X158845165Y-52251739D01*
X158835170Y-52421072D01*
X158177341Y-52421072D01*
X158171175Y-52362924D01*
X158181604Y-52160466D01*
X158210263Y-52000742D01*
X158250684Y-51843704D01*
X158307774Y-51719602D01*
X158392048Y-51624331D01*
X158514022Y-51553788D01*
X158684212Y-51503867D01*
X158913133Y-51470466D01*
X159211301Y-51449479D01*
X159589231Y-51436803D01*
X160057439Y-51428334D01*
X160380567Y-51424490D01*
X160717952Y-51422716D01*
X161014109Y-51423513D01*
X161254151Y-51426760D01*
X161423192Y-51432336D01*
X161506348Y-51440119D01*
X161632194Y-51471705D01*
X161632194Y-52393726D01*
X161632194Y-52856657D01*
G37*
%TD*%
D11*
%TO.C,J1*%
X131152501Y-61810001D03*
D12*
X131152501Y-61810001D03*
D11*
X161902501Y-61810001D03*
D12*
X161902501Y-61810001D03*
D11*
X161902501Y-108280001D03*
D12*
X161902501Y-108280001D03*
D11*
X131162501Y-108280001D03*
D12*
X131162501Y-108280001D03*
%TD*%
D13*
%TO.C,+24v1*%
X167335200Y-100888800D03*
%TD*%
D14*
%TO.C,IC1*%
X118645000Y-79040000D03*
X121185000Y-79040000D03*
X123725000Y-79040000D03*
X126265000Y-79040000D03*
X126265000Y-65960000D03*
X123725000Y-65960000D03*
X121185000Y-65960000D03*
X118645000Y-65960000D03*
%TD*%
D13*
%TO.C,+3.3v1*%
X167055800Y-63754000D03*
%TD*%
%TO.C,GND2*%
X167284400Y-108585000D03*
%TD*%
D15*
%TO.C,J9*%
X123160000Y-52660000D03*
X123160000Y-55200000D03*
X125700000Y-52660000D03*
X125700000Y-55200000D03*
X128240000Y-52660000D03*
X128240000Y-55200000D03*
X130780000Y-52660000D03*
X130780000Y-55200000D03*
X133320000Y-52660000D03*
X133320000Y-55200000D03*
%TD*%
D13*
%TO.C,GND1*%
X120446800Y-60750000D03*
%TD*%
D14*
%TO.C,IC2*%
X118670000Y-101000000D03*
X121210000Y-101000000D03*
X123750000Y-101000000D03*
X126290000Y-101000000D03*
X126290000Y-87920000D03*
X123750000Y-87920000D03*
X121210000Y-87920000D03*
X118670000Y-87920000D03*
%TD*%
D16*
%TO.C,J5*%
X166250000Y-94000000D03*
X166250000Y-104000000D03*
D17*
X159070000Y-104000000D03*
D18*
X159070000Y-101500000D03*
X159070000Y-99000000D03*
X159070000Y-96500000D03*
X159070000Y-94000000D03*
%TD*%
D16*
%TO.C,J2*%
X166250000Y-79500000D03*
X166250000Y-89500000D03*
D17*
X159070000Y-89500000D03*
D18*
X159070000Y-87000000D03*
X159070000Y-84500000D03*
X159070000Y-82000000D03*
X159070000Y-79500000D03*
%TD*%
D16*
%TO.C,J3*%
X148250000Y-108430000D03*
X140750000Y-108430000D03*
D19*
X140750000Y-101250000D03*
D20*
X143250000Y-101250000D03*
X145750000Y-101250000D03*
X148250000Y-101250000D03*
%TD*%
D16*
%TO.C,J6*%
X166290000Y-67500000D03*
X166290000Y-75000000D03*
D17*
X159110000Y-75000000D03*
D18*
X159110000Y-72500000D03*
X159110000Y-70000000D03*
X159110000Y-67500000D03*
%TD*%
M02*
