%TF.GenerationSoftware,KiCad,Pcbnew,9.0.4*%
%TF.CreationDate,2026-02-14T16:11:11-06:00*%
%TF.ProjectId,Pitot,5069746f-742e-46b6-9963-61645f706362,A*%
%TF.SameCoordinates,Original*%
%TF.FileFunction,Soldermask,Top*%
%TF.FilePolarity,Negative*%
%FSLAX46Y46*%
G04 Gerber Fmt 4.6, Leading zero omitted, Abs format (unit mm)*
G04 Created by KiCad (PCBNEW 9.0.4) date 2026-02-14 16:11:11*
%MOMM*%
%LPD*%
G01*
G04 APERTURE LIST*
G04 Aperture macros list*
%AMRoundRect*
0 Rectangle with rounded corners*
0 $1 Rounding radius*
0 $2 $3 $4 $5 $6 $7 $8 $9 X,Y pos of 4 corners*
0 Add a 4 corners polygon primitive as box body*
4,1,4,$2,$3,$4,$5,$6,$7,$8,$9,$2,$3,0*
0 Add four circle primitives for the rounded corners*
1,1,$1+$1,$2,$3*
1,1,$1+$1,$4,$5*
1,1,$1+$1,$6,$7*
1,1,$1+$1,$8,$9*
0 Add four rect primitives between the rounded corners*
20,1,$1+$1,$2,$3,$4,$5,0*
20,1,$1+$1,$4,$5,$6,$7,0*
20,1,$1+$1,$6,$7,$8,$9,0*
20,1,$1+$1,$8,$9,$2,$3,0*%
G04 Aperture macros list end*
%ADD10C,0.000000*%
%ADD11RoundRect,0.237500X0.237500X-0.250000X0.237500X0.250000X-0.237500X0.250000X-0.237500X-0.250000X0*%
%ADD12RoundRect,0.237500X0.250000X0.237500X-0.250000X0.237500X-0.250000X-0.237500X0.250000X-0.237500X0*%
%ADD13RoundRect,0.102000X-0.275000X-0.900000X0.275000X-0.900000X0.275000X0.900000X-0.275000X0.900000X0*%
%ADD14C,3.600000*%
%ADD15C,6.400000*%
%ADD16RoundRect,0.237500X-0.250000X-0.237500X0.250000X-0.237500X0.250000X0.237500X-0.250000X0.237500X0*%
%ADD17RoundRect,0.237500X0.300000X0.237500X-0.300000X0.237500X-0.300000X-0.237500X0.300000X-0.237500X0*%
%ADD18RoundRect,0.237500X-0.237500X0.287500X-0.237500X-0.287500X0.237500X-0.287500X0.237500X0.287500X0*%
%ADD19RoundRect,0.237500X0.287500X0.237500X-0.287500X0.237500X-0.287500X-0.237500X0.287500X-0.237500X0*%
%ADD20R,2.000000X2.000000*%
%ADD21C,1.321000*%
%ADD22C,1.524000*%
%ADD23RoundRect,0.237500X-0.237500X0.250000X-0.237500X-0.250000X0.237500X-0.250000X0.237500X0.250000X0*%
%ADD24RoundRect,0.250000X-0.850000X-0.600000X0.850000X-0.600000X0.850000X0.600000X-0.850000X0.600000X0*%
%ADD25O,2.200000X1.700000*%
%ADD26RoundRect,0.250000X-0.600000X0.850000X-0.600000X-0.850000X0.600000X-0.850000X0.600000X0.850000X0*%
%ADD27O,1.700000X2.200000*%
G04 APERTURE END LIST*
D10*
%TO.C,G\u002A\u002A\u002A*%
G36*
X156583039Y-52552705D02*
G01*
X156608238Y-53686633D01*
X157628773Y-53700276D01*
X158649309Y-53713919D01*
X158649309Y-53964859D01*
X158649309Y-54215800D01*
X157312996Y-54215800D01*
X155976683Y-54215800D01*
X155990079Y-52817288D01*
X156003476Y-51418776D01*
X156280658Y-51418776D01*
X156557841Y-51418776D01*
X156583039Y-52552705D01*
G37*
G36*
X169448118Y-52065998D02*
G01*
X169448118Y-52292784D01*
X168666967Y-52292784D01*
X167885816Y-52292784D01*
X167885816Y-52544768D01*
X167885816Y-52796752D01*
X168666967Y-52796752D01*
X169448118Y-52796752D01*
X169448118Y-53502308D01*
X169448118Y-54207863D01*
X168440181Y-54207863D01*
X167432245Y-54207863D01*
X167432245Y-53981078D01*
X167432245Y-53754292D01*
X168213396Y-53754292D01*
X168994546Y-53754292D01*
X168994546Y-53502308D01*
X168994546Y-53250324D01*
X168213396Y-53250324D01*
X167432245Y-53250324D01*
X167432245Y-52544768D01*
X167432245Y-51839213D01*
X168440181Y-51839213D01*
X169448118Y-51839213D01*
X169448118Y-52065998D01*
G37*
G36*
X162459073Y-51402670D02*
G01*
X162655857Y-51418776D01*
X162669253Y-52817288D01*
X162682649Y-54215800D01*
X162355923Y-54215800D01*
X162029197Y-54215800D01*
X162014948Y-53648836D01*
X162000698Y-53081871D01*
X160906227Y-53068294D01*
X159811755Y-53054716D01*
X159797496Y-53622659D01*
X159783238Y-54190601D01*
X159467456Y-54205626D01*
X159151674Y-54220651D01*
X159165075Y-52819714D01*
X159178476Y-51418776D01*
X159434936Y-51403825D01*
X159634035Y-51408661D01*
X159742608Y-51451220D01*
X159747973Y-51457044D01*
X159773520Y-51534373D01*
X159796296Y-51687043D01*
X159813121Y-51889601D01*
X159819092Y-52026361D01*
X159833634Y-52527506D01*
X160917166Y-52527506D01*
X162000698Y-52527506D01*
X162014997Y-51986274D01*
X162024306Y-51728355D01*
X162044016Y-51555579D01*
X162086026Y-51452309D01*
X162162235Y-51402905D01*
X162284543Y-51391730D01*
X162459073Y-51402670D01*
G37*
G36*
X164688634Y-51398680D02*
G01*
X165011762Y-51402524D01*
X165479970Y-51410993D01*
X165857900Y-51423669D01*
X166156068Y-51444656D01*
X166384989Y-51478057D01*
X166555179Y-51527978D01*
X166677153Y-51598521D01*
X166761427Y-51693792D01*
X166818517Y-51817894D01*
X166858938Y-51974932D01*
X166887597Y-52134656D01*
X166898026Y-52337114D01*
X166874433Y-52559605D01*
X166823940Y-52768148D01*
X166753667Y-52928766D01*
X166709616Y-52983960D01*
X166645375Y-53049876D01*
X166645542Y-53102182D01*
X166712533Y-53182372D01*
X166721744Y-53192185D01*
X166777808Y-53267151D01*
X166814475Y-53364575D01*
X166837561Y-53509434D01*
X166852879Y-53726705D01*
X166854683Y-53763229D01*
X166876321Y-54215800D01*
X166542577Y-54215800D01*
X166208833Y-54215800D01*
X166208833Y-53920215D01*
X166196587Y-53713513D01*
X166154143Y-53570151D01*
X166104381Y-53491842D01*
X165999930Y-53359054D01*
X165046048Y-53359054D01*
X164092166Y-53359054D01*
X164092166Y-53787427D01*
X164092166Y-54215800D01*
X163764587Y-54215800D01*
X163437007Y-54215800D01*
X163437007Y-52830847D01*
X163437007Y-52367916D01*
X163437007Y-51947943D01*
X164092166Y-51947943D01*
X164092166Y-52367916D01*
X164096433Y-52565453D01*
X164107787Y-52723174D01*
X164124061Y-52814812D01*
X164129964Y-52825899D01*
X164190064Y-52836999D01*
X164334489Y-52845004D01*
X164546809Y-52849561D01*
X164810590Y-52850319D01*
X165109403Y-52846926D01*
X165110964Y-52846898D01*
X165447727Y-52839807D01*
X165698210Y-52831410D01*
X165876926Y-52820204D01*
X165998386Y-52804685D01*
X166077104Y-52783351D01*
X166127594Y-52754697D01*
X166144098Y-52739893D01*
X166209440Y-52621762D01*
X166233652Y-52430297D01*
X166234031Y-52395262D01*
X166224036Y-52225929D01*
X166185655Y-52118996D01*
X166115055Y-52044284D01*
X166064965Y-52010346D01*
X166000668Y-51985401D01*
X165907059Y-51968087D01*
X165769033Y-51957047D01*
X165571485Y-51950923D01*
X165299309Y-51948354D01*
X165044123Y-51947943D01*
X164092166Y-51947943D01*
X163437007Y-51947943D01*
X163437007Y-51445895D01*
X163562853Y-51414309D01*
X163646009Y-51406526D01*
X163815050Y-51400950D01*
X164055092Y-51397703D01*
X164351249Y-51396906D01*
X164688634Y-51398680D01*
G37*
%TD*%
D11*
%TO.C,R13*%
X148666200Y-57044600D03*
X148666200Y-55219600D03*
%TD*%
D12*
%TO.C,R18*%
X127162500Y-105750000D03*
X125337500Y-105750000D03*
%TD*%
D13*
%TO.C,J1*%
X151322501Y-59660001D03*
X151322501Y-63960001D03*
X150522501Y-59660001D03*
X150522501Y-63960001D03*
X149722501Y-59660001D03*
X149722501Y-63960001D03*
X148922501Y-59660001D03*
X148922501Y-63960001D03*
X148122501Y-59660001D03*
X148122501Y-63960001D03*
X147322504Y-59660001D03*
X147322504Y-63960001D03*
X146522501Y-59660001D03*
X146522501Y-63960001D03*
X145722501Y-59660001D03*
X145722501Y-63960001D03*
X144922501Y-59660001D03*
X144922501Y-63960001D03*
X144122501Y-59660001D03*
X144122501Y-63960001D03*
X143322501Y-59660001D03*
X143322501Y-63960001D03*
X142522501Y-59660001D03*
X142522501Y-63960001D03*
D14*
X131152501Y-61810001D03*
D15*
X131152501Y-61810001D03*
D14*
X161902501Y-61810001D03*
D15*
X161902501Y-61810001D03*
D14*
X161902501Y-108280001D03*
D15*
X161902501Y-108280001D03*
D14*
X131162501Y-108280001D03*
D15*
X131162501Y-108280001D03*
%TD*%
D16*
%TO.C,R7*%
X163103750Y-70434200D03*
X164928750Y-70434200D03*
%TD*%
D12*
%TO.C,R4*%
X163712500Y-79500000D03*
X161887500Y-79500000D03*
%TD*%
%TO.C,R10*%
X146750000Y-96000000D03*
X144925000Y-96000000D03*
%TD*%
D17*
%TO.C,C2*%
X121112500Y-103750000D03*
X119387500Y-103750000D03*
%TD*%
D16*
%TO.C,R11*%
X124337500Y-63500000D03*
X126162500Y-63500000D03*
%TD*%
D17*
%TO.C,C1*%
X121100000Y-82200000D03*
X119375000Y-82200000D03*
%TD*%
D18*
%TO.C,D8*%
X148666200Y-51869600D03*
X148666200Y-53619600D03*
%TD*%
%TO.C,D3*%
X154508200Y-51825150D03*
X154508200Y-53575150D03*
%TD*%
D12*
%TO.C,R9*%
X147662500Y-97500000D03*
X145837500Y-97500000D03*
%TD*%
D16*
%TO.C,R3*%
X163097200Y-72872600D03*
X164922200Y-72872600D03*
%TD*%
%TO.C,R17*%
X121337500Y-105750000D03*
X123162500Y-105750000D03*
%TD*%
D19*
%TO.C,F1*%
X154926000Y-66675000D03*
X153176000Y-66675000D03*
%TD*%
%TO.C,D1*%
X168284700Y-72872600D03*
X166534700Y-72872600D03*
%TD*%
D20*
%TO.C,+24v1*%
X167335200Y-100888800D03*
%TD*%
D21*
%TO.C,IC1*%
X118645000Y-79040000D03*
X121185000Y-79040000D03*
X123725000Y-79040000D03*
X126265000Y-79040000D03*
X126265000Y-65960000D03*
X123725000Y-65960000D03*
X121185000Y-65960000D03*
X118645000Y-65960000D03*
%TD*%
D11*
%TO.C,R2*%
X152171400Y-56999550D03*
X152171400Y-55174550D03*
%TD*%
%TO.C,R14*%
X142621000Y-56970300D03*
X142621000Y-55145300D03*
%TD*%
D18*
%TO.C,D4*%
X140208000Y-51939350D03*
X140208000Y-53689350D03*
%TD*%
D16*
%TO.C,R8*%
X153138500Y-72491600D03*
X154963500Y-72491600D03*
%TD*%
D20*
%TO.C,+3.3v1*%
X167055800Y-63754000D03*
%TD*%
%TO.C,GND2*%
X167284400Y-108585000D03*
%TD*%
D18*
%TO.C,D10*%
X152171400Y-51812050D03*
X152171400Y-53562050D03*
%TD*%
D22*
%TO.C,J9*%
X123160000Y-52660000D03*
X123160000Y-55200000D03*
X125700000Y-52660000D03*
X125700000Y-55200000D03*
X128240000Y-52660000D03*
X128240000Y-55200000D03*
X130780000Y-52660000D03*
X130780000Y-55200000D03*
X133320000Y-52660000D03*
X133320000Y-55200000D03*
%TD*%
D20*
%TO.C,GND1*%
X120446800Y-60750000D03*
%TD*%
D11*
%TO.C,R15*%
X146253200Y-57057200D03*
X146253200Y-55232200D03*
%TD*%
D23*
%TO.C,R5*%
X156750000Y-92087500D03*
X156750000Y-93912500D03*
%TD*%
D11*
%TO.C,R12*%
X140208000Y-57019350D03*
X140208000Y-55194350D03*
%TD*%
%TO.C,R16*%
X129750000Y-89662500D03*
X129750000Y-87837500D03*
%TD*%
D18*
%TO.C,D9*%
X146253200Y-51882200D03*
X146253200Y-53632200D03*
%TD*%
D19*
%TO.C,D2*%
X168291250Y-70434200D03*
X166541250Y-70434200D03*
%TD*%
D23*
%TO.C,R6*%
X161544000Y-68886700D03*
X161544000Y-70711700D03*
%TD*%
D21*
%TO.C,IC2*%
X118670000Y-101000000D03*
X121210000Y-101000000D03*
X123750000Y-101000000D03*
X126290000Y-101000000D03*
X126290000Y-87920000D03*
X123750000Y-87920000D03*
X121210000Y-87920000D03*
X118670000Y-87920000D03*
%TD*%
D11*
%TO.C,R1*%
X154508200Y-57012650D03*
X154508200Y-55187650D03*
%TD*%
D18*
%TO.C,D5*%
X142611000Y-51857800D03*
X142611000Y-53607800D03*
%TD*%
D24*
%TO.C,J5*%
X159070000Y-104000000D03*
D25*
X159070000Y-101500000D03*
X159070000Y-99000000D03*
X159070000Y-96500000D03*
X159070000Y-94000000D03*
%TD*%
D24*
%TO.C,J2*%
X159070000Y-89500000D03*
D25*
X159070000Y-87000000D03*
X159070000Y-84500000D03*
X159070000Y-82000000D03*
X159070000Y-79500000D03*
%TD*%
D26*
%TO.C,J3*%
X140750000Y-101250000D03*
D27*
X143250000Y-101250000D03*
X145750000Y-101250000D03*
X148250000Y-101250000D03*
%TD*%
D24*
%TO.C,J6*%
X159110000Y-75000000D03*
D25*
X159110000Y-72500000D03*
X159110000Y-70000000D03*
X159110000Y-67500000D03*
%TD*%
M02*
