%TF.GenerationSoftware,KiCad,Pcbnew,9.0.4*%
%TF.CreationDate,2026-02-14T16:11:10-06:00*%
%TF.ProjectId,Pitot,5069746f-742e-46b6-9963-61645f706362,A*%
%TF.SameCoordinates,Original*%
%TF.FileFunction,Copper,L1,Top*%
%TF.FilePolarity,Positive*%
%FSLAX46Y46*%
G04 Gerber Fmt 4.6, Leading zero omitted, Abs format (unit mm)*
G04 Created by KiCad (PCBNEW 9.0.4) date 2026-02-14 16:11:10*
%MOMM*%
%LPD*%
G01*
G04 APERTURE LIST*
G04 Aperture macros list*
%AMRoundRect*
0 Rectangle with rounded corners*
0 $1 Rounding radius*
0 $2 $3 $4 $5 $6 $7 $8 $9 X,Y pos of 4 corners*
0 Add a 4 corners polygon primitive as box body*
4,1,4,$2,$3,$4,$5,$6,$7,$8,$9,$2,$3,0*
0 Add four circle primitives for the rounded corners*
1,1,$1+$1,$2,$3*
1,1,$1+$1,$4,$5*
1,1,$1+$1,$6,$7*
1,1,$1+$1,$8,$9*
0 Add four rect primitives between the rounded corners*
20,1,$1+$1,$2,$3,$4,$5,0*
20,1,$1+$1,$4,$5,$6,$7,0*
20,1,$1+$1,$6,$7,$8,$9,0*
20,1,$1+$1,$8,$9,$2,$3,0*%
G04 Aperture macros list end*
%TA.AperFunction,SMDPad,CuDef*%
%ADD10RoundRect,0.237500X0.237500X-0.250000X0.237500X0.250000X-0.237500X0.250000X-0.237500X-0.250000X0*%
%TD*%
%TA.AperFunction,SMDPad,CuDef*%
%ADD11RoundRect,0.237500X0.250000X0.237500X-0.250000X0.237500X-0.250000X-0.237500X0.250000X-0.237500X0*%
%TD*%
%TA.AperFunction,SMDPad,CuDef*%
%ADD12R,0.550000X1.800000*%
%TD*%
%TA.AperFunction,ComponentPad*%
%ADD13C,3.600000*%
%TD*%
%TA.AperFunction,ConnectorPad*%
%ADD14C,6.400000*%
%TD*%
%TA.AperFunction,SMDPad,CuDef*%
%ADD15RoundRect,0.237500X-0.250000X-0.237500X0.250000X-0.237500X0.250000X0.237500X-0.250000X0.237500X0*%
%TD*%
%TA.AperFunction,SMDPad,CuDef*%
%ADD16RoundRect,0.237500X0.300000X0.237500X-0.300000X0.237500X-0.300000X-0.237500X0.300000X-0.237500X0*%
%TD*%
%TA.AperFunction,SMDPad,CuDef*%
%ADD17RoundRect,0.237500X-0.237500X0.287500X-0.237500X-0.287500X0.237500X-0.287500X0.237500X0.287500X0*%
%TD*%
%TA.AperFunction,SMDPad,CuDef*%
%ADD18RoundRect,0.237500X0.287500X0.237500X-0.287500X0.237500X-0.287500X-0.237500X0.287500X-0.237500X0*%
%TD*%
%TA.AperFunction,ComponentPad*%
%ADD19R,2.000000X2.000000*%
%TD*%
%TA.AperFunction,ComponentPad*%
%ADD20C,1.321000*%
%TD*%
%TA.AperFunction,ComponentPad*%
%ADD21C,1.524000*%
%TD*%
%TA.AperFunction,SMDPad,CuDef*%
%ADD22RoundRect,0.237500X-0.237500X0.250000X-0.237500X-0.250000X0.237500X-0.250000X0.237500X0.250000X0*%
%TD*%
%TA.AperFunction,ComponentPad*%
%ADD23RoundRect,0.250000X-0.850000X-0.600000X0.850000X-0.600000X0.850000X0.600000X-0.850000X0.600000X0*%
%TD*%
%TA.AperFunction,ComponentPad*%
%ADD24O,2.200000X1.700000*%
%TD*%
%TA.AperFunction,ComponentPad*%
%ADD25RoundRect,0.250000X-0.600000X0.850000X-0.600000X-0.850000X0.600000X-0.850000X0.600000X0.850000X0*%
%TD*%
%TA.AperFunction,ComponentPad*%
%ADD26O,1.700000X2.200000*%
%TD*%
%TA.AperFunction,ViaPad*%
%ADD27C,0.600000*%
%TD*%
%TA.AperFunction,Conductor*%
%ADD28C,0.500000*%
%TD*%
%TA.AperFunction,Conductor*%
%ADD29C,0.200000*%
%TD*%
G04 APERTURE END LIST*
D10*
%TO.P,R13,1*%
%TO.N,/Debug2*%
X148666200Y-57044600D03*
%TO.P,R13,2*%
%TO.N,Net-(D8-A)*%
X148666200Y-55219600D03*
%TD*%
D11*
%TO.P,R18,1*%
%TO.N,+3.3V*%
X127162500Y-105750000D03*
%TO.P,R18,2*%
%TO.N,/SCLK*%
X125337500Y-105750000D03*
%TD*%
D12*
%TO.P,J1,1,GND*%
%TO.N,GND*%
X151322501Y-59660001D03*
%TO.P,J1,2,+3.3v*%
%TO.N,+3.3V*%
X151322501Y-63960001D03*
%TO.P,J1,3,GND*%
%TO.N,GND*%
X150522501Y-59660001D03*
%TO.P,J1,4,I2C1_SDA*%
%TO.N,/SDA1*%
X150522501Y-63960001D03*
%TO.P,J1,5,GND*%
%TO.N,GND*%
X149722501Y-59660001D03*
%TO.P,J1,6,I2C1_SCL*%
%TO.N,/SCL1*%
X149722501Y-63960001D03*
%TO.P,J1,7,OPAMP1_VINP*%
%TO.N,/diff_stat*%
X148922501Y-59660001D03*
%TO.P,J1,8,VDDA*%
%TO.N,unconnected-(J1-VDDA-Pad8)*%
X148922501Y-63960001D03*
%TO.P,J1,9,ADC1_IN7*%
%TO.N,/temp_stat*%
X148122501Y-59660001D03*
%TO.P,J1,10,GNDA*%
%TO.N,GND*%
X148122501Y-63960001D03*
%TO.P,J1,11,ADC1_IN9*%
%TO.N,/Debug2*%
X147322504Y-59660001D03*
%TO.P,J1,12,SPI2_NSS*%
%TO.N,unconnected-(J1-SPI2_NSS-Pad12)*%
X147322504Y-63960001D03*
%TO.P,J1,13,ADC1_IN10*%
%TO.N,/Debug1*%
X146522501Y-59660001D03*
%TO.P,J1,14,SPI2_MISO*%
%TO.N,/SDA2*%
X146522501Y-63960001D03*
%TO.P,J1,15,ADC1_IN11*%
%TO.N,/P1_LED*%
X145722501Y-59660001D03*
%TO.P,J1,16,SPI2_MOSI*%
%TO.N,/P2_LED*%
X145722501Y-63960001D03*
%TO.P,J1,17,SPI1_MOSI*%
%TO.N,/Diff2*%
X144922501Y-59660001D03*
%TO.P,J1,18,SPI2_SCK*%
%TO.N,/SCL2*%
X144922501Y-63960001D03*
%TO.P,J1,19,SPI1_NSS*%
%TO.N,/Diff1*%
X144122501Y-59660001D03*
%TO.P,J1,20,CAN_L*%
%TO.N,/CAN_L*%
X144122501Y-63960001D03*
%TO.P,J1,21,SPI1_MISO*%
%TO.N,/MISO*%
X143322501Y-59660001D03*
%TO.P,J1,22,CAN_H*%
%TO.N,/CAN_H*%
X143322501Y-63960001D03*
%TO.P,J1,23,SPI1_SCK*%
%TO.N,/SCLK*%
X142522501Y-59660001D03*
%TO.P,J1,24,+24V_In*%
%TO.N,+24V*%
X142522501Y-63960001D03*
D13*
%TO.P,J1,25,MNT*%
%TO.N,unconnected-(J1-MNT-Pad25)*%
X131152501Y-61810001D03*
D14*
%TO.N,unconnected-(J1-MNT-Pad25)_2*%
X131152501Y-61810001D03*
D13*
%TO.P,J1,26,MNT*%
%TO.N,unconnected-(J1-MNT-Pad26)_1*%
X161902501Y-61810001D03*
D14*
%TO.N,unconnected-(J1-MNT-Pad26)_2*%
X161902501Y-61810001D03*
D13*
%TO.P,J1,27,MNT*%
%TO.N,unconnected-(J1-MNT-Pad27)_1*%
X161902501Y-108280001D03*
D14*
%TO.N,unconnected-(J1-MNT-Pad27)_2*%
X161902501Y-108280001D03*
D13*
%TO.P,J1,28,MNT*%
%TO.N,unconnected-(J1-MNT-Pad28)*%
X131162501Y-108280001D03*
D14*
%TO.N,unconnected-(J1-MNT-Pad28)_2*%
X131162501Y-108280001D03*
%TD*%
D15*
%TO.P,R7,1*%
%TO.N,+3.3V*%
X163103750Y-70434200D03*
%TO.P,R7,2*%
%TO.N,Net-(D2-A)*%
X164928750Y-70434200D03*
%TD*%
D11*
%TO.P,R4,1*%
%TO.N,GND*%
X163712500Y-79500000D03*
%TO.P,R4,2*%
%TO.N,Net-(J2-Pin_5)*%
X161887500Y-79500000D03*
%TD*%
%TO.P,R10,1*%
%TO.N,+3.3V*%
X146750000Y-96000000D03*
%TO.P,R10,2*%
%TO.N,/SDA2*%
X144925000Y-96000000D03*
%TD*%
D16*
%TO.P,C2,1*%
%TO.N,+3.3V*%
X121112500Y-103750000D03*
%TO.P,C2,2*%
%TO.N,GND*%
X119387500Y-103750000D03*
%TD*%
D15*
%TO.P,R11,1*%
%TO.N,+3.3V*%
X124337500Y-63500000D03*
%TO.P,R11,2*%
%TO.N,/Diff1*%
X126162500Y-63500000D03*
%TD*%
D16*
%TO.P,C1,1*%
%TO.N,+3.3V*%
X121100000Y-82200000D03*
%TO.P,C1,2*%
%TO.N,GND*%
X119375000Y-82200000D03*
%TD*%
D17*
%TO.P,D8,1,K*%
%TO.N,GND*%
X148666200Y-51869600D03*
%TO.P,D8,2,A*%
%TO.N,Net-(D8-A)*%
X148666200Y-53619600D03*
%TD*%
%TO.P,D3,1,K*%
%TO.N,GND*%
X154508200Y-51825150D03*
%TO.P,D3,2,A*%
%TO.N,Net-(D3-A)*%
X154508200Y-53575150D03*
%TD*%
D11*
%TO.P,R9,1*%
%TO.N,+3.3V*%
X147662500Y-97500000D03*
%TO.P,R9,2*%
%TO.N,/SCL2*%
X145837500Y-97500000D03*
%TD*%
D15*
%TO.P,R3,1*%
%TO.N,+24V*%
X163097200Y-72872600D03*
%TO.P,R3,2*%
%TO.N,Net-(D1-A)*%
X164922200Y-72872600D03*
%TD*%
%TO.P,R17,1*%
%TO.N,+3.3V*%
X121337500Y-105750000D03*
%TO.P,R17,2*%
%TO.N,/MISO*%
X123162500Y-105750000D03*
%TD*%
D18*
%TO.P,F1,1*%
%TO.N,/fused_3.3v*%
X154926000Y-66675000D03*
%TO.P,F1,2*%
%TO.N,+3.3V*%
X153176000Y-66675000D03*
%TD*%
%TO.P,D1,1,K*%
%TO.N,GND*%
X168284700Y-72872600D03*
%TO.P,D1,2,A*%
%TO.N,Net-(D1-A)*%
X166534700Y-72872600D03*
%TD*%
D19*
%TO.P,+24v1,1,1*%
%TO.N,+24V*%
X167335200Y-100888800D03*
%TD*%
D20*
%TO.P,IC1,1,GND*%
%TO.N,GND*%
X118645000Y-79040000D03*
%TO.P,IC1,2,VSUPPLY*%
%TO.N,+3.3V*%
X121185000Y-79040000D03*
%TO.P,IC1,3,MISO*%
%TO.N,/MISO*%
X123725000Y-79040000D03*
%TO.P,IC1,4,SCLK*%
%TO.N,/SCLK*%
X126265000Y-79040000D03*
%TO.P,IC1,5,SS*%
%TO.N,/Diff1*%
X126265000Y-65960000D03*
%TO.P,IC1,6,NC*%
%TO.N,unconnected-(IC1-NC-Pad6)*%
X123725000Y-65960000D03*
%TO.P,IC1,7,NC*%
%TO.N,unconnected-(IC1-NC-Pad7)*%
X121185000Y-65960000D03*
%TO.P,IC1,8,NC*%
%TO.N,unconnected-(IC1-NC-Pad8)*%
X118645000Y-65960000D03*
%TD*%
D10*
%TO.P,R2,1*%
%TO.N,/temp_stat*%
X152171400Y-56999550D03*
%TO.P,R2,2*%
%TO.N,Net-(D10-A)*%
X152171400Y-55174550D03*
%TD*%
%TO.P,R14,1*%
%TO.N,/P2_LED*%
X142621000Y-56970300D03*
%TO.P,R14,2*%
%TO.N,Net-(D5-A)*%
X142621000Y-55145300D03*
%TD*%
D17*
%TO.P,D4,1,K*%
%TO.N,GND*%
X140208000Y-51939350D03*
%TO.P,D4,2,A*%
%TO.N,Net-(D4-A)*%
X140208000Y-53689350D03*
%TD*%
D15*
%TO.P,R8,1*%
%TO.N,+3.3V*%
X153138500Y-72491600D03*
%TO.P,R8,2*%
%TO.N,/SDA1*%
X154963500Y-72491600D03*
%TD*%
D19*
%TO.P,+3.3v1,1,1*%
%TO.N,+3.3V*%
X167055800Y-63754000D03*
%TD*%
%TO.P,GND2,1,1*%
%TO.N,GND*%
X167284400Y-108585000D03*
%TD*%
D17*
%TO.P,D10,1,K*%
%TO.N,GND*%
X152171400Y-51812050D03*
%TO.P,D10,2,A*%
%TO.N,Net-(D10-A)*%
X152171400Y-53562050D03*
%TD*%
D21*
%TO.P,J9,1,GND*%
%TO.N,GND*%
X123160000Y-52660000D03*
%TO.P,J9,2,NC*%
%TO.N,unconnected-(J9-NC-Pad2)*%
X123160000Y-55200000D03*
%TO.P,J9,3,CH7*%
%TO.N,/Diff2*%
X125700000Y-52660000D03*
%TO.P,J9,4,CH6*%
%TO.N,/Diff1*%
X125700000Y-55200000D03*
%TO.P,J9,5,CH5*%
%TO.N,/SCLK*%
X128240000Y-52660000D03*
%TO.P,J9,6,CH4*%
%TO.N,/MISO*%
X128240000Y-55200000D03*
%TO.P,J9,7,CH3*%
%TO.N,/SDA2*%
X130780000Y-52660000D03*
%TO.P,J9,8,CH2*%
%TO.N,/SCL2*%
X130780000Y-55200000D03*
%TO.P,J9,9,CH1*%
%TO.N,/SDA1*%
X133320000Y-52660000D03*
%TO.P,J9,10,CH0*%
%TO.N,/SCL1*%
X133320000Y-55200000D03*
%TD*%
D19*
%TO.P,GND1,1,1*%
%TO.N,GND*%
X120446800Y-60750000D03*
%TD*%
D10*
%TO.P,R15,1*%
%TO.N,/Debug1*%
X146253200Y-57057200D03*
%TO.P,R15,2*%
%TO.N,Net-(D9-A)*%
X146253200Y-55232200D03*
%TD*%
D22*
%TO.P,R5,1*%
%TO.N,GND*%
X156750000Y-92087500D03*
%TO.P,R5,2*%
%TO.N,Net-(J5-Pin_5)*%
X156750000Y-93912500D03*
%TD*%
D10*
%TO.P,R12,1*%
%TO.N,/P1_LED*%
X140208000Y-57019350D03*
%TO.P,R12,2*%
%TO.N,Net-(D4-A)*%
X140208000Y-55194350D03*
%TD*%
%TO.P,R16,1*%
%TO.N,+3.3V*%
X129750000Y-89662500D03*
%TO.P,R16,2*%
%TO.N,/Diff2*%
X129750000Y-87837500D03*
%TD*%
D17*
%TO.P,D9,1,K*%
%TO.N,GND*%
X146253200Y-51882200D03*
%TO.P,D9,2,A*%
%TO.N,Net-(D9-A)*%
X146253200Y-53632200D03*
%TD*%
D18*
%TO.P,D2,1,K*%
%TO.N,GND*%
X168291250Y-70434200D03*
%TO.P,D2,2,A*%
%TO.N,Net-(D2-A)*%
X166541250Y-70434200D03*
%TD*%
D22*
%TO.P,R6,1*%
%TO.N,+3.3V*%
X161544000Y-68886700D03*
%TO.P,R6,2*%
%TO.N,/SCL1*%
X161544000Y-70711700D03*
%TD*%
D20*
%TO.P,IC2,1,GND*%
%TO.N,GND*%
X118670000Y-101000000D03*
%TO.P,IC2,2,VSUPPLY*%
%TO.N,+3.3V*%
X121210000Y-101000000D03*
%TO.P,IC2,3,MISO*%
%TO.N,/MISO*%
X123750000Y-101000000D03*
%TO.P,IC2,4,SCLK*%
%TO.N,/SCLK*%
X126290000Y-101000000D03*
%TO.P,IC2,5,SS*%
%TO.N,/Diff2*%
X126290000Y-87920000D03*
%TO.P,IC2,6,NC*%
%TO.N,unconnected-(IC2-NC-Pad6)*%
X123750000Y-87920000D03*
%TO.P,IC2,7,NC*%
%TO.N,unconnected-(IC2-NC-Pad7)*%
X121210000Y-87920000D03*
%TO.P,IC2,8,NC*%
%TO.N,unconnected-(IC2-NC-Pad8)*%
X118670000Y-87920000D03*
%TD*%
D10*
%TO.P,R1,1*%
%TO.N,/diff_stat*%
X154508200Y-57012650D03*
%TO.P,R1,2*%
%TO.N,Net-(D3-A)*%
X154508200Y-55187650D03*
%TD*%
D17*
%TO.P,D5,1,K*%
%TO.N,GND*%
X142611000Y-51857800D03*
%TO.P,D5,2,A*%
%TO.N,Net-(D5-A)*%
X142611000Y-53607800D03*
%TD*%
D23*
%TO.P,J5,1,Pin_1*%
%TO.N,+24V*%
X159070000Y-104000000D03*
D24*
%TO.P,J5,2,Pin_2*%
%TO.N,/CAN_H*%
X159070000Y-101500000D03*
%TO.P,J5,3,Pin_3*%
%TO.N,/CAN_L*%
X159070000Y-99000000D03*
%TO.P,J5,4,Pin_4*%
%TO.N,GND*%
X159070000Y-96500000D03*
%TO.P,J5,5,Pin_5*%
%TO.N,Net-(J5-Pin_5)*%
X159070000Y-94000000D03*
%TD*%
D23*
%TO.P,J2,1,Pin_1*%
%TO.N,+24V*%
X159070000Y-89500000D03*
D24*
%TO.P,J2,2,Pin_2*%
%TO.N,/CAN_H*%
X159070000Y-87000000D03*
%TO.P,J2,3,Pin_3*%
%TO.N,/CAN_L*%
X159070000Y-84500000D03*
%TO.P,J2,4,Pin_4*%
%TO.N,GND*%
X159070000Y-82000000D03*
%TO.P,J2,5,Pin_5*%
%TO.N,Net-(J2-Pin_5)*%
X159070000Y-79500000D03*
%TD*%
D25*
%TO.P,J3,1,Pin_1*%
%TO.N,GND*%
X140750000Y-101250000D03*
D26*
%TO.P,J3,2,Pin_2*%
%TO.N,/SDA2*%
X143250000Y-101250000D03*
%TO.P,J3,3,Pin_3*%
%TO.N,/SCL2*%
X145750000Y-101250000D03*
%TO.P,J3,4,Pin_4*%
%TO.N,/fused_3.3v*%
X148250000Y-101250000D03*
%TD*%
D23*
%TO.P,J6,1,Pin_1*%
%TO.N,GND*%
X159110000Y-75000000D03*
D24*
%TO.P,J6,2,Pin_2*%
%TO.N,/SDA1*%
X159110000Y-72500000D03*
%TO.P,J6,3,Pin_3*%
%TO.N,/SCL1*%
X159110000Y-70000000D03*
%TO.P,J6,4,Pin_4*%
%TO.N,/fused_3.3v*%
X159110000Y-67500000D03*
%TD*%
D27*
%TO.N,GND*%
X156500000Y-58000000D03*
X158750000Y-58000000D03*
%TO.N,+3.3V*%
X153138500Y-77190600D03*
X144018000Y-98983800D03*
X147040600Y-98958400D03*
X153136600Y-85445600D03*
X153136600Y-68300600D03*
X124000000Y-82300000D03*
X128000000Y-91400000D03*
X153136600Y-71526400D03*
%TO.N,GND*%
X134014857Y-85320000D03*
X166014857Y-59720000D03*
X166000000Y-58000000D03*
X130814857Y-66120000D03*
X137214857Y-88520000D03*
X127614857Y-69320000D03*
X130814857Y-82120000D03*
X121000000Y-95500000D03*
X121214857Y-91720000D03*
X150014857Y-72520000D03*
X118750000Y-74750000D03*
X150014857Y-104520000D03*
X134014857Y-104520000D03*
X137214857Y-72520000D03*
X150014857Y-56520000D03*
X146814857Y-88520000D03*
X121214857Y-53320000D03*
X166014857Y-85320000D03*
X119250000Y-95427390D03*
X134014857Y-75720000D03*
X162814857Y-75720000D03*
X134014857Y-78920000D03*
X153214857Y-107720000D03*
X150014857Y-107720000D03*
X137214857Y-82120000D03*
X137214857Y-94920000D03*
X130814857Y-75720000D03*
X130814857Y-98120000D03*
X167900000Y-57900000D03*
X130814857Y-78920000D03*
X146814857Y-78920000D03*
X146814857Y-82120000D03*
X137214857Y-78920000D03*
X134014857Y-88520000D03*
X143614857Y-107720000D03*
X162814857Y-66120000D03*
X140414857Y-85320000D03*
X137214857Y-85320000D03*
X134014857Y-82120000D03*
X140414857Y-75720000D03*
X124414857Y-107720000D03*
X120500000Y-74750000D03*
X146814857Y-85320000D03*
X146814857Y-104520000D03*
X134014857Y-91720000D03*
X143614857Y-78920000D03*
X150014857Y-85320000D03*
X124414857Y-59720000D03*
X156414857Y-101320000D03*
X137214857Y-91720000D03*
X121214857Y-107720000D03*
X156414857Y-107720000D03*
X120100000Y-83300000D03*
X121214857Y-85320000D03*
X134014857Y-72520000D03*
X166014857Y-91720000D03*
X153214857Y-104520000D03*
X143614857Y-85320000D03*
X156414857Y-59720000D03*
X156414857Y-104520000D03*
X153214857Y-101320000D03*
X153214857Y-98120000D03*
X156414857Y-75720000D03*
X146814857Y-69320000D03*
X153214857Y-91720000D03*
X130814857Y-94920000D03*
X140414857Y-88520000D03*
X121214857Y-59720000D03*
X130814857Y-91720000D03*
X162814857Y-82120000D03*
X140414857Y-78920000D03*
X143614857Y-91720000D03*
X156414857Y-78920000D03*
X166014857Y-98120000D03*
X150014857Y-53320000D03*
X153214857Y-59720000D03*
X143614857Y-104520000D03*
X140414857Y-104520000D03*
X127614857Y-98120000D03*
X143614857Y-88520000D03*
X121214857Y-72520000D03*
X137214857Y-104520000D03*
X143614857Y-94920000D03*
X150014857Y-101320000D03*
X156414857Y-62920000D03*
X134014857Y-94920000D03*
X150014857Y-69320000D03*
X153214857Y-62920000D03*
X121214857Y-98120000D03*
X153214857Y-94920000D03*
X167900000Y-59700000D03*
X159614857Y-91720000D03*
X140414857Y-91720000D03*
X137214857Y-101320000D03*
X140414857Y-82120000D03*
X137214857Y-75720000D03*
X137214857Y-107720000D03*
X166014857Y-82120000D03*
X143614857Y-82120000D03*
X140414857Y-94920000D03*
X150014857Y-82120000D03*
X130814857Y-85320000D03*
X137214857Y-69320000D03*
X156414857Y-98120000D03*
X119000000Y-83600000D03*
X121214857Y-69320000D03*
X121214857Y-56520000D03*
%TO.N,/SCL1*%
X155771035Y-70009565D03*
X149742526Y-66589274D03*
%TO.N,/SDA1*%
X150522501Y-65989200D03*
X156819600Y-72500000D03*
%TO.N,/SDA2*%
X141100000Y-64500000D03*
%TO.N,/SCL2*%
X145750000Y-72195074D03*
X144922501Y-68000000D03*
X145750000Y-76500000D03*
%TO.N,/CAN_H*%
X163000000Y-86000000D03*
%TO.N,/fused_3.3v*%
X154940000Y-68051000D03*
X154724100Y-86982300D03*
X154940000Y-79730600D03*
X154940000Y-73812400D03*
%TO.N,/SCLK*%
X141600000Y-59660001D03*
X125476000Y-93726000D03*
X125500000Y-104750000D03*
X125476000Y-90678000D03*
%TO.N,/MISO*%
X124587000Y-90678000D03*
X138400000Y-61950735D03*
X124587000Y-93726000D03*
X123250000Y-104500000D03*
%TO.N,/Diff2*%
X137764500Y-64485500D03*
%TO.N,/P2_LED*%
X145722501Y-65328800D03*
X144018000Y-56977365D03*
%TD*%
D28*
%TO.N,+3.3V*%
X147155600Y-96000000D02*
X147662500Y-96506900D01*
X128747400Y-90652600D02*
X128759900Y-90652600D01*
X121337500Y-104612500D02*
X121337500Y-105750000D01*
X121112500Y-103750000D02*
X121112500Y-104387500D01*
X144018000Y-98983800D02*
X134493000Y-98983800D01*
X153138500Y-77190600D02*
X153138500Y-72491600D01*
X121208800Y-101001200D02*
X121208800Y-103651300D01*
X153136600Y-86817200D02*
X146750000Y-93203800D01*
X134493000Y-98983800D02*
X129726800Y-103750000D01*
X153136600Y-85445600D02*
X153136600Y-86817200D01*
D29*
X124337500Y-63500000D02*
X124000000Y-63500000D01*
X124337500Y-63500000D02*
X125018800Y-64181300D01*
X166954200Y-69138800D02*
X167665400Y-68427600D01*
X153176000Y-66675000D02*
X153176000Y-67324000D01*
D28*
X153138500Y-65913000D02*
X153138500Y-66637500D01*
X153136600Y-72489700D02*
X153138500Y-72491600D01*
D29*
X153138500Y-66637500D02*
X153176000Y-66675000D01*
D28*
X127500000Y-103750000D02*
X121112500Y-103750000D01*
X153138500Y-65151000D02*
X153138500Y-65913000D01*
D29*
X121185000Y-77815000D02*
X121185000Y-79040000D01*
D28*
X121100000Y-82200000D02*
X121100000Y-79125000D01*
X151947501Y-63960001D02*
X153138500Y-65151000D01*
X124000000Y-82300000D02*
X121200000Y-82300000D01*
X153138500Y-68298700D02*
X153136600Y-68300600D01*
D29*
X121112500Y-79112500D02*
X121185000Y-79040000D01*
X163103750Y-69890450D02*
X163855400Y-69138800D01*
D28*
X147662500Y-98336500D02*
X147040600Y-98958400D01*
D29*
X154584400Y-68732400D02*
X161315400Y-68732400D01*
D28*
X127162500Y-104688700D02*
X127162500Y-105750000D01*
X121200000Y-82300000D02*
X121100000Y-82200000D01*
X121210000Y-101000000D02*
X121208800Y-101001200D01*
X146750000Y-96000000D02*
X147155600Y-96000000D01*
X128759900Y-90652600D02*
X129750000Y-89662500D01*
X128000000Y-91400000D02*
X128747400Y-90652600D01*
D29*
X163103750Y-70434200D02*
X163103750Y-69890450D01*
X163017200Y-70434200D02*
X163103750Y-70434200D01*
X167665400Y-64084200D02*
X167309800Y-63728600D01*
D28*
X146750000Y-93203800D02*
X146750000Y-96000000D01*
D29*
X121210000Y-101210000D02*
X121362500Y-101362500D01*
D28*
X121208800Y-103651300D02*
X121210000Y-103652500D01*
X129726800Y-103750000D02*
X128092200Y-103750000D01*
X147662500Y-96506900D02*
X147662500Y-97500000D01*
D29*
X125018800Y-73981200D02*
X121185000Y-77815000D01*
D28*
X151322501Y-63960001D02*
X151947501Y-63960001D01*
X128092200Y-103750000D02*
X128092200Y-103759000D01*
D29*
X161315400Y-68732400D02*
X163017200Y-70434200D01*
D28*
X121100000Y-79125000D02*
X121185000Y-79040000D01*
X128092200Y-103759000D02*
X127162500Y-104688700D01*
X153136600Y-71526400D02*
X153136600Y-72489700D01*
D29*
X167665400Y-68427600D02*
X167665400Y-64084200D01*
D28*
X121112500Y-104387500D02*
X121337500Y-104612500D01*
X147662500Y-97500000D02*
X147662500Y-98336500D01*
D29*
X125018800Y-64181300D02*
X125018800Y-73981200D01*
D28*
X153138500Y-65913000D02*
X153138500Y-68298700D01*
D29*
X121210000Y-101000000D02*
X121210000Y-101210000D01*
X153176000Y-67324000D02*
X154584400Y-68732400D01*
X121210000Y-103652500D02*
X121112500Y-103750000D01*
D28*
X128092200Y-103750000D02*
X127500000Y-103750000D01*
D29*
X163855400Y-69138800D02*
X166954200Y-69138800D01*
D28*
%TO.N,+24V*%
X156832300Y-86093300D02*
X142522501Y-71783501D01*
X142522501Y-71783501D02*
X142522501Y-63960001D01*
X167970200Y-77698600D02*
X166649400Y-76377800D01*
X159070000Y-89500000D02*
X158054600Y-89500000D01*
X163097200Y-72872600D02*
X163097200Y-73717803D01*
X156832300Y-88277700D02*
X156832300Y-86093300D01*
X158054600Y-89500000D02*
X156832300Y-88277700D01*
X166649400Y-76377800D02*
X165757197Y-76377800D01*
X167970200Y-77698600D02*
X167970200Y-100253800D01*
X167970200Y-100253800D02*
X167335200Y-100888800D01*
X163097200Y-73717803D02*
X165757197Y-76377800D01*
D29*
%TO.N,GND*%
X119913400Y-65455800D02*
X119913400Y-66446400D01*
X148122501Y-63960001D02*
X148122501Y-62522501D01*
X157073600Y-71475600D02*
X157530800Y-71932800D01*
X148122501Y-63960001D02*
X148122501Y-65777499D01*
X119938800Y-87401400D02*
X119938800Y-88392000D01*
X157530800Y-73304400D02*
X157073600Y-73761600D01*
X122478800Y-65354200D02*
X122478800Y-66344800D01*
X157530800Y-71932800D02*
X157530800Y-73304400D01*
X148122501Y-65777499D02*
X148100000Y-65800000D01*
%TO.N,/SCL1*%
X159133000Y-69977000D02*
X159110000Y-70000000D01*
X149722501Y-66569248D02*
X149742526Y-66589274D01*
X160809300Y-69977000D02*
X159133000Y-69977000D01*
X149722501Y-63960001D02*
X149722501Y-66569248D01*
X155771035Y-70009565D02*
X155377470Y-69616000D01*
X161544000Y-70711700D02*
X160809300Y-69977000D01*
X155377470Y-69616000D02*
X152769253Y-69616000D01*
X152769253Y-69616000D02*
X149742526Y-66589274D01*
%TO.N,/SDA1*%
X156819600Y-72500000D02*
X156235400Y-72500000D01*
X152935353Y-69215000D02*
X155825000Y-69215000D01*
X155825000Y-69215000D02*
X159110000Y-72500000D01*
X150522501Y-65989200D02*
X150522501Y-66802148D01*
X156227000Y-72491600D02*
X155448000Y-72491600D01*
X150522501Y-65989200D02*
X150522501Y-63960001D01*
X150522501Y-66802148D02*
X152935353Y-69215000D01*
X156235400Y-72500000D02*
X156227000Y-72491600D01*
%TO.N,/SDA2*%
X141100000Y-64500000D02*
X141100000Y-71605600D01*
X146162500Y-62500000D02*
X146522501Y-62860001D01*
X145250000Y-77500000D02*
X145250000Y-93228436D01*
X141100000Y-71605600D02*
X144830800Y-75336400D01*
X144925000Y-96000000D02*
X144925000Y-99575000D01*
X144925000Y-93553436D02*
X144925000Y-96000000D01*
X142250000Y-62500000D02*
X146162500Y-62500000D01*
X143250000Y-100250000D02*
X143250000Y-101250000D01*
X144830800Y-75336400D02*
X144830800Y-77080800D01*
X141100000Y-64500000D02*
X141100000Y-63650000D01*
X145250000Y-93228436D02*
X144925000Y-93553436D01*
X141100000Y-63650000D02*
X142250000Y-62500000D01*
X146522501Y-62860001D02*
X146522501Y-63960001D01*
X144925000Y-99575000D02*
X143250000Y-101250000D01*
X144830800Y-77080800D02*
X145250000Y-77500000D01*
%TO.N,/SCL2*%
X145750000Y-71550000D02*
X144922501Y-70722501D01*
X144922501Y-68000000D02*
X144922501Y-63960001D01*
X145750000Y-72195074D02*
X145750000Y-71550000D01*
X145750000Y-99750000D02*
X145750000Y-101250000D01*
X144922501Y-70722501D02*
X144922501Y-68000000D01*
X145750000Y-76500000D02*
X145750000Y-99750000D01*
%TO.N,/Debug1*%
X146253200Y-57785000D02*
X146522501Y-58054301D01*
X146522501Y-58074499D02*
X146522501Y-59660001D01*
X146253200Y-57057200D02*
X146253200Y-57785000D01*
X146522501Y-57326501D02*
X146253200Y-57057200D01*
X146522501Y-58054301D02*
X146522501Y-58074499D01*
%TO.N,/diff_stat*%
X148922501Y-58722499D02*
X149301200Y-58343800D01*
X153177050Y-58343800D02*
X154508200Y-57012650D01*
X148922501Y-59660001D02*
X148922501Y-58722499D01*
X149301200Y-58343800D02*
X153177050Y-58343800D01*
%TO.N,/P1_LED*%
X141045550Y-56181800D02*
X140208000Y-57019350D01*
X144729200Y-56742187D02*
X144168813Y-56181800D01*
X144729200Y-57566700D02*
X144729200Y-56742187D01*
X145722501Y-59660001D02*
X145722501Y-58560001D01*
X144168813Y-56181800D02*
X141045550Y-56181800D01*
X145722501Y-58560001D02*
X144729200Y-57566700D01*
%TO.N,/CAN_L*%
X143947501Y-71241104D02*
X157206397Y-84500000D01*
X163025000Y-98656802D02*
X163025000Y-87093198D01*
X159070000Y-99000000D02*
X160170000Y-99000000D01*
X143947501Y-65485002D02*
X143947501Y-71241104D01*
X161195000Y-100025000D02*
X161656802Y-100025000D01*
X144122501Y-63960001D02*
X144122501Y-65310002D01*
X163025000Y-87093198D02*
X160431802Y-84500000D01*
X161656802Y-100025000D02*
X163025000Y-98656802D01*
X160431802Y-84500000D02*
X159070000Y-84500000D01*
X160170000Y-99000000D02*
X161195000Y-100025000D01*
X144122501Y-65310002D02*
X143947501Y-65485002D01*
X157206397Y-84500000D02*
X159070000Y-84500000D01*
%TO.N,/CAN_H*%
X143497501Y-71427501D02*
X159070000Y-87000000D01*
X163500000Y-88125000D02*
X163500000Y-98818198D01*
X160170000Y-101500000D02*
X159070000Y-101500000D01*
X143322501Y-63960001D02*
X143322501Y-65310002D01*
X161195000Y-100475000D02*
X160170000Y-101500000D01*
X143497501Y-65485002D02*
X143497501Y-71427501D01*
X163500000Y-88125000D02*
X163500000Y-86500000D01*
X161843198Y-100475000D02*
X161195000Y-100475000D01*
X143322501Y-65310002D02*
X143497501Y-65485002D01*
X163500000Y-98818198D02*
X161843198Y-100475000D01*
X163500000Y-86500000D02*
X163000000Y-86000000D01*
%TO.N,/temp_stat*%
X148787800Y-57942800D02*
X151228150Y-57942800D01*
X151228150Y-57942800D02*
X152171400Y-56999550D01*
X148122501Y-59660001D02*
X148122501Y-58608099D01*
X148122501Y-58608099D02*
X148787800Y-57942800D01*
%TO.N,/Debug2*%
X147882600Y-57044600D02*
X148666200Y-57044600D01*
X147322504Y-59660001D02*
X147322504Y-57604696D01*
X147322504Y-57604696D02*
X147882600Y-57044600D01*
%TO.N,/fused_3.3v*%
X155829000Y-66675000D02*
X156654000Y-67500000D01*
X154926000Y-66675000D02*
X154926000Y-68037000D01*
X154926000Y-66675000D02*
X155829000Y-66675000D01*
D28*
X154724100Y-86982300D02*
X149047200Y-92659200D01*
D29*
X156654000Y-67500000D02*
X159110000Y-67500000D01*
X154940000Y-73812400D02*
X154940000Y-79730600D01*
D28*
X149047200Y-98298000D02*
X148250000Y-99095200D01*
X149047200Y-92659200D02*
X149047200Y-98298000D01*
D29*
X154926000Y-68037000D02*
X154940000Y-68051000D01*
D28*
X148250000Y-99095200D02*
X148250000Y-101250000D01*
D29*
X159046000Y-67564000D02*
X159110000Y-67500000D01*
%TO.N,/SCLK*%
X126290000Y-101000000D02*
X125476000Y-100186000D01*
X125476000Y-100186000D02*
X125476000Y-93726000D01*
X125500000Y-105587500D02*
X125337500Y-105750000D01*
X125188000Y-90390000D02*
X125188000Y-82062000D01*
X141589999Y-59660001D02*
X126265000Y-74985000D01*
X125500000Y-104750000D02*
X125500000Y-105587500D01*
X125188000Y-82062000D02*
X126265000Y-80985000D01*
X142522501Y-59660001D02*
X141589999Y-59660001D01*
X126265000Y-80985000D02*
X126265000Y-79040000D01*
X126265000Y-74985000D02*
X126265000Y-79040000D01*
X125476000Y-90678000D02*
X125188000Y-90390000D01*
%TO.N,/Diff1*%
X144122501Y-58346701D02*
X144122501Y-59660001D01*
X126265000Y-65960000D02*
X126265000Y-71401000D01*
X126000000Y-63337500D02*
X126162500Y-63500000D01*
X126162500Y-55662500D02*
X125700000Y-55200000D01*
X126265000Y-65960000D02*
X126265000Y-63602500D01*
X143586200Y-57810400D02*
X144122501Y-58346701D01*
X126265000Y-71401000D02*
X126619000Y-71755000D01*
X126619000Y-71755000D02*
X127745000Y-71755000D01*
X127745000Y-71755000D02*
X141689600Y-57810400D01*
X126162500Y-63500000D02*
X126162500Y-55662500D01*
X126265000Y-63602500D02*
X126162500Y-63500000D01*
X141689600Y-57810400D02*
X143586200Y-57810400D01*
%TO.N,/MISO*%
X124587000Y-100163000D02*
X124587000Y-93726000D01*
X143322501Y-58706901D02*
X143322501Y-59660001D01*
X123725000Y-79040000D02*
X123725000Y-76625735D01*
X124714000Y-90551000D02*
X124714000Y-80029000D01*
X142852400Y-58236800D02*
X143322501Y-58706901D01*
X124587000Y-90678000D02*
X124714000Y-90551000D01*
X123250000Y-104500000D02*
X123250000Y-105662500D01*
X123750000Y-101000000D02*
X124587000Y-100163000D01*
X138400000Y-61950735D02*
X142113935Y-58236800D01*
X123725000Y-76625735D02*
X138400000Y-61950735D01*
X124714000Y-80029000D02*
X123725000Y-79040000D01*
X142113935Y-58236800D02*
X142852400Y-58236800D01*
X123250000Y-105662500D02*
X123162500Y-105750000D01*
%TO.N,/Diff2*%
X126290000Y-81609000D02*
X126290000Y-87920000D01*
X144922501Y-59660001D02*
X144922501Y-60637001D01*
X127635000Y-80264000D02*
X126290000Y-81609000D01*
X129667500Y-87920000D02*
X129750000Y-87837500D01*
X141250000Y-61000000D02*
X137764500Y-64485500D01*
X144922501Y-60637001D02*
X144559502Y-61000000D01*
X137764500Y-64485500D02*
X127635000Y-74615000D01*
X127635000Y-74615000D02*
X127635000Y-80264000D01*
X144559502Y-61000000D02*
X141250000Y-61000000D01*
X126290000Y-87920000D02*
X129667500Y-87920000D01*
%TO.N,Net-(J2-Pin_5)*%
X161887500Y-79500000D02*
X159070000Y-79500000D01*
D28*
%TO.N,Net-(J5-Pin_5)*%
X159070000Y-94000000D02*
X156662500Y-94000000D01*
D29*
%TO.N,Net-(D1-A)*%
X164922200Y-72872600D02*
X166534700Y-72872600D01*
%TO.N,Net-(D2-A)*%
X164928750Y-70434200D02*
X166541250Y-70434200D01*
%TO.N,Net-(D3-A)*%
X154508200Y-55187650D02*
X154508200Y-53575150D01*
%TO.N,Net-(D4-A)*%
X140208000Y-55194350D02*
X140208000Y-53689350D01*
%TO.N,Net-(D5-A)*%
X142621000Y-53617800D02*
X142611000Y-53607800D01*
X142621000Y-55145300D02*
X142621000Y-53617800D01*
%TO.N,Net-(D8-A)*%
X148666200Y-55219600D02*
X148666200Y-53619600D01*
%TO.N,Net-(D9-A)*%
X146253200Y-55232200D02*
X146253200Y-53632200D01*
%TO.N,Net-(D10-A)*%
X152260400Y-55130150D02*
X152260400Y-53517650D01*
%TO.N,/P2_LED*%
X144018000Y-56977365D02*
X142628065Y-56977365D01*
X142628065Y-56977365D02*
X142621000Y-56970300D01*
X145722501Y-65328800D02*
X145722501Y-63960001D01*
%TD*%
%TA.AperFunction,Conductor*%
%TO.N,GND*%
G36*
X152400000Y-61250000D02*
G01*
X149500000Y-61100000D01*
X149494292Y-60963028D01*
X149555047Y-60917547D01*
X149641297Y-60802332D01*
X149691592Y-60667484D01*
X149698001Y-60607874D01*
X149698000Y-59068299D01*
X149717685Y-59001261D01*
X149770488Y-58955506D01*
X149822000Y-58944300D01*
X152400000Y-58944300D01*
X152400000Y-61250000D01*
G37*
%TD.AperFunction*%
%TD*%
%TA.AperFunction,Conductor*%
%TO.N,GND*%
G36*
X119649602Y-101626050D02*
G01*
X119649603Y-101626049D01*
X119662541Y-101608243D01*
X119662545Y-101608236D01*
X119745475Y-101445479D01*
X119801924Y-101271748D01*
X119801924Y-101271746D01*
X119817273Y-101174839D01*
X119847202Y-101111704D01*
X119906513Y-101074772D01*
X119976375Y-101075770D01*
X120034608Y-101114379D01*
X120062219Y-101174837D01*
X120077588Y-101271869D01*
X120134057Y-101445666D01*
X120134058Y-101445669D01*
X120215897Y-101606286D01*
X120217024Y-101608497D01*
X120324439Y-101756341D01*
X120324441Y-101756343D01*
X120421981Y-101853883D01*
X120455466Y-101915206D01*
X120458300Y-101941564D01*
X120458300Y-102794670D01*
X120456775Y-102799861D01*
X120457855Y-102805161D01*
X120447035Y-102833031D01*
X120438615Y-102861709D01*
X120434007Y-102866592D01*
X120432570Y-102870295D01*
X120418789Y-102882722D01*
X120407283Y-102894917D01*
X120403435Y-102897717D01*
X120351650Y-102929660D01*
X120330471Y-102950838D01*
X120322629Y-102956548D01*
X120298496Y-102965185D01*
X120276001Y-102977468D01*
X120266147Y-102976763D01*
X120256846Y-102980092D01*
X120231875Y-102974311D01*
X120206309Y-102972482D01*
X120196362Y-102966089D01*
X120188776Y-102964333D01*
X120180658Y-102955996D01*
X120161965Y-102943982D01*
X120148038Y-102930055D01*
X120148034Y-102930052D01*
X120001311Y-102839551D01*
X120001300Y-102839546D01*
X119837652Y-102785319D01*
X119736654Y-102775000D01*
X119637500Y-102775000D01*
X119637500Y-104724999D01*
X119736640Y-104724999D01*
X119736654Y-104724998D01*
X119837652Y-104714680D01*
X120001300Y-104660453D01*
X120001311Y-104660448D01*
X120148035Y-104569947D01*
X120161960Y-104556021D01*
X120166494Y-104553544D01*
X120169328Y-104549226D01*
X120196839Y-104536973D01*
X120223282Y-104522533D01*
X120228435Y-104522901D01*
X120233154Y-104520800D01*
X120262924Y-104525366D01*
X120292973Y-104527514D01*
X120298488Y-104530821D01*
X120302216Y-104531393D01*
X120318583Y-104542871D01*
X120331726Y-104550753D01*
X120334608Y-104553298D01*
X120351650Y-104570340D01*
X120359129Y-104574953D01*
X120367083Y-104581977D01*
X120380264Y-104602917D01*
X120396817Y-104621316D01*
X120399564Y-104627470D01*
X120447412Y-104742988D01*
X120447418Y-104742999D01*
X120460308Y-104762290D01*
X120460349Y-104762351D01*
X120460527Y-104762617D01*
X120529548Y-104865916D01*
X120532181Y-104868549D01*
X120537610Y-104876575D01*
X120546562Y-104904607D01*
X120558066Y-104931697D01*
X120557069Y-104937512D01*
X120558865Y-104943134D01*
X120551239Y-104971558D01*
X120546272Y-105000564D01*
X120541765Y-105006872D01*
X120540761Y-105010617D01*
X120536001Y-105014940D01*
X120522582Y-105033727D01*
X120504661Y-105051648D01*
X120414093Y-105198481D01*
X120414092Y-105198484D01*
X120359826Y-105362247D01*
X120359826Y-105362248D01*
X120359825Y-105362248D01*
X120349500Y-105463315D01*
X120349500Y-106036669D01*
X120349501Y-106036687D01*
X120359825Y-106137752D01*
X120396109Y-106247249D01*
X120414090Y-106301511D01*
X120414092Y-106301515D01*
X120414093Y-106301518D01*
X120448395Y-106357129D01*
X120504660Y-106448350D01*
X120626650Y-106570340D01*
X120773484Y-106660908D01*
X120937247Y-106715174D01*
X121038323Y-106725500D01*
X121636676Y-106725499D01*
X121636684Y-106725498D01*
X121636687Y-106725498D01*
X121692030Y-106719844D01*
X121737753Y-106715174D01*
X121901516Y-106660908D01*
X122048350Y-106570340D01*
X122162319Y-106456371D01*
X122223642Y-106422886D01*
X122293334Y-106427870D01*
X122337681Y-106456371D01*
X122451650Y-106570340D01*
X122598484Y-106660908D01*
X122762247Y-106715174D01*
X122863323Y-106725500D01*
X123461676Y-106725499D01*
X123461684Y-106725498D01*
X123461687Y-106725498D01*
X123517030Y-106719844D01*
X123562753Y-106715174D01*
X123726516Y-106660908D01*
X123873350Y-106570340D01*
X123995340Y-106448350D01*
X124085908Y-106301516D01*
X124132294Y-106161530D01*
X124172065Y-106104087D01*
X124236581Y-106077264D01*
X124305357Y-106089579D01*
X124356557Y-106137121D01*
X124367705Y-106161531D01*
X124414090Y-106301511D01*
X124414092Y-106301515D01*
X124414093Y-106301518D01*
X124448395Y-106357129D01*
X124504660Y-106448350D01*
X124626650Y-106570340D01*
X124773484Y-106660908D01*
X124937247Y-106715174D01*
X125038323Y-106725500D01*
X125636676Y-106725499D01*
X125636684Y-106725498D01*
X125636687Y-106725498D01*
X125692030Y-106719844D01*
X125737753Y-106715174D01*
X125901516Y-106660908D01*
X126048350Y-106570340D01*
X126162319Y-106456371D01*
X126223642Y-106422886D01*
X126293334Y-106427870D01*
X126337681Y-106456371D01*
X126451650Y-106570340D01*
X126598484Y-106660908D01*
X126762247Y-106715174D01*
X126863323Y-106725500D01*
X127461676Y-106725499D01*
X127461684Y-106725498D01*
X127461687Y-106725498D01*
X127517030Y-106719844D01*
X127562753Y-106715174D01*
X127586572Y-106707280D01*
X127656400Y-106704878D01*
X127716442Y-106740608D01*
X127747636Y-106803127D01*
X127740139Y-106872438D01*
X127674116Y-107031831D01*
X127568568Y-107379777D01*
X127568565Y-107379788D01*
X127497638Y-107736370D01*
X127470930Y-108007552D01*
X127462001Y-108098207D01*
X127462001Y-108461795D01*
X127472838Y-108571830D01*
X127497638Y-108823631D01*
X127568565Y-109180213D01*
X127568568Y-109180224D01*
X127674115Y-109528166D01*
X127813255Y-109864079D01*
X127813257Y-109864084D01*
X127984641Y-110184721D01*
X127984652Y-110184739D01*
X128186641Y-110487036D01*
X128186651Y-110487050D01*
X128417308Y-110768107D01*
X128674394Y-111025193D01*
X128674399Y-111025197D01*
X128674400Y-111025198D01*
X128906541Y-111215711D01*
X128923524Y-111229648D01*
X128962858Y-111287393D01*
X128964729Y-111357238D01*
X128928542Y-111417006D01*
X128865786Y-111447722D01*
X128844859Y-111449501D01*
X119454429Y-111449501D01*
X119445583Y-111449185D01*
X119245443Y-111434870D01*
X119227931Y-111432352D01*
X119036212Y-111390647D01*
X119019236Y-111385663D01*
X118835390Y-111317091D01*
X118819297Y-111309741D01*
X118647091Y-111215710D01*
X118632208Y-111206145D01*
X118475135Y-111088562D01*
X118461764Y-111076976D01*
X118323024Y-110938236D01*
X118311438Y-110924865D01*
X118193855Y-110767792D01*
X118184290Y-110752909D01*
X118152815Y-110695267D01*
X118090253Y-110580695D01*
X118082909Y-110564612D01*
X118014336Y-110380761D01*
X118009354Y-110363791D01*
X118009353Y-110363788D01*
X117967646Y-110172065D01*
X117965129Y-110154556D01*
X117960154Y-110085000D01*
X117950817Y-109954446D01*
X117950501Y-109945600D01*
X117950501Y-104036654D01*
X118350001Y-104036654D01*
X118360319Y-104137652D01*
X118414546Y-104301300D01*
X118414551Y-104301311D01*
X118505052Y-104448034D01*
X118505055Y-104448038D01*
X118626961Y-104569944D01*
X118626965Y-104569947D01*
X118773688Y-104660448D01*
X118773699Y-104660453D01*
X118937347Y-104714680D01*
X119038351Y-104724999D01*
X119137500Y-104724998D01*
X119137500Y-104000000D01*
X118350001Y-104000000D01*
X118350001Y-104036654D01*
X117950501Y-104036654D01*
X117950501Y-103463345D01*
X118350000Y-103463345D01*
X118350000Y-103500000D01*
X119137500Y-103500000D01*
X119137500Y-102774999D01*
X119038360Y-102775000D01*
X119038344Y-102775001D01*
X118937347Y-102785319D01*
X118773699Y-102839546D01*
X118773688Y-102839551D01*
X118626965Y-102930052D01*
X118626961Y-102930055D01*
X118505055Y-103051961D01*
X118505052Y-103051965D01*
X118414551Y-103198688D01*
X118414546Y-103198699D01*
X118360319Y-103362347D01*
X118350000Y-103463345D01*
X117950501Y-103463345D01*
X117950501Y-102138205D01*
X117970186Y-102071166D01*
X118022990Y-102025411D01*
X118092148Y-102015467D01*
X118130797Y-102027721D01*
X118224517Y-102075475D01*
X118398252Y-102131924D01*
X118578668Y-102160500D01*
X118761332Y-102160500D01*
X118941747Y-102131924D01*
X118941748Y-102131924D01*
X119115479Y-102075475D01*
X119278236Y-101992545D01*
X119278243Y-101992541D01*
X119296049Y-101979603D01*
X119296050Y-101979602D01*
X118722947Y-101406500D01*
X118723517Y-101406500D01*
X118826903Y-101378798D01*
X118919597Y-101325281D01*
X118995281Y-101249597D01*
X119048798Y-101156903D01*
X119076500Y-101053517D01*
X119076500Y-101052947D01*
X119649602Y-101626050D01*
G37*
%TD.AperFunction*%
%TA.AperFunction,Conductor*%
G36*
X146600434Y-76923053D02*
G01*
X146605253Y-76927621D01*
X156045481Y-86367849D01*
X156078966Y-86429172D01*
X156081800Y-86455530D01*
X156081800Y-88351618D01*
X156081800Y-88351620D01*
X156081799Y-88351620D01*
X156110640Y-88496607D01*
X156110643Y-88496617D01*
X156167214Y-88633192D01*
X156167215Y-88633194D01*
X156167216Y-88633195D01*
X156192035Y-88670340D01*
X156194814Y-88674498D01*
X156194815Y-88674501D01*
X156249346Y-88756114D01*
X156249352Y-88756121D01*
X157433181Y-89939948D01*
X157466666Y-90001271D01*
X157469500Y-90027628D01*
X157469500Y-90150000D01*
X157469501Y-90150019D01*
X157480000Y-90252796D01*
X157480001Y-90252799D01*
X157535185Y-90419331D01*
X157535187Y-90419336D01*
X157570069Y-90475888D01*
X157627288Y-90568656D01*
X157751344Y-90692712D01*
X157900666Y-90784814D01*
X158067203Y-90839999D01*
X158169991Y-90850500D01*
X159970008Y-90850499D01*
X160072797Y-90839999D01*
X160239334Y-90784814D01*
X160388656Y-90692712D01*
X160512712Y-90568656D01*
X160604814Y-90419334D01*
X160659999Y-90252797D01*
X160670500Y-90150009D01*
X160670499Y-88849992D01*
X160669241Y-88837681D01*
X160659999Y-88747203D01*
X160659998Y-88747200D01*
X160636518Y-88676342D01*
X160604814Y-88580666D01*
X160512712Y-88431344D01*
X160388656Y-88307288D01*
X160239334Y-88215186D01*
X160239333Y-88215185D01*
X160233878Y-88211821D01*
X160187154Y-88159873D01*
X160175931Y-88090910D01*
X160203775Y-88026828D01*
X160211272Y-88018623D01*
X160350104Y-87879792D01*
X160405155Y-87804021D01*
X160460116Y-87728372D01*
X160475051Y-87707816D01*
X160571557Y-87518412D01*
X160637246Y-87316243D01*
X160670500Y-87106287D01*
X160670500Y-86893713D01*
X160637246Y-86683757D01*
X160571557Y-86481588D01*
X160475051Y-86292184D01*
X160475049Y-86292181D01*
X160475048Y-86292179D01*
X160350109Y-86120213D01*
X160199792Y-85969896D01*
X160136640Y-85924014D01*
X160035204Y-85850316D01*
X159992540Y-85794989D01*
X159986561Y-85725376D01*
X160019166Y-85663580D01*
X160035199Y-85649686D01*
X160199792Y-85530104D01*
X160318553Y-85411342D01*
X160379872Y-85377860D01*
X160449564Y-85382844D01*
X160493912Y-85411345D01*
X162388181Y-87305614D01*
X162421666Y-87366937D01*
X162424500Y-87393295D01*
X162424500Y-98356705D01*
X162404815Y-98423744D01*
X162388181Y-98444386D01*
X161513582Y-99318985D01*
X161452259Y-99352470D01*
X161382567Y-99347486D01*
X161338220Y-99318985D01*
X160657590Y-98638355D01*
X160650521Y-98631286D01*
X160650520Y-98631284D01*
X160626648Y-98607412D01*
X160626638Y-98607394D01*
X160596402Y-98558052D01*
X160571559Y-98481592D01*
X160507926Y-98356705D01*
X160475051Y-98292184D01*
X160475049Y-98292181D01*
X160475048Y-98292179D01*
X160350109Y-98120213D01*
X160199790Y-97969894D01*
X160199785Y-97969890D01*
X160034781Y-97850008D01*
X159992115Y-97794678D01*
X159986136Y-97725065D01*
X160018741Y-97663270D01*
X160034781Y-97649371D01*
X160199466Y-97529721D01*
X160349723Y-97379464D01*
X160349727Y-97379459D01*
X160474620Y-97207557D01*
X160571095Y-97018217D01*
X160636757Y-96816129D01*
X160636757Y-96816126D01*
X160647231Y-96750000D01*
X159618482Y-96750000D01*
X159629111Y-96731591D01*
X159670000Y-96578991D01*
X159670000Y-96421009D01*
X159629111Y-96268409D01*
X159618482Y-96250000D01*
X160647231Y-96250000D01*
X160636757Y-96183873D01*
X160636757Y-96183870D01*
X160571095Y-95981782D01*
X160474620Y-95792442D01*
X160349727Y-95620540D01*
X160349723Y-95620535D01*
X160199464Y-95470276D01*
X160199459Y-95470272D01*
X160034781Y-95350627D01*
X159992115Y-95295297D01*
X159986136Y-95225684D01*
X160018741Y-95163889D01*
X160034776Y-95149994D01*
X160199792Y-95030104D01*
X160350104Y-94879792D01*
X160350106Y-94879788D01*
X160350109Y-94879786D01*
X160475048Y-94707820D01*
X160475047Y-94707820D01*
X160475051Y-94707816D01*
X160571557Y-94518412D01*
X160637246Y-94316243D01*
X160670500Y-94106287D01*
X160670500Y-93893713D01*
X160637246Y-93683757D01*
X160571557Y-93481588D01*
X160475051Y-93292184D01*
X160475049Y-93292181D01*
X160475048Y-93292179D01*
X160350109Y-93120213D01*
X160199786Y-92969890D01*
X160027820Y-92844951D01*
X159838414Y-92748444D01*
X159838413Y-92748443D01*
X159838412Y-92748443D01*
X159636243Y-92682754D01*
X159636241Y-92682753D01*
X159636240Y-92682753D01*
X159474957Y-92657208D01*
X159426287Y-92649500D01*
X158713713Y-92649500D01*
X158665042Y-92657208D01*
X158503760Y-92682753D01*
X158301585Y-92748444D01*
X158112179Y-92844951D01*
X157940213Y-92969890D01*
X157789897Y-93120206D01*
X157748571Y-93177087D01*
X157733765Y-93188503D01*
X157722563Y-93203468D01*
X157706672Y-93209394D01*
X157693241Y-93219752D01*
X157674615Y-93221351D01*
X157657099Y-93227885D01*
X157640525Y-93224279D01*
X157623627Y-93225731D01*
X157607092Y-93217006D01*
X157588826Y-93213033D01*
X157563188Y-93193840D01*
X157561832Y-93193125D01*
X157560572Y-93191882D01*
X157456017Y-93087327D01*
X157422532Y-93026004D01*
X157427516Y-92956312D01*
X157456017Y-92911964D01*
X157569948Y-92798033D01*
X157660448Y-92651311D01*
X157660453Y-92651300D01*
X157714680Y-92487652D01*
X157724999Y-92386654D01*
X157725000Y-92386641D01*
X157725000Y-92337500D01*
X155775001Y-92337500D01*
X155775001Y-92386654D01*
X155785319Y-92487652D01*
X155839546Y-92651300D01*
X155839551Y-92651311D01*
X155930052Y-92798034D01*
X155930055Y-92798038D01*
X156043982Y-92911965D01*
X156077467Y-92973288D01*
X156072483Y-93042980D01*
X156043983Y-93087327D01*
X155929659Y-93201651D01*
X155839093Y-93348481D01*
X155839092Y-93348484D01*
X155784826Y-93512247D01*
X155784826Y-93512248D01*
X155784825Y-93512248D01*
X155774500Y-93613315D01*
X155774500Y-94211669D01*
X155774501Y-94211687D01*
X155784825Y-94312752D01*
X155839092Y-94476515D01*
X155839093Y-94476518D01*
X155873395Y-94532129D01*
X155929660Y-94623350D01*
X156051650Y-94745340D01*
X156198484Y-94835908D01*
X156362247Y-94890174D01*
X156463323Y-94900500D01*
X157036676Y-94900499D01*
X157036684Y-94900498D01*
X157036687Y-94900498D01*
X157092030Y-94894844D01*
X157137753Y-94890174D01*
X157301516Y-94835908D01*
X157410054Y-94768960D01*
X157426613Y-94764264D01*
X157440216Y-94755523D01*
X157475151Y-94750500D01*
X157632779Y-94750500D01*
X157699818Y-94770185D01*
X157733097Y-94801615D01*
X157789892Y-94879788D01*
X157940209Y-95030105D01*
X157940214Y-95030109D01*
X158105218Y-95149991D01*
X158147884Y-95205320D01*
X158153863Y-95274934D01*
X158121258Y-95336729D01*
X158105218Y-95350627D01*
X157940540Y-95470272D01*
X157940535Y-95470276D01*
X157790276Y-95620535D01*
X157790272Y-95620540D01*
X157665379Y-95792442D01*
X157568904Y-95981782D01*
X157503242Y-96183870D01*
X157503242Y-96183873D01*
X157492769Y-96250000D01*
X158521518Y-96250000D01*
X158510889Y-96268409D01*
X158470000Y-96421009D01*
X158470000Y-96578991D01*
X158510889Y-96731591D01*
X158521518Y-96750000D01*
X157492769Y-96750000D01*
X157503242Y-96816126D01*
X157503242Y-96816129D01*
X157568904Y-97018217D01*
X157665379Y-97207557D01*
X157790272Y-97379459D01*
X157790276Y-97379464D01*
X157940535Y-97529723D01*
X157940540Y-97529727D01*
X158105218Y-97649372D01*
X158147884Y-97704701D01*
X158153863Y-97774315D01*
X158121258Y-97836110D01*
X158105218Y-97850008D01*
X157940214Y-97969890D01*
X157940209Y-97969894D01*
X157789890Y-98120213D01*
X157664951Y-98292179D01*
X157568444Y-98481585D01*
X157502753Y-98683760D01*
X157469500Y-98893713D01*
X157469500Y-99106286D01*
X157501595Y-99308930D01*
X157502754Y-99316243D01*
X157544591Y-99445004D01*
X157568444Y-99518414D01*
X157664951Y-99707820D01*
X157789890Y-99879786D01*
X157940209Y-100030105D01*
X157940214Y-100030109D01*
X158104793Y-100149682D01*
X158147459Y-100205011D01*
X158153438Y-100274625D01*
X158120833Y-100336420D01*
X158104793Y-100350318D01*
X157940214Y-100469890D01*
X157940209Y-100469894D01*
X157789890Y-100620213D01*
X157664951Y-100792179D01*
X157568444Y-100981585D01*
X157502753Y-101183760D01*
X157469500Y-101393713D01*
X157469500Y-101606286D01*
X157493266Y-101756343D01*
X157502754Y-101816243D01*
X157561252Y-101996282D01*
X157568444Y-102018414D01*
X157664951Y-102207820D01*
X157789890Y-102379786D01*
X157928705Y-102518601D01*
X157962190Y-102579924D01*
X157957206Y-102649616D01*
X157915334Y-102705549D01*
X157906121Y-102711821D01*
X157751342Y-102807289D01*
X157627289Y-102931342D01*
X157535187Y-103080663D01*
X157535186Y-103080666D01*
X157480001Y-103247203D01*
X157480001Y-103247204D01*
X157480000Y-103247204D01*
X157469500Y-103349983D01*
X157469500Y-104650001D01*
X157469501Y-104650018D01*
X157480000Y-104752796D01*
X157480001Y-104752799D01*
X157535185Y-104919331D01*
X157535187Y-104919336D01*
X157546398Y-104937512D01*
X157627288Y-105068656D01*
X157751344Y-105192712D01*
X157900666Y-105284814D01*
X158067203Y-105339999D01*
X158169991Y-105350500D01*
X159299341Y-105350499D01*
X159366380Y-105370184D01*
X159412135Y-105422987D01*
X159422079Y-105492146D01*
X159393054Y-105555702D01*
X159387022Y-105562180D01*
X159157308Y-105791894D01*
X158926651Y-106072951D01*
X158926641Y-106072965D01*
X158724652Y-106375262D01*
X158724641Y-106375280D01*
X158553257Y-106695917D01*
X158553255Y-106695922D01*
X158414115Y-107031835D01*
X158308568Y-107379777D01*
X158308565Y-107379788D01*
X158237638Y-107736370D01*
X158210930Y-108007552D01*
X158202001Y-108098207D01*
X158202001Y-108461795D01*
X158212838Y-108571830D01*
X158237638Y-108823631D01*
X158308565Y-109180213D01*
X158308568Y-109180224D01*
X158414115Y-109528166D01*
X158553255Y-109864079D01*
X158553257Y-109864084D01*
X158724641Y-110184721D01*
X158724652Y-110184739D01*
X158926641Y-110487036D01*
X158926651Y-110487050D01*
X159157308Y-110768107D01*
X159414394Y-111025193D01*
X159414399Y-111025197D01*
X159414400Y-111025198D01*
X159646541Y-111215711D01*
X159663524Y-111229648D01*
X159702858Y-111287393D01*
X159704729Y-111357238D01*
X159668542Y-111417006D01*
X159605786Y-111447722D01*
X159584859Y-111449501D01*
X133480143Y-111449501D01*
X133413104Y-111429816D01*
X133367349Y-111377012D01*
X133357405Y-111307854D01*
X133386430Y-111244298D01*
X133401478Y-111229648D01*
X133650602Y-111025198D01*
X133907698Y-110768102D01*
X134138355Y-110487045D01*
X134340354Y-110184733D01*
X134511748Y-109864077D01*
X134650887Y-109528165D01*
X134756431Y-109180234D01*
X134756433Y-109180224D01*
X134756436Y-109180213D01*
X134827363Y-108823631D01*
X134844383Y-108650826D01*
X134863001Y-108461795D01*
X134863001Y-108343389D01*
X139649500Y-108343389D01*
X139649500Y-108516610D01*
X139670757Y-108650826D01*
X139676598Y-108687701D01*
X139730127Y-108852445D01*
X139808768Y-109006788D01*
X139910586Y-109146928D01*
X140033072Y-109269414D01*
X140173212Y-109371232D01*
X140327555Y-109449873D01*
X140492299Y-109503402D01*
X140663389Y-109530500D01*
X140663390Y-109530500D01*
X140836610Y-109530500D01*
X140836611Y-109530500D01*
X141007701Y-109503402D01*
X141172445Y-109449873D01*
X141326788Y-109371232D01*
X141466928Y-109269414D01*
X141589414Y-109146928D01*
X141691232Y-109006788D01*
X141769873Y-108852445D01*
X141823402Y-108687701D01*
X141850500Y-108516611D01*
X141850500Y-108343389D01*
X147149500Y-108343389D01*
X147149500Y-108516610D01*
X147170757Y-108650826D01*
X147176598Y-108687701D01*
X147230127Y-108852445D01*
X147308768Y-109006788D01*
X147410586Y-109146928D01*
X147533072Y-109269414D01*
X147673212Y-109371232D01*
X147827555Y-109449873D01*
X147992299Y-109503402D01*
X148163389Y-109530500D01*
X148163390Y-109530500D01*
X148336610Y-109530500D01*
X148336611Y-109530500D01*
X148507701Y-109503402D01*
X148672445Y-109449873D01*
X148826788Y-109371232D01*
X148966928Y-109269414D01*
X149089414Y-109146928D01*
X149191232Y-109006788D01*
X149269873Y-108852445D01*
X149323402Y-108687701D01*
X149350500Y-108516611D01*
X149350500Y-108343389D01*
X149323402Y-108172299D01*
X149269873Y-108007555D01*
X149191232Y-107853212D01*
X149089414Y-107713072D01*
X148966928Y-107590586D01*
X148826788Y-107488768D01*
X148672445Y-107410127D01*
X148507701Y-107356598D01*
X148507699Y-107356597D01*
X148507698Y-107356597D01*
X148376271Y-107335781D01*
X148336611Y-107329500D01*
X148163389Y-107329500D01*
X148123728Y-107335781D01*
X147992302Y-107356597D01*
X147827552Y-107410128D01*
X147673211Y-107488768D01*
X147606613Y-107537155D01*
X147533072Y-107590586D01*
X147533070Y-107590588D01*
X147533069Y-107590588D01*
X147410588Y-107713069D01*
X147410588Y-107713070D01*
X147410586Y-107713072D01*
X147393659Y-107736370D01*
X147308768Y-107853211D01*
X147230128Y-108007552D01*
X147176597Y-108172302D01*
X147149500Y-108343389D01*
X141850500Y-108343389D01*
X141823402Y-108172299D01*
X141769873Y-108007555D01*
X141691232Y-107853212D01*
X141589414Y-107713072D01*
X141466928Y-107590586D01*
X141326788Y-107488768D01*
X141172445Y-107410127D01*
X141007701Y-107356598D01*
X141007699Y-107356597D01*
X141007698Y-107356597D01*
X140876271Y-107335781D01*
X140836611Y-107329500D01*
X140663389Y-107329500D01*
X140623728Y-107335781D01*
X140492302Y-107356597D01*
X140327552Y-107410128D01*
X140173211Y-107488768D01*
X140106613Y-107537155D01*
X140033072Y-107590586D01*
X140033070Y-107590588D01*
X140033069Y-107590588D01*
X139910588Y-107713069D01*
X139910588Y-107713070D01*
X139910586Y-107713072D01*
X139893659Y-107736370D01*
X139808768Y-107853211D01*
X139730128Y-108007552D01*
X139676597Y-108172302D01*
X139649500Y-108343389D01*
X134863001Y-108343389D01*
X134863001Y-108098207D01*
X134827363Y-107736370D01*
X134818384Y-107691231D01*
X134756436Y-107379788D01*
X134756433Y-107379777D01*
X134756432Y-107379774D01*
X134756431Y-107379768D01*
X134650887Y-107031837D01*
X134511748Y-106695925D01*
X134444621Y-106570340D01*
X134340360Y-106375280D01*
X134340359Y-106375278D01*
X134340354Y-106375269D01*
X134138355Y-106072957D01*
X133907698Y-105791900D01*
X133907697Y-105791899D01*
X133907693Y-105791894D01*
X133650607Y-105534808D01*
X133369550Y-105304151D01*
X133369549Y-105304150D01*
X133369545Y-105304147D01*
X133067233Y-105102148D01*
X133067228Y-105102145D01*
X133067221Y-105102141D01*
X132746584Y-104930757D01*
X132746579Y-104930755D01*
X132743935Y-104929660D01*
X132590044Y-104865916D01*
X132410666Y-104791615D01*
X132062724Y-104686068D01*
X132062713Y-104686065D01*
X131706131Y-104615138D01*
X131433612Y-104588297D01*
X131344295Y-104579501D01*
X130980707Y-104579501D01*
X130898180Y-104587629D01*
X130618870Y-104615138D01*
X130262288Y-104686065D01*
X130262277Y-104686068D01*
X129914335Y-104791615D01*
X129578422Y-104930755D01*
X129578417Y-104930757D01*
X129257780Y-105102141D01*
X129257762Y-105102152D01*
X128955465Y-105304141D01*
X128955451Y-105304151D01*
X128674394Y-105534808D01*
X128417312Y-105791890D01*
X128370352Y-105849111D01*
X128312605Y-105888445D01*
X128242761Y-105890314D01*
X128182993Y-105854127D01*
X128152277Y-105791371D01*
X128150499Y-105770451D01*
X128150499Y-105463324D01*
X128140174Y-105362247D01*
X128085908Y-105198484D01*
X128085904Y-105198478D01*
X128085903Y-105198475D01*
X128011005Y-105077047D01*
X127995528Y-105051955D01*
X127977088Y-104984565D01*
X127998010Y-104917901D01*
X128013380Y-104899185D01*
X128375748Y-104536819D01*
X128437071Y-104503334D01*
X128463429Y-104500500D01*
X129800720Y-104500500D01*
X129898262Y-104481096D01*
X129945713Y-104471658D01*
X130082295Y-104415084D01*
X130145341Y-104372958D01*
X130205216Y-104332952D01*
X134767548Y-99770618D01*
X134828871Y-99737134D01*
X134855229Y-99734300D01*
X139457606Y-99734300D01*
X139524645Y-99753985D01*
X139570400Y-99806789D01*
X139580344Y-99875947D01*
X139559551Y-99924322D01*
X139561475Y-99925509D01*
X139465643Y-100080875D01*
X139465641Y-100080880D01*
X139410494Y-100247302D01*
X139410493Y-100247309D01*
X139400000Y-100350013D01*
X139400000Y-101000000D01*
X140201518Y-101000000D01*
X140190889Y-101018409D01*
X140150000Y-101171009D01*
X140150000Y-101328991D01*
X140190889Y-101481591D01*
X140201518Y-101500000D01*
X139400001Y-101500000D01*
X139400001Y-102149986D01*
X139410494Y-102252697D01*
X139465641Y-102419119D01*
X139465643Y-102419124D01*
X139557684Y-102568345D01*
X139681654Y-102692315D01*
X139830875Y-102784356D01*
X139830880Y-102784358D01*
X139997302Y-102839505D01*
X139997309Y-102839506D01*
X140100019Y-102849999D01*
X140499999Y-102849999D01*
X140500000Y-102849998D01*
X140500000Y-101798482D01*
X140518409Y-101809111D01*
X140671009Y-101850000D01*
X140828991Y-101850000D01*
X140981591Y-101809111D01*
X141000000Y-101798482D01*
X141000000Y-102849999D01*
X141399972Y-102849999D01*
X141399986Y-102849998D01*
X141502697Y-102839505D01*
X141669119Y-102784358D01*
X141669124Y-102784356D01*
X141818345Y-102692315D01*
X141942317Y-102568343D01*
X142037815Y-102413516D01*
X142089763Y-102366791D01*
X142158725Y-102355568D01*
X142222808Y-102383412D01*
X142231035Y-102390931D01*
X142370213Y-102530109D01*
X142542179Y-102655048D01*
X142542181Y-102655049D01*
X142542184Y-102655051D01*
X142731588Y-102751557D01*
X142933757Y-102817246D01*
X143143713Y-102850500D01*
X143143714Y-102850500D01*
X143356286Y-102850500D01*
X143356287Y-102850500D01*
X143566243Y-102817246D01*
X143768412Y-102751557D01*
X143957816Y-102655051D01*
X143979789Y-102639086D01*
X144129786Y-102530109D01*
X144129788Y-102530106D01*
X144129792Y-102530104D01*
X144280104Y-102379792D01*
X144399683Y-102215204D01*
X144455011Y-102172540D01*
X144524624Y-102166561D01*
X144586420Y-102199166D01*
X144600313Y-102215199D01*
X144685607Y-102332597D01*
X144719896Y-102379792D01*
X144870213Y-102530109D01*
X145042179Y-102655048D01*
X145042181Y-102655049D01*
X145042184Y-102655051D01*
X145231588Y-102751557D01*
X145433757Y-102817246D01*
X145643713Y-102850500D01*
X145643714Y-102850500D01*
X145856286Y-102850500D01*
X145856287Y-102850500D01*
X146066243Y-102817246D01*
X146268412Y-102751557D01*
X146457816Y-102655051D01*
X146479789Y-102639086D01*
X146629786Y-102530109D01*
X146629788Y-102530106D01*
X146629792Y-102530104D01*
X146780104Y-102379792D01*
X146899683Y-102215204D01*
X146955011Y-102172540D01*
X147024624Y-102166561D01*
X147086420Y-102199166D01*
X147100313Y-102215199D01*
X147185607Y-102332597D01*
X147219896Y-102379792D01*
X147370213Y-102530109D01*
X147542179Y-102655048D01*
X147542181Y-102655049D01*
X147542184Y-102655051D01*
X147731588Y-102751557D01*
X147933757Y-102817246D01*
X148143713Y-102850500D01*
X148143714Y-102850500D01*
X148356286Y-102850500D01*
X148356287Y-102850500D01*
X148566243Y-102817246D01*
X148768412Y-102751557D01*
X148957816Y-102655051D01*
X148979789Y-102639086D01*
X149129786Y-102530109D01*
X149129788Y-102530106D01*
X149129792Y-102530104D01*
X149280104Y-102379792D01*
X149280106Y-102379788D01*
X149280109Y-102379786D01*
X149405048Y-102207820D01*
X149405047Y-102207820D01*
X149405051Y-102207816D01*
X149501557Y-102018412D01*
X149567246Y-101816243D01*
X149600500Y-101606287D01*
X149600500Y-100893713D01*
X149567246Y-100683757D01*
X149501557Y-100481588D01*
X149405051Y-100292184D01*
X149405049Y-100292181D01*
X149405048Y-100292179D01*
X149280109Y-100120213D01*
X149129794Y-99969898D01*
X149129788Y-99969893D01*
X149051615Y-99913097D01*
X149008949Y-99857767D01*
X149000500Y-99812779D01*
X149000500Y-99457430D01*
X149020185Y-99390391D01*
X149036819Y-99369749D01*
X149630148Y-98776420D01*
X149630152Y-98776416D01*
X149686559Y-98691995D01*
X149712284Y-98653495D01*
X149768858Y-98516913D01*
X149789944Y-98410908D01*
X149797700Y-98371920D01*
X149797700Y-93021429D01*
X149817385Y-92954390D01*
X149834014Y-92933753D01*
X150979422Y-91788345D01*
X155775000Y-91788345D01*
X155775000Y-91837500D01*
X156500000Y-91837500D01*
X157000000Y-91837500D01*
X157724999Y-91837500D01*
X157724999Y-91788360D01*
X157724998Y-91788345D01*
X157714680Y-91687347D01*
X157660453Y-91523699D01*
X157660448Y-91523688D01*
X157569947Y-91376965D01*
X157569944Y-91376961D01*
X157448038Y-91255055D01*
X157448034Y-91255052D01*
X157301311Y-91164551D01*
X157301300Y-91164546D01*
X157137652Y-91110319D01*
X157036654Y-91100000D01*
X157000000Y-91100000D01*
X157000000Y-91837500D01*
X156500000Y-91837500D01*
X156500000Y-91100000D01*
X156463361Y-91100000D01*
X156463343Y-91100001D01*
X156362347Y-91110319D01*
X156198699Y-91164546D01*
X156198688Y-91164551D01*
X156051965Y-91255052D01*
X156051961Y-91255055D01*
X155930055Y-91376961D01*
X155930052Y-91376965D01*
X155839551Y-91523688D01*
X155839546Y-91523699D01*
X155785319Y-91687347D01*
X155775000Y-91788345D01*
X150979422Y-91788345D01*
X155039397Y-87728369D01*
X155079624Y-87701491D01*
X155103279Y-87691694D01*
X155234389Y-87604089D01*
X155345889Y-87492589D01*
X155433494Y-87361479D01*
X155493837Y-87215797D01*
X155524600Y-87061142D01*
X155524600Y-86903458D01*
X155524600Y-86903455D01*
X155524599Y-86903453D01*
X155512785Y-86844059D01*
X155493837Y-86748803D01*
X155466896Y-86683760D01*
X155433497Y-86603127D01*
X155433490Y-86603114D01*
X155345889Y-86472011D01*
X155345886Y-86472007D01*
X155234392Y-86360513D01*
X155234388Y-86360510D01*
X155103285Y-86272909D01*
X155103272Y-86272902D01*
X154957601Y-86212564D01*
X154957589Y-86212561D01*
X154802945Y-86181800D01*
X154802942Y-86181800D01*
X154645258Y-86181800D01*
X154645255Y-86181800D01*
X154490610Y-86212561D01*
X154490598Y-86212564D01*
X154344927Y-86272902D01*
X154344914Y-86272909D01*
X154213811Y-86360510D01*
X154213807Y-86360513D01*
X154098781Y-86475540D01*
X154037458Y-86509025D01*
X153967766Y-86504041D01*
X153911833Y-86462169D01*
X153887416Y-86396705D01*
X153887100Y-86387859D01*
X153887100Y-85750204D01*
X153896539Y-85702751D01*
X153906337Y-85679097D01*
X153937100Y-85524442D01*
X153937100Y-85366758D01*
X153937100Y-85366755D01*
X153937099Y-85366753D01*
X153921952Y-85290606D01*
X153906337Y-85212103D01*
X153901117Y-85199500D01*
X153845997Y-85066427D01*
X153845990Y-85066414D01*
X153758389Y-84935311D01*
X153758386Y-84935307D01*
X153646892Y-84823813D01*
X153646888Y-84823810D01*
X153515785Y-84736209D01*
X153515772Y-84736202D01*
X153370101Y-84675864D01*
X153370089Y-84675861D01*
X153215445Y-84645100D01*
X153215442Y-84645100D01*
X153057758Y-84645100D01*
X153057755Y-84645100D01*
X152903110Y-84675861D01*
X152903098Y-84675864D01*
X152757427Y-84736202D01*
X152757414Y-84736209D01*
X152626311Y-84823810D01*
X152626307Y-84823813D01*
X152514813Y-84935307D01*
X152514810Y-84935311D01*
X152427209Y-85066414D01*
X152427202Y-85066427D01*
X152366864Y-85212098D01*
X152366861Y-85212110D01*
X152336100Y-85366753D01*
X152336100Y-85524446D01*
X152366861Y-85679089D01*
X152366863Y-85679097D01*
X152376661Y-85702751D01*
X152386100Y-85750204D01*
X152386100Y-86454970D01*
X152366415Y-86522009D01*
X152349781Y-86542651D01*
X146562181Y-92330251D01*
X146500858Y-92363736D01*
X146431166Y-92358752D01*
X146375233Y-92316880D01*
X146350816Y-92251416D01*
X146350500Y-92242570D01*
X146350500Y-77079765D01*
X146355827Y-77061620D01*
X146356165Y-77042713D01*
X146369666Y-77014492D01*
X146370185Y-77012726D01*
X146371397Y-77010875D01*
X146377499Y-77001743D01*
X146414471Y-76946409D01*
X146468081Y-76901607D01*
X146537406Y-76892899D01*
X146600434Y-76923053D01*
G37*
%TD.AperFunction*%
%TA.AperFunction,Conductor*%
G36*
X139396543Y-50970186D02*
G01*
X139442298Y-51022990D01*
X139452242Y-51092148D01*
X139423217Y-51155704D01*
X139417185Y-51162182D01*
X139388055Y-51191311D01*
X139388052Y-51191315D01*
X139297551Y-51338038D01*
X139297546Y-51338049D01*
X139243319Y-51501697D01*
X139233000Y-51602695D01*
X139233000Y-51689350D01*
X141182999Y-51689350D01*
X141182999Y-51602710D01*
X141182998Y-51602695D01*
X141172680Y-51501697D01*
X141118453Y-51338049D01*
X141118448Y-51338038D01*
X141027947Y-51191315D01*
X141027944Y-51191311D01*
X140998815Y-51162182D01*
X140965330Y-51100859D01*
X140970314Y-51031167D01*
X141012186Y-50975234D01*
X141077650Y-50950817D01*
X141086496Y-50950501D01*
X141667113Y-50950501D01*
X141734152Y-50970186D01*
X141779907Y-51022990D01*
X141789851Y-51092148D01*
X141772651Y-51139598D01*
X141700551Y-51256488D01*
X141700546Y-51256499D01*
X141646319Y-51420147D01*
X141636000Y-51521145D01*
X141636000Y-51607800D01*
X143585999Y-51607800D01*
X143585999Y-51521160D01*
X143585998Y-51521145D01*
X143575680Y-51420147D01*
X143521453Y-51256499D01*
X143521448Y-51256488D01*
X143449349Y-51139598D01*
X143430908Y-51072206D01*
X143451830Y-51005542D01*
X143505472Y-50960773D01*
X143554887Y-50950501D01*
X145324363Y-50950501D01*
X145391402Y-50970186D01*
X145437157Y-51022990D01*
X145447101Y-51092148D01*
X145429901Y-51139598D01*
X145342751Y-51280888D01*
X145342746Y-51280899D01*
X145288519Y-51444547D01*
X145278200Y-51545545D01*
X145278200Y-51632200D01*
X147228199Y-51632200D01*
X147228199Y-51545560D01*
X147228198Y-51545545D01*
X147217880Y-51444547D01*
X147163653Y-51280899D01*
X147163648Y-51280888D01*
X147076499Y-51139598D01*
X147058058Y-51072206D01*
X147078980Y-51005542D01*
X147132622Y-50960772D01*
X147182037Y-50950501D01*
X147729592Y-50950501D01*
X147796631Y-50970186D01*
X147842386Y-51022990D01*
X147852330Y-51092148D01*
X147835130Y-51139599D01*
X147755749Y-51268292D01*
X147755746Y-51268299D01*
X147701519Y-51431947D01*
X147691200Y-51532945D01*
X147691200Y-51619600D01*
X149641199Y-51619600D01*
X149641199Y-51532960D01*
X149641198Y-51532945D01*
X149630880Y-51431947D01*
X149576653Y-51268299D01*
X149576650Y-51268292D01*
X149497270Y-51139599D01*
X149478829Y-51072206D01*
X149499751Y-51005543D01*
X149553393Y-50960773D01*
X149602808Y-50950501D01*
X151199294Y-50950501D01*
X151266333Y-50970186D01*
X151312088Y-51022990D01*
X151322032Y-51092148D01*
X151304832Y-51139598D01*
X151260951Y-51210738D01*
X151260946Y-51210749D01*
X151206719Y-51374397D01*
X151196400Y-51475395D01*
X151196400Y-51562050D01*
X153146399Y-51562050D01*
X153146399Y-51475410D01*
X153146398Y-51475395D01*
X153136080Y-51374397D01*
X153081853Y-51210749D01*
X153081848Y-51210738D01*
X153037968Y-51139598D01*
X153019527Y-51072206D01*
X153040449Y-51005542D01*
X153094091Y-50960773D01*
X153143506Y-50950501D01*
X153544174Y-50950501D01*
X153611213Y-50970186D01*
X153656968Y-51022990D01*
X153666912Y-51092148D01*
X153649713Y-51139598D01*
X153597748Y-51223844D01*
X153597746Y-51223849D01*
X153543519Y-51387497D01*
X153533200Y-51488495D01*
X153533200Y-51575150D01*
X155483199Y-51575150D01*
X155483199Y-51488510D01*
X155483198Y-51488495D01*
X155472880Y-51387497D01*
X155418653Y-51223849D01*
X155418651Y-51223844D01*
X155366687Y-51139598D01*
X155348247Y-51072206D01*
X155369169Y-51005542D01*
X155422811Y-50960772D01*
X155472226Y-50950501D01*
X167544109Y-50950501D01*
X167605573Y-50950501D01*
X167614419Y-50950817D01*
X167814562Y-50965131D01*
X167832063Y-50967648D01*
X168023796Y-51009356D01*
X168040755Y-51014335D01*
X168224615Y-51082912D01*
X168240695Y-51090256D01*
X168357493Y-51154033D01*
X168412908Y-51184292D01*
X168427789Y-51193856D01*
X168427791Y-51193857D01*
X168511456Y-51256488D01*
X168584859Y-51311436D01*
X168598231Y-51323022D01*
X168736975Y-51461767D01*
X168748560Y-51475138D01*
X168866145Y-51632213D01*
X168875710Y-51647096D01*
X168969742Y-51819301D01*
X168977092Y-51835395D01*
X169045660Y-52019235D01*
X169050644Y-52036210D01*
X169092350Y-52227932D01*
X169094868Y-52245443D01*
X169099289Y-52307252D01*
X169107815Y-52426461D01*
X169109185Y-52445605D01*
X169109501Y-52454452D01*
X169109501Y-69435387D01*
X169089816Y-69502426D01*
X169037012Y-69548181D01*
X168967854Y-69558125D01*
X168920405Y-69540926D01*
X168892559Y-69523750D01*
X168892550Y-69523746D01*
X168728902Y-69469519D01*
X168627904Y-69459200D01*
X168541250Y-69459200D01*
X168541250Y-71409199D01*
X168627890Y-71409199D01*
X168627904Y-71409198D01*
X168728902Y-71398880D01*
X168892550Y-71344653D01*
X168892559Y-71344649D01*
X168920402Y-71327475D01*
X168987794Y-71309033D01*
X169054458Y-71329954D01*
X169099229Y-71383595D01*
X169109501Y-71433012D01*
X169109501Y-71877827D01*
X169089816Y-71944866D01*
X169037012Y-71990621D01*
X168967854Y-72000565D01*
X168920405Y-71983366D01*
X168886009Y-71962150D01*
X168886000Y-71962146D01*
X168722352Y-71907919D01*
X168621354Y-71897600D01*
X168534700Y-71897600D01*
X168534700Y-73847599D01*
X168621340Y-73847599D01*
X168621354Y-73847598D01*
X168722352Y-73837280D01*
X168886000Y-73783053D01*
X168886006Y-73783050D01*
X168920403Y-73761834D01*
X168987795Y-73743393D01*
X169054459Y-73764315D01*
X169099229Y-73817956D01*
X169109501Y-73867372D01*
X169109501Y-109945573D01*
X169109185Y-109954420D01*
X169094870Y-110154558D01*
X169092352Y-110172069D01*
X169050647Y-110363788D01*
X169045663Y-110380764D01*
X168977092Y-110564609D01*
X168969742Y-110580702D01*
X168875711Y-110752905D01*
X168866146Y-110767788D01*
X168748559Y-110924866D01*
X168736974Y-110938236D01*
X168598237Y-111076973D01*
X168584866Y-111088559D01*
X168427788Y-111206146D01*
X168412905Y-111215711D01*
X168240702Y-111309742D01*
X168224609Y-111317092D01*
X168040764Y-111385663D01*
X168023788Y-111390647D01*
X167832069Y-111432352D01*
X167814558Y-111434870D01*
X167634874Y-111447722D01*
X167614418Y-111449185D01*
X167605573Y-111449501D01*
X164220143Y-111449501D01*
X164153104Y-111429816D01*
X164107349Y-111377012D01*
X164097405Y-111307854D01*
X164126430Y-111244298D01*
X164141478Y-111229648D01*
X164390602Y-111025198D01*
X164647698Y-110768102D01*
X164878355Y-110487045D01*
X165080354Y-110184733D01*
X165251748Y-109864077D01*
X165390887Y-109528165D01*
X165496431Y-109180234D01*
X165496433Y-109180224D01*
X165496436Y-109180213D01*
X165538783Y-108967317D01*
X165571167Y-108905406D01*
X165631883Y-108870832D01*
X165701653Y-108874571D01*
X165758325Y-108915437D01*
X165783906Y-108980455D01*
X165784400Y-108991508D01*
X165784400Y-109632844D01*
X165790801Y-109692372D01*
X165790803Y-109692379D01*
X165841045Y-109827086D01*
X165841049Y-109827093D01*
X165927209Y-109942187D01*
X165927212Y-109942190D01*
X166042306Y-110028350D01*
X166042313Y-110028354D01*
X166177020Y-110078596D01*
X166177027Y-110078598D01*
X166236555Y-110084999D01*
X166236572Y-110085000D01*
X167034400Y-110085000D01*
X167034400Y-109018012D01*
X167091407Y-109050925D01*
X167218574Y-109085000D01*
X167350226Y-109085000D01*
X167477393Y-109050925D01*
X167534400Y-109018012D01*
X167534400Y-110085000D01*
X168332228Y-110085000D01*
X168332244Y-110084999D01*
X168391772Y-110078598D01*
X168391779Y-110078596D01*
X168526486Y-110028354D01*
X168526493Y-110028350D01*
X168641587Y-109942190D01*
X168641590Y-109942187D01*
X168727750Y-109827093D01*
X168727754Y-109827086D01*
X168777996Y-109692379D01*
X168777998Y-109692372D01*
X168784399Y-109632844D01*
X168784400Y-109632827D01*
X168784400Y-108835000D01*
X167717412Y-108835000D01*
X167750325Y-108777993D01*
X167784400Y-108650826D01*
X167784400Y-108519174D01*
X167750325Y-108392007D01*
X167717412Y-108335000D01*
X168784400Y-108335000D01*
X168784400Y-107537172D01*
X168784399Y-107537155D01*
X168777998Y-107477627D01*
X168777996Y-107477620D01*
X168727754Y-107342913D01*
X168727750Y-107342906D01*
X168641590Y-107227812D01*
X168641587Y-107227809D01*
X168526493Y-107141649D01*
X168526486Y-107141645D01*
X168391779Y-107091403D01*
X168391772Y-107091401D01*
X168332244Y-107085000D01*
X167534400Y-107085000D01*
X167534400Y-108151988D01*
X167477393Y-108119075D01*
X167350226Y-108085000D01*
X167218574Y-108085000D01*
X167091407Y-108119075D01*
X167034400Y-108151988D01*
X167034400Y-107085000D01*
X166236555Y-107085000D01*
X166177027Y-107091401D01*
X166177020Y-107091403D01*
X166042313Y-107141645D01*
X166042306Y-107141649D01*
X165927212Y-107227809D01*
X165927209Y-107227812D01*
X165841049Y-107342906D01*
X165841045Y-107342913D01*
X165790803Y-107477620D01*
X165790801Y-107477627D01*
X165784400Y-107537155D01*
X165784400Y-107568493D01*
X165764715Y-107635532D01*
X165711911Y-107681287D01*
X165642753Y-107691231D01*
X165579197Y-107662206D01*
X165541423Y-107603428D01*
X165538783Y-107592684D01*
X165496436Y-107379788D01*
X165496433Y-107379777D01*
X165496432Y-107379774D01*
X165496431Y-107379768D01*
X165390887Y-107031837D01*
X165251748Y-106695925D01*
X165184621Y-106570340D01*
X165080360Y-106375280D01*
X165080359Y-106375278D01*
X165080354Y-106375269D01*
X164878355Y-106072957D01*
X164647698Y-105791900D01*
X164647697Y-105791899D01*
X164647693Y-105791894D01*
X164390607Y-105534808D01*
X164109550Y-105304151D01*
X164109549Y-105304150D01*
X164109545Y-105304147D01*
X163807233Y-105102148D01*
X163807228Y-105102145D01*
X163807221Y-105102141D01*
X163486584Y-104930757D01*
X163486579Y-104930755D01*
X163483935Y-104929660D01*
X163330044Y-104865916D01*
X163150666Y-104791615D01*
X162802724Y-104686068D01*
X162802713Y-104686065D01*
X162446131Y-104615138D01*
X162173612Y-104588297D01*
X162084295Y-104579501D01*
X161720707Y-104579501D01*
X161638180Y-104587629D01*
X161358870Y-104615138D01*
X161002288Y-104686065D01*
X161002277Y-104686068D01*
X160830494Y-104738178D01*
X160760627Y-104738801D01*
X160701514Y-104701553D01*
X160671923Y-104638258D01*
X160670499Y-104619529D01*
X160670499Y-103913389D01*
X165149500Y-103913389D01*
X165149500Y-104086611D01*
X165176598Y-104257701D01*
X165230127Y-104422445D01*
X165308768Y-104576788D01*
X165410586Y-104716928D01*
X165533072Y-104839414D01*
X165673212Y-104941232D01*
X165827555Y-105019873D01*
X165992299Y-105073402D01*
X166163389Y-105100500D01*
X166163390Y-105100500D01*
X166336610Y-105100500D01*
X166336611Y-105100500D01*
X166507701Y-105073402D01*
X166672445Y-105019873D01*
X166826788Y-104941232D01*
X166966928Y-104839414D01*
X167089414Y-104716928D01*
X167191232Y-104576788D01*
X167269873Y-104422445D01*
X167323402Y-104257701D01*
X167350500Y-104086611D01*
X167350500Y-103913389D01*
X167323402Y-103742299D01*
X167269873Y-103577555D01*
X167191232Y-103423212D01*
X167089414Y-103283072D01*
X166966928Y-103160586D01*
X166826788Y-103058768D01*
X166672445Y-102980127D01*
X166507701Y-102926598D01*
X166507699Y-102926597D01*
X166507698Y-102926597D01*
X166376271Y-102905781D01*
X166336611Y-102899500D01*
X166163389Y-102899500D01*
X166123728Y-102905781D01*
X165992302Y-102926597D01*
X165977699Y-102931342D01*
X165835739Y-102977468D01*
X165827552Y-102980128D01*
X165673211Y-103058768D01*
X165643069Y-103080668D01*
X165533072Y-103160586D01*
X165533070Y-103160588D01*
X165533069Y-103160588D01*
X165410588Y-103283069D01*
X165410588Y-103283070D01*
X165410586Y-103283072D01*
X165366859Y-103343256D01*
X165308768Y-103423211D01*
X165230128Y-103577552D01*
X165176597Y-103742302D01*
X165149500Y-103913389D01*
X160670499Y-103913389D01*
X160670499Y-103349992D01*
X160659999Y-103247203D01*
X160604814Y-103080666D01*
X160512712Y-102931344D01*
X160388656Y-102807288D01*
X160239334Y-102715186D01*
X160239333Y-102715185D01*
X160233878Y-102711821D01*
X160187154Y-102659873D01*
X160175931Y-102590910D01*
X160203775Y-102526828D01*
X160211272Y-102518623D01*
X160350104Y-102379792D01*
X160475051Y-102207816D01*
X160571557Y-102018412D01*
X160596402Y-101941945D01*
X160603386Y-101930546D01*
X160605498Y-101920841D01*
X160626642Y-101892595D01*
X160626645Y-101892590D01*
X160650520Y-101868716D01*
X160650521Y-101868713D01*
X161407416Y-101111819D01*
X161468739Y-101078334D01*
X161495097Y-101075500D01*
X161756529Y-101075500D01*
X161756545Y-101075501D01*
X161764141Y-101075501D01*
X161922252Y-101075501D01*
X161922255Y-101075501D01*
X162074983Y-101034577D01*
X162148210Y-100992299D01*
X162166768Y-100981585D01*
X162211907Y-100955524D01*
X162211906Y-100955524D01*
X162211914Y-100955520D01*
X162323718Y-100843716D01*
X162323718Y-100843714D01*
X162333922Y-100833511D01*
X162333926Y-100833506D01*
X163858506Y-99308926D01*
X163858511Y-99308922D01*
X163868714Y-99298718D01*
X163868716Y-99298718D01*
X163980520Y-99186914D01*
X164027070Y-99106287D01*
X164038205Y-99087001D01*
X164038206Y-99086998D01*
X164059576Y-99049985D01*
X164059577Y-99049983D01*
X164100501Y-98897255D01*
X164100501Y-98739141D01*
X164100501Y-98731546D01*
X164100500Y-98731528D01*
X164100500Y-86589060D01*
X164100501Y-86589047D01*
X164100501Y-86420944D01*
X164094006Y-86396705D01*
X164059577Y-86268216D01*
X164027445Y-86212561D01*
X163980524Y-86131290D01*
X163980518Y-86131282D01*
X163834573Y-85985337D01*
X163801088Y-85924014D01*
X163800637Y-85921847D01*
X163769738Y-85766510D01*
X163769737Y-85766503D01*
X163752702Y-85725376D01*
X163709397Y-85620827D01*
X163709390Y-85620814D01*
X163621789Y-85489711D01*
X163621786Y-85489707D01*
X163510292Y-85378213D01*
X163510288Y-85378210D01*
X163379185Y-85290609D01*
X163379172Y-85290602D01*
X163233501Y-85230264D01*
X163233489Y-85230261D01*
X163078845Y-85199500D01*
X163078842Y-85199500D01*
X162921158Y-85199500D01*
X162921155Y-85199500D01*
X162766510Y-85230261D01*
X162766498Y-85230264D01*
X162620827Y-85290602D01*
X162620814Y-85290609D01*
X162489711Y-85378210D01*
X162412160Y-85455761D01*
X162350836Y-85489245D01*
X162281145Y-85484261D01*
X162236798Y-85455760D01*
X160919392Y-84138355D01*
X160919390Y-84138352D01*
X160800519Y-84019481D01*
X160800518Y-84019480D01*
X160787988Y-84012246D01*
X160721675Y-83973960D01*
X160721670Y-83973958D01*
X160713706Y-83969360D01*
X160663587Y-83940423D01*
X160579231Y-83917819D01*
X160572666Y-83915232D01*
X160550432Y-83897939D01*
X160526379Y-83883278D01*
X160520339Y-83874534D01*
X160517514Y-83872337D01*
X160516154Y-83868476D01*
X160507651Y-83856166D01*
X160475051Y-83792184D01*
X160474308Y-83791161D01*
X160350109Y-83620213D01*
X160199790Y-83469894D01*
X160199785Y-83469890D01*
X160034781Y-83350008D01*
X159992115Y-83294678D01*
X159986136Y-83225065D01*
X160018741Y-83163270D01*
X160034781Y-83149371D01*
X160199466Y-83029721D01*
X160349723Y-82879464D01*
X160349727Y-82879459D01*
X160474620Y-82707557D01*
X160571095Y-82518217D01*
X160636757Y-82316129D01*
X160636757Y-82316126D01*
X160647231Y-82250000D01*
X159618482Y-82250000D01*
X159629111Y-82231591D01*
X159670000Y-82078991D01*
X159670000Y-81921009D01*
X159629111Y-81768409D01*
X159618482Y-81750000D01*
X160647231Y-81750000D01*
X160636757Y-81683873D01*
X160636757Y-81683870D01*
X160571095Y-81481782D01*
X160474620Y-81292442D01*
X160349727Y-81120540D01*
X160349723Y-81120535D01*
X160199464Y-80970276D01*
X160199459Y-80970272D01*
X160034781Y-80850627D01*
X159992115Y-80795297D01*
X159986136Y-80725684D01*
X160018741Y-80663889D01*
X160034776Y-80649994D01*
X160199792Y-80530104D01*
X160350104Y-80379792D01*
X160350106Y-80379788D01*
X160350109Y-80379786D01*
X160451022Y-80240889D01*
X160475051Y-80207816D01*
X160482328Y-80193535D01*
X160495235Y-80168205D01*
X160543209Y-80117409D01*
X160605719Y-80100500D01*
X160925099Y-80100500D01*
X160992138Y-80120185D01*
X161030638Y-80159404D01*
X161054467Y-80198038D01*
X161054660Y-80198350D01*
X161176650Y-80320340D01*
X161323484Y-80410908D01*
X161487247Y-80465174D01*
X161588323Y-80475500D01*
X162186676Y-80475499D01*
X162186684Y-80475498D01*
X162186687Y-80475498D01*
X162242030Y-80469844D01*
X162287753Y-80465174D01*
X162451516Y-80410908D01*
X162598350Y-80320340D01*
X162712675Y-80206014D01*
X162773994Y-80172532D01*
X162843686Y-80177516D01*
X162888034Y-80206017D01*
X163001961Y-80319944D01*
X163001965Y-80319947D01*
X163148688Y-80410448D01*
X163148699Y-80410453D01*
X163312347Y-80464680D01*
X163413351Y-80474999D01*
X163962500Y-80474999D01*
X164011640Y-80474999D01*
X164011654Y-80474998D01*
X164112652Y-80464680D01*
X164276300Y-80410453D01*
X164276311Y-80410448D01*
X164423034Y-80319947D01*
X164423038Y-80319944D01*
X164544944Y-80198038D01*
X164544947Y-80198034D01*
X164635448Y-80051311D01*
X164635453Y-80051300D01*
X164689680Y-79887652D01*
X164699999Y-79786654D01*
X164700000Y-79786641D01*
X164700000Y-79750000D01*
X163962500Y-79750000D01*
X163962500Y-80474999D01*
X163413351Y-80474999D01*
X163462499Y-80474998D01*
X163462500Y-80474998D01*
X163462500Y-79250000D01*
X163962500Y-79250000D01*
X164699999Y-79250000D01*
X164699999Y-79213360D01*
X164699998Y-79213345D01*
X164689680Y-79112347D01*
X164635453Y-78948699D01*
X164635448Y-78948688D01*
X164544947Y-78801965D01*
X164544944Y-78801961D01*
X164423038Y-78680055D01*
X164423034Y-78680052D01*
X164276311Y-78589551D01*
X164276300Y-78589546D01*
X164112652Y-78535319D01*
X164011654Y-78525000D01*
X163962500Y-78525000D01*
X163962500Y-79250000D01*
X163462500Y-79250000D01*
X163462500Y-78525000D01*
X163462499Y-78524999D01*
X163413361Y-78525000D01*
X163413343Y-78525001D01*
X163312347Y-78535319D01*
X163148699Y-78589546D01*
X163148688Y-78589551D01*
X163001965Y-78680052D01*
X162888034Y-78793983D01*
X162826711Y-78827467D01*
X162757019Y-78822483D01*
X162712672Y-78793982D01*
X162598351Y-78679661D01*
X162598350Y-78679660D01*
X162491892Y-78613996D01*
X162451518Y-78589093D01*
X162451513Y-78589091D01*
X162450069Y-78588612D01*
X162287753Y-78534826D01*
X162287751Y-78534825D01*
X162186678Y-78524500D01*
X161588330Y-78524500D01*
X161588312Y-78524501D01*
X161487247Y-78534825D01*
X161323484Y-78589092D01*
X161323481Y-78589093D01*
X161176648Y-78679661D01*
X161054659Y-78801650D01*
X161030638Y-78840596D01*
X160978690Y-78887321D01*
X160925099Y-78899500D01*
X160605719Y-78899500D01*
X160538680Y-78879815D01*
X160495235Y-78831795D01*
X160475052Y-78792185D01*
X160475051Y-78792184D01*
X160350109Y-78620213D01*
X160199786Y-78469890D01*
X160027820Y-78344951D01*
X159838414Y-78248444D01*
X159838413Y-78248443D01*
X159838412Y-78248443D01*
X159636243Y-78182754D01*
X159636241Y-78182753D01*
X159636240Y-78182753D01*
X159457483Y-78154441D01*
X159426287Y-78149500D01*
X158713713Y-78149500D01*
X158682517Y-78154441D01*
X158503760Y-78182753D01*
X158301585Y-78248444D01*
X158112179Y-78344951D01*
X157940213Y-78469890D01*
X157789890Y-78620213D01*
X157664951Y-78792179D01*
X157568444Y-78981585D01*
X157502753Y-79183760D01*
X157476198Y-79351421D01*
X157469500Y-79393713D01*
X157469500Y-79606287D01*
X157476702Y-79651758D01*
X157501676Y-79809442D01*
X157502754Y-79816243D01*
X157567420Y-80015265D01*
X157568444Y-80018414D01*
X157664951Y-80207820D01*
X157789890Y-80379786D01*
X157940209Y-80530105D01*
X157940214Y-80530109D01*
X158105218Y-80649991D01*
X158147884Y-80705320D01*
X158153863Y-80774934D01*
X158121258Y-80836729D01*
X158105218Y-80850627D01*
X157940540Y-80970272D01*
X157940535Y-80970276D01*
X157790276Y-81120535D01*
X157790272Y-81120540D01*
X157665379Y-81292442D01*
X157568904Y-81481782D01*
X157503242Y-81683870D01*
X157503242Y-81683873D01*
X157492769Y-81750000D01*
X158521518Y-81750000D01*
X158510889Y-81768409D01*
X158470000Y-81921009D01*
X158470000Y-82078991D01*
X158510889Y-82231591D01*
X158521518Y-82250000D01*
X157492769Y-82250000D01*
X157503242Y-82316126D01*
X157503242Y-82316129D01*
X157568904Y-82518217D01*
X157665379Y-82707557D01*
X157790272Y-82879459D01*
X157790276Y-82879464D01*
X157940535Y-83029723D01*
X157940540Y-83029727D01*
X158105218Y-83149372D01*
X158147884Y-83204701D01*
X158153863Y-83274315D01*
X158121258Y-83336110D01*
X158105218Y-83350008D01*
X157940214Y-83469890D01*
X157940209Y-83469894D01*
X157789890Y-83620213D01*
X157664948Y-83792184D01*
X157664947Y-83792185D01*
X157644765Y-83831795D01*
X157634316Y-83842857D01*
X157627994Y-83856703D01*
X157610812Y-83867744D01*
X157596791Y-83882591D01*
X157581111Y-83886832D01*
X157569216Y-83894477D01*
X157534281Y-83899500D01*
X157506495Y-83899500D01*
X157439456Y-83879815D01*
X157418814Y-83863181D01*
X146399369Y-72843736D01*
X146365884Y-72782413D01*
X146370868Y-72712721D01*
X146383946Y-72687168D01*
X146451596Y-72585924D01*
X146459389Y-72574261D01*
X146459390Y-72574258D01*
X146459394Y-72574253D01*
X146519737Y-72428571D01*
X146550500Y-72273916D01*
X146550500Y-72116232D01*
X146550500Y-72116229D01*
X146550499Y-72116227D01*
X146545597Y-72091582D01*
X146519737Y-71961577D01*
X146510835Y-71940086D01*
X146459397Y-71815901D01*
X146459390Y-71815888D01*
X146371398Y-71684199D01*
X146350520Y-71617521D01*
X146350500Y-71615308D01*
X146350500Y-71470943D01*
X146350499Y-71470936D01*
X146350228Y-71469924D01*
X146350228Y-71469925D01*
X146329565Y-71392811D01*
X146309577Y-71318215D01*
X146251875Y-71218273D01*
X146230520Y-71181284D01*
X146118716Y-71069480D01*
X146118713Y-71069478D01*
X145559320Y-70510085D01*
X145525835Y-70448762D01*
X145523001Y-70422404D01*
X145523001Y-68579765D01*
X145542686Y-68512726D01*
X145543899Y-68510874D01*
X145631891Y-68379185D01*
X145631891Y-68379184D01*
X145631895Y-68379179D01*
X145692238Y-68233497D01*
X145723001Y-68078842D01*
X145723001Y-67921158D01*
X145723001Y-67921155D01*
X145723000Y-67921153D01*
X145718534Y-67898700D01*
X145692238Y-67766503D01*
X145688592Y-67757701D01*
X145631898Y-67620827D01*
X145631891Y-67620814D01*
X145543899Y-67489125D01*
X145523021Y-67422447D01*
X145523001Y-67420234D01*
X145523001Y-66253300D01*
X145542686Y-66186261D01*
X145595490Y-66140506D01*
X145647001Y-66129300D01*
X145801345Y-66129300D01*
X145801346Y-66129299D01*
X145955998Y-66098537D01*
X146101680Y-66038194D01*
X146232790Y-65950589D01*
X146344290Y-65839089D01*
X146431895Y-65707979D01*
X146492238Y-65562297D01*
X146512525Y-65460309D01*
X146544910Y-65398398D01*
X146605625Y-65363824D01*
X146634142Y-65360500D01*
X146845372Y-65360500D01*
X146845373Y-65360500D01*
X146904984Y-65354092D01*
X146904985Y-65354091D01*
X146909251Y-65353633D01*
X146935760Y-65353634D01*
X146940021Y-65354092D01*
X146999631Y-65360501D01*
X147645376Y-65360500D01*
X147645378Y-65360499D01*
X147645391Y-65360499D01*
X147670808Y-65357766D01*
X147704987Y-65354092D01*
X147704990Y-65354090D01*
X147711592Y-65353381D01*
X147738106Y-65353381D01*
X147799661Y-65360000D01*
X147799673Y-65360001D01*
X147872501Y-65360001D01*
X147872501Y-65341412D01*
X147892186Y-65274373D01*
X147904145Y-65258669D01*
X147912346Y-65249515D01*
X147955050Y-65217547D01*
X148026512Y-65122086D01*
X148030146Y-65118030D01*
X148055391Y-65102390D01*
X148079169Y-65084591D01*
X148084769Y-65084190D01*
X148089542Y-65081234D01*
X148119233Y-65081725D01*
X148148860Y-65079607D01*
X148153788Y-65082298D01*
X148159402Y-65082391D01*
X148184119Y-65098859D01*
X148210183Y-65113092D01*
X148216610Y-65120508D01*
X148217547Y-65121133D01*
X148217949Y-65122054D01*
X148221769Y-65126462D01*
X148289955Y-65217548D01*
X148322810Y-65242142D01*
X148364682Y-65298075D01*
X148372501Y-65341410D01*
X148372501Y-65360001D01*
X148445329Y-65360001D01*
X148445340Y-65360000D01*
X148506896Y-65353381D01*
X148533410Y-65353381D01*
X148540015Y-65354091D01*
X148540018Y-65354092D01*
X148599628Y-65360501D01*
X148998001Y-65360500D01*
X149065040Y-65380184D01*
X149110795Y-65432988D01*
X149122001Y-65484500D01*
X149122001Y-66039477D01*
X149102316Y-66106516D01*
X149101103Y-66108368D01*
X149033135Y-66210088D01*
X149033128Y-66210101D01*
X148972790Y-66355772D01*
X148972787Y-66355784D01*
X148942026Y-66510427D01*
X148942026Y-66668120D01*
X148972787Y-66822763D01*
X148972790Y-66822775D01*
X149033128Y-66968446D01*
X149033135Y-66968459D01*
X149120736Y-67099562D01*
X149120739Y-67099566D01*
X149232233Y-67211060D01*
X149232237Y-67211063D01*
X149363340Y-67298664D01*
X149363353Y-67298671D01*
X149509024Y-67359009D01*
X149509029Y-67359011D01*
X149573673Y-67371869D01*
X149664375Y-67389912D01*
X149726286Y-67422297D01*
X149727865Y-67423848D01*
X152400537Y-70096520D01*
X152400539Y-70096521D01*
X152400543Y-70096524D01*
X152488879Y-70147524D01*
X152537469Y-70175577D01*
X152690196Y-70216501D01*
X152690198Y-70216501D01*
X152855907Y-70216501D01*
X152855923Y-70216500D01*
X154907441Y-70216500D01*
X154974480Y-70236185D01*
X155020235Y-70288989D01*
X155022002Y-70293047D01*
X155061639Y-70388741D01*
X155061644Y-70388750D01*
X155149245Y-70519853D01*
X155149248Y-70519857D01*
X155260742Y-70631351D01*
X155260746Y-70631354D01*
X155391849Y-70718955D01*
X155391862Y-70718962D01*
X155537533Y-70779300D01*
X155537538Y-70779302D01*
X155692188Y-70810064D01*
X155692191Y-70810065D01*
X155692193Y-70810065D01*
X155849879Y-70810065D01*
X155849880Y-70810064D01*
X156004532Y-70779302D01*
X156150214Y-70718959D01*
X156263127Y-70643513D01*
X156329804Y-70622635D01*
X156397184Y-70641119D01*
X156419699Y-70658934D01*
X157371129Y-71610365D01*
X157404614Y-71671688D01*
X157399630Y-71741380D01*
X157357758Y-71797313D01*
X157292294Y-71821730D01*
X157224021Y-71806878D01*
X157214557Y-71801148D01*
X157198784Y-71790609D01*
X157198772Y-71790602D01*
X157053101Y-71730264D01*
X157053089Y-71730261D01*
X156898445Y-71699500D01*
X156898442Y-71699500D01*
X156740758Y-71699500D01*
X156740755Y-71699500D01*
X156586110Y-71730261D01*
X156586098Y-71730264D01*
X156440427Y-71790602D01*
X156440414Y-71790609D01*
X156321298Y-71870201D01*
X156303252Y-71875851D01*
X156287343Y-71886076D01*
X156256380Y-71890527D01*
X156254620Y-71891079D01*
X156252408Y-71891099D01*
X156147943Y-71891099D01*
X156147939Y-71891099D01*
X156140332Y-71891100D01*
X156140331Y-71891099D01*
X156140331Y-71891100D01*
X155925901Y-71891100D01*
X155858862Y-71871415D01*
X155820362Y-71832196D01*
X155796340Y-71793250D01*
X155674351Y-71671261D01*
X155674350Y-71671260D01*
X155527516Y-71580692D01*
X155363753Y-71526426D01*
X155363751Y-71526425D01*
X155262678Y-71516100D01*
X154664330Y-71516100D01*
X154664312Y-71516101D01*
X154563247Y-71526425D01*
X154399484Y-71580692D01*
X154399481Y-71580693D01*
X154252648Y-71671261D01*
X154138681Y-71785229D01*
X154130735Y-71789567D01*
X154125310Y-71796815D01*
X154100550Y-71806049D01*
X154077358Y-71818714D01*
X154068328Y-71818068D01*
X154059846Y-71821232D01*
X154034025Y-71815615D01*
X154007666Y-71813730D01*
X153998612Y-71807911D01*
X153991573Y-71806380D01*
X153963319Y-71785229D01*
X153958454Y-71780364D01*
X153924969Y-71719041D01*
X153924518Y-71668494D01*
X153937100Y-71605242D01*
X153937100Y-71447558D01*
X153937100Y-71447555D01*
X153937099Y-71447553D01*
X153932126Y-71422551D01*
X153906337Y-71292903D01*
X153878367Y-71225376D01*
X153845997Y-71147227D01*
X153845990Y-71147214D01*
X153758389Y-71016111D01*
X153758386Y-71016107D01*
X153646892Y-70904613D01*
X153646888Y-70904610D01*
X153515785Y-70817009D01*
X153515772Y-70817002D01*
X153370101Y-70756664D01*
X153370089Y-70756661D01*
X153215445Y-70725900D01*
X153215442Y-70725900D01*
X153057758Y-70725900D01*
X153057755Y-70725900D01*
X152903110Y-70756661D01*
X152903098Y-70756664D01*
X152757427Y-70817002D01*
X152757414Y-70817009D01*
X152626311Y-70904610D01*
X152626307Y-70904613D01*
X152514813Y-71016107D01*
X152514810Y-71016111D01*
X152427209Y-71147214D01*
X152427202Y-71147227D01*
X152366864Y-71292898D01*
X152366861Y-71292910D01*
X152336100Y-71447553D01*
X152336100Y-71605246D01*
X152349311Y-71671661D01*
X152343084Y-71741252D01*
X152315378Y-71783530D01*
X152305663Y-71793245D01*
X152215093Y-71940081D01*
X152215091Y-71940086D01*
X152195050Y-72000565D01*
X152160826Y-72103847D01*
X152160826Y-72103848D01*
X152160825Y-72103848D01*
X152150500Y-72204915D01*
X152150500Y-72778269D01*
X152150501Y-72778287D01*
X152160825Y-72879352D01*
X152215092Y-73043115D01*
X152215093Y-73043118D01*
X152245306Y-73092100D01*
X152297561Y-73176820D01*
X152305661Y-73189951D01*
X152351681Y-73235971D01*
X152385166Y-73297294D01*
X152388000Y-73323652D01*
X152388000Y-76885996D01*
X152378562Y-76933444D01*
X152371794Y-76949786D01*
X152368762Y-76957106D01*
X152368760Y-76957111D01*
X152338000Y-77111753D01*
X152338000Y-77269446D01*
X152368761Y-77424089D01*
X152368764Y-77424101D01*
X152429102Y-77569772D01*
X152429109Y-77569785D01*
X152516710Y-77700888D01*
X152516713Y-77700892D01*
X152628207Y-77812386D01*
X152628211Y-77812389D01*
X152759314Y-77899990D01*
X152759327Y-77899997D01*
X152904998Y-77960335D01*
X152905003Y-77960337D01*
X153034828Y-77986161D01*
X153059653Y-77991099D01*
X153059656Y-77991100D01*
X153059658Y-77991100D01*
X153217344Y-77991100D01*
X153217345Y-77991099D01*
X153371997Y-77960337D01*
X153517679Y-77899994D01*
X153648789Y-77812389D01*
X153760289Y-77700889D01*
X153847894Y-77569779D01*
X153848472Y-77568385D01*
X153899047Y-77446284D01*
X153908237Y-77424097D01*
X153939000Y-77269442D01*
X153939000Y-77111758D01*
X153939000Y-77111755D01*
X153938999Y-77111753D01*
X153908239Y-76957111D01*
X153908238Y-76957108D01*
X153908237Y-76957103D01*
X153898437Y-76933444D01*
X153889000Y-76885996D01*
X153889000Y-73323652D01*
X153908685Y-73256613D01*
X153925319Y-73235971D01*
X153963319Y-73197971D01*
X153971264Y-73193632D01*
X153976690Y-73186385D01*
X154001449Y-73177150D01*
X154024642Y-73164486D01*
X154033671Y-73165131D01*
X154042154Y-73161968D01*
X154067974Y-73167584D01*
X154094334Y-73169470D01*
X154103387Y-73175288D01*
X154110427Y-73176820D01*
X154138681Y-73197971D01*
X154216055Y-73275345D01*
X154249540Y-73336668D01*
X154244556Y-73406360D01*
X154231486Y-73431902D01*
X154230613Y-73433207D01*
X154230602Y-73433228D01*
X154170264Y-73578898D01*
X154170261Y-73578910D01*
X154139500Y-73733553D01*
X154139500Y-73891246D01*
X154170261Y-74045889D01*
X154170264Y-74045901D01*
X154230602Y-74191572D01*
X154230609Y-74191585D01*
X154318602Y-74323274D01*
X154339480Y-74389951D01*
X154339500Y-74392165D01*
X154339500Y-79150834D01*
X154319815Y-79217873D01*
X154318602Y-79219725D01*
X154230609Y-79351414D01*
X154230602Y-79351427D01*
X154170264Y-79497098D01*
X154170261Y-79497110D01*
X154139500Y-79651753D01*
X154139500Y-79809446D01*
X154170261Y-79964089D01*
X154170264Y-79964101D01*
X154230602Y-80109772D01*
X154230609Y-80109785D01*
X154318210Y-80240888D01*
X154318213Y-80240892D01*
X154429707Y-80352386D01*
X154429711Y-80352389D01*
X154560814Y-80439990D01*
X154560827Y-80439997D01*
X154695511Y-80495784D01*
X154706503Y-80500337D01*
X154856146Y-80530103D01*
X154861153Y-80531099D01*
X154861156Y-80531100D01*
X154861158Y-80531100D01*
X155018844Y-80531100D01*
X155018845Y-80531099D01*
X155173497Y-80500337D01*
X155319179Y-80439994D01*
X155450289Y-80352389D01*
X155561789Y-80240889D01*
X155649394Y-80109779D01*
X155653238Y-80100500D01*
X155679519Y-80037050D01*
X155709737Y-79964097D01*
X155740500Y-79809442D01*
X155740500Y-79651758D01*
X155740500Y-79651755D01*
X155740499Y-79651753D01*
X155727541Y-79586610D01*
X155709737Y-79497103D01*
X155655135Y-79365281D01*
X155649397Y-79351427D01*
X155649390Y-79351414D01*
X155561398Y-79219725D01*
X155540520Y-79153047D01*
X155540500Y-79150834D01*
X155540500Y-74392165D01*
X155560185Y-74325126D01*
X155561398Y-74323274D01*
X155649390Y-74191585D01*
X155649390Y-74191584D01*
X155649394Y-74191579D01*
X155709737Y-74045897D01*
X155740500Y-73891242D01*
X155740500Y-73733558D01*
X155740500Y-73733555D01*
X155740499Y-73733553D01*
X155733630Y-73699020D01*
X155709737Y-73578903D01*
X155652886Y-73441653D01*
X155651128Y-73425296D01*
X155644490Y-73410243D01*
X155647470Y-73391277D01*
X155645418Y-73372187D01*
X155652881Y-73356845D01*
X155655337Y-73341221D01*
X155671989Y-73317567D01*
X155674805Y-73311781D01*
X155677191Y-73309098D01*
X155796340Y-73189950D01*
X155826054Y-73141774D01*
X155833258Y-73133678D01*
X155854072Y-73120683D01*
X155872310Y-73104279D01*
X155884947Y-73101407D01*
X155892525Y-73096676D01*
X155905044Y-73096839D01*
X155925901Y-73092100D01*
X156108668Y-73092100D01*
X156140760Y-73096325D01*
X156142679Y-73096839D01*
X156156342Y-73100500D01*
X156156343Y-73100500D01*
X156239834Y-73100500D01*
X156306873Y-73120185D01*
X156308725Y-73121398D01*
X156440414Y-73209390D01*
X156440427Y-73209397D01*
X156563445Y-73260352D01*
X156586103Y-73269737D01*
X156740753Y-73300499D01*
X156740756Y-73300500D01*
X156740758Y-73300500D01*
X156898444Y-73300500D01*
X156898445Y-73300499D01*
X157053097Y-73269737D01*
X157198779Y-73209394D01*
X157329889Y-73121789D01*
X157428632Y-73023045D01*
X157489953Y-72989562D01*
X157559645Y-72994546D01*
X157615579Y-73036417D01*
X157626794Y-73054429D01*
X157660299Y-73120185D01*
X157704951Y-73207820D01*
X157829890Y-73379786D01*
X157969068Y-73518964D01*
X158002553Y-73580287D01*
X157997569Y-73649979D01*
X157955697Y-73705912D01*
X157946484Y-73712183D01*
X157791659Y-73807680D01*
X157791655Y-73807683D01*
X157667684Y-73931654D01*
X157575643Y-74080875D01*
X157575641Y-74080880D01*
X157520494Y-74247302D01*
X157520493Y-74247309D01*
X157510000Y-74350013D01*
X157510000Y-74750000D01*
X158561518Y-74750000D01*
X158550889Y-74768409D01*
X158510000Y-74921009D01*
X158510000Y-75078991D01*
X158550889Y-75231591D01*
X158561518Y-75250000D01*
X157510001Y-75250000D01*
X157510001Y-75649986D01*
X157520494Y-75752697D01*
X157575641Y-75919119D01*
X157575643Y-75919124D01*
X157667684Y-76068345D01*
X157791654Y-76192315D01*
X157940875Y-76284356D01*
X157940880Y-76284358D01*
X158107302Y-76339505D01*
X158107309Y-76339506D01*
X158210019Y-76349999D01*
X158859999Y-76349999D01*
X158860000Y-76349998D01*
X158860000Y-75548482D01*
X158878409Y-75559111D01*
X159031009Y-75600000D01*
X159188991Y-75600000D01*
X159341591Y-75559111D01*
X159360000Y-75548482D01*
X159360000Y-76349999D01*
X160009972Y-76349999D01*
X160009986Y-76349998D01*
X160112697Y-76339505D01*
X160279119Y-76284358D01*
X160279124Y-76284356D01*
X160428345Y-76192315D01*
X160552315Y-76068345D01*
X160644356Y-75919124D01*
X160644358Y-75919119D01*
X160699505Y-75752697D01*
X160699506Y-75752690D01*
X160709999Y-75649986D01*
X160710000Y-75649973D01*
X160710000Y-75250000D01*
X159658482Y-75250000D01*
X159669111Y-75231591D01*
X159710000Y-75078991D01*
X159710000Y-74921009D01*
X159669111Y-74768409D01*
X159658482Y-74750000D01*
X160709999Y-74750000D01*
X160709999Y-74350028D01*
X160709998Y-74350013D01*
X160699505Y-74247302D01*
X160644358Y-74080880D01*
X160644356Y-74080875D01*
X160552315Y-73931654D01*
X160428345Y-73807684D01*
X160273515Y-73712184D01*
X160226791Y-73660236D01*
X160215568Y-73591273D01*
X160243412Y-73527191D01*
X160250909Y-73518986D01*
X160390104Y-73379792D01*
X160515051Y-73207816D01*
X160611557Y-73018412D01*
X160677246Y-72816243D01*
X160710500Y-72606287D01*
X160710500Y-72585915D01*
X162109200Y-72585915D01*
X162109200Y-73159269D01*
X162109201Y-73159287D01*
X162119525Y-73260352D01*
X162173792Y-73424115D01*
X162173793Y-73424118D01*
X162264361Y-73570951D01*
X162310381Y-73616971D01*
X162343866Y-73678294D01*
X162346700Y-73704652D01*
X162346700Y-73791721D01*
X162346700Y-73791723D01*
X162346699Y-73791723D01*
X162375540Y-73936710D01*
X162375543Y-73936720D01*
X162432114Y-74073294D01*
X162432116Y-74073298D01*
X162453247Y-74104923D01*
X162463672Y-74120526D01*
X162514249Y-74196221D01*
X162514252Y-74196224D01*
X165278781Y-76960752D01*
X165278783Y-76960754D01*
X165308255Y-76980445D01*
X165352467Y-77009986D01*
X165401702Y-77042884D01*
X165401703Y-77042884D01*
X165401704Y-77042885D01*
X165401706Y-77042886D01*
X165538279Y-77099456D01*
X165538284Y-77099458D01*
X165538288Y-77099458D01*
X165538289Y-77099459D01*
X165683276Y-77128300D01*
X165683279Y-77128300D01*
X165683280Y-77128300D01*
X165831115Y-77128300D01*
X166287170Y-77128300D01*
X166354209Y-77147985D01*
X166374851Y-77164619D01*
X167183381Y-77973148D01*
X167216866Y-78034471D01*
X167219700Y-78060829D01*
X167219700Y-78613996D01*
X167200015Y-78681035D01*
X167147211Y-78726790D01*
X167078053Y-78736734D01*
X167014497Y-78707709D01*
X167008019Y-78701677D01*
X166966930Y-78660588D01*
X166966928Y-78660586D01*
X166826788Y-78558768D01*
X166672445Y-78480127D01*
X166507701Y-78426598D01*
X166507699Y-78426597D01*
X166507698Y-78426597D01*
X166376271Y-78405781D01*
X166336611Y-78399500D01*
X166163389Y-78399500D01*
X166123728Y-78405781D01*
X165992302Y-78426597D01*
X165827552Y-78480128D01*
X165673211Y-78558768D01*
X165597197Y-78613996D01*
X165533072Y-78660586D01*
X165533070Y-78660588D01*
X165533069Y-78660588D01*
X165410588Y-78783069D01*
X165410588Y-78783070D01*
X165410586Y-78783072D01*
X165383837Y-78819889D01*
X165308768Y-78923211D01*
X165230128Y-79077552D01*
X165176597Y-79242302D01*
X165152616Y-79393713D01*
X165149500Y-79413389D01*
X165149500Y-79586611D01*
X165176598Y-79757701D01*
X165230127Y-79922445D01*
X165308768Y-80076788D01*
X165410586Y-80216928D01*
X165533072Y-80339414D01*
X165673212Y-80441232D01*
X165827555Y-80519873D01*
X165992299Y-80573402D01*
X166163389Y-80600500D01*
X166163390Y-80600500D01*
X166336610Y-80600500D01*
X166336611Y-80600500D01*
X166507701Y-80573402D01*
X166672445Y-80519873D01*
X166826788Y-80441232D01*
X166966928Y-80339414D01*
X167008019Y-80298323D01*
X167069342Y-80264838D01*
X167139034Y-80269822D01*
X167194967Y-80311694D01*
X167219384Y-80377158D01*
X167219700Y-80386004D01*
X167219700Y-88613996D01*
X167200015Y-88681035D01*
X167147211Y-88726790D01*
X167078053Y-88736734D01*
X167014497Y-88707709D01*
X167008019Y-88701677D01*
X166966930Y-88660588D01*
X166966928Y-88660586D01*
X166826788Y-88558768D01*
X166672445Y-88480127D01*
X166507701Y-88426598D01*
X166507699Y-88426597D01*
X166507698Y-88426597D01*
X166376271Y-88405781D01*
X166336611Y-88399500D01*
X166163389Y-88399500D01*
X166123728Y-88405781D01*
X165992302Y-88426597D01*
X165827552Y-88480128D01*
X165673211Y-88558768D01*
X165643069Y-88580668D01*
X165533072Y-88660586D01*
X165533070Y-88660588D01*
X165533069Y-88660588D01*
X165410588Y-88783069D01*
X165410588Y-88783070D01*
X165410586Y-88783072D01*
X165394249Y-88805558D01*
X165308768Y-88923211D01*
X165230128Y-89077552D01*
X165176597Y-89242302D01*
X165149500Y-89413389D01*
X165149500Y-89586610D01*
X165176597Y-89757697D01*
X165230128Y-89922447D01*
X165280300Y-90020915D01*
X165308768Y-90076788D01*
X165410586Y-90216928D01*
X165533072Y-90339414D01*
X165673212Y-90441232D01*
X165827555Y-90519873D01*
X165992299Y-90573402D01*
X166163389Y-90600500D01*
X166163390Y-90600500D01*
X166336610Y-90600500D01*
X166336611Y-90600500D01*
X166507701Y-90573402D01*
X166672445Y-90519873D01*
X166826788Y-90441232D01*
X166966928Y-90339414D01*
X167008019Y-90298323D01*
X167069342Y-90264838D01*
X167139034Y-90269822D01*
X167194967Y-90311694D01*
X167219384Y-90377158D01*
X167219700Y-90386004D01*
X167219700Y-93113996D01*
X167200015Y-93181035D01*
X167147211Y-93226790D01*
X167078053Y-93236734D01*
X167014497Y-93207709D01*
X167008019Y-93201677D01*
X166966930Y-93160588D01*
X166966928Y-93160586D01*
X166826788Y-93058768D01*
X166672445Y-92980127D01*
X166507701Y-92926598D01*
X166507699Y-92926597D01*
X166507698Y-92926597D01*
X166376271Y-92905781D01*
X166336611Y-92899500D01*
X166163389Y-92899500D01*
X166123728Y-92905781D01*
X165992302Y-92926597D01*
X165827552Y-92980128D01*
X165673211Y-93058768D01*
X165597197Y-93113996D01*
X165533072Y-93160586D01*
X165533070Y-93160588D01*
X165533069Y-93160588D01*
X165410588Y-93283069D01*
X165410588Y-93283070D01*
X165410586Y-93283072D01*
X165403966Y-93292184D01*
X165308768Y-93423211D01*
X165230128Y-93577552D01*
X165176597Y-93742302D01*
X165149500Y-93913389D01*
X165149500Y-94086610D01*
X165176578Y-94257578D01*
X165176598Y-94257701D01*
X165230127Y-94422445D01*
X165308768Y-94576788D01*
X165410586Y-94716928D01*
X165533072Y-94839414D01*
X165673212Y-94941232D01*
X165827555Y-95019873D01*
X165992299Y-95073402D01*
X166163389Y-95100500D01*
X166163390Y-95100500D01*
X166336610Y-95100500D01*
X166336611Y-95100500D01*
X166507701Y-95073402D01*
X166672445Y-95019873D01*
X166826788Y-94941232D01*
X166966928Y-94839414D01*
X167008019Y-94798323D01*
X167069342Y-94764838D01*
X167139034Y-94769822D01*
X167194967Y-94811694D01*
X167219384Y-94877158D01*
X167219700Y-94886004D01*
X167219700Y-99264300D01*
X167200015Y-99331339D01*
X167147211Y-99377094D01*
X167095700Y-99388300D01*
X166287329Y-99388300D01*
X166287323Y-99388301D01*
X166227716Y-99394708D01*
X166092871Y-99445002D01*
X166092864Y-99445006D01*
X165977655Y-99531252D01*
X165977652Y-99531255D01*
X165891406Y-99646464D01*
X165891402Y-99646471D01*
X165841108Y-99781317D01*
X165834868Y-99839367D01*
X165834701Y-99840923D01*
X165834700Y-99840935D01*
X165834700Y-101936670D01*
X165834701Y-101936676D01*
X165841108Y-101996283D01*
X165891402Y-102131128D01*
X165891406Y-102131135D01*
X165977652Y-102246344D01*
X165977655Y-102246347D01*
X166092864Y-102332593D01*
X166092871Y-102332597D01*
X166227717Y-102382891D01*
X166227716Y-102382891D01*
X166232563Y-102383412D01*
X166287327Y-102389300D01*
X168383072Y-102389299D01*
X168442683Y-102382891D01*
X168577531Y-102332596D01*
X168692746Y-102246346D01*
X168778996Y-102131131D01*
X168829291Y-101996283D01*
X168835700Y-101936673D01*
X168835699Y-99840928D01*
X168829291Y-99781317D01*
X168825616Y-99771465D01*
X168778997Y-99646471D01*
X168778993Y-99646465D01*
X168745433Y-99601633D01*
X168721016Y-99536169D01*
X168720700Y-99527323D01*
X168720700Y-77624679D01*
X168691859Y-77479692D01*
X168691858Y-77479691D01*
X168691858Y-77479687D01*
X168679358Y-77449509D01*
X168635287Y-77343111D01*
X168635280Y-77343098D01*
X168553152Y-77220185D01*
X168553151Y-77220184D01*
X168448616Y-77115649D01*
X167170839Y-75837871D01*
X167137354Y-75776548D01*
X167142338Y-75706856D01*
X167158200Y-75677307D01*
X167231232Y-75576788D01*
X167309873Y-75422445D01*
X167363402Y-75257701D01*
X167390500Y-75086611D01*
X167390500Y-74913389D01*
X167363402Y-74742299D01*
X167309873Y-74577555D01*
X167231232Y-74423212D01*
X167129414Y-74283072D01*
X167006928Y-74160586D01*
X166951790Y-74120526D01*
X166875618Y-74065183D01*
X166832953Y-74009852D01*
X166826974Y-73940239D01*
X166859580Y-73878444D01*
X166920419Y-73844087D01*
X166935899Y-73841507D01*
X166972453Y-73837774D01*
X167136216Y-73783508D01*
X167283050Y-73692940D01*
X167322373Y-73653616D01*
X167383694Y-73620132D01*
X167453385Y-73625116D01*
X167497734Y-73653617D01*
X167536661Y-73692544D01*
X167536665Y-73692547D01*
X167683388Y-73783048D01*
X167683399Y-73783053D01*
X167847047Y-73837280D01*
X167948051Y-73847599D01*
X168034700Y-73847598D01*
X168034700Y-71897600D01*
X168034699Y-71897599D01*
X167948060Y-71897600D01*
X167948043Y-71897601D01*
X167847047Y-71907919D01*
X167683399Y-71962146D01*
X167683388Y-71962151D01*
X167536665Y-72052652D01*
X167536661Y-72052655D01*
X167497733Y-72091583D01*
X167436410Y-72125068D01*
X167366718Y-72120082D01*
X167322372Y-72091582D01*
X167283051Y-72052261D01*
X167283050Y-72052260D01*
X167168468Y-71981585D01*
X167136218Y-71961693D01*
X167136213Y-71961691D01*
X167134769Y-71961212D01*
X166972453Y-71907426D01*
X166972451Y-71907425D01*
X166871378Y-71897100D01*
X166198030Y-71897100D01*
X166198012Y-71897101D01*
X166096947Y-71907425D01*
X165933184Y-71961692D01*
X165933181Y-71961693D01*
X165836656Y-72021230D01*
X165786350Y-72052260D01*
X165786348Y-72052261D01*
X165780203Y-72056052D01*
X165779505Y-72054921D01*
X165721806Y-72078195D01*
X165653165Y-72065149D01*
X165634531Y-72053173D01*
X165486218Y-71961693D01*
X165486213Y-71961691D01*
X165484769Y-71961212D01*
X165322453Y-71907426D01*
X165322451Y-71907425D01*
X165221378Y-71897100D01*
X164623030Y-71897100D01*
X164623012Y-71897101D01*
X164521947Y-71907425D01*
X164358184Y-71961692D01*
X164358181Y-71961693D01*
X164211348Y-72052261D01*
X164097381Y-72166229D01*
X164036058Y-72199714D01*
X163966366Y-72194730D01*
X163922019Y-72166229D01*
X163808051Y-72052261D01*
X163808050Y-72052260D01*
X163693468Y-71981585D01*
X163661218Y-71961693D01*
X163661213Y-71961691D01*
X163659769Y-71961212D01*
X163497453Y-71907426D01*
X163497451Y-71907425D01*
X163396378Y-71897100D01*
X162798030Y-71897100D01*
X162798012Y-71897101D01*
X162696947Y-71907425D01*
X162533184Y-71961692D01*
X162533181Y-71961693D01*
X162386348Y-72052261D01*
X162264361Y-72174248D01*
X162173793Y-72321081D01*
X162173791Y-72321086D01*
X162149725Y-72393713D01*
X162119526Y-72484847D01*
X162119526Y-72484848D01*
X162119525Y-72484848D01*
X162109200Y-72585915D01*
X160710500Y-72585915D01*
X160710500Y-72393713D01*
X160677246Y-72183757D01*
X160611557Y-71981588D01*
X160515051Y-71792184D01*
X160515049Y-71792181D01*
X160515048Y-71792179D01*
X160390109Y-71620213D01*
X160239792Y-71469896D01*
X160182630Y-71428366D01*
X160075204Y-71350316D01*
X160032540Y-71294989D01*
X160026561Y-71225376D01*
X160059166Y-71163580D01*
X160075199Y-71149686D01*
X160239792Y-71030104D01*
X160356822Y-70913073D01*
X160418141Y-70879591D01*
X160487833Y-70884575D01*
X160543767Y-70926446D01*
X160568184Y-70991910D01*
X160568500Y-71000748D01*
X160568500Y-71010864D01*
X160568501Y-71010887D01*
X160578825Y-71111952D01*
X160613045Y-71215218D01*
X160633092Y-71275716D01*
X160723660Y-71422550D01*
X160845650Y-71544540D01*
X160992484Y-71635108D01*
X161156247Y-71689374D01*
X161257323Y-71699700D01*
X161830676Y-71699699D01*
X161830684Y-71699698D01*
X161830687Y-71699698D01*
X161886030Y-71694044D01*
X161931753Y-71689374D01*
X162095516Y-71635108D01*
X162242350Y-71544540D01*
X162364340Y-71422550D01*
X162382684Y-71392808D01*
X162434629Y-71346086D01*
X162503592Y-71334862D01*
X162532740Y-71343253D01*
X162532879Y-71342836D01*
X162539732Y-71345106D01*
X162539734Y-71345108D01*
X162703497Y-71399374D01*
X162804573Y-71409700D01*
X163402926Y-71409699D01*
X163402934Y-71409698D01*
X163402937Y-71409698D01*
X163458280Y-71404044D01*
X163504003Y-71399374D01*
X163667766Y-71345108D01*
X163814600Y-71254540D01*
X163928569Y-71140571D01*
X163989892Y-71107086D01*
X164059584Y-71112070D01*
X164103931Y-71140571D01*
X164217900Y-71254540D01*
X164364734Y-71345108D01*
X164528497Y-71399374D01*
X164629573Y-71409700D01*
X165227926Y-71409699D01*
X165227934Y-71409698D01*
X165227937Y-71409698D01*
X165283280Y-71404044D01*
X165329003Y-71399374D01*
X165492766Y-71345108D01*
X165639600Y-71254540D01*
X165639601Y-71254538D01*
X165645747Y-71250748D01*
X165646445Y-71251880D01*
X165704130Y-71228606D01*
X165772772Y-71241643D01*
X165791384Y-71253604D01*
X165792897Y-71254537D01*
X165792900Y-71254540D01*
X165939734Y-71345108D01*
X166103497Y-71399374D01*
X166204573Y-71409700D01*
X166877926Y-71409699D01*
X166877934Y-71409698D01*
X166877937Y-71409698D01*
X166933280Y-71404044D01*
X166979003Y-71399374D01*
X167142766Y-71345108D01*
X167289600Y-71254540D01*
X167328923Y-71215216D01*
X167390244Y-71181732D01*
X167459935Y-71186716D01*
X167504284Y-71215217D01*
X167543211Y-71254144D01*
X167543215Y-71254147D01*
X167689938Y-71344648D01*
X167689949Y-71344653D01*
X167853597Y-71398880D01*
X167954601Y-71409199D01*
X168041250Y-71409198D01*
X168041250Y-69459200D01*
X168041249Y-69459199D01*
X167954610Y-69459200D01*
X167954593Y-69459201D01*
X167853594Y-69469519D01*
X167780595Y-69493708D01*
X167710767Y-69496109D01*
X167650726Y-69460377D01*
X167619534Y-69397856D01*
X167627095Y-69328397D01*
X167653906Y-69288327D01*
X168145920Y-68796316D01*
X168224977Y-68659384D01*
X168265901Y-68506657D01*
X168265901Y-68348542D01*
X168265901Y-68340947D01*
X168265900Y-68340929D01*
X168265900Y-65283993D01*
X168285585Y-65216954D01*
X168315586Y-65184729D01*
X168413346Y-65111546D01*
X168499596Y-64996331D01*
X168549891Y-64861483D01*
X168556300Y-64801873D01*
X168556299Y-62706128D01*
X168551099Y-62657757D01*
X168549891Y-62646516D01*
X168499597Y-62511671D01*
X168499593Y-62511664D01*
X168413347Y-62396455D01*
X168413344Y-62396452D01*
X168298135Y-62310206D01*
X168298128Y-62310202D01*
X168163282Y-62259908D01*
X168163283Y-62259908D01*
X168103683Y-62253501D01*
X168103681Y-62253500D01*
X168103673Y-62253500D01*
X168103664Y-62253500D01*
X166007929Y-62253500D01*
X166007923Y-62253501D01*
X165948316Y-62259908D01*
X165813471Y-62310202D01*
X165813468Y-62310204D01*
X165777690Y-62336988D01*
X165712225Y-62361405D01*
X165643952Y-62346553D01*
X165594547Y-62297148D01*
X165579695Y-62228875D01*
X165579976Y-62225567D01*
X165589262Y-62131284D01*
X165603001Y-61991795D01*
X165603001Y-61628207D01*
X165567363Y-61266370D01*
X165557329Y-61215925D01*
X165496436Y-60909788D01*
X165496433Y-60909777D01*
X165496432Y-60909774D01*
X165496431Y-60909768D01*
X165390887Y-60561837D01*
X165251748Y-60225925D01*
X165080354Y-59905269D01*
X164878355Y-59602957D01*
X164647698Y-59321900D01*
X164647697Y-59321899D01*
X164647693Y-59321894D01*
X164390607Y-59064808D01*
X164109550Y-58834151D01*
X164109549Y-58834150D01*
X164109545Y-58834147D01*
X163807233Y-58632148D01*
X163807228Y-58632145D01*
X163807221Y-58632141D01*
X163486584Y-58460757D01*
X163486579Y-58460755D01*
X163150666Y-58321615D01*
X162802724Y-58216068D01*
X162802713Y-58216065D01*
X162446131Y-58145138D01*
X162173612Y-58118297D01*
X162084295Y-58109501D01*
X161720707Y-58109501D01*
X161638180Y-58117629D01*
X161358870Y-58145138D01*
X161002288Y-58216065D01*
X161002277Y-58216068D01*
X160654335Y-58321615D01*
X160318422Y-58460755D01*
X160318417Y-58460757D01*
X159997780Y-58632141D01*
X159997762Y-58632152D01*
X159695465Y-58834141D01*
X159695451Y-58834151D01*
X159414394Y-59064808D01*
X159157308Y-59321894D01*
X158926651Y-59602951D01*
X158926641Y-59602965D01*
X158724652Y-59905262D01*
X158724641Y-59905280D01*
X158553257Y-60225917D01*
X158553255Y-60225922D01*
X158414115Y-60561835D01*
X158308568Y-60909777D01*
X158308565Y-60909788D01*
X158237638Y-61266370D01*
X158216547Y-61480519D01*
X158202001Y-61628207D01*
X158202001Y-61991795D01*
X158204728Y-62019480D01*
X158237638Y-62353631D01*
X158308565Y-62710213D01*
X158308568Y-62710224D01*
X158414115Y-63058166D01*
X158478379Y-63213312D01*
X158546202Y-63377053D01*
X158553255Y-63394079D01*
X158553257Y-63394084D01*
X158724641Y-63714721D01*
X158724652Y-63714739D01*
X158926641Y-64017036D01*
X158926651Y-64017050D01*
X159157308Y-64298107D01*
X159414394Y-64555193D01*
X159414399Y-64555197D01*
X159414400Y-64555198D01*
X159695457Y-64785855D01*
X159997769Y-64987854D01*
X159997778Y-64987859D01*
X159997780Y-64987860D01*
X160318417Y-65159244D01*
X160318419Y-65159244D01*
X160318425Y-65159248D01*
X160654337Y-65298387D01*
X161002268Y-65403931D01*
X161002274Y-65403932D01*
X161002277Y-65403933D01*
X161002288Y-65403936D01*
X161358870Y-65474863D01*
X161720707Y-65510501D01*
X161720710Y-65510501D01*
X162084292Y-65510501D01*
X162084295Y-65510501D01*
X162446132Y-65474863D01*
X162515546Y-65461055D01*
X162802713Y-65403936D01*
X162802724Y-65403933D01*
X162802724Y-65403932D01*
X162802734Y-65403931D01*
X163150665Y-65298387D01*
X163486577Y-65159248D01*
X163807233Y-64987854D01*
X164109545Y-64785855D01*
X164390602Y-64555198D01*
X164647698Y-64298102D01*
X164878355Y-64017045D01*
X165080354Y-63714733D01*
X165251748Y-63394077D01*
X165316739Y-63237173D01*
X165360580Y-63182770D01*
X165426874Y-63160705D01*
X165494573Y-63177984D01*
X165542184Y-63229121D01*
X165555300Y-63284626D01*
X165555300Y-64801870D01*
X165555301Y-64801876D01*
X165561708Y-64861483D01*
X165612002Y-64996328D01*
X165612006Y-64996335D01*
X165698252Y-65111544D01*
X165698255Y-65111547D01*
X165813464Y-65197793D01*
X165813471Y-65197797D01*
X165948317Y-65248091D01*
X165948316Y-65248091D01*
X165955244Y-65248835D01*
X166007927Y-65254500D01*
X166940900Y-65254499D01*
X167007939Y-65274183D01*
X167053694Y-65326987D01*
X167064900Y-65378499D01*
X167064900Y-66459340D01*
X167045215Y-66526379D01*
X166992411Y-66572134D01*
X166923253Y-66582078D01*
X166871171Y-66560942D01*
X166870944Y-66561314D01*
X166868702Y-66559940D01*
X166868024Y-66559665D01*
X166866792Y-66558770D01*
X166712447Y-66480128D01*
X166712446Y-66480127D01*
X166712445Y-66480127D01*
X166547701Y-66426598D01*
X166547699Y-66426597D01*
X166547698Y-66426597D01*
X166415542Y-66405666D01*
X166376611Y-66399500D01*
X166203389Y-66399500D01*
X166164458Y-66405666D01*
X166032302Y-66426597D01*
X165867552Y-66480128D01*
X165713211Y-66558768D01*
X165633704Y-66616534D01*
X165573072Y-66660586D01*
X165573070Y-66660588D01*
X165573069Y-66660588D01*
X165450588Y-66783069D01*
X165450588Y-66783070D01*
X165450586Y-66783072D01*
X165443966Y-66792184D01*
X165348768Y-66923211D01*
X165270128Y-67077552D01*
X165216597Y-67242302D01*
X165195841Y-67373351D01*
X165189500Y-67413389D01*
X165189500Y-67586611D01*
X165216598Y-67757701D01*
X165270127Y-67922445D01*
X165348768Y-68076788D01*
X165450586Y-68216928D01*
X165450588Y-68216930D01*
X165560277Y-68326619D01*
X165593762Y-68387942D01*
X165588778Y-68457634D01*
X165546906Y-68513567D01*
X165481442Y-68537984D01*
X165472596Y-68538300D01*
X163942070Y-68538300D01*
X163942054Y-68538299D01*
X163934458Y-68538299D01*
X163776343Y-68538299D01*
X163699979Y-68558761D01*
X163623614Y-68579223D01*
X163623609Y-68579226D01*
X163486690Y-68658275D01*
X163486682Y-68658281D01*
X162876280Y-69268683D01*
X162868334Y-69273021D01*
X162862909Y-69280269D01*
X162838149Y-69289503D01*
X162814957Y-69302168D01*
X162805927Y-69301522D01*
X162797445Y-69304686D01*
X162771624Y-69299069D01*
X162745265Y-69297184D01*
X162736210Y-69291365D01*
X162729172Y-69289834D01*
X162700923Y-69268687D01*
X162555816Y-69123581D01*
X162522333Y-69062259D01*
X162519499Y-69035901D01*
X162519499Y-68587530D01*
X162519498Y-68587513D01*
X162509174Y-68486447D01*
X162476532Y-68387942D01*
X162454908Y-68322684D01*
X162364340Y-68175850D01*
X162242350Y-68053860D01*
X162095516Y-67963292D01*
X161931753Y-67909026D01*
X161931751Y-67909025D01*
X161830678Y-67898700D01*
X161257330Y-67898700D01*
X161257312Y-67898701D01*
X161156247Y-67909025D01*
X160992484Y-67963292D01*
X160992481Y-67963293D01*
X160845647Y-68053861D01*
X160839987Y-68058338D01*
X160838874Y-68056930D01*
X160785704Y-68085955D01*
X160716013Y-68080961D01*
X160660085Y-68039082D01*
X160635677Y-67973614D01*
X160641430Y-67926471D01*
X160677246Y-67816243D01*
X160710500Y-67606287D01*
X160710500Y-67393713D01*
X160677246Y-67183757D01*
X160611557Y-66981588D01*
X160515051Y-66792184D01*
X160515049Y-66792181D01*
X160515048Y-66792179D01*
X160390109Y-66620213D01*
X160239786Y-66469890D01*
X160067820Y-66344951D01*
X159878414Y-66248444D01*
X159878413Y-66248443D01*
X159878412Y-66248443D01*
X159676243Y-66182754D01*
X159676241Y-66182753D01*
X159676240Y-66182753D01*
X159514957Y-66157208D01*
X159466287Y-66149500D01*
X158753713Y-66149500D01*
X158705042Y-66157208D01*
X158543760Y-66182753D01*
X158341585Y-66248444D01*
X158152179Y-66344951D01*
X157980213Y-66469890D01*
X157829890Y-66620213D01*
X157704948Y-66792184D01*
X157704947Y-66792185D01*
X157684765Y-66831795D01*
X157636791Y-66882591D01*
X157574281Y-66899500D01*
X156954097Y-66899500D01*
X156887058Y-66879815D01*
X156866416Y-66863181D01*
X156316590Y-66313355D01*
X156316588Y-66313352D01*
X156197717Y-66194481D01*
X156197716Y-66194480D01*
X156084820Y-66129300D01*
X156060785Y-66115423D01*
X155908057Y-66074499D01*
X155903133Y-66074499D01*
X155889160Y-66070053D01*
X155868957Y-66056418D01*
X155846669Y-66046556D01*
X155836034Y-66034199D01*
X155831246Y-66030968D01*
X155829243Y-66026309D01*
X155821220Y-66016987D01*
X155796340Y-65976650D01*
X155674350Y-65854660D01*
X155576499Y-65794305D01*
X155527518Y-65764093D01*
X155527513Y-65764091D01*
X155502200Y-65755703D01*
X155363753Y-65709826D01*
X155363751Y-65709825D01*
X155262678Y-65699500D01*
X154589330Y-65699500D01*
X154589312Y-65699501D01*
X154488247Y-65709825D01*
X154324484Y-65764092D01*
X154324481Y-65764093D01*
X154177648Y-65854661D01*
X154138680Y-65893629D01*
X154130734Y-65897967D01*
X154125310Y-65905214D01*
X154100553Y-65914447D01*
X154077357Y-65927114D01*
X154068326Y-65926467D01*
X154059846Y-65929631D01*
X154034024Y-65924013D01*
X154007665Y-65922128D01*
X153998612Y-65916310D01*
X153991573Y-65914779D01*
X153963319Y-65893628D01*
X153925319Y-65855628D01*
X153891834Y-65794305D01*
X153889000Y-65767947D01*
X153889000Y-65077079D01*
X153860159Y-64932092D01*
X153860158Y-64932091D01*
X153860158Y-64932087D01*
X153855432Y-64920677D01*
X153803587Y-64795511D01*
X153803585Y-64795507D01*
X153803584Y-64795505D01*
X153752463Y-64718997D01*
X153752458Y-64718989D01*
X153721454Y-64672586D01*
X153721452Y-64672584D01*
X152425922Y-63377053D01*
X152425915Y-63377047D01*
X152352230Y-63327813D01*
X152352230Y-63327814D01*
X152302994Y-63294915D01*
X152174547Y-63241711D01*
X152120144Y-63197870D01*
X152098079Y-63131575D01*
X152098000Y-63127150D01*
X152098000Y-63012130D01*
X152097999Y-63012124D01*
X152091592Y-62952517D01*
X152041298Y-62817672D01*
X152041294Y-62817665D01*
X151955048Y-62702456D01*
X151955045Y-62702453D01*
X151839836Y-62616207D01*
X151839829Y-62616203D01*
X151704987Y-62565911D01*
X151704986Y-62565910D01*
X151704984Y-62565910D01*
X151645374Y-62559501D01*
X151645364Y-62559501D01*
X150999630Y-62559501D01*
X150999621Y-62559502D01*
X150935749Y-62566368D01*
X150909243Y-62566368D01*
X150904984Y-62565910D01*
X150845374Y-62559501D01*
X150845365Y-62559501D01*
X150199630Y-62559501D01*
X150199621Y-62559502D01*
X150135749Y-62566368D01*
X150109243Y-62566368D01*
X150104984Y-62565910D01*
X150045374Y-62559501D01*
X150045365Y-62559501D01*
X149399630Y-62559501D01*
X149399621Y-62559502D01*
X149335749Y-62566368D01*
X149309243Y-62566368D01*
X149304984Y-62565910D01*
X149245374Y-62559501D01*
X149245365Y-62559501D01*
X148599630Y-62559501D01*
X148599626Y-62559502D01*
X148551661Y-62564658D01*
X148540018Y-62565910D01*
X148540017Y-62565910D01*
X148533405Y-62566621D01*
X148506894Y-62566620D01*
X148445343Y-62560001D01*
X148372501Y-62560001D01*
X148372501Y-62578591D01*
X148352816Y-62645630D01*
X148340857Y-62661334D01*
X148332652Y-62670491D01*
X148289955Y-62702455D01*
X148218502Y-62797903D01*
X148214858Y-62801971D01*
X148189610Y-62817612D01*
X148165834Y-62835410D01*
X148160234Y-62835810D01*
X148155462Y-62838767D01*
X148125769Y-62838275D01*
X148096142Y-62840394D01*
X148091213Y-62837702D01*
X148085602Y-62837610D01*
X148060889Y-62821143D01*
X148034820Y-62806908D01*
X148028392Y-62799490D01*
X148027458Y-62798868D01*
X148027056Y-62797949D01*
X148023238Y-62793543D01*
X147955050Y-62702455D01*
X147955049Y-62702454D01*
X147922188Y-62677854D01*
X147880318Y-62621919D01*
X147872501Y-62578588D01*
X147872501Y-62560001D01*
X147799656Y-62560001D01*
X147738105Y-62566620D01*
X147711594Y-62566621D01*
X147704989Y-62565910D01*
X147704987Y-62565910D01*
X147645377Y-62559501D01*
X147645369Y-62559501D01*
X147113997Y-62559501D01*
X147046958Y-62539816D01*
X147023733Y-62520521D01*
X147013829Y-62510007D01*
X147003021Y-62491285D01*
X146891217Y-62379481D01*
X146891214Y-62379479D01*
X146650090Y-62138355D01*
X146650088Y-62138352D01*
X146531217Y-62019481D01*
X146531209Y-62019475D01*
X146429552Y-61960784D01*
X146429550Y-61960783D01*
X146394290Y-61940425D01*
X146394289Y-61940424D01*
X146381763Y-61937067D01*
X146241557Y-61899499D01*
X146083443Y-61899499D01*
X146075847Y-61899499D01*
X146075831Y-61899500D01*
X142336670Y-61899500D01*
X142336654Y-61899499D01*
X142329058Y-61899499D01*
X142170943Y-61899499D01*
X142094579Y-61919961D01*
X142018214Y-61940423D01*
X142018209Y-61940426D01*
X141881290Y-62019475D01*
X141881282Y-62019481D01*
X140619481Y-63281282D01*
X140619477Y-63281287D01*
X140574322Y-63359500D01*
X140574322Y-63359501D01*
X140540423Y-63418214D01*
X140540423Y-63418215D01*
X140499499Y-63570943D01*
X140499499Y-63570945D01*
X140499499Y-63739046D01*
X140499500Y-63739059D01*
X140499500Y-63920234D01*
X140479815Y-63987273D01*
X140478602Y-63989125D01*
X140390609Y-64120814D01*
X140390602Y-64120827D01*
X140330264Y-64266498D01*
X140330261Y-64266510D01*
X140299500Y-64421153D01*
X140299500Y-64578846D01*
X140330261Y-64733489D01*
X140330264Y-64733501D01*
X140390602Y-64879172D01*
X140390609Y-64879185D01*
X140478602Y-65010874D01*
X140499480Y-65077551D01*
X140499500Y-65079765D01*
X140499500Y-71518930D01*
X140499499Y-71518948D01*
X140499499Y-71684654D01*
X140499498Y-71684654D01*
X140540423Y-71837386D01*
X140551988Y-71857415D01*
X140551989Y-71857420D01*
X140551990Y-71857420D01*
X140619475Y-71974309D01*
X140619481Y-71974317D01*
X140738349Y-72093185D01*
X140738355Y-72093190D01*
X144193981Y-75548816D01*
X144227466Y-75610139D01*
X144230300Y-75636497D01*
X144230300Y-76994130D01*
X144230299Y-76994148D01*
X144230299Y-77159854D01*
X144230298Y-77159854D01*
X144271223Y-77312585D01*
X144288844Y-77343105D01*
X144288843Y-77343105D01*
X144288844Y-77343106D01*
X144350275Y-77449509D01*
X144350281Y-77449517D01*
X144469149Y-77568385D01*
X144469155Y-77568390D01*
X144613181Y-77712416D01*
X144646666Y-77773739D01*
X144649500Y-77800097D01*
X144649500Y-92928338D01*
X144629815Y-92995377D01*
X144613181Y-93016019D01*
X144444481Y-93184718D01*
X144444479Y-93184720D01*
X144425840Y-93217006D01*
X144411322Y-93242152D01*
X144365423Y-93321651D01*
X144324499Y-93474379D01*
X144324499Y-93474381D01*
X144324499Y-93642482D01*
X144324500Y-93642495D01*
X144324500Y-95042388D01*
X144304815Y-95109427D01*
X144265598Y-95147926D01*
X144214150Y-95179659D01*
X144092161Y-95301648D01*
X144001593Y-95448481D01*
X144001591Y-95448486D01*
X143974219Y-95531088D01*
X143947326Y-95612247D01*
X143947326Y-95612248D01*
X143947325Y-95612248D01*
X143937000Y-95713315D01*
X143937000Y-96286669D01*
X143937001Y-96286687D01*
X143947325Y-96387752D01*
X143958346Y-96421009D01*
X144001592Y-96551516D01*
X144092160Y-96698350D01*
X144214150Y-96820340D01*
X144265597Y-96852072D01*
X144312321Y-96904017D01*
X144324500Y-96957610D01*
X144324500Y-98077489D01*
X144304815Y-98144528D01*
X144252011Y-98190283D01*
X144182853Y-98200227D01*
X144176309Y-98199106D01*
X144096846Y-98183300D01*
X144096842Y-98183300D01*
X143939158Y-98183300D01*
X143939155Y-98183300D01*
X143784511Y-98214060D01*
X143784506Y-98214062D01*
X143784504Y-98214062D01*
X143784503Y-98214063D01*
X143760844Y-98223862D01*
X143713396Y-98233300D01*
X134419076Y-98233300D01*
X134390242Y-98239034D01*
X134390243Y-98239035D01*
X134274093Y-98262139D01*
X134274089Y-98262140D01*
X134201559Y-98292184D01*
X134201558Y-98292184D01*
X134137511Y-98318712D01*
X134137498Y-98318719D01*
X134057885Y-98371916D01*
X134014582Y-98400849D01*
X134014579Y-98400852D01*
X129452251Y-102963181D01*
X129390928Y-102996666D01*
X129364570Y-102999500D01*
X122083300Y-102999500D01*
X122016261Y-102979815D01*
X121970506Y-102927011D01*
X121959300Y-102875500D01*
X121959300Y-101943964D01*
X121978985Y-101876925D01*
X121995619Y-101856283D01*
X122042791Y-101809111D01*
X122095561Y-101756341D01*
X122202976Y-101608497D01*
X122285941Y-101445669D01*
X122342412Y-101271868D01*
X122357527Y-101176435D01*
X122387456Y-101113301D01*
X122446768Y-101076370D01*
X122516630Y-101077368D01*
X122574863Y-101115978D01*
X122602472Y-101176435D01*
X122609964Y-101223734D01*
X122617588Y-101271869D01*
X122674057Y-101445666D01*
X122674058Y-101445669D01*
X122755897Y-101606286D01*
X122757024Y-101608497D01*
X122864439Y-101756341D01*
X122993659Y-101885561D01*
X123141503Y-101992976D01*
X123191424Y-102018412D01*
X123304330Y-102075941D01*
X123304333Y-102075942D01*
X123391231Y-102104176D01*
X123478132Y-102132412D01*
X123658627Y-102161000D01*
X123658628Y-102161000D01*
X123841372Y-102161000D01*
X123841373Y-102161000D01*
X124021868Y-102132412D01*
X124195669Y-102075941D01*
X124358497Y-101992976D01*
X124506341Y-101885561D01*
X124635561Y-101756341D01*
X124742976Y-101608497D01*
X124825941Y-101445669D01*
X124882412Y-101271868D01*
X124897527Y-101176435D01*
X124927456Y-101113301D01*
X124986768Y-101076370D01*
X125056630Y-101077368D01*
X125114863Y-101115978D01*
X125142472Y-101176435D01*
X125149964Y-101223734D01*
X125157588Y-101271869D01*
X125214057Y-101445666D01*
X125214058Y-101445669D01*
X125295897Y-101606286D01*
X125297024Y-101608497D01*
X125404439Y-101756341D01*
X125533659Y-101885561D01*
X125681503Y-101992976D01*
X125731424Y-102018412D01*
X125844330Y-102075941D01*
X125844333Y-102075942D01*
X125931231Y-102104176D01*
X126018132Y-102132412D01*
X126198627Y-102161000D01*
X126198628Y-102161000D01*
X126381372Y-102161000D01*
X126381373Y-102161000D01*
X126561868Y-102132412D01*
X126735669Y-102075941D01*
X126898497Y-101992976D01*
X127046341Y-101885561D01*
X127175561Y-101756341D01*
X127282976Y-101608497D01*
X127365941Y-101445669D01*
X127422412Y-101271868D01*
X127451000Y-101091373D01*
X127451000Y-100908627D01*
X127422412Y-100728132D01*
X127374033Y-100579235D01*
X127365942Y-100554333D01*
X127365941Y-100554330D01*
X127317154Y-100458582D01*
X127282976Y-100391503D01*
X127175561Y-100243659D01*
X127046341Y-100114439D01*
X126898497Y-100007024D01*
X126735669Y-99924058D01*
X126735666Y-99924057D01*
X126561869Y-99867588D01*
X126471620Y-99853294D01*
X126381373Y-99839000D01*
X126200500Y-99839000D01*
X126133461Y-99819315D01*
X126087706Y-99766511D01*
X126076500Y-99715000D01*
X126076500Y-94305765D01*
X126096185Y-94238726D01*
X126097398Y-94236874D01*
X126114228Y-94211687D01*
X126185394Y-94105179D01*
X126193086Y-94086610D01*
X126245735Y-93959501D01*
X126245737Y-93959497D01*
X126276500Y-93804842D01*
X126276500Y-93647158D01*
X126276500Y-93647155D01*
X126276499Y-93647153D01*
X126275570Y-93642482D01*
X126245737Y-93492503D01*
X126186082Y-93348481D01*
X126185397Y-93346827D01*
X126185390Y-93346814D01*
X126097789Y-93215711D01*
X126097786Y-93215707D01*
X125986292Y-93104213D01*
X125986288Y-93104210D01*
X125855185Y-93016609D01*
X125855172Y-93016602D01*
X125709501Y-92956264D01*
X125709489Y-92956261D01*
X125554845Y-92925500D01*
X125554842Y-92925500D01*
X125397158Y-92925500D01*
X125397155Y-92925500D01*
X125242510Y-92956261D01*
X125242498Y-92956264D01*
X125096822Y-93016604D01*
X125091451Y-93019476D01*
X125090329Y-93017377D01*
X125033679Y-93035099D01*
X124972220Y-93018219D01*
X124971549Y-93019476D01*
X124966177Y-93016604D01*
X124820501Y-92956264D01*
X124820489Y-92956261D01*
X124665845Y-92925500D01*
X124665842Y-92925500D01*
X124508158Y-92925500D01*
X124508155Y-92925500D01*
X124353510Y-92956261D01*
X124353498Y-92956264D01*
X124207827Y-93016602D01*
X124207814Y-93016609D01*
X124076711Y-93104210D01*
X124076707Y-93104213D01*
X123965213Y-93215707D01*
X123965210Y-93215711D01*
X123877609Y-93346814D01*
X123877602Y-93346827D01*
X123817264Y-93492498D01*
X123817261Y-93492510D01*
X123786500Y-93647153D01*
X123786500Y-93804846D01*
X123817261Y-93959489D01*
X123817264Y-93959501D01*
X123877602Y-94105172D01*
X123877609Y-94105185D01*
X123965602Y-94236874D01*
X123986480Y-94303551D01*
X123986500Y-94305765D01*
X123986500Y-99716800D01*
X123966815Y-99783839D01*
X123914011Y-99829594D01*
X123846227Y-99839340D01*
X123846224Y-99839382D01*
X123846039Y-99839367D01*
X123844853Y-99839538D01*
X123843120Y-99839276D01*
X123841378Y-99839000D01*
X123841373Y-99839000D01*
X123658627Y-99839000D01*
X123621067Y-99844949D01*
X123478130Y-99867588D01*
X123304333Y-99924057D01*
X123304330Y-99924058D01*
X123141502Y-100007024D01*
X123109729Y-100030109D01*
X122993659Y-100114439D01*
X122993657Y-100114441D01*
X122993656Y-100114441D01*
X122864441Y-100243656D01*
X122864441Y-100243657D01*
X122864439Y-100243659D01*
X122829187Y-100292179D01*
X122757024Y-100391502D01*
X122674058Y-100554330D01*
X122674057Y-100554333D01*
X122617588Y-100728130D01*
X122602473Y-100823563D01*
X122572544Y-100886698D01*
X122513232Y-100923629D01*
X122443370Y-100922631D01*
X122385137Y-100884021D01*
X122357527Y-100823563D01*
X122352556Y-100792179D01*
X122342412Y-100728132D01*
X122294033Y-100579235D01*
X122285942Y-100554333D01*
X122285941Y-100554330D01*
X122237154Y-100458582D01*
X122202976Y-100391503D01*
X122095561Y-100243659D01*
X121966341Y-100114439D01*
X121818497Y-100007024D01*
X121655669Y-99924058D01*
X121655666Y-99924057D01*
X121481869Y-99867588D01*
X121391620Y-99853294D01*
X121301373Y-99839000D01*
X121118627Y-99839000D01*
X121081067Y-99844949D01*
X120938130Y-99867588D01*
X120764333Y-99924057D01*
X120764330Y-99924058D01*
X120601502Y-100007024D01*
X120569729Y-100030109D01*
X120453659Y-100114439D01*
X120453657Y-100114441D01*
X120453656Y-100114441D01*
X120324441Y-100243656D01*
X120324441Y-100243657D01*
X120324439Y-100243659D01*
X120289187Y-100292179D01*
X120217024Y-100391502D01*
X120134058Y-100554330D01*
X120134057Y-100554333D01*
X120077588Y-100728130D01*
X120062219Y-100825162D01*
X120032289Y-100888296D01*
X119972977Y-100925227D01*
X119903115Y-100924229D01*
X119844882Y-100885618D01*
X119817273Y-100825160D01*
X119801925Y-100728253D01*
X119801924Y-100728251D01*
X119745475Y-100554520D01*
X119662551Y-100391773D01*
X119662543Y-100391760D01*
X119649602Y-100373949D01*
X119649602Y-100373948D01*
X119076500Y-100947051D01*
X119076500Y-100946483D01*
X119048798Y-100843097D01*
X118995281Y-100750403D01*
X118919597Y-100674719D01*
X118826903Y-100621202D01*
X118723517Y-100593500D01*
X118722946Y-100593500D01*
X119296050Y-100020396D01*
X119296049Y-100020395D01*
X119278237Y-100007454D01*
X119115479Y-99924524D01*
X118941747Y-99868075D01*
X118761332Y-99839500D01*
X118578668Y-99839500D01*
X118398252Y-99868075D01*
X118398251Y-99868075D01*
X118224520Y-99924524D01*
X118130796Y-99972279D01*
X118062126Y-99985175D01*
X117997386Y-99958899D01*
X117957129Y-99901792D01*
X117950501Y-99861794D01*
X117950501Y-89058767D01*
X117970186Y-88991728D01*
X118022990Y-88945973D01*
X118092148Y-88936029D01*
X118130796Y-88948283D01*
X118224320Y-88995936D01*
X118224333Y-88995942D01*
X118311231Y-89024176D01*
X118398132Y-89052412D01*
X118578627Y-89081000D01*
X118578628Y-89081000D01*
X118761372Y-89081000D01*
X118761373Y-89081000D01*
X118941868Y-89052412D01*
X119115669Y-88995941D01*
X119278497Y-88912976D01*
X119426341Y-88805561D01*
X119555561Y-88676341D01*
X119662976Y-88528497D01*
X119745941Y-88365669D01*
X119802412Y-88191868D01*
X119817527Y-88096435D01*
X119847456Y-88033301D01*
X119906768Y-87996370D01*
X119976630Y-87997368D01*
X120034863Y-88035978D01*
X120062472Y-88096435D01*
X120068848Y-88136684D01*
X120077588Y-88191869D01*
X120134057Y-88365666D01*
X120134058Y-88365669D01*
X120200775Y-88496607D01*
X120217024Y-88528497D01*
X120324439Y-88676341D01*
X120453659Y-88805561D01*
X120601503Y-88912976D01*
X120646747Y-88936029D01*
X120764330Y-88995941D01*
X120764333Y-88995942D01*
X120851231Y-89024176D01*
X120938132Y-89052412D01*
X121118627Y-89081000D01*
X121118628Y-89081000D01*
X121301372Y-89081000D01*
X121301373Y-89081000D01*
X121481868Y-89052412D01*
X121655669Y-88995941D01*
X121818497Y-88912976D01*
X121966341Y-88805561D01*
X122095561Y-88676341D01*
X122202976Y-88528497D01*
X122285941Y-88365669D01*
X122342412Y-88191868D01*
X122357527Y-88096435D01*
X122387456Y-88033301D01*
X122446768Y-87996370D01*
X122516630Y-87997368D01*
X122574863Y-88035978D01*
X122602472Y-88096435D01*
X122608848Y-88136684D01*
X122617588Y-88191869D01*
X122674057Y-88365666D01*
X122674058Y-88365669D01*
X122740775Y-88496607D01*
X122757024Y-88528497D01*
X122864439Y-88676341D01*
X122993659Y-88805561D01*
X123141503Y-88912976D01*
X123186747Y-88936029D01*
X123304330Y-88995941D01*
X123304333Y-88995942D01*
X123391231Y-89024176D01*
X123478132Y-89052412D01*
X123658627Y-89081000D01*
X123658628Y-89081000D01*
X123841372Y-89081000D01*
X123841373Y-89081000D01*
X123970102Y-89060611D01*
X124039395Y-89069566D01*
X124092847Y-89114562D01*
X124113487Y-89181313D01*
X124113500Y-89183084D01*
X124113500Y-89968059D01*
X124093815Y-90035098D01*
X124077181Y-90055740D01*
X123965213Y-90167707D01*
X123965210Y-90167711D01*
X123877609Y-90298814D01*
X123877602Y-90298827D01*
X123817264Y-90444498D01*
X123817261Y-90444510D01*
X123786500Y-90599153D01*
X123786500Y-90756846D01*
X123817261Y-90911489D01*
X123817264Y-90911501D01*
X123877602Y-91057172D01*
X123877609Y-91057185D01*
X123965210Y-91188288D01*
X123965213Y-91188292D01*
X124076707Y-91299786D01*
X124076711Y-91299789D01*
X124207814Y-91387390D01*
X124207827Y-91387397D01*
X124353498Y-91447735D01*
X124353503Y-91447737D01*
X124508153Y-91478499D01*
X124508156Y-91478500D01*
X124508158Y-91478500D01*
X124665844Y-91478500D01*
X124665845Y-91478499D01*
X124820497Y-91447737D01*
X124966179Y-91387394D01*
X124966184Y-91387390D01*
X124971546Y-91384525D01*
X124972670Y-91386629D01*
X125029283Y-91368901D01*
X125090787Y-91385771D01*
X125091454Y-91384525D01*
X125096825Y-91387396D01*
X125242498Y-91447735D01*
X125242503Y-91447737D01*
X125397153Y-91478499D01*
X125397156Y-91478500D01*
X125397158Y-91478500D01*
X125554844Y-91478500D01*
X125554845Y-91478499D01*
X125709497Y-91447737D01*
X125855179Y-91387394D01*
X125986289Y-91299789D01*
X126097789Y-91188289D01*
X126185394Y-91057179D01*
X126245737Y-90911497D01*
X126276500Y-90756842D01*
X126276500Y-90599158D01*
X126276500Y-90599155D01*
X126276499Y-90599153D01*
X126245738Y-90444510D01*
X126245737Y-90444503D01*
X126235312Y-90419334D01*
X126185397Y-90298827D01*
X126185390Y-90298814D01*
X126097789Y-90167711D01*
X126097786Y-90167707D01*
X125986292Y-90056213D01*
X125986284Y-90056207D01*
X125855175Y-89968603D01*
X125854034Y-89967993D01*
X125853549Y-89967516D01*
X125850115Y-89965222D01*
X125850550Y-89964570D01*
X125804195Y-89919025D01*
X125788500Y-89858642D01*
X125788500Y-89148471D01*
X125808185Y-89081432D01*
X125860989Y-89035677D01*
X125930147Y-89025733D01*
X125950810Y-89030537D01*
X126018132Y-89052412D01*
X126198627Y-89081000D01*
X126198628Y-89081000D01*
X126381372Y-89081000D01*
X126381373Y-89081000D01*
X126561868Y-89052412D01*
X126735669Y-88995941D01*
X126898497Y-88912976D01*
X127046341Y-88805561D01*
X127175561Y-88676341D01*
X127251649Y-88571615D01*
X127306979Y-88528949D01*
X127351967Y-88520500D01*
X128850448Y-88520500D01*
X128879888Y-88529144D01*
X128909875Y-88535668D01*
X128914890Y-88539422D01*
X128917487Y-88540185D01*
X128938129Y-88556819D01*
X129043629Y-88662319D01*
X129077114Y-88723642D01*
X129072130Y-88793334D01*
X129043629Y-88837681D01*
X128929661Y-88951648D01*
X128839093Y-89098481D01*
X128839092Y-89098484D01*
X128784826Y-89262247D01*
X128784826Y-89262248D01*
X128784825Y-89262248D01*
X128774500Y-89363315D01*
X128774500Y-89525269D01*
X128754815Y-89592308D01*
X128738181Y-89612950D01*
X128315286Y-90035844D01*
X128296498Y-90051264D01*
X128268982Y-90069650D01*
X128268978Y-90069653D01*
X127684704Y-90653927D01*
X127644478Y-90680806D01*
X127620826Y-90690603D01*
X127620814Y-90690609D01*
X127489711Y-90778210D01*
X127489707Y-90778213D01*
X127378213Y-90889707D01*
X127378210Y-90889711D01*
X127290609Y-91020814D01*
X127290602Y-91020827D01*
X127230264Y-91166498D01*
X127230261Y-91166510D01*
X127199500Y-91321153D01*
X127199500Y-91478846D01*
X127230261Y-91633489D01*
X127230264Y-91633501D01*
X127290602Y-91779172D01*
X127290609Y-91779185D01*
X127378210Y-91910288D01*
X127378213Y-91910292D01*
X127489707Y-92021786D01*
X127489711Y-92021789D01*
X127620814Y-92109390D01*
X127620827Y-92109397D01*
X127766498Y-92169735D01*
X127766503Y-92169737D01*
X127921153Y-92200499D01*
X127921156Y-92200500D01*
X127921158Y-92200500D01*
X128078844Y-92200500D01*
X128078845Y-92200499D01*
X128233497Y-92169737D01*
X128379179Y-92109394D01*
X128510289Y-92021789D01*
X128621789Y-91910289D01*
X128709394Y-91779179D01*
X128719192Y-91755521D01*
X128746069Y-91715296D01*
X129192010Y-91269355D01*
X129210794Y-91253939D01*
X129238316Y-91235552D01*
X129787049Y-90686817D01*
X129848372Y-90653333D01*
X129874730Y-90650499D01*
X130036670Y-90650499D01*
X130036676Y-90650499D01*
X130137753Y-90640174D01*
X130301516Y-90585908D01*
X130448350Y-90495340D01*
X130570340Y-90373350D01*
X130660908Y-90226516D01*
X130715174Y-90062753D01*
X130725500Y-89961677D01*
X130725499Y-89363324D01*
X130715174Y-89262247D01*
X130660908Y-89098484D01*
X130570340Y-88951650D01*
X130456371Y-88837681D01*
X130422886Y-88776358D01*
X130427870Y-88706666D01*
X130456371Y-88662319D01*
X130504694Y-88613996D01*
X130570340Y-88548350D01*
X130660908Y-88401516D01*
X130715174Y-88237753D01*
X130725500Y-88136677D01*
X130725499Y-87538324D01*
X130720827Y-87492592D01*
X130715174Y-87437247D01*
X130660908Y-87273484D01*
X130570340Y-87126650D01*
X130448350Y-87004660D01*
X130322482Y-86927024D01*
X130301518Y-86914093D01*
X130301513Y-86914091D01*
X130269425Y-86903458D01*
X130137753Y-86859826D01*
X130137751Y-86859825D01*
X130036678Y-86849500D01*
X129463330Y-86849500D01*
X129463312Y-86849501D01*
X129362247Y-86859825D01*
X129198484Y-86914092D01*
X129198481Y-86914093D01*
X129051648Y-87004661D01*
X128929661Y-87126648D01*
X128847041Y-87260597D01*
X128795093Y-87307321D01*
X128741502Y-87319500D01*
X127351967Y-87319500D01*
X127284928Y-87299815D01*
X127251649Y-87268385D01*
X127175563Y-87163662D01*
X127175558Y-87163656D01*
X127046342Y-87034440D01*
X126941614Y-86958350D01*
X126898949Y-86903019D01*
X126890500Y-86858032D01*
X126890500Y-81909096D01*
X126910185Y-81842057D01*
X126926814Y-81821419D01*
X128003713Y-80744521D01*
X128003716Y-80744520D01*
X128115520Y-80632716D01*
X128165639Y-80545904D01*
X128194577Y-80495785D01*
X128235500Y-80343058D01*
X128235500Y-80184943D01*
X128235500Y-74915097D01*
X128255185Y-74848058D01*
X128271819Y-74827416D01*
X133002717Y-70096518D01*
X137779162Y-65320072D01*
X137840483Y-65286589D01*
X137842650Y-65286138D01*
X137902750Y-65274183D01*
X137997997Y-65255237D01*
X138122523Y-65203657D01*
X138143672Y-65194897D01*
X138143672Y-65194896D01*
X138143679Y-65194894D01*
X138274789Y-65107289D01*
X138386289Y-64995789D01*
X138473894Y-64864679D01*
X138534237Y-64718997D01*
X138565000Y-64564342D01*
X138565138Y-64563650D01*
X138597523Y-64501739D01*
X138599018Y-64500216D01*
X141462416Y-61636819D01*
X141523739Y-61603334D01*
X141550097Y-61600500D01*
X144472833Y-61600500D01*
X144472849Y-61600501D01*
X144480445Y-61600501D01*
X144638556Y-61600501D01*
X144638559Y-61600501D01*
X144791287Y-61559577D01*
X144841406Y-61530639D01*
X144928218Y-61480520D01*
X145040022Y-61368716D01*
X145040022Y-61368714D01*
X145050230Y-61358507D01*
X145050232Y-61358504D01*
X145291214Y-61117522D01*
X145291217Y-61117521D01*
X145311922Y-61096815D01*
X145344719Y-61078907D01*
X145373237Y-61063335D01*
X145373242Y-61063334D01*
X145373245Y-61063333D01*
X145373251Y-61063333D01*
X145399599Y-61060500D01*
X145399619Y-61060500D01*
X145399628Y-61060501D01*
X146045373Y-61060500D01*
X146104984Y-61054092D01*
X146104987Y-61054090D01*
X146109245Y-61053633D01*
X146135755Y-61053633D01*
X146140015Y-61054090D01*
X146140018Y-61054092D01*
X146199628Y-61060501D01*
X146845373Y-61060500D01*
X146904984Y-61054092D01*
X146904985Y-61054091D01*
X146909251Y-61053633D01*
X146935760Y-61053634D01*
X146940021Y-61054092D01*
X146999631Y-61060501D01*
X147645376Y-61060500D01*
X147704987Y-61054092D01*
X147704989Y-61054091D01*
X147709252Y-61053633D01*
X147735762Y-61053634D01*
X147740016Y-61054091D01*
X147740018Y-61054092D01*
X147799628Y-61060501D01*
X148445373Y-61060500D01*
X148504984Y-61054092D01*
X148504987Y-61054090D01*
X148509245Y-61053633D01*
X148535755Y-61053633D01*
X148540015Y-61054090D01*
X148540018Y-61054092D01*
X148599628Y-61060501D01*
X149245373Y-61060500D01*
X149304984Y-61054092D01*
X149304984Y-61054091D01*
X149311597Y-61053381D01*
X149338108Y-61053382D01*
X149399658Y-61060000D01*
X149399673Y-61060001D01*
X149472501Y-61060001D01*
X149472501Y-61041410D01*
X149492186Y-60974371D01*
X149494654Y-60971719D01*
X149500000Y-61100000D01*
X152400000Y-61250000D01*
X152400000Y-58944300D01*
X153090381Y-58944300D01*
X153090397Y-58944301D01*
X153097993Y-58944301D01*
X153256104Y-58944301D01*
X153256107Y-58944301D01*
X153408835Y-58903377D01*
X153484830Y-58859501D01*
X153545766Y-58824320D01*
X153657570Y-58712516D01*
X153657570Y-58712514D01*
X153667774Y-58702311D01*
X153667778Y-58702306D01*
X154333116Y-58036968D01*
X154394439Y-58003483D01*
X154420797Y-58000649D01*
X154794870Y-58000649D01*
X154794876Y-58000649D01*
X154895953Y-57990324D01*
X155059716Y-57936058D01*
X155206550Y-57845490D01*
X155328540Y-57723500D01*
X155419108Y-57576666D01*
X155473374Y-57412903D01*
X155483700Y-57311827D01*
X155483699Y-56713474D01*
X155482361Y-56700380D01*
X155473374Y-56612397D01*
X155457363Y-56564080D01*
X155419108Y-56448634D01*
X155328540Y-56301800D01*
X155214571Y-56187831D01*
X155181086Y-56126508D01*
X155186070Y-56056816D01*
X155214571Y-56012469D01*
X155227671Y-55999369D01*
X155328540Y-55898500D01*
X155419108Y-55751666D01*
X155473374Y-55587903D01*
X155483700Y-55486827D01*
X155483699Y-54888474D01*
X155482361Y-54875380D01*
X155473374Y-54787397D01*
X155459341Y-54745048D01*
X155419108Y-54623634D01*
X155328540Y-54476800D01*
X155328538Y-54476798D01*
X155324748Y-54470653D01*
X155325880Y-54469954D01*
X155302606Y-54412270D01*
X155315643Y-54343628D01*
X155327604Y-54325015D01*
X155328536Y-54323503D01*
X155328540Y-54323500D01*
X155419108Y-54176666D01*
X155473374Y-54012903D01*
X155483700Y-53911827D01*
X155483699Y-53238474D01*
X155482361Y-53225380D01*
X155473374Y-53137397D01*
X155465761Y-53114423D01*
X155419108Y-52973634D01*
X155328540Y-52826800D01*
X155289216Y-52787476D01*
X155255732Y-52726154D01*
X155260716Y-52656462D01*
X155289218Y-52612114D01*
X155328145Y-52573187D01*
X155328147Y-52573184D01*
X155418648Y-52426461D01*
X155418653Y-52426450D01*
X155472880Y-52262802D01*
X155483199Y-52161804D01*
X155483200Y-52161791D01*
X155483200Y-52075150D01*
X153533201Y-52075150D01*
X153533201Y-52161804D01*
X153543519Y-52262802D01*
X153597746Y-52426450D01*
X153597751Y-52426461D01*
X153688252Y-52573184D01*
X153688255Y-52573188D01*
X153727182Y-52612115D01*
X153760667Y-52673438D01*
X153755683Y-52743130D01*
X153727183Y-52787476D01*
X153687861Y-52826798D01*
X153597293Y-52973631D01*
X153597291Y-52973636D01*
X153582562Y-53018086D01*
X153543026Y-53137397D01*
X153543026Y-53137398D01*
X153543025Y-53137398D01*
X153532700Y-53238465D01*
X153532700Y-53911819D01*
X153532701Y-53911837D01*
X153543025Y-54012902D01*
X153578585Y-54120213D01*
X153597292Y-54176666D01*
X153686993Y-54322095D01*
X153691652Y-54329647D01*
X153690521Y-54330344D01*
X153713795Y-54388044D01*
X153700749Y-54456685D01*
X153688773Y-54475318D01*
X153597293Y-54623631D01*
X153597291Y-54623636D01*
X153582529Y-54668186D01*
X153543026Y-54787397D01*
X153543026Y-54787398D01*
X153543025Y-54787398D01*
X153532700Y-54888465D01*
X153532700Y-55486819D01*
X153532701Y-55486837D01*
X153543025Y-55587902D01*
X153597292Y-55751665D01*
X153597293Y-55751668D01*
X153601426Y-55758368D01*
X153679780Y-55885401D01*
X153687861Y-55898501D01*
X153801829Y-56012469D01*
X153835314Y-56073792D01*
X153830330Y-56143484D01*
X153801829Y-56187831D01*
X153687861Y-56301798D01*
X153597293Y-56448631D01*
X153597291Y-56448636D01*
X153582529Y-56493186D01*
X153543026Y-56612397D01*
X153543026Y-56612398D01*
X153543025Y-56612398D01*
X153532700Y-56713465D01*
X153532700Y-57087552D01*
X153524055Y-57116992D01*
X153517532Y-57146979D01*
X153513777Y-57151994D01*
X153513015Y-57154591D01*
X153496385Y-57175228D01*
X153420791Y-57250823D01*
X153358580Y-57313034D01*
X153297257Y-57346518D01*
X153227565Y-57341534D01*
X153171632Y-57299662D01*
X153147215Y-57234198D01*
X153146899Y-57225376D01*
X153146899Y-56700374D01*
X153146401Y-56695502D01*
X153136574Y-56599297D01*
X153124904Y-56564080D01*
X153082308Y-56435534D01*
X152991740Y-56288700D01*
X152877771Y-56174731D01*
X152844286Y-56113408D01*
X152849270Y-56043716D01*
X152877771Y-55999369D01*
X152934090Y-55943050D01*
X152991740Y-55885400D01*
X153082308Y-55738566D01*
X153136574Y-55574803D01*
X153146900Y-55473727D01*
X153146899Y-54875374D01*
X153136574Y-54774297D01*
X153082308Y-54610534D01*
X152991740Y-54463700D01*
X152991738Y-54463698D01*
X152987948Y-54457553D01*
X152989080Y-54456854D01*
X152965806Y-54399170D01*
X152978843Y-54330528D01*
X152990804Y-54311915D01*
X152991736Y-54310403D01*
X152991740Y-54310400D01*
X153082308Y-54163566D01*
X153136574Y-53999803D01*
X153146900Y-53898727D01*
X153146899Y-53225374D01*
X153141247Y-53170048D01*
X153136574Y-53124297D01*
X153129895Y-53104142D01*
X153082308Y-52960534D01*
X152991740Y-52813700D01*
X152952416Y-52774376D01*
X152918932Y-52713054D01*
X152923916Y-52643362D01*
X152952418Y-52599014D01*
X152991345Y-52560087D01*
X152991347Y-52560084D01*
X153081848Y-52413361D01*
X153081853Y-52413350D01*
X153136080Y-52249702D01*
X153146399Y-52148704D01*
X153146400Y-52148691D01*
X153146400Y-52062050D01*
X151196401Y-52062050D01*
X151196401Y-52148704D01*
X151206719Y-52249702D01*
X151260946Y-52413350D01*
X151260951Y-52413361D01*
X151351452Y-52560084D01*
X151351455Y-52560088D01*
X151390382Y-52599015D01*
X151423867Y-52660338D01*
X151418883Y-52730030D01*
X151390383Y-52774376D01*
X151351061Y-52813698D01*
X151260493Y-52960531D01*
X151260492Y-52960534D01*
X151206226Y-53124297D01*
X151206226Y-53124298D01*
X151206225Y-53124298D01*
X151195900Y-53225365D01*
X151195900Y-53898719D01*
X151195901Y-53898737D01*
X151206225Y-53999802D01*
X151260492Y-54163565D01*
X151260493Y-54163568D01*
X151268572Y-54176666D01*
X151339016Y-54290874D01*
X151354852Y-54316547D01*
X151353721Y-54317244D01*
X151376995Y-54374944D01*
X151363949Y-54443585D01*
X151351973Y-54462218D01*
X151260493Y-54610531D01*
X151260491Y-54610536D01*
X151241388Y-54668186D01*
X151206226Y-54774297D01*
X151206226Y-54774298D01*
X151206225Y-54774298D01*
X151195900Y-54875365D01*
X151195900Y-55473719D01*
X151195901Y-55473737D01*
X151206225Y-55574802D01*
X151260492Y-55738565D01*
X151260493Y-55738568D01*
X151268572Y-55751666D01*
X151350689Y-55884799D01*
X151351061Y-55885401D01*
X151465029Y-55999369D01*
X151498514Y-56060692D01*
X151493530Y-56130384D01*
X151465029Y-56174731D01*
X151351061Y-56288698D01*
X151260493Y-56435531D01*
X151260491Y-56435536D01*
X151241388Y-56493186D01*
X151206226Y-56599297D01*
X151206226Y-56599298D01*
X151206225Y-56599298D01*
X151195900Y-56700365D01*
X151195900Y-57074452D01*
X151187254Y-57103894D01*
X151180732Y-57133878D01*
X151176977Y-57138893D01*
X151176215Y-57141491D01*
X151159585Y-57162128D01*
X151015732Y-57305982D01*
X150954412Y-57339466D01*
X150928053Y-57342300D01*
X149765700Y-57342300D01*
X149698661Y-57322615D01*
X149652906Y-57269811D01*
X149641700Y-57218300D01*
X149641699Y-56745430D01*
X149641698Y-56745412D01*
X149631374Y-56644347D01*
X149616446Y-56599297D01*
X149577108Y-56480584D01*
X149486540Y-56333750D01*
X149372571Y-56219781D01*
X149339086Y-56158458D01*
X149344070Y-56088766D01*
X149372571Y-56044419D01*
X149417621Y-55999369D01*
X149486540Y-55930450D01*
X149577108Y-55783616D01*
X149631374Y-55619853D01*
X149641700Y-55518777D01*
X149641699Y-54920424D01*
X149640058Y-54904364D01*
X149631374Y-54819347D01*
X149612494Y-54762371D01*
X149577108Y-54655584D01*
X149577104Y-54655578D01*
X149577103Y-54655575D01*
X149483269Y-54503447D01*
X149464828Y-54436055D01*
X149483269Y-54373253D01*
X149513023Y-54325015D01*
X149577108Y-54221116D01*
X149631374Y-54057353D01*
X149641700Y-53956277D01*
X149641699Y-53282924D01*
X149640492Y-53271112D01*
X149631374Y-53181847D01*
X149627464Y-53170047D01*
X149577108Y-53018084D01*
X149486540Y-52871250D01*
X149447216Y-52831926D01*
X149413732Y-52770604D01*
X149418716Y-52700912D01*
X149447218Y-52656564D01*
X149486145Y-52617637D01*
X149486147Y-52617634D01*
X149576648Y-52470911D01*
X149576653Y-52470900D01*
X149630880Y-52307252D01*
X149641199Y-52206254D01*
X149641200Y-52206241D01*
X149641200Y-52119600D01*
X147691201Y-52119600D01*
X147691201Y-52206254D01*
X147701519Y-52307252D01*
X147755746Y-52470900D01*
X147755751Y-52470911D01*
X147846252Y-52617634D01*
X147846255Y-52617638D01*
X147885182Y-52656565D01*
X147918667Y-52717888D01*
X147913683Y-52787580D01*
X147885183Y-52831926D01*
X147845861Y-52871248D01*
X147755293Y-53018081D01*
X147755291Y-53018086D01*
X147751116Y-53030686D01*
X147701026Y-53181847D01*
X147701026Y-53181848D01*
X147701025Y-53181848D01*
X147690700Y-53282915D01*
X147690700Y-53956269D01*
X147690701Y-53956287D01*
X147701025Y-54057352D01*
X147755292Y-54221115D01*
X147755293Y-54221118D01*
X147849131Y-54373253D01*
X147867571Y-54440646D01*
X147849131Y-54503447D01*
X147755293Y-54655581D01*
X147755291Y-54655586D01*
X147735482Y-54715367D01*
X147701026Y-54819347D01*
X147701026Y-54819348D01*
X147701025Y-54819348D01*
X147690700Y-54920415D01*
X147690700Y-55518769D01*
X147690701Y-55518787D01*
X147701025Y-55619852D01*
X147728008Y-55701279D01*
X147755292Y-55783616D01*
X147833867Y-55911007D01*
X147845861Y-55930451D01*
X147959829Y-56044419D01*
X147993314Y-56105742D01*
X147988330Y-56175434D01*
X147959829Y-56219781D01*
X147845860Y-56333749D01*
X147845857Y-56333752D01*
X147798556Y-56410438D01*
X147746608Y-56457161D01*
X147725115Y-56465113D01*
X147650818Y-56485022D01*
X147650809Y-56485026D01*
X147513890Y-56564075D01*
X147513886Y-56564078D01*
X147410962Y-56667002D01*
X147349639Y-56700486D01*
X147279947Y-56695502D01*
X147224014Y-56653630D01*
X147205576Y-56618326D01*
X147164108Y-56493184D01*
X147073540Y-56346350D01*
X146959571Y-56232381D01*
X146926086Y-56171058D01*
X146931070Y-56101366D01*
X146959571Y-56057019D01*
X147009200Y-56007390D01*
X147073540Y-55943050D01*
X147164108Y-55796216D01*
X147218374Y-55632453D01*
X147228700Y-55531377D01*
X147228699Y-54933024D01*
X147225771Y-54904364D01*
X147218374Y-54831947D01*
X147205832Y-54794098D01*
X147164108Y-54668184D01*
X147164104Y-54668178D01*
X147164103Y-54668175D01*
X147070269Y-54516047D01*
X147051828Y-54448655D01*
X147070269Y-54385853D01*
X147164103Y-54233724D01*
X147164102Y-54233724D01*
X147164108Y-54233716D01*
X147218374Y-54069953D01*
X147228700Y-53968877D01*
X147228699Y-53295524D01*
X147226206Y-53271123D01*
X147218374Y-53194447D01*
X147210289Y-53170048D01*
X147164108Y-53030684D01*
X147073540Y-52883850D01*
X147034216Y-52844526D01*
X147000732Y-52783204D01*
X147005716Y-52713512D01*
X147034218Y-52669164D01*
X147073145Y-52630237D01*
X147073147Y-52630234D01*
X147163648Y-52483511D01*
X147163653Y-52483500D01*
X147217880Y-52319852D01*
X147228199Y-52218854D01*
X147228200Y-52218841D01*
X147228200Y-52132200D01*
X145278201Y-52132200D01*
X145278201Y-52218854D01*
X145288519Y-52319852D01*
X145342746Y-52483500D01*
X145342751Y-52483511D01*
X145433252Y-52630234D01*
X145433255Y-52630238D01*
X145472182Y-52669165D01*
X145505667Y-52730488D01*
X145500683Y-52800180D01*
X145472183Y-52844526D01*
X145432861Y-52883848D01*
X145342293Y-53030681D01*
X145342291Y-53030686D01*
X145320291Y-53097077D01*
X145288026Y-53194447D01*
X145288026Y-53194448D01*
X145288025Y-53194448D01*
X145277700Y-53295515D01*
X145277700Y-53968869D01*
X145277701Y-53968887D01*
X145288025Y-54069952D01*
X145319045Y-54163563D01*
X145338119Y-54221124D01*
X145342292Y-54233715D01*
X145342293Y-54233718D01*
X145436131Y-54385853D01*
X145454571Y-54453246D01*
X145436131Y-54516047D01*
X145342293Y-54668181D01*
X145342292Y-54668184D01*
X145288026Y-54831947D01*
X145288026Y-54831948D01*
X145288025Y-54831948D01*
X145277700Y-54933015D01*
X145277700Y-55531369D01*
X145277701Y-55531387D01*
X145288025Y-55632452D01*
X145312138Y-55705219D01*
X145338117Y-55783618D01*
X145342292Y-55796215D01*
X145342293Y-55796218D01*
X145357056Y-55820152D01*
X145425088Y-55930450D01*
X145432861Y-55943051D01*
X145546829Y-56057019D01*
X145549833Y-56062521D01*
X145555015Y-56066052D01*
X145566378Y-56092822D01*
X145580314Y-56118342D01*
X145579866Y-56124595D01*
X145582317Y-56130367D01*
X145577404Y-56159027D01*
X145575330Y-56188034D01*
X145571304Y-56194614D01*
X145570513Y-56199233D01*
X145556375Y-56219020D01*
X145550638Y-56228399D01*
X145548779Y-56230430D01*
X145432860Y-56346350D01*
X145412428Y-56379474D01*
X145404522Y-56388117D01*
X145384243Y-56400389D01*
X145366619Y-56416241D01*
X145354902Y-56418147D01*
X145344748Y-56424293D01*
X145321054Y-56423654D01*
X145297657Y-56427461D01*
X145286768Y-56422729D01*
X145274903Y-56422410D01*
X145255315Y-56409062D01*
X145233575Y-56399616D01*
X145218682Y-56384100D01*
X145217165Y-56383066D01*
X145216748Y-56382085D01*
X145214656Y-56379905D01*
X145209723Y-56373477D01*
X145209720Y-56373471D01*
X145097916Y-56261667D01*
X145097915Y-56261666D01*
X145093585Y-56257336D01*
X145093574Y-56257326D01*
X144656403Y-55820155D01*
X144656401Y-55820152D01*
X144537530Y-55701281D01*
X144537529Y-55701280D01*
X144450717Y-55651160D01*
X144450717Y-55651159D01*
X144450713Y-55651158D01*
X144400598Y-55622223D01*
X144247870Y-55581299D01*
X144089756Y-55581299D01*
X144082160Y-55581299D01*
X144082144Y-55581300D01*
X143719836Y-55581300D01*
X143652797Y-55561615D01*
X143607042Y-55508811D01*
X143596964Y-55447665D01*
X143596339Y-55447634D01*
X143596485Y-55444761D01*
X143596477Y-55444711D01*
X143596498Y-55444499D01*
X143596499Y-55444484D01*
X143596500Y-55444477D01*
X143596499Y-54846124D01*
X143591184Y-54794097D01*
X143586174Y-54745047D01*
X143569517Y-54694780D01*
X143531908Y-54581284D01*
X143452342Y-54452287D01*
X143433903Y-54384898D01*
X143452342Y-54322099D01*
X143521908Y-54209316D01*
X143576174Y-54045553D01*
X143586500Y-53944477D01*
X143586499Y-53271124D01*
X143584504Y-53251598D01*
X143576174Y-53170047D01*
X143567751Y-53144629D01*
X143521908Y-53006284D01*
X143431340Y-52859450D01*
X143392016Y-52820126D01*
X143358532Y-52758804D01*
X143363516Y-52689112D01*
X143392018Y-52644764D01*
X143430945Y-52605837D01*
X143430947Y-52605834D01*
X143521448Y-52459111D01*
X143521453Y-52459100D01*
X143575680Y-52295452D01*
X143585999Y-52194454D01*
X143586000Y-52194441D01*
X143586000Y-52107800D01*
X141636001Y-52107800D01*
X141636001Y-52194454D01*
X141646319Y-52295452D01*
X141700546Y-52459100D01*
X141700551Y-52459111D01*
X141791052Y-52605834D01*
X141791055Y-52605838D01*
X141829982Y-52644765D01*
X141863467Y-52706088D01*
X141858483Y-52775780D01*
X141829983Y-52820126D01*
X141790661Y-52859448D01*
X141700093Y-53006281D01*
X141700091Y-53006286D01*
X141692006Y-53030686D01*
X141645826Y-53170047D01*
X141645826Y-53170048D01*
X141645825Y-53170048D01*
X141635500Y-53271115D01*
X141635500Y-53944469D01*
X141635501Y-53944487D01*
X141645825Y-54045552D01*
X141653911Y-54069952D01*
X141689273Y-54176668D01*
X141700092Y-54209315D01*
X141700093Y-54209318D01*
X141707375Y-54221124D01*
X141774856Y-54330528D01*
X141779656Y-54338309D01*
X141798096Y-54405702D01*
X141779656Y-54468503D01*
X141710093Y-54581281D01*
X141710091Y-54581286D01*
X141696058Y-54623636D01*
X141655826Y-54745047D01*
X141655826Y-54745048D01*
X141655825Y-54745048D01*
X141645500Y-54846115D01*
X141645500Y-55444469D01*
X141645501Y-55444484D01*
X141645522Y-55444682D01*
X141645514Y-55444724D01*
X141645662Y-55447631D01*
X141644967Y-55447666D01*
X141642720Y-55459762D01*
X141644904Y-55474947D01*
X141636469Y-55493415D01*
X141632762Y-55513376D01*
X141622251Y-55524548D01*
X141615879Y-55538503D01*
X141598798Y-55549479D01*
X141584888Y-55564267D01*
X141569130Y-55568546D01*
X141557101Y-55576277D01*
X141522166Y-55581300D01*
X141307500Y-55581300D01*
X141240461Y-55561615D01*
X141194706Y-55508811D01*
X141183500Y-55457300D01*
X141183499Y-54895180D01*
X141183498Y-54895162D01*
X141173174Y-54794097D01*
X141162661Y-54762371D01*
X141118908Y-54630334D01*
X141118904Y-54630328D01*
X141118903Y-54630325D01*
X141078819Y-54565340D01*
X141054366Y-54525696D01*
X141035926Y-54458305D01*
X141054367Y-54395503D01*
X141057577Y-54390300D01*
X141118908Y-54290866D01*
X141173174Y-54127103D01*
X141183500Y-54026027D01*
X141183499Y-53352674D01*
X141180334Y-53321694D01*
X141173174Y-53251597D01*
X141164486Y-53225380D01*
X141118908Y-53087834D01*
X141028340Y-52941000D01*
X140989016Y-52901676D01*
X140955532Y-52840354D01*
X140960516Y-52770662D01*
X140989018Y-52726314D01*
X141027945Y-52687387D01*
X141027947Y-52687384D01*
X141118448Y-52540661D01*
X141118453Y-52540650D01*
X141172680Y-52377002D01*
X141182999Y-52276004D01*
X141183000Y-52275991D01*
X141183000Y-52189350D01*
X139233001Y-52189350D01*
X139233001Y-52276004D01*
X139243319Y-52377002D01*
X139297546Y-52540650D01*
X139297551Y-52540661D01*
X139388052Y-52687384D01*
X139388055Y-52687388D01*
X139426982Y-52726315D01*
X139460467Y-52787638D01*
X139455483Y-52857330D01*
X139426983Y-52901676D01*
X139387661Y-52940998D01*
X139297093Y-53087831D01*
X139297091Y-53087836D01*
X139278272Y-53144629D01*
X139242826Y-53251597D01*
X139242826Y-53251598D01*
X139242825Y-53251598D01*
X139232500Y-53352665D01*
X139232500Y-54026019D01*
X139232501Y-54026037D01*
X139242825Y-54127102D01*
X139270070Y-54209320D01*
X139297092Y-54290866D01*
X139358423Y-54390300D01*
X139361633Y-54395503D01*
X139380073Y-54462896D01*
X139361633Y-54525695D01*
X139343343Y-54555347D01*
X139297093Y-54630331D01*
X139297091Y-54630336D01*
X139284549Y-54668186D01*
X139242826Y-54794097D01*
X139242826Y-54794098D01*
X139242825Y-54794098D01*
X139232500Y-54895165D01*
X139232500Y-55493519D01*
X139232501Y-55493537D01*
X139242825Y-55594602D01*
X139264551Y-55660165D01*
X139294872Y-55751668D01*
X139297092Y-55758365D01*
X139297093Y-55758368D01*
X139320436Y-55796213D01*
X139383527Y-55898500D01*
X139387661Y-55905201D01*
X139501629Y-56019169D01*
X139535114Y-56080492D01*
X139530130Y-56150184D01*
X139501629Y-56194531D01*
X139387661Y-56308498D01*
X139297093Y-56455331D01*
X139297091Y-56455336D01*
X139284549Y-56493186D01*
X139242826Y-56619097D01*
X139242826Y-56619098D01*
X139242825Y-56619098D01*
X139232500Y-56720165D01*
X139232500Y-57318519D01*
X139232501Y-57318537D01*
X139242825Y-57419602D01*
X139271564Y-57506329D01*
X139297092Y-57583366D01*
X139387660Y-57730200D01*
X139509650Y-57852190D01*
X139656484Y-57942758D01*
X139820247Y-57997024D01*
X139921323Y-58007350D01*
X140344052Y-58007349D01*
X140411091Y-58027033D01*
X140456846Y-58079837D01*
X140466790Y-58148996D01*
X140437765Y-58212552D01*
X140431733Y-58219030D01*
X127532584Y-71118181D01*
X127471261Y-71151666D01*
X127444903Y-71154500D01*
X126989500Y-71154500D01*
X126922461Y-71134815D01*
X126876706Y-71082011D01*
X126865500Y-71030500D01*
X126865500Y-67021967D01*
X126885185Y-66954928D01*
X126916615Y-66921649D01*
X126959500Y-66890491D01*
X127021341Y-66845561D01*
X127150561Y-66716341D01*
X127257976Y-66568497D01*
X127340941Y-66405669D01*
X127397412Y-66231868D01*
X127426000Y-66051373D01*
X127426000Y-65868627D01*
X127397412Y-65688132D01*
X127356526Y-65562297D01*
X127340942Y-65514333D01*
X127340941Y-65514330D01*
X127281870Y-65398398D01*
X127257976Y-65351503D01*
X127150561Y-65203659D01*
X127021341Y-65074439D01*
X126942736Y-65017329D01*
X126916614Y-64998350D01*
X126873949Y-64943019D01*
X126865500Y-64898032D01*
X126865500Y-64379552D01*
X126885185Y-64312513D01*
X126901819Y-64291871D01*
X126927192Y-64266498D01*
X126995340Y-64198350D01*
X127085908Y-64051516D01*
X127140174Y-63887753D01*
X127150500Y-63786677D01*
X127150499Y-63213324D01*
X127148920Y-63197870D01*
X127140174Y-63112247D01*
X127106998Y-63012130D01*
X127085908Y-62948484D01*
X126995340Y-62801650D01*
X126873350Y-62679660D01*
X126873349Y-62679659D01*
X126821902Y-62647926D01*
X126775178Y-62595978D01*
X126763000Y-62542388D01*
X126763000Y-61628207D01*
X127452001Y-61628207D01*
X127452001Y-61991795D01*
X127454728Y-62019480D01*
X127487638Y-62353631D01*
X127558565Y-62710213D01*
X127558568Y-62710224D01*
X127664115Y-63058166D01*
X127728379Y-63213312D01*
X127796202Y-63377053D01*
X127803255Y-63394079D01*
X127803257Y-63394084D01*
X127974641Y-63714721D01*
X127974652Y-63714739D01*
X128176641Y-64017036D01*
X128176651Y-64017050D01*
X128407308Y-64298107D01*
X128664394Y-64555193D01*
X128664399Y-64555197D01*
X128664400Y-64555198D01*
X128945457Y-64785855D01*
X129247769Y-64987854D01*
X129247778Y-64987859D01*
X129247780Y-64987860D01*
X129568417Y-65159244D01*
X129568419Y-65159244D01*
X129568425Y-65159248D01*
X129904337Y-65298387D01*
X130252268Y-65403931D01*
X130252274Y-65403932D01*
X130252277Y-65403933D01*
X130252288Y-65403936D01*
X130608870Y-65474863D01*
X130970707Y-65510501D01*
X130970710Y-65510501D01*
X131334292Y-65510501D01*
X131334295Y-65510501D01*
X131696132Y-65474863D01*
X131765546Y-65461055D01*
X132052713Y-65403936D01*
X132052724Y-65403933D01*
X132052724Y-65403932D01*
X132052734Y-65403931D01*
X132400665Y-65298387D01*
X132736577Y-65159248D01*
X133057233Y-64987854D01*
X133359545Y-64785855D01*
X133640602Y-64555198D01*
X133897698Y-64298102D01*
X134128355Y-64017045D01*
X134330354Y-63714733D01*
X134501748Y-63394077D01*
X134640887Y-63058165D01*
X134746431Y-62710234D01*
X134746433Y-62710224D01*
X134746436Y-62710213D01*
X134817363Y-62353631D01*
X134821640Y-62310204D01*
X134853001Y-61991795D01*
X134853001Y-61628207D01*
X134817363Y-61266370D01*
X134807329Y-61215925D01*
X134746436Y-60909788D01*
X134746433Y-60909777D01*
X134746432Y-60909774D01*
X134746431Y-60909768D01*
X134640887Y-60561837D01*
X134501748Y-60225925D01*
X134330354Y-59905269D01*
X134128355Y-59602957D01*
X133897698Y-59321900D01*
X133897697Y-59321899D01*
X133897693Y-59321894D01*
X133640607Y-59064808D01*
X133359550Y-58834151D01*
X133359549Y-58834150D01*
X133359545Y-58834147D01*
X133057233Y-58632148D01*
X133057228Y-58632145D01*
X133057221Y-58632141D01*
X132736584Y-58460757D01*
X132736579Y-58460755D01*
X132400666Y-58321615D01*
X132052724Y-58216068D01*
X132052713Y-58216065D01*
X131696131Y-58145138D01*
X131423612Y-58118297D01*
X131334295Y-58109501D01*
X130970707Y-58109501D01*
X130888180Y-58117629D01*
X130608870Y-58145138D01*
X130252288Y-58216065D01*
X130252277Y-58216068D01*
X129904335Y-58321615D01*
X129568422Y-58460755D01*
X129568417Y-58460757D01*
X129247780Y-58632141D01*
X129247762Y-58632152D01*
X128945465Y-58834141D01*
X128945451Y-58834151D01*
X128664394Y-59064808D01*
X128407308Y-59321894D01*
X128176651Y-59602951D01*
X128176641Y-59602965D01*
X127974652Y-59905262D01*
X127974641Y-59905280D01*
X127803257Y-60225917D01*
X127803255Y-60225922D01*
X127664115Y-60561835D01*
X127558568Y-60909777D01*
X127558565Y-60909788D01*
X127487638Y-61266370D01*
X127466547Y-61480519D01*
X127452001Y-61628207D01*
X126763000Y-61628207D01*
X126763000Y-55924059D01*
X126766139Y-55911007D01*
X126765151Y-55901065D01*
X126774126Y-55877802D01*
X126776564Y-55867668D01*
X126779206Y-55862492D01*
X126779787Y-55861694D01*
X126859564Y-55705122D01*
X126883478Y-55679846D01*
X126907490Y-55654423D01*
X126907544Y-55654409D01*
X126907583Y-55654369D01*
X126941624Y-55645969D01*
X126975311Y-55637628D01*
X126975363Y-55637645D01*
X126975419Y-55637632D01*
X127008371Y-55648894D01*
X127041446Y-55660165D01*
X127041486Y-55660211D01*
X127041534Y-55660228D01*
X127041893Y-55660680D01*
X127080484Y-55705218D01*
X127160213Y-55861694D01*
X127277019Y-56022464D01*
X127417536Y-56162981D01*
X127578306Y-56279787D01*
X127665149Y-56324035D01*
X127755367Y-56370005D01*
X127755370Y-56370006D01*
X127798748Y-56384100D01*
X127944364Y-56431413D01*
X128140639Y-56462500D01*
X128140640Y-56462500D01*
X128339360Y-56462500D01*
X128339361Y-56462500D01*
X128535636Y-56431413D01*
X128724632Y-56370005D01*
X128901694Y-56279787D01*
X129062464Y-56162981D01*
X129202981Y-56022464D01*
X129319787Y-55861694D01*
X129399515Y-55705218D01*
X129447490Y-55654423D01*
X129515311Y-55637628D01*
X129581446Y-55660165D01*
X129620484Y-55705218D01*
X129700213Y-55861694D01*
X129817019Y-56022464D01*
X129957536Y-56162981D01*
X130118306Y-56279787D01*
X130205149Y-56324035D01*
X130295367Y-56370005D01*
X130295370Y-56370006D01*
X130338748Y-56384100D01*
X130484364Y-56431413D01*
X130680639Y-56462500D01*
X130680640Y-56462500D01*
X130879360Y-56462500D01*
X130879361Y-56462500D01*
X131075636Y-56431413D01*
X131264632Y-56370005D01*
X131441694Y-56279787D01*
X131602464Y-56162981D01*
X131742981Y-56022464D01*
X131859787Y-55861694D01*
X131939515Y-55705218D01*
X131987490Y-55654423D01*
X132055311Y-55637628D01*
X132121446Y-55660165D01*
X132160484Y-55705218D01*
X132240213Y-55861694D01*
X132357019Y-56022464D01*
X132497536Y-56162981D01*
X132658306Y-56279787D01*
X132745149Y-56324035D01*
X132835367Y-56370005D01*
X132835370Y-56370006D01*
X132878748Y-56384100D01*
X133024364Y-56431413D01*
X133220639Y-56462500D01*
X133220640Y-56462500D01*
X133419360Y-56462500D01*
X133419361Y-56462500D01*
X133615636Y-56431413D01*
X133804632Y-56370005D01*
X133981694Y-56279787D01*
X134142464Y-56162981D01*
X134282981Y-56022464D01*
X134399787Y-55861694D01*
X134490005Y-55684632D01*
X134551413Y-55495636D01*
X134582500Y-55299361D01*
X134582500Y-55100639D01*
X134551413Y-54904364D01*
X134513409Y-54787398D01*
X134490006Y-54715370D01*
X134490005Y-54715367D01*
X134436588Y-54610531D01*
X134399787Y-54538306D01*
X134282981Y-54377536D01*
X134142464Y-54237019D01*
X133981694Y-54120213D01*
X133825218Y-54040484D01*
X133774423Y-53992510D01*
X133757628Y-53924689D01*
X133780165Y-53858554D01*
X133825218Y-53819515D01*
X133981694Y-53739787D01*
X134142464Y-53622981D01*
X134282981Y-53482464D01*
X134399787Y-53321694D01*
X134490005Y-53144632D01*
X134551413Y-52955636D01*
X134582500Y-52759361D01*
X134582500Y-52560639D01*
X134551413Y-52364364D01*
X134505277Y-52222371D01*
X134490006Y-52175370D01*
X134490005Y-52175367D01*
X134432266Y-52062050D01*
X134399787Y-51998306D01*
X134282981Y-51837536D01*
X134142464Y-51697019D01*
X133981694Y-51580213D01*
X133971757Y-51575150D01*
X133804632Y-51489994D01*
X133804629Y-51489993D01*
X133615637Y-51428587D01*
X133517498Y-51413043D01*
X133419361Y-51397500D01*
X133220639Y-51397500D01*
X133155214Y-51407862D01*
X133024362Y-51428587D01*
X132835370Y-51489993D01*
X132835367Y-51489994D01*
X132658305Y-51580213D01*
X132497533Y-51697021D01*
X132357021Y-51837533D01*
X132240213Y-51998305D01*
X132160485Y-52154780D01*
X132112510Y-52205576D01*
X132044689Y-52222371D01*
X131978554Y-52199833D01*
X131939515Y-52154780D01*
X131892266Y-52062050D01*
X131859787Y-51998306D01*
X131742981Y-51837536D01*
X131602464Y-51697019D01*
X131441694Y-51580213D01*
X131431757Y-51575150D01*
X131264632Y-51489994D01*
X131264629Y-51489993D01*
X131075637Y-51428587D01*
X130977498Y-51413043D01*
X130879361Y-51397500D01*
X130680639Y-51397500D01*
X130615214Y-51407862D01*
X130484362Y-51428587D01*
X130295370Y-51489993D01*
X130295367Y-51489994D01*
X130118305Y-51580213D01*
X129957533Y-51697021D01*
X129817021Y-51837533D01*
X129700213Y-51998305D01*
X129620485Y-52154780D01*
X129572510Y-52205576D01*
X129504689Y-52222371D01*
X129438554Y-52199833D01*
X129399515Y-52154780D01*
X129352266Y-52062050D01*
X129319787Y-51998306D01*
X129202981Y-51837536D01*
X129062464Y-51697019D01*
X128901694Y-51580213D01*
X128891757Y-51575150D01*
X128724632Y-51489994D01*
X128724629Y-51489993D01*
X128535637Y-51428587D01*
X128437498Y-51413043D01*
X128339361Y-51397500D01*
X128140639Y-51397500D01*
X128075214Y-51407862D01*
X127944362Y-51428587D01*
X127755370Y-51489993D01*
X127755367Y-51489994D01*
X127578305Y-51580213D01*
X127417533Y-51697021D01*
X127277021Y-51837533D01*
X127160213Y-51998305D01*
X127080485Y-52154780D01*
X127032510Y-52205576D01*
X126964689Y-52222371D01*
X126898554Y-52199833D01*
X126859515Y-52154780D01*
X126812266Y-52062050D01*
X126779787Y-51998306D01*
X126662981Y-51837536D01*
X126522464Y-51697019D01*
X126361694Y-51580213D01*
X126351757Y-51575150D01*
X126184632Y-51489994D01*
X126184629Y-51489993D01*
X125995637Y-51428587D01*
X125897498Y-51413043D01*
X125799361Y-51397500D01*
X125600639Y-51397500D01*
X125535214Y-51407862D01*
X125404362Y-51428587D01*
X125215370Y-51489993D01*
X125215367Y-51489994D01*
X125038305Y-51580213D01*
X124877533Y-51697021D01*
X124737021Y-51837533D01*
X124620213Y-51998305D01*
X124540204Y-52155331D01*
X124492229Y-52206127D01*
X124424408Y-52222922D01*
X124358273Y-52200384D01*
X124319234Y-52155331D01*
X124239358Y-51998567D01*
X124212268Y-51961283D01*
X123649494Y-52524057D01*
X123633381Y-52463919D01*
X123566502Y-52348080D01*
X123471920Y-52253498D01*
X123356081Y-52186619D01*
X123295942Y-52170504D01*
X123858716Y-51607731D01*
X123858715Y-51607730D01*
X123821432Y-51580641D01*
X123644437Y-51490457D01*
X123455522Y-51429075D01*
X123259321Y-51398000D01*
X123060679Y-51398000D01*
X122864479Y-51429075D01*
X122864476Y-51429075D01*
X122675562Y-51490457D01*
X122498564Y-51580643D01*
X122461283Y-51607729D01*
X122461282Y-51607730D01*
X123024058Y-52170504D01*
X122963919Y-52186619D01*
X122848080Y-52253498D01*
X122753498Y-52348080D01*
X122686619Y-52463919D01*
X122670504Y-52524057D01*
X122107730Y-51961282D01*
X122107729Y-51961283D01*
X122080643Y-51998564D01*
X121990457Y-52175562D01*
X121929075Y-52364476D01*
X121929075Y-52364479D01*
X121898000Y-52560678D01*
X121898000Y-52759321D01*
X121929075Y-52955520D01*
X121929075Y-52955523D01*
X121990457Y-53144437D01*
X122080641Y-53321432D01*
X122107730Y-53358715D01*
X122107731Y-53358716D01*
X122670504Y-52795942D01*
X122686619Y-52856081D01*
X122753498Y-52971920D01*
X122848080Y-53066502D01*
X122963919Y-53133381D01*
X123024057Y-53149494D01*
X122461283Y-53712268D01*
X122461283Y-53712269D01*
X122498567Y-53739358D01*
X122655331Y-53819234D01*
X122706127Y-53867209D01*
X122722922Y-53935030D01*
X122700384Y-54001165D01*
X122655331Y-54040204D01*
X122498305Y-54120213D01*
X122337533Y-54237021D01*
X122197021Y-54377533D01*
X122080213Y-54538305D01*
X121989994Y-54715367D01*
X121989993Y-54715370D01*
X121928587Y-54904362D01*
X121897500Y-55100639D01*
X121897500Y-55299360D01*
X121928587Y-55495637D01*
X121989993Y-55684629D01*
X121989994Y-55684632D01*
X122080213Y-55861694D01*
X122197019Y-56022464D01*
X122337536Y-56162981D01*
X122498306Y-56279787D01*
X122585149Y-56324035D01*
X122675367Y-56370005D01*
X122675370Y-56370006D01*
X122718748Y-56384100D01*
X122864364Y-56431413D01*
X123060639Y-56462500D01*
X123060640Y-56462500D01*
X123259360Y-56462500D01*
X123259361Y-56462500D01*
X123455636Y-56431413D01*
X123644632Y-56370005D01*
X123821694Y-56279787D01*
X123982464Y-56162981D01*
X124122981Y-56022464D01*
X124239787Y-55861694D01*
X124319515Y-55705218D01*
X124367490Y-55654423D01*
X124435311Y-55637628D01*
X124501446Y-55660165D01*
X124540484Y-55705218D01*
X124620213Y-55861694D01*
X124737019Y-56022464D01*
X124877536Y-56162981D01*
X125038306Y-56279787D01*
X125125149Y-56324035D01*
X125215367Y-56370005D01*
X125215370Y-56370006D01*
X125258748Y-56384100D01*
X125404364Y-56431413D01*
X125457400Y-56439813D01*
X125520531Y-56469740D01*
X125557463Y-56529051D01*
X125562000Y-56562285D01*
X125562000Y-62542388D01*
X125542315Y-62609427D01*
X125519389Y-62635939D01*
X125511731Y-62642601D01*
X125451650Y-62679660D01*
X125334635Y-62796674D01*
X125331389Y-62799499D01*
X125303392Y-62812351D01*
X125276358Y-62827114D01*
X125271927Y-62826797D01*
X125267892Y-62828650D01*
X125237395Y-62824327D01*
X125206666Y-62822130D01*
X125202358Y-62819361D01*
X125198713Y-62818845D01*
X125190425Y-62811692D01*
X125162319Y-62793629D01*
X125048351Y-62679661D01*
X125048350Y-62679660D01*
X124901516Y-62589092D01*
X124737753Y-62534826D01*
X124737751Y-62534825D01*
X124636678Y-62524500D01*
X124038330Y-62524500D01*
X124038312Y-62524501D01*
X123937247Y-62534825D01*
X123773484Y-62589092D01*
X123773481Y-62589093D01*
X123626648Y-62679661D01*
X123504661Y-62801648D01*
X123414093Y-62948481D01*
X123414091Y-62948486D01*
X123412755Y-62952518D01*
X123359826Y-63112247D01*
X123359826Y-63112248D01*
X123359825Y-63112248D01*
X123349500Y-63213315D01*
X123349500Y-63786669D01*
X123349501Y-63786687D01*
X123359825Y-63887752D01*
X123370589Y-63920234D01*
X123414092Y-64051516D01*
X123504660Y-64198350D01*
X123626650Y-64320340D01*
X123773484Y-64410908D01*
X123937247Y-64465174D01*
X124038323Y-64475500D01*
X124294301Y-64475499D01*
X124302986Y-64478049D01*
X124311947Y-64476761D01*
X124335983Y-64487738D01*
X124361339Y-64495183D01*
X124367267Y-64502025D01*
X124375503Y-64505786D01*
X124389789Y-64528017D01*
X124407094Y-64547987D01*
X124409381Y-64558502D01*
X124413277Y-64564564D01*
X124418300Y-64599499D01*
X124418300Y-64807883D01*
X124398615Y-64874922D01*
X124345811Y-64920677D01*
X124276653Y-64930621D01*
X124238005Y-64918368D01*
X124170669Y-64884059D01*
X124170666Y-64884057D01*
X123996869Y-64827588D01*
X123872457Y-64807883D01*
X123816373Y-64799000D01*
X123633627Y-64799000D01*
X123615425Y-64801883D01*
X123453130Y-64827588D01*
X123279333Y-64884057D01*
X123279330Y-64884058D01*
X123116502Y-64967024D01*
X123047264Y-65017329D01*
X122968659Y-65074439D01*
X122968657Y-65074441D01*
X122968656Y-65074441D01*
X122839441Y-65203656D01*
X122839441Y-65203657D01*
X122839439Y-65203659D01*
X122807157Y-65248091D01*
X122732024Y-65351502D01*
X122649058Y-65514330D01*
X122649057Y-65514333D01*
X122592588Y-65688130D01*
X122577473Y-65783563D01*
X122547544Y-65846698D01*
X122488232Y-65883629D01*
X122418370Y-65882631D01*
X122360137Y-65844021D01*
X122332527Y-65783563D01*
X122328114Y-65755703D01*
X122317412Y-65688132D01*
X122276526Y-65562297D01*
X122260942Y-65514333D01*
X122260941Y-65514330D01*
X122201870Y-65398398D01*
X122177976Y-65351503D01*
X122070561Y-65203659D01*
X121941341Y-65074439D01*
X121793497Y-64967024D01*
X121746385Y-64943019D01*
X121630669Y-64884058D01*
X121630666Y-64884057D01*
X121456869Y-64827588D01*
X121332457Y-64807883D01*
X121276373Y-64799000D01*
X121093627Y-64799000D01*
X121075425Y-64801883D01*
X120913130Y-64827588D01*
X120739333Y-64884057D01*
X120739330Y-64884058D01*
X120576502Y-64967024D01*
X120507264Y-65017329D01*
X120428659Y-65074439D01*
X120428657Y-65074441D01*
X120428656Y-65074441D01*
X120299441Y-65203656D01*
X120299441Y-65203657D01*
X120299439Y-65203659D01*
X120267157Y-65248091D01*
X120192024Y-65351502D01*
X120109058Y-65514330D01*
X120109057Y-65514333D01*
X120052588Y-65688130D01*
X120037473Y-65783563D01*
X120007544Y-65846698D01*
X119948232Y-65883629D01*
X119878370Y-65882631D01*
X119820137Y-65844021D01*
X119792527Y-65783563D01*
X119788114Y-65755703D01*
X119777412Y-65688132D01*
X119736526Y-65562297D01*
X119720942Y-65514333D01*
X119720941Y-65514330D01*
X119661870Y-65398398D01*
X119637976Y-65351503D01*
X119530561Y-65203659D01*
X119401341Y-65074439D01*
X119253497Y-64967024D01*
X119206385Y-64943019D01*
X119090669Y-64884058D01*
X119090666Y-64884057D01*
X118916869Y-64827588D01*
X118792457Y-64807883D01*
X118736373Y-64799000D01*
X118553627Y-64799000D01*
X118535425Y-64801883D01*
X118373130Y-64827588D01*
X118199333Y-64884057D01*
X118199330Y-64884059D01*
X118130796Y-64918979D01*
X118062126Y-64931875D01*
X117997386Y-64905598D01*
X117957129Y-64848492D01*
X117950501Y-64808494D01*
X117950501Y-59702155D01*
X118946800Y-59702155D01*
X118946800Y-60500000D01*
X120013788Y-60500000D01*
X119980875Y-60557007D01*
X119946800Y-60684174D01*
X119946800Y-60815826D01*
X119980875Y-60942993D01*
X120013788Y-61000000D01*
X118946800Y-61000000D01*
X118946800Y-61797844D01*
X118953201Y-61857372D01*
X118953203Y-61857379D01*
X119003445Y-61992086D01*
X119003449Y-61992093D01*
X119089609Y-62107187D01*
X119089612Y-62107190D01*
X119204706Y-62193350D01*
X119204713Y-62193354D01*
X119339420Y-62243596D01*
X119339427Y-62243598D01*
X119398955Y-62249999D01*
X119398972Y-62250000D01*
X120196800Y-62250000D01*
X120196800Y-61183012D01*
X120253807Y-61215925D01*
X120380974Y-61250000D01*
X120512626Y-61250000D01*
X120639793Y-61215925D01*
X120696800Y-61183012D01*
X120696800Y-62250000D01*
X121494628Y-62250000D01*
X121494644Y-62249999D01*
X121554172Y-62243598D01*
X121554179Y-62243596D01*
X121688886Y-62193354D01*
X121688893Y-62193350D01*
X121803987Y-62107190D01*
X121803990Y-62107187D01*
X121890150Y-61992093D01*
X121890154Y-61992086D01*
X121940396Y-61857379D01*
X121940398Y-61857372D01*
X121946799Y-61797844D01*
X121946800Y-61797827D01*
X121946800Y-61000000D01*
X120879812Y-61000000D01*
X120912725Y-60942993D01*
X120946800Y-60815826D01*
X120946800Y-60684174D01*
X120912725Y-60557007D01*
X120879812Y-60500000D01*
X121946800Y-60500000D01*
X121946800Y-59702172D01*
X121946799Y-59702155D01*
X121940398Y-59642627D01*
X121940396Y-59642620D01*
X121890154Y-59507913D01*
X121890150Y-59507906D01*
X121803990Y-59392812D01*
X121803987Y-59392809D01*
X121688893Y-59306649D01*
X121688886Y-59306645D01*
X121554179Y-59256403D01*
X121554172Y-59256401D01*
X121494644Y-59250000D01*
X120696800Y-59250000D01*
X120696800Y-60316988D01*
X120639793Y-60284075D01*
X120512626Y-60250000D01*
X120380974Y-60250000D01*
X120253807Y-60284075D01*
X120196800Y-60316988D01*
X120196800Y-59250000D01*
X119398955Y-59250000D01*
X119339427Y-59256401D01*
X119339420Y-59256403D01*
X119204713Y-59306645D01*
X119204706Y-59306649D01*
X119089612Y-59392809D01*
X119089609Y-59392812D01*
X119003449Y-59507906D01*
X119003445Y-59507913D01*
X118953203Y-59642620D01*
X118953201Y-59642627D01*
X118946800Y-59702155D01*
X117950501Y-59702155D01*
X117950501Y-52454428D01*
X117950817Y-52445582D01*
X117952185Y-52426450D01*
X117965131Y-52245437D01*
X117967647Y-52227939D01*
X118009357Y-52036200D01*
X118014334Y-52019249D01*
X118082912Y-51835386D01*
X118090259Y-51819301D01*
X118184295Y-51647084D01*
X118193851Y-51632215D01*
X118311444Y-51475129D01*
X118323018Y-51461772D01*
X118461772Y-51323018D01*
X118475129Y-51311444D01*
X118632215Y-51193851D01*
X118647084Y-51184295D01*
X118819304Y-51090257D01*
X118835386Y-51082912D01*
X119019249Y-51014334D01*
X119036200Y-51009357D01*
X119227939Y-50967647D01*
X119245437Y-50965131D01*
X119445583Y-50950817D01*
X119454429Y-50950501D01*
X119515893Y-50950501D01*
X139329504Y-50950501D01*
X139396543Y-50970186D01*
G37*
%TD.AperFunction*%
%TA.AperFunction,Conductor*%
G36*
X119624602Y-79666050D02*
G01*
X119624603Y-79666049D01*
X119637541Y-79648243D01*
X119637545Y-79648236D01*
X119720475Y-79485479D01*
X119776924Y-79311748D01*
X119776924Y-79311746D01*
X119792273Y-79214839D01*
X119822202Y-79151704D01*
X119881513Y-79114772D01*
X119951375Y-79115770D01*
X120009608Y-79154379D01*
X120037219Y-79214837D01*
X120052588Y-79311869D01*
X120109057Y-79485666D01*
X120109058Y-79485669D01*
X120170516Y-79606286D01*
X120192024Y-79648497D01*
X120299439Y-79796341D01*
X120299441Y-79796343D01*
X120313181Y-79810083D01*
X120346666Y-79871406D01*
X120349500Y-79897764D01*
X120349500Y-81294655D01*
X120329815Y-81361694D01*
X120277011Y-81407449D01*
X120207853Y-81417393D01*
X120144297Y-81388368D01*
X120137819Y-81382336D01*
X120135538Y-81380055D01*
X120135534Y-81380052D01*
X119988811Y-81289551D01*
X119988800Y-81289546D01*
X119825152Y-81235319D01*
X119724154Y-81225000D01*
X119625000Y-81225000D01*
X119625000Y-83174999D01*
X119724140Y-83174999D01*
X119724154Y-83174998D01*
X119825152Y-83164680D01*
X119988800Y-83110453D01*
X119988811Y-83110448D01*
X120135535Y-83019947D01*
X120149460Y-83006021D01*
X120210782Y-82972533D01*
X120280473Y-82977514D01*
X120324827Y-83006017D01*
X120339150Y-83020340D01*
X120485984Y-83110908D01*
X120649747Y-83165174D01*
X120750823Y-83175500D01*
X121449176Y-83175499D01*
X121449184Y-83175498D01*
X121449187Y-83175498D01*
X121504530Y-83169844D01*
X121550253Y-83165174D01*
X121714016Y-83110908D01*
X121742067Y-83093606D01*
X121782024Y-83068961D01*
X121847120Y-83050500D01*
X123695396Y-83050500D01*
X123742844Y-83059937D01*
X123766503Y-83069737D01*
X123766508Y-83069738D01*
X123766511Y-83069739D01*
X123921153Y-83100499D01*
X123921156Y-83100500D01*
X123989500Y-83100500D01*
X124056539Y-83120185D01*
X124102294Y-83172989D01*
X124113500Y-83224500D01*
X124113500Y-86656915D01*
X124093815Y-86723954D01*
X124041011Y-86769709D01*
X123971853Y-86779653D01*
X123970103Y-86779388D01*
X123841373Y-86759000D01*
X123658627Y-86759000D01*
X123598462Y-86768529D01*
X123478130Y-86787588D01*
X123304333Y-86844057D01*
X123304330Y-86844058D01*
X123141502Y-86927024D01*
X123098386Y-86958350D01*
X122993659Y-87034439D01*
X122993657Y-87034441D01*
X122993656Y-87034441D01*
X122864441Y-87163656D01*
X122864441Y-87163657D01*
X122864439Y-87163659D01*
X122864437Y-87163662D01*
X122757024Y-87311502D01*
X122674058Y-87474330D01*
X122674057Y-87474333D01*
X122617588Y-87648130D01*
X122602473Y-87743563D01*
X122572544Y-87806698D01*
X122513232Y-87843629D01*
X122443370Y-87842631D01*
X122385137Y-87804021D01*
X122357527Y-87743563D01*
X122350863Y-87701490D01*
X122342412Y-87648132D01*
X122306735Y-87538330D01*
X122285942Y-87474333D01*
X122285941Y-87474330D01*
X122218481Y-87341933D01*
X122202976Y-87311503D01*
X122095561Y-87163659D01*
X121966341Y-87034439D01*
X121818497Y-86927024D01*
X121810499Y-86922949D01*
X121655669Y-86844058D01*
X121655666Y-86844057D01*
X121481869Y-86787588D01*
X121368986Y-86769709D01*
X121301373Y-86759000D01*
X121118627Y-86759000D01*
X121058462Y-86768529D01*
X120938130Y-86787588D01*
X120764333Y-86844057D01*
X120764330Y-86844058D01*
X120601502Y-86927024D01*
X120558386Y-86958350D01*
X120453659Y-87034439D01*
X120453657Y-87034441D01*
X120453656Y-87034441D01*
X120324441Y-87163656D01*
X120324441Y-87163657D01*
X120324439Y-87163659D01*
X120324437Y-87163662D01*
X120217024Y-87311502D01*
X120134058Y-87474330D01*
X120134057Y-87474333D01*
X120077588Y-87648130D01*
X120062473Y-87743563D01*
X120032544Y-87806698D01*
X119973232Y-87843629D01*
X119903370Y-87842631D01*
X119845137Y-87804021D01*
X119817527Y-87743563D01*
X119810863Y-87701490D01*
X119802412Y-87648132D01*
X119766735Y-87538330D01*
X119745942Y-87474333D01*
X119745941Y-87474330D01*
X119678481Y-87341933D01*
X119662976Y-87311503D01*
X119555561Y-87163659D01*
X119426341Y-87034439D01*
X119278497Y-86927024D01*
X119270499Y-86922949D01*
X119115669Y-86844058D01*
X119115666Y-86844057D01*
X118941869Y-86787588D01*
X118828986Y-86769709D01*
X118761373Y-86759000D01*
X118578627Y-86759000D01*
X118518462Y-86768529D01*
X118398130Y-86787588D01*
X118224333Y-86844057D01*
X118224330Y-86844059D01*
X118130796Y-86891717D01*
X118062126Y-86904613D01*
X117997386Y-86878336D01*
X117957129Y-86821230D01*
X117950501Y-86781232D01*
X117950501Y-82486654D01*
X118337501Y-82486654D01*
X118347819Y-82587652D01*
X118402046Y-82751300D01*
X118402051Y-82751311D01*
X118492552Y-82898034D01*
X118492555Y-82898038D01*
X118614461Y-83019944D01*
X118614465Y-83019947D01*
X118761188Y-83110448D01*
X118761199Y-83110453D01*
X118924847Y-83164680D01*
X119025851Y-83174999D01*
X119125000Y-83174998D01*
X119125000Y-82450000D01*
X118337501Y-82450000D01*
X118337501Y-82486654D01*
X117950501Y-82486654D01*
X117950501Y-81913345D01*
X118337500Y-81913345D01*
X118337500Y-81950000D01*
X119125000Y-81950000D01*
X119125000Y-81224999D01*
X119025860Y-81225000D01*
X119025844Y-81225001D01*
X118924847Y-81235319D01*
X118761199Y-81289546D01*
X118761188Y-81289551D01*
X118614465Y-81380052D01*
X118614461Y-81380055D01*
X118492555Y-81501961D01*
X118492552Y-81501965D01*
X118402051Y-81648688D01*
X118402046Y-81648699D01*
X118347819Y-81812347D01*
X118337500Y-81913345D01*
X117950501Y-81913345D01*
X117950501Y-80190943D01*
X117970186Y-80123904D01*
X118022990Y-80078149D01*
X118092148Y-80068205D01*
X118130797Y-80080459D01*
X118199518Y-80115475D01*
X118373252Y-80171924D01*
X118553668Y-80200500D01*
X118736332Y-80200500D01*
X118916747Y-80171924D01*
X118916748Y-80171924D01*
X119090479Y-80115475D01*
X119253236Y-80032545D01*
X119253243Y-80032541D01*
X119271049Y-80019603D01*
X119271050Y-80019602D01*
X118697947Y-79446500D01*
X118698517Y-79446500D01*
X118801903Y-79418798D01*
X118894597Y-79365281D01*
X118970281Y-79289597D01*
X119023798Y-79196903D01*
X119051500Y-79093517D01*
X119051500Y-79092948D01*
X119624602Y-79666050D01*
G37*
%TD.AperFunction*%
%TA.AperFunction,Conductor*%
G36*
X122491630Y-66037368D02*
G01*
X122549863Y-66075978D01*
X122577472Y-66136435D01*
X122579542Y-66149500D01*
X122592588Y-66231869D01*
X122649057Y-66405666D01*
X122649058Y-66405669D01*
X122728364Y-66561314D01*
X122732024Y-66568497D01*
X122839439Y-66716341D01*
X122968659Y-66845561D01*
X123116503Y-66952976D01*
X123186684Y-66988735D01*
X123279330Y-67035941D01*
X123279333Y-67035942D01*
X123305568Y-67044466D01*
X123453132Y-67092412D01*
X123633627Y-67121000D01*
X123633628Y-67121000D01*
X123816372Y-67121000D01*
X123816373Y-67121000D01*
X123996868Y-67092412D01*
X124170669Y-67035941D01*
X124238004Y-67001631D01*
X124306673Y-66988735D01*
X124371414Y-67015011D01*
X124411671Y-67072117D01*
X124418300Y-67112116D01*
X124418300Y-73681102D01*
X124398615Y-73748141D01*
X124381981Y-73768783D01*
X120704481Y-77446282D01*
X120704479Y-77446285D01*
X120654361Y-77533094D01*
X120654359Y-77533096D01*
X120625425Y-77583209D01*
X120625424Y-77583210D01*
X120614312Y-77624682D01*
X120584499Y-77735943D01*
X120584499Y-77735945D01*
X120584499Y-77904046D01*
X120584500Y-77904059D01*
X120584500Y-77978032D01*
X120564815Y-78045071D01*
X120533386Y-78078350D01*
X120428657Y-78154440D01*
X120299441Y-78283656D01*
X120299441Y-78283657D01*
X120299439Y-78283659D01*
X120254909Y-78344949D01*
X120192024Y-78431502D01*
X120109058Y-78594330D01*
X120109057Y-78594333D01*
X120052588Y-78768130D01*
X120037219Y-78865162D01*
X120007289Y-78928296D01*
X119947977Y-78965227D01*
X119878115Y-78964229D01*
X119819882Y-78925618D01*
X119792273Y-78865160D01*
X119776925Y-78768253D01*
X119776924Y-78768251D01*
X119720475Y-78594520D01*
X119637551Y-78431773D01*
X119637543Y-78431760D01*
X119624602Y-78413949D01*
X119624602Y-78413948D01*
X119051500Y-78987051D01*
X119051500Y-78986483D01*
X119023798Y-78883097D01*
X118970281Y-78790403D01*
X118894597Y-78714719D01*
X118801903Y-78661202D01*
X118698517Y-78633500D01*
X118697946Y-78633500D01*
X119271050Y-78060396D01*
X119271049Y-78060395D01*
X119253237Y-78047454D01*
X119090479Y-77964524D01*
X118916747Y-77908075D01*
X118736332Y-77879500D01*
X118553668Y-77879500D01*
X118373252Y-77908075D01*
X118373251Y-77908075D01*
X118199520Y-77964524D01*
X118130796Y-77999541D01*
X118062127Y-78012437D01*
X117997386Y-77986161D01*
X117957129Y-77929054D01*
X117950501Y-77889056D01*
X117950501Y-67111505D01*
X117970186Y-67044466D01*
X118022990Y-66998711D01*
X118092148Y-66988767D01*
X118130797Y-67001021D01*
X118199326Y-67035939D01*
X118199333Y-67035942D01*
X118225568Y-67044466D01*
X118373132Y-67092412D01*
X118553627Y-67121000D01*
X118553628Y-67121000D01*
X118736372Y-67121000D01*
X118736373Y-67121000D01*
X118916868Y-67092412D01*
X119090669Y-67035941D01*
X119253497Y-66952976D01*
X119401341Y-66845561D01*
X119530561Y-66716341D01*
X119637976Y-66568497D01*
X119720941Y-66405669D01*
X119777412Y-66231868D01*
X119792527Y-66136435D01*
X119822456Y-66073301D01*
X119881768Y-66036370D01*
X119951630Y-66037368D01*
X120009863Y-66075978D01*
X120037472Y-66136435D01*
X120039542Y-66149500D01*
X120052588Y-66231869D01*
X120109057Y-66405666D01*
X120109058Y-66405669D01*
X120188364Y-66561314D01*
X120192024Y-66568497D01*
X120299439Y-66716341D01*
X120428659Y-66845561D01*
X120576503Y-66952976D01*
X120646684Y-66988735D01*
X120739330Y-67035941D01*
X120739333Y-67035942D01*
X120765568Y-67044466D01*
X120913132Y-67092412D01*
X121093627Y-67121000D01*
X121093628Y-67121000D01*
X121276372Y-67121000D01*
X121276373Y-67121000D01*
X121456868Y-67092412D01*
X121630669Y-67035941D01*
X121793497Y-66952976D01*
X121941341Y-66845561D01*
X122070561Y-66716341D01*
X122177976Y-66568497D01*
X122260941Y-66405669D01*
X122317412Y-66231868D01*
X122332527Y-66136435D01*
X122362456Y-66073301D01*
X122421768Y-66036370D01*
X122491630Y-66037368D01*
G37*
%TD.AperFunction*%
%TA.AperFunction,Conductor*%
G36*
X124212268Y-53358715D02*
G01*
X124239364Y-53321422D01*
X124319234Y-53164669D01*
X124367208Y-53113872D01*
X124435029Y-53097077D01*
X124501164Y-53119614D01*
X124540203Y-53164667D01*
X124620213Y-53321694D01*
X124737019Y-53482464D01*
X124877536Y-53622981D01*
X125038306Y-53739787D01*
X125156832Y-53800179D01*
X125194780Y-53819515D01*
X125245576Y-53867490D01*
X125262371Y-53935311D01*
X125239833Y-54001446D01*
X125194780Y-54040485D01*
X125038305Y-54120213D01*
X124877533Y-54237021D01*
X124737021Y-54377533D01*
X124620213Y-54538305D01*
X124540485Y-54694780D01*
X124492510Y-54745576D01*
X124424689Y-54762371D01*
X124358554Y-54739833D01*
X124319515Y-54694780D01*
X124276589Y-54610534D01*
X124239787Y-54538306D01*
X124122981Y-54377536D01*
X123982464Y-54237019D01*
X123821694Y-54120213D01*
X123664667Y-54040203D01*
X123613872Y-53992229D01*
X123597077Y-53924408D01*
X123619614Y-53858273D01*
X123664669Y-53819234D01*
X123821422Y-53739364D01*
X123858716Y-53712268D01*
X123295942Y-53149494D01*
X123356081Y-53133381D01*
X123471920Y-53066502D01*
X123566502Y-52971920D01*
X123633381Y-52856081D01*
X123649495Y-52795942D01*
X124212268Y-53358715D01*
G37*
%TD.AperFunction*%
%TD*%
M02*
