%TF.GenerationSoftware,KiCad,Pcbnew,9.0.4*%
%TF.CreationDate,2026-02-14T16:11:11-06:00*%
%TF.ProjectId,Pitot,5069746f-742e-46b6-9963-61645f706362,A*%
%TF.SameCoordinates,Original*%
%TF.FileFunction,Copper,L2,Bot*%
%TF.FilePolarity,Positive*%
%FSLAX46Y46*%
G04 Gerber Fmt 4.6, Leading zero omitted, Abs format (unit mm)*
G04 Created by KiCad (PCBNEW 9.0.4) date 2026-02-14 16:11:11*
%MOMM*%
%LPD*%
G01*
G04 APERTURE LIST*
G04 Aperture macros list*
%AMRoundRect*
0 Rectangle with rounded corners*
0 $1 Rounding radius*
0 $2 $3 $4 $5 $6 $7 $8 $9 X,Y pos of 4 corners*
0 Add a 4 corners polygon primitive as box body*
4,1,4,$2,$3,$4,$5,$6,$7,$8,$9,$2,$3,0*
0 Add four circle primitives for the rounded corners*
1,1,$1+$1,$2,$3*
1,1,$1+$1,$4,$5*
1,1,$1+$1,$6,$7*
1,1,$1+$1,$8,$9*
0 Add four rect primitives between the rounded corners*
20,1,$1+$1,$2,$3,$4,$5,0*
20,1,$1+$1,$4,$5,$6,$7,0*
20,1,$1+$1,$6,$7,$8,$9,0*
20,1,$1+$1,$8,$9,$2,$3,0*%
G04 Aperture macros list end*
%TA.AperFunction,ComponentPad*%
%ADD10C,3.600000*%
%TD*%
%TA.AperFunction,ConnectorPad*%
%ADD11C,6.400000*%
%TD*%
%TA.AperFunction,ComponentPad*%
%ADD12R,2.000000X2.000000*%
%TD*%
%TA.AperFunction,ComponentPad*%
%ADD13C,1.321000*%
%TD*%
%TA.AperFunction,ComponentPad*%
%ADD14C,1.524000*%
%TD*%
%TA.AperFunction,ComponentPad*%
%ADD15RoundRect,0.250000X-0.850000X-0.600000X0.850000X-0.600000X0.850000X0.600000X-0.850000X0.600000X0*%
%TD*%
%TA.AperFunction,ComponentPad*%
%ADD16O,2.200000X1.700000*%
%TD*%
%TA.AperFunction,ComponentPad*%
%ADD17RoundRect,0.250000X-0.600000X0.850000X-0.600000X-0.850000X0.600000X-0.850000X0.600000X0.850000X0*%
%TD*%
%TA.AperFunction,ComponentPad*%
%ADD18O,1.700000X2.200000*%
%TD*%
%TA.AperFunction,ViaPad*%
%ADD19C,0.600000*%
%TD*%
%TA.AperFunction,Conductor*%
%ADD20C,0.500000*%
%TD*%
%TA.AperFunction,Conductor*%
%ADD21C,0.200000*%
%TD*%
G04 APERTURE END LIST*
D10*
%TO.P,J1,25,MNT*%
%TO.N,unconnected-(J1-MNT-Pad25)*%
X131152501Y-61810001D03*
D11*
%TO.N,unconnected-(J1-MNT-Pad25)_1*%
X131152501Y-61810001D03*
D10*
%TO.P,J1,26,MNT*%
%TO.N,unconnected-(J1-MNT-Pad26)_1*%
X161902501Y-61810001D03*
D11*
%TO.N,unconnected-(J1-MNT-Pad26)*%
X161902501Y-61810001D03*
D10*
%TO.P,J1,27,MNT*%
%TO.N,unconnected-(J1-MNT-Pad27)_1*%
X161902501Y-108280001D03*
D11*
%TO.N,unconnected-(J1-MNT-Pad27)*%
X161902501Y-108280001D03*
D10*
%TO.P,J1,28,MNT*%
%TO.N,unconnected-(J1-MNT-Pad28)*%
X131162501Y-108280001D03*
D11*
%TO.N,unconnected-(J1-MNT-Pad28)_1*%
X131162501Y-108280001D03*
%TD*%
D12*
%TO.P,+24v1,1,1*%
%TO.N,+24V*%
X167335200Y-100888800D03*
%TD*%
D13*
%TO.P,IC1,1,GND*%
%TO.N,GND*%
X118645000Y-79040000D03*
%TO.P,IC1,2,VSUPPLY*%
%TO.N,+3.3V*%
X121185000Y-79040000D03*
%TO.P,IC1,3,MISO*%
%TO.N,/MISO*%
X123725000Y-79040000D03*
%TO.P,IC1,4,SCLK*%
%TO.N,/SCLK*%
X126265000Y-79040000D03*
%TO.P,IC1,5,SS*%
%TO.N,/Diff1*%
X126265000Y-65960000D03*
%TO.P,IC1,6,NC*%
%TO.N,unconnected-(IC1-NC-Pad6)*%
X123725000Y-65960000D03*
%TO.P,IC1,7,NC*%
%TO.N,unconnected-(IC1-NC-Pad7)*%
X121185000Y-65960000D03*
%TO.P,IC1,8,NC*%
%TO.N,unconnected-(IC1-NC-Pad8)*%
X118645000Y-65960000D03*
%TD*%
D12*
%TO.P,+3.3v1,1,1*%
%TO.N,+3.3V*%
X167055800Y-63754000D03*
%TD*%
%TO.P,GND2,1,1*%
%TO.N,GND*%
X167284400Y-108585000D03*
%TD*%
D14*
%TO.P,J9,1,GND*%
%TO.N,GND*%
X123160000Y-52660000D03*
%TO.P,J9,2,NC*%
%TO.N,unconnected-(J9-NC-Pad2)*%
X123160000Y-55200000D03*
%TO.P,J9,3,CH7*%
%TO.N,/Diff2*%
X125700000Y-52660000D03*
%TO.P,J9,4,CH6*%
%TO.N,/Diff1*%
X125700000Y-55200000D03*
%TO.P,J9,5,CH5*%
%TO.N,/SCLK*%
X128240000Y-52660000D03*
%TO.P,J9,6,CH4*%
%TO.N,/MISO*%
X128240000Y-55200000D03*
%TO.P,J9,7,CH3*%
%TO.N,/SDA2*%
X130780000Y-52660000D03*
%TO.P,J9,8,CH2*%
%TO.N,/SCL2*%
X130780000Y-55200000D03*
%TO.P,J9,9,CH1*%
%TO.N,/SDA1*%
X133320000Y-52660000D03*
%TO.P,J9,10,CH0*%
%TO.N,/SCL1*%
X133320000Y-55200000D03*
%TD*%
D12*
%TO.P,GND1,1,1*%
%TO.N,GND*%
X120446800Y-60750000D03*
%TD*%
D13*
%TO.P,IC2,1,GND*%
%TO.N,GND*%
X118670000Y-101000000D03*
%TO.P,IC2,2,VSUPPLY*%
%TO.N,+3.3V*%
X121210000Y-101000000D03*
%TO.P,IC2,3,MISO*%
%TO.N,/MISO*%
X123750000Y-101000000D03*
%TO.P,IC2,4,SCLK*%
%TO.N,/SCLK*%
X126290000Y-101000000D03*
%TO.P,IC2,5,SS*%
%TO.N,/Diff2*%
X126290000Y-87920000D03*
%TO.P,IC2,6,NC*%
%TO.N,unconnected-(IC2-NC-Pad6)*%
X123750000Y-87920000D03*
%TO.P,IC2,7,NC*%
%TO.N,unconnected-(IC2-NC-Pad7)*%
X121210000Y-87920000D03*
%TO.P,IC2,8,NC*%
%TO.N,unconnected-(IC2-NC-Pad8)*%
X118670000Y-87920000D03*
%TD*%
D15*
%TO.P,J5,1,Pin_1*%
%TO.N,+24V*%
X159070000Y-104000000D03*
D16*
%TO.P,J5,2,Pin_2*%
%TO.N,/CAN_H*%
X159070000Y-101500000D03*
%TO.P,J5,3,Pin_3*%
%TO.N,/CAN_L*%
X159070000Y-99000000D03*
%TO.P,J5,4,Pin_4*%
%TO.N,GND*%
X159070000Y-96500000D03*
%TO.P,J5,5,Pin_5*%
%TO.N,Net-(J5-Pin_5)*%
X159070000Y-94000000D03*
%TD*%
D15*
%TO.P,J2,1,Pin_1*%
%TO.N,+24V*%
X159070000Y-89500000D03*
D16*
%TO.P,J2,2,Pin_2*%
%TO.N,/CAN_H*%
X159070000Y-87000000D03*
%TO.P,J2,3,Pin_3*%
%TO.N,/CAN_L*%
X159070000Y-84500000D03*
%TO.P,J2,4,Pin_4*%
%TO.N,GND*%
X159070000Y-82000000D03*
%TO.P,J2,5,Pin_5*%
%TO.N,Net-(J2-Pin_5)*%
X159070000Y-79500000D03*
%TD*%
D17*
%TO.P,J3,1,Pin_1*%
%TO.N,GND*%
X140750000Y-101250000D03*
D18*
%TO.P,J3,2,Pin_2*%
%TO.N,/SDA2*%
X143250000Y-101250000D03*
%TO.P,J3,3,Pin_3*%
%TO.N,/SCL2*%
X145750000Y-101250000D03*
%TO.P,J3,4,Pin_4*%
%TO.N,/fused_3.3v*%
X148250000Y-101250000D03*
%TD*%
D15*
%TO.P,J6,1,Pin_1*%
%TO.N,GND*%
X159110000Y-75000000D03*
D16*
%TO.P,J6,2,Pin_2*%
%TO.N,/SDA1*%
X159110000Y-72500000D03*
%TO.P,J6,3,Pin_3*%
%TO.N,/SCL1*%
X159110000Y-70000000D03*
%TO.P,J6,4,Pin_4*%
%TO.N,/fused_3.3v*%
X159110000Y-67500000D03*
%TD*%
D19*
%TO.N,GND*%
X156500000Y-58000000D03*
X158750000Y-58000000D03*
%TO.N,+3.3V*%
X153138500Y-77190600D03*
X144018000Y-98983800D03*
X147040600Y-98958400D03*
X153136600Y-85445600D03*
X153136600Y-68300600D03*
X124000000Y-82300000D03*
X128000000Y-91400000D03*
X153136600Y-71526400D03*
%TO.N,GND*%
X134014857Y-85320000D03*
X166014857Y-59720000D03*
X166000000Y-58000000D03*
X130814857Y-66120000D03*
X137214857Y-88520000D03*
X127614857Y-69320000D03*
X130814857Y-82120000D03*
X121000000Y-95500000D03*
X121214857Y-91720000D03*
X150014857Y-72520000D03*
X118750000Y-74750000D03*
X150014857Y-104520000D03*
X134014857Y-104520000D03*
X137214857Y-72520000D03*
X150014857Y-56520000D03*
X146814857Y-88520000D03*
X121214857Y-53320000D03*
X166014857Y-85320000D03*
X119250000Y-95427390D03*
X134014857Y-75720000D03*
X162814857Y-75720000D03*
X134014857Y-78920000D03*
X153214857Y-107720000D03*
X150014857Y-107720000D03*
X137214857Y-82120000D03*
X137214857Y-94920000D03*
X130814857Y-75720000D03*
X130814857Y-98120000D03*
X167900000Y-57900000D03*
X130814857Y-78920000D03*
X146814857Y-78920000D03*
X146814857Y-82120000D03*
X137214857Y-78920000D03*
X134014857Y-88520000D03*
X143614857Y-107720000D03*
X162814857Y-66120000D03*
X140414857Y-85320000D03*
X137214857Y-85320000D03*
X134014857Y-82120000D03*
X140414857Y-75720000D03*
X124414857Y-107720000D03*
X120500000Y-74750000D03*
X146814857Y-85320000D03*
X146814857Y-104520000D03*
X134014857Y-91720000D03*
X143614857Y-78920000D03*
X150014857Y-85320000D03*
X124414857Y-59720000D03*
X156414857Y-101320000D03*
X137214857Y-91720000D03*
X121214857Y-107720000D03*
X156414857Y-107720000D03*
X120100000Y-83300000D03*
X121214857Y-85320000D03*
X134014857Y-72520000D03*
X166014857Y-91720000D03*
X153214857Y-104520000D03*
X143614857Y-85320000D03*
X156414857Y-59720000D03*
X156414857Y-104520000D03*
X153214857Y-101320000D03*
X153214857Y-98120000D03*
X156414857Y-75720000D03*
X146814857Y-69320000D03*
X153214857Y-91720000D03*
X130814857Y-94920000D03*
X140414857Y-88520000D03*
X121214857Y-59720000D03*
X130814857Y-91720000D03*
X162814857Y-82120000D03*
X140414857Y-78920000D03*
X143614857Y-91720000D03*
X156414857Y-78920000D03*
X166014857Y-98120000D03*
X150014857Y-53320000D03*
X153214857Y-59720000D03*
X143614857Y-104520000D03*
X140414857Y-104520000D03*
X127614857Y-98120000D03*
X143614857Y-88520000D03*
X121214857Y-72520000D03*
X137214857Y-104520000D03*
X143614857Y-94920000D03*
X150014857Y-101320000D03*
X156414857Y-62920000D03*
X134014857Y-94920000D03*
X150014857Y-69320000D03*
X153214857Y-62920000D03*
X121214857Y-98120000D03*
X153214857Y-94920000D03*
X167900000Y-59700000D03*
X159614857Y-91720000D03*
X140414857Y-91720000D03*
X137214857Y-101320000D03*
X140414857Y-82120000D03*
X137214857Y-75720000D03*
X137214857Y-107720000D03*
X166014857Y-82120000D03*
X143614857Y-82120000D03*
X140414857Y-94920000D03*
X150014857Y-82120000D03*
X130814857Y-85320000D03*
X137214857Y-69320000D03*
X156414857Y-98120000D03*
X119000000Y-83600000D03*
X121214857Y-69320000D03*
X121214857Y-56520000D03*
%TO.N,/SCL1*%
X155771035Y-70009565D03*
X149742526Y-66589274D03*
%TO.N,/SDA1*%
X150522501Y-65989200D03*
X156819600Y-72500000D03*
%TO.N,/SDA2*%
X141100000Y-64500000D03*
%TO.N,/SCL2*%
X145750000Y-72195074D03*
X144922501Y-68000000D03*
X145750000Y-76500000D03*
%TO.N,/CAN_H*%
X163000000Y-86000000D03*
%TO.N,/fused_3.3v*%
X154940000Y-68051000D03*
X154724100Y-86982300D03*
X154940000Y-79730600D03*
X154940000Y-73812400D03*
%TO.N,/SCLK*%
X141600000Y-59660001D03*
X125476000Y-93726000D03*
X125500000Y-104750000D03*
X125476000Y-90678000D03*
%TO.N,/MISO*%
X124587000Y-90678000D03*
X138400000Y-61950735D03*
X124587000Y-93726000D03*
X123250000Y-104500000D03*
%TO.N,/Diff2*%
X137764500Y-64485500D03*
%TO.N,/P2_LED*%
X145722501Y-65328800D03*
X144018000Y-56977365D03*
%TD*%
D20*
%TO.N,+3.3V*%
X127100000Y-82300000D02*
X124000000Y-82300000D01*
X128000000Y-91400000D02*
X128000000Y-83200000D01*
X128000000Y-91400000D02*
X128000000Y-94210000D01*
X153136600Y-77725900D02*
X153138500Y-77724000D01*
X153136600Y-68300600D02*
X153136600Y-71526400D01*
X153138500Y-77724000D02*
X153138500Y-77190600D01*
X128000000Y-83200000D02*
X127100000Y-82300000D01*
X128000000Y-94210000D02*
X121210000Y-101000000D01*
X147040600Y-98958400D02*
X144043400Y-98958400D01*
X153136600Y-85445600D02*
X153136600Y-77725900D01*
X144043400Y-98958400D02*
X144018000Y-98983800D01*
%TO.N,+24V*%
X162192000Y-104000000D02*
X159070000Y-104000000D01*
X165147066Y-100888800D02*
X167335200Y-100888800D01*
X162458400Y-89500000D02*
X163195000Y-90236600D01*
X163195000Y-98936734D02*
X165147066Y-100888800D01*
X163195000Y-102997000D02*
X162192000Y-104000000D01*
X161391600Y-89500000D02*
X159070000Y-89500000D01*
X162458400Y-89500000D02*
X161391600Y-89500000D01*
X163195000Y-90236600D02*
X163195000Y-98936734D01*
X163195000Y-98936734D02*
X163195000Y-102997000D01*
D21*
%TO.N,/SCL1*%
X140250000Y-62317100D02*
X140250000Y-56500000D01*
X149742526Y-66589274D02*
X144522174Y-66589274D01*
X140250000Y-56500000D02*
X137250000Y-53500000D01*
X144522174Y-66589274D02*
X140250000Y-62317100D01*
X137250000Y-53500000D02*
X135020000Y-53500000D01*
X135020000Y-53500000D02*
X133320000Y-55200000D01*
X155771035Y-70009565D02*
X155780600Y-70000000D01*
X155780600Y-70000000D02*
X159110000Y-70000000D01*
%TO.N,/SDA1*%
X156819600Y-72500000D02*
X159110000Y-72500000D01*
X141000000Y-56500000D02*
X141000000Y-62500000D01*
X133320000Y-52660000D02*
X137160000Y-52660000D01*
X137160000Y-52660000D02*
X141000000Y-56500000D01*
X141000000Y-62500000D02*
X144489200Y-65989200D01*
X144489200Y-65989200D02*
X150522501Y-65989200D01*
%TO.N,/SDA2*%
X143250000Y-101250000D02*
X143250000Y-101317100D01*
X139500000Y-56750000D02*
X137500000Y-54750000D01*
X132000000Y-56000000D02*
X132000000Y-53880000D01*
X141100000Y-64500000D02*
X139500000Y-62900000D01*
X139500000Y-62900000D02*
X139500000Y-56750000D01*
X137500000Y-54750000D02*
X135750000Y-54750000D01*
X134000000Y-56500000D02*
X132500000Y-56500000D01*
X135750000Y-54750000D02*
X134000000Y-56500000D01*
X132000000Y-53880000D02*
X130780000Y-52660000D01*
X132500000Y-56500000D02*
X132000000Y-56000000D01*
%TO.N,/SCL2*%
X130780000Y-55347100D02*
X130780000Y-55200000D01*
X139000000Y-63249943D02*
X139000000Y-57000000D01*
X142172501Y-65250000D02*
X141000057Y-65250000D01*
X137500000Y-55500000D02*
X135750000Y-55500000D01*
X132432900Y-57000000D02*
X130780000Y-55347100D01*
X141000057Y-65250000D02*
X139000000Y-63249943D01*
X144922501Y-68000000D02*
X142172501Y-65250000D01*
X139000000Y-57000000D02*
X137500000Y-55500000D01*
X135750000Y-55500000D02*
X134250000Y-57000000D01*
X145750000Y-72195074D02*
X145750000Y-76500000D01*
X134250000Y-57000000D02*
X132432900Y-57000000D01*
%TO.N,/CAN_H*%
X160070000Y-86000000D02*
X159070000Y-87000000D01*
X163000000Y-86000000D02*
X160070000Y-86000000D01*
D20*
%TO.N,/fused_3.3v*%
X154724100Y-86982300D02*
X154940000Y-86766400D01*
D21*
X154940000Y-68051000D02*
X154940000Y-73812400D01*
D20*
X154940000Y-86766400D02*
X154940000Y-79730600D01*
D21*
%TO.N,/SCLK*%
X136301001Y-51051001D02*
X129848999Y-51051001D01*
X141600000Y-56350000D02*
X136301001Y-51051001D01*
X125476000Y-93726000D02*
X125476000Y-90678000D01*
X126290000Y-101000000D02*
X126290000Y-103960000D01*
X129848999Y-51051001D02*
X128240000Y-52660000D01*
X141600000Y-59660001D02*
X141600000Y-56350000D01*
X126290000Y-103960000D02*
X125500000Y-104750000D01*
%TO.N,/Diff1*%
X126500000Y-65725000D02*
X126265000Y-65960000D01*
%TO.N,/MISO*%
X123750000Y-101000000D02*
X123750000Y-104000000D01*
X132266800Y-57401000D02*
X134416100Y-57401000D01*
X128240000Y-55200000D02*
X129540000Y-56500000D01*
X134416100Y-57401000D02*
X135817100Y-56000000D01*
X131365800Y-56500000D02*
X132266800Y-57401000D01*
X129540000Y-56500000D02*
X131365800Y-56500000D01*
X138400000Y-57150000D02*
X138400000Y-61950735D01*
X124587000Y-90678000D02*
X124587000Y-93726000D01*
X135817100Y-56000000D02*
X137250000Y-56000000D01*
X123750000Y-104000000D02*
X123250000Y-104500000D01*
X137250000Y-56000000D02*
X138400000Y-57150000D01*
%TO.N,/Diff2*%
X132100700Y-57802000D02*
X134730000Y-57802000D01*
X137764500Y-57081600D02*
X137764500Y-64485500D01*
X127177000Y-55640310D02*
X128621340Y-57084650D01*
X127177000Y-54137000D02*
X127177000Y-55640310D01*
X131383350Y-57084650D02*
X132100700Y-57802000D01*
X125700000Y-52660000D02*
X127177000Y-54137000D01*
X136131000Y-56401000D02*
X137083900Y-56401000D01*
X134730000Y-57802000D02*
X136131000Y-56401000D01*
X128621340Y-57084650D02*
X131383350Y-57084650D01*
X137083900Y-56401000D02*
X137764500Y-57081600D01*
%TO.N,/P2_LED*%
X145719800Y-58582730D02*
X145719800Y-65326099D01*
X145719800Y-65326099D02*
X145722501Y-65328800D01*
X144114435Y-56977365D02*
X145719800Y-58582730D01*
X144018000Y-56977365D02*
X144114435Y-56977365D01*
%TD*%
%TA.AperFunction,Conductor*%
%TO.N,GND*%
G36*
X128867941Y-50970186D02*
G01*
X128913696Y-51022990D01*
X128923640Y-51092148D01*
X128894615Y-51155704D01*
X128888602Y-51162162D01*
X128670926Y-51379838D01*
X128654526Y-51396238D01*
X128593203Y-51429722D01*
X128540478Y-51429158D01*
X128540448Y-51429349D01*
X128539156Y-51429144D01*
X128537903Y-51429131D01*
X128535636Y-51428586D01*
X128366196Y-51401750D01*
X128339361Y-51397500D01*
X128140639Y-51397500D01*
X128075214Y-51407862D01*
X127944362Y-51428587D01*
X127755370Y-51489993D01*
X127755367Y-51489994D01*
X127578305Y-51580213D01*
X127417533Y-51697021D01*
X127277021Y-51837533D01*
X127160213Y-51998305D01*
X127080485Y-52154780D01*
X127032510Y-52205576D01*
X126964689Y-52222371D01*
X126898554Y-52199833D01*
X126859515Y-52154780D01*
X126800937Y-52039815D01*
X126779787Y-51998306D01*
X126662981Y-51837536D01*
X126522464Y-51697019D01*
X126361694Y-51580213D01*
X126184632Y-51489994D01*
X126184629Y-51489993D01*
X125995637Y-51428587D01*
X125897498Y-51413043D01*
X125799361Y-51397500D01*
X125600639Y-51397500D01*
X125535214Y-51407862D01*
X125404362Y-51428587D01*
X125215370Y-51489993D01*
X125215367Y-51489994D01*
X125038305Y-51580213D01*
X124877533Y-51697021D01*
X124737021Y-51837533D01*
X124620213Y-51998305D01*
X124540204Y-52155331D01*
X124492229Y-52206127D01*
X124424408Y-52222922D01*
X124358273Y-52200384D01*
X124319234Y-52155331D01*
X124239358Y-51998567D01*
X124212268Y-51961283D01*
X123649494Y-52524057D01*
X123633381Y-52463919D01*
X123566502Y-52348080D01*
X123471920Y-52253498D01*
X123356081Y-52186619D01*
X123295942Y-52170504D01*
X123858716Y-51607731D01*
X123858715Y-51607730D01*
X123821432Y-51580641D01*
X123644437Y-51490457D01*
X123455522Y-51429075D01*
X123259321Y-51398000D01*
X123060679Y-51398000D01*
X122864479Y-51429075D01*
X122864476Y-51429075D01*
X122675562Y-51490457D01*
X122498564Y-51580643D01*
X122461283Y-51607729D01*
X122461282Y-51607730D01*
X123024058Y-52170504D01*
X122963919Y-52186619D01*
X122848080Y-52253498D01*
X122753498Y-52348080D01*
X122686619Y-52463919D01*
X122670504Y-52524057D01*
X122107730Y-51961282D01*
X122107729Y-51961283D01*
X122080643Y-51998564D01*
X121990457Y-52175562D01*
X121929075Y-52364476D01*
X121929075Y-52364479D01*
X121898000Y-52560678D01*
X121898000Y-52759321D01*
X121929075Y-52955520D01*
X121929075Y-52955523D01*
X121990457Y-53144437D01*
X122080641Y-53321432D01*
X122107730Y-53358715D01*
X122107731Y-53358716D01*
X122670504Y-52795942D01*
X122686619Y-52856081D01*
X122753498Y-52971920D01*
X122848080Y-53066502D01*
X122963919Y-53133381D01*
X123024057Y-53149494D01*
X122461283Y-53712268D01*
X122461283Y-53712269D01*
X122498567Y-53739358D01*
X122655331Y-53819234D01*
X122706127Y-53867209D01*
X122722922Y-53935030D01*
X122700384Y-54001165D01*
X122655331Y-54040204D01*
X122498305Y-54120213D01*
X122337533Y-54237021D01*
X122197021Y-54377533D01*
X122080213Y-54538305D01*
X121989994Y-54715367D01*
X121989993Y-54715370D01*
X121928587Y-54904362D01*
X121897500Y-55100639D01*
X121897500Y-55299360D01*
X121928587Y-55495637D01*
X121989993Y-55684629D01*
X121989994Y-55684632D01*
X122080213Y-55861694D01*
X122197019Y-56022464D01*
X122337536Y-56162981D01*
X122498306Y-56279787D01*
X122585149Y-56324035D01*
X122675367Y-56370005D01*
X122675370Y-56370006D01*
X122769866Y-56400709D01*
X122864364Y-56431413D01*
X123060639Y-56462500D01*
X123060640Y-56462500D01*
X123259360Y-56462500D01*
X123259361Y-56462500D01*
X123455636Y-56431413D01*
X123644632Y-56370005D01*
X123821694Y-56279787D01*
X123982464Y-56162981D01*
X124122981Y-56022464D01*
X124239787Y-55861694D01*
X124319515Y-55705218D01*
X124367490Y-55654423D01*
X124435311Y-55637628D01*
X124501446Y-55660165D01*
X124540484Y-55705218D01*
X124620213Y-55861694D01*
X124737019Y-56022464D01*
X124877536Y-56162981D01*
X125038306Y-56279787D01*
X125125149Y-56324035D01*
X125215367Y-56370005D01*
X125215370Y-56370006D01*
X125309866Y-56400709D01*
X125404364Y-56431413D01*
X125600639Y-56462500D01*
X125600640Y-56462500D01*
X125799360Y-56462500D01*
X125799361Y-56462500D01*
X125995636Y-56431413D01*
X126184632Y-56370005D01*
X126361694Y-56279787D01*
X126522464Y-56162981D01*
X126598771Y-56086673D01*
X126606712Y-56082337D01*
X126612137Y-56075091D01*
X126636896Y-56065855D01*
X126660090Y-56053191D01*
X126669119Y-56053836D01*
X126677601Y-56050673D01*
X126703423Y-56056290D01*
X126729782Y-56058175D01*
X126738834Y-56063992D01*
X126745875Y-56065524D01*
X126774126Y-56086673D01*
X126774129Y-56086675D01*
X126808284Y-56120830D01*
X126808285Y-56120830D01*
X126815353Y-56127898D01*
X128136479Y-57449024D01*
X128136489Y-57449035D01*
X128140819Y-57453365D01*
X128140820Y-57453366D01*
X128252624Y-57565170D01*
X128311487Y-57599154D01*
X128350521Y-57621690D01*
X128389552Y-57644226D01*
X128389554Y-57644226D01*
X128389555Y-57644227D01*
X128542282Y-57685150D01*
X128542283Y-57685150D01*
X131083253Y-57685150D01*
X131112693Y-57693794D01*
X131142680Y-57700318D01*
X131147695Y-57704072D01*
X131150292Y-57704835D01*
X131170934Y-57721469D01*
X131347285Y-57897820D01*
X131380770Y-57959143D01*
X131375786Y-58028835D01*
X131333914Y-58084768D01*
X131268450Y-58109185D01*
X131259604Y-58109501D01*
X130970707Y-58109501D01*
X130888180Y-58117629D01*
X130608870Y-58145138D01*
X130252288Y-58216065D01*
X130252277Y-58216068D01*
X129904335Y-58321615D01*
X129568422Y-58460755D01*
X129568417Y-58460757D01*
X129247780Y-58632141D01*
X129247762Y-58632152D01*
X128945465Y-58834141D01*
X128945451Y-58834151D01*
X128664394Y-59064808D01*
X128407308Y-59321894D01*
X128176651Y-59602951D01*
X128176641Y-59602965D01*
X127974652Y-59905262D01*
X127974641Y-59905280D01*
X127803257Y-60225917D01*
X127803255Y-60225922D01*
X127664115Y-60561835D01*
X127558568Y-60909777D01*
X127558565Y-60909788D01*
X127487638Y-61266370D01*
X127460129Y-61545680D01*
X127452001Y-61628207D01*
X127452001Y-61991795D01*
X127462838Y-62101830D01*
X127487638Y-62353631D01*
X127558565Y-62710213D01*
X127558568Y-62710224D01*
X127664115Y-63058166D01*
X127803255Y-63394079D01*
X127803257Y-63394084D01*
X127974641Y-63714721D01*
X127974652Y-63714739D01*
X128176641Y-64017036D01*
X128176651Y-64017050D01*
X128407308Y-64298107D01*
X128664394Y-64555193D01*
X128664399Y-64555197D01*
X128664400Y-64555198D01*
X128945457Y-64785855D01*
X129247769Y-64987854D01*
X129247778Y-64987859D01*
X129247780Y-64987860D01*
X129568417Y-65159244D01*
X129568419Y-65159244D01*
X129568425Y-65159248D01*
X129904337Y-65298387D01*
X130252268Y-65403931D01*
X130252274Y-65403932D01*
X130252277Y-65403933D01*
X130252288Y-65403936D01*
X130608870Y-65474863D01*
X130970707Y-65510501D01*
X130970710Y-65510501D01*
X131334292Y-65510501D01*
X131334295Y-65510501D01*
X131696132Y-65474863D01*
X131765546Y-65461055D01*
X132052713Y-65403936D01*
X132052724Y-65403933D01*
X132052724Y-65403932D01*
X132052734Y-65403931D01*
X132400665Y-65298387D01*
X132736577Y-65159248D01*
X133057233Y-64987854D01*
X133359545Y-64785855D01*
X133640602Y-64555198D01*
X133897698Y-64298102D01*
X134128355Y-64017045D01*
X134330354Y-63714733D01*
X134501748Y-63394077D01*
X134640887Y-63058165D01*
X134746431Y-62710234D01*
X134746433Y-62710224D01*
X134746436Y-62710213D01*
X134817363Y-62353631D01*
X134821640Y-62310204D01*
X134853001Y-61991795D01*
X134853001Y-61628207D01*
X134817363Y-61266370D01*
X134807329Y-61215925D01*
X134746436Y-60909788D01*
X134746433Y-60909777D01*
X134746432Y-60909774D01*
X134746431Y-60909768D01*
X134640887Y-60561837D01*
X134501748Y-60225925D01*
X134330354Y-59905269D01*
X134128355Y-59602957D01*
X133897698Y-59321900D01*
X133897697Y-59321899D01*
X133897693Y-59321894D01*
X133640607Y-59064808D01*
X133359550Y-58834151D01*
X133359549Y-58834150D01*
X133359545Y-58834147D01*
X133057233Y-58632148D01*
X133057231Y-58632147D01*
X133054702Y-58630457D01*
X133055329Y-58629518D01*
X133011028Y-58581493D01*
X132998940Y-58512677D01*
X133025975Y-58448249D01*
X133083551Y-58408666D01*
X133122167Y-58402500D01*
X134643331Y-58402500D01*
X134643347Y-58402501D01*
X134650943Y-58402501D01*
X134809054Y-58402501D01*
X134809057Y-58402501D01*
X134961785Y-58361577D01*
X135011904Y-58332639D01*
X135098716Y-58282520D01*
X135210520Y-58170716D01*
X135210520Y-58170714D01*
X135220728Y-58160507D01*
X135220729Y-58160504D01*
X136343416Y-57037819D01*
X136404739Y-57004334D01*
X136431097Y-57001500D01*
X136783803Y-57001500D01*
X136850842Y-57021185D01*
X136871484Y-57037819D01*
X137127681Y-57294016D01*
X137161166Y-57355339D01*
X137164000Y-57381697D01*
X137164000Y-63905734D01*
X137144315Y-63972773D01*
X137143102Y-63974625D01*
X137055109Y-64106314D01*
X137055102Y-64106327D01*
X136994764Y-64251998D01*
X136994761Y-64252010D01*
X136964000Y-64406653D01*
X136964000Y-64564346D01*
X136994761Y-64718989D01*
X136994764Y-64719001D01*
X137055102Y-64864672D01*
X137055109Y-64864685D01*
X137142710Y-64995788D01*
X137142713Y-64995792D01*
X137254207Y-65107286D01*
X137254211Y-65107289D01*
X137385314Y-65194890D01*
X137385327Y-65194897D01*
X137513751Y-65248091D01*
X137531003Y-65255237D01*
X137685653Y-65285999D01*
X137685656Y-65286000D01*
X137685658Y-65286000D01*
X137843344Y-65286000D01*
X137843345Y-65285999D01*
X137997997Y-65255237D01*
X138122523Y-65203657D01*
X138143672Y-65194897D01*
X138143672Y-65194896D01*
X138143679Y-65194894D01*
X138274789Y-65107289D01*
X138386289Y-64995789D01*
X138473894Y-64864679D01*
X138534237Y-64718997D01*
X138565000Y-64564342D01*
X138565000Y-64406658D01*
X138565000Y-64406655D01*
X138564999Y-64406653D01*
X138534237Y-64252003D01*
X138534235Y-64251998D01*
X138473897Y-64106327D01*
X138473890Y-64106314D01*
X138385898Y-63974625D01*
X138378763Y-63951839D01*
X138367550Y-63930754D01*
X138365324Y-63908920D01*
X138365020Y-63907947D01*
X138365169Y-63907400D01*
X138365000Y-63905734D01*
X138365000Y-63763541D01*
X138384685Y-63696502D01*
X138437489Y-63650747D01*
X138506647Y-63640803D01*
X138570203Y-63669828D01*
X138576681Y-63675860D01*
X138638349Y-63737528D01*
X138638354Y-63737532D01*
X140631341Y-65730520D01*
X140631343Y-65730521D01*
X140631347Y-65730524D01*
X140723215Y-65783563D01*
X140768273Y-65809577D01*
X140921000Y-65850501D01*
X140921002Y-65850501D01*
X141086711Y-65850501D01*
X141086727Y-65850500D01*
X141872404Y-65850500D01*
X141939443Y-65870185D01*
X141960085Y-65886819D01*
X144087926Y-68014660D01*
X144121411Y-68075983D01*
X144121862Y-68078149D01*
X144152762Y-68233491D01*
X144152765Y-68233501D01*
X144213103Y-68379172D01*
X144213110Y-68379185D01*
X144300711Y-68510288D01*
X144300714Y-68510292D01*
X144412208Y-68621786D01*
X144412212Y-68621789D01*
X144543315Y-68709390D01*
X144543328Y-68709397D01*
X144641354Y-68750000D01*
X144689004Y-68769737D01*
X144815954Y-68794989D01*
X144843654Y-68800499D01*
X144843657Y-68800500D01*
X144843659Y-68800500D01*
X145001345Y-68800500D01*
X145001346Y-68800499D01*
X145155998Y-68769737D01*
X145301680Y-68709394D01*
X145432790Y-68621789D01*
X145544290Y-68510289D01*
X145631895Y-68379179D01*
X145692238Y-68233497D01*
X145694574Y-68221753D01*
X152336100Y-68221753D01*
X152336100Y-68379446D01*
X152366861Y-68534089D01*
X152366863Y-68534097D01*
X152376661Y-68557751D01*
X152386100Y-68605204D01*
X152386100Y-71221796D01*
X152376662Y-71269244D01*
X152374434Y-71274625D01*
X152366862Y-71292906D01*
X152366860Y-71292911D01*
X152336100Y-71447553D01*
X152336100Y-71605246D01*
X152366861Y-71759889D01*
X152366864Y-71759901D01*
X152427202Y-71905572D01*
X152427209Y-71905585D01*
X152514810Y-72036688D01*
X152514813Y-72036692D01*
X152626307Y-72148186D01*
X152626311Y-72148189D01*
X152757414Y-72235790D01*
X152757427Y-72235797D01*
X152903098Y-72296135D01*
X152903103Y-72296137D01*
X153057753Y-72326899D01*
X153057756Y-72326900D01*
X153057758Y-72326900D01*
X153215444Y-72326900D01*
X153215445Y-72326899D01*
X153370097Y-72296137D01*
X153515779Y-72235794D01*
X153646889Y-72148189D01*
X153758389Y-72036689D01*
X153845994Y-71905579D01*
X153906337Y-71759897D01*
X153937100Y-71605242D01*
X153937100Y-71447558D01*
X153937100Y-71447555D01*
X153937099Y-71447553D01*
X153906339Y-71292911D01*
X153906338Y-71292908D01*
X153906337Y-71292903D01*
X153896537Y-71269244D01*
X153887100Y-71221796D01*
X153887100Y-68605204D01*
X153891808Y-68589170D01*
X153891501Y-68572463D01*
X153896539Y-68557751D01*
X153906337Y-68534097D01*
X153937100Y-68379442D01*
X153937100Y-68344981D01*
X153956785Y-68277942D01*
X154009589Y-68232187D01*
X154078747Y-68222243D01*
X154142303Y-68251268D01*
X154175661Y-68297529D01*
X154230602Y-68430172D01*
X154230609Y-68430185D01*
X154318602Y-68561874D01*
X154323919Y-68578855D01*
X154333815Y-68593648D01*
X154334143Y-68611507D01*
X154339480Y-68628551D01*
X154339500Y-68630765D01*
X154339500Y-73232634D01*
X154319815Y-73299673D01*
X154318602Y-73301525D01*
X154230609Y-73433214D01*
X154230602Y-73433227D01*
X154170264Y-73578898D01*
X154170261Y-73578910D01*
X154139500Y-73733553D01*
X154139500Y-73891246D01*
X154170261Y-74045889D01*
X154170264Y-74045901D01*
X154230602Y-74191572D01*
X154230609Y-74191585D01*
X154318210Y-74322688D01*
X154318213Y-74322692D01*
X154429707Y-74434186D01*
X154429711Y-74434189D01*
X154560814Y-74521790D01*
X154560827Y-74521797D01*
X154695441Y-74577555D01*
X154706503Y-74582137D01*
X154861153Y-74612899D01*
X154861156Y-74612900D01*
X154861158Y-74612900D01*
X155018844Y-74612900D01*
X155018845Y-74612899D01*
X155173497Y-74582137D01*
X155319179Y-74521794D01*
X155450289Y-74434189D01*
X155561789Y-74322689D01*
X155649394Y-74191579D01*
X155709737Y-74045897D01*
X155740500Y-73891242D01*
X155740500Y-73733558D01*
X155740500Y-73733555D01*
X155740499Y-73733553D01*
X155723875Y-73649979D01*
X155709737Y-73578903D01*
X155689524Y-73530104D01*
X155649397Y-73433227D01*
X155649390Y-73433214D01*
X155561398Y-73301525D01*
X155540520Y-73234847D01*
X155540500Y-73232634D01*
X155540500Y-70930986D01*
X155560185Y-70863947D01*
X155612989Y-70818192D01*
X155682147Y-70808248D01*
X155688693Y-70809369D01*
X155692192Y-70810065D01*
X155692193Y-70810065D01*
X155849879Y-70810065D01*
X155849880Y-70810064D01*
X156004532Y-70779302D01*
X156150214Y-70718959D01*
X156281324Y-70631354D01*
X156281329Y-70631348D01*
X156284623Y-70628647D01*
X156348933Y-70601334D01*
X156363288Y-70600500D01*
X157574281Y-70600500D01*
X157641320Y-70620185D01*
X157684765Y-70668205D01*
X157704947Y-70707814D01*
X157704948Y-70707815D01*
X157829890Y-70879786D01*
X157980209Y-71030105D01*
X157980214Y-71030109D01*
X158144793Y-71149682D01*
X158187459Y-71205011D01*
X158193438Y-71274625D01*
X158160833Y-71336420D01*
X158144793Y-71350318D01*
X157980214Y-71469890D01*
X157980209Y-71469894D01*
X157829890Y-71620213D01*
X157704948Y-71792184D01*
X157704947Y-71792185D01*
X157684765Y-71831795D01*
X157674316Y-71842857D01*
X157667994Y-71856703D01*
X157650812Y-71867744D01*
X157636791Y-71882591D01*
X157621111Y-71886832D01*
X157609216Y-71894477D01*
X157574281Y-71899500D01*
X157399366Y-71899500D01*
X157332327Y-71879815D01*
X157330475Y-71878602D01*
X157198785Y-71790609D01*
X157198772Y-71790602D01*
X157053101Y-71730264D01*
X157053089Y-71730261D01*
X156898445Y-71699500D01*
X156898442Y-71699500D01*
X156740758Y-71699500D01*
X156740755Y-71699500D01*
X156586110Y-71730261D01*
X156586098Y-71730264D01*
X156440427Y-71790602D01*
X156440414Y-71790609D01*
X156309311Y-71878210D01*
X156309307Y-71878213D01*
X156197813Y-71989707D01*
X156197810Y-71989711D01*
X156110209Y-72120814D01*
X156110202Y-72120827D01*
X156049864Y-72266498D01*
X156049861Y-72266510D01*
X156019100Y-72421153D01*
X156019100Y-72578846D01*
X156049861Y-72733489D01*
X156049864Y-72733501D01*
X156110202Y-72879172D01*
X156110209Y-72879185D01*
X156197810Y-73010288D01*
X156197813Y-73010292D01*
X156309307Y-73121786D01*
X156309311Y-73121789D01*
X156440414Y-73209390D01*
X156440427Y-73209397D01*
X156501870Y-73234847D01*
X156586103Y-73269737D01*
X156736600Y-73299673D01*
X156740753Y-73300499D01*
X156740756Y-73300500D01*
X156740758Y-73300500D01*
X156898444Y-73300500D01*
X156898445Y-73300499D01*
X157053097Y-73269737D01*
X157198779Y-73209394D01*
X157260423Y-73168205D01*
X157330475Y-73121398D01*
X157348521Y-73115747D01*
X157364431Y-73105523D01*
X157395392Y-73101071D01*
X157397153Y-73100520D01*
X157399366Y-73100500D01*
X157574281Y-73100500D01*
X157641320Y-73120185D01*
X157684765Y-73168205D01*
X157704947Y-73207814D01*
X157704948Y-73207815D01*
X157829890Y-73379786D01*
X157969068Y-73518964D01*
X158002553Y-73580287D01*
X157997569Y-73649979D01*
X157955697Y-73705912D01*
X157946484Y-73712183D01*
X157791659Y-73807680D01*
X157791655Y-73807683D01*
X157667684Y-73931654D01*
X157575643Y-74080875D01*
X157575641Y-74080880D01*
X157520494Y-74247302D01*
X157520493Y-74247309D01*
X157510000Y-74350013D01*
X157510000Y-74750000D01*
X158561518Y-74750000D01*
X158550889Y-74768409D01*
X158510000Y-74921009D01*
X158510000Y-75078991D01*
X158550889Y-75231591D01*
X158561518Y-75250000D01*
X157510001Y-75250000D01*
X157510001Y-75649986D01*
X157520494Y-75752697D01*
X157575641Y-75919119D01*
X157575643Y-75919124D01*
X157667684Y-76068345D01*
X157791654Y-76192315D01*
X157940875Y-76284356D01*
X157940880Y-76284358D01*
X158107302Y-76339505D01*
X158107309Y-76339506D01*
X158210019Y-76349999D01*
X158859999Y-76349999D01*
X158860000Y-76349998D01*
X158860000Y-75548482D01*
X158878409Y-75559111D01*
X159031009Y-75600000D01*
X159188991Y-75600000D01*
X159341591Y-75559111D01*
X159360000Y-75548482D01*
X159360000Y-76349999D01*
X160009972Y-76349999D01*
X160009986Y-76349998D01*
X160112697Y-76339505D01*
X160279119Y-76284358D01*
X160279124Y-76284356D01*
X160428345Y-76192315D01*
X160552315Y-76068345D01*
X160644356Y-75919124D01*
X160644358Y-75919119D01*
X160699505Y-75752697D01*
X160699506Y-75752690D01*
X160709999Y-75649986D01*
X160710000Y-75649973D01*
X160710000Y-75250000D01*
X159658482Y-75250000D01*
X159669111Y-75231591D01*
X159710000Y-75078991D01*
X159710000Y-74921009D01*
X159707958Y-74913389D01*
X165189500Y-74913389D01*
X165189500Y-75086610D01*
X165212462Y-75231591D01*
X165216598Y-75257701D01*
X165270127Y-75422445D01*
X165348768Y-75576788D01*
X165450586Y-75716928D01*
X165573072Y-75839414D01*
X165713212Y-75941232D01*
X165867555Y-76019873D01*
X166032299Y-76073402D01*
X166203389Y-76100500D01*
X166203390Y-76100500D01*
X166376610Y-76100500D01*
X166376611Y-76100500D01*
X166547701Y-76073402D01*
X166712445Y-76019873D01*
X166866788Y-75941232D01*
X167006928Y-75839414D01*
X167129414Y-75716928D01*
X167231232Y-75576788D01*
X167309873Y-75422445D01*
X167363402Y-75257701D01*
X167390500Y-75086611D01*
X167390500Y-74913389D01*
X167363402Y-74742299D01*
X167309873Y-74577555D01*
X167231232Y-74423212D01*
X167129414Y-74283072D01*
X167006928Y-74160586D01*
X166866788Y-74058768D01*
X166712445Y-73980127D01*
X166547701Y-73926598D01*
X166547699Y-73926597D01*
X166547698Y-73926597D01*
X166416271Y-73905781D01*
X166376611Y-73899500D01*
X166203389Y-73899500D01*
X166163728Y-73905781D01*
X166032302Y-73926597D01*
X165867552Y-73980128D01*
X165713211Y-74058768D01*
X165633256Y-74116859D01*
X165573072Y-74160586D01*
X165573070Y-74160588D01*
X165573069Y-74160588D01*
X165450588Y-74283069D01*
X165450588Y-74283070D01*
X165450586Y-74283072D01*
X165421800Y-74322692D01*
X165348768Y-74423211D01*
X165270128Y-74577552D01*
X165216597Y-74742302D01*
X165189500Y-74913389D01*
X159707958Y-74913389D01*
X159669111Y-74768409D01*
X159658482Y-74750000D01*
X160709999Y-74750000D01*
X160709999Y-74350028D01*
X160709998Y-74350013D01*
X160699505Y-74247302D01*
X160644358Y-74080880D01*
X160644356Y-74080875D01*
X160552315Y-73931654D01*
X160428345Y-73807684D01*
X160273515Y-73712184D01*
X160226791Y-73660236D01*
X160215568Y-73591273D01*
X160243412Y-73527191D01*
X160250909Y-73518986D01*
X160390104Y-73379792D01*
X160448314Y-73299673D01*
X160513902Y-73209397D01*
X160515051Y-73207816D01*
X160611557Y-73018412D01*
X160677246Y-72816243D01*
X160710500Y-72606287D01*
X160710500Y-72393713D01*
X160677246Y-72183757D01*
X160611557Y-71981588D01*
X160515051Y-71792184D01*
X160515049Y-71792181D01*
X160515048Y-71792179D01*
X160390109Y-71620213D01*
X160239792Y-71469896D01*
X160209039Y-71447553D01*
X160075204Y-71350316D01*
X160032540Y-71294989D01*
X160026561Y-71225376D01*
X160059166Y-71163580D01*
X160075199Y-71149686D01*
X160239792Y-71030104D01*
X160390104Y-70879792D01*
X160390106Y-70879788D01*
X160390109Y-70879786D01*
X160515048Y-70707820D01*
X160515047Y-70707820D01*
X160515051Y-70707816D01*
X160611557Y-70518412D01*
X160677246Y-70316243D01*
X160710500Y-70106287D01*
X160710500Y-69893713D01*
X160677246Y-69683757D01*
X160611557Y-69481588D01*
X160515051Y-69292184D01*
X160515049Y-69292181D01*
X160515048Y-69292179D01*
X160390109Y-69120213D01*
X160239792Y-68969896D01*
X160239784Y-68969890D01*
X160075204Y-68850316D01*
X160032540Y-68794989D01*
X160026561Y-68725376D01*
X160059166Y-68663580D01*
X160075199Y-68649686D01*
X160239792Y-68530104D01*
X160390104Y-68379792D01*
X160390106Y-68379788D01*
X160390109Y-68379786D01*
X160515048Y-68207820D01*
X160515047Y-68207820D01*
X160515051Y-68207816D01*
X160611557Y-68018412D01*
X160677246Y-67816243D01*
X160710500Y-67606287D01*
X160710500Y-67413389D01*
X165189500Y-67413389D01*
X165189500Y-67586611D01*
X165216598Y-67757701D01*
X165270127Y-67922445D01*
X165348768Y-68076788D01*
X165450586Y-68216928D01*
X165573072Y-68339414D01*
X165713212Y-68441232D01*
X165867555Y-68519873D01*
X166032299Y-68573402D01*
X166203389Y-68600500D01*
X166203390Y-68600500D01*
X166376610Y-68600500D01*
X166376611Y-68600500D01*
X166547701Y-68573402D01*
X166712445Y-68519873D01*
X166866788Y-68441232D01*
X167006928Y-68339414D01*
X167129414Y-68216928D01*
X167231232Y-68076788D01*
X167309873Y-67922445D01*
X167363402Y-67757701D01*
X167390500Y-67586611D01*
X167390500Y-67413389D01*
X167363402Y-67242299D01*
X167309873Y-67077555D01*
X167231232Y-66923212D01*
X167129414Y-66783072D01*
X167006928Y-66660586D01*
X166866788Y-66558768D01*
X166712445Y-66480127D01*
X166547701Y-66426598D01*
X166547699Y-66426597D01*
X166547698Y-66426597D01*
X166415542Y-66405666D01*
X166376611Y-66399500D01*
X166203389Y-66399500D01*
X166164458Y-66405666D01*
X166032302Y-66426597D01*
X165867552Y-66480128D01*
X165713211Y-66558768D01*
X165641340Y-66610986D01*
X165573072Y-66660586D01*
X165573070Y-66660588D01*
X165573069Y-66660588D01*
X165450588Y-66783069D01*
X165450588Y-66783070D01*
X165450586Y-66783072D01*
X165443966Y-66792184D01*
X165348768Y-66923211D01*
X165270128Y-67077552D01*
X165216597Y-67242302D01*
X165198112Y-67359012D01*
X165189500Y-67413389D01*
X160710500Y-67413389D01*
X160710500Y-67393713D01*
X160677246Y-67183757D01*
X160611557Y-66981588D01*
X160515051Y-66792184D01*
X160515049Y-66792181D01*
X160515048Y-66792179D01*
X160390109Y-66620213D01*
X160239786Y-66469890D01*
X160067820Y-66344951D01*
X159878414Y-66248444D01*
X159878413Y-66248443D01*
X159878412Y-66248443D01*
X159676243Y-66182754D01*
X159676241Y-66182753D01*
X159676240Y-66182753D01*
X159514957Y-66157208D01*
X159466287Y-66149500D01*
X158753713Y-66149500D01*
X158705042Y-66157208D01*
X158543760Y-66182753D01*
X158341585Y-66248444D01*
X158152179Y-66344951D01*
X157980213Y-66469890D01*
X157829890Y-66620213D01*
X157704951Y-66792179D01*
X157608444Y-66981585D01*
X157542753Y-67183760D01*
X157509500Y-67393713D01*
X157509500Y-67606286D01*
X157538646Y-67790311D01*
X157542754Y-67816243D01*
X157593412Y-67972153D01*
X157608444Y-68018414D01*
X157704951Y-68207820D01*
X157829890Y-68379786D01*
X157980209Y-68530105D01*
X157980214Y-68530109D01*
X158144793Y-68649682D01*
X158187459Y-68705011D01*
X158193438Y-68774625D01*
X158160833Y-68836420D01*
X158144793Y-68850318D01*
X157980214Y-68969890D01*
X157980209Y-68969894D01*
X157829890Y-69120213D01*
X157704948Y-69292184D01*
X157704947Y-69292185D01*
X157684765Y-69331795D01*
X157636791Y-69382591D01*
X157574281Y-69399500D01*
X156336486Y-69399500D01*
X156269447Y-69379815D01*
X156267595Y-69378602D01*
X156150220Y-69300174D01*
X156150207Y-69300167D01*
X156004536Y-69239829D01*
X156004524Y-69239826D01*
X155849880Y-69209065D01*
X155849877Y-69209065D01*
X155692193Y-69209065D01*
X155688689Y-69209761D01*
X155686816Y-69209594D01*
X155686130Y-69209662D01*
X155686117Y-69209531D01*
X155619099Y-69203533D01*
X155563922Y-69160670D01*
X155540678Y-69094780D01*
X155540500Y-69088144D01*
X155540500Y-68630765D01*
X155560185Y-68563726D01*
X155561398Y-68561874D01*
X155582626Y-68530105D01*
X155649394Y-68430179D01*
X155709737Y-68284497D01*
X155740500Y-68129842D01*
X155740500Y-67972158D01*
X155740500Y-67972155D01*
X155740499Y-67972153D01*
X155709738Y-67817510D01*
X155709737Y-67817503D01*
X155709215Y-67816243D01*
X155649397Y-67671827D01*
X155649390Y-67671814D01*
X155561789Y-67540711D01*
X155561786Y-67540707D01*
X155450292Y-67429213D01*
X155450288Y-67429210D01*
X155319185Y-67341609D01*
X155319172Y-67341602D01*
X155173501Y-67281264D01*
X155173489Y-67281261D01*
X155018845Y-67250500D01*
X155018842Y-67250500D01*
X154861158Y-67250500D01*
X154861155Y-67250500D01*
X154706510Y-67281261D01*
X154706498Y-67281264D01*
X154560827Y-67341602D01*
X154560814Y-67341609D01*
X154429711Y-67429210D01*
X154429707Y-67429213D01*
X154318213Y-67540707D01*
X154318210Y-67540711D01*
X154230609Y-67671814D01*
X154230602Y-67671827D01*
X154170264Y-67817498D01*
X154170261Y-67817510D01*
X154139500Y-67972153D01*
X154139500Y-68006618D01*
X154119815Y-68073657D01*
X154067011Y-68119412D01*
X153997853Y-68129356D01*
X153934297Y-68100331D01*
X153900939Y-68054070D01*
X153845997Y-67921427D01*
X153845990Y-67921414D01*
X153758389Y-67790311D01*
X153758386Y-67790307D01*
X153646892Y-67678813D01*
X153646888Y-67678810D01*
X153515785Y-67591209D01*
X153515772Y-67591202D01*
X153370101Y-67530864D01*
X153370089Y-67530861D01*
X153215445Y-67500100D01*
X153215442Y-67500100D01*
X153057758Y-67500100D01*
X153057755Y-67500100D01*
X152903110Y-67530861D01*
X152903098Y-67530864D01*
X152757427Y-67591202D01*
X152757414Y-67591209D01*
X152626311Y-67678810D01*
X152626307Y-67678813D01*
X152514813Y-67790307D01*
X152514810Y-67790311D01*
X152427209Y-67921414D01*
X152427202Y-67921427D01*
X152366864Y-68067098D01*
X152366861Y-68067110D01*
X152336100Y-68221753D01*
X145694574Y-68221753D01*
X145712856Y-68129844D01*
X145723001Y-68078844D01*
X145723001Y-67921155D01*
X145723000Y-67921153D01*
X145702384Y-67817510D01*
X145692238Y-67766503D01*
X145688592Y-67757701D01*
X145631898Y-67620827D01*
X145631891Y-67620814D01*
X145544290Y-67489711D01*
X145544287Y-67489707D01*
X145456035Y-67401455D01*
X145422550Y-67340132D01*
X145427534Y-67270440D01*
X145469406Y-67214507D01*
X145534870Y-67190090D01*
X145543716Y-67189774D01*
X149162760Y-67189774D01*
X149229799Y-67209459D01*
X149231651Y-67210672D01*
X149363340Y-67298664D01*
X149363353Y-67298671D01*
X149509024Y-67359009D01*
X149509029Y-67359011D01*
X149663679Y-67389773D01*
X149663682Y-67389774D01*
X149663684Y-67389774D01*
X149821370Y-67389774D01*
X149821371Y-67389773D01*
X149976023Y-67359011D01*
X150121705Y-67298668D01*
X150252815Y-67211063D01*
X150364315Y-67099563D01*
X150451920Y-66968453D01*
X150451921Y-66968450D01*
X150451923Y-66968447D01*
X150494313Y-66866106D01*
X150538153Y-66811702D01*
X150596725Y-66790155D01*
X150601346Y-66789700D01*
X150679021Y-66774248D01*
X150755998Y-66758937D01*
X150901680Y-66698594D01*
X151032790Y-66610989D01*
X151144290Y-66499489D01*
X151231895Y-66368379D01*
X151292238Y-66222697D01*
X151323001Y-66068042D01*
X151323001Y-65910358D01*
X151323001Y-65910355D01*
X151323000Y-65910353D01*
X151314700Y-65868627D01*
X151292238Y-65755703D01*
X151281806Y-65730518D01*
X151231898Y-65610027D01*
X151231891Y-65610014D01*
X151144290Y-65478911D01*
X151144287Y-65478907D01*
X151032793Y-65367413D01*
X151032789Y-65367410D01*
X150901686Y-65279809D01*
X150901673Y-65279802D01*
X150756002Y-65219464D01*
X150755990Y-65219461D01*
X150601346Y-65188700D01*
X150601343Y-65188700D01*
X150443659Y-65188700D01*
X150443656Y-65188700D01*
X150289011Y-65219461D01*
X150288999Y-65219464D01*
X150143328Y-65279802D01*
X150143315Y-65279809D01*
X150011626Y-65367802D01*
X149944948Y-65388680D01*
X149942735Y-65388700D01*
X146647001Y-65388700D01*
X146579962Y-65369015D01*
X146534207Y-65316211D01*
X146523001Y-65264700D01*
X146523001Y-65249955D01*
X146523000Y-65249953D01*
X146512625Y-65197793D01*
X146492238Y-65095303D01*
X146464985Y-65029508D01*
X146431898Y-64949627D01*
X146431891Y-64949614D01*
X146341198Y-64813883D01*
X146320320Y-64747206D01*
X146320300Y-64744992D01*
X146320300Y-61628207D01*
X158202001Y-61628207D01*
X158202001Y-61991795D01*
X158212838Y-62101830D01*
X158237638Y-62353631D01*
X158308565Y-62710213D01*
X158308568Y-62710224D01*
X158414115Y-63058166D01*
X158553255Y-63394079D01*
X158553257Y-63394084D01*
X158724641Y-63714721D01*
X158724652Y-63714739D01*
X158926641Y-64017036D01*
X158926651Y-64017050D01*
X159157308Y-64298107D01*
X159414394Y-64555193D01*
X159414399Y-64555197D01*
X159414400Y-64555198D01*
X159695457Y-64785855D01*
X159997769Y-64987854D01*
X159997778Y-64987859D01*
X159997780Y-64987860D01*
X160318417Y-65159244D01*
X160318419Y-65159244D01*
X160318425Y-65159248D01*
X160654337Y-65298387D01*
X161002268Y-65403931D01*
X161002274Y-65403932D01*
X161002277Y-65403933D01*
X161002288Y-65403936D01*
X161358870Y-65474863D01*
X161720707Y-65510501D01*
X161720710Y-65510501D01*
X162084292Y-65510501D01*
X162084295Y-65510501D01*
X162446132Y-65474863D01*
X162515546Y-65461055D01*
X162802713Y-65403936D01*
X162802724Y-65403933D01*
X162802724Y-65403932D01*
X162802734Y-65403931D01*
X163150665Y-65298387D01*
X163486577Y-65159248D01*
X163807233Y-64987854D01*
X164109545Y-64785855D01*
X164390602Y-64555198D01*
X164647698Y-64298102D01*
X164878355Y-64017045D01*
X165080354Y-63714733D01*
X165251748Y-63394077D01*
X165316739Y-63237173D01*
X165360580Y-63182770D01*
X165426874Y-63160705D01*
X165494573Y-63177984D01*
X165542184Y-63229121D01*
X165555300Y-63284626D01*
X165555300Y-64801870D01*
X165555301Y-64801876D01*
X165561708Y-64861483D01*
X165612002Y-64996328D01*
X165612006Y-64996335D01*
X165698252Y-65111544D01*
X165698255Y-65111547D01*
X165813464Y-65197793D01*
X165813471Y-65197797D01*
X165948317Y-65248091D01*
X165948316Y-65248091D01*
X165955244Y-65248835D01*
X166007927Y-65254500D01*
X168103672Y-65254499D01*
X168163283Y-65248091D01*
X168298131Y-65197796D01*
X168413346Y-65111546D01*
X168499596Y-64996331D01*
X168549891Y-64861483D01*
X168556300Y-64801873D01*
X168556299Y-62706128D01*
X168549891Y-62646517D01*
X168499596Y-62511669D01*
X168499595Y-62511668D01*
X168499593Y-62511664D01*
X168413347Y-62396455D01*
X168413344Y-62396452D01*
X168298135Y-62310206D01*
X168298128Y-62310202D01*
X168163282Y-62259908D01*
X168163283Y-62259908D01*
X168103683Y-62253501D01*
X168103681Y-62253500D01*
X168103673Y-62253500D01*
X168103664Y-62253500D01*
X166007929Y-62253500D01*
X166007923Y-62253501D01*
X165948316Y-62259908D01*
X165813471Y-62310202D01*
X165813468Y-62310204D01*
X165777690Y-62336988D01*
X165712225Y-62361405D01*
X165643952Y-62346553D01*
X165594547Y-62297148D01*
X165579695Y-62228875D01*
X165579976Y-62225567D01*
X165583149Y-62193350D01*
X165603001Y-61991795D01*
X165603001Y-61628207D01*
X165567363Y-61266370D01*
X165557329Y-61215925D01*
X165496436Y-60909788D01*
X165496433Y-60909777D01*
X165496432Y-60909774D01*
X165496431Y-60909768D01*
X165390887Y-60561837D01*
X165251748Y-60225925D01*
X165080354Y-59905269D01*
X164878355Y-59602957D01*
X164647698Y-59321900D01*
X164647697Y-59321899D01*
X164647693Y-59321894D01*
X164390607Y-59064808D01*
X164109550Y-58834151D01*
X164109549Y-58834150D01*
X164109545Y-58834147D01*
X163807233Y-58632148D01*
X163807228Y-58632145D01*
X163807221Y-58632141D01*
X163486584Y-58460757D01*
X163486579Y-58460755D01*
X163150666Y-58321615D01*
X162802724Y-58216068D01*
X162802713Y-58216065D01*
X162446131Y-58145138D01*
X162173612Y-58118297D01*
X162084295Y-58109501D01*
X161720707Y-58109501D01*
X161638180Y-58117629D01*
X161358870Y-58145138D01*
X161002288Y-58216065D01*
X161002277Y-58216068D01*
X160654335Y-58321615D01*
X160318422Y-58460755D01*
X160318417Y-58460757D01*
X159997780Y-58632141D01*
X159997762Y-58632152D01*
X159695465Y-58834141D01*
X159695451Y-58834151D01*
X159414394Y-59064808D01*
X159157308Y-59321894D01*
X158926651Y-59602951D01*
X158926641Y-59602965D01*
X158724652Y-59905262D01*
X158724641Y-59905280D01*
X158553257Y-60225917D01*
X158553255Y-60225922D01*
X158414115Y-60561835D01*
X158308568Y-60909777D01*
X158308565Y-60909788D01*
X158237638Y-61266370D01*
X158210129Y-61545680D01*
X158202001Y-61628207D01*
X146320300Y-61628207D01*
X146320300Y-58671789D01*
X146320301Y-58671776D01*
X146320301Y-58503675D01*
X146320301Y-58503673D01*
X146279377Y-58350945D01*
X146250439Y-58300825D01*
X146200320Y-58214014D01*
X146088516Y-58102210D01*
X146088515Y-58102209D01*
X146084185Y-58097879D01*
X146084174Y-58097869D01*
X144828628Y-56842323D01*
X144795143Y-56781000D01*
X144794705Y-56778900D01*
X144787737Y-56743868D01*
X144772651Y-56707447D01*
X144727397Y-56598192D01*
X144727390Y-56598179D01*
X144639789Y-56467076D01*
X144639786Y-56467072D01*
X144528292Y-56355578D01*
X144528288Y-56355575D01*
X144397185Y-56267974D01*
X144397172Y-56267967D01*
X144251501Y-56207629D01*
X144251489Y-56207626D01*
X144096845Y-56176865D01*
X144096842Y-56176865D01*
X143939158Y-56176865D01*
X143939155Y-56176865D01*
X143784510Y-56207626D01*
X143784498Y-56207629D01*
X143638827Y-56267967D01*
X143638814Y-56267974D01*
X143507711Y-56355575D01*
X143507707Y-56355578D01*
X143396213Y-56467072D01*
X143396210Y-56467076D01*
X143308609Y-56598179D01*
X143308602Y-56598192D01*
X143248264Y-56743863D01*
X143248261Y-56743875D01*
X143217500Y-56898518D01*
X143217500Y-57056211D01*
X143248261Y-57210854D01*
X143248264Y-57210866D01*
X143308602Y-57356537D01*
X143308609Y-57356550D01*
X143396210Y-57487653D01*
X143396213Y-57487657D01*
X143507707Y-57599151D01*
X143507711Y-57599154D01*
X143638814Y-57686755D01*
X143638827Y-57686762D01*
X143784498Y-57747100D01*
X143784503Y-57747102D01*
X143939153Y-57777864D01*
X143939156Y-57777865D01*
X143939158Y-57777865D01*
X144014338Y-57777865D01*
X144081377Y-57797550D01*
X144102019Y-57814184D01*
X145082981Y-58795146D01*
X145116466Y-58856469D01*
X145119300Y-58882827D01*
X145119300Y-64753076D01*
X145099615Y-64820115D01*
X145098402Y-64821967D01*
X145013110Y-64949614D01*
X145013103Y-64949627D01*
X144952765Y-65095298D01*
X144952762Y-65095310D01*
X144922001Y-65249953D01*
X144922001Y-65264700D01*
X144919450Y-65273385D01*
X144920739Y-65282347D01*
X144909760Y-65306387D01*
X144902316Y-65331739D01*
X144895475Y-65337666D01*
X144891714Y-65345903D01*
X144869479Y-65360192D01*
X144849512Y-65377494D01*
X144838997Y-65379781D01*
X144832936Y-65383677D01*
X144798001Y-65388700D01*
X144789297Y-65388700D01*
X144722258Y-65369015D01*
X144701616Y-65352381D01*
X141636819Y-62287584D01*
X141603334Y-62226261D01*
X141600500Y-62199903D01*
X141600500Y-60577848D01*
X141620185Y-60510809D01*
X141672989Y-60465054D01*
X141700309Y-60456231D01*
X141716291Y-60453051D01*
X141833497Y-60429738D01*
X141979179Y-60369395D01*
X142110289Y-60281790D01*
X142221789Y-60170290D01*
X142309394Y-60039180D01*
X142369737Y-59893498D01*
X142400500Y-59738843D01*
X142400500Y-59581159D01*
X142400500Y-59581156D01*
X142400499Y-59581154D01*
X142369738Y-59426511D01*
X142369737Y-59426504D01*
X142369735Y-59426499D01*
X142309397Y-59280828D01*
X142309390Y-59280815D01*
X142221398Y-59149126D01*
X142200520Y-59082448D01*
X142200500Y-59080235D01*
X142200500Y-56270944D01*
X142200499Y-56270939D01*
X142199774Y-56268231D01*
X142199703Y-56267967D01*
X142159577Y-56118215D01*
X142159575Y-56118212D01*
X142159575Y-56118210D01*
X142159574Y-56118209D01*
X142125723Y-56059578D01*
X142125721Y-56059576D01*
X142124912Y-56058175D01*
X142080520Y-55981284D01*
X141968716Y-55869480D01*
X141968715Y-55869479D01*
X141964385Y-55865149D01*
X141964374Y-55865139D01*
X137261417Y-51162182D01*
X137227932Y-51100859D01*
X137232916Y-51031167D01*
X137274788Y-50975234D01*
X137340252Y-50950817D01*
X137349098Y-50950501D01*
X167544109Y-50950501D01*
X167605573Y-50950501D01*
X167614419Y-50950817D01*
X167814562Y-50965131D01*
X167832063Y-50967648D01*
X168023796Y-51009356D01*
X168040755Y-51014335D01*
X168224615Y-51082912D01*
X168240695Y-51090256D01*
X168412906Y-51184291D01*
X168412908Y-51184292D01*
X168427789Y-51193856D01*
X168427791Y-51193857D01*
X168584859Y-51311436D01*
X168598231Y-51323022D01*
X168736975Y-51461767D01*
X168748560Y-51475138D01*
X168866145Y-51632213D01*
X168875710Y-51647096D01*
X168969742Y-51819301D01*
X168977092Y-51835395D01*
X169045660Y-52019235D01*
X169050644Y-52036210D01*
X169092350Y-52227932D01*
X169094868Y-52245443D01*
X169109185Y-52445605D01*
X169109501Y-52454452D01*
X169109501Y-109945573D01*
X169109185Y-109954420D01*
X169094870Y-110154558D01*
X169092352Y-110172068D01*
X169092352Y-110172069D01*
X169050647Y-110363788D01*
X169045663Y-110380764D01*
X168977092Y-110564609D01*
X168969742Y-110580702D01*
X168875711Y-110752905D01*
X168866146Y-110767788D01*
X168748559Y-110924866D01*
X168736974Y-110938236D01*
X168598237Y-111076973D01*
X168584866Y-111088559D01*
X168427788Y-111206146D01*
X168412905Y-111215711D01*
X168240702Y-111309742D01*
X168224609Y-111317092D01*
X168040764Y-111385663D01*
X168023788Y-111390647D01*
X167832069Y-111432352D01*
X167814558Y-111434870D01*
X167634874Y-111447722D01*
X167614418Y-111449185D01*
X167605573Y-111449501D01*
X164220143Y-111449501D01*
X164153104Y-111429816D01*
X164107349Y-111377012D01*
X164097405Y-111307854D01*
X164126430Y-111244298D01*
X164141478Y-111229648D01*
X164390602Y-111025198D01*
X164647698Y-110768102D01*
X164878355Y-110487045D01*
X165080354Y-110184733D01*
X165251748Y-109864077D01*
X165390887Y-109528165D01*
X165496431Y-109180234D01*
X165496433Y-109180224D01*
X165496436Y-109180213D01*
X165538783Y-108967317D01*
X165571167Y-108905406D01*
X165631883Y-108870832D01*
X165701653Y-108874571D01*
X165758325Y-108915437D01*
X165783906Y-108980455D01*
X165784400Y-108991508D01*
X165784400Y-109632844D01*
X165790801Y-109692372D01*
X165790803Y-109692379D01*
X165841045Y-109827086D01*
X165841049Y-109827093D01*
X165927209Y-109942187D01*
X165927212Y-109942190D01*
X166042306Y-110028350D01*
X166042313Y-110028354D01*
X166177020Y-110078596D01*
X166177027Y-110078598D01*
X166236555Y-110084999D01*
X166236572Y-110085000D01*
X167034400Y-110085000D01*
X167034400Y-109018012D01*
X167091407Y-109050925D01*
X167218574Y-109085000D01*
X167350226Y-109085000D01*
X167477393Y-109050925D01*
X167534400Y-109018012D01*
X167534400Y-110085000D01*
X168332228Y-110085000D01*
X168332244Y-110084999D01*
X168391772Y-110078598D01*
X168391779Y-110078596D01*
X168526486Y-110028354D01*
X168526493Y-110028350D01*
X168641587Y-109942190D01*
X168641590Y-109942187D01*
X168727750Y-109827093D01*
X168727754Y-109827086D01*
X168777996Y-109692379D01*
X168777998Y-109692372D01*
X168784399Y-109632844D01*
X168784400Y-109632827D01*
X168784400Y-108835000D01*
X167717412Y-108835000D01*
X167750325Y-108777993D01*
X167784400Y-108650826D01*
X167784400Y-108519174D01*
X167750325Y-108392007D01*
X167717412Y-108335000D01*
X168784400Y-108335000D01*
X168784400Y-107537172D01*
X168784399Y-107537155D01*
X168777998Y-107477627D01*
X168777996Y-107477620D01*
X168727754Y-107342913D01*
X168727750Y-107342906D01*
X168641590Y-107227812D01*
X168641587Y-107227809D01*
X168526493Y-107141649D01*
X168526486Y-107141645D01*
X168391779Y-107091403D01*
X168391772Y-107091401D01*
X168332244Y-107085000D01*
X167534400Y-107085000D01*
X167534400Y-108151988D01*
X167477393Y-108119075D01*
X167350226Y-108085000D01*
X167218574Y-108085000D01*
X167091407Y-108119075D01*
X167034400Y-108151988D01*
X167034400Y-107085000D01*
X166236555Y-107085000D01*
X166177027Y-107091401D01*
X166177020Y-107091403D01*
X166042313Y-107141645D01*
X166042306Y-107141649D01*
X165927212Y-107227809D01*
X165927209Y-107227812D01*
X165841049Y-107342906D01*
X165841045Y-107342913D01*
X165790803Y-107477620D01*
X165790801Y-107477627D01*
X165784400Y-107537155D01*
X165784400Y-107568493D01*
X165764715Y-107635532D01*
X165711911Y-107681287D01*
X165642753Y-107691231D01*
X165579197Y-107662206D01*
X165541423Y-107603428D01*
X165538783Y-107592684D01*
X165496436Y-107379788D01*
X165496433Y-107379777D01*
X165496432Y-107379774D01*
X165496431Y-107379768D01*
X165390887Y-107031837D01*
X165251748Y-106695925D01*
X165080354Y-106375269D01*
X164878355Y-106072957D01*
X164647698Y-105791900D01*
X164647697Y-105791899D01*
X164647693Y-105791894D01*
X164390607Y-105534808D01*
X164109550Y-105304151D01*
X164109549Y-105304150D01*
X164109545Y-105304147D01*
X163807233Y-105102148D01*
X163807228Y-105102145D01*
X163807221Y-105102141D01*
X163486584Y-104930757D01*
X163486579Y-104930755D01*
X163459006Y-104919334D01*
X163362047Y-104879172D01*
X163150666Y-104791615D01*
X162959076Y-104733497D01*
X162820064Y-104691328D01*
X162761627Y-104653031D01*
X162733171Y-104589219D01*
X162743731Y-104520152D01*
X162768377Y-104484990D01*
X163214313Y-104039055D01*
X163339979Y-103913389D01*
X165149500Y-103913389D01*
X165149500Y-104086610D01*
X165173748Y-104239711D01*
X165176598Y-104257701D01*
X165230127Y-104422445D01*
X165308768Y-104576788D01*
X165410586Y-104716928D01*
X165533072Y-104839414D01*
X165673212Y-104941232D01*
X165827555Y-105019873D01*
X165992299Y-105073402D01*
X166163389Y-105100500D01*
X166163390Y-105100500D01*
X166336610Y-105100500D01*
X166336611Y-105100500D01*
X166507701Y-105073402D01*
X166672445Y-105019873D01*
X166826788Y-104941232D01*
X166966928Y-104839414D01*
X167089414Y-104716928D01*
X167191232Y-104576788D01*
X167269873Y-104422445D01*
X167323402Y-104257701D01*
X167350500Y-104086611D01*
X167350500Y-103913389D01*
X167323402Y-103742299D01*
X167269873Y-103577555D01*
X167191232Y-103423212D01*
X167089414Y-103283072D01*
X166966928Y-103160586D01*
X166826788Y-103058768D01*
X166672445Y-102980127D01*
X166507701Y-102926598D01*
X166507699Y-102926597D01*
X166507698Y-102926597D01*
X166376271Y-102905781D01*
X166336611Y-102899500D01*
X166163389Y-102899500D01*
X166123728Y-102905781D01*
X165992302Y-102926597D01*
X165827552Y-102980128D01*
X165673211Y-103058768D01*
X165643069Y-103080668D01*
X165533072Y-103160586D01*
X165533070Y-103160588D01*
X165533069Y-103160588D01*
X165410588Y-103283069D01*
X165410588Y-103283070D01*
X165410586Y-103283072D01*
X165366859Y-103343256D01*
X165308768Y-103423211D01*
X165230128Y-103577552D01*
X165176597Y-103742302D01*
X165149500Y-103913389D01*
X163339979Y-103913389D01*
X163432532Y-103820836D01*
X163777948Y-103475419D01*
X163777947Y-103475419D01*
X163777951Y-103475416D01*
X163860084Y-103352495D01*
X163916658Y-103215913D01*
X163927663Y-103160588D01*
X163945500Y-103070920D01*
X163945500Y-101047963D01*
X163965185Y-100980924D01*
X164017989Y-100935169D01*
X164087147Y-100925225D01*
X164150703Y-100954250D01*
X164157181Y-100960282D01*
X164668646Y-101471748D01*
X164668650Y-101471751D01*
X164791564Y-101553880D01*
X164791577Y-101553887D01*
X164923419Y-101608497D01*
X164928153Y-101610458D01*
X164928157Y-101610458D01*
X164928158Y-101610459D01*
X165073145Y-101639300D01*
X165073148Y-101639300D01*
X165220983Y-101639300D01*
X165710701Y-101639300D01*
X165777740Y-101658985D01*
X165823495Y-101711789D01*
X165834701Y-101763300D01*
X165834701Y-101936676D01*
X165841108Y-101996283D01*
X165891402Y-102131128D01*
X165891406Y-102131135D01*
X165977652Y-102246344D01*
X165977655Y-102246347D01*
X166092864Y-102332593D01*
X166092871Y-102332597D01*
X166227717Y-102382891D01*
X166227716Y-102382891D01*
X166232563Y-102383412D01*
X166287327Y-102389300D01*
X168383072Y-102389299D01*
X168442683Y-102382891D01*
X168577531Y-102332596D01*
X168692746Y-102246346D01*
X168778996Y-102131131D01*
X168829291Y-101996283D01*
X168835700Y-101936673D01*
X168835699Y-99840928D01*
X168830499Y-99792557D01*
X168829291Y-99781316D01*
X168778997Y-99646471D01*
X168778993Y-99646464D01*
X168692747Y-99531255D01*
X168692744Y-99531252D01*
X168577535Y-99445006D01*
X168577528Y-99445002D01*
X168442682Y-99394708D01*
X168442683Y-99394708D01*
X168383083Y-99388301D01*
X168383081Y-99388300D01*
X168383073Y-99388300D01*
X168383064Y-99388300D01*
X166287329Y-99388300D01*
X166287323Y-99388301D01*
X166227716Y-99394708D01*
X166092871Y-99445002D01*
X166092864Y-99445006D01*
X165977655Y-99531252D01*
X165977652Y-99531255D01*
X165891406Y-99646464D01*
X165891402Y-99646471D01*
X165841108Y-99781317D01*
X165835212Y-99836166D01*
X165834701Y-99840923D01*
X165834700Y-99840935D01*
X165834700Y-100014300D01*
X165832149Y-100022985D01*
X165833438Y-100031947D01*
X165822459Y-100055987D01*
X165815015Y-100081339D01*
X165808174Y-100087266D01*
X165804413Y-100095503D01*
X165782178Y-100109792D01*
X165762211Y-100127094D01*
X165751696Y-100129381D01*
X165745635Y-100133277D01*
X165710700Y-100138300D01*
X165509295Y-100138300D01*
X165442256Y-100118615D01*
X165421614Y-100101981D01*
X163981819Y-98662185D01*
X163948334Y-98600862D01*
X163945500Y-98574504D01*
X163945500Y-93913389D01*
X165149500Y-93913389D01*
X165149500Y-94086610D01*
X165173206Y-94236289D01*
X165176598Y-94257701D01*
X165230127Y-94422445D01*
X165308768Y-94576788D01*
X165410586Y-94716928D01*
X165533072Y-94839414D01*
X165673212Y-94941232D01*
X165827555Y-95019873D01*
X165992299Y-95073402D01*
X166163389Y-95100500D01*
X166163390Y-95100500D01*
X166336610Y-95100500D01*
X166336611Y-95100500D01*
X166507701Y-95073402D01*
X166672445Y-95019873D01*
X166826788Y-94941232D01*
X166966928Y-94839414D01*
X167089414Y-94716928D01*
X167191232Y-94576788D01*
X167269873Y-94422445D01*
X167323402Y-94257701D01*
X167350500Y-94086611D01*
X167350500Y-93913389D01*
X167323402Y-93742299D01*
X167269873Y-93577555D01*
X167191232Y-93423212D01*
X167089414Y-93283072D01*
X166966928Y-93160586D01*
X166826788Y-93058768D01*
X166672445Y-92980127D01*
X166507701Y-92926598D01*
X166507699Y-92926597D01*
X166507698Y-92926597D01*
X166376271Y-92905781D01*
X166336611Y-92899500D01*
X166163389Y-92899500D01*
X166123728Y-92905781D01*
X165992302Y-92926597D01*
X165827552Y-92980128D01*
X165673211Y-93058768D01*
X165593256Y-93116859D01*
X165533072Y-93160586D01*
X165533070Y-93160588D01*
X165533069Y-93160588D01*
X165410588Y-93283069D01*
X165410588Y-93283070D01*
X165410586Y-93283072D01*
X165403966Y-93292184D01*
X165308768Y-93423211D01*
X165230128Y-93577552D01*
X165176597Y-93742302D01*
X165149500Y-93913389D01*
X163945500Y-93913389D01*
X163945500Y-90162679D01*
X163939473Y-90132383D01*
X163928556Y-90077500D01*
X163916659Y-90017688D01*
X163883518Y-89937680D01*
X163881533Y-89932887D01*
X163860087Y-89881111D01*
X163860079Y-89881096D01*
X163827187Y-89831871D01*
X163827185Y-89831868D01*
X163777956Y-89758189D01*
X163777952Y-89758184D01*
X163515966Y-89496198D01*
X163433157Y-89413389D01*
X165149500Y-89413389D01*
X165149500Y-89586611D01*
X165176598Y-89757701D01*
X165230127Y-89922445D01*
X165308768Y-90076788D01*
X165410586Y-90216928D01*
X165533072Y-90339414D01*
X165673212Y-90441232D01*
X165827555Y-90519873D01*
X165992299Y-90573402D01*
X166163389Y-90600500D01*
X166163390Y-90600500D01*
X166336610Y-90600500D01*
X166336611Y-90600500D01*
X166507701Y-90573402D01*
X166672445Y-90519873D01*
X166826788Y-90441232D01*
X166966928Y-90339414D01*
X167089414Y-90216928D01*
X167191232Y-90076788D01*
X167269873Y-89922445D01*
X167323402Y-89757701D01*
X167350500Y-89586611D01*
X167350500Y-89413389D01*
X167323402Y-89242299D01*
X167269873Y-89077555D01*
X167191232Y-88923212D01*
X167089414Y-88783072D01*
X166966928Y-88660586D01*
X166826788Y-88558768D01*
X166672445Y-88480127D01*
X166507701Y-88426598D01*
X166507699Y-88426597D01*
X166507698Y-88426597D01*
X166376271Y-88405781D01*
X166336611Y-88399500D01*
X166163389Y-88399500D01*
X166123728Y-88405781D01*
X165992302Y-88426597D01*
X165827552Y-88480128D01*
X165673211Y-88558768D01*
X165643069Y-88580668D01*
X165533072Y-88660586D01*
X165533070Y-88660588D01*
X165533069Y-88660588D01*
X165410588Y-88783069D01*
X165410588Y-88783070D01*
X165410586Y-88783072D01*
X165406573Y-88788596D01*
X165308768Y-88923211D01*
X165230128Y-89077552D01*
X165176597Y-89242302D01*
X165149500Y-89413389D01*
X163433157Y-89413389D01*
X162936821Y-88917052D01*
X162936814Y-88917046D01*
X162863129Y-88867812D01*
X162863129Y-88867813D01*
X162813891Y-88834913D01*
X162677317Y-88778343D01*
X162677307Y-88778340D01*
X162532320Y-88749500D01*
X162532318Y-88749500D01*
X161465518Y-88749500D01*
X160750301Y-88749500D01*
X160683262Y-88729815D01*
X160637507Y-88677011D01*
X160632595Y-88664504D01*
X160604814Y-88580666D01*
X160512712Y-88431344D01*
X160388656Y-88307288D01*
X160239334Y-88215186D01*
X160239333Y-88215185D01*
X160233878Y-88211821D01*
X160187154Y-88159873D01*
X160175931Y-88090910D01*
X160203775Y-88026828D01*
X160211272Y-88018623D01*
X160350104Y-87879792D01*
X160405155Y-87804021D01*
X160475048Y-87707820D01*
X160475047Y-87707820D01*
X160475051Y-87707816D01*
X160571557Y-87518412D01*
X160637246Y-87316243D01*
X160670500Y-87106287D01*
X160670500Y-86893713D01*
X160662636Y-86844059D01*
X160646772Y-86743897D01*
X160655727Y-86674604D01*
X160700723Y-86621152D01*
X160767475Y-86600513D01*
X160769245Y-86600500D01*
X162420234Y-86600500D01*
X162487273Y-86620185D01*
X162489125Y-86621398D01*
X162620814Y-86709390D01*
X162620827Y-86709397D01*
X162704119Y-86743897D01*
X162766503Y-86769737D01*
X162921153Y-86800499D01*
X162921156Y-86800500D01*
X162921158Y-86800500D01*
X163078844Y-86800500D01*
X163078845Y-86800499D01*
X163233497Y-86769737D01*
X163379179Y-86709394D01*
X163510289Y-86621789D01*
X163621789Y-86510289D01*
X163709394Y-86379179D01*
X163769737Y-86233497D01*
X163800500Y-86078842D01*
X163800500Y-85921158D01*
X163800500Y-85921155D01*
X163800499Y-85921153D01*
X163781329Y-85824779D01*
X163769737Y-85766503D01*
X163762901Y-85750000D01*
X163709397Y-85620827D01*
X163709390Y-85620814D01*
X163621789Y-85489711D01*
X163621786Y-85489707D01*
X163510292Y-85378213D01*
X163510288Y-85378210D01*
X163379185Y-85290609D01*
X163379172Y-85290602D01*
X163233501Y-85230264D01*
X163233489Y-85230261D01*
X163078845Y-85199500D01*
X163078842Y-85199500D01*
X162921158Y-85199500D01*
X162921155Y-85199500D01*
X162766510Y-85230261D01*
X162766498Y-85230264D01*
X162620827Y-85290602D01*
X162620814Y-85290609D01*
X162489125Y-85378602D01*
X162422447Y-85399480D01*
X162420234Y-85399500D01*
X160579005Y-85399500D01*
X160511966Y-85379815D01*
X160466211Y-85327011D01*
X160456267Y-85257853D01*
X160473277Y-85210710D01*
X160475037Y-85207834D01*
X160475051Y-85207816D01*
X160571557Y-85018412D01*
X160637246Y-84816243D01*
X160670500Y-84606287D01*
X160670500Y-84393713D01*
X160637246Y-84183757D01*
X160571557Y-83981588D01*
X160475051Y-83792184D01*
X160475049Y-83792181D01*
X160475048Y-83792179D01*
X160350109Y-83620213D01*
X160199790Y-83469894D01*
X160199785Y-83469890D01*
X160034781Y-83350008D01*
X159992115Y-83294678D01*
X159986136Y-83225065D01*
X160018741Y-83163270D01*
X160034781Y-83149371D01*
X160199466Y-83029721D01*
X160349723Y-82879464D01*
X160349727Y-82879459D01*
X160474620Y-82707557D01*
X160571095Y-82518217D01*
X160636757Y-82316129D01*
X160636757Y-82316126D01*
X160647231Y-82250000D01*
X159618482Y-82250000D01*
X159629111Y-82231591D01*
X159670000Y-82078991D01*
X159670000Y-81921009D01*
X159629111Y-81768409D01*
X159618482Y-81750000D01*
X160647231Y-81750000D01*
X160636757Y-81683873D01*
X160636757Y-81683870D01*
X160571095Y-81481782D01*
X160474620Y-81292442D01*
X160349727Y-81120540D01*
X160349723Y-81120535D01*
X160199464Y-80970276D01*
X160199459Y-80970272D01*
X160034781Y-80850627D01*
X159992115Y-80795297D01*
X159986136Y-80725684D01*
X160018741Y-80663889D01*
X160034776Y-80649994D01*
X160199792Y-80530104D01*
X160350104Y-80379792D01*
X160350106Y-80379788D01*
X160350109Y-80379786D01*
X160475048Y-80207820D01*
X160475047Y-80207820D01*
X160475051Y-80207816D01*
X160571557Y-80018412D01*
X160637246Y-79816243D01*
X160670500Y-79606287D01*
X160670500Y-79413389D01*
X165149500Y-79413389D01*
X165149500Y-79586611D01*
X165176598Y-79757701D01*
X165230127Y-79922445D01*
X165308768Y-80076788D01*
X165410586Y-80216928D01*
X165533072Y-80339414D01*
X165673212Y-80441232D01*
X165827555Y-80519873D01*
X165992299Y-80573402D01*
X166163389Y-80600500D01*
X166163390Y-80600500D01*
X166336610Y-80600500D01*
X166336611Y-80600500D01*
X166507701Y-80573402D01*
X166672445Y-80519873D01*
X166826788Y-80441232D01*
X166966928Y-80339414D01*
X167089414Y-80216928D01*
X167191232Y-80076788D01*
X167269873Y-79922445D01*
X167323402Y-79757701D01*
X167350500Y-79586611D01*
X167350500Y-79413389D01*
X167323402Y-79242299D01*
X167269873Y-79077555D01*
X167191232Y-78923212D01*
X167089414Y-78783072D01*
X166966928Y-78660586D01*
X166826788Y-78558768D01*
X166672445Y-78480127D01*
X166507701Y-78426598D01*
X166507699Y-78426597D01*
X166507698Y-78426597D01*
X166376271Y-78405781D01*
X166336611Y-78399500D01*
X166163389Y-78399500D01*
X166123728Y-78405781D01*
X165992302Y-78426597D01*
X165827552Y-78480128D01*
X165673211Y-78558768D01*
X165593256Y-78616859D01*
X165533072Y-78660586D01*
X165533070Y-78660588D01*
X165533069Y-78660588D01*
X165410588Y-78783069D01*
X165410588Y-78783070D01*
X165410586Y-78783072D01*
X165403966Y-78792184D01*
X165308768Y-78923211D01*
X165230128Y-79077552D01*
X165176597Y-79242302D01*
X165152616Y-79393713D01*
X165149500Y-79413389D01*
X160670500Y-79413389D01*
X160670500Y-79393713D01*
X160637246Y-79183757D01*
X160571557Y-78981588D01*
X160475051Y-78792184D01*
X160475049Y-78792181D01*
X160475048Y-78792179D01*
X160350109Y-78620213D01*
X160199786Y-78469890D01*
X160027820Y-78344951D01*
X159838414Y-78248444D01*
X159838413Y-78248443D01*
X159838412Y-78248443D01*
X159636243Y-78182754D01*
X159636241Y-78182753D01*
X159636240Y-78182753D01*
X159457470Y-78154439D01*
X159426287Y-78149500D01*
X158713713Y-78149500D01*
X158682530Y-78154439D01*
X158503760Y-78182753D01*
X158301585Y-78248444D01*
X158112179Y-78344951D01*
X157940213Y-78469890D01*
X157789890Y-78620213D01*
X157664951Y-78792179D01*
X157568444Y-78981585D01*
X157502753Y-79183760D01*
X157476198Y-79351421D01*
X157469500Y-79393713D01*
X157469500Y-79606287D01*
X157476702Y-79651758D01*
X157501676Y-79809442D01*
X157502754Y-79816243D01*
X157550792Y-79964089D01*
X157568444Y-80018414D01*
X157664951Y-80207820D01*
X157789890Y-80379786D01*
X157940209Y-80530105D01*
X157940214Y-80530109D01*
X158105218Y-80649991D01*
X158147884Y-80705320D01*
X158153863Y-80774934D01*
X158121258Y-80836729D01*
X158105218Y-80850627D01*
X157940540Y-80970272D01*
X157940535Y-80970276D01*
X157790276Y-81120535D01*
X157790272Y-81120540D01*
X157665379Y-81292442D01*
X157568904Y-81481782D01*
X157503242Y-81683870D01*
X157503242Y-81683873D01*
X157492769Y-81750000D01*
X158521518Y-81750000D01*
X158510889Y-81768409D01*
X158470000Y-81921009D01*
X158470000Y-82078991D01*
X158510889Y-82231591D01*
X158521518Y-82250000D01*
X157492769Y-82250000D01*
X157503242Y-82316126D01*
X157503242Y-82316129D01*
X157568904Y-82518217D01*
X157665379Y-82707557D01*
X157790272Y-82879459D01*
X157790276Y-82879464D01*
X157940535Y-83029723D01*
X157940540Y-83029727D01*
X158105218Y-83149372D01*
X158147884Y-83204701D01*
X158153863Y-83274315D01*
X158121258Y-83336110D01*
X158105218Y-83350008D01*
X157940214Y-83469890D01*
X157940209Y-83469894D01*
X157789890Y-83620213D01*
X157664951Y-83792179D01*
X157568444Y-83981585D01*
X157502753Y-84183760D01*
X157469500Y-84393713D01*
X157469500Y-84606286D01*
X157502753Y-84816239D01*
X157568444Y-85018414D01*
X157664951Y-85207820D01*
X157789890Y-85379786D01*
X157940209Y-85530105D01*
X157940214Y-85530109D01*
X158104793Y-85649682D01*
X158147459Y-85705011D01*
X158153438Y-85774625D01*
X158120833Y-85836420D01*
X158104793Y-85850318D01*
X157940214Y-85969890D01*
X157940209Y-85969894D01*
X157789890Y-86120213D01*
X157664951Y-86292179D01*
X157568444Y-86481585D01*
X157502753Y-86683760D01*
X157477365Y-86844057D01*
X157469500Y-86893713D01*
X157469500Y-87106287D01*
X157471972Y-87121895D01*
X157486843Y-87215789D01*
X157502754Y-87316243D01*
X157560052Y-87492588D01*
X157568444Y-87518414D01*
X157664951Y-87707820D01*
X157789890Y-87879786D01*
X157928705Y-88018601D01*
X157962190Y-88079924D01*
X157957206Y-88149616D01*
X157915334Y-88205549D01*
X157906121Y-88211821D01*
X157751342Y-88307289D01*
X157627289Y-88431342D01*
X157535187Y-88580663D01*
X157535186Y-88580666D01*
X157480001Y-88747203D01*
X157480001Y-88747204D01*
X157480000Y-88747204D01*
X157469500Y-88849983D01*
X157469500Y-90150001D01*
X157469501Y-90150018D01*
X157480000Y-90252796D01*
X157480001Y-90252799D01*
X157535185Y-90419331D01*
X157535187Y-90419336D01*
X157570069Y-90475888D01*
X157627288Y-90568656D01*
X157751344Y-90692712D01*
X157900666Y-90784814D01*
X158067203Y-90839999D01*
X158169991Y-90850500D01*
X159970008Y-90850499D01*
X160072797Y-90839999D01*
X160239334Y-90784814D01*
X160388656Y-90692712D01*
X160512712Y-90568656D01*
X160604814Y-90419334D01*
X160632595Y-90335495D01*
X160672368Y-90278051D01*
X160736884Y-90251228D01*
X160750301Y-90250500D01*
X161317682Y-90250500D01*
X162096170Y-90250500D01*
X162163209Y-90270185D01*
X162183851Y-90286819D01*
X162408181Y-90511149D01*
X162441666Y-90572472D01*
X162444500Y-90598830D01*
X162444500Y-102634770D01*
X162424815Y-102701809D01*
X162408181Y-102722451D01*
X161917451Y-103213181D01*
X161856128Y-103246666D01*
X161829770Y-103249500D01*
X160750301Y-103249500D01*
X160683262Y-103229815D01*
X160637507Y-103177011D01*
X160632595Y-103164504D01*
X160604814Y-103080666D01*
X160512712Y-102931344D01*
X160388656Y-102807288D01*
X160239334Y-102715186D01*
X160239333Y-102715185D01*
X160233878Y-102711821D01*
X160187154Y-102659873D01*
X160175931Y-102590910D01*
X160203775Y-102526828D01*
X160211272Y-102518623D01*
X160350104Y-102379792D01*
X160475051Y-102207816D01*
X160571557Y-102018412D01*
X160637246Y-101816243D01*
X160670500Y-101606287D01*
X160670500Y-101393713D01*
X160637246Y-101183757D01*
X160571557Y-100981588D01*
X160475051Y-100792184D01*
X160475049Y-100792181D01*
X160475048Y-100792179D01*
X160350109Y-100620213D01*
X160199792Y-100469896D01*
X160199784Y-100469890D01*
X160035204Y-100350316D01*
X159992540Y-100294989D01*
X159986561Y-100225376D01*
X160019166Y-100163580D01*
X160035199Y-100149686D01*
X160199792Y-100030104D01*
X160350104Y-99879792D01*
X160350106Y-99879788D01*
X160350109Y-99879786D01*
X160475048Y-99707820D01*
X160475047Y-99707820D01*
X160475051Y-99707816D01*
X160571557Y-99518412D01*
X160637246Y-99316243D01*
X160670500Y-99106287D01*
X160670500Y-98893713D01*
X160637246Y-98683757D01*
X160571557Y-98481588D01*
X160475051Y-98292184D01*
X160475049Y-98292181D01*
X160475048Y-98292179D01*
X160350109Y-98120213D01*
X160199790Y-97969894D01*
X160199785Y-97969890D01*
X160034781Y-97850008D01*
X159992115Y-97794678D01*
X159986136Y-97725065D01*
X160018741Y-97663270D01*
X160034781Y-97649371D01*
X160199466Y-97529721D01*
X160349723Y-97379464D01*
X160349727Y-97379459D01*
X160474620Y-97207557D01*
X160571095Y-97018217D01*
X160636757Y-96816129D01*
X160636757Y-96816126D01*
X160647231Y-96750000D01*
X159618482Y-96750000D01*
X159629111Y-96731591D01*
X159670000Y-96578991D01*
X159670000Y-96421009D01*
X159629111Y-96268409D01*
X159618482Y-96250000D01*
X160647231Y-96250000D01*
X160636757Y-96183873D01*
X160636757Y-96183870D01*
X160571095Y-95981782D01*
X160474620Y-95792442D01*
X160349727Y-95620540D01*
X160349723Y-95620535D01*
X160199464Y-95470276D01*
X160199459Y-95470272D01*
X160034781Y-95350627D01*
X159992115Y-95295297D01*
X159986136Y-95225684D01*
X160018741Y-95163889D01*
X160034776Y-95149994D01*
X160199792Y-95030104D01*
X160350104Y-94879792D01*
X160350106Y-94879788D01*
X160350109Y-94879786D01*
X160475048Y-94707820D01*
X160475047Y-94707820D01*
X160475051Y-94707816D01*
X160571557Y-94518412D01*
X160637246Y-94316243D01*
X160670500Y-94106287D01*
X160670500Y-93893713D01*
X160637246Y-93683757D01*
X160571557Y-93481588D01*
X160475051Y-93292184D01*
X160475049Y-93292181D01*
X160475048Y-93292179D01*
X160350109Y-93120213D01*
X160199786Y-92969890D01*
X160027820Y-92844951D01*
X159838414Y-92748444D01*
X159838413Y-92748443D01*
X159838412Y-92748443D01*
X159636243Y-92682754D01*
X159636241Y-92682753D01*
X159636240Y-92682753D01*
X159474957Y-92657208D01*
X159426287Y-92649500D01*
X158713713Y-92649500D01*
X158665042Y-92657208D01*
X158503760Y-92682753D01*
X158301585Y-92748444D01*
X158112179Y-92844951D01*
X157940213Y-92969890D01*
X157789890Y-93120213D01*
X157664951Y-93292179D01*
X157568444Y-93481585D01*
X157568443Y-93481587D01*
X157568443Y-93481588D01*
X157564894Y-93492510D01*
X157502753Y-93683760D01*
X157469500Y-93893713D01*
X157469500Y-94106286D01*
X157497634Y-94283920D01*
X157502754Y-94316243D01*
X157561075Y-94495737D01*
X157568444Y-94518414D01*
X157664951Y-94707820D01*
X157789890Y-94879786D01*
X157940209Y-95030105D01*
X157940214Y-95030109D01*
X158105218Y-95149991D01*
X158147884Y-95205320D01*
X158153863Y-95274934D01*
X158121258Y-95336729D01*
X158105218Y-95350627D01*
X157940540Y-95470272D01*
X157940535Y-95470276D01*
X157790276Y-95620535D01*
X157790272Y-95620540D01*
X157665379Y-95792442D01*
X157568904Y-95981782D01*
X157503242Y-96183870D01*
X157503242Y-96183873D01*
X157492769Y-96250000D01*
X158521518Y-96250000D01*
X158510889Y-96268409D01*
X158470000Y-96421009D01*
X158470000Y-96578991D01*
X158510889Y-96731591D01*
X158521518Y-96750000D01*
X157492769Y-96750000D01*
X157503242Y-96816126D01*
X157503242Y-96816129D01*
X157568904Y-97018217D01*
X157665379Y-97207557D01*
X157790272Y-97379459D01*
X157790276Y-97379464D01*
X157940535Y-97529723D01*
X157940540Y-97529727D01*
X158105218Y-97649372D01*
X158147884Y-97704701D01*
X158153863Y-97774315D01*
X158121258Y-97836110D01*
X158105218Y-97850008D01*
X157940214Y-97969890D01*
X157940209Y-97969894D01*
X157789890Y-98120213D01*
X157664951Y-98292179D01*
X157568444Y-98481585D01*
X157502753Y-98683760D01*
X157496237Y-98724903D01*
X157469500Y-98893713D01*
X157469500Y-99106287D01*
X157502754Y-99316243D01*
X157552286Y-99468687D01*
X157568444Y-99518414D01*
X157664951Y-99707820D01*
X157789890Y-99879786D01*
X157940209Y-100030105D01*
X157940214Y-100030109D01*
X158104793Y-100149682D01*
X158147459Y-100205011D01*
X158153438Y-100274625D01*
X158120833Y-100336420D01*
X158104793Y-100350318D01*
X157940214Y-100469890D01*
X157940209Y-100469894D01*
X157789890Y-100620213D01*
X157664951Y-100792179D01*
X157568444Y-100981585D01*
X157502753Y-101183760D01*
X157469500Y-101393713D01*
X157469500Y-101606286D01*
X157494368Y-101763300D01*
X157502754Y-101816243D01*
X157567977Y-102016979D01*
X157568444Y-102018414D01*
X157664951Y-102207820D01*
X157789890Y-102379786D01*
X157928705Y-102518601D01*
X157962190Y-102579924D01*
X157957206Y-102649616D01*
X157915334Y-102705549D01*
X157906121Y-102711821D01*
X157751342Y-102807289D01*
X157627289Y-102931342D01*
X157535187Y-103080663D01*
X157535186Y-103080666D01*
X157480001Y-103247203D01*
X157480001Y-103247204D01*
X157480000Y-103247204D01*
X157469500Y-103349983D01*
X157469500Y-104650001D01*
X157469501Y-104650018D01*
X157480000Y-104752796D01*
X157480001Y-104752799D01*
X157521880Y-104879179D01*
X157535186Y-104919334D01*
X157627288Y-105068656D01*
X157751344Y-105192712D01*
X157900666Y-105284814D01*
X158067203Y-105339999D01*
X158169991Y-105350500D01*
X159299341Y-105350499D01*
X159366380Y-105370184D01*
X159412135Y-105422987D01*
X159422079Y-105492146D01*
X159393054Y-105555702D01*
X159387022Y-105562180D01*
X159157308Y-105791894D01*
X158926651Y-106072951D01*
X158926641Y-106072965D01*
X158724652Y-106375262D01*
X158724641Y-106375280D01*
X158553257Y-106695917D01*
X158553255Y-106695922D01*
X158414115Y-107031835D01*
X158308568Y-107379777D01*
X158308565Y-107379788D01*
X158237638Y-107736370D01*
X158210930Y-108007552D01*
X158202001Y-108098207D01*
X158202001Y-108461795D01*
X158212838Y-108571830D01*
X158237638Y-108823631D01*
X158308565Y-109180213D01*
X158308568Y-109180224D01*
X158414115Y-109528166D01*
X158553255Y-109864079D01*
X158553257Y-109864084D01*
X158724641Y-110184721D01*
X158724652Y-110184739D01*
X158926641Y-110487036D01*
X158926651Y-110487050D01*
X159157308Y-110768107D01*
X159414394Y-111025193D01*
X159414399Y-111025197D01*
X159414400Y-111025198D01*
X159646541Y-111215711D01*
X159663524Y-111229648D01*
X159702858Y-111287393D01*
X159704729Y-111357238D01*
X159668542Y-111417006D01*
X159605786Y-111447722D01*
X159584859Y-111449501D01*
X133480143Y-111449501D01*
X133413104Y-111429816D01*
X133367349Y-111377012D01*
X133357405Y-111307854D01*
X133386430Y-111244298D01*
X133401478Y-111229648D01*
X133650602Y-111025198D01*
X133907698Y-110768102D01*
X134138355Y-110487045D01*
X134340354Y-110184733D01*
X134511748Y-109864077D01*
X134650887Y-109528165D01*
X134756431Y-109180234D01*
X134756433Y-109180224D01*
X134756436Y-109180213D01*
X134827363Y-108823631D01*
X134844383Y-108650826D01*
X134863001Y-108461795D01*
X134863001Y-108343389D01*
X139649500Y-108343389D01*
X139649500Y-108516610D01*
X139670757Y-108650826D01*
X139676598Y-108687701D01*
X139730127Y-108852445D01*
X139808768Y-109006788D01*
X139910586Y-109146928D01*
X140033072Y-109269414D01*
X140173212Y-109371232D01*
X140327555Y-109449873D01*
X140492299Y-109503402D01*
X140663389Y-109530500D01*
X140663390Y-109530500D01*
X140836610Y-109530500D01*
X140836611Y-109530500D01*
X141007701Y-109503402D01*
X141172445Y-109449873D01*
X141326788Y-109371232D01*
X141466928Y-109269414D01*
X141589414Y-109146928D01*
X141691232Y-109006788D01*
X141769873Y-108852445D01*
X141823402Y-108687701D01*
X141850500Y-108516611D01*
X141850500Y-108343389D01*
X147149500Y-108343389D01*
X147149500Y-108516610D01*
X147170757Y-108650826D01*
X147176598Y-108687701D01*
X147230127Y-108852445D01*
X147308768Y-109006788D01*
X147410586Y-109146928D01*
X147533072Y-109269414D01*
X147673212Y-109371232D01*
X147827555Y-109449873D01*
X147992299Y-109503402D01*
X148163389Y-109530500D01*
X148163390Y-109530500D01*
X148336610Y-109530500D01*
X148336611Y-109530500D01*
X148507701Y-109503402D01*
X148672445Y-109449873D01*
X148826788Y-109371232D01*
X148966928Y-109269414D01*
X149089414Y-109146928D01*
X149191232Y-109006788D01*
X149269873Y-108852445D01*
X149323402Y-108687701D01*
X149350500Y-108516611D01*
X149350500Y-108343389D01*
X149323402Y-108172299D01*
X149269873Y-108007555D01*
X149191232Y-107853212D01*
X149089414Y-107713072D01*
X148966928Y-107590586D01*
X148826788Y-107488768D01*
X148672445Y-107410127D01*
X148507701Y-107356598D01*
X148507699Y-107356597D01*
X148507698Y-107356597D01*
X148376271Y-107335781D01*
X148336611Y-107329500D01*
X148163389Y-107329500D01*
X148123728Y-107335781D01*
X147992302Y-107356597D01*
X147827552Y-107410128D01*
X147673211Y-107488768D01*
X147606613Y-107537155D01*
X147533072Y-107590586D01*
X147533070Y-107590588D01*
X147533069Y-107590588D01*
X147410588Y-107713069D01*
X147410588Y-107713070D01*
X147410586Y-107713072D01*
X147393659Y-107736370D01*
X147308768Y-107853211D01*
X147230128Y-108007552D01*
X147176597Y-108172302D01*
X147149500Y-108343389D01*
X141850500Y-108343389D01*
X141823402Y-108172299D01*
X141769873Y-108007555D01*
X141691232Y-107853212D01*
X141589414Y-107713072D01*
X141466928Y-107590586D01*
X141326788Y-107488768D01*
X141172445Y-107410127D01*
X141007701Y-107356598D01*
X141007699Y-107356597D01*
X141007698Y-107356597D01*
X140876271Y-107335781D01*
X140836611Y-107329500D01*
X140663389Y-107329500D01*
X140623728Y-107335781D01*
X140492302Y-107356597D01*
X140327552Y-107410128D01*
X140173211Y-107488768D01*
X140106613Y-107537155D01*
X140033072Y-107590586D01*
X140033070Y-107590588D01*
X140033069Y-107590588D01*
X139910588Y-107713069D01*
X139910588Y-107713070D01*
X139910586Y-107713072D01*
X139893659Y-107736370D01*
X139808768Y-107853211D01*
X139730128Y-108007552D01*
X139676597Y-108172302D01*
X139649500Y-108343389D01*
X134863001Y-108343389D01*
X134863001Y-108098207D01*
X134827363Y-107736370D01*
X134818384Y-107691231D01*
X134756436Y-107379788D01*
X134756433Y-107379777D01*
X134756432Y-107379774D01*
X134756431Y-107379768D01*
X134650887Y-107031837D01*
X134511748Y-106695925D01*
X134340354Y-106375269D01*
X134138355Y-106072957D01*
X133907698Y-105791900D01*
X133907697Y-105791899D01*
X133907693Y-105791894D01*
X133650607Y-105534808D01*
X133369550Y-105304151D01*
X133369549Y-105304150D01*
X133369545Y-105304147D01*
X133067233Y-105102148D01*
X133067228Y-105102145D01*
X133067221Y-105102141D01*
X132746584Y-104930757D01*
X132746579Y-104930755D01*
X132719006Y-104919334D01*
X132622047Y-104879172D01*
X132410666Y-104791615D01*
X132062724Y-104686068D01*
X132062713Y-104686065D01*
X131706131Y-104615138D01*
X131433612Y-104588297D01*
X131344295Y-104579501D01*
X130980707Y-104579501D01*
X130898180Y-104587629D01*
X130618870Y-104615138D01*
X130262288Y-104686065D01*
X130262277Y-104686068D01*
X129914335Y-104791615D01*
X129578422Y-104930755D01*
X129578417Y-104930757D01*
X129257780Y-105102141D01*
X129257762Y-105102152D01*
X128955465Y-105304141D01*
X128955451Y-105304151D01*
X128674394Y-105534808D01*
X128417308Y-105791894D01*
X128186651Y-106072951D01*
X128186641Y-106072965D01*
X127984652Y-106375262D01*
X127984641Y-106375280D01*
X127813257Y-106695917D01*
X127813255Y-106695922D01*
X127674115Y-107031835D01*
X127568568Y-107379777D01*
X127568565Y-107379788D01*
X127497638Y-107736370D01*
X127470930Y-108007552D01*
X127462001Y-108098207D01*
X127462001Y-108461795D01*
X127472838Y-108571830D01*
X127497638Y-108823631D01*
X127568565Y-109180213D01*
X127568568Y-109180224D01*
X127674115Y-109528166D01*
X127813255Y-109864079D01*
X127813257Y-109864084D01*
X127984641Y-110184721D01*
X127984652Y-110184739D01*
X128186641Y-110487036D01*
X128186651Y-110487050D01*
X128417308Y-110768107D01*
X128674394Y-111025193D01*
X128674399Y-111025197D01*
X128674400Y-111025198D01*
X128906541Y-111215711D01*
X128923524Y-111229648D01*
X128962858Y-111287393D01*
X128964729Y-111357238D01*
X128928542Y-111417006D01*
X128865786Y-111447722D01*
X128844859Y-111449501D01*
X119454429Y-111449501D01*
X119445583Y-111449185D01*
X119245443Y-111434870D01*
X119227931Y-111432352D01*
X119036212Y-111390647D01*
X119019236Y-111385663D01*
X118835390Y-111317091D01*
X118819297Y-111309741D01*
X118647091Y-111215710D01*
X118632208Y-111206145D01*
X118475135Y-111088562D01*
X118461764Y-111076976D01*
X118323024Y-110938236D01*
X118311438Y-110924865D01*
X118193855Y-110767792D01*
X118184290Y-110752909D01*
X118152815Y-110695267D01*
X118090253Y-110580695D01*
X118082909Y-110564612D01*
X118014336Y-110380761D01*
X118009354Y-110363791D01*
X118009353Y-110363788D01*
X117967646Y-110172065D01*
X117965129Y-110154556D01*
X117960154Y-110085000D01*
X117950817Y-109954446D01*
X117950501Y-109945600D01*
X117950501Y-102138205D01*
X117970186Y-102071166D01*
X118022990Y-102025411D01*
X118092148Y-102015467D01*
X118130797Y-102027721D01*
X118224517Y-102075475D01*
X118398252Y-102131924D01*
X118578668Y-102160500D01*
X118761332Y-102160500D01*
X118941747Y-102131924D01*
X118941748Y-102131924D01*
X119115479Y-102075475D01*
X119278236Y-101992545D01*
X119278243Y-101992541D01*
X119296049Y-101979603D01*
X119296050Y-101979602D01*
X118722947Y-101406500D01*
X118723517Y-101406500D01*
X118826903Y-101378798D01*
X118919597Y-101325281D01*
X118995281Y-101249597D01*
X119048798Y-101156903D01*
X119076500Y-101053517D01*
X119076500Y-101052947D01*
X119649602Y-101626050D01*
X119649603Y-101626049D01*
X119662541Y-101608243D01*
X119662545Y-101608236D01*
X119745475Y-101445479D01*
X119801924Y-101271748D01*
X119801924Y-101271746D01*
X119817273Y-101174839D01*
X119847202Y-101111704D01*
X119906513Y-101074772D01*
X119976375Y-101075770D01*
X120034608Y-101114379D01*
X120062219Y-101174837D01*
X120077588Y-101271869D01*
X120134057Y-101445666D01*
X120134058Y-101445669D01*
X120215897Y-101606286D01*
X120217024Y-101608497D01*
X120324439Y-101756341D01*
X120453659Y-101885561D01*
X120601503Y-101992976D01*
X120648612Y-102016979D01*
X120764330Y-102075941D01*
X120764333Y-102075942D01*
X120851231Y-102104176D01*
X120938132Y-102132412D01*
X121118627Y-102161000D01*
X121118628Y-102161000D01*
X121301372Y-102161000D01*
X121301373Y-102161000D01*
X121481868Y-102132412D01*
X121655669Y-102075941D01*
X121818497Y-101992976D01*
X121966341Y-101885561D01*
X122095561Y-101756341D01*
X122202976Y-101608497D01*
X122285941Y-101445669D01*
X122342412Y-101271868D01*
X122357527Y-101176435D01*
X122387456Y-101113301D01*
X122446768Y-101076370D01*
X122516630Y-101077368D01*
X122574863Y-101115978D01*
X122602472Y-101176435D01*
X122609964Y-101223734D01*
X122617588Y-101271869D01*
X122674057Y-101445666D01*
X122674058Y-101445669D01*
X122755897Y-101606286D01*
X122757024Y-101608497D01*
X122864439Y-101756341D01*
X122993659Y-101885561D01*
X122993662Y-101885563D01*
X123098385Y-101961649D01*
X123141051Y-102016979D01*
X123149500Y-102061967D01*
X123149500Y-103602044D01*
X123129815Y-103669083D01*
X123077011Y-103714838D01*
X123049691Y-103723661D01*
X123016510Y-103730261D01*
X123016498Y-103730264D01*
X122870827Y-103790602D01*
X122870814Y-103790609D01*
X122739711Y-103878210D01*
X122739707Y-103878213D01*
X122628213Y-103989707D01*
X122628210Y-103989711D01*
X122540609Y-104120814D01*
X122540602Y-104120827D01*
X122480264Y-104266498D01*
X122480261Y-104266510D01*
X122449500Y-104421153D01*
X122449500Y-104578846D01*
X122480261Y-104733489D01*
X122480264Y-104733501D01*
X122540602Y-104879172D01*
X122540609Y-104879185D01*
X122628210Y-105010288D01*
X122628213Y-105010292D01*
X122739707Y-105121786D01*
X122739711Y-105121789D01*
X122870814Y-105209390D01*
X122870827Y-105209397D01*
X123016498Y-105269735D01*
X123016503Y-105269737D01*
X123171153Y-105300499D01*
X123171156Y-105300500D01*
X123171158Y-105300500D01*
X123328844Y-105300500D01*
X123328845Y-105300499D01*
X123483497Y-105269737D01*
X123629179Y-105209394D01*
X123760289Y-105121789D01*
X123871789Y-105010289D01*
X123959394Y-104879179D01*
X124019737Y-104733497D01*
X124036344Y-104650008D01*
X124050638Y-104578151D01*
X124083023Y-104516240D01*
X124084510Y-104514724D01*
X124230520Y-104368716D01*
X124309577Y-104231784D01*
X124350501Y-104079057D01*
X124350501Y-103920942D01*
X124350501Y-103913347D01*
X124350500Y-103913329D01*
X124350500Y-102061967D01*
X124370185Y-101994928D01*
X124401615Y-101961649D01*
X124409548Y-101955884D01*
X124506341Y-101885561D01*
X124635561Y-101756341D01*
X124742976Y-101608497D01*
X124825941Y-101445669D01*
X124882412Y-101271868D01*
X124897527Y-101176435D01*
X124927456Y-101113301D01*
X124986768Y-101076370D01*
X125056630Y-101077368D01*
X125114863Y-101115978D01*
X125142472Y-101176435D01*
X125149964Y-101223734D01*
X125157588Y-101271869D01*
X125214057Y-101445666D01*
X125214058Y-101445669D01*
X125295897Y-101606286D01*
X125297024Y-101608497D01*
X125404439Y-101756341D01*
X125533659Y-101885561D01*
X125533662Y-101885563D01*
X125638385Y-101961649D01*
X125681051Y-102016979D01*
X125689500Y-102061967D01*
X125689500Y-103659902D01*
X125680855Y-103689342D01*
X125674332Y-103719329D01*
X125670577Y-103724344D01*
X125669815Y-103726941D01*
X125653184Y-103747579D01*
X125569723Y-103831040D01*
X125485338Y-103915426D01*
X125424015Y-103948910D01*
X125421849Y-103949361D01*
X125266508Y-103980261D01*
X125266498Y-103980264D01*
X125120827Y-104040602D01*
X125120814Y-104040609D01*
X124989711Y-104128210D01*
X124989707Y-104128213D01*
X124878213Y-104239707D01*
X124878210Y-104239711D01*
X124790609Y-104370814D01*
X124790602Y-104370827D01*
X124730264Y-104516498D01*
X124730261Y-104516510D01*
X124699500Y-104671153D01*
X124699500Y-104828846D01*
X124730261Y-104983489D01*
X124730264Y-104983501D01*
X124790602Y-105129172D01*
X124790609Y-105129185D01*
X124878210Y-105260288D01*
X124878213Y-105260292D01*
X124989707Y-105371786D01*
X124989711Y-105371789D01*
X125120814Y-105459390D01*
X125120827Y-105459397D01*
X125266498Y-105519735D01*
X125266503Y-105519737D01*
X125421153Y-105550499D01*
X125421156Y-105550500D01*
X125421158Y-105550500D01*
X125578844Y-105550500D01*
X125578845Y-105550499D01*
X125733497Y-105519737D01*
X125879179Y-105459394D01*
X126010289Y-105371789D01*
X126121789Y-105260289D01*
X126209394Y-105129179D01*
X126269737Y-104983497D01*
X126298398Y-104839411D01*
X126300638Y-104828150D01*
X126333023Y-104766239D01*
X126334514Y-104764720D01*
X126770520Y-104328716D01*
X126849577Y-104191784D01*
X126890501Y-104039057D01*
X126890501Y-103880942D01*
X126890501Y-103873347D01*
X126890500Y-103873329D01*
X126890500Y-102061967D01*
X126910185Y-101994928D01*
X126941615Y-101961649D01*
X126949548Y-101955884D01*
X127046341Y-101885561D01*
X127175561Y-101756341D01*
X127282976Y-101608497D01*
X127365941Y-101445669D01*
X127382823Y-101393713D01*
X127405057Y-101325281D01*
X127422412Y-101271868D01*
X127451000Y-101091373D01*
X127451000Y-100908627D01*
X127422412Y-100728132D01*
X127378668Y-100593500D01*
X127365942Y-100554333D01*
X127365941Y-100554330D01*
X127288915Y-100403159D01*
X127288914Y-100403155D01*
X127282979Y-100391507D01*
X127270222Y-100373949D01*
X127252832Y-100350013D01*
X139400000Y-100350013D01*
X139400000Y-101000000D01*
X140201518Y-101000000D01*
X140190889Y-101018409D01*
X140150000Y-101171009D01*
X140150000Y-101328991D01*
X140190889Y-101481591D01*
X140201518Y-101500000D01*
X139400001Y-101500000D01*
X139400001Y-102149986D01*
X139410494Y-102252697D01*
X139465641Y-102419119D01*
X139465643Y-102419124D01*
X139557684Y-102568345D01*
X139681654Y-102692315D01*
X139830875Y-102784356D01*
X139830880Y-102784358D01*
X139997302Y-102839505D01*
X139997309Y-102839506D01*
X140100019Y-102849999D01*
X140499999Y-102849999D01*
X140500000Y-102849998D01*
X140500000Y-101798482D01*
X140518409Y-101809111D01*
X140671009Y-101850000D01*
X140828991Y-101850000D01*
X140981591Y-101809111D01*
X141000000Y-101798482D01*
X141000000Y-102849999D01*
X141399972Y-102849999D01*
X141399986Y-102849998D01*
X141502697Y-102839505D01*
X141669119Y-102784358D01*
X141669124Y-102784356D01*
X141818345Y-102692315D01*
X141942317Y-102568343D01*
X142037815Y-102413516D01*
X142089763Y-102366791D01*
X142158725Y-102355568D01*
X142222808Y-102383412D01*
X142231035Y-102390931D01*
X142370213Y-102530109D01*
X142542179Y-102655048D01*
X142542181Y-102655049D01*
X142542184Y-102655051D01*
X142731588Y-102751557D01*
X142933757Y-102817246D01*
X143143713Y-102850500D01*
X143143714Y-102850500D01*
X143356286Y-102850500D01*
X143356287Y-102850500D01*
X143566243Y-102817246D01*
X143768412Y-102751557D01*
X143957816Y-102655051D01*
X143985731Y-102634770D01*
X144129786Y-102530109D01*
X144129788Y-102530106D01*
X144129792Y-102530104D01*
X144280104Y-102379792D01*
X144399683Y-102215204D01*
X144455011Y-102172540D01*
X144524624Y-102166561D01*
X144586420Y-102199166D01*
X144600313Y-102215199D01*
X144685607Y-102332597D01*
X144719896Y-102379792D01*
X144870213Y-102530109D01*
X145042179Y-102655048D01*
X145042181Y-102655049D01*
X145042184Y-102655051D01*
X145231588Y-102751557D01*
X145433757Y-102817246D01*
X145643713Y-102850500D01*
X145643714Y-102850500D01*
X145856286Y-102850500D01*
X145856287Y-102850500D01*
X146066243Y-102817246D01*
X146268412Y-102751557D01*
X146457816Y-102655051D01*
X146485731Y-102634770D01*
X146629786Y-102530109D01*
X146629788Y-102530106D01*
X146629792Y-102530104D01*
X146780104Y-102379792D01*
X146899683Y-102215204D01*
X146955011Y-102172540D01*
X147024624Y-102166561D01*
X147086420Y-102199166D01*
X147100313Y-102215199D01*
X147185607Y-102332597D01*
X147219896Y-102379792D01*
X147370213Y-102530109D01*
X147542179Y-102655048D01*
X147542181Y-102655049D01*
X147542184Y-102655051D01*
X147731588Y-102751557D01*
X147933757Y-102817246D01*
X148143713Y-102850500D01*
X148143714Y-102850500D01*
X148356286Y-102850500D01*
X148356287Y-102850500D01*
X148566243Y-102817246D01*
X148768412Y-102751557D01*
X148957816Y-102655051D01*
X148985731Y-102634770D01*
X149129786Y-102530109D01*
X149129788Y-102530106D01*
X149129792Y-102530104D01*
X149280104Y-102379792D01*
X149280106Y-102379788D01*
X149280109Y-102379786D01*
X149405048Y-102207820D01*
X149405047Y-102207820D01*
X149405051Y-102207816D01*
X149501557Y-102018412D01*
X149567246Y-101816243D01*
X149600500Y-101606287D01*
X149600500Y-100893713D01*
X149567246Y-100683757D01*
X149501557Y-100481588D01*
X149405051Y-100292184D01*
X149405049Y-100292181D01*
X149405048Y-100292179D01*
X149280109Y-100120213D01*
X149129786Y-99969890D01*
X148957820Y-99844951D01*
X148768414Y-99748444D01*
X148768413Y-99748443D01*
X148768412Y-99748443D01*
X148566243Y-99682754D01*
X148566241Y-99682753D01*
X148566240Y-99682753D01*
X148404957Y-99657208D01*
X148356287Y-99649500D01*
X148143713Y-99649500D01*
X148095042Y-99657208D01*
X147933760Y-99682753D01*
X147731581Y-99748445D01*
X147717700Y-99755518D01*
X147649030Y-99768413D01*
X147584291Y-99742135D01*
X147544035Y-99685027D01*
X147541045Y-99615221D01*
X147573725Y-99557352D01*
X147662389Y-99468689D01*
X147749994Y-99337579D01*
X147810337Y-99191897D01*
X147841100Y-99037242D01*
X147841100Y-98879558D01*
X147841100Y-98879555D01*
X147841099Y-98879553D01*
X147837770Y-98862816D01*
X147810337Y-98724903D01*
X147769315Y-98625866D01*
X147749997Y-98579227D01*
X147749990Y-98579214D01*
X147662389Y-98448111D01*
X147662386Y-98448107D01*
X147550892Y-98336613D01*
X147550888Y-98336610D01*
X147419785Y-98249009D01*
X147419772Y-98249002D01*
X147274101Y-98188664D01*
X147274089Y-98188661D01*
X147119445Y-98157900D01*
X147119442Y-98157900D01*
X146961758Y-98157900D01*
X146961755Y-98157900D01*
X146807111Y-98188660D01*
X146807106Y-98188662D01*
X146807104Y-98188662D01*
X146807103Y-98188663D01*
X146783444Y-98198462D01*
X146735996Y-98207900D01*
X144232725Y-98207900D01*
X144208534Y-98205517D01*
X144173066Y-98198462D01*
X144096844Y-98183300D01*
X144096842Y-98183300D01*
X143939158Y-98183300D01*
X143939155Y-98183300D01*
X143784510Y-98214061D01*
X143784498Y-98214064D01*
X143638827Y-98274402D01*
X143638814Y-98274409D01*
X143507711Y-98362010D01*
X143507707Y-98362013D01*
X143396213Y-98473507D01*
X143396210Y-98473511D01*
X143308609Y-98604614D01*
X143308602Y-98604627D01*
X143248264Y-98750298D01*
X143248261Y-98750310D01*
X143217500Y-98904953D01*
X143217500Y-99062646D01*
X143248261Y-99217289D01*
X143248264Y-99217301D01*
X143308602Y-99362972D01*
X143308609Y-99362985D01*
X143371167Y-99456609D01*
X143392045Y-99523287D01*
X143373560Y-99590667D01*
X143321582Y-99637357D01*
X143268065Y-99649500D01*
X143143713Y-99649500D01*
X143095042Y-99657208D01*
X142933760Y-99682753D01*
X142933757Y-99682754D01*
X142737630Y-99746480D01*
X142731585Y-99748444D01*
X142542179Y-99844951D01*
X142370215Y-99969889D01*
X142231035Y-100109069D01*
X142169712Y-100142553D01*
X142100020Y-100137569D01*
X142044087Y-100095697D01*
X142037815Y-100086484D01*
X141942315Y-99931654D01*
X141818345Y-99807684D01*
X141669124Y-99715643D01*
X141669119Y-99715641D01*
X141502697Y-99660494D01*
X141502690Y-99660493D01*
X141399986Y-99650000D01*
X141000000Y-99650000D01*
X141000000Y-100701517D01*
X140981591Y-100690889D01*
X140828991Y-100650000D01*
X140671009Y-100650000D01*
X140518409Y-100690889D01*
X140500000Y-100701517D01*
X140500000Y-99650000D01*
X140100028Y-99650000D01*
X140100012Y-99650001D01*
X139997302Y-99660494D01*
X139830880Y-99715641D01*
X139830875Y-99715643D01*
X139681654Y-99807684D01*
X139557684Y-99931654D01*
X139465643Y-100080875D01*
X139465641Y-100080880D01*
X139410494Y-100247302D01*
X139410493Y-100247309D01*
X139400000Y-100350013D01*
X127252832Y-100350013D01*
X127175561Y-100243659D01*
X127046341Y-100114439D01*
X126898497Y-100007024D01*
X126855616Y-99985175D01*
X126735669Y-99924058D01*
X126735666Y-99924057D01*
X126561869Y-99867588D01*
X126428523Y-99846468D01*
X126381373Y-99839000D01*
X126198627Y-99839000D01*
X126151477Y-99846468D01*
X126018130Y-99867588D01*
X125844333Y-99924057D01*
X125844330Y-99924058D01*
X125681502Y-100007024D01*
X125649729Y-100030109D01*
X125533659Y-100114439D01*
X125533657Y-100114441D01*
X125533656Y-100114441D01*
X125404441Y-100243656D01*
X125404441Y-100243657D01*
X125404439Y-100243659D01*
X125369187Y-100292179D01*
X125297024Y-100391502D01*
X125214058Y-100554330D01*
X125214057Y-100554333D01*
X125157588Y-100728130D01*
X125142473Y-100823563D01*
X125112544Y-100886698D01*
X125053232Y-100923629D01*
X124983370Y-100922631D01*
X124925137Y-100884021D01*
X124897527Y-100823563D01*
X124892556Y-100792179D01*
X124882412Y-100728132D01*
X124838668Y-100593500D01*
X124825942Y-100554333D01*
X124825941Y-100554330D01*
X124748913Y-100403155D01*
X124742976Y-100391503D01*
X124635561Y-100243659D01*
X124506341Y-100114439D01*
X124358497Y-100007024D01*
X124315616Y-99985175D01*
X124195669Y-99924058D01*
X124195666Y-99924057D01*
X124021869Y-99867588D01*
X123888523Y-99846468D01*
X123841373Y-99839000D01*
X123731728Y-99839000D01*
X123664689Y-99819315D01*
X123618934Y-99766511D01*
X123608990Y-99697353D01*
X123638015Y-99633797D01*
X123644047Y-99627319D01*
X126063810Y-97207557D01*
X128582951Y-94688416D01*
X128657538Y-94576788D01*
X128665084Y-94565495D01*
X128721658Y-94428913D01*
X128750500Y-94283918D01*
X128750500Y-91704604D01*
X128759939Y-91657151D01*
X128769737Y-91633497D01*
X128800500Y-91478842D01*
X128800500Y-91321158D01*
X128800500Y-91321155D01*
X128800499Y-91321153D01*
X128769739Y-91166511D01*
X128769738Y-91166508D01*
X128769737Y-91166503D01*
X128759937Y-91142844D01*
X128750500Y-91095396D01*
X128750500Y-86903453D01*
X153923600Y-86903453D01*
X153923600Y-87061146D01*
X153954361Y-87215789D01*
X153954364Y-87215801D01*
X154014702Y-87361472D01*
X154014709Y-87361485D01*
X154102310Y-87492588D01*
X154102313Y-87492592D01*
X154213807Y-87604086D01*
X154213811Y-87604089D01*
X154344914Y-87691690D01*
X154344927Y-87691697D01*
X154490598Y-87752035D01*
X154490603Y-87752037D01*
X154645253Y-87782799D01*
X154645256Y-87782800D01*
X154645258Y-87782800D01*
X154802944Y-87782800D01*
X154802945Y-87782799D01*
X154957597Y-87752037D01*
X155103279Y-87691694D01*
X155234389Y-87604089D01*
X155345889Y-87492589D01*
X155433494Y-87361479D01*
X155443289Y-87337828D01*
X155461100Y-87307720D01*
X155465353Y-87302413D01*
X155522952Y-87244816D01*
X155577178Y-87163659D01*
X155605084Y-87121895D01*
X155636368Y-87046369D01*
X155661659Y-86985312D01*
X155690500Y-86840317D01*
X155690500Y-86692482D01*
X155690500Y-80035204D01*
X155699939Y-79987751D01*
X155709737Y-79964097D01*
X155740500Y-79809442D01*
X155740500Y-79651758D01*
X155740500Y-79651755D01*
X155740499Y-79651753D01*
X155709738Y-79497110D01*
X155709737Y-79497103D01*
X155655135Y-79365281D01*
X155649397Y-79351427D01*
X155649390Y-79351414D01*
X155561789Y-79220311D01*
X155561786Y-79220307D01*
X155450292Y-79108813D01*
X155450288Y-79108810D01*
X155319185Y-79021209D01*
X155319172Y-79021202D01*
X155173501Y-78960864D01*
X155173489Y-78960861D01*
X155018845Y-78930100D01*
X155018842Y-78930100D01*
X154861158Y-78930100D01*
X154861155Y-78930100D01*
X154706510Y-78960861D01*
X154706498Y-78960864D01*
X154560827Y-79021202D01*
X154560814Y-79021209D01*
X154429711Y-79108810D01*
X154429707Y-79108813D01*
X154318213Y-79220307D01*
X154318210Y-79220311D01*
X154230609Y-79351414D01*
X154230602Y-79351427D01*
X154170264Y-79497098D01*
X154170261Y-79497110D01*
X154139500Y-79651753D01*
X154139500Y-79809446D01*
X154170261Y-79964089D01*
X154170263Y-79964097D01*
X154180061Y-79987751D01*
X154189500Y-80035204D01*
X154189500Y-86333459D01*
X154169815Y-86400498D01*
X154153181Y-86421140D01*
X154102313Y-86472007D01*
X154102310Y-86472011D01*
X154014709Y-86603114D01*
X154014702Y-86603127D01*
X153954364Y-86748798D01*
X153954361Y-86748810D01*
X153923600Y-86903453D01*
X128750500Y-86903453D01*
X128750500Y-85366758D01*
X152336100Y-85366758D01*
X152336100Y-85374601D01*
X152336100Y-85524446D01*
X152366861Y-85679089D01*
X152366864Y-85679101D01*
X152427202Y-85824772D01*
X152427209Y-85824785D01*
X152514810Y-85955888D01*
X152514813Y-85955892D01*
X152626307Y-86067386D01*
X152626311Y-86067389D01*
X152757414Y-86154990D01*
X152757427Y-86154997D01*
X152903098Y-86215335D01*
X152903103Y-86215337D01*
X153057753Y-86246099D01*
X153057756Y-86246100D01*
X153057758Y-86246100D01*
X153215444Y-86246100D01*
X153215445Y-86246099D01*
X153370097Y-86215337D01*
X153515779Y-86154994D01*
X153646889Y-86067389D01*
X153758389Y-85955889D01*
X153845994Y-85824779D01*
X153906337Y-85679097D01*
X153937100Y-85524442D01*
X153937100Y-85366758D01*
X153937100Y-85366755D01*
X153937099Y-85366753D01*
X153906339Y-85212111D01*
X153906338Y-85212108D01*
X153906337Y-85212103D01*
X153896537Y-85188444D01*
X153887100Y-85140996D01*
X153887100Y-77819684D01*
X153888644Y-77804008D01*
X153888403Y-77803985D01*
X153889000Y-77797922D01*
X153889000Y-77495204D01*
X153898439Y-77447751D01*
X153908237Y-77424097D01*
X153939000Y-77269442D01*
X153939000Y-77111758D01*
X153939000Y-77111755D01*
X153938999Y-77111753D01*
X153908238Y-76957110D01*
X153908237Y-76957103D01*
X153875957Y-76879172D01*
X153847897Y-76811427D01*
X153847890Y-76811414D01*
X153760289Y-76680311D01*
X153760286Y-76680307D01*
X153648792Y-76568813D01*
X153648788Y-76568810D01*
X153517685Y-76481209D01*
X153517672Y-76481202D01*
X153372001Y-76420864D01*
X153371989Y-76420861D01*
X153217345Y-76390100D01*
X153217342Y-76390100D01*
X153059658Y-76390100D01*
X153059655Y-76390100D01*
X152905010Y-76420861D01*
X152904998Y-76420864D01*
X152759327Y-76481202D01*
X152759314Y-76481209D01*
X152628211Y-76568810D01*
X152628207Y-76568813D01*
X152516713Y-76680307D01*
X152516710Y-76680311D01*
X152429109Y-76811414D01*
X152429102Y-76811427D01*
X152368764Y-76957098D01*
X152368761Y-76957110D01*
X152338000Y-77111753D01*
X152338000Y-77269446D01*
X152368761Y-77424089D01*
X152368763Y-77424097D01*
X152378561Y-77447751D01*
X152380187Y-77455928D01*
X152382977Y-77460269D01*
X152388000Y-77495204D01*
X152388000Y-77630217D01*
X152386455Y-77645895D01*
X152386697Y-77645919D01*
X152386100Y-77651981D01*
X152386100Y-85140996D01*
X152384649Y-85148287D01*
X152383008Y-85168516D01*
X152380679Y-85178747D01*
X152366863Y-85212103D01*
X152336100Y-85366758D01*
X128750500Y-85366758D01*
X128750500Y-83126079D01*
X128721659Y-82981092D01*
X128721658Y-82981091D01*
X128721658Y-82981087D01*
X128697095Y-82921786D01*
X128665087Y-82844511D01*
X128665080Y-82844498D01*
X128582952Y-82721585D01*
X128540539Y-82679172D01*
X128478416Y-82617049D01*
X128341486Y-82480119D01*
X127578421Y-81717052D01*
X127578414Y-81717046D01*
X127504729Y-81667812D01*
X127504729Y-81667813D01*
X127455491Y-81634913D01*
X127318917Y-81578343D01*
X127318907Y-81578340D01*
X127173920Y-81549500D01*
X127173918Y-81549500D01*
X124304604Y-81549500D01*
X124257155Y-81540062D01*
X124233497Y-81530263D01*
X124233493Y-81530262D01*
X124233488Y-81530260D01*
X124078845Y-81499500D01*
X124078842Y-81499500D01*
X123921158Y-81499500D01*
X123921155Y-81499500D01*
X123766510Y-81530261D01*
X123766498Y-81530264D01*
X123620827Y-81590602D01*
X123620814Y-81590609D01*
X123489711Y-81678210D01*
X123489707Y-81678213D01*
X123378213Y-81789707D01*
X123378210Y-81789711D01*
X123290609Y-81920814D01*
X123290602Y-81920827D01*
X123230264Y-82066498D01*
X123230261Y-82066510D01*
X123199500Y-82221153D01*
X123199500Y-82378846D01*
X123230261Y-82533489D01*
X123230264Y-82533501D01*
X123290602Y-82679172D01*
X123290609Y-82679185D01*
X123378210Y-82810288D01*
X123378213Y-82810292D01*
X123489707Y-82921786D01*
X123489711Y-82921789D01*
X123620814Y-83009390D01*
X123620827Y-83009397D01*
X123720060Y-83050500D01*
X123766503Y-83069737D01*
X123921153Y-83100499D01*
X123921156Y-83100500D01*
X123921158Y-83100500D01*
X124078844Y-83100500D01*
X124078845Y-83100499D01*
X124155152Y-83085320D01*
X124233488Y-83069739D01*
X124233489Y-83069738D01*
X124233497Y-83069737D01*
X124257155Y-83059937D01*
X124304604Y-83050500D01*
X126737770Y-83050500D01*
X126804809Y-83070185D01*
X126825451Y-83086819D01*
X127213181Y-83474548D01*
X127246666Y-83535871D01*
X127249500Y-83562229D01*
X127249500Y-86938976D01*
X127229815Y-87006015D01*
X127177011Y-87051770D01*
X127107853Y-87061714D01*
X127051171Y-87036078D01*
X127050282Y-87037303D01*
X127046343Y-87034441D01*
X127046341Y-87034439D01*
X126898497Y-86927024D01*
X126854513Y-86904613D01*
X126735669Y-86844058D01*
X126735666Y-86844057D01*
X126561869Y-86787588D01*
X126449150Y-86769735D01*
X126381373Y-86759000D01*
X126198627Y-86759000D01*
X126138462Y-86768529D01*
X126018130Y-86787588D01*
X125844333Y-86844057D01*
X125844330Y-86844058D01*
X125681502Y-86927024D01*
X125665052Y-86938976D01*
X125533659Y-87034439D01*
X125533657Y-87034441D01*
X125533656Y-87034441D01*
X125461812Y-87106286D01*
X125404439Y-87163659D01*
X125366559Y-87215797D01*
X125297024Y-87311502D01*
X125214058Y-87474330D01*
X125214057Y-87474333D01*
X125157588Y-87648130D01*
X125142473Y-87743563D01*
X125112544Y-87806698D01*
X125053232Y-87843629D01*
X124983370Y-87842631D01*
X124925137Y-87804021D01*
X124897527Y-87743563D01*
X124889312Y-87691697D01*
X124882412Y-87648132D01*
X124854176Y-87561231D01*
X124825942Y-87474333D01*
X124825941Y-87474330D01*
X124745389Y-87316239D01*
X124742976Y-87311503D01*
X124635561Y-87163659D01*
X124506341Y-87034439D01*
X124358497Y-86927024D01*
X124314513Y-86904613D01*
X124195669Y-86844058D01*
X124195666Y-86844057D01*
X124021869Y-86787588D01*
X123909150Y-86769735D01*
X123841373Y-86759000D01*
X123658627Y-86759000D01*
X123598462Y-86768529D01*
X123478130Y-86787588D01*
X123304333Y-86844057D01*
X123304330Y-86844058D01*
X123141502Y-86927024D01*
X123125052Y-86938976D01*
X122993659Y-87034439D01*
X122993657Y-87034441D01*
X122993656Y-87034441D01*
X122921812Y-87106286D01*
X122864439Y-87163659D01*
X122826559Y-87215797D01*
X122757024Y-87311502D01*
X122674058Y-87474330D01*
X122674057Y-87474333D01*
X122617588Y-87648130D01*
X122602473Y-87743563D01*
X122572544Y-87806698D01*
X122513232Y-87843629D01*
X122443370Y-87842631D01*
X122385137Y-87804021D01*
X122357527Y-87743563D01*
X122349312Y-87691697D01*
X122342412Y-87648132D01*
X122314176Y-87561231D01*
X122285942Y-87474333D01*
X122285941Y-87474330D01*
X122205389Y-87316239D01*
X122202976Y-87311503D01*
X122095561Y-87163659D01*
X121966341Y-87034439D01*
X121818497Y-86927024D01*
X121774513Y-86904613D01*
X121655669Y-86844058D01*
X121655666Y-86844057D01*
X121481869Y-86787588D01*
X121369150Y-86769735D01*
X121301373Y-86759000D01*
X121118627Y-86759000D01*
X121058462Y-86768529D01*
X120938130Y-86787588D01*
X120764333Y-86844057D01*
X120764330Y-86844058D01*
X120601502Y-86927024D01*
X120585052Y-86938976D01*
X120453659Y-87034439D01*
X120453657Y-87034441D01*
X120453656Y-87034441D01*
X120381812Y-87106286D01*
X120324439Y-87163659D01*
X120286559Y-87215797D01*
X120217024Y-87311502D01*
X120134058Y-87474330D01*
X120134057Y-87474333D01*
X120077588Y-87648130D01*
X120062473Y-87743563D01*
X120032544Y-87806698D01*
X119973232Y-87843629D01*
X119903370Y-87842631D01*
X119845137Y-87804021D01*
X119817527Y-87743563D01*
X119809312Y-87691697D01*
X119802412Y-87648132D01*
X119774176Y-87561231D01*
X119745942Y-87474333D01*
X119745941Y-87474330D01*
X119665389Y-87316239D01*
X119662976Y-87311503D01*
X119555561Y-87163659D01*
X119426341Y-87034439D01*
X119278497Y-86927024D01*
X119234513Y-86904613D01*
X119115669Y-86844058D01*
X119115666Y-86844057D01*
X118941869Y-86787588D01*
X118829150Y-86769735D01*
X118761373Y-86759000D01*
X118578627Y-86759000D01*
X118518462Y-86768529D01*
X118398130Y-86787588D01*
X118224333Y-86844057D01*
X118224330Y-86844059D01*
X118130796Y-86891717D01*
X118062126Y-86904613D01*
X117997386Y-86878336D01*
X117957129Y-86821230D01*
X117950501Y-86781232D01*
X117950501Y-80190943D01*
X117970186Y-80123904D01*
X118022990Y-80078149D01*
X118092148Y-80068205D01*
X118130797Y-80080459D01*
X118199518Y-80115475D01*
X118373252Y-80171924D01*
X118553668Y-80200500D01*
X118736332Y-80200500D01*
X118916747Y-80171924D01*
X118916748Y-80171924D01*
X119090479Y-80115475D01*
X119253236Y-80032545D01*
X119253243Y-80032541D01*
X119271049Y-80019603D01*
X119271050Y-80019602D01*
X118697947Y-79446500D01*
X118698517Y-79446500D01*
X118801903Y-79418798D01*
X118894597Y-79365281D01*
X118970281Y-79289597D01*
X119023798Y-79196903D01*
X119051500Y-79093517D01*
X119051500Y-79092948D01*
X119624602Y-79666050D01*
X119624603Y-79666049D01*
X119637541Y-79648243D01*
X119637545Y-79648236D01*
X119720475Y-79485479D01*
X119776924Y-79311748D01*
X119776924Y-79311746D01*
X119792273Y-79214839D01*
X119822202Y-79151704D01*
X119881513Y-79114772D01*
X119951375Y-79115770D01*
X120009608Y-79154379D01*
X120037219Y-79214837D01*
X120052588Y-79311869D01*
X120109057Y-79485666D01*
X120109058Y-79485669D01*
X120170516Y-79606286D01*
X120192024Y-79648497D01*
X120299439Y-79796341D01*
X120428659Y-79925561D01*
X120576503Y-80032976D01*
X120645644Y-80068205D01*
X120739330Y-80115941D01*
X120739333Y-80115942D01*
X120826231Y-80144176D01*
X120913132Y-80172412D01*
X121093627Y-80201000D01*
X121093628Y-80201000D01*
X121276372Y-80201000D01*
X121276373Y-80201000D01*
X121456868Y-80172412D01*
X121630669Y-80115941D01*
X121793497Y-80032976D01*
X121941341Y-79925561D01*
X122070561Y-79796341D01*
X122177976Y-79648497D01*
X122260941Y-79485669D01*
X122317412Y-79311868D01*
X122332527Y-79216435D01*
X122362456Y-79153301D01*
X122421768Y-79116370D01*
X122491630Y-79117368D01*
X122549863Y-79155978D01*
X122577472Y-79216435D01*
X122584964Y-79263734D01*
X122592588Y-79311869D01*
X122649057Y-79485666D01*
X122649058Y-79485669D01*
X122710516Y-79606286D01*
X122732024Y-79648497D01*
X122839439Y-79796341D01*
X122968659Y-79925561D01*
X123116503Y-80032976D01*
X123185644Y-80068205D01*
X123279330Y-80115941D01*
X123279333Y-80115942D01*
X123366231Y-80144176D01*
X123453132Y-80172412D01*
X123633627Y-80201000D01*
X123633628Y-80201000D01*
X123816372Y-80201000D01*
X123816373Y-80201000D01*
X123996868Y-80172412D01*
X124170669Y-80115941D01*
X124333497Y-80032976D01*
X124481341Y-79925561D01*
X124610561Y-79796341D01*
X124717976Y-79648497D01*
X124800941Y-79485669D01*
X124857412Y-79311868D01*
X124872527Y-79216435D01*
X124902456Y-79153301D01*
X124961768Y-79116370D01*
X125031630Y-79117368D01*
X125089863Y-79155978D01*
X125117472Y-79216435D01*
X125124964Y-79263734D01*
X125132588Y-79311869D01*
X125189057Y-79485666D01*
X125189058Y-79485669D01*
X125250516Y-79606286D01*
X125272024Y-79648497D01*
X125379439Y-79796341D01*
X125508659Y-79925561D01*
X125656503Y-80032976D01*
X125725644Y-80068205D01*
X125819330Y-80115941D01*
X125819333Y-80115942D01*
X125906231Y-80144176D01*
X125993132Y-80172412D01*
X126173627Y-80201000D01*
X126173628Y-80201000D01*
X126356372Y-80201000D01*
X126356373Y-80201000D01*
X126536868Y-80172412D01*
X126710669Y-80115941D01*
X126873497Y-80032976D01*
X127021341Y-79925561D01*
X127150561Y-79796341D01*
X127257976Y-79648497D01*
X127340941Y-79485669D01*
X127397412Y-79311868D01*
X127426000Y-79131373D01*
X127426000Y-78948627D01*
X127397412Y-78768132D01*
X127349349Y-78620208D01*
X127340942Y-78594333D01*
X127340941Y-78594330D01*
X127298667Y-78511365D01*
X127257976Y-78431503D01*
X127150561Y-78283659D01*
X127021341Y-78154439D01*
X126873497Y-78047024D01*
X126710669Y-77964058D01*
X126710666Y-77964057D01*
X126536869Y-77907588D01*
X126419863Y-77889056D01*
X126356373Y-77879000D01*
X126173627Y-77879000D01*
X126113462Y-77888529D01*
X125993130Y-77907588D01*
X125819333Y-77964057D01*
X125819330Y-77964058D01*
X125656502Y-78047024D01*
X125572152Y-78108308D01*
X125508659Y-78154439D01*
X125508657Y-78154441D01*
X125508656Y-78154441D01*
X125379441Y-78283656D01*
X125379441Y-78283657D01*
X125379439Y-78283659D01*
X125334909Y-78344949D01*
X125272024Y-78431502D01*
X125189058Y-78594330D01*
X125189057Y-78594333D01*
X125132588Y-78768130D01*
X125117473Y-78863563D01*
X125087544Y-78926698D01*
X125028232Y-78963629D01*
X124958370Y-78962631D01*
X124900137Y-78924021D01*
X124872527Y-78863563D01*
X124872466Y-78863179D01*
X124857412Y-78768132D01*
X124809349Y-78620208D01*
X124800942Y-78594333D01*
X124800941Y-78594330D01*
X124758667Y-78511365D01*
X124717976Y-78431503D01*
X124610561Y-78283659D01*
X124481341Y-78154439D01*
X124333497Y-78047024D01*
X124170669Y-77964058D01*
X124170666Y-77964057D01*
X123996869Y-77907588D01*
X123879863Y-77889056D01*
X123816373Y-77879000D01*
X123633627Y-77879000D01*
X123573462Y-77888529D01*
X123453130Y-77907588D01*
X123279333Y-77964057D01*
X123279330Y-77964058D01*
X123116502Y-78047024D01*
X123032152Y-78108308D01*
X122968659Y-78154439D01*
X122968657Y-78154441D01*
X122968656Y-78154441D01*
X122839441Y-78283656D01*
X122839441Y-78283657D01*
X122839439Y-78283659D01*
X122794909Y-78344949D01*
X122732024Y-78431502D01*
X122649058Y-78594330D01*
X122649057Y-78594333D01*
X122592588Y-78768130D01*
X122577473Y-78863563D01*
X122547544Y-78926698D01*
X122488232Y-78963629D01*
X122418370Y-78962631D01*
X122360137Y-78924021D01*
X122332527Y-78863563D01*
X122332466Y-78863179D01*
X122317412Y-78768132D01*
X122269349Y-78620208D01*
X122260942Y-78594333D01*
X122260941Y-78594330D01*
X122218667Y-78511365D01*
X122177976Y-78431503D01*
X122070561Y-78283659D01*
X121941341Y-78154439D01*
X121793497Y-78047024D01*
X121630669Y-77964058D01*
X121630666Y-77964057D01*
X121456869Y-77907588D01*
X121339863Y-77889056D01*
X121276373Y-77879000D01*
X121093627Y-77879000D01*
X121033462Y-77888529D01*
X120913130Y-77907588D01*
X120739333Y-77964057D01*
X120739330Y-77964058D01*
X120576502Y-78047024D01*
X120492152Y-78108308D01*
X120428659Y-78154439D01*
X120428657Y-78154441D01*
X120428656Y-78154441D01*
X120299441Y-78283656D01*
X120299441Y-78283657D01*
X120299439Y-78283659D01*
X120254909Y-78344949D01*
X120192024Y-78431502D01*
X120109058Y-78594330D01*
X120109057Y-78594333D01*
X120052588Y-78768130D01*
X120037219Y-78865162D01*
X120007289Y-78928296D01*
X119947977Y-78965227D01*
X119878115Y-78964229D01*
X119819882Y-78925618D01*
X119792273Y-78865160D01*
X119776925Y-78768253D01*
X119776924Y-78768251D01*
X119720475Y-78594520D01*
X119637551Y-78431773D01*
X119637543Y-78431760D01*
X119624602Y-78413949D01*
X119624602Y-78413948D01*
X119051500Y-78987051D01*
X119051500Y-78986483D01*
X119023798Y-78883097D01*
X118970281Y-78790403D01*
X118894597Y-78714719D01*
X118801903Y-78661202D01*
X118698517Y-78633500D01*
X118697946Y-78633500D01*
X119271050Y-78060396D01*
X119271049Y-78060395D01*
X119253237Y-78047454D01*
X119090479Y-77964524D01*
X118916747Y-77908075D01*
X118736332Y-77879500D01*
X118553668Y-77879500D01*
X118373252Y-77908075D01*
X118373251Y-77908075D01*
X118199520Y-77964524D01*
X118130796Y-77999541D01*
X118062127Y-78012437D01*
X117997386Y-77986161D01*
X117957129Y-77929054D01*
X117950501Y-77889056D01*
X117950501Y-72116227D01*
X144949500Y-72116227D01*
X144949500Y-72273920D01*
X144980261Y-72428563D01*
X144980264Y-72428575D01*
X145040602Y-72574246D01*
X145040609Y-72574259D01*
X145128602Y-72705948D01*
X145149480Y-72772625D01*
X145149500Y-72774839D01*
X145149500Y-75920234D01*
X145129815Y-75987273D01*
X145128602Y-75989125D01*
X145040609Y-76120814D01*
X145040602Y-76120827D01*
X144980264Y-76266498D01*
X144980261Y-76266510D01*
X144949500Y-76421153D01*
X144949500Y-76578846D01*
X144980261Y-76733489D01*
X144980264Y-76733501D01*
X145040602Y-76879172D01*
X145040609Y-76879185D01*
X145128210Y-77010288D01*
X145128213Y-77010292D01*
X145239707Y-77121786D01*
X145239711Y-77121789D01*
X145370814Y-77209390D01*
X145370827Y-77209397D01*
X145515800Y-77269446D01*
X145516503Y-77269737D01*
X145671153Y-77300499D01*
X145671156Y-77300500D01*
X145671158Y-77300500D01*
X145828844Y-77300500D01*
X145828845Y-77300499D01*
X145983497Y-77269737D01*
X146129179Y-77209394D01*
X146260289Y-77121789D01*
X146371789Y-77010289D01*
X146459394Y-76879179D01*
X146519737Y-76733497D01*
X146550500Y-76578842D01*
X146550500Y-76421158D01*
X146550500Y-76421155D01*
X146550499Y-76421153D01*
X146534258Y-76339505D01*
X146519737Y-76266503D01*
X146489008Y-76192315D01*
X146459397Y-76120827D01*
X146459390Y-76120814D01*
X146371398Y-75989125D01*
X146350520Y-75922447D01*
X146350500Y-75920234D01*
X146350500Y-72774839D01*
X146370185Y-72707800D01*
X146371398Y-72705948D01*
X146459390Y-72574259D01*
X146459390Y-72574258D01*
X146459394Y-72574253D01*
X146519737Y-72428571D01*
X146550500Y-72273916D01*
X146550500Y-72116232D01*
X146550500Y-72116229D01*
X146550499Y-72116227D01*
X146534678Y-72036689D01*
X146519737Y-71961577D01*
X146494024Y-71899500D01*
X146459397Y-71815901D01*
X146459390Y-71815888D01*
X146371789Y-71684785D01*
X146371786Y-71684781D01*
X146260292Y-71573287D01*
X146260288Y-71573284D01*
X146129185Y-71485683D01*
X146129172Y-71485676D01*
X145983501Y-71425338D01*
X145983489Y-71425335D01*
X145828845Y-71394574D01*
X145828842Y-71394574D01*
X145671158Y-71394574D01*
X145671155Y-71394574D01*
X145516510Y-71425335D01*
X145516498Y-71425338D01*
X145370827Y-71485676D01*
X145370814Y-71485683D01*
X145239711Y-71573284D01*
X145239707Y-71573287D01*
X145128213Y-71684781D01*
X145128210Y-71684785D01*
X145040609Y-71815888D01*
X145040602Y-71815901D01*
X144980264Y-71961572D01*
X144980261Y-71961584D01*
X144949500Y-72116227D01*
X117950501Y-72116227D01*
X117950501Y-67111505D01*
X117970186Y-67044466D01*
X118022990Y-66998711D01*
X118092148Y-66988767D01*
X118130797Y-67001021D01*
X118199326Y-67035939D01*
X118199333Y-67035942D01*
X118225568Y-67044466D01*
X118373132Y-67092412D01*
X118553627Y-67121000D01*
X118553628Y-67121000D01*
X118736372Y-67121000D01*
X118736373Y-67121000D01*
X118916868Y-67092412D01*
X119090669Y-67035941D01*
X119253497Y-66952976D01*
X119401341Y-66845561D01*
X119530561Y-66716341D01*
X119637976Y-66568497D01*
X119720941Y-66405669D01*
X119777412Y-66231868D01*
X119792527Y-66136435D01*
X119822456Y-66073301D01*
X119881768Y-66036370D01*
X119951630Y-66037368D01*
X120009863Y-66075978D01*
X120037473Y-66136436D01*
X120052588Y-66231869D01*
X120109057Y-66405666D01*
X120109058Y-66405669D01*
X120156864Y-66499492D01*
X120192024Y-66568497D01*
X120299439Y-66716341D01*
X120428659Y-66845561D01*
X120576503Y-66952976D01*
X120646747Y-66988767D01*
X120739330Y-67035941D01*
X120739333Y-67035942D01*
X120765568Y-67044466D01*
X120913132Y-67092412D01*
X121093627Y-67121000D01*
X121093628Y-67121000D01*
X121276372Y-67121000D01*
X121276373Y-67121000D01*
X121456868Y-67092412D01*
X121630669Y-67035941D01*
X121793497Y-66952976D01*
X121941341Y-66845561D01*
X122070561Y-66716341D01*
X122177976Y-66568497D01*
X122260941Y-66405669D01*
X122317412Y-66231868D01*
X122332527Y-66136435D01*
X122362456Y-66073301D01*
X122421768Y-66036370D01*
X122491630Y-66037368D01*
X122549863Y-66075978D01*
X122577473Y-66136436D01*
X122592588Y-66231869D01*
X122649057Y-66405666D01*
X122649058Y-66405669D01*
X122696864Y-66499492D01*
X122732024Y-66568497D01*
X122839439Y-66716341D01*
X122968659Y-66845561D01*
X123116503Y-66952976D01*
X123186747Y-66988767D01*
X123279330Y-67035941D01*
X123279333Y-67035942D01*
X123305568Y-67044466D01*
X123453132Y-67092412D01*
X123633627Y-67121000D01*
X123633628Y-67121000D01*
X123816372Y-67121000D01*
X123816373Y-67121000D01*
X123996868Y-67092412D01*
X124170669Y-67035941D01*
X124333497Y-66952976D01*
X124481341Y-66845561D01*
X124610561Y-66716341D01*
X124717976Y-66568497D01*
X124800941Y-66405669D01*
X124857412Y-66231868D01*
X124872527Y-66136435D01*
X124902456Y-66073301D01*
X124961768Y-66036370D01*
X125031630Y-66037368D01*
X125089863Y-66075978D01*
X125117473Y-66136436D01*
X125132588Y-66231869D01*
X125189057Y-66405666D01*
X125189058Y-66405669D01*
X125236864Y-66499492D01*
X125272024Y-66568497D01*
X125379439Y-66716341D01*
X125508659Y-66845561D01*
X125656503Y-66952976D01*
X125726747Y-66988767D01*
X125819330Y-67035941D01*
X125819333Y-67035942D01*
X125845568Y-67044466D01*
X125993132Y-67092412D01*
X126173627Y-67121000D01*
X126173628Y-67121000D01*
X126356372Y-67121000D01*
X126356373Y-67121000D01*
X126536868Y-67092412D01*
X126710669Y-67035941D01*
X126873497Y-66952976D01*
X127021341Y-66845561D01*
X127150561Y-66716341D01*
X127257976Y-66568497D01*
X127340941Y-66405669D01*
X127397412Y-66231868D01*
X127426000Y-66051373D01*
X127426000Y-65868627D01*
X127397412Y-65688132D01*
X127340941Y-65514331D01*
X127340941Y-65514330D01*
X127276929Y-65388700D01*
X127257976Y-65351503D01*
X127150561Y-65203659D01*
X127021341Y-65074439D01*
X126873497Y-64967024D01*
X126710669Y-64884058D01*
X126710666Y-64884057D01*
X126536869Y-64827588D01*
X126416315Y-64808494D01*
X126356373Y-64799000D01*
X126173627Y-64799000D01*
X126155425Y-64801883D01*
X125993130Y-64827588D01*
X125819333Y-64884057D01*
X125819330Y-64884058D01*
X125656502Y-64967024D01*
X125572152Y-65028308D01*
X125508659Y-65074439D01*
X125508657Y-65074441D01*
X125508656Y-65074441D01*
X125379441Y-65203656D01*
X125379441Y-65203657D01*
X125379439Y-65203659D01*
X125345803Y-65249955D01*
X125272024Y-65351502D01*
X125189058Y-65514330D01*
X125189057Y-65514333D01*
X125132588Y-65688130D01*
X125117473Y-65783563D01*
X125087544Y-65846698D01*
X125028232Y-65883629D01*
X124958370Y-65882631D01*
X124900137Y-65844021D01*
X124872527Y-65783563D01*
X124868114Y-65755703D01*
X124857412Y-65688132D01*
X124800941Y-65514331D01*
X124800941Y-65514330D01*
X124736929Y-65388700D01*
X124717976Y-65351503D01*
X124610561Y-65203659D01*
X124481341Y-65074439D01*
X124333497Y-64967024D01*
X124170669Y-64884058D01*
X124170666Y-64884057D01*
X123996869Y-64827588D01*
X123876315Y-64808494D01*
X123816373Y-64799000D01*
X123633627Y-64799000D01*
X123615425Y-64801883D01*
X123453130Y-64827588D01*
X123279333Y-64884057D01*
X123279330Y-64884058D01*
X123116502Y-64967024D01*
X123032152Y-65028308D01*
X122968659Y-65074439D01*
X122968657Y-65074441D01*
X122968656Y-65074441D01*
X122839441Y-65203656D01*
X122839441Y-65203657D01*
X122839439Y-65203659D01*
X122805803Y-65249955D01*
X122732024Y-65351502D01*
X122649058Y-65514330D01*
X122649057Y-65514333D01*
X122592588Y-65688130D01*
X122577473Y-65783563D01*
X122547544Y-65846698D01*
X122488232Y-65883629D01*
X122418370Y-65882631D01*
X122360137Y-65844021D01*
X122332527Y-65783563D01*
X122328114Y-65755703D01*
X122317412Y-65688132D01*
X122260941Y-65514331D01*
X122260941Y-65514330D01*
X122196929Y-65388700D01*
X122177976Y-65351503D01*
X122070561Y-65203659D01*
X121941341Y-65074439D01*
X121793497Y-64967024D01*
X121630669Y-64884058D01*
X121630666Y-64884057D01*
X121456869Y-64827588D01*
X121336315Y-64808494D01*
X121276373Y-64799000D01*
X121093627Y-64799000D01*
X121075425Y-64801883D01*
X120913130Y-64827588D01*
X120739333Y-64884057D01*
X120739330Y-64884058D01*
X120576502Y-64967024D01*
X120492152Y-65028308D01*
X120428659Y-65074439D01*
X120428657Y-65074441D01*
X120428656Y-65074441D01*
X120299441Y-65203656D01*
X120299441Y-65203657D01*
X120299439Y-65203659D01*
X120265803Y-65249955D01*
X120192024Y-65351502D01*
X120109058Y-65514330D01*
X120109057Y-65514333D01*
X120052588Y-65688130D01*
X120037473Y-65783563D01*
X120007544Y-65846698D01*
X119948232Y-65883629D01*
X119878370Y-65882631D01*
X119820137Y-65844021D01*
X119792527Y-65783563D01*
X119788114Y-65755703D01*
X119777412Y-65688132D01*
X119720941Y-65514331D01*
X119720941Y-65514330D01*
X119656929Y-65388700D01*
X119637976Y-65351503D01*
X119530561Y-65203659D01*
X119401341Y-65074439D01*
X119253497Y-64967024D01*
X119090669Y-64884058D01*
X119090666Y-64884057D01*
X118916869Y-64827588D01*
X118796315Y-64808494D01*
X118736373Y-64799000D01*
X118553627Y-64799000D01*
X118535425Y-64801883D01*
X118373130Y-64827588D01*
X118199333Y-64884057D01*
X118199330Y-64884059D01*
X118130796Y-64918979D01*
X118062126Y-64931875D01*
X117997386Y-64905598D01*
X117957129Y-64848492D01*
X117950501Y-64808494D01*
X117950501Y-59702155D01*
X118946800Y-59702155D01*
X118946800Y-60500000D01*
X120013788Y-60500000D01*
X119980875Y-60557007D01*
X119946800Y-60684174D01*
X119946800Y-60815826D01*
X119980875Y-60942993D01*
X120013788Y-61000000D01*
X118946800Y-61000000D01*
X118946800Y-61797844D01*
X118953201Y-61857372D01*
X118953203Y-61857379D01*
X119003445Y-61992086D01*
X119003449Y-61992093D01*
X119089609Y-62107187D01*
X119089612Y-62107190D01*
X119204706Y-62193350D01*
X119204713Y-62193354D01*
X119339420Y-62243596D01*
X119339427Y-62243598D01*
X119398955Y-62249999D01*
X119398972Y-62250000D01*
X120196800Y-62250000D01*
X120196800Y-61183012D01*
X120253807Y-61215925D01*
X120380974Y-61250000D01*
X120512626Y-61250000D01*
X120639793Y-61215925D01*
X120696800Y-61183012D01*
X120696800Y-62250000D01*
X121494628Y-62250000D01*
X121494644Y-62249999D01*
X121554172Y-62243598D01*
X121554179Y-62243596D01*
X121688886Y-62193354D01*
X121688893Y-62193350D01*
X121803987Y-62107190D01*
X121803990Y-62107187D01*
X121890150Y-61992093D01*
X121890154Y-61992086D01*
X121940396Y-61857379D01*
X121940398Y-61857372D01*
X121946799Y-61797844D01*
X121946800Y-61797827D01*
X121946800Y-61000000D01*
X120879812Y-61000000D01*
X120912725Y-60942993D01*
X120946800Y-60815826D01*
X120946800Y-60684174D01*
X120912725Y-60557007D01*
X120879812Y-60500000D01*
X121946800Y-60500000D01*
X121946800Y-59702172D01*
X121946799Y-59702155D01*
X121940398Y-59642627D01*
X121940396Y-59642620D01*
X121890154Y-59507913D01*
X121890150Y-59507906D01*
X121803990Y-59392812D01*
X121803987Y-59392809D01*
X121688893Y-59306649D01*
X121688886Y-59306645D01*
X121554179Y-59256403D01*
X121554172Y-59256401D01*
X121494644Y-59250000D01*
X120696800Y-59250000D01*
X120696800Y-60316988D01*
X120639793Y-60284075D01*
X120512626Y-60250000D01*
X120380974Y-60250000D01*
X120253807Y-60284075D01*
X120196800Y-60316988D01*
X120196800Y-59250000D01*
X119398955Y-59250000D01*
X119339427Y-59256401D01*
X119339420Y-59256403D01*
X119204713Y-59306645D01*
X119204706Y-59306649D01*
X119089612Y-59392809D01*
X119089609Y-59392812D01*
X119003449Y-59507906D01*
X119003445Y-59507913D01*
X118953203Y-59642620D01*
X118953201Y-59642627D01*
X118946800Y-59702155D01*
X117950501Y-59702155D01*
X117950501Y-52454428D01*
X117950817Y-52445582D01*
X117956626Y-52364364D01*
X117965131Y-52245437D01*
X117967647Y-52227939D01*
X118009357Y-52036200D01*
X118014334Y-52019249D01*
X118082912Y-51835386D01*
X118090259Y-51819301D01*
X118184295Y-51647084D01*
X118193851Y-51632215D01*
X118311444Y-51475129D01*
X118323018Y-51461772D01*
X118461772Y-51323018D01*
X118475129Y-51311444D01*
X118632215Y-51193851D01*
X118647084Y-51184295D01*
X118819304Y-51090257D01*
X118835386Y-51082912D01*
X119019249Y-51014334D01*
X119036200Y-51009357D01*
X119227939Y-50967647D01*
X119245437Y-50965131D01*
X119445583Y-50950817D01*
X119454429Y-50950501D01*
X119515893Y-50950501D01*
X128800902Y-50950501D01*
X128867941Y-50970186D01*
G37*
%TD.AperFunction*%
%TA.AperFunction,Conductor*%
G36*
X125056630Y-87997368D02*
G01*
X125114863Y-88035978D01*
X125142473Y-88096436D01*
X125157588Y-88191869D01*
X125214057Y-88365666D01*
X125214058Y-88365669D01*
X125297024Y-88528497D01*
X125404439Y-88676341D01*
X125533659Y-88805561D01*
X125681503Y-88912976D01*
X125726747Y-88936029D01*
X125844330Y-88995941D01*
X125844333Y-88995942D01*
X125931231Y-89024176D01*
X126018132Y-89052412D01*
X126198627Y-89081000D01*
X126198628Y-89081000D01*
X126381372Y-89081000D01*
X126381373Y-89081000D01*
X126561868Y-89052412D01*
X126735669Y-88995941D01*
X126898497Y-88912976D01*
X127046341Y-88805561D01*
X127046343Y-88805558D01*
X127050282Y-88802697D01*
X127051190Y-88803946D01*
X127108721Y-88778163D01*
X127177808Y-88788596D01*
X127230287Y-88834723D01*
X127249500Y-88901023D01*
X127249500Y-91095396D01*
X127240062Y-91142844D01*
X127230263Y-91166503D01*
X127230262Y-91166506D01*
X127230260Y-91166511D01*
X127199500Y-91321153D01*
X127199500Y-91478846D01*
X127230261Y-91633489D01*
X127230263Y-91633497D01*
X127240061Y-91657151D01*
X127249500Y-91704604D01*
X127249500Y-93847769D01*
X127229815Y-93914808D01*
X127213181Y-93935450D01*
X121345950Y-99802681D01*
X121284627Y-99836166D01*
X121258269Y-99839000D01*
X121118627Y-99839000D01*
X121071477Y-99846468D01*
X120938130Y-99867588D01*
X120764333Y-99924057D01*
X120764330Y-99924058D01*
X120601502Y-100007024D01*
X120569729Y-100030109D01*
X120453659Y-100114439D01*
X120453657Y-100114441D01*
X120453656Y-100114441D01*
X120324441Y-100243656D01*
X120324441Y-100243657D01*
X120324439Y-100243659D01*
X120289187Y-100292179D01*
X120217024Y-100391502D01*
X120134058Y-100554330D01*
X120134057Y-100554333D01*
X120077588Y-100728130D01*
X120062219Y-100825162D01*
X120032289Y-100888296D01*
X119972977Y-100925227D01*
X119903115Y-100924229D01*
X119844882Y-100885618D01*
X119817273Y-100825160D01*
X119801925Y-100728253D01*
X119801924Y-100728251D01*
X119745475Y-100554520D01*
X119662551Y-100391773D01*
X119662543Y-100391760D01*
X119649602Y-100373949D01*
X119649602Y-100373948D01*
X119076500Y-100947051D01*
X119076500Y-100946483D01*
X119048798Y-100843097D01*
X118995281Y-100750403D01*
X118919597Y-100674719D01*
X118826903Y-100621202D01*
X118723517Y-100593500D01*
X118722946Y-100593500D01*
X119296050Y-100020396D01*
X119296049Y-100020395D01*
X119278237Y-100007454D01*
X119115479Y-99924524D01*
X118941747Y-99868075D01*
X118761332Y-99839500D01*
X118578668Y-99839500D01*
X118398252Y-99868075D01*
X118398251Y-99868075D01*
X118224520Y-99924524D01*
X118130796Y-99972279D01*
X118062126Y-99985175D01*
X117997386Y-99958899D01*
X117957129Y-99901792D01*
X117950501Y-99861794D01*
X117950501Y-90599153D01*
X123786500Y-90599153D01*
X123786500Y-90756846D01*
X123817261Y-90911489D01*
X123817264Y-90911501D01*
X123877602Y-91057172D01*
X123877609Y-91057185D01*
X123965602Y-91188874D01*
X123986480Y-91255551D01*
X123986500Y-91257765D01*
X123986500Y-93146234D01*
X123966815Y-93213273D01*
X123965602Y-93215125D01*
X123877609Y-93346814D01*
X123877602Y-93346827D01*
X123817264Y-93492498D01*
X123817261Y-93492510D01*
X123786500Y-93647153D01*
X123786500Y-93804846D01*
X123817261Y-93959489D01*
X123817264Y-93959501D01*
X123877602Y-94105172D01*
X123877609Y-94105185D01*
X123965210Y-94236288D01*
X123965213Y-94236292D01*
X124076707Y-94347786D01*
X124076711Y-94347789D01*
X124207814Y-94435390D01*
X124207827Y-94435397D01*
X124353498Y-94495735D01*
X124353503Y-94495737D01*
X124508153Y-94526499D01*
X124508156Y-94526500D01*
X124508158Y-94526500D01*
X124665844Y-94526500D01*
X124665845Y-94526499D01*
X124820497Y-94495737D01*
X124966179Y-94435394D01*
X124966184Y-94435390D01*
X124971546Y-94432525D01*
X124972670Y-94434629D01*
X125029283Y-94416901D01*
X125090787Y-94433771D01*
X125091454Y-94432525D01*
X125096825Y-94435396D01*
X125242498Y-94495735D01*
X125242503Y-94495737D01*
X125397153Y-94526499D01*
X125397156Y-94526500D01*
X125397158Y-94526500D01*
X125554844Y-94526500D01*
X125554845Y-94526499D01*
X125709497Y-94495737D01*
X125855179Y-94435394D01*
X125986289Y-94347789D01*
X126097789Y-94236289D01*
X126185394Y-94105179D01*
X126193086Y-94086610D01*
X126245735Y-93959501D01*
X126245737Y-93959497D01*
X126276500Y-93804842D01*
X126276500Y-93647158D01*
X126276500Y-93647155D01*
X126276499Y-93647153D01*
X126245738Y-93492510D01*
X126245737Y-93492503D01*
X126217036Y-93423211D01*
X126185397Y-93346827D01*
X126185390Y-93346814D01*
X126097398Y-93215125D01*
X126076520Y-93148447D01*
X126076500Y-93146234D01*
X126076500Y-91257765D01*
X126096185Y-91190726D01*
X126097398Y-91188874D01*
X126185390Y-91057185D01*
X126185390Y-91057184D01*
X126185394Y-91057179D01*
X126245737Y-90911497D01*
X126276500Y-90756842D01*
X126276500Y-90599158D01*
X126276500Y-90599155D01*
X126276499Y-90599153D01*
X126245738Y-90444510D01*
X126245737Y-90444503D01*
X126235312Y-90419334D01*
X126185397Y-90298827D01*
X126185390Y-90298814D01*
X126097789Y-90167711D01*
X126097786Y-90167707D01*
X125986292Y-90056213D01*
X125986288Y-90056210D01*
X125855185Y-89968609D01*
X125855172Y-89968602D01*
X125709501Y-89908264D01*
X125709489Y-89908261D01*
X125554845Y-89877500D01*
X125554842Y-89877500D01*
X125397158Y-89877500D01*
X125397155Y-89877500D01*
X125242510Y-89908261D01*
X125242498Y-89908264D01*
X125096822Y-89968604D01*
X125091451Y-89971476D01*
X125090329Y-89969377D01*
X125033679Y-89987099D01*
X124972220Y-89970219D01*
X124971549Y-89971476D01*
X124966177Y-89968604D01*
X124820501Y-89908264D01*
X124820489Y-89908261D01*
X124665845Y-89877500D01*
X124665842Y-89877500D01*
X124508158Y-89877500D01*
X124508155Y-89877500D01*
X124353510Y-89908261D01*
X124353498Y-89908264D01*
X124207827Y-89968602D01*
X124207814Y-89968609D01*
X124076711Y-90056210D01*
X124076707Y-90056213D01*
X123965213Y-90167707D01*
X123965210Y-90167711D01*
X123877609Y-90298814D01*
X123877602Y-90298827D01*
X123817264Y-90444498D01*
X123817261Y-90444510D01*
X123786500Y-90599153D01*
X117950501Y-90599153D01*
X117950501Y-89058767D01*
X117970186Y-88991728D01*
X118022990Y-88945973D01*
X118092148Y-88936029D01*
X118130796Y-88948283D01*
X118224320Y-88995936D01*
X118224333Y-88995942D01*
X118311231Y-89024176D01*
X118398132Y-89052412D01*
X118578627Y-89081000D01*
X118578628Y-89081000D01*
X118761372Y-89081000D01*
X118761373Y-89081000D01*
X118941868Y-89052412D01*
X119115669Y-88995941D01*
X119278497Y-88912976D01*
X119426341Y-88805561D01*
X119555561Y-88676341D01*
X119662976Y-88528497D01*
X119745941Y-88365669D01*
X119802412Y-88191868D01*
X119817527Y-88096435D01*
X119847456Y-88033301D01*
X119906768Y-87996370D01*
X119976630Y-87997368D01*
X120034863Y-88035978D01*
X120062473Y-88096436D01*
X120077588Y-88191869D01*
X120134057Y-88365666D01*
X120134058Y-88365669D01*
X120217024Y-88528497D01*
X120324439Y-88676341D01*
X120453659Y-88805561D01*
X120601503Y-88912976D01*
X120646747Y-88936029D01*
X120764330Y-88995941D01*
X120764333Y-88995942D01*
X120851231Y-89024176D01*
X120938132Y-89052412D01*
X121118627Y-89081000D01*
X121118628Y-89081000D01*
X121301372Y-89081000D01*
X121301373Y-89081000D01*
X121481868Y-89052412D01*
X121655669Y-88995941D01*
X121818497Y-88912976D01*
X121966341Y-88805561D01*
X122095561Y-88676341D01*
X122202976Y-88528497D01*
X122285941Y-88365669D01*
X122342412Y-88191868D01*
X122357527Y-88096435D01*
X122387456Y-88033301D01*
X122446768Y-87996370D01*
X122516630Y-87997368D01*
X122574863Y-88035978D01*
X122602473Y-88096436D01*
X122617588Y-88191869D01*
X122674057Y-88365666D01*
X122674058Y-88365669D01*
X122757024Y-88528497D01*
X122864439Y-88676341D01*
X122993659Y-88805561D01*
X123141503Y-88912976D01*
X123186747Y-88936029D01*
X123304330Y-88995941D01*
X123304333Y-88995942D01*
X123391231Y-89024176D01*
X123478132Y-89052412D01*
X123658627Y-89081000D01*
X123658628Y-89081000D01*
X123841372Y-89081000D01*
X123841373Y-89081000D01*
X124021868Y-89052412D01*
X124195669Y-88995941D01*
X124358497Y-88912976D01*
X124506341Y-88805561D01*
X124635561Y-88676341D01*
X124742976Y-88528497D01*
X124825941Y-88365669D01*
X124882412Y-88191868D01*
X124897527Y-88096435D01*
X124927456Y-88033301D01*
X124986768Y-87996370D01*
X125056630Y-87997368D01*
G37*
%TD.AperFunction*%
%TA.AperFunction,Conductor*%
G36*
X124212268Y-53358715D02*
G01*
X124239364Y-53321422D01*
X124319234Y-53164669D01*
X124367208Y-53113872D01*
X124435029Y-53097077D01*
X124501164Y-53119614D01*
X124540203Y-53164667D01*
X124620213Y-53321694D01*
X124737019Y-53482464D01*
X124877536Y-53622981D01*
X125038306Y-53739787D01*
X125127224Y-53785093D01*
X125194780Y-53819515D01*
X125245576Y-53867490D01*
X125262371Y-53935311D01*
X125239833Y-54001446D01*
X125194780Y-54040485D01*
X125038305Y-54120213D01*
X124877533Y-54237021D01*
X124737021Y-54377533D01*
X124620213Y-54538305D01*
X124540485Y-54694780D01*
X124492510Y-54745576D01*
X124424689Y-54762371D01*
X124358554Y-54739833D01*
X124319515Y-54694780D01*
X124239786Y-54538305D01*
X124122981Y-54377536D01*
X123982464Y-54237019D01*
X123821694Y-54120213D01*
X123664667Y-54040203D01*
X123613872Y-53992229D01*
X123597077Y-53924408D01*
X123619614Y-53858273D01*
X123664669Y-53819234D01*
X123821422Y-53739364D01*
X123858716Y-53712268D01*
X123295942Y-53149494D01*
X123356081Y-53133381D01*
X123471920Y-53066502D01*
X123566502Y-52971920D01*
X123633381Y-52856081D01*
X123649495Y-52795942D01*
X124212268Y-53358715D01*
G37*
%TD.AperFunction*%
%TD*%
M02*
