M48
; DRILL file {KiCad 9.0.4} date 2026-01-09T21:21:17-0600
; FORMAT={-:-/ absolute / inch / decimal}
; #@! TF.CreationDate,2026-01-09T21:21:17-06:00
; #@! TF.GenerationSoftware,Kicad,Pcbnew,9.0.4
; #@! TF.FileFunction,Plated,1,2,PTH
FMAT,2
INCH
; #@! TA.AperFunction,Plated,PTH,ViaDrill
T1C0.0118
; #@! TA.AperFunction,Plated,PTH,ComponentDrill
T2C0.0276
; #@! TA.AperFunction,Plated,PTH,ComponentDrill
T3C0.0394
; #@! TA.AperFunction,Plated,PTH,ComponentDrill
T4C0.0472
; #@! TA.AperFunction,Plated,PTH,ComponentDrill
T5C0.1260
%
G90
G05
T1
X4.1693Y-2.8976
X4.1693Y-3.0098
X4.1693Y-3.1181
X4.1713Y-3.3268
X4.1713Y-3.439
X4.1713Y-3.5472
X4.1732Y-2.313
X4.1732Y-2.4252
X4.1732Y-2.5335
X4.1831Y-1.6535
X4.1831Y-1.752
X4.1831Y-1.8307
X4.248Y-2.8976
X4.248Y-3.0098
X4.248Y-3.1181
X4.25Y-3.3268
X4.25Y-3.439
X4.25Y-3.5472
X4.252Y-2.313
X4.252Y-2.4252
X4.252Y-2.5335
X4.3268Y-2.8976
X4.3268Y-3.0098
X4.3268Y-3.1181
X4.3287Y-3.3268
X4.3287Y-3.439
X4.3287Y-3.5472
X4.3307Y-2.313
X4.3307Y-2.4252
X4.3307Y-2.5335
X4.3878Y-1.9213
X4.4193Y-3.439
X4.4193Y-3.5512
X4.4193Y-3.6594
X4.4291Y-2.9449
X4.4902Y-2.7008
X4.498Y-1.6437
X4.498Y-1.752
X4.498Y-1.8602
X4.498Y-1.9094
X4.498Y-1.9587
X4.498Y-2.0965
X4.498Y-3.439
X4.498Y-3.5512
X4.498Y-3.6594
X4.5413Y-2.7224
X4.5571Y-1.9094
X4.5571Y-1.9587
X4.5571Y-2.0965
X4.5571Y-2.1555
X4.5768Y-3.439
X4.5768Y-3.5512
X4.5768Y-3.6594
X4.6004Y-2.5748
X4.6063Y-2.7323
X4.6142Y-2.5335
X4.6142Y-2.8504
X4.6161Y-1.9587
X4.6161Y-2.0965
X4.6161Y-2.1555
X4.624Y-2.7972
X4.6752Y-2.5
X4.7244Y-2.4409
X4.7461Y-3.7362
X4.7461Y-3.815
X4.7461Y-3.8937
X4.752Y-3.2677
X4.753Y-2.5886
X4.7539Y-2.5
X4.7539Y-2.7657
X4.7539Y-2.874
X4.7539Y-2.9626
X4.7539Y-3.0709
X4.7539Y-3.1614
X4.7638Y-1.6437
X4.7638Y-1.752
X4.7933Y-2.185
X4.7933Y-2.2736
X4.7933Y-2.3524
X4.7943Y-2.5463
X4.811Y-1.872
X4.8327Y-2.5886
X4.8327Y-2.6673
X4.8327Y-2.7657
X4.8327Y-2.874
X4.8327Y-2.9626
X4.8327Y-3.0709
X4.8327Y-3.1594
X4.8327Y-3.2697
X4.8583Y-3.7362
X4.8583Y-3.815
X4.8583Y-3.8937
X4.872Y-2.185
X4.872Y-2.2736
X4.872Y-2.3524
X4.9114Y-2.5886
X4.9114Y-2.6673
X4.9114Y-2.7657
X4.9114Y-2.874
X4.9114Y-2.9626
X4.9114Y-3.0709
X4.9114Y-3.1594
X4.9114Y-3.2677
X4.9665Y-3.7362
X4.9665Y-3.815
X4.9665Y-3.8937
X4.9902Y-2.313
X4.9902Y-2.6673
X4.9902Y-2.7657
X4.9902Y-2.874
X4.9902Y-2.9626
X4.9902Y-3.0709
X4.9902Y-3.1594
X4.9902Y-3.2677
X5.0098Y-1.6437
X5.0098Y-1.752
X5.0295Y-2.3524
X5.0354Y-2.0473
X5.0591Y-1.6437
X5.0591Y-1.752
X5.0689Y-2.6673
X5.0689Y-2.7657
X5.0689Y-2.874
X5.0689Y-2.9626
X5.0689Y-3.0709
X5.0689Y-3.1594
X5.0689Y-3.2677
X5.0787Y-1.8484
X5.086Y-1.9331
X5.145Y-1.9331
X5.1476Y-2.6673
X5.1476Y-2.7657
X5.1476Y-2.874
X5.1476Y-2.9626
X5.1476Y-3.0709
X5.1476Y-3.1594
X5.1476Y-3.2677
X5.1909Y-3.5472
X5.1909Y-3.626
X5.1909Y-3.7047
X5.1969Y-2.2165
X5.1969Y-2.3426
X5.2067Y-3.1929
X5.2087Y-3.2697
X5.2087Y-3.3425
X5.2106Y-3.0689
X5.2165Y-2.6673
X5.2165Y-2.7461
X5.2165Y-2.9606
X5.2461Y-2.2205
X5.2559Y-1.9331
X5.2657Y-2.4311
X5.2736Y-3.3445
X5.2756Y-3.1902
X5.2756Y-3.2717
X5.2756Y-3.3996
X5.2874Y-1.9921
X5.2953Y-2.0768
X5.2953Y-2.6673
X5.2953Y-2.7461
X5.3031Y-3.5472
X5.3031Y-3.626
X5.3031Y-3.7047
X5.315Y-1.9291
X5.3307Y-2.1417
X5.3543Y-3.1902
X5.3661Y-1.8819
X5.3839Y-2.5984
X5.3839Y-2.6575
X5.3937Y-2.1732
X5.4114Y-3.5472
X5.4114Y-3.626
X5.4331Y-3.1902
X5.4606Y-2.7953
X5.4626Y-2.5984
X5.4626Y-2.6575
X5.4685Y-2.1811
X5.5315Y-3.0728
X5.5315Y-3.3366
X5.5551Y-2.1496
X5.5699Y-2.2746
X5.5709Y-2.8543
X5.624Y-2.0906
X5.6398Y-1.939
X5.6398Y-2.0177
X5.6398Y-2.7756
X5.6614Y-3.0079
X5.6614Y-3.3661
X5.6988Y-2.0177
X5.75Y-3.2776
X5.75Y-3.3661
X5.75Y-3.4547
X5.7539Y-2.9173
X5.7539Y-3.0059
X5.7539Y-3.0945
X5.7579Y-1.939
X5.7579Y-2.0177
T2
X4.8583Y-2.4695
T3
X5.7244Y-2.1309
X5.7244Y-2.2309
X5.7244Y-2.3309
X5.7244Y-2.4309
X5.7244Y-2.5309
X5.7244Y-2.6309
T4
X4.4823Y-3.8514
X4.5315Y-2.813
X4.5315Y-2.9114
X4.5315Y-3.0098
X4.5315Y-3.1083
X4.5315Y-3.2067
X4.5331Y-2.2402
X4.5331Y-2.3386
X4.5331Y-2.437
X4.5331Y-2.5354
X4.5331Y-2.6339
X4.6732Y-3.5551
X4.7717Y-3.5551
X4.8701Y-3.5551
X4.9685Y-3.5551
X5.0669Y-3.5551
X5.2783Y-2.9035
X5.2783Y-3.002
X5.2783Y-3.1004
X5.3768Y-2.9035
X5.3768Y-3.002
X5.3768Y-3.1004
X5.3783Y-3.2776
X5.3783Y-3.376
X5.3783Y-3.4744
T5
X4.2402Y-2.0181
X4.2406Y-3.8476
X5.4508Y-2.0181
X5.4508Y-3.8476
M30
