%TF.GenerationSoftware,KiCad,Pcbnew,9.0.4*%
%TF.CreationDate,2026-01-09T21:21:17-06:00*%
%TF.ProjectId,Sus-RH,5375732d-5248-42e6-9b69-6361645f7063,rev?*%
%TF.SameCoordinates,Original*%
%TF.FileFunction,Copper,L1,Top*%
%TF.FilePolarity,Positive*%
%FSLAX46Y46*%
G04 Gerber Fmt 4.6, Leading zero omitted, Abs format (unit mm)*
G04 Created by KiCad (PCBNEW 9.0.4) date 2026-01-09 21:21:17*
%MOMM*%
%LPD*%
G01*
G04 APERTURE LIST*
G04 Aperture macros list*
%AMRoundRect*
0 Rectangle with rounded corners*
0 $1 Rounding radius*
0 $2 $3 $4 $5 $6 $7 $8 $9 X,Y pos of 4 corners*
0 Add a 4 corners polygon primitive as box body*
4,1,4,$2,$3,$4,$5,$6,$7,$8,$9,$2,$3,0*
0 Add four circle primitives for the rounded corners*
1,1,$1+$1,$2,$3*
1,1,$1+$1,$4,$5*
1,1,$1+$1,$6,$7*
1,1,$1+$1,$8,$9*
0 Add four rect primitives between the rounded corners*
20,1,$1+$1,$2,$3,$4,$5,0*
20,1,$1+$1,$4,$5,$6,$7,0*
20,1,$1+$1,$6,$7,$8,$9,0*
20,1,$1+$1,$8,$9,$2,$3,0*%
G04 Aperture macros list end*
%TA.AperFunction,SMDPad,CuDef*%
%ADD10RoundRect,0.237500X-0.237500X0.287500X-0.237500X-0.287500X0.237500X-0.287500X0.237500X0.287500X0*%
%TD*%
%TA.AperFunction,SMDPad,CuDef*%
%ADD11RoundRect,0.237500X0.237500X-0.287500X0.237500X0.287500X-0.237500X0.287500X-0.237500X-0.287500X0*%
%TD*%
%TA.AperFunction,SMDPad,CuDef*%
%ADD12RoundRect,0.237500X0.237500X-0.250000X0.237500X0.250000X-0.237500X0.250000X-0.237500X-0.250000X0*%
%TD*%
%TA.AperFunction,ComponentPad*%
%ADD13R,2.500000X2.500000*%
%TD*%
%TA.AperFunction,SMDPad,CuDef*%
%ADD14R,1.460500X0.558800*%
%TD*%
%TA.AperFunction,SMDPad,CuDef*%
%ADD15RoundRect,0.237500X0.250000X0.237500X-0.250000X0.237500X-0.250000X-0.237500X0.250000X-0.237500X0*%
%TD*%
%TA.AperFunction,SMDPad,CuDef*%
%ADD16R,0.550000X1.800000*%
%TD*%
%TA.AperFunction,ComponentPad*%
%ADD17C,3.600000*%
%TD*%
%TA.AperFunction,ConnectorPad*%
%ADD18C,6.400000*%
%TD*%
%TA.AperFunction,ComponentPad*%
%ADD19R,1.700000X1.700000*%
%TD*%
%TA.AperFunction,ComponentPad*%
%ADD20C,1.700000*%
%TD*%
%TA.AperFunction,SMDPad,CuDef*%
%ADD21RoundRect,0.237500X-0.300000X-0.237500X0.300000X-0.237500X0.300000X0.237500X-0.300000X0.237500X0*%
%TD*%
%TA.AperFunction,SMDPad,CuDef*%
%ADD22RoundRect,0.237500X-0.237500X0.250000X-0.237500X-0.250000X0.237500X-0.250000X0.237500X0.250000X0*%
%TD*%
%TA.AperFunction,ComponentPad*%
%ADD23R,1.500000X1.500000*%
%TD*%
%TA.AperFunction,ComponentPad*%
%ADD24RoundRect,0.250000X-0.600000X-0.600000X0.600000X-0.600000X0.600000X0.600000X-0.600000X0.600000X0*%
%TD*%
%TA.AperFunction,ComponentPad*%
%ADD25RoundRect,0.250000X-0.850000X-0.600000X0.850000X-0.600000X0.850000X0.600000X-0.850000X0.600000X0*%
%TD*%
%TA.AperFunction,ComponentPad*%
%ADD26O,2.200000X1.700000*%
%TD*%
%TA.AperFunction,ComponentPad*%
%ADD27RoundRect,0.250000X0.850000X0.600000X-0.850000X0.600000X-0.850000X-0.600000X0.850000X-0.600000X0*%
%TD*%
%TA.AperFunction,ComponentPad*%
%ADD28RoundRect,0.250000X-0.600000X0.850000X-0.600000X-0.850000X0.600000X-0.850000X0.600000X0.850000X0*%
%TD*%
%TA.AperFunction,ComponentPad*%
%ADD29O,1.700000X2.200000*%
%TD*%
%TA.AperFunction,ViaPad*%
%ADD30C,0.600000*%
%TD*%
%TA.AperFunction,Conductor*%
%ADD31C,0.200000*%
%TD*%
%TA.AperFunction,Conductor*%
%ADD32C,0.500000*%
%TD*%
G04 APERTURE END LIST*
D10*
%TO.P,D6,1,K*%
%TO.N,GND*%
X110000000Y-41750000D03*
%TO.P,D6,2,A*%
%TO.N,Net-(D6-A)*%
X110000000Y-43500000D03*
%TD*%
D11*
%TO.P,F1,1*%
%TO.N,Net-(J5-Pin_4)*%
X141500000Y-78750000D03*
%TO.P,F1,2*%
%TO.N,+3.3V*%
X141500000Y-77000000D03*
%TD*%
D12*
%TO.P,R14,1*%
%TO.N,Net-(U1B--)*%
X129275000Y-63007500D03*
%TO.P,R14,2*%
%TO.N,/linpot_adj*%
X129275000Y-61182500D03*
%TD*%
%TO.P,R8,1*%
%TO.N,/Debug1*%
X132500000Y-46868750D03*
%TO.P,R8,2*%
%TO.N,Net-(D8-A)*%
X132500000Y-45043750D03*
%TD*%
%TO.P,R12,1*%
%TO.N,VDDA*%
X126250000Y-63000000D03*
%TO.P,R12,2*%
%TO.N,Net-(U1B--)*%
X126250000Y-61175000D03*
%TD*%
D10*
%TO.P,D4,1,K*%
%TO.N,GND*%
X112500000Y-41750000D03*
%TO.P,D4,2,A*%
%TO.N,Net-(D4-A)*%
X112500000Y-43500000D03*
%TD*%
D13*
%TO.P,GND1,1,1*%
%TO.N,GND*%
X113850000Y-97825000D03*
%TD*%
D14*
%TO.P,U1,1*%
%TO.N,/linpot_out*%
X136624150Y-64505000D03*
%TO.P,U1,2,-*%
X136624150Y-63235000D03*
%TO.P,U1,3,+*%
%TO.N,Net-(U1A-+)*%
X136624150Y-61965000D03*
%TO.P,U1,4,V-*%
%TO.N,GNDA*%
X136624150Y-60695000D03*
%TO.P,U1,5,+*%
%TO.N,/linpot_out*%
X131175850Y-60695000D03*
%TO.P,U1,6,-*%
%TO.N,Net-(U1B--)*%
X131175850Y-61965000D03*
%TO.P,U1,7*%
%TO.N,/linpot_adj*%
X131175850Y-63235000D03*
%TO.P,U1,8,V+*%
%TO.N,VDDA*%
X131175850Y-64505000D03*
%TD*%
D10*
%TO.P,F2,1*%
%TO.N,Net-(J6-Pin_3)*%
X139250000Y-83250000D03*
%TO.P,F2,2*%
%TO.N,+3.3V*%
X139250000Y-85000000D03*
%TD*%
D12*
%TO.P,R6,1*%
%TO.N,+3.3V*%
X110000000Y-46912500D03*
%TO.P,R6,2*%
%TO.N,Net-(D6-A)*%
X110000000Y-45087500D03*
%TD*%
D10*
%TO.P,D2,1,K*%
%TO.N,GND*%
X125625000Y-41662500D03*
%TO.P,D2,2,A*%
%TO.N,Net-(D2-A)*%
X125625000Y-43412500D03*
%TD*%
D15*
%TO.P,R16,1*%
%TO.N,GND*%
X118862500Y-81550000D03*
%TO.P,R16,2*%
%TO.N,Net-(J4-Pin_5)*%
X117037500Y-81550000D03*
%TD*%
D16*
%TO.P,J7,1,GND*%
%TO.N,GND*%
X127870000Y-49110000D03*
%TO.P,J7,2,+3.3v*%
%TO.N,+3.3V*%
X127870000Y-53410000D03*
%TO.P,J7,3,GND*%
%TO.N,GND*%
X127070000Y-49110000D03*
%TO.P,J7,4,I2C1_SDA*%
%TO.N,/SDA*%
X127070000Y-53410000D03*
%TO.P,J7,5,GND*%
%TO.N,GND*%
X126270000Y-49110000D03*
%TO.P,J7,6,I2C1_SCL*%
%TO.N,/SCL*%
X126270000Y-53410000D03*
%TO.P,J7,7,OPAMP1_VINP*%
%TO.N,unconnected-(J7-OPAMP1_VINP-Pad7)*%
X125470000Y-49110000D03*
%TO.P,J7,8,VDDA*%
%TO.N,VDDA*%
X125470000Y-53410000D03*
%TO.P,J7,9,ADC1_IN7*%
%TO.N,/linpot_adj*%
X124670000Y-49110000D03*
%TO.P,J7,10,GNDA*%
%TO.N,GNDA*%
X124670000Y-53410000D03*
%TO.P,J7,11,ADC1_IN9*%
%TO.N,/linpot_out*%
X123870003Y-49110000D03*
%TO.P,J7,12,SPI2_NSS*%
%TO.N,/IR_INTER*%
X123870003Y-53410000D03*
%TO.P,J7,13,ADC1_IN10*%
%TO.N,/Debug1*%
X123070000Y-49110000D03*
%TO.P,J7,14,SPI2_MISO*%
%TO.N,unconnected-(J7-SPI2_MISO-Pad14)*%
X123070000Y-53410000D03*
%TO.P,J7,15,ADC1_IN11*%
%TO.N,/Debug2*%
X122270000Y-49110000D03*
%TO.P,J7,16,SPI2_MOSI*%
%TO.N,unconnected-(J7-SPI2_MOSI-Pad16)*%
X122270000Y-53410000D03*
%TO.P,J7,17,SPI1_MOSI*%
%TO.N,/RHConfig*%
X121470000Y-49110000D03*
%TO.P,J7,18,SPI2_SCK*%
%TO.N,unconnected-(J7-SPI2_SCK-Pad18)*%
X121470000Y-53410000D03*
%TO.P,J7,19,SPI1_NSS*%
%TO.N,/SusConfig*%
X120670000Y-49110000D03*
%TO.P,J7,20,CAN_L*%
%TO.N,/CAN_-*%
X120670000Y-53410000D03*
%TO.P,J7,21,SPI1_MISO*%
%TO.N,/LINPOT_STATUS*%
X119870000Y-49110000D03*
%TO.P,J7,22,CAN_H*%
%TO.N,/CAN_+*%
X119870000Y-53410000D03*
%TO.P,J7,23,SPI1_SCK*%
%TO.N,/RH_STATUS*%
X119070000Y-49110000D03*
%TO.P,J7,24,+24V_In*%
%TO.N,+24V*%
X119070000Y-53410000D03*
D17*
%TO.P,J7,25,MNT*%
%TO.N,unconnected-(J7-MNT-Pad25)_2*%
X107700000Y-51260000D03*
D18*
%TO.N,unconnected-(J7-MNT-Pad25)*%
X107700000Y-51260000D03*
D17*
%TO.P,J7,26,MNT*%
%TO.N,unconnected-(J7-MNT-Pad26)_1*%
X138450000Y-51260000D03*
D18*
%TO.N,unconnected-(J7-MNT-Pad26)_2*%
X138450000Y-51260000D03*
D17*
%TO.P,J7,27,MNT*%
%TO.N,unconnected-(J7-MNT-Pad27)_2*%
X138450000Y-97730000D03*
D18*
%TO.N,unconnected-(J7-MNT-Pad27)*%
X138450000Y-97730000D03*
D17*
%TO.P,J7,28,MNT*%
%TO.N,unconnected-(J7-MNT-Pad28)_1*%
X107710000Y-97730000D03*
D18*
%TO.N,unconnected-(J7-MNT-Pad28)_2*%
X107710000Y-97730000D03*
%TD*%
D19*
%TO.P,J1,1,Pin_1*%
%TO.N,GND*%
X145400000Y-54125000D03*
D20*
%TO.P,J1,2,Pin_2*%
%TO.N,/IR_INTER*%
X145400000Y-56665000D03*
%TO.P,J1,3,Pin_3*%
%TO.N,/linpot_adj*%
X145400000Y-59205000D03*
%TO.P,J1,4,Pin_4*%
%TO.N,/linpot_in*%
X145400000Y-61745000D03*
%TO.P,J1,5,Pin_5*%
%TO.N,/SDA*%
X145400000Y-64285000D03*
%TO.P,J1,6,Pin_6*%
%TO.N,/SCL*%
X145400000Y-66825000D03*
%TD*%
D21*
%TO.P,C1,1*%
%TO.N,VDDA*%
X130912500Y-66095000D03*
%TO.P,C1,2*%
%TO.N,GNDA*%
X132637500Y-66095000D03*
%TD*%
D10*
%TO.P,D7,1,K*%
%TO.N,GND*%
X130000000Y-41750000D03*
%TO.P,D7,2,A*%
%TO.N,Net-(D7-A)*%
X130000000Y-43500000D03*
%TD*%
D15*
%TO.P,R15,1*%
%TO.N,GND*%
X119312500Y-66950000D03*
%TO.P,R15,2*%
%TO.N,Net-(J3-Pin_5)*%
X117487500Y-66950000D03*
%TD*%
D12*
%TO.P,R13,1*%
%TO.N,Net-(U1B--)*%
X127750000Y-63000000D03*
%TO.P,R13,2*%
%TO.N,GND*%
X127750000Y-61175000D03*
%TD*%
D15*
%TO.P,R9,1*%
%TO.N,+3.3V*%
X141575000Y-75500000D03*
%TO.P,R9,2*%
%TO.N,/SCL*%
X139750000Y-75500000D03*
%TD*%
D12*
%TO.P,R4,1*%
%TO.N,+24V*%
X112500000Y-46912500D03*
%TO.P,R4,2*%
%TO.N,Net-(D4-A)*%
X112500000Y-45087500D03*
%TD*%
D22*
%TO.P,R17,1*%
%TO.N,GND*%
X128700000Y-86100000D03*
%TO.P,R17,2*%
%TO.N,Net-(J2-Pin_5)*%
X128700000Y-87925000D03*
%TD*%
D10*
%TO.P,D1,1,K*%
%TO.N,GND*%
X123125000Y-41662500D03*
%TO.P,D1,2,A*%
%TO.N,Net-(D1-A)*%
X123125000Y-43412500D03*
%TD*%
D12*
%TO.P,R7,1*%
%TO.N,/Debug2*%
X130000000Y-46912500D03*
%TO.P,R7,2*%
%TO.N,Net-(D7-A)*%
X130000000Y-45087500D03*
%TD*%
D21*
%TO.P,C2,1*%
%TO.N,Net-(U1A-+)*%
X138387500Y-63500000D03*
%TO.P,C2,2*%
%TO.N,GND*%
X140112500Y-63500000D03*
%TD*%
D12*
%TO.P,R2,1*%
%TO.N,/SusConfig*%
X125625000Y-46825000D03*
%TO.P,R2,2*%
%TO.N,Net-(D2-A)*%
X125625000Y-45000000D03*
%TD*%
%TO.P,R3,1*%
%TO.N,/RH_STATUS*%
X116250000Y-46887500D03*
%TO.P,R3,2*%
%TO.N,Net-(D3-A)*%
X116250000Y-45062500D03*
%TD*%
%TO.P,R1,1*%
%TO.N,/RHConfig*%
X123125000Y-46825000D03*
%TO.P,R1,2*%
%TO.N,Net-(D1-A)*%
X123125000Y-45000000D03*
%TD*%
D10*
%TO.P,D5,1,K*%
%TO.N,GND*%
X118750000Y-41687500D03*
%TO.P,D5,2,A*%
%TO.N,Net-(D5-A)*%
X118750000Y-43437500D03*
%TD*%
%TO.P,D3,1,K*%
%TO.N,GND*%
X116250000Y-41687500D03*
%TO.P,D3,2,A*%
%TO.N,Net-(D3-A)*%
X116250000Y-43437500D03*
%TD*%
D23*
%TO.P,GNDA1,1,1*%
%TO.N,GNDA*%
X123400000Y-62725000D03*
%TD*%
D15*
%TO.P,R10,1*%
%TO.N,+3.3V*%
X141575000Y-74000000D03*
%TO.P,R10,2*%
%TO.N,/SDA*%
X139750000Y-74000000D03*
%TD*%
D10*
%TO.P,D8,1,K*%
%TO.N,GND*%
X132500000Y-41706250D03*
%TO.P,D8,2,A*%
%TO.N,Net-(D8-A)*%
X132500000Y-43456250D03*
%TD*%
D12*
%TO.P,R5,1*%
%TO.N,/LINPOT_STATUS*%
X118750000Y-46887500D03*
%TO.P,R5,2*%
%TO.N,Net-(D5-A)*%
X118750000Y-45062500D03*
%TD*%
D15*
%TO.P,R11,1*%
%TO.N,/linpot_in*%
X140187500Y-62000000D03*
%TO.P,R11,2*%
%TO.N,Net-(U1A-+)*%
X138362500Y-62000000D03*
%TD*%
D24*
%TO.P,J5,1,Pin_1*%
%TO.N,GND*%
X134070000Y-78750000D03*
D20*
%TO.P,J5,2,Pin_2*%
X134070000Y-76250000D03*
%TO.P,J5,3,Pin_3*%
%TO.N,/SDA*%
X134070000Y-73750000D03*
%TO.P,J5,4,Pin_4*%
%TO.N,Net-(J5-Pin_4)*%
X136570000Y-78750000D03*
%TO.P,J5,5,Pin_5*%
%TO.N,/SCL*%
X136570000Y-76250000D03*
%TO.P,J5,6,Pin_6*%
%TO.N,/IR_INTER*%
X136570000Y-73750000D03*
%TD*%
D25*
%TO.P,J6,1,Pin_1*%
%TO.N,/linpot_in*%
X136610000Y-88250000D03*
D26*
%TO.P,J6,2,Pin_2*%
%TO.N,GND*%
X136610000Y-85750000D03*
%TO.P,J6,3,Pin_3*%
%TO.N,Net-(J6-Pin_3)*%
X136610000Y-83250000D03*
%TD*%
D27*
%TO.P,J4,1,Pin_1*%
%TO.N,+24V*%
X115100000Y-71450000D03*
D26*
%TO.P,J4,2,Pin_2*%
%TO.N,/CAN_+*%
X115100000Y-73950000D03*
%TO.P,J4,3,Pin_3*%
%TO.N,/CAN_-*%
X115100000Y-76450000D03*
%TO.P,J4,4,Pin_4*%
%TO.N,GND*%
X115100000Y-78950000D03*
%TO.P,J4,5,Pin_5*%
%TO.N,Net-(J4-Pin_5)*%
X115100000Y-81450000D03*
%TD*%
D27*
%TO.P,J3,1,Pin_1*%
%TO.N,+24V*%
X115140000Y-56900000D03*
D26*
%TO.P,J3,2,Pin_2*%
%TO.N,/CAN_+*%
X115140000Y-59400000D03*
%TO.P,J3,3,Pin_3*%
%TO.N,/CAN_-*%
X115140000Y-61900000D03*
%TO.P,J3,4,Pin_4*%
%TO.N,GND*%
X115140000Y-64400000D03*
%TO.P,J3,5,Pin_5*%
%TO.N,Net-(J3-Pin_5)*%
X115140000Y-66900000D03*
%TD*%
D28*
%TO.P,J2,1,Pin_1*%
%TO.N,+24V*%
X118700000Y-90300000D03*
D29*
%TO.P,J2,2,Pin_2*%
%TO.N,/CAN_+*%
X121200000Y-90300000D03*
%TO.P,J2,3,Pin_3*%
%TO.N,/CAN_-*%
X123700000Y-90300000D03*
%TO.P,J2,4,Pin_4*%
%TO.N,GND*%
X126200000Y-90300000D03*
%TO.P,J2,5,Pin_5*%
%TO.N,Net-(J2-Pin_5)*%
X128700000Y-90300000D03*
%TD*%
D30*
%TO.N,GND*%
X132500000Y-75200000D03*
X123400000Y-96900000D03*
X127250000Y-41750000D03*
X117250000Y-49750000D03*
X110000000Y-61600000D03*
X106000000Y-58750000D03*
X124750000Y-83000000D03*
X132500000Y-69750000D03*
X135000000Y-49000000D03*
X116250000Y-92950000D03*
X120750000Y-73000000D03*
X141100000Y-54600000D03*
X143250000Y-49250000D03*
X116250000Y-90200000D03*
X109900000Y-73600000D03*
X143800000Y-76400000D03*
X107900000Y-79200000D03*
X115750000Y-54750000D03*
X122750000Y-80250000D03*
X116250000Y-87350000D03*
X124750000Y-80250000D03*
X107900000Y-76450000D03*
X106250000Y-44500000D03*
X130750000Y-80250000D03*
X134000000Y-81030000D03*
X132250000Y-81100000D03*
X146250000Y-49250000D03*
X146150000Y-74100000D03*
X115750000Y-49750000D03*
X138750000Y-67500000D03*
X126750000Y-67750000D03*
X122750000Y-78000000D03*
X118750000Y-63500000D03*
X105950000Y-87350000D03*
X120700000Y-83000000D03*
X137450000Y-90100000D03*
X137450000Y-92100000D03*
X122750000Y-75250000D03*
X114250000Y-41750000D03*
X134500000Y-67750000D03*
X122750000Y-83050000D03*
X105950000Y-84500000D03*
X135400000Y-54400000D03*
X121000000Y-44500000D03*
X131850000Y-90100000D03*
X126750000Y-58750000D03*
X136000000Y-81030000D03*
X132500000Y-67750000D03*
X138000000Y-81030000D03*
X106000000Y-64350000D03*
X126750000Y-78000000D03*
X109950000Y-87350000D03*
X124750000Y-75250000D03*
X128500000Y-44500000D03*
X130750000Y-73000000D03*
X106000000Y-61600000D03*
X117450000Y-71050000D03*
X131850000Y-92100000D03*
X126150000Y-96900000D03*
X143250000Y-51250000D03*
X128750000Y-70250000D03*
X109950000Y-84500000D03*
X110000000Y-58750000D03*
X114250000Y-47250000D03*
X108000000Y-58750000D03*
X110000000Y-64350000D03*
X124750000Y-78000000D03*
X109950000Y-90100000D03*
X128750000Y-73000000D03*
X122750000Y-70250000D03*
X121750000Y-55500000D03*
X134300000Y-50600000D03*
X123750000Y-57750000D03*
X120725000Y-65750000D03*
X108000000Y-61600000D03*
X136300000Y-47800000D03*
X132300000Y-83050000D03*
X108000000Y-64350000D03*
X114250000Y-44500000D03*
X136750000Y-66000000D03*
X127250000Y-44500000D03*
X114250000Y-90200000D03*
X134700000Y-90100000D03*
X133500000Y-49100000D03*
X123400000Y-94900000D03*
X114250000Y-87350000D03*
X112250000Y-92950000D03*
X105900000Y-76450000D03*
X134500000Y-69750000D03*
X107950000Y-90100000D03*
X126150000Y-98900000D03*
X124750000Y-65750000D03*
X123750000Y-55500000D03*
X115750000Y-48500000D03*
X134700000Y-94100000D03*
X117200000Y-64350000D03*
X117200000Y-72400000D03*
X124750000Y-70250000D03*
X126750000Y-70250000D03*
X123750000Y-59750000D03*
X129183600Y-49101000D03*
X130750000Y-83000000D03*
X120750000Y-80300000D03*
X126750000Y-83000000D03*
X122750000Y-67750000D03*
X146050000Y-83250000D03*
X121750000Y-57750000D03*
X120750000Y-75250000D03*
X130750000Y-70250000D03*
X117000000Y-69400000D03*
X143800000Y-85500000D03*
X144750000Y-51250000D03*
X146150000Y-78600000D03*
X132350000Y-77950000D03*
X115350000Y-69150000D03*
X146250000Y-51250000D03*
X120750000Y-70250000D03*
X120550000Y-96900000D03*
X120750000Y-63500000D03*
X112250000Y-90200000D03*
X127750000Y-59750000D03*
X114250000Y-92950000D03*
X120550000Y-94900000D03*
X124750000Y-73000000D03*
X122750000Y-65750000D03*
X121750000Y-59750000D03*
X106250000Y-42000000D03*
X132300000Y-84900000D03*
X128750000Y-80250000D03*
X130750000Y-78000000D03*
X134700000Y-92100000D03*
X128750000Y-67750000D03*
X126150000Y-94900000D03*
X107900000Y-73600000D03*
X128750000Y-83000000D03*
X120550000Y-98900000D03*
X128750000Y-75250000D03*
X115750000Y-53250000D03*
X137000000Y-55200000D03*
X146050000Y-87750000D03*
X117250000Y-54750000D03*
X121775000Y-64675000D03*
X106250000Y-46500000D03*
X128750000Y-78000000D03*
X120000000Y-62000000D03*
X109900000Y-79200000D03*
X131850000Y-94100000D03*
X114250000Y-48500000D03*
X134000000Y-83100000D03*
X138750000Y-66000000D03*
X136750000Y-67500000D03*
X122750000Y-73000000D03*
X138900000Y-55400000D03*
X105950000Y-90100000D03*
X109900000Y-76450000D03*
X142850000Y-53100000D03*
X116850000Y-65400000D03*
X134000000Y-86350000D03*
X126750000Y-75250000D03*
X117250000Y-53250000D03*
X107950000Y-87350000D03*
X105900000Y-73600000D03*
X121000000Y-41750000D03*
X134500000Y-52750000D03*
X126750000Y-73000000D03*
X130683600Y-49101000D03*
X130750000Y-75250000D03*
X112250000Y-87350000D03*
X128500000Y-41750000D03*
X123400000Y-98900000D03*
X107950000Y-84500000D03*
X146150000Y-76350000D03*
X130750000Y-67750000D03*
X126750000Y-80250000D03*
X105900000Y-79200000D03*
X114050000Y-68600000D03*
X114250000Y-49750000D03*
X120750000Y-78000000D03*
X124750000Y-67750000D03*
X114250000Y-53250000D03*
X146050000Y-85500000D03*
X133950000Y-84950000D03*
%TO.N,+3.3V*%
X111450000Y-48800000D03*
X127900000Y-52001000D03*
X140500000Y-78050000D03*
X140500000Y-84750000D03*
%TO.N,+24V*%
X112500000Y-74800000D03*
%TO.N,/linpot_adj*%
X133250000Y-56400000D03*
X133750000Y-61750000D03*
%TO.N,/IR_INTER*%
X141475000Y-57775000D03*
X143250000Y-70500000D03*
%TO.N,/SDA*%
X141500000Y-72500000D03*
%TO.N,/linpot_in*%
X138700000Y-71000000D03*
%TO.N,/linpot_out*%
X132000000Y-56300000D03*
X132000000Y-59501000D03*
%TO.N,/Debug2*%
X122200000Y-47550000D03*
X129000000Y-46950000D03*
%TD*%
D31*
%TO.N,GND*%
X139450000Y-66750000D02*
X136950000Y-66750000D01*
D32*
X126270000Y-49110000D02*
X127870000Y-49110000D01*
D31*
X127750000Y-61175000D02*
X127750000Y-59750000D01*
X140112500Y-63500000D02*
X140112500Y-66087500D01*
X140112500Y-66087500D02*
X139450000Y-66750000D01*
D32*
%TO.N,+3.3V*%
X140500000Y-77400000D02*
X140900000Y-77000000D01*
X141575000Y-76925000D02*
X141500000Y-77000000D01*
X127870000Y-52031000D02*
X127870000Y-53410000D01*
X111450000Y-48800000D02*
X110000000Y-47350000D01*
X140250000Y-85000000D02*
X139250000Y-85000000D01*
X127870000Y-53410000D02*
X127870000Y-56370000D01*
X127900000Y-52001000D02*
X127870000Y-52031000D01*
X141575000Y-75500000D02*
X141575000Y-76925000D01*
X142452000Y-73123000D02*
X141575000Y-74000000D01*
X127870000Y-56370000D02*
X129250000Y-57750000D01*
X140500000Y-78050000D02*
X140500000Y-77400000D01*
X140500000Y-84750000D02*
X140250000Y-85000000D01*
X129250000Y-57750000D02*
X139750000Y-57750000D01*
X141575000Y-74000000D02*
X141575000Y-75500000D01*
X139750000Y-57750000D02*
X142452000Y-60452000D01*
X142452000Y-60452000D02*
X142452000Y-73123000D01*
X140900000Y-77000000D02*
X141500000Y-77000000D01*
X110000000Y-47350000D02*
X110000000Y-46912500D01*
%TO.N,+24V*%
X119070000Y-53410000D02*
X119070000Y-55279943D01*
X112500000Y-68850000D02*
X112500000Y-74800000D01*
X112500000Y-55800000D02*
X112500000Y-46912500D01*
X119070000Y-55279943D02*
X117449943Y-56900000D01*
X115140000Y-56900000D02*
X113600000Y-56900000D01*
X112500000Y-55800000D02*
X112500000Y-68850000D01*
X117449943Y-56900000D02*
X115140000Y-56900000D01*
X113600000Y-56900000D02*
X112500000Y-55800000D01*
X112500000Y-68850000D02*
X115100000Y-71450000D01*
D31*
%TO.N,Net-(D1-A)*%
X123125000Y-45000000D02*
X123125000Y-43412500D01*
%TO.N,Net-(D2-A)*%
X125625000Y-45000000D02*
X125625000Y-43412500D01*
%TO.N,/linpot_adj*%
X129275000Y-61182500D02*
X129275000Y-61007500D01*
X132270000Y-63230000D02*
X132576000Y-62924000D01*
X124960000Y-50500000D02*
X124670000Y-50210000D01*
X145250000Y-59210000D02*
X145040000Y-59210000D01*
X133250000Y-52500000D02*
X131250000Y-50500000D01*
X132576000Y-61576000D02*
X132291000Y-61291000D01*
X131250000Y-50500000D02*
X124960000Y-50500000D01*
X132576000Y-61924000D02*
X132576000Y-62000000D01*
X132576000Y-62924000D02*
X132576000Y-62000000D01*
X132291000Y-61291000D02*
X132750000Y-61750000D01*
X132750000Y-61750000D02*
X132576000Y-61924000D01*
X132576000Y-62000000D02*
X132576000Y-61576000D01*
X132291000Y-61291000D02*
X129383500Y-61291000D01*
X131300000Y-63230000D02*
X132270000Y-63230000D01*
X129383500Y-61291000D02*
X129275000Y-61182500D01*
X133250000Y-56400000D02*
X133250000Y-52500000D01*
X124670000Y-50210000D02*
X124670000Y-49110000D01*
X133750000Y-61750000D02*
X132750000Y-61750000D01*
%TO.N,GNDA*%
X135310000Y-60690000D02*
X136250000Y-60690000D01*
X123400000Y-62725000D02*
X123400000Y-61275000D01*
X124670000Y-60005000D02*
X124670000Y-53410000D01*
X132637500Y-66095000D02*
X134405000Y-66095000D01*
X134750000Y-65750000D02*
X134750000Y-61250000D01*
X127546000Y-66871000D02*
X123400000Y-62725000D01*
X123400000Y-61275000D02*
X124670000Y-60005000D01*
X132637500Y-66095000D02*
X131861500Y-66871000D01*
X134405000Y-66095000D02*
X134750000Y-65750000D01*
X134750000Y-61250000D02*
X135310000Y-60690000D01*
X131861500Y-66871000D02*
X127546000Y-66871000D01*
%TO.N,/IR_INTER*%
X140700000Y-57000000D02*
X143250000Y-59550000D01*
X124599000Y-51401000D02*
X130751000Y-51401000D01*
X130751000Y-51401000D02*
X131350000Y-52000000D01*
X131350000Y-56550000D02*
X131800000Y-57000000D01*
X131350000Y-52000000D02*
X131350000Y-56550000D01*
X143250000Y-61000000D02*
X143250000Y-59550000D01*
X143250000Y-59550000D02*
X141475000Y-57775000D01*
X123870003Y-52129997D02*
X124599000Y-51401000D01*
X131800000Y-57000000D02*
X140700000Y-57000000D01*
X143250000Y-70500000D02*
X143250000Y-59550000D01*
X123870003Y-53410000D02*
X123870003Y-52129997D01*
%TO.N,Net-(U1A-+)*%
X138362500Y-63345000D02*
X136977500Y-61960000D01*
X138297500Y-61960000D02*
X138412500Y-61845000D01*
X138412500Y-61845000D02*
X138412500Y-63295000D01*
X136250000Y-61960000D02*
X138297500Y-61960000D01*
X138412500Y-63295000D02*
X138362500Y-63345000D01*
X136977500Y-61960000D02*
X136250000Y-61960000D01*
%TO.N,Net-(J5-Pin_4)*%
X141500000Y-78750000D02*
X136570000Y-78750000D01*
%TO.N,/SDA*%
X141802000Y-60984900D02*
X139317100Y-58500000D01*
X139317100Y-58500000D02*
X129000000Y-58500000D01*
X141500000Y-69500000D02*
X141802000Y-69198000D01*
X141500000Y-72500000D02*
X141500000Y-69500000D01*
X127070000Y-56570000D02*
X127070000Y-53410000D01*
X141802000Y-69198000D02*
X141802000Y-60984900D01*
X134070000Y-73750000D02*
X135320000Y-75000000D01*
X135320000Y-75000000D02*
X138750000Y-75000000D01*
X129000000Y-58500000D02*
X127070000Y-56570000D01*
X138750000Y-75000000D02*
X139750000Y-74000000D01*
%TO.N,Net-(U1B--)*%
X127750000Y-63000000D02*
X126250000Y-61500000D01*
X126250000Y-61500000D02*
X126250000Y-61175000D01*
X130322500Y-61960000D02*
X129275000Y-63007500D01*
X131300000Y-61960000D02*
X130322500Y-61960000D01*
X129275000Y-63007500D02*
X127757500Y-63007500D01*
X127757500Y-63007500D02*
X127750000Y-63000000D01*
%TO.N,/RH_STATUS*%
X119070000Y-49110000D02*
X117910000Y-49110000D01*
X117910000Y-49110000D02*
X116250000Y-47450000D01*
X116250000Y-47450000D02*
X116250000Y-46887500D01*
%TO.N,/RHConfig*%
X121470000Y-49110000D02*
X121470000Y-47080000D01*
X121470000Y-47080000D02*
X121725000Y-46825000D01*
X121725000Y-46825000D02*
X123125000Y-46825000D01*
%TO.N,VDDA*%
X125490000Y-53090000D02*
X125490000Y-53720000D01*
X131300000Y-65707500D02*
X130912500Y-66095000D01*
X127750000Y-64500000D02*
X131300000Y-64500000D01*
X125470000Y-62220000D02*
X126250000Y-63000000D01*
X131300000Y-64500000D02*
X131300000Y-65707500D01*
X125470000Y-53410000D02*
X125470000Y-62220000D01*
X126250000Y-63000000D02*
X127750000Y-64500000D01*
%TO.N,/SusConfig*%
X120670000Y-49110000D02*
X120670000Y-46680000D01*
X120670000Y-46680000D02*
X121400000Y-45950000D01*
X124750000Y-45950000D02*
X125625000Y-46825000D01*
X121400000Y-45950000D02*
X124750000Y-45950000D01*
%TO.N,/linpot_in*%
X138700000Y-70900000D02*
X141000000Y-68600000D01*
X131500000Y-85250000D02*
X134500000Y-88250000D01*
X138700000Y-71000000D02*
X138700000Y-70900000D01*
X134500000Y-88250000D02*
X136610000Y-88250000D01*
X133729674Y-71000000D02*
X131500000Y-73229674D01*
X131500000Y-73229674D02*
X131500000Y-85250000D01*
X138700000Y-71000000D02*
X133729674Y-71000000D01*
X140750000Y-62000000D02*
X140187500Y-62000000D01*
X141000000Y-62250000D02*
X140750000Y-62000000D01*
X141000000Y-68600000D02*
X141000000Y-62250000D01*
%TO.N,/LINPOT_STATUS*%
X119287500Y-46887500D02*
X118750000Y-46887500D01*
X119870000Y-47470000D02*
X119287500Y-46887500D01*
X119870000Y-49110000D02*
X119870000Y-47470000D01*
%TO.N,/SCL*%
X140786500Y-74463500D02*
X139750000Y-75500000D01*
X136570000Y-76250000D02*
X139000000Y-76250000D01*
X140786500Y-69413500D02*
X140786500Y-74463500D01*
X139151000Y-58901000D02*
X141401000Y-61151000D01*
X141401000Y-68799000D02*
X140786500Y-69413500D01*
X128833900Y-58901000D02*
X139151000Y-58901000D01*
X141401000Y-61151000D02*
X141401000Y-68799000D01*
X126270000Y-53410000D02*
X126270000Y-56337100D01*
X139000000Y-76250000D02*
X139750000Y-75500000D01*
X126270000Y-56337100D02*
X128833900Y-58901000D01*
%TO.N,/linpot_out*%
X131300000Y-60690000D02*
X132000000Y-59990000D01*
X136250000Y-63230000D02*
X136250000Y-64500000D01*
X139251000Y-60501000D02*
X139251000Y-63999000D01*
X131646968Y-60690000D02*
X131300000Y-60690000D01*
X124750000Y-51000000D02*
X123870003Y-50120003D01*
X132000000Y-56300000D02*
X132000000Y-52000000D01*
X132000000Y-59501000D02*
X131990000Y-59511000D01*
X132000000Y-59501000D02*
X132001000Y-59500000D01*
X138750000Y-64500000D02*
X136250000Y-64500000D01*
X138250000Y-59500000D02*
X139251000Y-60501000D01*
X132000000Y-52000000D02*
X131000000Y-51000000D01*
X139251000Y-63999000D02*
X138750000Y-64500000D01*
X131000000Y-51000000D02*
X124750000Y-51000000D01*
X131990000Y-60000000D02*
X131300000Y-60690000D01*
X123870003Y-50120003D02*
X123870003Y-49110000D01*
X131990000Y-59511000D02*
X131990000Y-60000000D01*
X132001000Y-59500000D02*
X138250000Y-59500000D01*
%TO.N,/Debug2*%
X122200000Y-47550000D02*
X122200000Y-49040000D01*
X129962500Y-46950000D02*
X130000000Y-46912500D01*
X129000000Y-46950000D02*
X129962500Y-46950000D01*
X122200000Y-49040000D02*
X122270000Y-49110000D01*
%TO.N,/Debug1*%
X131618750Y-47750000D02*
X123330000Y-47750000D01*
X132500000Y-46868750D02*
X131618750Y-47750000D01*
X123330000Y-47750000D02*
X123070000Y-48010000D01*
X123070000Y-48010000D02*
X123070000Y-49110000D01*
%TO.N,/CAN_-*%
X115493198Y-86025000D02*
X121725000Y-86025000D01*
X120670000Y-53410000D02*
X120670000Y-57898198D01*
X115140000Y-61900000D02*
X116100000Y-61900000D01*
X116668198Y-61900000D02*
X115140000Y-61900000D01*
X120670000Y-57898198D02*
X116668198Y-61900000D01*
X118500000Y-73050000D02*
X115100000Y-76450000D01*
X113236397Y-76450000D02*
X111825000Y-77861397D01*
X118500000Y-64300000D02*
X118500000Y-73050000D01*
X111825000Y-82356802D02*
X115493198Y-86025000D01*
X123700000Y-88000000D02*
X123700000Y-90300000D01*
X111825000Y-77861397D02*
X111825000Y-82356802D01*
X116100000Y-61900000D02*
X118500000Y-64300000D01*
X115100000Y-76450000D02*
X113236397Y-76450000D01*
X121725000Y-86025000D02*
X123700000Y-88000000D01*
%TO.N,/CAN_+*%
X119870000Y-53410000D02*
X119870000Y-58061802D01*
X111375000Y-77675000D02*
X111375000Y-82543198D01*
X121200000Y-87400000D02*
X121200000Y-90300000D01*
X118531802Y-59400000D02*
X115140000Y-59400000D01*
X119870000Y-58061802D02*
X118531802Y-59400000D01*
X120275000Y-86475000D02*
X121200000Y-87400000D01*
X115306802Y-86475000D02*
X120275000Y-86475000D01*
X115100000Y-73950000D02*
X111375000Y-77675000D01*
X111375000Y-82543198D02*
X115306802Y-86475000D01*
%TO.N,Net-(D4-A)*%
X112500000Y-45087500D02*
X112500000Y-43500000D01*
%TO.N,Net-(D5-A)*%
X118750000Y-45062500D02*
X118750000Y-43437500D01*
%TO.N,Net-(D6-A)*%
X110000000Y-45087500D02*
X110000000Y-43500000D01*
%TO.N,Net-(D7-A)*%
X130000000Y-45087500D02*
X130000000Y-43500000D01*
%TO.N,Net-(D8-A)*%
X132500000Y-45043750D02*
X132500000Y-43456250D01*
%TO.N,Net-(J6-Pin_3)*%
X139250000Y-83250000D02*
X136610000Y-83250000D01*
%TO.N,Net-(D3-A)*%
X116250000Y-45062500D02*
X116250000Y-43437500D01*
%TO.N,Net-(J2-Pin_5)*%
X128700000Y-90300000D02*
X128700000Y-87925000D01*
%TO.N,Net-(J3-Pin_5)*%
X117437500Y-66900000D02*
X117487500Y-66950000D01*
X115140000Y-66900000D02*
X117437500Y-66900000D01*
%TO.N,Net-(J4-Pin_5)*%
X115100000Y-81450000D02*
X116937500Y-81450000D01*
X116937500Y-81450000D02*
X117037500Y-81550000D01*
%TD*%
%TA.AperFunction,Conductor*%
%TO.N,GND*%
G36*
X109199194Y-40770185D02*
G01*
X109244949Y-40822989D01*
X109254893Y-40892147D01*
X109225868Y-40955703D01*
X109219836Y-40962181D01*
X109180055Y-41001961D01*
X109180052Y-41001965D01*
X109089551Y-41148688D01*
X109089546Y-41148699D01*
X109035319Y-41312347D01*
X109025000Y-41413345D01*
X109025000Y-41500000D01*
X110974999Y-41500000D01*
X110974999Y-41413360D01*
X110974998Y-41413345D01*
X110964680Y-41312347D01*
X110910453Y-41148699D01*
X110910448Y-41148688D01*
X110819947Y-41001965D01*
X110819944Y-41001961D01*
X110780164Y-40962181D01*
X110746679Y-40900858D01*
X110751663Y-40831166D01*
X110793535Y-40775233D01*
X110858999Y-40750816D01*
X110867845Y-40750500D01*
X111632155Y-40750500D01*
X111699194Y-40770185D01*
X111744949Y-40822989D01*
X111754893Y-40892147D01*
X111725868Y-40955703D01*
X111719836Y-40962181D01*
X111680055Y-41001961D01*
X111680052Y-41001965D01*
X111589551Y-41148688D01*
X111589546Y-41148699D01*
X111535319Y-41312347D01*
X111525000Y-41413345D01*
X111525000Y-41500000D01*
X113474999Y-41500000D01*
X113474999Y-41413360D01*
X113474998Y-41413345D01*
X113464680Y-41312347D01*
X113410453Y-41148699D01*
X113410448Y-41148688D01*
X113319947Y-41001965D01*
X113319944Y-41001961D01*
X113280164Y-40962181D01*
X113246679Y-40900858D01*
X113251663Y-40831166D01*
X113293535Y-40775233D01*
X113358999Y-40750816D01*
X113367845Y-40750500D01*
X115324433Y-40750500D01*
X115391472Y-40770185D01*
X115437227Y-40822989D01*
X115447171Y-40892147D01*
X115429971Y-40939597D01*
X115339551Y-41086188D01*
X115339546Y-41086199D01*
X115285319Y-41249847D01*
X115275000Y-41350845D01*
X115275000Y-41437500D01*
X117224999Y-41437500D01*
X117224999Y-41350860D01*
X117224998Y-41350845D01*
X117214680Y-41249847D01*
X117160453Y-41086199D01*
X117160448Y-41086188D01*
X117070029Y-40939597D01*
X117051588Y-40872205D01*
X117072510Y-40805541D01*
X117126152Y-40760772D01*
X117175567Y-40750500D01*
X117824433Y-40750500D01*
X117891472Y-40770185D01*
X117937227Y-40822989D01*
X117947171Y-40892147D01*
X117929971Y-40939597D01*
X117839551Y-41086188D01*
X117839546Y-41086199D01*
X117785319Y-41249847D01*
X117775000Y-41350845D01*
X117775000Y-41437500D01*
X119724999Y-41437500D01*
X119724999Y-41350860D01*
X119724998Y-41350845D01*
X119714680Y-41249847D01*
X119660453Y-41086199D01*
X119660448Y-41086188D01*
X119570029Y-40939597D01*
X119551588Y-40872205D01*
X119572510Y-40805541D01*
X119626152Y-40760772D01*
X119675567Y-40750500D01*
X122184013Y-40750500D01*
X122251052Y-40770185D01*
X122296807Y-40822989D01*
X122306751Y-40892147D01*
X122289551Y-40939597D01*
X122214551Y-41061188D01*
X122214546Y-41061199D01*
X122160319Y-41224847D01*
X122150000Y-41325845D01*
X122150000Y-41412500D01*
X124099999Y-41412500D01*
X124099999Y-41325860D01*
X124099998Y-41325845D01*
X124089680Y-41224847D01*
X124035453Y-41061199D01*
X124035448Y-41061188D01*
X123960449Y-40939597D01*
X123942008Y-40872205D01*
X123962930Y-40805541D01*
X124016572Y-40760772D01*
X124065987Y-40750500D01*
X124684013Y-40750500D01*
X124751052Y-40770185D01*
X124796807Y-40822989D01*
X124806751Y-40892147D01*
X124789551Y-40939597D01*
X124714551Y-41061188D01*
X124714546Y-41061199D01*
X124660319Y-41224847D01*
X124650000Y-41325845D01*
X124650000Y-41412500D01*
X126599999Y-41412500D01*
X126599999Y-41325860D01*
X126599998Y-41325845D01*
X126589680Y-41224847D01*
X126535453Y-41061199D01*
X126535448Y-41061188D01*
X126460449Y-40939597D01*
X126442008Y-40872205D01*
X126462930Y-40805541D01*
X126516572Y-40760772D01*
X126565987Y-40750500D01*
X129132155Y-40750500D01*
X129199194Y-40770185D01*
X129244949Y-40822989D01*
X129254893Y-40892147D01*
X129225868Y-40955703D01*
X129219836Y-40962181D01*
X129180055Y-41001961D01*
X129180052Y-41001965D01*
X129089551Y-41148688D01*
X129089546Y-41148699D01*
X129035319Y-41312347D01*
X129025000Y-41413345D01*
X129025000Y-41500000D01*
X130974999Y-41500000D01*
X130974999Y-41413360D01*
X130974998Y-41413345D01*
X130964680Y-41312347D01*
X130910453Y-41148699D01*
X130910448Y-41148688D01*
X130819947Y-41001965D01*
X130819944Y-41001961D01*
X130780164Y-40962181D01*
X130746679Y-40900858D01*
X130751663Y-40831166D01*
X130793535Y-40775233D01*
X130858999Y-40750816D01*
X130867845Y-40750500D01*
X131588405Y-40750500D01*
X131655444Y-40770185D01*
X131701199Y-40822989D01*
X131711143Y-40892147D01*
X131683816Y-40951982D01*
X131684533Y-40952549D01*
X131682225Y-40955466D01*
X131682118Y-40955703D01*
X131681594Y-40956265D01*
X131680052Y-40958215D01*
X131589551Y-41104938D01*
X131589546Y-41104949D01*
X131535319Y-41268597D01*
X131525000Y-41369595D01*
X131525000Y-41456250D01*
X133474999Y-41456250D01*
X133474999Y-41369610D01*
X133474998Y-41369595D01*
X133464680Y-41268597D01*
X133410453Y-41104949D01*
X133410448Y-41104938D01*
X133319947Y-40958215D01*
X133315467Y-40952549D01*
X133317693Y-40950788D01*
X133290429Y-40900858D01*
X133295413Y-40831166D01*
X133337285Y-40775233D01*
X133402749Y-40750816D01*
X133411595Y-40750500D01*
X144684108Y-40750500D01*
X144746249Y-40750500D01*
X144753736Y-40750726D01*
X145043796Y-40768271D01*
X145058657Y-40770075D01*
X145252185Y-40805541D01*
X145340798Y-40821780D01*
X145355335Y-40825363D01*
X145629172Y-40910695D01*
X145643163Y-40916000D01*
X145904743Y-41033727D01*
X145917989Y-41040680D01*
X146163465Y-41189075D01*
X146175776Y-41197573D01*
X146266432Y-41268597D01*
X146401573Y-41374473D01*
X146412781Y-41384403D01*
X146615596Y-41587218D01*
X146625526Y-41598426D01*
X146745481Y-41751538D01*
X146802422Y-41824217D01*
X146810928Y-41836540D01*
X146959316Y-42082004D01*
X146966275Y-42095263D01*
X147083997Y-42356831D01*
X147089306Y-42370832D01*
X147174635Y-42644663D01*
X147178219Y-42659201D01*
X147229923Y-42941340D01*
X147231728Y-42956205D01*
X147249274Y-43246263D01*
X147249500Y-43253750D01*
X147249500Y-98496249D01*
X147249274Y-98503736D01*
X147231728Y-98793794D01*
X147229923Y-98808659D01*
X147178219Y-99090798D01*
X147174635Y-99105336D01*
X147089306Y-99379167D01*
X147083997Y-99393168D01*
X146966275Y-99654736D01*
X146959316Y-99667995D01*
X146810928Y-99913459D01*
X146802422Y-99925782D01*
X146625526Y-100151573D01*
X146615596Y-100162781D01*
X146412781Y-100365596D01*
X146401573Y-100375526D01*
X146175782Y-100552422D01*
X146163459Y-100560928D01*
X145917995Y-100709316D01*
X145904736Y-100716275D01*
X145643168Y-100833997D01*
X145629167Y-100839306D01*
X145355336Y-100924635D01*
X145340798Y-100928219D01*
X145058659Y-100979923D01*
X145043794Y-100981728D01*
X144753736Y-100999274D01*
X144746249Y-100999500D01*
X140626345Y-100999500D01*
X140559306Y-100979815D01*
X140513551Y-100927011D01*
X140503607Y-100857853D01*
X140532632Y-100794297D01*
X140557454Y-100772398D01*
X140657044Y-100705854D01*
X140938101Y-100475197D01*
X141195197Y-100218101D01*
X141425854Y-99937044D01*
X141627853Y-99634732D01*
X141799247Y-99314076D01*
X141938386Y-98978164D01*
X142043930Y-98630233D01*
X142043932Y-98630223D01*
X142043935Y-98630212D01*
X142114862Y-98273630D01*
X142122416Y-98196930D01*
X142150500Y-97911794D01*
X142150500Y-97548206D01*
X142114862Y-97186369D01*
X142089239Y-97057552D01*
X142043935Y-96829787D01*
X142043932Y-96829776D01*
X142043931Y-96829773D01*
X142043930Y-96829767D01*
X141938386Y-96481836D01*
X141799247Y-96145924D01*
X141761337Y-96075000D01*
X141627859Y-95825279D01*
X141627858Y-95825277D01*
X141627853Y-95825268D01*
X141425854Y-95522956D01*
X141195197Y-95241899D01*
X141195196Y-95241898D01*
X141195192Y-95241893D01*
X140938106Y-94984807D01*
X140657049Y-94754150D01*
X140657048Y-94754149D01*
X140657044Y-94754146D01*
X140354732Y-94552147D01*
X140354727Y-94552144D01*
X140354720Y-94552140D01*
X140034083Y-94380756D01*
X140034078Y-94380754D01*
X139698165Y-94241614D01*
X139350223Y-94136067D01*
X139350212Y-94136064D01*
X138993630Y-94065137D01*
X138721111Y-94038296D01*
X138631794Y-94029500D01*
X138268206Y-94029500D01*
X138185679Y-94037628D01*
X137906369Y-94065137D01*
X137549787Y-94136064D01*
X137549776Y-94136067D01*
X137201834Y-94241614D01*
X136865921Y-94380754D01*
X136865916Y-94380756D01*
X136545279Y-94552140D01*
X136545261Y-94552151D01*
X136242964Y-94754140D01*
X136242950Y-94754150D01*
X135961893Y-94984807D01*
X135704807Y-95241893D01*
X135474150Y-95522950D01*
X135474140Y-95522964D01*
X135272151Y-95825261D01*
X135272140Y-95825279D01*
X135100756Y-96145916D01*
X135100754Y-96145921D01*
X134961614Y-96481834D01*
X134856067Y-96829776D01*
X134856064Y-96829787D01*
X134785137Y-97186369D01*
X134749500Y-97548209D01*
X134749500Y-97911790D01*
X134785137Y-98273630D01*
X134856064Y-98630212D01*
X134856067Y-98630223D01*
X134961614Y-98978165D01*
X135100754Y-99314078D01*
X135100756Y-99314083D01*
X135272140Y-99634720D01*
X135272151Y-99634738D01*
X135474140Y-99937035D01*
X135474150Y-99937049D01*
X135704807Y-100218106D01*
X135961893Y-100475192D01*
X135961898Y-100475196D01*
X135961899Y-100475197D01*
X136242956Y-100705854D01*
X136342546Y-100772398D01*
X136387351Y-100826010D01*
X136396058Y-100895335D01*
X136365904Y-100958362D01*
X136306461Y-100995082D01*
X136273655Y-100999500D01*
X109886345Y-100999500D01*
X109819306Y-100979815D01*
X109773551Y-100927011D01*
X109763607Y-100857853D01*
X109792632Y-100794297D01*
X109817454Y-100772398D01*
X109917044Y-100705854D01*
X110198101Y-100475197D01*
X110455197Y-100218101D01*
X110685854Y-99937044D01*
X110887853Y-99634732D01*
X111059247Y-99314076D01*
X111198386Y-98978164D01*
X111303930Y-98630233D01*
X111303932Y-98630223D01*
X111303935Y-98630212D01*
X111374862Y-98273630D01*
X111382416Y-98196930D01*
X111410500Y-97911794D01*
X111410500Y-97548206D01*
X111374862Y-97186369D01*
X111349239Y-97057552D01*
X111303935Y-96829787D01*
X111303932Y-96829776D01*
X111303931Y-96829773D01*
X111303930Y-96829767D01*
X111212133Y-96527155D01*
X112100000Y-96527155D01*
X112100000Y-97575000D01*
X113301518Y-97575000D01*
X113290889Y-97593409D01*
X113250000Y-97746009D01*
X113250000Y-97903991D01*
X113290889Y-98056591D01*
X113301518Y-98075000D01*
X112100000Y-98075000D01*
X112100000Y-99122844D01*
X112106401Y-99182372D01*
X112106403Y-99182379D01*
X112156645Y-99317086D01*
X112156649Y-99317093D01*
X112242809Y-99432187D01*
X112242812Y-99432190D01*
X112357906Y-99518350D01*
X112357913Y-99518354D01*
X112492620Y-99568596D01*
X112492627Y-99568598D01*
X112552155Y-99574999D01*
X112552172Y-99575000D01*
X113600000Y-99575000D01*
X113600000Y-98373482D01*
X113618409Y-98384111D01*
X113771009Y-98425000D01*
X113928991Y-98425000D01*
X114081591Y-98384111D01*
X114100000Y-98373482D01*
X114100000Y-99575000D01*
X115147828Y-99575000D01*
X115147844Y-99574999D01*
X115207372Y-99568598D01*
X115207379Y-99568596D01*
X115342086Y-99518354D01*
X115342093Y-99518350D01*
X115457187Y-99432190D01*
X115457190Y-99432187D01*
X115543350Y-99317093D01*
X115543354Y-99317086D01*
X115593596Y-99182379D01*
X115593598Y-99182372D01*
X115599999Y-99122844D01*
X115600000Y-99122827D01*
X115600000Y-98075000D01*
X114398482Y-98075000D01*
X114409111Y-98056591D01*
X114450000Y-97903991D01*
X114450000Y-97746009D01*
X114409111Y-97593409D01*
X114398482Y-97575000D01*
X115600000Y-97575000D01*
X115600000Y-97393389D01*
X117599500Y-97393389D01*
X117599500Y-97566611D01*
X117626598Y-97737701D01*
X117629297Y-97746009D01*
X117680128Y-97902447D01*
X117735685Y-98011484D01*
X117758768Y-98056788D01*
X117860586Y-98196928D01*
X117983072Y-98319414D01*
X118123212Y-98421232D01*
X118277555Y-98499873D01*
X118442299Y-98553402D01*
X118613389Y-98580500D01*
X118613390Y-98580500D01*
X118786610Y-98580500D01*
X118786611Y-98580500D01*
X118957701Y-98553402D01*
X119122445Y-98499873D01*
X119276788Y-98421232D01*
X119416928Y-98319414D01*
X119539414Y-98196928D01*
X119641232Y-98056788D01*
X119719873Y-97902445D01*
X119773402Y-97737701D01*
X119800500Y-97566611D01*
X119800500Y-97393389D01*
X127599500Y-97393389D01*
X127599500Y-97566611D01*
X127626598Y-97737701D01*
X127629297Y-97746009D01*
X127680128Y-97902447D01*
X127735685Y-98011484D01*
X127758768Y-98056788D01*
X127860586Y-98196928D01*
X127983072Y-98319414D01*
X128123212Y-98421232D01*
X128277555Y-98499873D01*
X128442299Y-98553402D01*
X128613389Y-98580500D01*
X128613390Y-98580500D01*
X128786610Y-98580500D01*
X128786611Y-98580500D01*
X128957701Y-98553402D01*
X129122445Y-98499873D01*
X129276788Y-98421232D01*
X129416928Y-98319414D01*
X129539414Y-98196928D01*
X129641232Y-98056788D01*
X129719873Y-97902445D01*
X129773402Y-97737701D01*
X129800500Y-97566611D01*
X129800500Y-97393389D01*
X129773402Y-97222299D01*
X129719873Y-97057555D01*
X129641232Y-96903212D01*
X129539414Y-96763072D01*
X129416928Y-96640586D01*
X129276788Y-96538768D01*
X129122445Y-96460127D01*
X128957701Y-96406598D01*
X128957699Y-96406597D01*
X128957698Y-96406597D01*
X128826271Y-96385781D01*
X128786611Y-96379500D01*
X128613389Y-96379500D01*
X128573728Y-96385781D01*
X128442302Y-96406597D01*
X128277552Y-96460128D01*
X128123211Y-96538768D01*
X128043256Y-96596859D01*
X127983072Y-96640586D01*
X127983070Y-96640588D01*
X127983069Y-96640588D01*
X127860588Y-96763069D01*
X127860588Y-96763070D01*
X127860586Y-96763072D01*
X127816859Y-96823256D01*
X127758768Y-96903211D01*
X127680128Y-97057552D01*
X127626597Y-97222302D01*
X127626170Y-97225000D01*
X127599500Y-97393389D01*
X119800500Y-97393389D01*
X119773402Y-97222299D01*
X119719873Y-97057555D01*
X119641232Y-96903212D01*
X119539414Y-96763072D01*
X119416928Y-96640586D01*
X119276788Y-96538768D01*
X119122445Y-96460127D01*
X118957701Y-96406598D01*
X118957699Y-96406597D01*
X118957698Y-96406597D01*
X118826271Y-96385781D01*
X118786611Y-96379500D01*
X118613389Y-96379500D01*
X118573728Y-96385781D01*
X118442302Y-96406597D01*
X118277552Y-96460128D01*
X118123211Y-96538768D01*
X118043256Y-96596859D01*
X117983072Y-96640586D01*
X117983070Y-96640588D01*
X117983069Y-96640588D01*
X117860588Y-96763069D01*
X117860588Y-96763070D01*
X117860586Y-96763072D01*
X117816859Y-96823256D01*
X117758768Y-96903211D01*
X117680128Y-97057552D01*
X117626597Y-97222302D01*
X117626170Y-97225000D01*
X117599500Y-97393389D01*
X115600000Y-97393389D01*
X115600000Y-96527172D01*
X115599999Y-96527155D01*
X115593598Y-96467627D01*
X115593596Y-96467620D01*
X115543354Y-96332913D01*
X115543350Y-96332906D01*
X115457190Y-96217812D01*
X115457187Y-96217809D01*
X115342093Y-96131649D01*
X115342086Y-96131645D01*
X115207379Y-96081403D01*
X115207372Y-96081401D01*
X115147844Y-96075000D01*
X114100000Y-96075000D01*
X114100000Y-97276517D01*
X114081591Y-97265889D01*
X113928991Y-97225000D01*
X113771009Y-97225000D01*
X113618409Y-97265889D01*
X113600000Y-97276517D01*
X113600000Y-96075000D01*
X112552155Y-96075000D01*
X112492627Y-96081401D01*
X112492620Y-96081403D01*
X112357913Y-96131645D01*
X112357906Y-96131649D01*
X112242812Y-96217809D01*
X112242809Y-96217812D01*
X112156649Y-96332906D01*
X112156645Y-96332913D01*
X112106403Y-96467620D01*
X112106401Y-96467627D01*
X112100000Y-96527155D01*
X111212133Y-96527155D01*
X111198386Y-96481836D01*
X111059247Y-96145924D01*
X111021337Y-96075000D01*
X110887859Y-95825279D01*
X110887858Y-95825277D01*
X110887853Y-95825268D01*
X110685854Y-95522956D01*
X110455197Y-95241899D01*
X110455196Y-95241898D01*
X110455192Y-95241893D01*
X110198106Y-94984807D01*
X109917049Y-94754150D01*
X109917048Y-94754149D01*
X109917044Y-94754146D01*
X109614732Y-94552147D01*
X109614727Y-94552144D01*
X109614720Y-94552140D01*
X109294083Y-94380756D01*
X109294078Y-94380754D01*
X108958165Y-94241614D01*
X108610223Y-94136067D01*
X108610212Y-94136064D01*
X108253630Y-94065137D01*
X107981111Y-94038296D01*
X107891794Y-94029500D01*
X107528206Y-94029500D01*
X107445679Y-94037628D01*
X107166369Y-94065137D01*
X106809787Y-94136064D01*
X106809776Y-94136067D01*
X106461834Y-94241614D01*
X106125921Y-94380754D01*
X106125916Y-94380756D01*
X105805279Y-94552140D01*
X105805261Y-94552151D01*
X105502964Y-94754140D01*
X105502950Y-94754150D01*
X105221893Y-94984807D01*
X104962650Y-95244051D01*
X104961659Y-95243060D01*
X104906718Y-95276628D01*
X104836867Y-95275038D01*
X104778964Y-95235936D01*
X104751392Y-95171737D01*
X104750500Y-95156887D01*
X104750500Y-81363389D01*
X106819500Y-81363389D01*
X106819500Y-81536611D01*
X106846598Y-81707701D01*
X106900127Y-81872445D01*
X106978768Y-82026788D01*
X107080586Y-82166928D01*
X107203072Y-82289414D01*
X107343212Y-82391232D01*
X107497555Y-82469873D01*
X107662299Y-82523402D01*
X107833389Y-82550500D01*
X107833390Y-82550500D01*
X108006610Y-82550500D01*
X108006611Y-82550500D01*
X108177701Y-82523402D01*
X108342445Y-82469873D01*
X108496788Y-82391232D01*
X108636928Y-82289414D01*
X108759414Y-82166928D01*
X108861232Y-82026788D01*
X108939873Y-81872445D01*
X108993402Y-81707701D01*
X109020500Y-81536611D01*
X109020500Y-81363389D01*
X108993402Y-81192299D01*
X108939873Y-81027555D01*
X108861232Y-80873212D01*
X108759414Y-80733072D01*
X108636928Y-80610586D01*
X108496788Y-80508768D01*
X108342445Y-80430127D01*
X108177701Y-80376598D01*
X108177699Y-80376597D01*
X108177698Y-80376597D01*
X108046271Y-80355781D01*
X108006611Y-80349500D01*
X107833389Y-80349500D01*
X107793728Y-80355781D01*
X107662302Y-80376597D01*
X107497552Y-80430128D01*
X107343211Y-80508768D01*
X107263256Y-80566859D01*
X107203072Y-80610586D01*
X107203070Y-80610588D01*
X107203069Y-80610588D01*
X107080588Y-80733069D01*
X107080588Y-80733070D01*
X107080586Y-80733072D01*
X107073966Y-80742184D01*
X106978768Y-80873211D01*
X106900128Y-81027552D01*
X106846597Y-81192302D01*
X106835345Y-81263345D01*
X106819500Y-81363389D01*
X104750500Y-81363389D01*
X104750500Y-71363389D01*
X106819500Y-71363389D01*
X106819500Y-71536611D01*
X106846598Y-71707701D01*
X106900127Y-71872445D01*
X106978768Y-72026788D01*
X107080586Y-72166928D01*
X107203072Y-72289414D01*
X107343212Y-72391232D01*
X107497555Y-72469873D01*
X107662299Y-72523402D01*
X107833389Y-72550500D01*
X107833390Y-72550500D01*
X108006610Y-72550500D01*
X108006611Y-72550500D01*
X108177701Y-72523402D01*
X108342445Y-72469873D01*
X108496788Y-72391232D01*
X108636928Y-72289414D01*
X108759414Y-72166928D01*
X108861232Y-72026788D01*
X108939873Y-71872445D01*
X108993402Y-71707701D01*
X109020500Y-71536611D01*
X109020500Y-71363389D01*
X108993402Y-71192299D01*
X108939873Y-71027555D01*
X108861232Y-70873212D01*
X108759414Y-70733072D01*
X108636928Y-70610586D01*
X108496788Y-70508768D01*
X108342445Y-70430127D01*
X108177701Y-70376598D01*
X108177699Y-70376597D01*
X108177698Y-70376597D01*
X108046271Y-70355781D01*
X108006611Y-70349500D01*
X107833389Y-70349500D01*
X107793728Y-70355781D01*
X107662302Y-70376597D01*
X107497552Y-70430128D01*
X107343211Y-70508768D01*
X107313069Y-70530668D01*
X107203072Y-70610586D01*
X107203070Y-70610588D01*
X107203069Y-70610588D01*
X107080588Y-70733069D01*
X107080588Y-70733070D01*
X107080586Y-70733072D01*
X107036859Y-70793256D01*
X106978768Y-70873211D01*
X106900128Y-71027552D01*
X106846597Y-71192302D01*
X106829394Y-71300921D01*
X106819500Y-71363389D01*
X104750500Y-71363389D01*
X104750500Y-66813389D01*
X106859500Y-66813389D01*
X106859500Y-66986610D01*
X106883990Y-67141239D01*
X106886598Y-67157701D01*
X106940127Y-67322445D01*
X107018768Y-67476788D01*
X107120586Y-67616928D01*
X107243072Y-67739414D01*
X107383212Y-67841232D01*
X107537555Y-67919873D01*
X107702299Y-67973402D01*
X107873389Y-68000500D01*
X107873390Y-68000500D01*
X108046610Y-68000500D01*
X108046611Y-68000500D01*
X108217701Y-67973402D01*
X108382445Y-67919873D01*
X108536788Y-67841232D01*
X108676928Y-67739414D01*
X108799414Y-67616928D01*
X108901232Y-67476788D01*
X108979873Y-67322445D01*
X109033402Y-67157701D01*
X109060500Y-66986611D01*
X109060500Y-66813389D01*
X109033402Y-66642299D01*
X108979873Y-66477555D01*
X108901232Y-66323212D01*
X108799414Y-66183072D01*
X108676928Y-66060586D01*
X108536788Y-65958768D01*
X108382445Y-65880127D01*
X108217701Y-65826598D01*
X108217699Y-65826597D01*
X108217698Y-65826597D01*
X108086271Y-65805781D01*
X108046611Y-65799500D01*
X107873389Y-65799500D01*
X107833728Y-65805781D01*
X107702302Y-65826597D01*
X107537552Y-65880128D01*
X107383211Y-65958768D01*
X107341989Y-65988718D01*
X107243072Y-66060586D01*
X107243070Y-66060588D01*
X107243069Y-66060588D01*
X107120588Y-66183069D01*
X107120588Y-66183070D01*
X107120586Y-66183072D01*
X107093078Y-66220934D01*
X107018768Y-66323211D01*
X106940128Y-66477552D01*
X106886597Y-66642302D01*
X106859500Y-66813389D01*
X104750500Y-66813389D01*
X104750500Y-56813389D01*
X106859500Y-56813389D01*
X106859500Y-56986611D01*
X106862454Y-57005261D01*
X106885886Y-57153210D01*
X106886598Y-57157701D01*
X106940127Y-57322445D01*
X107018768Y-57476788D01*
X107120586Y-57616928D01*
X107243072Y-57739414D01*
X107383212Y-57841232D01*
X107537555Y-57919873D01*
X107702299Y-57973402D01*
X107873389Y-58000500D01*
X107873390Y-58000500D01*
X108046610Y-58000500D01*
X108046611Y-58000500D01*
X108217701Y-57973402D01*
X108382445Y-57919873D01*
X108536788Y-57841232D01*
X108676928Y-57739414D01*
X108799414Y-57616928D01*
X108901232Y-57476788D01*
X108979873Y-57322445D01*
X109033402Y-57157701D01*
X109060500Y-56986611D01*
X109060500Y-56813389D01*
X109033402Y-56642299D01*
X108979873Y-56477555D01*
X108901232Y-56323212D01*
X108799414Y-56183072D01*
X108676928Y-56060586D01*
X108536788Y-55958768D01*
X108382445Y-55880127D01*
X108217701Y-55826598D01*
X108217699Y-55826597D01*
X108217698Y-55826597D01*
X108086271Y-55805781D01*
X108046611Y-55799500D01*
X107873389Y-55799500D01*
X107833728Y-55805781D01*
X107702302Y-55826597D01*
X107537552Y-55880128D01*
X107383211Y-55958768D01*
X107353069Y-55980668D01*
X107243072Y-56060586D01*
X107243070Y-56060588D01*
X107243069Y-56060588D01*
X107120588Y-56183069D01*
X107120588Y-56183070D01*
X107120586Y-56183072D01*
X107076859Y-56243256D01*
X107018768Y-56323211D01*
X106940128Y-56477552D01*
X106886597Y-56642302D01*
X106861338Y-56801784D01*
X106859500Y-56813389D01*
X104750500Y-56813389D01*
X104750500Y-53843161D01*
X104770185Y-53776122D01*
X104822989Y-53730367D01*
X104892147Y-53720423D01*
X104955703Y-53749448D01*
X104962181Y-53755480D01*
X105211893Y-54005192D01*
X105211898Y-54005196D01*
X105211899Y-54005197D01*
X105492956Y-54235854D01*
X105795268Y-54437853D01*
X105795277Y-54437858D01*
X105795279Y-54437859D01*
X106115916Y-54609243D01*
X106115918Y-54609243D01*
X106115924Y-54609247D01*
X106451836Y-54748386D01*
X106799767Y-54853930D01*
X106799773Y-54853931D01*
X106799776Y-54853932D01*
X106799787Y-54853935D01*
X107120428Y-54917713D01*
X107156369Y-54924862D01*
X107518206Y-54960500D01*
X107518209Y-54960500D01*
X107881791Y-54960500D01*
X107881794Y-54960500D01*
X108243631Y-54924862D01*
X108313045Y-54911054D01*
X108600212Y-54853935D01*
X108600223Y-54853932D01*
X108600223Y-54853931D01*
X108600233Y-54853930D01*
X108948164Y-54748386D01*
X109284076Y-54609247D01*
X109604732Y-54437853D01*
X109907044Y-54235854D01*
X110188101Y-54005197D01*
X110445197Y-53748101D01*
X110675854Y-53467044D01*
X110877853Y-53164732D01*
X111049247Y-52844076D01*
X111188386Y-52508164D01*
X111293930Y-52160233D01*
X111293932Y-52160223D01*
X111293935Y-52160212D01*
X111363180Y-51812088D01*
X111364862Y-51803631D01*
X111400500Y-51441794D01*
X111400500Y-51078206D01*
X111364862Y-50716369D01*
X111293935Y-50359787D01*
X111293932Y-50359776D01*
X111293931Y-50359773D01*
X111293930Y-50359767D01*
X111188386Y-50011836D01*
X111075072Y-49738273D01*
X111067604Y-49668804D01*
X111098879Y-49606325D01*
X111158968Y-49570673D01*
X111213826Y-49569204D01*
X111216500Y-49569736D01*
X111216503Y-49569737D01*
X111286171Y-49583594D01*
X111371155Y-49600500D01*
X111371158Y-49600500D01*
X111528843Y-49600500D01*
X111544564Y-49597372D01*
X111601309Y-49586085D01*
X111670899Y-49592312D01*
X111726077Y-49635174D01*
X111749322Y-49701063D01*
X111749500Y-49707702D01*
X111749500Y-74495396D01*
X111740062Y-74542844D01*
X111734149Y-74557121D01*
X111730262Y-74566506D01*
X111730260Y-74566511D01*
X111699500Y-74721153D01*
X111699500Y-74878846D01*
X111730261Y-75033489D01*
X111730264Y-75033501D01*
X111790602Y-75179172D01*
X111790609Y-75179185D01*
X111878210Y-75310288D01*
X111878213Y-75310292D01*
X111989707Y-75421786D01*
X111989711Y-75421789D01*
X112120814Y-75509390D01*
X112120827Y-75509397D01*
X112200599Y-75542439D01*
X112266503Y-75569737D01*
X112308870Y-75578164D01*
X112343017Y-75584957D01*
X112404928Y-75617342D01*
X112439502Y-75678057D01*
X112435763Y-75747827D01*
X112406507Y-75794255D01*
X111006286Y-77194478D01*
X110894481Y-77306282D01*
X110894479Y-77306285D01*
X110880911Y-77329786D01*
X110851414Y-77380877D01*
X110815423Y-77443215D01*
X110774499Y-77595943D01*
X110774499Y-77595945D01*
X110774499Y-77764046D01*
X110774500Y-77764059D01*
X110774500Y-82456528D01*
X110774499Y-82456546D01*
X110774499Y-82622252D01*
X110774498Y-82622252D01*
X110815423Y-82774983D01*
X110836936Y-82812243D01*
X110836937Y-82812247D01*
X110894475Y-82911907D01*
X110894481Y-82911915D01*
X111013349Y-83030783D01*
X111013354Y-83030787D01*
X114938086Y-86955520D01*
X114938088Y-86955521D01*
X114938092Y-86955524D01*
X115069314Y-87031284D01*
X115075018Y-87034577D01*
X115227745Y-87075501D01*
X115227747Y-87075501D01*
X115393456Y-87075501D01*
X115393472Y-87075500D01*
X119974903Y-87075500D01*
X120041942Y-87095185D01*
X120062584Y-87111819D01*
X120563181Y-87612416D01*
X120596666Y-87673739D01*
X120599500Y-87700097D01*
X120599500Y-88764281D01*
X120579815Y-88831320D01*
X120531795Y-88874765D01*
X120492185Y-88894947D01*
X120492184Y-88894948D01*
X120320215Y-89019889D01*
X120181398Y-89158706D01*
X120120075Y-89192190D01*
X120050383Y-89187206D01*
X119994450Y-89145334D01*
X119988178Y-89136120D01*
X119892712Y-88981344D01*
X119768657Y-88857289D01*
X119768656Y-88857288D01*
X119619334Y-88765186D01*
X119452797Y-88710001D01*
X119452795Y-88710000D01*
X119350010Y-88699500D01*
X118049998Y-88699500D01*
X118049981Y-88699501D01*
X117947203Y-88710000D01*
X117947200Y-88710001D01*
X117780668Y-88765185D01*
X117780663Y-88765187D01*
X117631342Y-88857289D01*
X117507289Y-88981342D01*
X117415187Y-89130663D01*
X117415185Y-89130668D01*
X117402372Y-89169336D01*
X117360001Y-89297203D01*
X117360001Y-89297204D01*
X117360000Y-89297204D01*
X117349500Y-89399983D01*
X117349500Y-91200001D01*
X117349501Y-91200018D01*
X117360000Y-91302796D01*
X117360001Y-91302799D01*
X117405894Y-91441294D01*
X117415186Y-91469334D01*
X117507288Y-91618656D01*
X117631344Y-91742712D01*
X117780666Y-91834814D01*
X117947203Y-91889999D01*
X118049991Y-91900500D01*
X119350008Y-91900499D01*
X119452797Y-91889999D01*
X119619334Y-91834814D01*
X119768656Y-91742712D01*
X119892712Y-91618656D01*
X119984814Y-91469334D01*
X119984814Y-91469331D01*
X119988178Y-91463879D01*
X120040126Y-91417154D01*
X120109088Y-91405931D01*
X120173170Y-91433774D01*
X120181398Y-91441294D01*
X120320213Y-91580109D01*
X120492179Y-91705048D01*
X120492181Y-91705049D01*
X120492184Y-91705051D01*
X120681588Y-91801557D01*
X120883757Y-91867246D01*
X121093713Y-91900500D01*
X121093714Y-91900500D01*
X121306286Y-91900500D01*
X121306287Y-91900500D01*
X121516243Y-91867246D01*
X121718412Y-91801557D01*
X121907816Y-91705051D01*
X121929789Y-91689086D01*
X122079786Y-91580109D01*
X122079788Y-91580106D01*
X122079792Y-91580104D01*
X122230104Y-91429792D01*
X122349683Y-91265204D01*
X122405011Y-91222540D01*
X122474624Y-91216561D01*
X122536420Y-91249166D01*
X122550313Y-91265199D01*
X122652560Y-91405931D01*
X122669896Y-91429792D01*
X122820213Y-91580109D01*
X122992179Y-91705048D01*
X122992181Y-91705049D01*
X122992184Y-91705051D01*
X123181588Y-91801557D01*
X123383757Y-91867246D01*
X123593713Y-91900500D01*
X123593714Y-91900500D01*
X123806286Y-91900500D01*
X123806287Y-91900500D01*
X124016243Y-91867246D01*
X124218412Y-91801557D01*
X124407816Y-91705051D01*
X124429789Y-91689086D01*
X124579786Y-91580109D01*
X124579788Y-91580106D01*
X124579792Y-91580104D01*
X124730104Y-91429792D01*
X124849991Y-91264779D01*
X124905320Y-91222115D01*
X124974933Y-91216136D01*
X125036729Y-91248741D01*
X125050627Y-91264781D01*
X125170272Y-91429459D01*
X125170276Y-91429464D01*
X125320535Y-91579723D01*
X125320540Y-91579727D01*
X125492442Y-91704620D01*
X125681782Y-91801095D01*
X125883871Y-91866757D01*
X125950000Y-91877231D01*
X125950000Y-90848482D01*
X125968409Y-90859111D01*
X126121009Y-90900000D01*
X126278991Y-90900000D01*
X126431591Y-90859111D01*
X126450000Y-90848482D01*
X126450000Y-91877230D01*
X126516126Y-91866757D01*
X126516129Y-91866757D01*
X126718217Y-91801095D01*
X126907557Y-91704620D01*
X127079459Y-91579727D01*
X127079464Y-91579723D01*
X127229721Y-91429466D01*
X127349371Y-91264781D01*
X127404701Y-91222115D01*
X127474314Y-91216136D01*
X127536110Y-91248741D01*
X127550008Y-91264781D01*
X127669890Y-91429785D01*
X127669894Y-91429790D01*
X127820213Y-91580109D01*
X127992179Y-91705048D01*
X127992181Y-91705049D01*
X127992184Y-91705051D01*
X128181588Y-91801557D01*
X128383757Y-91867246D01*
X128593713Y-91900500D01*
X128593714Y-91900500D01*
X128806286Y-91900500D01*
X128806287Y-91900500D01*
X129016243Y-91867246D01*
X129218412Y-91801557D01*
X129407816Y-91705051D01*
X129429789Y-91689086D01*
X129579786Y-91580109D01*
X129579788Y-91580106D01*
X129579792Y-91580104D01*
X129730104Y-91429792D01*
X129730106Y-91429788D01*
X129730109Y-91429786D01*
X129855048Y-91257820D01*
X129855047Y-91257820D01*
X129855051Y-91257816D01*
X129951557Y-91068412D01*
X130017246Y-90866243D01*
X130050500Y-90656287D01*
X130050500Y-89943713D01*
X130017246Y-89733757D01*
X129951557Y-89531588D01*
X129855051Y-89342184D01*
X129855049Y-89342181D01*
X129855048Y-89342179D01*
X129730109Y-89170213D01*
X129579792Y-89019896D01*
X129526729Y-88981344D01*
X129440377Y-88918605D01*
X129397712Y-88863277D01*
X129391733Y-88793663D01*
X129424338Y-88731868D01*
X129425443Y-88730746D01*
X129520340Y-88635850D01*
X129610908Y-88489016D01*
X129665174Y-88325253D01*
X129675500Y-88224177D01*
X129675499Y-87625824D01*
X129674129Y-87612416D01*
X129665174Y-87524747D01*
X129627345Y-87410588D01*
X129610908Y-87360984D01*
X129520340Y-87214150D01*
X129406017Y-87099827D01*
X129372532Y-87038504D01*
X129377516Y-86968812D01*
X129406017Y-86924464D01*
X129519948Y-86810533D01*
X129610448Y-86663811D01*
X129610453Y-86663800D01*
X129664680Y-86500152D01*
X129674999Y-86399154D01*
X129675000Y-86399141D01*
X129675000Y-86350000D01*
X127725001Y-86350000D01*
X127725001Y-86399154D01*
X127735319Y-86500152D01*
X127789546Y-86663800D01*
X127789551Y-86663811D01*
X127880052Y-86810534D01*
X127880055Y-86810538D01*
X127993982Y-86924465D01*
X128027467Y-86985788D01*
X128022483Y-87055480D01*
X127993983Y-87099827D01*
X127879659Y-87214151D01*
X127789093Y-87360981D01*
X127789092Y-87360984D01*
X127734826Y-87524747D01*
X127734826Y-87524748D01*
X127734825Y-87524748D01*
X127724500Y-87625815D01*
X127724500Y-88224169D01*
X127724501Y-88224187D01*
X127734825Y-88325252D01*
X127789092Y-88489015D01*
X127789093Y-88489018D01*
X127879661Y-88635851D01*
X127974417Y-88730607D01*
X128007902Y-88791930D01*
X128002918Y-88861622D01*
X127961046Y-88917555D01*
X127959621Y-88918606D01*
X127820214Y-89019890D01*
X127820209Y-89019894D01*
X127669894Y-89170209D01*
X127669890Y-89170214D01*
X127550008Y-89335218D01*
X127494678Y-89377884D01*
X127425065Y-89383863D01*
X127363270Y-89351257D01*
X127349372Y-89335218D01*
X127229727Y-89170540D01*
X127229723Y-89170535D01*
X127079464Y-89020276D01*
X127079459Y-89020272D01*
X126907557Y-88895379D01*
X126718215Y-88798903D01*
X126516124Y-88733241D01*
X126450000Y-88722768D01*
X126450000Y-89751517D01*
X126431591Y-89740889D01*
X126278991Y-89700000D01*
X126121009Y-89700000D01*
X125968409Y-89740889D01*
X125950000Y-89751517D01*
X125950000Y-88722768D01*
X125949999Y-88722768D01*
X125883875Y-88733241D01*
X125681784Y-88798903D01*
X125492442Y-88895379D01*
X125320540Y-89020272D01*
X125320535Y-89020276D01*
X125170276Y-89170535D01*
X125170272Y-89170540D01*
X125050627Y-89335218D01*
X124995297Y-89377884D01*
X124925684Y-89383863D01*
X124863889Y-89351257D01*
X124849991Y-89335218D01*
X124730109Y-89170214D01*
X124730105Y-89170209D01*
X124579786Y-89019890D01*
X124407815Y-88894948D01*
X124407814Y-88894947D01*
X124368205Y-88874765D01*
X124317409Y-88826791D01*
X124300500Y-88764281D01*
X124300500Y-88089060D01*
X124300501Y-88089047D01*
X124300501Y-87920945D01*
X124300501Y-87920943D01*
X124259577Y-87768215D01*
X124180520Y-87631284D01*
X122350080Y-85800845D01*
X127725000Y-85800845D01*
X127725000Y-85850000D01*
X128450000Y-85850000D01*
X128950000Y-85850000D01*
X129674999Y-85850000D01*
X129674999Y-85800860D01*
X129674998Y-85800845D01*
X129664680Y-85699847D01*
X129610453Y-85536199D01*
X129610448Y-85536188D01*
X129519947Y-85389465D01*
X129519944Y-85389461D01*
X129398038Y-85267555D01*
X129398034Y-85267552D01*
X129251311Y-85177051D01*
X129251300Y-85177046D01*
X129087652Y-85122819D01*
X128986654Y-85112500D01*
X128950000Y-85112500D01*
X128950000Y-85850000D01*
X128450000Y-85850000D01*
X128450000Y-85112500D01*
X128413361Y-85112500D01*
X128413343Y-85112501D01*
X128312347Y-85122819D01*
X128148699Y-85177046D01*
X128148688Y-85177051D01*
X128001965Y-85267552D01*
X128001961Y-85267555D01*
X127880055Y-85389461D01*
X127880052Y-85389465D01*
X127789551Y-85536188D01*
X127789546Y-85536199D01*
X127735319Y-85699847D01*
X127725000Y-85800845D01*
X122350080Y-85800845D01*
X122212589Y-85663354D01*
X122212588Y-85663352D01*
X122093717Y-85544481D01*
X122093716Y-85544480D01*
X122006904Y-85494360D01*
X122006904Y-85494359D01*
X122006900Y-85494358D01*
X121956785Y-85465423D01*
X121804057Y-85424499D01*
X121645943Y-85424499D01*
X121638347Y-85424499D01*
X121638331Y-85424500D01*
X115793295Y-85424500D01*
X115726256Y-85404815D01*
X115705614Y-85388181D01*
X112461819Y-82144386D01*
X112428334Y-82083063D01*
X112425500Y-82056705D01*
X112425500Y-78161494D01*
X112445185Y-78094455D01*
X112461819Y-78073813D01*
X113448814Y-77086819D01*
X113475741Y-77072115D01*
X113501560Y-77055523D01*
X113507760Y-77054631D01*
X113510137Y-77053334D01*
X113536495Y-77050500D01*
X113564281Y-77050500D01*
X113631320Y-77070185D01*
X113674765Y-77118205D01*
X113694947Y-77157814D01*
X113694948Y-77157815D01*
X113819890Y-77329786D01*
X113970209Y-77480105D01*
X113970214Y-77480109D01*
X114135218Y-77599991D01*
X114177884Y-77655320D01*
X114183863Y-77724934D01*
X114151258Y-77786729D01*
X114135218Y-77800627D01*
X113970540Y-77920272D01*
X113970535Y-77920276D01*
X113820276Y-78070535D01*
X113820272Y-78070540D01*
X113695379Y-78242442D01*
X113598904Y-78431782D01*
X113533242Y-78633870D01*
X113533242Y-78633873D01*
X113522769Y-78700000D01*
X114551518Y-78700000D01*
X114540889Y-78718409D01*
X114500000Y-78871009D01*
X114500000Y-79028991D01*
X114540889Y-79181591D01*
X114551518Y-79200000D01*
X113522769Y-79200000D01*
X113533242Y-79266126D01*
X113533242Y-79266129D01*
X113598904Y-79468217D01*
X113695379Y-79657557D01*
X113820272Y-79829459D01*
X113820276Y-79829464D01*
X113970535Y-79979723D01*
X113970540Y-79979727D01*
X114135218Y-80099372D01*
X114177884Y-80154701D01*
X114183863Y-80224315D01*
X114151258Y-80286110D01*
X114135218Y-80300008D01*
X113970214Y-80419890D01*
X113970209Y-80419894D01*
X113819890Y-80570213D01*
X113694951Y-80742179D01*
X113598444Y-80931585D01*
X113532753Y-81133760D01*
X113499500Y-81343713D01*
X113499500Y-81556287D01*
X113532754Y-81766243D01*
X113588481Y-81937753D01*
X113598444Y-81968414D01*
X113694951Y-82157820D01*
X113819890Y-82329786D01*
X113970213Y-82480109D01*
X114142179Y-82605048D01*
X114142181Y-82605049D01*
X114142184Y-82605051D01*
X114331588Y-82701557D01*
X114533757Y-82767246D01*
X114743713Y-82800500D01*
X114743714Y-82800500D01*
X115456286Y-82800500D01*
X115456287Y-82800500D01*
X115666243Y-82767246D01*
X115868412Y-82701557D01*
X116057816Y-82605051D01*
X116132900Y-82550500D01*
X116229786Y-82480109D01*
X116229788Y-82480106D01*
X116229792Y-82480104D01*
X116265303Y-82444592D01*
X116326624Y-82411107D01*
X116396316Y-82416091D01*
X116418077Y-82426732D01*
X116473484Y-82460908D01*
X116637247Y-82515174D01*
X116738323Y-82525500D01*
X117336676Y-82525499D01*
X117336684Y-82525498D01*
X117336687Y-82525498D01*
X117392030Y-82519844D01*
X117437753Y-82515174D01*
X117601516Y-82460908D01*
X117748350Y-82370340D01*
X117862675Y-82256014D01*
X117923994Y-82222532D01*
X117993686Y-82227516D01*
X118038034Y-82256017D01*
X118151961Y-82369944D01*
X118151965Y-82369947D01*
X118298688Y-82460448D01*
X118298699Y-82460453D01*
X118462347Y-82514680D01*
X118563351Y-82524999D01*
X119112500Y-82524999D01*
X119161640Y-82524999D01*
X119161654Y-82524998D01*
X119262652Y-82514680D01*
X119426300Y-82460453D01*
X119426311Y-82460448D01*
X119573034Y-82369947D01*
X119573038Y-82369944D01*
X119694944Y-82248038D01*
X119694947Y-82248034D01*
X119785448Y-82101311D01*
X119785453Y-82101300D01*
X119839680Y-81937652D01*
X119849999Y-81836654D01*
X119850000Y-81836641D01*
X119850000Y-81800000D01*
X119112500Y-81800000D01*
X119112500Y-82524999D01*
X118563351Y-82524999D01*
X118612499Y-82524998D01*
X118612500Y-82524998D01*
X118612500Y-81300000D01*
X119112500Y-81300000D01*
X119849999Y-81300000D01*
X119849999Y-81263360D01*
X119849998Y-81263345D01*
X119839680Y-81162347D01*
X119785453Y-80998699D01*
X119785448Y-80998688D01*
X119694947Y-80851965D01*
X119694944Y-80851961D01*
X119573038Y-80730055D01*
X119573034Y-80730052D01*
X119426311Y-80639551D01*
X119426300Y-80639546D01*
X119262652Y-80585319D01*
X119161654Y-80575000D01*
X119112500Y-80575000D01*
X119112500Y-81300000D01*
X118612500Y-81300000D01*
X118612500Y-80575000D01*
X118612499Y-80574999D01*
X118563361Y-80575000D01*
X118563343Y-80575001D01*
X118462347Y-80585319D01*
X118298699Y-80639546D01*
X118298688Y-80639551D01*
X118151965Y-80730052D01*
X118038034Y-80843983D01*
X117976711Y-80877467D01*
X117907019Y-80872483D01*
X117862672Y-80843982D01*
X117748351Y-80729661D01*
X117748350Y-80729660D01*
X117631438Y-80657548D01*
X117601518Y-80639093D01*
X117601513Y-80639091D01*
X117557643Y-80624554D01*
X117437753Y-80584826D01*
X117437751Y-80584825D01*
X117336678Y-80574500D01*
X116738330Y-80574500D01*
X116738312Y-80574501D01*
X116637247Y-80584825D01*
X116637241Y-80584827D01*
X116524601Y-80622152D01*
X116454773Y-80624554D01*
X116394731Y-80588822D01*
X116385279Y-80577330D01*
X116380107Y-80570211D01*
X116229790Y-80419894D01*
X116229785Y-80419890D01*
X116064781Y-80300008D01*
X116022115Y-80244678D01*
X116016136Y-80175065D01*
X116048741Y-80113270D01*
X116064781Y-80099371D01*
X116229466Y-79979721D01*
X116379723Y-79829464D01*
X116379727Y-79829459D01*
X116504620Y-79657557D01*
X116601095Y-79468217D01*
X116666757Y-79266129D01*
X116666757Y-79266126D01*
X116677231Y-79200000D01*
X115648482Y-79200000D01*
X115659111Y-79181591D01*
X115700000Y-79028991D01*
X115700000Y-78871009D01*
X115659111Y-78718409D01*
X115648482Y-78700000D01*
X116677231Y-78700000D01*
X116666757Y-78633873D01*
X116666757Y-78633870D01*
X116601095Y-78431782D01*
X116504620Y-78242442D01*
X116379727Y-78070540D01*
X116379723Y-78070535D01*
X116229464Y-77920276D01*
X116229459Y-77920272D01*
X116064781Y-77800627D01*
X116022115Y-77745297D01*
X116016136Y-77675684D01*
X116048741Y-77613889D01*
X116064776Y-77599994D01*
X116229792Y-77480104D01*
X116380104Y-77329792D01*
X116380106Y-77329788D01*
X116380109Y-77329786D01*
X116505048Y-77157820D01*
X116505047Y-77157820D01*
X116505051Y-77157816D01*
X116601557Y-76968412D01*
X116667246Y-76766243D01*
X116700500Y-76556287D01*
X116700500Y-76343713D01*
X116667246Y-76133757D01*
X116601557Y-75931588D01*
X116597256Y-75923146D01*
X116584361Y-75854477D01*
X116610639Y-75789737D01*
X116620052Y-75779181D01*
X118858506Y-73540728D01*
X118858511Y-73540724D01*
X118868714Y-73530520D01*
X118868716Y-73530520D01*
X118980520Y-73418716D01*
X119033151Y-73327555D01*
X119059577Y-73281785D01*
X119100500Y-73129057D01*
X119100500Y-72970943D01*
X119100500Y-67924999D01*
X119562500Y-67924999D01*
X119611640Y-67924999D01*
X119611654Y-67924998D01*
X119712652Y-67914680D01*
X119876300Y-67860453D01*
X119876311Y-67860448D01*
X120023034Y-67769947D01*
X120023038Y-67769944D01*
X120144944Y-67648038D01*
X120144947Y-67648034D01*
X120235448Y-67501311D01*
X120235453Y-67501300D01*
X120289680Y-67337652D01*
X120299999Y-67236654D01*
X120300000Y-67236641D01*
X120300000Y-67200000D01*
X119562500Y-67200000D01*
X119562500Y-67924999D01*
X119100500Y-67924999D01*
X119100500Y-66700000D01*
X119562500Y-66700000D01*
X120299999Y-66700000D01*
X120299999Y-66663360D01*
X120299998Y-66663345D01*
X120289680Y-66562347D01*
X120235453Y-66398699D01*
X120235448Y-66398688D01*
X120144947Y-66251965D01*
X120144944Y-66251961D01*
X120023038Y-66130055D01*
X120023034Y-66130052D01*
X119876311Y-66039551D01*
X119876300Y-66039546D01*
X119712652Y-65985319D01*
X119611654Y-65975000D01*
X119562500Y-65975000D01*
X119562500Y-66700000D01*
X119100500Y-66700000D01*
X119100500Y-64389060D01*
X119100501Y-64389047D01*
X119100501Y-64220944D01*
X119089185Y-64178713D01*
X119059577Y-64068216D01*
X119024629Y-64007683D01*
X118980524Y-63931290D01*
X118980518Y-63931282D01*
X117321015Y-62271779D01*
X117287530Y-62210456D01*
X117292514Y-62140764D01*
X117321015Y-62096417D01*
X118190847Y-61226585D01*
X121150520Y-58266914D01*
X121229577Y-58129982D01*
X121270501Y-57977255D01*
X121270501Y-57819140D01*
X121270501Y-57811545D01*
X121270500Y-57811527D01*
X121270500Y-54934499D01*
X121290185Y-54867460D01*
X121342989Y-54821705D01*
X121394500Y-54810499D01*
X121792871Y-54810499D01*
X121792872Y-54810499D01*
X121852483Y-54804091D01*
X121852486Y-54804089D01*
X121856744Y-54803632D01*
X121883254Y-54803632D01*
X121887514Y-54804089D01*
X121887517Y-54804091D01*
X121947127Y-54810500D01*
X122592872Y-54810499D01*
X122652483Y-54804091D01*
X122652486Y-54804089D01*
X122656744Y-54803632D01*
X122683254Y-54803632D01*
X122687514Y-54804089D01*
X122687517Y-54804091D01*
X122747127Y-54810500D01*
X123392872Y-54810499D01*
X123452483Y-54804091D01*
X123452484Y-54804090D01*
X123456750Y-54803632D01*
X123483259Y-54803633D01*
X123487520Y-54804091D01*
X123547130Y-54810500D01*
X123945500Y-54810499D01*
X124012539Y-54830183D01*
X124058294Y-54882987D01*
X124069500Y-54934499D01*
X124069500Y-59704902D01*
X124049815Y-59771941D01*
X124033181Y-59792583D01*
X122919481Y-60906282D01*
X122919475Y-60906290D01*
X122876769Y-60980261D01*
X122876769Y-60980262D01*
X122840423Y-61043214D01*
X122840423Y-61043215D01*
X122799499Y-61195943D01*
X122799499Y-61195945D01*
X122799499Y-61350500D01*
X122779814Y-61417539D01*
X122727010Y-61463294D01*
X122675501Y-61474500D01*
X122602130Y-61474500D01*
X122602123Y-61474501D01*
X122542516Y-61480908D01*
X122407671Y-61531202D01*
X122407664Y-61531206D01*
X122292455Y-61617452D01*
X122292452Y-61617455D01*
X122206206Y-61732664D01*
X122206202Y-61732671D01*
X122155908Y-61867517D01*
X122149501Y-61927116D01*
X122149500Y-61927135D01*
X122149500Y-63522870D01*
X122149501Y-63522876D01*
X122155908Y-63582483D01*
X122206202Y-63717328D01*
X122206206Y-63717335D01*
X122292452Y-63832544D01*
X122292455Y-63832547D01*
X122407664Y-63918793D01*
X122407671Y-63918797D01*
X122542517Y-63969091D01*
X122542516Y-63969091D01*
X122549444Y-63969835D01*
X122602127Y-63975500D01*
X123749902Y-63975499D01*
X123816941Y-63995184D01*
X123837583Y-64011818D01*
X127061139Y-67235374D01*
X127061149Y-67235385D01*
X127065479Y-67239715D01*
X127065480Y-67239716D01*
X127177284Y-67351520D01*
X127177286Y-67351521D01*
X127177290Y-67351524D01*
X127293145Y-67418412D01*
X127314216Y-67430577D01*
X127422446Y-67459577D01*
X127466942Y-67471500D01*
X127466943Y-67471500D01*
X131774831Y-67471500D01*
X131774847Y-67471501D01*
X131782443Y-67471501D01*
X131940554Y-67471501D01*
X131940557Y-67471501D01*
X132093285Y-67430577D01*
X132143404Y-67401639D01*
X132230216Y-67351520D01*
X132342020Y-67239716D01*
X132342021Y-67239713D01*
X132474918Y-67106815D01*
X132536239Y-67073333D01*
X132562597Y-67070499D01*
X132986670Y-67070499D01*
X132986676Y-67070499D01*
X133087753Y-67060174D01*
X133251516Y-67005908D01*
X133398350Y-66915340D01*
X133520340Y-66793350D01*
X133544362Y-66754404D01*
X133596310Y-66707679D01*
X133649901Y-66695500D01*
X134318331Y-66695500D01*
X134318347Y-66695501D01*
X134325943Y-66695501D01*
X134484054Y-66695501D01*
X134484057Y-66695501D01*
X134636785Y-66654577D01*
X134686904Y-66625639D01*
X134773716Y-66575520D01*
X134885520Y-66463716D01*
X134885521Y-66463714D01*
X135230520Y-66118716D01*
X135309577Y-65981784D01*
X135350501Y-65829057D01*
X135350501Y-65670942D01*
X135350501Y-65663347D01*
X135350500Y-65663329D01*
X135350500Y-65250537D01*
X135370185Y-65183498D01*
X135422989Y-65137743D01*
X135492147Y-65127799D01*
X135548808Y-65151269D01*
X135625220Y-65208471D01*
X135651568Y-65228195D01*
X135651571Y-65228197D01*
X135786417Y-65278491D01*
X135786416Y-65278491D01*
X135793344Y-65279235D01*
X135846027Y-65284900D01*
X137402272Y-65284899D01*
X137461883Y-65278491D01*
X137596731Y-65228196D01*
X137711946Y-65141946D01*
X137711947Y-65141944D01*
X137711949Y-65141943D01*
X137717074Y-65136819D01*
X137778397Y-65103334D01*
X137804755Y-65100500D01*
X138663331Y-65100500D01*
X138663347Y-65100501D01*
X138670943Y-65100501D01*
X138829054Y-65100501D01*
X138829057Y-65100501D01*
X138981785Y-65059577D01*
X139038675Y-65026731D01*
X139118716Y-64980520D01*
X139230520Y-64868716D01*
X139230520Y-64868714D01*
X139240724Y-64858511D01*
X139240728Y-64858506D01*
X139595465Y-64503768D01*
X139656786Y-64470285D01*
X139695747Y-64468093D01*
X139763351Y-64474999D01*
X139862500Y-64474998D01*
X139862500Y-63624000D01*
X139882185Y-63556961D01*
X139934989Y-63511206D01*
X139986500Y-63500000D01*
X140238500Y-63500000D01*
X140305539Y-63519685D01*
X140351294Y-63572489D01*
X140362500Y-63624000D01*
X140362500Y-64474999D01*
X140363181Y-64475680D01*
X140396666Y-64537003D01*
X140399500Y-64563361D01*
X140399500Y-68299902D01*
X140379815Y-68366941D01*
X140363181Y-68387583D01*
X138560507Y-70190256D01*
X138499184Y-70223741D01*
X138497019Y-70224192D01*
X138466507Y-70230261D01*
X138466500Y-70230263D01*
X138320827Y-70290602D01*
X138320814Y-70290609D01*
X138189125Y-70378602D01*
X138122447Y-70399480D01*
X138120234Y-70399500D01*
X133808731Y-70399500D01*
X133650616Y-70399500D01*
X133497889Y-70440423D01*
X133497888Y-70440423D01*
X133497886Y-70440424D01*
X133497883Y-70440425D01*
X133447770Y-70469359D01*
X133447769Y-70469360D01*
X133438146Y-70474916D01*
X133360959Y-70519479D01*
X133360956Y-70519481D01*
X131019481Y-72860956D01*
X131019475Y-72860964D01*
X130979546Y-72930125D01*
X130979546Y-72930127D01*
X130940423Y-72997888D01*
X130940423Y-72997889D01*
X130899499Y-73150617D01*
X130899499Y-73150619D01*
X130899499Y-73318720D01*
X130899500Y-73318733D01*
X130899500Y-85163330D01*
X130899499Y-85163348D01*
X130899499Y-85329054D01*
X130899498Y-85329054D01*
X130939577Y-85478630D01*
X130940423Y-85481785D01*
X130962335Y-85519737D01*
X131009549Y-85601515D01*
X131019479Y-85618714D01*
X131019480Y-85618716D01*
X131138349Y-85737585D01*
X131138354Y-85737589D01*
X134131284Y-88730520D01*
X134131286Y-88730521D01*
X134131290Y-88730524D01*
X134237650Y-88791930D01*
X134268216Y-88809577D01*
X134420943Y-88850501D01*
X134420945Y-88850501D01*
X134586654Y-88850501D01*
X134586670Y-88850500D01*
X134892465Y-88850500D01*
X134959504Y-88870185D01*
X135005259Y-88922989D01*
X135015823Y-88961898D01*
X135020001Y-89002797D01*
X135020001Y-89002799D01*
X135075185Y-89169331D01*
X135075187Y-89169336D01*
X135110069Y-89225888D01*
X135167288Y-89318656D01*
X135291344Y-89442712D01*
X135440666Y-89534814D01*
X135607203Y-89589999D01*
X135709991Y-89600500D01*
X137510008Y-89600499D01*
X137612797Y-89589999D01*
X137779334Y-89534814D01*
X137928656Y-89442712D01*
X138052712Y-89318656D01*
X138144814Y-89169334D01*
X138199999Y-89002797D01*
X138210500Y-88900009D01*
X138210499Y-88163389D01*
X142689500Y-88163389D01*
X142689500Y-88336610D01*
X142713638Y-88489016D01*
X142716598Y-88507701D01*
X142770127Y-88672445D01*
X142848768Y-88826788D01*
X142950586Y-88966928D01*
X143073072Y-89089414D01*
X143213212Y-89191232D01*
X143367555Y-89269873D01*
X143532299Y-89323402D01*
X143703389Y-89350500D01*
X143703390Y-89350500D01*
X143876610Y-89350500D01*
X143876611Y-89350500D01*
X144047701Y-89323402D01*
X144212445Y-89269873D01*
X144366788Y-89191232D01*
X144506928Y-89089414D01*
X144629414Y-88966928D01*
X144731232Y-88826788D01*
X144809873Y-88672445D01*
X144863402Y-88507701D01*
X144890500Y-88336611D01*
X144890500Y-88163389D01*
X144863402Y-87992299D01*
X144809873Y-87827555D01*
X144731232Y-87673212D01*
X144629414Y-87533072D01*
X144506928Y-87410586D01*
X144366788Y-87308768D01*
X144212445Y-87230127D01*
X144047701Y-87176598D01*
X144047699Y-87176597D01*
X144047698Y-87176597D01*
X143916271Y-87155781D01*
X143876611Y-87149500D01*
X143703389Y-87149500D01*
X143663728Y-87155781D01*
X143532302Y-87176597D01*
X143367552Y-87230128D01*
X143213211Y-87308768D01*
X143183069Y-87330668D01*
X143073072Y-87410586D01*
X143073070Y-87410588D01*
X143073069Y-87410588D01*
X142950588Y-87533069D01*
X142950588Y-87533070D01*
X142950586Y-87533072D01*
X142921784Y-87572714D01*
X142848768Y-87673211D01*
X142770128Y-87827552D01*
X142716597Y-87992302D01*
X142689500Y-88163389D01*
X138210499Y-88163389D01*
X138210499Y-87599992D01*
X138199999Y-87497203D01*
X138144814Y-87330666D01*
X138052712Y-87181344D01*
X137928656Y-87057288D01*
X137779334Y-86965186D01*
X137779332Y-86965185D01*
X137773440Y-86961551D01*
X137726716Y-86909603D01*
X137715493Y-86840641D01*
X137743337Y-86776558D01*
X137750856Y-86768330D01*
X137889728Y-86629458D01*
X138014620Y-86457557D01*
X138111095Y-86268217D01*
X138176757Y-86066129D01*
X138176757Y-86066126D01*
X138187231Y-86000000D01*
X137158482Y-86000000D01*
X137169111Y-85981591D01*
X137210000Y-85828991D01*
X137210000Y-85671009D01*
X137169111Y-85518409D01*
X137158482Y-85500000D01*
X138215912Y-85500000D01*
X138282951Y-85519685D01*
X138328706Y-85572489D01*
X138333614Y-85584986D01*
X138339092Y-85601516D01*
X138429660Y-85748350D01*
X138551650Y-85870340D01*
X138698484Y-85960908D01*
X138862247Y-86015174D01*
X138963323Y-86025500D01*
X139536676Y-86025499D01*
X139536684Y-86025498D01*
X139536687Y-86025498D01*
X139592030Y-86019844D01*
X139637753Y-86015174D01*
X139801516Y-85960908D01*
X139948350Y-85870340D01*
X140031871Y-85786819D01*
X140093194Y-85753334D01*
X140119552Y-85750500D01*
X140323920Y-85750500D01*
X140424362Y-85730520D01*
X140468913Y-85721658D01*
X140605495Y-85665084D01*
X140674890Y-85618716D01*
X140728416Y-85582952D01*
X140818417Y-85492949D01*
X140821730Y-85490076D01*
X140829764Y-85486402D01*
X140855521Y-85469192D01*
X140879179Y-85459394D01*
X141010289Y-85371789D01*
X141121789Y-85260289D01*
X141209394Y-85129179D01*
X141269737Y-84983497D01*
X141300500Y-84828842D01*
X141300500Y-84671158D01*
X141300500Y-84671155D01*
X141300499Y-84671153D01*
X141269737Y-84516503D01*
X141263546Y-84501557D01*
X141209397Y-84370827D01*
X141209390Y-84370814D01*
X141121789Y-84239711D01*
X141121786Y-84239707D01*
X141010292Y-84128213D01*
X141010288Y-84128210D01*
X140879185Y-84040609D01*
X140879172Y-84040602D01*
X140733501Y-83980264D01*
X140733489Y-83980261D01*
X140578845Y-83949500D01*
X140578842Y-83949500D01*
X140421158Y-83949500D01*
X140316672Y-83970283D01*
X140247081Y-83964055D01*
X140191904Y-83921191D01*
X140168660Y-83855301D01*
X140174774Y-83809669D01*
X140215174Y-83687753D01*
X140225500Y-83586677D01*
X140225499Y-83163389D01*
X142689500Y-83163389D01*
X142689500Y-83336611D01*
X142716598Y-83507701D01*
X142770127Y-83672445D01*
X142848768Y-83826788D01*
X142950586Y-83966928D01*
X143073072Y-84089414D01*
X143213212Y-84191232D01*
X143367555Y-84269873D01*
X143532299Y-84323402D01*
X143703389Y-84350500D01*
X143703390Y-84350500D01*
X143876610Y-84350500D01*
X143876611Y-84350500D01*
X144047701Y-84323402D01*
X144212445Y-84269873D01*
X144366788Y-84191232D01*
X144506928Y-84089414D01*
X144629414Y-83966928D01*
X144731232Y-83826788D01*
X144809873Y-83672445D01*
X144863402Y-83507701D01*
X144890500Y-83336611D01*
X144890500Y-83163389D01*
X144863402Y-82992299D01*
X144809873Y-82827555D01*
X144731232Y-82673212D01*
X144629414Y-82533072D01*
X144506928Y-82410586D01*
X144366788Y-82308768D01*
X144212445Y-82230127D01*
X144047701Y-82176598D01*
X144047699Y-82176597D01*
X144047698Y-82176597D01*
X143916271Y-82155781D01*
X143876611Y-82149500D01*
X143703389Y-82149500D01*
X143663728Y-82155781D01*
X143532302Y-82176597D01*
X143367552Y-82230128D01*
X143213211Y-82308768D01*
X143133256Y-82366859D01*
X143073072Y-82410586D01*
X143073070Y-82410588D01*
X143073069Y-82410588D01*
X142950588Y-82533069D01*
X142950588Y-82533070D01*
X142950586Y-82533072D01*
X142943966Y-82542184D01*
X142848768Y-82673211D01*
X142770128Y-82827552D01*
X142716597Y-82992302D01*
X142710502Y-83030788D01*
X142689500Y-83163389D01*
X140225499Y-83163389D01*
X140225499Y-82913324D01*
X140215174Y-82812247D01*
X140211281Y-82800500D01*
X140188445Y-82731585D01*
X140160908Y-82648484D01*
X140070340Y-82501650D01*
X139948350Y-82379660D01*
X139802038Y-82289414D01*
X139801518Y-82289093D01*
X139801513Y-82289091D01*
X139800069Y-82288612D01*
X139637753Y-82234826D01*
X139637751Y-82234825D01*
X139536678Y-82224500D01*
X138963330Y-82224500D01*
X138963312Y-82224501D01*
X138862247Y-82234825D01*
X138698484Y-82289092D01*
X138698481Y-82289093D01*
X138551648Y-82379661D01*
X138429659Y-82501650D01*
X138374798Y-82590596D01*
X138367211Y-82597419D01*
X138362972Y-82606703D01*
X138341671Y-82620391D01*
X138322850Y-82637321D01*
X138311214Y-82639965D01*
X138304194Y-82644477D01*
X138269259Y-82649500D01*
X138145719Y-82649500D01*
X138078680Y-82629815D01*
X138035235Y-82581795D01*
X138015052Y-82542185D01*
X138015051Y-82542184D01*
X137890109Y-82370213D01*
X137739786Y-82219890D01*
X137567820Y-82094951D01*
X137378414Y-81998444D01*
X137378413Y-81998443D01*
X137378412Y-81998443D01*
X137176243Y-81932754D01*
X137176241Y-81932753D01*
X137176240Y-81932753D01*
X137014957Y-81907208D01*
X136966287Y-81899500D01*
X136253713Y-81899500D01*
X136205042Y-81907208D01*
X136043760Y-81932753D01*
X135841585Y-81998444D01*
X135652179Y-82094951D01*
X135480213Y-82219890D01*
X135329890Y-82370213D01*
X135204951Y-82542179D01*
X135108444Y-82731585D01*
X135042753Y-82933760D01*
X135009500Y-83143713D01*
X135009500Y-83356287D01*
X135042754Y-83566243D01*
X135082235Y-83687753D01*
X135108444Y-83768414D01*
X135204951Y-83957820D01*
X135329890Y-84129786D01*
X135480209Y-84280105D01*
X135480214Y-84280109D01*
X135645218Y-84399991D01*
X135687884Y-84455320D01*
X135693863Y-84524934D01*
X135661258Y-84586729D01*
X135645218Y-84600627D01*
X135480540Y-84720272D01*
X135480535Y-84720276D01*
X135330276Y-84870535D01*
X135330272Y-84870540D01*
X135205379Y-85042442D01*
X135108904Y-85231782D01*
X135043242Y-85433870D01*
X135043242Y-85433873D01*
X135032769Y-85500000D01*
X136061518Y-85500000D01*
X136050889Y-85518409D01*
X136010000Y-85671009D01*
X136010000Y-85828991D01*
X136050889Y-85981591D01*
X136061518Y-86000000D01*
X135032769Y-86000000D01*
X135043242Y-86066126D01*
X135043242Y-86066129D01*
X135108904Y-86268217D01*
X135205379Y-86457557D01*
X135330272Y-86629459D01*
X135330276Y-86629464D01*
X135469143Y-86768331D01*
X135502628Y-86829654D01*
X135497644Y-86899346D01*
X135455772Y-86955279D01*
X135446559Y-86961551D01*
X135291342Y-87057289D01*
X135167289Y-87181342D01*
X135075187Y-87330663D01*
X135075185Y-87330668D01*
X135065139Y-87360986D01*
X135022700Y-87489060D01*
X135020001Y-87497204D01*
X135020000Y-87497205D01*
X135015823Y-87538102D01*
X135014828Y-87540540D01*
X135015203Y-87543147D01*
X135001699Y-87572714D01*
X134989427Y-87602793D01*
X134987272Y-87604305D01*
X134986178Y-87606703D01*
X134958829Y-87624278D01*
X134932247Y-87642945D01*
X134928934Y-87643490D01*
X134927400Y-87644477D01*
X134892465Y-87649500D01*
X134800098Y-87649500D01*
X134733059Y-87629815D01*
X134712417Y-87613181D01*
X132136819Y-85037583D01*
X132103334Y-84976260D01*
X132100500Y-84949902D01*
X132100500Y-73529771D01*
X132120185Y-73462732D01*
X132136819Y-73442090D01*
X132449854Y-73129055D01*
X132805746Y-72773162D01*
X132867067Y-72739679D01*
X132936758Y-72744663D01*
X132992692Y-72786534D01*
X133017109Y-72851999D01*
X133002257Y-72920272D01*
X132993744Y-72933729D01*
X132914950Y-73042181D01*
X132818444Y-73231585D01*
X132752753Y-73433760D01*
X132724484Y-73612247D01*
X132719500Y-73643713D01*
X132719500Y-73856287D01*
X132752754Y-74066243D01*
X132817738Y-74266243D01*
X132818444Y-74268414D01*
X132914951Y-74457820D01*
X133039890Y-74629786D01*
X133039896Y-74629792D01*
X133190208Y-74780104D01*
X133355219Y-74899991D01*
X133397884Y-74955319D01*
X133403863Y-75024932D01*
X133371258Y-75086728D01*
X133355218Y-75100626D01*
X133308282Y-75134726D01*
X133308282Y-75134728D01*
X133858941Y-75685387D01*
X133838409Y-75690889D01*
X133701592Y-75769881D01*
X133589881Y-75881592D01*
X133510889Y-76018409D01*
X133505387Y-76038941D01*
X132954728Y-75488282D01*
X132954727Y-75488282D01*
X132915380Y-75542439D01*
X132818904Y-75731782D01*
X132753242Y-75933869D01*
X132753242Y-75933872D01*
X132720000Y-76143753D01*
X132720000Y-76356246D01*
X132753242Y-76566127D01*
X132753242Y-76566130D01*
X132818904Y-76768217D01*
X132915375Y-76957550D01*
X132954728Y-77011716D01*
X133505387Y-76461058D01*
X133510889Y-76481591D01*
X133589881Y-76618408D01*
X133701592Y-76730119D01*
X133838409Y-76809111D01*
X133858940Y-76814612D01*
X133290309Y-77383242D01*
X133290045Y-77384501D01*
X133278997Y-77396231D01*
X133272988Y-77408770D01*
X133245891Y-77431384D01*
X133243973Y-77432567D01*
X133214428Y-77440651D01*
X133215602Y-77444193D01*
X133150882Y-77465639D01*
X133150881Y-77465640D01*
X133001654Y-77557684D01*
X132877684Y-77681654D01*
X132785643Y-77830875D01*
X132785641Y-77830880D01*
X132730494Y-77997302D01*
X132730493Y-77997309D01*
X132720000Y-78100013D01*
X132720000Y-78500000D01*
X133521518Y-78500000D01*
X133510889Y-78518409D01*
X133470000Y-78671009D01*
X133470000Y-78828991D01*
X133510889Y-78981591D01*
X133521518Y-79000000D01*
X132720001Y-79000000D01*
X132720001Y-79399986D01*
X132730494Y-79502697D01*
X132785641Y-79669119D01*
X132785643Y-79669124D01*
X132877684Y-79818345D01*
X133001654Y-79942315D01*
X133150875Y-80034356D01*
X133150880Y-80034358D01*
X133317302Y-80089505D01*
X133317309Y-80089506D01*
X133420019Y-80099999D01*
X133819999Y-80099999D01*
X133820000Y-80099998D01*
X133820000Y-79298482D01*
X133838409Y-79309111D01*
X133991009Y-79350000D01*
X134148991Y-79350000D01*
X134301591Y-79309111D01*
X134320000Y-79298482D01*
X134320000Y-80099999D01*
X134719972Y-80099999D01*
X134719986Y-80099998D01*
X134822697Y-80089505D01*
X134989119Y-80034358D01*
X134989124Y-80034356D01*
X135138345Y-79942315D01*
X135262317Y-79818343D01*
X135357815Y-79663516D01*
X135409763Y-79616791D01*
X135478725Y-79605568D01*
X135542808Y-79633412D01*
X135551035Y-79640931D01*
X135690213Y-79780109D01*
X135862179Y-79905048D01*
X135862181Y-79905049D01*
X135862184Y-79905051D01*
X136051588Y-80001557D01*
X136253757Y-80067246D01*
X136463713Y-80100500D01*
X136463714Y-80100500D01*
X136676286Y-80100500D01*
X136676287Y-80100500D01*
X136886243Y-80067246D01*
X137088412Y-80001557D01*
X137277816Y-79905051D01*
X137352900Y-79850500D01*
X137449786Y-79780109D01*
X137449788Y-79780106D01*
X137449792Y-79780104D01*
X137600104Y-79629792D01*
X137600106Y-79629788D01*
X137600109Y-79629786D01*
X137692443Y-79502697D01*
X137725051Y-79457816D01*
X137725349Y-79457230D01*
X137745235Y-79418205D01*
X137793209Y-79367409D01*
X137855719Y-79350500D01*
X140519259Y-79350500D01*
X140586298Y-79370185D01*
X140624797Y-79409402D01*
X140679660Y-79498350D01*
X140801650Y-79620340D01*
X140948484Y-79710908D01*
X141112247Y-79765174D01*
X141213323Y-79775500D01*
X141786676Y-79775499D01*
X141786684Y-79775498D01*
X141786687Y-79775498D01*
X141842030Y-79769844D01*
X141887753Y-79765174D01*
X142051516Y-79710908D01*
X142198350Y-79620340D01*
X142320340Y-79498350D01*
X142410908Y-79351516D01*
X142465174Y-79187753D01*
X142470025Y-79140260D01*
X142496420Y-79075571D01*
X142553600Y-79035419D01*
X142623411Y-79032555D01*
X142683688Y-79067888D01*
X142711314Y-79114545D01*
X142730128Y-79172449D01*
X142777859Y-79266126D01*
X142808768Y-79326788D01*
X142910586Y-79466928D01*
X143033072Y-79589414D01*
X143173212Y-79691232D01*
X143327555Y-79769873D01*
X143492299Y-79823402D01*
X143663389Y-79850500D01*
X143663390Y-79850500D01*
X143836610Y-79850500D01*
X143836611Y-79850500D01*
X144007701Y-79823402D01*
X144172445Y-79769873D01*
X144326788Y-79691232D01*
X144466928Y-79589414D01*
X144589414Y-79466928D01*
X144691232Y-79326788D01*
X144769873Y-79172445D01*
X144823402Y-79007701D01*
X144850500Y-78836611D01*
X144850500Y-78663389D01*
X144823402Y-78492299D01*
X144769873Y-78327555D01*
X144691232Y-78173212D01*
X144589414Y-78033072D01*
X144466928Y-77910586D01*
X144326788Y-77808768D01*
X144172445Y-77730127D01*
X144007701Y-77676598D01*
X144007699Y-77676597D01*
X144007698Y-77676597D01*
X143873357Y-77655320D01*
X143836611Y-77649500D01*
X143663389Y-77649500D01*
X143626643Y-77655320D01*
X143492302Y-77676597D01*
X143327552Y-77730128D01*
X143173211Y-77808768D01*
X143103979Y-77859069D01*
X143033072Y-77910586D01*
X143033070Y-77910588D01*
X143033069Y-77910588D01*
X142910588Y-78033069D01*
X142910588Y-78033070D01*
X142910586Y-78033072D01*
X142883364Y-78070540D01*
X142808768Y-78173211D01*
X142730128Y-78327550D01*
X142711314Y-78385456D01*
X142671876Y-78443131D01*
X142607517Y-78470329D01*
X142538671Y-78458414D01*
X142487195Y-78411170D01*
X142470025Y-78359738D01*
X142469030Y-78350000D01*
X142465174Y-78312247D01*
X142410908Y-78148484D01*
X142320340Y-78001650D01*
X142281371Y-77962681D01*
X142247886Y-77901358D01*
X142252870Y-77831666D01*
X142281371Y-77787319D01*
X142298630Y-77770060D01*
X142320340Y-77748350D01*
X142410908Y-77601516D01*
X142465174Y-77437753D01*
X142475500Y-77336677D01*
X142475499Y-76663324D01*
X142465174Y-76562247D01*
X142410908Y-76398484D01*
X142384857Y-76356249D01*
X142366418Y-76288858D01*
X142387341Y-76222195D01*
X142402715Y-76203474D01*
X142407840Y-76198350D01*
X142498408Y-76051516D01*
X142552674Y-75887753D01*
X142563000Y-75786677D01*
X142562999Y-75213324D01*
X142559510Y-75179172D01*
X142552674Y-75112247D01*
X142526580Y-75033501D01*
X142498408Y-74948484D01*
X142498404Y-74948478D01*
X142498403Y-74948475D01*
X142416134Y-74815097D01*
X142397693Y-74747705D01*
X142416134Y-74684903D01*
X142462173Y-74610263D01*
X142498408Y-74551516D01*
X142552674Y-74387753D01*
X142557860Y-74336988D01*
X142584256Y-74272297D01*
X142641436Y-74232146D01*
X142711247Y-74229282D01*
X142771524Y-74264616D01*
X142791703Y-74293296D01*
X142808768Y-74326788D01*
X142910586Y-74466928D01*
X143033072Y-74589414D01*
X143173212Y-74691232D01*
X143327555Y-74769873D01*
X143492299Y-74823402D01*
X143663389Y-74850500D01*
X143663390Y-74850500D01*
X143836610Y-74850500D01*
X143836611Y-74850500D01*
X144007701Y-74823402D01*
X144172445Y-74769873D01*
X144326788Y-74691232D01*
X144466928Y-74589414D01*
X144589414Y-74466928D01*
X144691232Y-74326788D01*
X144769873Y-74172445D01*
X144823402Y-74007701D01*
X144850500Y-73836611D01*
X144850500Y-73663389D01*
X144823402Y-73492299D01*
X144769873Y-73327555D01*
X144691232Y-73173212D01*
X144589414Y-73033072D01*
X144466928Y-72910586D01*
X144326788Y-72808768D01*
X144172445Y-72730127D01*
X144007701Y-72676598D01*
X144007699Y-72676597D01*
X144007698Y-72676597D01*
X143876271Y-72655781D01*
X143836611Y-72649500D01*
X143663389Y-72649500D01*
X143631192Y-72654599D01*
X143492301Y-72676597D01*
X143364818Y-72718019D01*
X143294977Y-72720014D01*
X143235144Y-72683933D01*
X143204316Y-72621232D01*
X143202500Y-72600088D01*
X143202500Y-71424500D01*
X143222185Y-71357461D01*
X143274989Y-71311706D01*
X143322802Y-71301304D01*
X143322782Y-71301097D01*
X143324561Y-71300921D01*
X143326500Y-71300500D01*
X143328844Y-71300500D01*
X143328845Y-71300499D01*
X143483497Y-71269737D01*
X143629179Y-71209394D01*
X143760289Y-71121789D01*
X143871789Y-71010289D01*
X143959394Y-70879179D01*
X143961727Y-70873548D01*
X143976247Y-70838491D01*
X144019737Y-70733497D01*
X144050500Y-70578842D01*
X144050500Y-70421158D01*
X144050500Y-70421155D01*
X144050499Y-70421153D01*
X144024531Y-70290606D01*
X144019737Y-70266503D01*
X144018383Y-70263235D01*
X143959397Y-70120827D01*
X143959390Y-70120814D01*
X143871398Y-69989125D01*
X143850520Y-69922447D01*
X143850500Y-69920234D01*
X143850500Y-67209342D01*
X143870185Y-67142303D01*
X143922989Y-67096548D01*
X143992147Y-67086604D01*
X144055703Y-67115629D01*
X144092429Y-67171022D01*
X144148443Y-67343412D01*
X144148444Y-67343414D01*
X144244951Y-67532820D01*
X144369890Y-67704786D01*
X144520213Y-67855109D01*
X144692179Y-67980048D01*
X144692181Y-67980049D01*
X144692184Y-67980051D01*
X144881588Y-68076557D01*
X145083757Y-68142246D01*
X145293713Y-68175500D01*
X145293714Y-68175500D01*
X145506286Y-68175500D01*
X145506287Y-68175500D01*
X145716243Y-68142246D01*
X145918412Y-68076557D01*
X146107816Y-67980051D01*
X146183589Y-67924999D01*
X146279786Y-67855109D01*
X146279788Y-67855106D01*
X146279792Y-67855104D01*
X146430104Y-67704792D01*
X146430106Y-67704788D01*
X146430109Y-67704786D01*
X146555048Y-67532820D01*
X146555047Y-67532820D01*
X146555051Y-67532816D01*
X146651557Y-67343412D01*
X146717246Y-67141243D01*
X146750500Y-66931287D01*
X146750500Y-66718713D01*
X146717246Y-66508757D01*
X146651557Y-66306588D01*
X146555051Y-66117184D01*
X146555049Y-66117181D01*
X146555048Y-66117179D01*
X146430109Y-65945213D01*
X146279786Y-65794890D01*
X146107820Y-65669951D01*
X146107115Y-65669591D01*
X146099054Y-65665485D01*
X146048259Y-65617512D01*
X146031463Y-65549692D01*
X146053999Y-65483556D01*
X146099054Y-65444515D01*
X146107816Y-65440051D01*
X146129789Y-65424086D01*
X146279786Y-65315109D01*
X146279788Y-65315106D01*
X146279792Y-65315104D01*
X146430104Y-65164792D01*
X146430106Y-65164788D01*
X146430109Y-65164786D01*
X146539086Y-65014789D01*
X146555051Y-64992816D01*
X146651557Y-64803412D01*
X146717246Y-64601243D01*
X146750500Y-64391287D01*
X146750500Y-64178713D01*
X146717246Y-63968757D01*
X146651557Y-63766588D01*
X146555051Y-63577184D01*
X146555049Y-63577181D01*
X146555048Y-63577179D01*
X146430109Y-63405213D01*
X146279786Y-63254890D01*
X146107820Y-63129951D01*
X146107115Y-63129591D01*
X146099054Y-63125485D01*
X146048259Y-63077512D01*
X146031463Y-63009692D01*
X146053999Y-62943556D01*
X146099054Y-62904515D01*
X146107816Y-62900051D01*
X146179298Y-62848117D01*
X146279786Y-62775109D01*
X146279788Y-62775106D01*
X146279792Y-62775104D01*
X146430104Y-62624792D01*
X146430106Y-62624788D01*
X146430109Y-62624786D01*
X146555048Y-62452820D01*
X146555047Y-62452820D01*
X146555051Y-62452816D01*
X146651557Y-62263412D01*
X146717246Y-62061243D01*
X146750500Y-61851287D01*
X146750500Y-61638713D01*
X146717246Y-61428757D01*
X146651557Y-61226588D01*
X146555051Y-61037184D01*
X146555049Y-61037181D01*
X146555048Y-61037179D01*
X146430109Y-60865213D01*
X146279786Y-60714890D01*
X146107820Y-60589951D01*
X146107115Y-60589591D01*
X146099054Y-60585485D01*
X146048259Y-60537512D01*
X146031463Y-60469692D01*
X146053999Y-60403556D01*
X146099054Y-60364515D01*
X146107816Y-60360051D01*
X146218284Y-60279792D01*
X146279786Y-60235109D01*
X146279788Y-60235106D01*
X146279792Y-60235104D01*
X146430104Y-60084792D01*
X146430106Y-60084788D01*
X146430109Y-60084786D01*
X146555048Y-59912820D01*
X146555047Y-59912820D01*
X146555051Y-59912816D01*
X146651557Y-59723412D01*
X146717246Y-59521243D01*
X146750500Y-59311287D01*
X146750500Y-59098713D01*
X146717246Y-58888757D01*
X146651557Y-58686588D01*
X146555051Y-58497184D01*
X146555049Y-58497181D01*
X146555048Y-58497179D01*
X146430109Y-58325213D01*
X146279786Y-58174890D01*
X146107820Y-58049951D01*
X146107115Y-58049591D01*
X146099054Y-58045485D01*
X146048259Y-57997512D01*
X146031463Y-57929692D01*
X146053999Y-57863556D01*
X146099054Y-57824515D01*
X146107816Y-57820051D01*
X146129789Y-57804086D01*
X146279786Y-57695109D01*
X146279788Y-57695106D01*
X146279792Y-57695104D01*
X146430104Y-57544792D01*
X146430106Y-57544788D01*
X146430109Y-57544786D01*
X146555048Y-57372820D01*
X146555047Y-57372820D01*
X146555051Y-57372816D01*
X146651557Y-57183412D01*
X146717246Y-56981243D01*
X146750500Y-56771287D01*
X146750500Y-56558713D01*
X146717246Y-56348757D01*
X146651557Y-56146588D01*
X146555051Y-55957184D01*
X146555049Y-55957181D01*
X146555048Y-55957179D01*
X146430109Y-55785213D01*
X146316181Y-55671285D01*
X146282696Y-55609962D01*
X146287680Y-55540270D01*
X146329552Y-55484337D01*
X146360529Y-55467422D01*
X146492086Y-55418354D01*
X146492093Y-55418350D01*
X146607187Y-55332190D01*
X146607190Y-55332187D01*
X146693350Y-55217093D01*
X146693354Y-55217086D01*
X146743596Y-55082379D01*
X146743598Y-55082372D01*
X146749999Y-55022844D01*
X146750000Y-55022827D01*
X146750000Y-54375000D01*
X145833012Y-54375000D01*
X145865925Y-54317993D01*
X145900000Y-54190826D01*
X145900000Y-54059174D01*
X145865925Y-53932007D01*
X145833012Y-53875000D01*
X146750000Y-53875000D01*
X146750000Y-53227172D01*
X146749999Y-53227155D01*
X146743598Y-53167627D01*
X146743596Y-53167620D01*
X146693354Y-53032913D01*
X146693350Y-53032906D01*
X146607190Y-52917812D01*
X146607187Y-52917809D01*
X146492093Y-52831649D01*
X146492086Y-52831645D01*
X146357379Y-52781403D01*
X146357372Y-52781401D01*
X146297844Y-52775000D01*
X145650000Y-52775000D01*
X145650000Y-53691988D01*
X145592993Y-53659075D01*
X145465826Y-53625000D01*
X145334174Y-53625000D01*
X145207007Y-53659075D01*
X145150000Y-53691988D01*
X145150000Y-52775000D01*
X144502155Y-52775000D01*
X144442627Y-52781401D01*
X144442620Y-52781403D01*
X144307913Y-52831645D01*
X144307906Y-52831649D01*
X144192812Y-52917809D01*
X144192809Y-52917812D01*
X144106649Y-53032906D01*
X144106645Y-53032913D01*
X144056403Y-53167620D01*
X144056401Y-53167627D01*
X144050000Y-53227155D01*
X144050000Y-53875000D01*
X144966988Y-53875000D01*
X144934075Y-53932007D01*
X144900000Y-54059174D01*
X144900000Y-54190826D01*
X144934075Y-54317993D01*
X144966988Y-54375000D01*
X144050000Y-54375000D01*
X144050000Y-55022844D01*
X144056401Y-55082372D01*
X144056403Y-55082379D01*
X144106645Y-55217086D01*
X144106649Y-55217093D01*
X144192809Y-55332187D01*
X144192812Y-55332190D01*
X144307906Y-55418350D01*
X144307913Y-55418354D01*
X144439470Y-55467422D01*
X144495404Y-55509293D01*
X144519821Y-55574758D01*
X144504969Y-55643031D01*
X144483819Y-55671285D01*
X144369889Y-55785215D01*
X144244951Y-55957179D01*
X144148444Y-56146585D01*
X144082753Y-56348760D01*
X144049500Y-56558713D01*
X144049500Y-56771286D01*
X144082527Y-56979815D01*
X144082754Y-56981243D01*
X144110166Y-57065609D01*
X144148444Y-57183414D01*
X144244951Y-57372820D01*
X144369890Y-57544786D01*
X144520213Y-57695109D01*
X144692182Y-57820050D01*
X144700946Y-57824516D01*
X144751742Y-57872491D01*
X144768536Y-57940312D01*
X144745998Y-58006447D01*
X144700946Y-58045484D01*
X144692182Y-58049949D01*
X144520213Y-58174890D01*
X144369890Y-58325213D01*
X144244951Y-58497179D01*
X144148444Y-58686585D01*
X144082753Y-58888760D01*
X144049500Y-59098713D01*
X144049500Y-59271747D01*
X144029815Y-59338786D01*
X143977011Y-59384541D01*
X143907853Y-59394485D01*
X143844297Y-59365460D01*
X143817811Y-59333221D01*
X143809870Y-59319311D01*
X143809577Y-59318216D01*
X143809577Y-59318215D01*
X143780298Y-59267503D01*
X143730520Y-59181284D01*
X142309573Y-57760337D01*
X142276088Y-57699014D01*
X142275637Y-57696847D01*
X142264597Y-57641347D01*
X142244737Y-57541503D01*
X142220485Y-57482952D01*
X142184397Y-57395827D01*
X142184390Y-57395814D01*
X142096789Y-57264711D01*
X142096786Y-57264707D01*
X141985292Y-57153213D01*
X141985288Y-57153210D01*
X141854185Y-57065609D01*
X141854172Y-57065602D01*
X141708501Y-57005264D01*
X141708491Y-57005261D01*
X141553149Y-56974361D01*
X141491238Y-56941976D01*
X141489660Y-56940425D01*
X141187590Y-56638355D01*
X141187588Y-56638352D01*
X141068717Y-56519481D01*
X141068716Y-56519480D01*
X140981904Y-56469360D01*
X140981904Y-56469359D01*
X140981900Y-56469358D01*
X140931785Y-56440423D01*
X140779057Y-56399499D01*
X140620943Y-56399499D01*
X140613347Y-56399499D01*
X140613331Y-56399500D01*
X134167848Y-56399500D01*
X134100809Y-56379815D01*
X134055054Y-56327011D01*
X134046231Y-56299692D01*
X134019738Y-56166508D01*
X134019737Y-56166507D01*
X134019737Y-56166503D01*
X134009509Y-56141810D01*
X133959397Y-56020827D01*
X133959390Y-56020814D01*
X133871398Y-55889125D01*
X133850520Y-55822447D01*
X133850500Y-55820234D01*
X133850500Y-52420945D01*
X133850500Y-52420943D01*
X133809577Y-52268216D01*
X133809577Y-52268215D01*
X133764849Y-52190744D01*
X133730520Y-52131284D01*
X133618716Y-52019480D01*
X133618715Y-52019479D01*
X133614385Y-52015149D01*
X133614374Y-52015139D01*
X132677444Y-51078209D01*
X134749500Y-51078209D01*
X134749500Y-51441790D01*
X134785137Y-51803630D01*
X134856064Y-52160212D01*
X134856067Y-52160223D01*
X134961614Y-52508165D01*
X135100754Y-52844078D01*
X135100756Y-52844083D01*
X135272140Y-53164720D01*
X135272151Y-53164738D01*
X135474140Y-53467035D01*
X135474150Y-53467049D01*
X135704807Y-53748106D01*
X135961893Y-54005192D01*
X135961898Y-54005196D01*
X135961899Y-54005197D01*
X136242956Y-54235854D01*
X136545268Y-54437853D01*
X136545277Y-54437858D01*
X136545279Y-54437859D01*
X136865916Y-54609243D01*
X136865918Y-54609243D01*
X136865924Y-54609247D01*
X137201836Y-54748386D01*
X137549767Y-54853930D01*
X137549773Y-54853931D01*
X137549776Y-54853932D01*
X137549787Y-54853935D01*
X137870428Y-54917713D01*
X137906369Y-54924862D01*
X138268206Y-54960500D01*
X138268209Y-54960500D01*
X138631791Y-54960500D01*
X138631794Y-54960500D01*
X138993631Y-54924862D01*
X139063045Y-54911054D01*
X139350212Y-54853935D01*
X139350223Y-54853932D01*
X139350223Y-54853931D01*
X139350233Y-54853930D01*
X139698164Y-54748386D01*
X140034076Y-54609247D01*
X140354732Y-54437853D01*
X140657044Y-54235854D01*
X140938101Y-54005197D01*
X141195197Y-53748101D01*
X141425854Y-53467044D01*
X141627853Y-53164732D01*
X141799247Y-52844076D01*
X141938386Y-52508164D01*
X142043930Y-52160233D01*
X142043932Y-52160223D01*
X142043935Y-52160212D01*
X142113180Y-51812088D01*
X142114862Y-51803631D01*
X142150500Y-51441794D01*
X142150500Y-51078206D01*
X142114862Y-50716369D01*
X142043935Y-50359787D01*
X142043932Y-50359776D01*
X142043931Y-50359773D01*
X142043930Y-50359767D01*
X141938386Y-50011836D01*
X141799247Y-49675924D01*
X141795854Y-49669577D01*
X141627859Y-49355279D01*
X141627858Y-49355277D01*
X141627853Y-49355268D01*
X141425854Y-49052956D01*
X141195197Y-48771899D01*
X141195196Y-48771898D01*
X141195192Y-48771893D01*
X140938106Y-48514807D01*
X140657049Y-48284150D01*
X140657048Y-48284149D01*
X140657044Y-48284146D01*
X140354732Y-48082147D01*
X140354727Y-48082144D01*
X140354720Y-48082140D01*
X140034083Y-47910756D01*
X140034078Y-47910754D01*
X139991380Y-47893068D01*
X139918785Y-47862998D01*
X139698165Y-47771614D01*
X139350223Y-47666067D01*
X139350212Y-47666064D01*
X138993630Y-47595137D01*
X138721111Y-47568296D01*
X138631794Y-47559500D01*
X138268206Y-47559500D01*
X138185679Y-47567628D01*
X137906369Y-47595137D01*
X137549787Y-47666064D01*
X137549776Y-47666067D01*
X137201834Y-47771614D01*
X136865921Y-47910754D01*
X136865916Y-47910756D01*
X136545279Y-48082140D01*
X136545261Y-48082151D01*
X136242964Y-48284140D01*
X136242950Y-48284150D01*
X135961893Y-48514807D01*
X135704807Y-48771893D01*
X135474150Y-49052950D01*
X135474140Y-49052964D01*
X135272151Y-49355261D01*
X135272140Y-49355279D01*
X135100756Y-49675916D01*
X135100754Y-49675921D01*
X134961614Y-50011834D01*
X134856067Y-50359776D01*
X134856064Y-50359787D01*
X134785137Y-50716369D01*
X134749500Y-51078209D01*
X132677444Y-51078209D01*
X131737590Y-50138355D01*
X131737588Y-50138352D01*
X131618717Y-50019481D01*
X131618716Y-50019480D01*
X131531904Y-49969360D01*
X131531904Y-49969359D01*
X131531900Y-49969358D01*
X131481785Y-49940423D01*
X131329057Y-49899499D01*
X131170943Y-49899499D01*
X131163347Y-49899499D01*
X131163331Y-49899500D01*
X128769000Y-49899500D01*
X128701961Y-49879815D01*
X128656206Y-49827011D01*
X128645000Y-49775500D01*
X128645000Y-49360000D01*
X126394000Y-49360000D01*
X126326961Y-49340315D01*
X126281206Y-49287511D01*
X126270000Y-49236000D01*
X126270000Y-48984000D01*
X126289685Y-48916961D01*
X126342489Y-48871206D01*
X126394000Y-48860000D01*
X128645000Y-48860000D01*
X128645000Y-48474500D01*
X128664685Y-48407461D01*
X128717489Y-48361706D01*
X128769000Y-48350500D01*
X131532081Y-48350500D01*
X131532097Y-48350501D01*
X131539693Y-48350501D01*
X131697804Y-48350501D01*
X131697807Y-48350501D01*
X131850535Y-48309577D01*
X131937454Y-48259394D01*
X131987466Y-48230520D01*
X132099270Y-48118716D01*
X132099270Y-48118714D01*
X132109474Y-48108511D01*
X132109478Y-48108506D01*
X132324916Y-47893068D01*
X132386239Y-47859583D01*
X132412597Y-47856749D01*
X132786670Y-47856749D01*
X132786676Y-47856749D01*
X132887753Y-47846424D01*
X133051516Y-47792158D01*
X133198350Y-47701590D01*
X133320340Y-47579600D01*
X133410908Y-47432766D01*
X133465174Y-47269003D01*
X133475500Y-47167927D01*
X133475499Y-46569574D01*
X133465174Y-46468497D01*
X133410908Y-46304734D01*
X133320340Y-46157900D01*
X133206371Y-46043931D01*
X133172886Y-45982608D01*
X133177870Y-45912916D01*
X133206371Y-45868569D01*
X133250121Y-45824819D01*
X133320340Y-45754600D01*
X133410908Y-45607766D01*
X133465174Y-45444003D01*
X133475500Y-45342927D01*
X133475499Y-44744574D01*
X133465174Y-44643497D01*
X133410908Y-44479734D01*
X133410904Y-44479728D01*
X133410903Y-44479725D01*
X133320924Y-44333847D01*
X133302483Y-44266455D01*
X133320924Y-44203653D01*
X133383922Y-44101518D01*
X133410908Y-44057766D01*
X133465174Y-43894003D01*
X133475500Y-43792927D01*
X133475499Y-43119574D01*
X133473582Y-43100812D01*
X133465174Y-43018497D01*
X133450677Y-42974748D01*
X133410908Y-42854734D01*
X133320340Y-42707900D01*
X133281016Y-42668576D01*
X133247532Y-42607254D01*
X133252516Y-42537562D01*
X133281018Y-42493214D01*
X133319945Y-42454287D01*
X133319947Y-42454284D01*
X133410448Y-42307561D01*
X133410453Y-42307550D01*
X133464680Y-42143902D01*
X133474999Y-42042904D01*
X133475000Y-42042891D01*
X133475000Y-41956250D01*
X131525001Y-41956250D01*
X131525001Y-42042904D01*
X131535319Y-42143902D01*
X131589546Y-42307550D01*
X131589551Y-42307561D01*
X131680052Y-42454284D01*
X131680055Y-42454288D01*
X131718982Y-42493215D01*
X131752467Y-42554538D01*
X131747483Y-42624230D01*
X131718983Y-42668576D01*
X131679661Y-42707898D01*
X131589093Y-42854731D01*
X131589091Y-42854736D01*
X131574594Y-42898486D01*
X131534826Y-43018497D01*
X131534826Y-43018498D01*
X131534825Y-43018498D01*
X131524500Y-43119565D01*
X131524500Y-43792919D01*
X131524501Y-43792937D01*
X131534825Y-43894002D01*
X131549323Y-43937752D01*
X131582879Y-44039018D01*
X131589092Y-44057765D01*
X131589093Y-44057768D01*
X131679076Y-44203653D01*
X131697516Y-44271046D01*
X131679076Y-44333847D01*
X131589093Y-44479731D01*
X131589091Y-44479736D01*
X131574594Y-44523486D01*
X131534826Y-44643497D01*
X131534826Y-44643498D01*
X131534825Y-44643498D01*
X131524500Y-44744565D01*
X131524500Y-45342919D01*
X131524501Y-45342937D01*
X131534825Y-45444002D01*
X131549323Y-45487752D01*
X131589092Y-45607766D01*
X131652675Y-45710851D01*
X131679661Y-45754601D01*
X131793629Y-45868569D01*
X131827114Y-45929892D01*
X131822130Y-45999584D01*
X131793629Y-46043931D01*
X131679661Y-46157898D01*
X131589093Y-46304731D01*
X131589091Y-46304736D01*
X131574594Y-46348486D01*
X131534826Y-46468497D01*
X131534826Y-46468498D01*
X131534825Y-46468498D01*
X131524500Y-46569565D01*
X131524500Y-46943650D01*
X131515856Y-46973087D01*
X131509333Y-47003076D01*
X131505577Y-47008092D01*
X131504815Y-47010689D01*
X131488182Y-47031330D01*
X131406334Y-47113180D01*
X131345012Y-47146666D01*
X131318652Y-47149500D01*
X131099500Y-47149500D01*
X131032461Y-47129815D01*
X130986706Y-47077011D01*
X130975500Y-47025500D01*
X130975499Y-46613330D01*
X130975498Y-46613312D01*
X130965174Y-46512247D01*
X130950677Y-46468498D01*
X130910908Y-46348484D01*
X130820340Y-46201650D01*
X130706370Y-46087680D01*
X130672886Y-46026358D01*
X130677870Y-45956666D01*
X130706371Y-45912319D01*
X130750121Y-45868569D01*
X130820340Y-45798350D01*
X130910908Y-45651516D01*
X130965174Y-45487753D01*
X130975500Y-45386677D01*
X130975499Y-44788324D01*
X130972944Y-44763315D01*
X130965174Y-44687247D01*
X130950677Y-44643498D01*
X130910908Y-44523484D01*
X130910904Y-44523478D01*
X130910903Y-44523475D01*
X130820924Y-44377597D01*
X130802483Y-44310205D01*
X130820924Y-44247403D01*
X130854187Y-44193476D01*
X130910908Y-44101516D01*
X130965174Y-43937753D01*
X130975500Y-43836677D01*
X130975499Y-43163324D01*
X130965174Y-43062247D01*
X130910908Y-42898484D01*
X130820340Y-42751650D01*
X130781016Y-42712326D01*
X130747532Y-42651004D01*
X130752516Y-42581312D01*
X130781018Y-42536964D01*
X130819945Y-42498037D01*
X130819947Y-42498034D01*
X130910448Y-42351311D01*
X130910453Y-42351300D01*
X130964680Y-42187652D01*
X130974999Y-42086654D01*
X130975000Y-42086641D01*
X130975000Y-42000000D01*
X129025001Y-42000000D01*
X129025001Y-42086654D01*
X129035319Y-42187652D01*
X129089546Y-42351300D01*
X129089551Y-42351311D01*
X129180052Y-42498034D01*
X129180055Y-42498038D01*
X129218982Y-42536965D01*
X129252467Y-42598288D01*
X129247483Y-42667980D01*
X129218983Y-42712326D01*
X129179661Y-42751648D01*
X129089093Y-42898481D01*
X129089092Y-42898484D01*
X129034826Y-43062247D01*
X129034826Y-43062248D01*
X129034825Y-43062248D01*
X129024500Y-43163315D01*
X129024500Y-43836669D01*
X129024501Y-43836687D01*
X129034825Y-43937752D01*
X129089092Y-44101515D01*
X129089093Y-44101518D01*
X129179076Y-44247403D01*
X129197516Y-44314796D01*
X129179076Y-44377597D01*
X129089093Y-44523481D01*
X129089092Y-44523484D01*
X129034826Y-44687247D01*
X129034826Y-44687248D01*
X129034825Y-44687248D01*
X129024500Y-44788315D01*
X129024500Y-45386669D01*
X129024501Y-45386687D01*
X129034825Y-45487752D01*
X129060096Y-45564013D01*
X129089092Y-45651516D01*
X129164240Y-45773351D01*
X129179661Y-45798351D01*
X129293628Y-45912318D01*
X129297966Y-45920263D01*
X129305214Y-45925689D01*
X129314448Y-45950448D01*
X129327113Y-45973641D01*
X129326467Y-45982670D01*
X129329631Y-45991153D01*
X129324014Y-46016973D01*
X129322129Y-46043333D01*
X129316310Y-46052386D01*
X129314779Y-46059426D01*
X129293628Y-46087680D01*
X129253296Y-46128012D01*
X129191973Y-46161497D01*
X129141423Y-46161948D01*
X129078844Y-46149500D01*
X129078842Y-46149500D01*
X128921158Y-46149500D01*
X128921155Y-46149500D01*
X128766510Y-46180261D01*
X128766498Y-46180264D01*
X128620827Y-46240602D01*
X128620814Y-46240609D01*
X128489711Y-46328210D01*
X128489707Y-46328213D01*
X128378213Y-46439707D01*
X128378210Y-46439711D01*
X128290609Y-46570814D01*
X128290602Y-46570827D01*
X128230264Y-46716498D01*
X128230261Y-46716510D01*
X128199500Y-46871153D01*
X128199500Y-47025500D01*
X128179815Y-47092539D01*
X128127011Y-47138294D01*
X128075500Y-47149500D01*
X126724500Y-47149500D01*
X126657461Y-47129815D01*
X126611706Y-47077011D01*
X126600500Y-47025500D01*
X126600499Y-46525830D01*
X126600498Y-46525812D01*
X126590174Y-46424747D01*
X126564903Y-46348486D01*
X126535908Y-46260984D01*
X126445340Y-46114150D01*
X126331371Y-46000181D01*
X126297886Y-45938858D01*
X126302870Y-45869166D01*
X126331371Y-45824819D01*
X126382840Y-45773350D01*
X126445340Y-45710850D01*
X126535908Y-45564016D01*
X126590174Y-45400253D01*
X126600500Y-45299177D01*
X126600499Y-44700824D01*
X126596558Y-44662248D01*
X126590174Y-44599747D01*
X126564903Y-44523486D01*
X126535908Y-44435984D01*
X126535904Y-44435978D01*
X126535903Y-44435975D01*
X126445924Y-44290097D01*
X126427483Y-44222705D01*
X126445924Y-44159903D01*
X126481938Y-44101516D01*
X126535908Y-44014016D01*
X126590174Y-43850253D01*
X126600500Y-43749177D01*
X126600499Y-43075824D01*
X126590174Y-42974747D01*
X126535908Y-42810984D01*
X126445340Y-42664150D01*
X126406016Y-42624826D01*
X126372532Y-42563504D01*
X126377516Y-42493812D01*
X126406018Y-42449464D01*
X126444945Y-42410537D01*
X126444947Y-42410534D01*
X126535448Y-42263811D01*
X126535453Y-42263800D01*
X126589680Y-42100152D01*
X126599999Y-41999154D01*
X126600000Y-41999141D01*
X126600000Y-41912500D01*
X124650001Y-41912500D01*
X124650001Y-41999154D01*
X124660319Y-42100152D01*
X124714546Y-42263800D01*
X124714551Y-42263811D01*
X124805052Y-42410534D01*
X124805055Y-42410538D01*
X124843982Y-42449465D01*
X124877467Y-42510788D01*
X124872483Y-42580480D01*
X124843983Y-42624826D01*
X124804661Y-42664148D01*
X124714093Y-42810981D01*
X124714091Y-42810986D01*
X124699594Y-42854736D01*
X124659826Y-42974747D01*
X124659826Y-42974748D01*
X124659825Y-42974748D01*
X124649500Y-43075815D01*
X124649500Y-43749169D01*
X124649501Y-43749187D01*
X124659825Y-43850252D01*
X124714092Y-44014015D01*
X124714093Y-44014018D01*
X124804076Y-44159903D01*
X124822516Y-44227296D01*
X124804076Y-44290097D01*
X124714093Y-44435981D01*
X124714091Y-44435986D01*
X124699594Y-44479736D01*
X124659826Y-44599747D01*
X124659826Y-44599748D01*
X124659825Y-44599748D01*
X124649500Y-44700815D01*
X124649500Y-44700828D01*
X124649501Y-45225500D01*
X124629817Y-45292539D01*
X124577013Y-45338294D01*
X124525501Y-45349500D01*
X124224500Y-45349500D01*
X124157461Y-45329815D01*
X124111706Y-45277011D01*
X124100500Y-45225500D01*
X124100499Y-44700830D01*
X124100498Y-44700812D01*
X124090174Y-44599747D01*
X124064903Y-44523486D01*
X124035908Y-44435984D01*
X124035904Y-44435978D01*
X124035903Y-44435975D01*
X123945924Y-44290097D01*
X123927483Y-44222705D01*
X123945924Y-44159903D01*
X123981938Y-44101516D01*
X124035908Y-44014016D01*
X124090174Y-43850253D01*
X124100500Y-43749177D01*
X124100499Y-43075824D01*
X124090174Y-42974747D01*
X124035908Y-42810984D01*
X123945340Y-42664150D01*
X123906016Y-42624826D01*
X123872532Y-42563504D01*
X123877516Y-42493812D01*
X123906018Y-42449464D01*
X123944945Y-42410537D01*
X123944947Y-42410534D01*
X124035448Y-42263811D01*
X124035453Y-42263800D01*
X124089680Y-42100152D01*
X124099999Y-41999154D01*
X124100000Y-41999141D01*
X124100000Y-41912500D01*
X122150001Y-41912500D01*
X122150001Y-41999154D01*
X122160319Y-42100152D01*
X122214546Y-42263800D01*
X122214551Y-42263811D01*
X122305052Y-42410534D01*
X122305055Y-42410538D01*
X122343982Y-42449465D01*
X122377467Y-42510788D01*
X122372483Y-42580480D01*
X122343983Y-42624826D01*
X122304661Y-42664148D01*
X122214093Y-42810981D01*
X122214091Y-42810986D01*
X122199594Y-42854736D01*
X122159826Y-42974747D01*
X122159826Y-42974748D01*
X122159825Y-42974748D01*
X122149500Y-43075815D01*
X122149500Y-43749169D01*
X122149501Y-43749187D01*
X122159825Y-43850252D01*
X122214092Y-44014015D01*
X122214093Y-44014018D01*
X122304076Y-44159903D01*
X122322516Y-44227296D01*
X122304076Y-44290097D01*
X122214093Y-44435981D01*
X122214091Y-44435986D01*
X122199594Y-44479736D01*
X122159826Y-44599747D01*
X122159826Y-44599748D01*
X122159825Y-44599748D01*
X122149500Y-44700815D01*
X122149500Y-44700828D01*
X122149501Y-45225500D01*
X122129817Y-45292539D01*
X122077013Y-45338294D01*
X122025501Y-45349500D01*
X121486669Y-45349500D01*
X121486653Y-45349499D01*
X121479057Y-45349499D01*
X121320943Y-45349499D01*
X121206397Y-45380192D01*
X121168214Y-45390423D01*
X121130036Y-45412466D01*
X121130035Y-45412466D01*
X121031287Y-45469477D01*
X121031282Y-45469481D01*
X120189481Y-46311282D01*
X120189479Y-46311285D01*
X120139361Y-46398094D01*
X120139358Y-46398096D01*
X120139359Y-46398096D01*
X120110425Y-46448209D01*
X120110424Y-46448210D01*
X120099964Y-46487247D01*
X120081670Y-46555523D01*
X120078739Y-46566461D01*
X120042373Y-46626121D01*
X119979526Y-46656650D01*
X119910151Y-46648355D01*
X119871283Y-46622048D01*
X119775090Y-46525855D01*
X119775088Y-46525852D01*
X119725394Y-46476158D01*
X119695369Y-46427481D01*
X119685632Y-46398096D01*
X119660908Y-46323484D01*
X119570340Y-46176650D01*
X119456371Y-46062681D01*
X119422886Y-46001358D01*
X119427870Y-45931666D01*
X119456371Y-45887319D01*
X119510850Y-45832840D01*
X119570340Y-45773350D01*
X119660908Y-45626516D01*
X119715174Y-45462753D01*
X119725500Y-45361677D01*
X119725499Y-44763324D01*
X119723582Y-44744562D01*
X119715174Y-44662247D01*
X119708961Y-44643497D01*
X119660908Y-44498484D01*
X119570340Y-44351650D01*
X119570339Y-44351649D01*
X119570338Y-44351647D01*
X119565862Y-44345987D01*
X119568345Y-44344023D01*
X119541636Y-44295108D01*
X119546620Y-44225416D01*
X119567550Y-44192848D01*
X119565862Y-44191513D01*
X119570338Y-44185852D01*
X119570340Y-44185850D01*
X119660908Y-44039016D01*
X119715174Y-43875253D01*
X119725500Y-43774177D01*
X119725499Y-43100824D01*
X119722944Y-43075815D01*
X119715174Y-42999747D01*
X119706890Y-42974747D01*
X119660908Y-42835984D01*
X119570340Y-42689150D01*
X119531016Y-42649826D01*
X119497532Y-42588504D01*
X119502516Y-42518812D01*
X119531018Y-42474464D01*
X119569945Y-42435537D01*
X119569947Y-42435534D01*
X119660448Y-42288811D01*
X119660453Y-42288800D01*
X119714680Y-42125152D01*
X119724999Y-42024154D01*
X119725000Y-42024141D01*
X119725000Y-41937500D01*
X117775001Y-41937500D01*
X117775001Y-42024154D01*
X117785319Y-42125152D01*
X117839546Y-42288800D01*
X117839551Y-42288811D01*
X117930052Y-42435534D01*
X117930055Y-42435538D01*
X117968982Y-42474465D01*
X118002467Y-42535788D01*
X117997483Y-42605480D01*
X117968983Y-42649826D01*
X117929661Y-42689148D01*
X117839093Y-42835981D01*
X117839092Y-42835984D01*
X117784826Y-42999747D01*
X117784826Y-42999748D01*
X117784825Y-42999748D01*
X117774500Y-43100815D01*
X117774500Y-43774169D01*
X117774501Y-43774187D01*
X117784825Y-43875252D01*
X117821109Y-43984749D01*
X117830810Y-44014024D01*
X117839092Y-44039015D01*
X117839093Y-44039018D01*
X117929661Y-44185852D01*
X117934138Y-44191513D01*
X117931654Y-44193476D01*
X117958364Y-44242392D01*
X117953380Y-44312084D01*
X117932449Y-44344651D01*
X117934138Y-44345987D01*
X117929661Y-44351647D01*
X117839093Y-44498481D01*
X117839092Y-44498484D01*
X117784826Y-44662247D01*
X117784826Y-44662248D01*
X117784825Y-44662248D01*
X117774500Y-44763315D01*
X117774500Y-45361669D01*
X117774501Y-45361687D01*
X117784825Y-45462752D01*
X117793110Y-45487753D01*
X117832879Y-45607768D01*
X117839092Y-45626515D01*
X117839093Y-45626518D01*
X117929661Y-45773351D01*
X118043629Y-45887319D01*
X118077114Y-45948642D01*
X118072130Y-46018334D01*
X118043629Y-46062681D01*
X117929661Y-46176648D01*
X117839093Y-46323481D01*
X117839091Y-46323486D01*
X117837525Y-46328213D01*
X117784826Y-46487247D01*
X117784826Y-46487248D01*
X117784825Y-46487248D01*
X117774500Y-46588315D01*
X117774500Y-47186669D01*
X117774501Y-47186687D01*
X117784825Y-47287752D01*
X117793110Y-47312753D01*
X117832879Y-47432768D01*
X117839092Y-47451515D01*
X117839093Y-47451518D01*
X117854512Y-47476516D01*
X117929660Y-47598350D01*
X118051650Y-47720340D01*
X118198484Y-47810908D01*
X118264297Y-47832716D01*
X118321740Y-47872487D01*
X118348564Y-47937003D01*
X118341474Y-47993753D01*
X118300909Y-48102514D01*
X118300908Y-48102516D01*
X118294501Y-48162116D01*
X118294500Y-48162135D01*
X118294500Y-48345902D01*
X118274815Y-48412941D01*
X118222011Y-48458696D01*
X118152853Y-48468640D01*
X118089297Y-48439615D01*
X118082819Y-48433583D01*
X117200018Y-47550783D01*
X117166533Y-47489460D01*
X117169993Y-47424098D01*
X117215174Y-47287753D01*
X117225500Y-47186677D01*
X117225499Y-46588324D01*
X117223710Y-46570814D01*
X117215174Y-46487247D01*
X117199422Y-46439711D01*
X117160908Y-46323484D01*
X117070340Y-46176650D01*
X116956371Y-46062681D01*
X116922886Y-46001358D01*
X116927870Y-45931666D01*
X116956371Y-45887319D01*
X117010850Y-45832840D01*
X117070340Y-45773350D01*
X117160908Y-45626516D01*
X117215174Y-45462753D01*
X117225500Y-45361677D01*
X117225499Y-44763324D01*
X117223582Y-44744562D01*
X117215174Y-44662247D01*
X117208961Y-44643497D01*
X117160908Y-44498484D01*
X117070340Y-44351650D01*
X117070339Y-44351649D01*
X117070338Y-44351647D01*
X117065862Y-44345987D01*
X117068345Y-44344023D01*
X117041636Y-44295108D01*
X117046620Y-44225416D01*
X117067550Y-44192848D01*
X117065862Y-44191513D01*
X117070338Y-44185852D01*
X117070340Y-44185850D01*
X117160908Y-44039016D01*
X117215174Y-43875253D01*
X117225500Y-43774177D01*
X117225499Y-43100824D01*
X117222944Y-43075815D01*
X117215174Y-42999747D01*
X117206890Y-42974747D01*
X117160908Y-42835984D01*
X117070340Y-42689150D01*
X117031016Y-42649826D01*
X116997532Y-42588504D01*
X117002516Y-42518812D01*
X117031018Y-42474464D01*
X117069945Y-42435537D01*
X117069947Y-42435534D01*
X117160448Y-42288811D01*
X117160453Y-42288800D01*
X117214680Y-42125152D01*
X117224999Y-42024154D01*
X117225000Y-42024141D01*
X117225000Y-41937500D01*
X115275001Y-41937500D01*
X115275001Y-42024154D01*
X115285319Y-42125152D01*
X115339546Y-42288800D01*
X115339551Y-42288811D01*
X115430052Y-42435534D01*
X115430055Y-42435538D01*
X115468982Y-42474465D01*
X115502467Y-42535788D01*
X115497483Y-42605480D01*
X115468983Y-42649826D01*
X115429661Y-42689148D01*
X115339093Y-42835981D01*
X115339092Y-42835984D01*
X115284826Y-42999747D01*
X115284826Y-42999748D01*
X115284825Y-42999748D01*
X115274500Y-43100815D01*
X115274500Y-43774169D01*
X115274501Y-43774187D01*
X115284825Y-43875252D01*
X115321109Y-43984749D01*
X115330810Y-44014024D01*
X115339092Y-44039015D01*
X115339093Y-44039018D01*
X115429661Y-44185852D01*
X115434138Y-44191513D01*
X115431654Y-44193476D01*
X115458364Y-44242392D01*
X115453380Y-44312084D01*
X115432449Y-44344651D01*
X115434138Y-44345987D01*
X115429661Y-44351647D01*
X115339093Y-44498481D01*
X115339092Y-44498484D01*
X115284826Y-44662247D01*
X115284826Y-44662248D01*
X115284825Y-44662248D01*
X115274500Y-44763315D01*
X115274500Y-45361669D01*
X115274501Y-45361687D01*
X115284825Y-45462752D01*
X115293110Y-45487753D01*
X115332879Y-45607768D01*
X115339092Y-45626515D01*
X115339093Y-45626518D01*
X115429661Y-45773351D01*
X115543629Y-45887319D01*
X115577114Y-45948642D01*
X115572130Y-46018334D01*
X115543629Y-46062681D01*
X115429661Y-46176648D01*
X115339093Y-46323481D01*
X115339091Y-46323486D01*
X115337525Y-46328213D01*
X115284826Y-46487247D01*
X115284826Y-46487248D01*
X115284825Y-46487248D01*
X115274500Y-46588315D01*
X115274500Y-47186669D01*
X115274501Y-47186687D01*
X115284825Y-47287752D01*
X115293110Y-47312753D01*
X115332879Y-47432768D01*
X115339092Y-47451515D01*
X115339093Y-47451518D01*
X115354512Y-47476516D01*
X115429660Y-47598350D01*
X115551650Y-47720340D01*
X115698484Y-47810908D01*
X115765091Y-47832979D01*
X115776187Y-47839823D01*
X115785513Y-47841852D01*
X115813760Y-47862998D01*
X115813765Y-47863001D01*
X115881284Y-47930520D01*
X115881286Y-47930521D01*
X117541284Y-49590520D01*
X117541286Y-49590521D01*
X117541290Y-49590524D01*
X117676877Y-49668804D01*
X117678216Y-49669577D01*
X117830943Y-49710501D01*
X117830945Y-49710501D01*
X117996654Y-49710501D01*
X117996670Y-49710500D01*
X118170501Y-49710500D01*
X118237540Y-49730185D01*
X118283295Y-49782989D01*
X118294501Y-49834500D01*
X118294501Y-50057876D01*
X118300908Y-50117483D01*
X118351202Y-50252328D01*
X118351206Y-50252335D01*
X118437452Y-50367544D01*
X118437455Y-50367547D01*
X118552664Y-50453793D01*
X118552671Y-50453797D01*
X118597618Y-50470561D01*
X118687517Y-50504091D01*
X118747127Y-50510500D01*
X119392872Y-50510499D01*
X119452483Y-50504091D01*
X119452486Y-50504089D01*
X119456744Y-50503632D01*
X119483254Y-50503632D01*
X119487514Y-50504089D01*
X119487517Y-50504091D01*
X119547127Y-50510500D01*
X120192872Y-50510499D01*
X120252483Y-50504091D01*
X120252486Y-50504089D01*
X120256744Y-50503632D01*
X120283254Y-50503632D01*
X120287514Y-50504089D01*
X120287517Y-50504091D01*
X120347127Y-50510500D01*
X120992872Y-50510499D01*
X121052483Y-50504091D01*
X121052486Y-50504089D01*
X121056744Y-50503632D01*
X121083254Y-50503632D01*
X121087514Y-50504089D01*
X121087517Y-50504091D01*
X121147127Y-50510500D01*
X121792872Y-50510499D01*
X121852483Y-50504091D01*
X121852486Y-50504089D01*
X121856744Y-50503632D01*
X121883254Y-50503632D01*
X121887514Y-50504089D01*
X121887517Y-50504091D01*
X121947127Y-50510500D01*
X122592872Y-50510499D01*
X122652483Y-50504091D01*
X122652486Y-50504089D01*
X122656744Y-50503632D01*
X122683254Y-50503632D01*
X122687514Y-50504089D01*
X122687517Y-50504091D01*
X122747127Y-50510500D01*
X123359901Y-50510499D01*
X123389343Y-50519143D01*
X123419327Y-50525666D01*
X123424341Y-50529420D01*
X123426940Y-50530183D01*
X123447576Y-50546812D01*
X123501287Y-50600523D01*
X123501289Y-50600524D01*
X123938084Y-51037319D01*
X123971568Y-51098641D01*
X123966584Y-51168333D01*
X123938083Y-51212680D01*
X123501289Y-51649475D01*
X123389484Y-51761279D01*
X123389482Y-51761281D01*
X123362082Y-51808741D01*
X123360150Y-51812088D01*
X123310426Y-51898212D01*
X123302021Y-51929578D01*
X123296497Y-51940692D01*
X123280851Y-51957591D01*
X123268864Y-51977257D01*
X123257564Y-51982745D01*
X123249031Y-51991963D01*
X123226733Y-51997721D01*
X123206016Y-52007784D01*
X123185457Y-52009500D01*
X122747129Y-52009500D01*
X122747120Y-52009501D01*
X122683248Y-52016367D01*
X122656742Y-52016367D01*
X122652483Y-52015909D01*
X122592873Y-52009500D01*
X122592864Y-52009500D01*
X121947129Y-52009500D01*
X121947120Y-52009501D01*
X121883248Y-52016367D01*
X121856742Y-52016367D01*
X121852483Y-52015909D01*
X121792873Y-52009500D01*
X121792864Y-52009500D01*
X121147129Y-52009500D01*
X121147120Y-52009501D01*
X121083248Y-52016367D01*
X121056742Y-52016367D01*
X121052483Y-52015909D01*
X120992873Y-52009500D01*
X120992864Y-52009500D01*
X120347129Y-52009500D01*
X120347120Y-52009501D01*
X120283248Y-52016367D01*
X120256742Y-52016367D01*
X120252483Y-52015909D01*
X120192873Y-52009500D01*
X120192864Y-52009500D01*
X119547129Y-52009500D01*
X119547120Y-52009501D01*
X119483248Y-52016367D01*
X119456742Y-52016367D01*
X119452483Y-52015909D01*
X119392873Y-52009500D01*
X119392864Y-52009500D01*
X118747129Y-52009500D01*
X118747123Y-52009501D01*
X118687516Y-52015908D01*
X118552671Y-52066202D01*
X118552664Y-52066206D01*
X118437455Y-52152452D01*
X118437452Y-52152455D01*
X118351206Y-52267664D01*
X118351202Y-52267671D01*
X118300908Y-52402517D01*
X118294501Y-52462116D01*
X118294501Y-52462123D01*
X118294500Y-52462135D01*
X118294500Y-54357870D01*
X118294501Y-54357876D01*
X118300908Y-54417481D01*
X118311682Y-54446366D01*
X118319500Y-54489700D01*
X118319500Y-54917713D01*
X118299815Y-54984752D01*
X118283181Y-55005394D01*
X117175394Y-56113181D01*
X117114071Y-56146666D01*
X117087713Y-56149500D01*
X116820301Y-56149500D01*
X116753262Y-56129815D01*
X116707507Y-56077011D01*
X116702595Y-56064504D01*
X116674814Y-55980666D01*
X116582712Y-55831344D01*
X116458656Y-55707288D01*
X116309334Y-55615186D01*
X116142797Y-55560001D01*
X116142795Y-55560000D01*
X116040010Y-55549500D01*
X114239998Y-55549500D01*
X114239981Y-55549501D01*
X114137203Y-55560000D01*
X114137200Y-55560001D01*
X113970668Y-55615185D01*
X113970663Y-55615187D01*
X113821342Y-55707289D01*
X113732679Y-55795951D01*
X113671356Y-55829435D01*
X113601664Y-55824450D01*
X113557318Y-55795950D01*
X113286819Y-55525451D01*
X113253334Y-55464128D01*
X113250500Y-55437770D01*
X113250500Y-47744552D01*
X113270185Y-47677513D01*
X113286819Y-47656871D01*
X113320340Y-47623350D01*
X113410908Y-47476516D01*
X113465174Y-47312753D01*
X113475500Y-47211677D01*
X113475499Y-46613324D01*
X113474294Y-46601532D01*
X113465174Y-46512247D01*
X113450677Y-46468498D01*
X113410908Y-46348484D01*
X113320340Y-46201650D01*
X113206370Y-46087680D01*
X113172886Y-46026358D01*
X113177870Y-45956666D01*
X113206371Y-45912319D01*
X113250121Y-45868569D01*
X113320340Y-45798350D01*
X113410908Y-45651516D01*
X113465174Y-45487753D01*
X113475500Y-45386677D01*
X113475499Y-44788324D01*
X113472944Y-44763315D01*
X113465174Y-44687247D01*
X113450677Y-44643498D01*
X113410908Y-44523484D01*
X113410904Y-44523478D01*
X113410903Y-44523475D01*
X113320924Y-44377597D01*
X113302483Y-44310205D01*
X113320924Y-44247403D01*
X113354187Y-44193476D01*
X113410908Y-44101516D01*
X113465174Y-43937753D01*
X113475500Y-43836677D01*
X113475499Y-43163324D01*
X113465174Y-43062247D01*
X113410908Y-42898484D01*
X113320340Y-42751650D01*
X113281016Y-42712326D01*
X113247532Y-42651004D01*
X113252516Y-42581312D01*
X113281018Y-42536964D01*
X113319945Y-42498037D01*
X113319947Y-42498034D01*
X113410448Y-42351311D01*
X113410453Y-42351300D01*
X113464680Y-42187652D01*
X113474999Y-42086654D01*
X113475000Y-42086641D01*
X113475000Y-42000000D01*
X111525001Y-42000000D01*
X111525001Y-42086654D01*
X111535319Y-42187652D01*
X111589546Y-42351300D01*
X111589551Y-42351311D01*
X111680052Y-42498034D01*
X111680055Y-42498038D01*
X111718982Y-42536965D01*
X111752467Y-42598288D01*
X111747483Y-42667980D01*
X111718983Y-42712326D01*
X111679661Y-42751648D01*
X111589093Y-42898481D01*
X111589092Y-42898484D01*
X111534826Y-43062247D01*
X111534826Y-43062248D01*
X111534825Y-43062248D01*
X111524500Y-43163315D01*
X111524500Y-43836669D01*
X111524501Y-43836687D01*
X111534825Y-43937752D01*
X111589092Y-44101515D01*
X111589093Y-44101518D01*
X111679076Y-44247403D01*
X111697516Y-44314796D01*
X111679076Y-44377597D01*
X111589093Y-44523481D01*
X111589092Y-44523484D01*
X111534826Y-44687247D01*
X111534826Y-44687248D01*
X111534825Y-44687248D01*
X111524500Y-44788315D01*
X111524500Y-45386669D01*
X111524501Y-45386687D01*
X111534825Y-45487752D01*
X111560096Y-45564013D01*
X111589092Y-45651516D01*
X111664240Y-45773351D01*
X111679661Y-45798351D01*
X111793629Y-45912319D01*
X111827114Y-45973642D01*
X111822130Y-46043334D01*
X111793629Y-46087681D01*
X111679661Y-46201648D01*
X111589093Y-46348481D01*
X111589092Y-46348484D01*
X111534826Y-46512247D01*
X111534826Y-46512248D01*
X111534825Y-46512248D01*
X111524500Y-46613315D01*
X111524500Y-47211669D01*
X111524501Y-47211687D01*
X111534825Y-47312752D01*
X111571109Y-47422249D01*
X111589092Y-47476516D01*
X111677962Y-47620597D01*
X111696402Y-47687988D01*
X111675480Y-47754652D01*
X111621838Y-47799422D01*
X111552507Y-47808083D01*
X111489499Y-47777887D01*
X111484742Y-47773374D01*
X111011818Y-47300451D01*
X110978333Y-47239128D01*
X110975499Y-47212770D01*
X110975499Y-47211684D01*
X110975500Y-47211677D01*
X110975499Y-46613324D01*
X110974294Y-46601532D01*
X110965174Y-46512247D01*
X110950677Y-46468498D01*
X110910908Y-46348484D01*
X110820340Y-46201650D01*
X110706370Y-46087680D01*
X110672886Y-46026358D01*
X110677870Y-45956666D01*
X110706371Y-45912319D01*
X110750121Y-45868569D01*
X110820340Y-45798350D01*
X110910908Y-45651516D01*
X110965174Y-45487753D01*
X110975500Y-45386677D01*
X110975499Y-44788324D01*
X110972944Y-44763315D01*
X110965174Y-44687247D01*
X110950677Y-44643498D01*
X110910908Y-44523484D01*
X110910904Y-44523478D01*
X110910903Y-44523475D01*
X110820924Y-44377597D01*
X110802483Y-44310205D01*
X110820924Y-44247403D01*
X110854187Y-44193476D01*
X110910908Y-44101516D01*
X110965174Y-43937753D01*
X110975500Y-43836677D01*
X110975499Y-43163324D01*
X110965174Y-43062247D01*
X110910908Y-42898484D01*
X110820340Y-42751650D01*
X110781016Y-42712326D01*
X110747532Y-42651004D01*
X110752516Y-42581312D01*
X110781018Y-42536964D01*
X110819945Y-42498037D01*
X110819947Y-42498034D01*
X110910448Y-42351311D01*
X110910453Y-42351300D01*
X110964680Y-42187652D01*
X110974999Y-42086654D01*
X110975000Y-42086641D01*
X110975000Y-42000000D01*
X109025001Y-42000000D01*
X109025001Y-42086654D01*
X109035319Y-42187652D01*
X109089546Y-42351300D01*
X109089551Y-42351311D01*
X109180052Y-42498034D01*
X109180055Y-42498038D01*
X109218982Y-42536965D01*
X109252467Y-42598288D01*
X109247483Y-42667980D01*
X109218983Y-42712326D01*
X109179661Y-42751648D01*
X109089093Y-42898481D01*
X109089092Y-42898484D01*
X109034826Y-43062247D01*
X109034826Y-43062248D01*
X109034825Y-43062248D01*
X109024500Y-43163315D01*
X109024500Y-43836669D01*
X109024501Y-43836687D01*
X109034825Y-43937752D01*
X109089092Y-44101515D01*
X109089093Y-44101518D01*
X109179076Y-44247403D01*
X109197516Y-44314796D01*
X109179076Y-44377597D01*
X109089093Y-44523481D01*
X109089092Y-44523484D01*
X109034826Y-44687247D01*
X109034826Y-44687248D01*
X109034825Y-44687248D01*
X109024500Y-44788315D01*
X109024500Y-45386669D01*
X109024501Y-45386687D01*
X109034825Y-45487752D01*
X109060096Y-45564013D01*
X109089092Y-45651516D01*
X109164240Y-45773351D01*
X109179661Y-45798351D01*
X109293629Y-45912319D01*
X109327114Y-45973642D01*
X109322130Y-46043334D01*
X109293629Y-46087681D01*
X109179661Y-46201648D01*
X109089093Y-46348481D01*
X109089092Y-46348484D01*
X109034826Y-46512247D01*
X109034826Y-46512248D01*
X109034825Y-46512248D01*
X109024500Y-46613315D01*
X109024500Y-47211669D01*
X109024501Y-47211687D01*
X109034825Y-47312752D01*
X109071109Y-47422249D01*
X109089092Y-47476516D01*
X109177961Y-47620596D01*
X109180591Y-47624859D01*
X109199031Y-47692252D01*
X109178108Y-47758915D01*
X109124466Y-47803685D01*
X109055136Y-47812346D01*
X109027600Y-47804517D01*
X108948169Y-47771615D01*
X108600223Y-47666067D01*
X108600212Y-47666064D01*
X108243630Y-47595137D01*
X107971111Y-47568296D01*
X107881794Y-47559500D01*
X107518206Y-47559500D01*
X107435679Y-47567628D01*
X107156369Y-47595137D01*
X106799787Y-47666064D01*
X106799776Y-47666067D01*
X106451834Y-47771614D01*
X106115921Y-47910754D01*
X106115916Y-47910756D01*
X105795279Y-48082140D01*
X105795261Y-48082151D01*
X105492964Y-48284140D01*
X105492950Y-48284150D01*
X105211893Y-48514807D01*
X104962181Y-48764520D01*
X104900858Y-48798005D01*
X104831166Y-48793021D01*
X104775233Y-48751149D01*
X104750816Y-48685685D01*
X104750500Y-48676839D01*
X104750500Y-43253750D01*
X104750726Y-43246263D01*
X104754486Y-43184108D01*
X104768271Y-42956201D01*
X104770076Y-42941340D01*
X104777930Y-42898486D01*
X104821780Y-42659197D01*
X104825364Y-42644663D01*
X104831545Y-42624827D01*
X104910696Y-42370822D01*
X104915998Y-42356841D01*
X105033731Y-42095249D01*
X105040676Y-42082016D01*
X105189080Y-41836526D01*
X105197567Y-41824230D01*
X105374480Y-41598417D01*
X105384395Y-41587226D01*
X105587226Y-41384395D01*
X105598417Y-41374480D01*
X105824230Y-41197567D01*
X105836526Y-41189080D01*
X106082016Y-41040676D01*
X106095249Y-41033731D01*
X106356841Y-40915998D01*
X106370822Y-40910696D01*
X106644668Y-40825362D01*
X106659197Y-40821780D01*
X106941344Y-40770075D01*
X106956201Y-40768271D01*
X107246264Y-40750726D01*
X107253751Y-40750500D01*
X107315892Y-40750500D01*
X109132155Y-40750500D01*
X109199194Y-40770185D01*
G37*
%TD.AperFunction*%
%TA.AperFunction,Conductor*%
G36*
X135185270Y-77011717D02*
G01*
X135185271Y-77011716D01*
X135219372Y-76964781D01*
X135274702Y-76922115D01*
X135344315Y-76916136D01*
X135406110Y-76948742D01*
X135420008Y-76964781D01*
X135539890Y-77129785D01*
X135539894Y-77129790D01*
X135690209Y-77280105D01*
X135690214Y-77280109D01*
X135854793Y-77399682D01*
X135897459Y-77455011D01*
X135903438Y-77524625D01*
X135870833Y-77586420D01*
X135854793Y-77600318D01*
X135690215Y-77719889D01*
X135551035Y-77859069D01*
X135489712Y-77892553D01*
X135420020Y-77887569D01*
X135364087Y-77845697D01*
X135357815Y-77836484D01*
X135262315Y-77681654D01*
X135138345Y-77557684D01*
X134989124Y-77465643D01*
X134989119Y-77465641D01*
X134931575Y-77446573D01*
X134928396Y-77446632D01*
X134922645Y-77444133D01*
X134919939Y-77443990D01*
X134896025Y-77432567D01*
X134894107Y-77431384D01*
X134860785Y-77394338D01*
X134281058Y-76814612D01*
X134301591Y-76809111D01*
X134438408Y-76730119D01*
X134550119Y-76618408D01*
X134629111Y-76481591D01*
X134634612Y-76461058D01*
X135185270Y-77011717D01*
G37*
%TD.AperFunction*%
%TA.AperFunction,Conductor*%
G36*
X113398692Y-57625160D02*
G01*
X113480068Y-57641347D01*
X113541979Y-57673732D01*
X113573581Y-57723958D01*
X113605120Y-57819136D01*
X113605186Y-57819333D01*
X113605187Y-57819336D01*
X113605628Y-57820051D01*
X113679805Y-57940312D01*
X113697289Y-57968657D01*
X113821344Y-58092712D01*
X113976120Y-58188178D01*
X114022845Y-58240126D01*
X114034068Y-58309088D01*
X114006224Y-58373171D01*
X113998706Y-58381398D01*
X113859889Y-58520215D01*
X113734951Y-58692179D01*
X113638444Y-58881585D01*
X113572753Y-59083760D01*
X113570385Y-59098713D01*
X113539500Y-59293713D01*
X113539500Y-59506287D01*
X113541860Y-59521185D01*
X113570957Y-59704902D01*
X113572754Y-59716243D01*
X113637367Y-59915101D01*
X113638444Y-59918414D01*
X113734951Y-60107820D01*
X113859890Y-60279786D01*
X114010209Y-60430105D01*
X114010214Y-60430109D01*
X114174793Y-60549682D01*
X114217459Y-60605011D01*
X114223438Y-60674625D01*
X114190833Y-60736420D01*
X114174793Y-60750318D01*
X114010214Y-60869890D01*
X114010209Y-60869894D01*
X113859890Y-61020213D01*
X113734951Y-61192179D01*
X113638444Y-61381585D01*
X113572753Y-61583760D01*
X113539500Y-61793713D01*
X113539500Y-62006286D01*
X113567662Y-62184098D01*
X113572754Y-62216243D01*
X113636543Y-62412565D01*
X113638444Y-62418414D01*
X113734951Y-62607820D01*
X113859890Y-62779786D01*
X114010209Y-62930105D01*
X114010214Y-62930109D01*
X114175218Y-63049991D01*
X114217884Y-63105320D01*
X114223863Y-63174934D01*
X114191258Y-63236729D01*
X114175218Y-63250627D01*
X114010540Y-63370272D01*
X114010535Y-63370276D01*
X113860276Y-63520535D01*
X113860272Y-63520540D01*
X113735379Y-63692442D01*
X113638904Y-63881782D01*
X113573242Y-64083870D01*
X113573242Y-64083873D01*
X113562769Y-64150000D01*
X114591518Y-64150000D01*
X114580889Y-64168409D01*
X114540000Y-64321009D01*
X114540000Y-64478991D01*
X114580889Y-64631591D01*
X114591518Y-64650000D01*
X113562769Y-64650000D01*
X113573242Y-64716126D01*
X113573242Y-64716129D01*
X113638904Y-64918217D01*
X113735379Y-65107557D01*
X113860272Y-65279459D01*
X113860276Y-65279464D01*
X114010535Y-65429723D01*
X114010540Y-65429727D01*
X114175218Y-65549372D01*
X114217884Y-65604701D01*
X114223863Y-65674315D01*
X114191258Y-65736110D01*
X114175218Y-65750008D01*
X114010214Y-65869890D01*
X114010209Y-65869894D01*
X113859890Y-66020213D01*
X113734951Y-66192179D01*
X113638444Y-66381585D01*
X113572753Y-66583760D01*
X113539500Y-66793713D01*
X113539500Y-67006286D01*
X113555422Y-67106817D01*
X113572754Y-67216243D01*
X113616708Y-67351520D01*
X113638444Y-67418414D01*
X113734951Y-67607820D01*
X113859890Y-67779786D01*
X114010213Y-67930109D01*
X114182179Y-68055048D01*
X114182181Y-68055049D01*
X114182184Y-68055051D01*
X114371588Y-68151557D01*
X114573757Y-68217246D01*
X114783713Y-68250500D01*
X114783714Y-68250500D01*
X115496286Y-68250500D01*
X115496287Y-68250500D01*
X115706243Y-68217246D01*
X115908412Y-68151557D01*
X116097816Y-68055051D01*
X116172900Y-68000500D01*
X116269786Y-67930109D01*
X116269788Y-67930106D01*
X116269792Y-67930104D01*
X116420104Y-67779792D01*
X116488781Y-67685264D01*
X116544110Y-67642600D01*
X116613723Y-67636621D01*
X116675519Y-67669226D01*
X116676780Y-67670470D01*
X116776650Y-67770340D01*
X116923484Y-67860908D01*
X117087247Y-67915174D01*
X117188323Y-67925500D01*
X117775500Y-67925499D01*
X117842539Y-67945183D01*
X117888294Y-67997987D01*
X117899500Y-68049499D01*
X117899500Y-72749903D01*
X117879815Y-72816942D01*
X117863181Y-72837584D01*
X116893988Y-73806776D01*
X116832665Y-73840261D01*
X116762973Y-73835277D01*
X116707040Y-73793405D01*
X116683834Y-73738493D01*
X116667246Y-73633757D01*
X116601557Y-73431588D01*
X116505051Y-73242184D01*
X116505049Y-73242181D01*
X116505048Y-73242179D01*
X116380109Y-73070213D01*
X116241294Y-72931398D01*
X116207809Y-72870075D01*
X116212793Y-72800383D01*
X116254665Y-72744450D01*
X116263879Y-72738178D01*
X116269331Y-72734814D01*
X116269334Y-72734814D01*
X116418656Y-72642712D01*
X116542712Y-72518656D01*
X116634814Y-72369334D01*
X116689999Y-72202797D01*
X116700500Y-72100009D01*
X116700499Y-70799992D01*
X116693706Y-70733497D01*
X116689999Y-70697203D01*
X116689998Y-70697200D01*
X116668156Y-70631286D01*
X116634814Y-70530666D01*
X116542712Y-70381344D01*
X116418656Y-70257288D01*
X116269334Y-70165186D01*
X116102797Y-70110001D01*
X116102795Y-70110000D01*
X116000016Y-70099500D01*
X116000009Y-70099500D01*
X114862229Y-70099500D01*
X114795190Y-70079815D01*
X114774548Y-70063181D01*
X113286819Y-68575451D01*
X113253334Y-68514128D01*
X113250500Y-68487770D01*
X113250500Y-57746777D01*
X113270185Y-57679738D01*
X113322989Y-57633983D01*
X113392147Y-57624039D01*
X113398692Y-57625160D01*
G37*
%TD.AperFunction*%
%TA.AperFunction,Conductor*%
G36*
X116324388Y-62980037D02*
G01*
X116351094Y-63000329D01*
X117863181Y-64512416D01*
X117896666Y-64573739D01*
X117899500Y-64600097D01*
X117899500Y-65850500D01*
X117879815Y-65917539D01*
X117827011Y-65963294D01*
X117775500Y-65974500D01*
X117188330Y-65974500D01*
X117188312Y-65974501D01*
X117087247Y-65984825D01*
X116923484Y-66039092D01*
X116923481Y-66039093D01*
X116776651Y-66129659D01*
X116718860Y-66187450D01*
X116657536Y-66220934D01*
X116587845Y-66215949D01*
X116531911Y-66174078D01*
X116530926Y-66172743D01*
X116420104Y-66020208D01*
X116269792Y-65869896D01*
X116269790Y-65869894D01*
X116269785Y-65869890D01*
X116104781Y-65750008D01*
X116062115Y-65694678D01*
X116056136Y-65625065D01*
X116088741Y-65563270D01*
X116104781Y-65549371D01*
X116269466Y-65429721D01*
X116419723Y-65279464D01*
X116419727Y-65279459D01*
X116544620Y-65107557D01*
X116641095Y-64918217D01*
X116706757Y-64716129D01*
X116706757Y-64716126D01*
X116717231Y-64650000D01*
X115688482Y-64650000D01*
X115699111Y-64631591D01*
X115740000Y-64478991D01*
X115740000Y-64321009D01*
X115699111Y-64168409D01*
X115688482Y-64150000D01*
X116717231Y-64150000D01*
X116706757Y-64083873D01*
X116706757Y-64083870D01*
X116641095Y-63881782D01*
X116544620Y-63692442D01*
X116419727Y-63520540D01*
X116419723Y-63520535D01*
X116269464Y-63370276D01*
X116269459Y-63370272D01*
X116104781Y-63250627D01*
X116062115Y-63195297D01*
X116056136Y-63125684D01*
X116088741Y-63063889D01*
X116104781Y-63049991D01*
X116173135Y-63000329D01*
X116190528Y-62987691D01*
X116256334Y-62964212D01*
X116324388Y-62980037D01*
G37*
%TD.AperFunction*%
%TA.AperFunction,Conductor*%
G36*
X126275703Y-57192484D02*
G01*
X126282181Y-57198516D01*
X128349039Y-59265374D01*
X128349049Y-59265385D01*
X128353379Y-59269715D01*
X128353380Y-59269716D01*
X128465184Y-59381520D01*
X128465186Y-59381521D01*
X128465190Y-59381524D01*
X128535567Y-59422156D01*
X128535571Y-59422157D01*
X128535572Y-59422158D01*
X128568843Y-59441367D01*
X128602112Y-59460576D01*
X128602114Y-59460576D01*
X128602115Y-59460577D01*
X128754843Y-59501500D01*
X131082152Y-59501500D01*
X131111157Y-59510017D01*
X131140753Y-59516221D01*
X131144349Y-59519763D01*
X131149191Y-59521185D01*
X131168983Y-59544026D01*
X131190531Y-59565250D01*
X131192852Y-59571572D01*
X131194946Y-59573989D01*
X131203115Y-59598225D01*
X131203468Y-59599791D01*
X131230263Y-59734497D01*
X131238118Y-59753461D01*
X131240455Y-59763825D01*
X131238876Y-59788518D01*
X131241521Y-59813121D01*
X131236687Y-59822775D01*
X131235999Y-59833552D01*
X131221320Y-59853472D01*
X131210244Y-59875599D01*
X131200956Y-59881108D01*
X131194552Y-59889801D01*
X131171432Y-59898624D01*
X131150153Y-59911249D01*
X131132566Y-59913457D01*
X131129275Y-59914714D01*
X131126761Y-59914187D01*
X131119492Y-59915100D01*
X130397729Y-59915100D01*
X130397723Y-59915101D01*
X130338116Y-59921508D01*
X130203271Y-59971802D01*
X130203264Y-59971806D01*
X130088055Y-60058052D01*
X130088052Y-60058055D01*
X130001806Y-60173264D01*
X130001802Y-60173272D01*
X129995480Y-60190222D01*
X129953608Y-60246154D01*
X129888143Y-60270570D01*
X129833651Y-60260517D01*
X129833371Y-60261364D01*
X129827257Y-60259338D01*
X129826904Y-60259273D01*
X129826518Y-60259093D01*
X129826517Y-60259092D01*
X129826516Y-60259092D01*
X129662753Y-60204826D01*
X129662751Y-60204825D01*
X129561678Y-60194500D01*
X128988330Y-60194500D01*
X128988312Y-60194501D01*
X128887247Y-60204825D01*
X128723484Y-60259092D01*
X128723481Y-60259093D01*
X128644000Y-60308118D01*
X128583202Y-60345619D01*
X128583200Y-60345620D01*
X128515807Y-60364060D01*
X128453006Y-60345619D01*
X128301311Y-60252051D01*
X128301300Y-60252046D01*
X128137652Y-60197819D01*
X128036654Y-60187500D01*
X128000000Y-60187500D01*
X128000000Y-61051000D01*
X127980315Y-61118039D01*
X127927511Y-61163794D01*
X127876000Y-61175000D01*
X127624000Y-61175000D01*
X127556961Y-61155315D01*
X127511206Y-61102511D01*
X127500000Y-61051000D01*
X127500000Y-60187500D01*
X127463361Y-60187500D01*
X127463343Y-60187501D01*
X127362347Y-60197819D01*
X127198699Y-60252046D01*
X127198694Y-60252048D01*
X127065573Y-60334159D01*
X126998180Y-60352599D01*
X126935380Y-60334159D01*
X126801522Y-60251595D01*
X126801517Y-60251593D01*
X126801516Y-60251592D01*
X126637753Y-60197326D01*
X126637751Y-60197325D01*
X126536684Y-60187000D01*
X126536677Y-60187000D01*
X126194500Y-60187000D01*
X126127461Y-60167315D01*
X126081706Y-60114511D01*
X126070500Y-60063000D01*
X126070500Y-57286197D01*
X126090185Y-57219158D01*
X126142989Y-57173403D01*
X126212147Y-57163459D01*
X126275703Y-57192484D01*
G37*
%TD.AperFunction*%
%TD*%
M02*
