%TF.GenerationSoftware,KiCad,Pcbnew,9.0.4*%
%TF.CreationDate,2026-01-10T01:01:45-06:00*%
%TF.ProjectId,Sus-RH,5375732d-5248-42e6-9b69-6361645f7063,rev?*%
%TF.SameCoordinates,Original*%
%TF.FileFunction,Copper,L2,Bot*%
%TF.FilePolarity,Positive*%
%FSLAX46Y46*%
G04 Gerber Fmt 4.6, Leading zero omitted, Abs format (unit mm)*
G04 Created by KiCad (PCBNEW 9.0.4) date 2026-01-10 01:01:45*
%MOMM*%
%LPD*%
G01*
G04 APERTURE LIST*
G04 Aperture macros list*
%AMRoundRect*
0 Rectangle with rounded corners*
0 $1 Rounding radius*
0 $2 $3 $4 $5 $6 $7 $8 $9 X,Y pos of 4 corners*
0 Add a 4 corners polygon primitive as box body*
4,1,4,$2,$3,$4,$5,$6,$7,$8,$9,$2,$3,0*
0 Add four circle primitives for the rounded corners*
1,1,$1+$1,$2,$3*
1,1,$1+$1,$4,$5*
1,1,$1+$1,$6,$7*
1,1,$1+$1,$8,$9*
0 Add four rect primitives between the rounded corners*
20,1,$1+$1,$2,$3,$4,$5,0*
20,1,$1+$1,$4,$5,$6,$7,0*
20,1,$1+$1,$6,$7,$8,$9,0*
20,1,$1+$1,$8,$9,$2,$3,0*%
G04 Aperture macros list end*
%TA.AperFunction,ComponentPad*%
%ADD10RoundRect,0.250000X-0.850000X-0.600000X0.850000X-0.600000X0.850000X0.600000X-0.850000X0.600000X0*%
%TD*%
%TA.AperFunction,ComponentPad*%
%ADD11O,2.200000X1.700000*%
%TD*%
%TA.AperFunction,ComponentPad*%
%ADD12R,2.500000X2.500000*%
%TD*%
%TA.AperFunction,ComponentPad*%
%ADD13C,3.600000*%
%TD*%
%TA.AperFunction,ConnectorPad*%
%ADD14C,6.400000*%
%TD*%
%TA.AperFunction,ComponentPad*%
%ADD15R,1.700000X1.700000*%
%TD*%
%TA.AperFunction,ComponentPad*%
%ADD16C,1.700000*%
%TD*%
%TA.AperFunction,ComponentPad*%
%ADD17R,1.500000X1.500000*%
%TD*%
%TA.AperFunction,ComponentPad*%
%ADD18RoundRect,0.250000X-0.600000X-0.600000X0.600000X-0.600000X0.600000X0.600000X-0.600000X0.600000X0*%
%TD*%
%TA.AperFunction,ComponentPad*%
%ADD19RoundRect,0.250000X0.850000X0.600000X-0.850000X0.600000X-0.850000X-0.600000X0.850000X-0.600000X0*%
%TD*%
%TA.AperFunction,ComponentPad*%
%ADD20RoundRect,0.250000X-0.600000X0.850000X-0.600000X-0.850000X0.600000X-0.850000X0.600000X0.850000X0*%
%TD*%
%TA.AperFunction,ComponentPad*%
%ADD21O,1.700000X2.200000*%
%TD*%
%TA.AperFunction,ViaPad*%
%ADD22C,0.600000*%
%TD*%
%TA.AperFunction,Conductor*%
%ADD23C,0.500000*%
%TD*%
%TA.AperFunction,Conductor*%
%ADD24C,0.200000*%
%TD*%
G04 APERTURE END LIST*
D10*
%TO.P,J6,1,Pin_1*%
%TO.N,GND*%
X136570000Y-90750000D03*
D11*
%TO.P,J6,2,Pin_2*%
%TO.N,/linpot_in*%
X136570000Y-88250000D03*
%TO.P,J6,3,Pin_3*%
%TO.N,GND*%
X136570000Y-85750000D03*
%TO.P,J6,4,Pin_4*%
%TO.N,Net-(J6-Pin_4)*%
X136570000Y-83250000D03*
%TD*%
D12*
%TO.P,GND1,1,1*%
%TO.N,GND*%
X113850000Y-97825000D03*
%TD*%
D13*
%TO.P,J7,25,MNT*%
%TO.N,unconnected-(J7-MNT-Pad25)_2*%
X107700000Y-51260000D03*
D14*
%TO.N,unconnected-(J7-MNT-Pad25)_1*%
X107700000Y-51260000D03*
D13*
%TO.P,J7,26,MNT*%
%TO.N,unconnected-(J7-MNT-Pad26)_1*%
X138450000Y-51260000D03*
D14*
%TO.N,unconnected-(J7-MNT-Pad26)*%
X138450000Y-51260000D03*
D13*
%TO.P,J7,27,MNT*%
%TO.N,unconnected-(J7-MNT-Pad27)_2*%
X138450000Y-97730000D03*
D14*
%TO.N,unconnected-(J7-MNT-Pad27)_1*%
X138450000Y-97730000D03*
D13*
%TO.P,J7,28,MNT*%
%TO.N,unconnected-(J7-MNT-Pad28)_1*%
X107710000Y-97730000D03*
D14*
%TO.N,unconnected-(J7-MNT-Pad28)*%
X107710000Y-97730000D03*
%TD*%
D15*
%TO.P,J1,1,Pin_1*%
%TO.N,GND*%
X145400000Y-54125000D03*
D16*
%TO.P,J1,2,Pin_2*%
%TO.N,/IR_INTER*%
X145400000Y-56665000D03*
%TO.P,J1,3,Pin_3*%
%TO.N,/linpot_adj*%
X145400000Y-59205000D03*
%TO.P,J1,4,Pin_4*%
%TO.N,/linpot_in*%
X145400000Y-61745000D03*
%TO.P,J1,5,Pin_5*%
%TO.N,/SDA*%
X145400000Y-64285000D03*
%TO.P,J1,6,Pin_6*%
%TO.N,/SCL*%
X145400000Y-66825000D03*
%TD*%
D17*
%TO.P,GNDA1,1,1*%
%TO.N,GNDA*%
X123400000Y-62725000D03*
%TD*%
D18*
%TO.P,J5,1,Pin_1*%
%TO.N,GND*%
X134070000Y-78750000D03*
D16*
%TO.P,J5,2,Pin_2*%
X134070000Y-76250000D03*
%TO.P,J5,3,Pin_3*%
%TO.N,/SDA*%
X134070000Y-73750000D03*
%TO.P,J5,4,Pin_4*%
%TO.N,Net-(J5-Pin_4)*%
X136570000Y-78750000D03*
%TO.P,J5,5,Pin_5*%
%TO.N,/SCL*%
X136570000Y-76250000D03*
%TO.P,J5,6,Pin_6*%
%TO.N,/IR_INTER*%
X136570000Y-73750000D03*
%TD*%
D19*
%TO.P,J4,1,Pin_1*%
%TO.N,+24V*%
X115100000Y-71450000D03*
D11*
%TO.P,J4,2,Pin_2*%
%TO.N,/CAN_+*%
X115100000Y-73950000D03*
%TO.P,J4,3,Pin_3*%
%TO.N,/CAN_-*%
X115100000Y-76450000D03*
%TO.P,J4,4,Pin_4*%
%TO.N,GND*%
X115100000Y-78950000D03*
%TO.P,J4,5,Pin_5*%
%TO.N,Net-(J4-Pin_5)*%
X115100000Y-81450000D03*
%TD*%
D19*
%TO.P,J3,1,Pin_1*%
%TO.N,+24V*%
X115140000Y-56900000D03*
D11*
%TO.P,J3,2,Pin_2*%
%TO.N,/CAN_+*%
X115140000Y-59400000D03*
%TO.P,J3,3,Pin_3*%
%TO.N,/CAN_-*%
X115140000Y-61900000D03*
%TO.P,J3,4,Pin_4*%
%TO.N,GND*%
X115140000Y-64400000D03*
%TO.P,J3,5,Pin_5*%
%TO.N,Net-(J3-Pin_5)*%
X115140000Y-66900000D03*
%TD*%
D20*
%TO.P,J2,1,Pin_1*%
%TO.N,+24V*%
X118700000Y-90300000D03*
D21*
%TO.P,J2,2,Pin_2*%
%TO.N,/CAN_+*%
X121200000Y-90300000D03*
%TO.P,J2,3,Pin_3*%
%TO.N,/CAN_-*%
X123700000Y-90300000D03*
%TO.P,J2,4,Pin_4*%
%TO.N,GND*%
X126200000Y-90300000D03*
%TO.P,J2,5,Pin_5*%
%TO.N,Net-(J2-Pin_5)*%
X128700000Y-90300000D03*
%TD*%
D22*
%TO.N,+3.3V*%
X141000000Y-81500000D03*
%TO.N,GND*%
X132500000Y-75200000D03*
X123400000Y-96900000D03*
X127250000Y-41750000D03*
X117250000Y-49750000D03*
X110000000Y-61600000D03*
X106000000Y-58750000D03*
X124750000Y-83000000D03*
X132500000Y-69750000D03*
X135000000Y-49000000D03*
X116250000Y-92950000D03*
X120750000Y-73000000D03*
X141100000Y-54600000D03*
X143250000Y-49250000D03*
X116250000Y-90200000D03*
X109900000Y-73600000D03*
X143800000Y-76400000D03*
X107900000Y-79200000D03*
X115750000Y-54750000D03*
X122750000Y-80250000D03*
X116250000Y-87350000D03*
X124750000Y-80250000D03*
X107900000Y-76450000D03*
X106250000Y-44500000D03*
X130750000Y-80250000D03*
X134000000Y-81030000D03*
X132250000Y-81100000D03*
X146250000Y-49250000D03*
X146150000Y-74100000D03*
X115750000Y-49750000D03*
X138750000Y-67500000D03*
X126750000Y-67750000D03*
X122750000Y-78000000D03*
X119000000Y-63500000D03*
X105950000Y-87350000D03*
X120700000Y-83000000D03*
X141500000Y-85500000D03*
X137450000Y-92100000D03*
X122750000Y-75250000D03*
X114250000Y-41750000D03*
X134500000Y-67750000D03*
X122750000Y-83050000D03*
X105950000Y-84500000D03*
X135400000Y-54400000D03*
X121000000Y-44500000D03*
X131850000Y-90100000D03*
X126750000Y-58750000D03*
X136000000Y-81030000D03*
X132500000Y-67750000D03*
X138000000Y-81030000D03*
X106000000Y-64350000D03*
X126750000Y-78000000D03*
X109950000Y-87350000D03*
X124750000Y-75250000D03*
X128500000Y-44500000D03*
X130750000Y-73000000D03*
X106000000Y-61600000D03*
X117450000Y-71050000D03*
X131850000Y-92100000D03*
X126150000Y-96900000D03*
X143250000Y-51250000D03*
X128750000Y-70250000D03*
X109950000Y-84500000D03*
X110000000Y-58750000D03*
X114250000Y-47250000D03*
X108000000Y-58750000D03*
X110000000Y-64350000D03*
X124750000Y-78000000D03*
X109950000Y-90100000D03*
X128750000Y-73000000D03*
X122750000Y-70250000D03*
X121750000Y-55500000D03*
X134300000Y-50600000D03*
X123750000Y-57750000D03*
X120725000Y-65750000D03*
X108000000Y-61600000D03*
X136300000Y-47800000D03*
X132300000Y-83050000D03*
X108000000Y-64350000D03*
X114250000Y-44500000D03*
X136750000Y-66000000D03*
X127250000Y-44500000D03*
X114250000Y-90200000D03*
X134700000Y-90100000D03*
X133500000Y-49100000D03*
X123400000Y-94900000D03*
X114250000Y-87350000D03*
X112250000Y-92950000D03*
X105900000Y-76450000D03*
X134500000Y-69750000D03*
X107950000Y-90100000D03*
X126150000Y-98900000D03*
X124750000Y-65750000D03*
X123750000Y-55500000D03*
X115750000Y-48500000D03*
X134700000Y-94100000D03*
X117200000Y-64350000D03*
X117200000Y-72400000D03*
X124750000Y-70250000D03*
X126750000Y-70250000D03*
X123750000Y-59750000D03*
X129183600Y-49101000D03*
X130750000Y-83000000D03*
X120750000Y-80300000D03*
X126750000Y-83000000D03*
X122750000Y-67750000D03*
X146050000Y-83250000D03*
X121750000Y-57750000D03*
X120750000Y-75250000D03*
X130750000Y-70250000D03*
X117000000Y-69400000D03*
X143800000Y-85500000D03*
X144750000Y-51250000D03*
X146150000Y-78600000D03*
X132350000Y-77950000D03*
X115350000Y-69150000D03*
X146250000Y-51250000D03*
X120750000Y-70250000D03*
X120550000Y-96900000D03*
X120750000Y-63500000D03*
X112250000Y-90200000D03*
X127750000Y-59750000D03*
X114250000Y-92950000D03*
X120550000Y-94900000D03*
X124750000Y-73000000D03*
X122750000Y-65750000D03*
X121750000Y-59750000D03*
X106250000Y-42000000D03*
X132300000Y-84900000D03*
X128750000Y-80250000D03*
X130750000Y-78000000D03*
X134700000Y-92100000D03*
X128750000Y-67750000D03*
X126150000Y-94900000D03*
X107900000Y-73600000D03*
X128750000Y-83000000D03*
X120550000Y-98900000D03*
X128750000Y-75250000D03*
X115750000Y-53250000D03*
X137000000Y-55200000D03*
X146050000Y-87750000D03*
X117250000Y-54750000D03*
X121775000Y-64675000D03*
X106250000Y-46500000D03*
X128750000Y-78000000D03*
X120000000Y-62000000D03*
X109900000Y-79200000D03*
X131850000Y-94100000D03*
X114250000Y-48500000D03*
X134000000Y-83100000D03*
X138750000Y-66000000D03*
X136750000Y-67500000D03*
X122750000Y-73000000D03*
X138900000Y-55400000D03*
X105950000Y-90100000D03*
X109900000Y-76450000D03*
X142850000Y-53100000D03*
X116850000Y-65400000D03*
X134000000Y-86350000D03*
X126750000Y-75250000D03*
X117250000Y-53250000D03*
X107950000Y-87350000D03*
X105900000Y-73600000D03*
X121000000Y-41750000D03*
X134500000Y-52750000D03*
X126750000Y-73000000D03*
X130683600Y-49101000D03*
X130750000Y-75250000D03*
X112250000Y-87350000D03*
X128500000Y-41750000D03*
X123400000Y-98900000D03*
X107950000Y-84500000D03*
X146150000Y-76350000D03*
X130750000Y-67750000D03*
X126750000Y-80250000D03*
X105900000Y-79200000D03*
X114050000Y-68600000D03*
X114250000Y-49750000D03*
X120750000Y-78000000D03*
X124750000Y-67750000D03*
X114250000Y-53250000D03*
X146050000Y-85500000D03*
X133950000Y-84950000D03*
%TO.N,+3.3V*%
X111450000Y-48800000D03*
X127900000Y-52001000D03*
X140500000Y-78050000D03*
%TO.N,+24V*%
X112500000Y-74800000D03*
%TO.N,/linpot_adj*%
X133250000Y-56400000D03*
X133750000Y-61750000D03*
%TO.N,/IR_INTER*%
X141475000Y-57775000D03*
X143250000Y-70500000D03*
%TO.N,/SDA*%
X141500000Y-72500000D03*
%TO.N,/linpot_in*%
X138700000Y-71000000D03*
%TO.N,/linpot_out*%
X132000000Y-56300000D03*
X132000000Y-59501000D03*
%TO.N,/Debug2*%
X122200000Y-47550000D03*
X129000000Y-46950000D03*
%TD*%
D23*
%TO.N,+3.3V*%
X140500000Y-78050000D02*
X140500000Y-81000000D01*
X140500000Y-81000000D02*
X141000000Y-81500000D01*
X113900000Y-51250000D02*
X111450000Y-48800000D01*
X127900000Y-52001000D02*
X127149000Y-51250000D01*
X127149000Y-51250000D02*
X113900000Y-51250000D01*
%TO.N,+24V*%
X114150000Y-84300000D02*
X117850000Y-84300000D01*
X112500000Y-74800000D02*
X112500000Y-82650000D01*
X117850000Y-84300000D02*
X118700000Y-85150000D01*
X118700000Y-85150000D02*
X118700000Y-90300000D01*
X112500000Y-82650000D02*
X114150000Y-84300000D01*
D24*
%TO.N,/linpot_adj*%
X133250000Y-61250000D02*
X133750000Y-61750000D01*
X133250000Y-56400000D02*
X133250000Y-61250000D01*
X145350000Y-59400000D02*
X144775000Y-59400000D01*
X142425000Y-61750000D02*
X133750000Y-61750000D01*
%TO.N,/IR_INTER*%
X141475000Y-57775000D02*
X141555000Y-57775000D01*
X142000000Y-73000000D02*
X143250000Y-71750000D01*
X136570000Y-73750000D02*
X141250000Y-73750000D01*
X145165000Y-56675000D02*
X145350000Y-56860000D01*
X143250000Y-71750000D02*
X143250000Y-70500000D01*
X141250000Y-73750000D02*
X142000000Y-73000000D01*
X142655000Y-56675000D02*
X145165000Y-56675000D01*
X141555000Y-57775000D02*
X142655000Y-56675000D01*
%TO.N,/SDA*%
X145210000Y-64290000D02*
X145250000Y-64290000D01*
X134070000Y-73750000D02*
X135320000Y-72500000D01*
X145250000Y-64290000D02*
X145250000Y-64500000D01*
X143690000Y-64285000D02*
X145155000Y-64285000D01*
X145155000Y-64285000D02*
X145350000Y-64480000D01*
X141500000Y-72500000D02*
X142250000Y-71750000D01*
X142250000Y-65725000D02*
X143690000Y-64285000D01*
X135320000Y-72500000D02*
X141500000Y-72500000D01*
X142250000Y-71750000D02*
X142250000Y-65725000D01*
%TO.N,/linpot_in*%
X138700000Y-71000000D02*
X140000000Y-71000000D01*
X140000000Y-71000000D02*
X141525000Y-69475000D01*
X143830000Y-61745000D02*
X145155000Y-61745000D01*
X141525000Y-64050000D02*
X143830000Y-61745000D01*
X141525000Y-69475000D02*
X141525000Y-64050000D01*
X145155000Y-61745000D02*
X145350000Y-61940000D01*
%TO.N,/SCL*%
X145350000Y-70451530D02*
X145350000Y-67020000D01*
X139551530Y-76250000D02*
X145350000Y-70451530D01*
X136570000Y-76250000D02*
X139551530Y-76250000D01*
%TO.N,/linpot_out*%
X132000000Y-59501000D02*
X132000000Y-56300000D01*
%TO.N,/Debug2*%
X129000000Y-46950000D02*
X122800000Y-46950000D01*
X122800000Y-46950000D02*
X122200000Y-47550000D01*
%TO.N,/CAN_+*%
X116700000Y-62500000D02*
X118450000Y-64250000D01*
X115200000Y-59400000D02*
X116700000Y-60900000D01*
X117600000Y-73950000D02*
X115100000Y-73950000D01*
X115140000Y-59400000D02*
X115200000Y-59400000D01*
X116700000Y-60900000D02*
X116700000Y-62500000D01*
X118450000Y-73100000D02*
X117600000Y-73950000D01*
X118450000Y-64250000D02*
X118450000Y-73100000D01*
%TO.N,/linpot_adj*%
X144775000Y-59400000D02*
X142425000Y-61750000D01*
%TD*%
%TA.AperFunction,Conductor*%
%TO.N,GND*%
G36*
X135185270Y-77011717D02*
G01*
X135185271Y-77011716D01*
X135219372Y-76964781D01*
X135274702Y-76922115D01*
X135344315Y-76916136D01*
X135406110Y-76948742D01*
X135420008Y-76964781D01*
X135539890Y-77129785D01*
X135539894Y-77129790D01*
X135690209Y-77280105D01*
X135690214Y-77280109D01*
X135854793Y-77399682D01*
X135897459Y-77455011D01*
X135903438Y-77524625D01*
X135870833Y-77586420D01*
X135854793Y-77600318D01*
X135690215Y-77719889D01*
X135551035Y-77859069D01*
X135489712Y-77892553D01*
X135420020Y-77887569D01*
X135364087Y-77845697D01*
X135357815Y-77836484D01*
X135262315Y-77681654D01*
X135138345Y-77557684D01*
X134989124Y-77465643D01*
X134989119Y-77465641D01*
X134931575Y-77446573D01*
X134928396Y-77446632D01*
X134922645Y-77444133D01*
X134919939Y-77443990D01*
X134896025Y-77432567D01*
X134894107Y-77431384D01*
X134860785Y-77394338D01*
X134281058Y-76814612D01*
X134301591Y-76809111D01*
X134438408Y-76730119D01*
X134550119Y-76618408D01*
X134629111Y-76481591D01*
X134634612Y-76461058D01*
X135185270Y-77011717D01*
G37*
%TD.AperFunction*%
%TA.AperFunction,Conductor*%
G36*
X135406420Y-74449166D02*
G01*
X135420313Y-74465199D01*
X135510558Y-74589411D01*
X135539896Y-74629792D01*
X135690209Y-74780105D01*
X135690214Y-74780109D01*
X135854793Y-74899682D01*
X135897459Y-74955011D01*
X135903438Y-75024625D01*
X135870833Y-75086420D01*
X135854793Y-75100318D01*
X135690214Y-75219890D01*
X135690209Y-75219894D01*
X135539894Y-75370209D01*
X135539890Y-75370214D01*
X135420008Y-75535219D01*
X135364678Y-75577885D01*
X135295065Y-75583864D01*
X135233270Y-75551259D01*
X135219371Y-75535219D01*
X135185269Y-75488282D01*
X134634612Y-76038940D01*
X134629111Y-76018409D01*
X134550119Y-75881592D01*
X134438408Y-75769881D01*
X134301591Y-75690889D01*
X134281058Y-75685387D01*
X134831716Y-75134728D01*
X134784780Y-75100628D01*
X134742114Y-75045298D01*
X134736135Y-74975685D01*
X134768740Y-74913889D01*
X134784776Y-74899994D01*
X134949792Y-74780104D01*
X135100104Y-74629792D01*
X135219683Y-74465204D01*
X135275011Y-74422540D01*
X135344624Y-74416561D01*
X135406420Y-74449166D01*
G37*
%TD.AperFunction*%
%TA.AperFunction,Conductor*%
G36*
X144753736Y-40750726D02*
G01*
X145043796Y-40768271D01*
X145058659Y-40770076D01*
X145340798Y-40821780D01*
X145355335Y-40825363D01*
X145629172Y-40910695D01*
X145643163Y-40916000D01*
X145904743Y-41033727D01*
X145917989Y-41040680D01*
X146163465Y-41189075D01*
X146175776Y-41197573D01*
X146401573Y-41374473D01*
X146412781Y-41384403D01*
X146615596Y-41587218D01*
X146625526Y-41598426D01*
X146745481Y-41751538D01*
X146802422Y-41824217D01*
X146810928Y-41836540D01*
X146959316Y-42082004D01*
X146966275Y-42095263D01*
X147083997Y-42356831D01*
X147089306Y-42370832D01*
X147174635Y-42644663D01*
X147178219Y-42659201D01*
X147229923Y-42941340D01*
X147231728Y-42956205D01*
X147249274Y-43246263D01*
X147249500Y-43253750D01*
X147249500Y-98496249D01*
X147249274Y-98503736D01*
X147231728Y-98793794D01*
X147229923Y-98808659D01*
X147178219Y-99090798D01*
X147174635Y-99105336D01*
X147089306Y-99379167D01*
X147083997Y-99393168D01*
X146966275Y-99654736D01*
X146959316Y-99667995D01*
X146810928Y-99913459D01*
X146802422Y-99925782D01*
X146625526Y-100151573D01*
X146615596Y-100162781D01*
X146412781Y-100365596D01*
X146401573Y-100375526D01*
X146175782Y-100552422D01*
X146163459Y-100560928D01*
X145917995Y-100709316D01*
X145904736Y-100716275D01*
X145643168Y-100833997D01*
X145629167Y-100839306D01*
X145355336Y-100924635D01*
X145340798Y-100928219D01*
X145058659Y-100979923D01*
X145043794Y-100981728D01*
X144753736Y-100999274D01*
X144746249Y-100999500D01*
X140626345Y-100999500D01*
X140559306Y-100979815D01*
X140513551Y-100927011D01*
X140503607Y-100857853D01*
X140532632Y-100794297D01*
X140557454Y-100772398D01*
X140657044Y-100705854D01*
X140938101Y-100475197D01*
X141195197Y-100218101D01*
X141425854Y-99937044D01*
X141627853Y-99634732D01*
X141799247Y-99314076D01*
X141938386Y-98978164D01*
X142043930Y-98630233D01*
X142043932Y-98630223D01*
X142043935Y-98630212D01*
X142114862Y-98273630D01*
X142122416Y-98196930D01*
X142150500Y-97911794D01*
X142150500Y-97548206D01*
X142114862Y-97186369D01*
X142089239Y-97057552D01*
X142043935Y-96829787D01*
X142043932Y-96829776D01*
X142043931Y-96829773D01*
X142043930Y-96829767D01*
X141938386Y-96481836D01*
X141799247Y-96145924D01*
X141761337Y-96075000D01*
X141627859Y-95825279D01*
X141627858Y-95825277D01*
X141627853Y-95825268D01*
X141425854Y-95522956D01*
X141195197Y-95241899D01*
X141195196Y-95241898D01*
X141195192Y-95241893D01*
X140938106Y-94984807D01*
X140657049Y-94754150D01*
X140657048Y-94754149D01*
X140657044Y-94754146D01*
X140354732Y-94552147D01*
X140354727Y-94552144D01*
X140354720Y-94552140D01*
X140034083Y-94380756D01*
X140034078Y-94380754D01*
X139698165Y-94241614D01*
X139350223Y-94136067D01*
X139350212Y-94136064D01*
X138993630Y-94065137D01*
X138721111Y-94038296D01*
X138631794Y-94029500D01*
X138268206Y-94029500D01*
X138185679Y-94037628D01*
X137906369Y-94065137D01*
X137549787Y-94136064D01*
X137549776Y-94136067D01*
X137201834Y-94241614D01*
X136865921Y-94380754D01*
X136865916Y-94380756D01*
X136545279Y-94552140D01*
X136545261Y-94552151D01*
X136242964Y-94754140D01*
X136242950Y-94754150D01*
X135961893Y-94984807D01*
X135704807Y-95241893D01*
X135474150Y-95522950D01*
X135474140Y-95522964D01*
X135272151Y-95825261D01*
X135272140Y-95825279D01*
X135100756Y-96145916D01*
X135100754Y-96145921D01*
X134961614Y-96481834D01*
X134856067Y-96829776D01*
X134856064Y-96829787D01*
X134785137Y-97186369D01*
X134749500Y-97548209D01*
X134749500Y-97911790D01*
X134785137Y-98273630D01*
X134856064Y-98630212D01*
X134856067Y-98630223D01*
X134961614Y-98978165D01*
X135100754Y-99314078D01*
X135100756Y-99314083D01*
X135272140Y-99634720D01*
X135272151Y-99634738D01*
X135474140Y-99937035D01*
X135474150Y-99937049D01*
X135704807Y-100218106D01*
X135961893Y-100475192D01*
X135961898Y-100475196D01*
X135961899Y-100475197D01*
X136242956Y-100705854D01*
X136342546Y-100772398D01*
X136387351Y-100826010D01*
X136396058Y-100895335D01*
X136365904Y-100958362D01*
X136306461Y-100995082D01*
X136273655Y-100999500D01*
X109886345Y-100999500D01*
X109819306Y-100979815D01*
X109773551Y-100927011D01*
X109763607Y-100857853D01*
X109792632Y-100794297D01*
X109817454Y-100772398D01*
X109917044Y-100705854D01*
X110198101Y-100475197D01*
X110455197Y-100218101D01*
X110685854Y-99937044D01*
X110887853Y-99634732D01*
X111059247Y-99314076D01*
X111198386Y-98978164D01*
X111303930Y-98630233D01*
X111303932Y-98630223D01*
X111303935Y-98630212D01*
X111374862Y-98273630D01*
X111382416Y-98196930D01*
X111410500Y-97911794D01*
X111410500Y-97548206D01*
X111374862Y-97186369D01*
X111349239Y-97057552D01*
X111303935Y-96829787D01*
X111303932Y-96829776D01*
X111303931Y-96829773D01*
X111303930Y-96829767D01*
X111212133Y-96527155D01*
X112100000Y-96527155D01*
X112100000Y-97575000D01*
X113301518Y-97575000D01*
X113290889Y-97593409D01*
X113250000Y-97746009D01*
X113250000Y-97903991D01*
X113290889Y-98056591D01*
X113301518Y-98075000D01*
X112100000Y-98075000D01*
X112100000Y-99122844D01*
X112106401Y-99182372D01*
X112106403Y-99182379D01*
X112156645Y-99317086D01*
X112156649Y-99317093D01*
X112242809Y-99432187D01*
X112242812Y-99432190D01*
X112357906Y-99518350D01*
X112357913Y-99518354D01*
X112492620Y-99568596D01*
X112492627Y-99568598D01*
X112552155Y-99574999D01*
X112552172Y-99575000D01*
X113600000Y-99575000D01*
X113600000Y-98373482D01*
X113618409Y-98384111D01*
X113771009Y-98425000D01*
X113928991Y-98425000D01*
X114081591Y-98384111D01*
X114100000Y-98373482D01*
X114100000Y-99575000D01*
X115147828Y-99575000D01*
X115147844Y-99574999D01*
X115207372Y-99568598D01*
X115207379Y-99568596D01*
X115342086Y-99518354D01*
X115342093Y-99518350D01*
X115457187Y-99432190D01*
X115457190Y-99432187D01*
X115543350Y-99317093D01*
X115543354Y-99317086D01*
X115593596Y-99182379D01*
X115593598Y-99182372D01*
X115599999Y-99122844D01*
X115600000Y-99122827D01*
X115600000Y-98075000D01*
X114398482Y-98075000D01*
X114409111Y-98056591D01*
X114450000Y-97903991D01*
X114450000Y-97746009D01*
X114409111Y-97593409D01*
X114398482Y-97575000D01*
X115600000Y-97575000D01*
X115600000Y-97393389D01*
X117599500Y-97393389D01*
X117599500Y-97566611D01*
X117626598Y-97737701D01*
X117629297Y-97746009D01*
X117680128Y-97902447D01*
X117735685Y-98011484D01*
X117758768Y-98056788D01*
X117860586Y-98196928D01*
X117983072Y-98319414D01*
X118123212Y-98421232D01*
X118277555Y-98499873D01*
X118442299Y-98553402D01*
X118613389Y-98580500D01*
X118613390Y-98580500D01*
X118786610Y-98580500D01*
X118786611Y-98580500D01*
X118957701Y-98553402D01*
X119122445Y-98499873D01*
X119276788Y-98421232D01*
X119416928Y-98319414D01*
X119539414Y-98196928D01*
X119641232Y-98056788D01*
X119719873Y-97902445D01*
X119773402Y-97737701D01*
X119800500Y-97566611D01*
X119800500Y-97393389D01*
X127599500Y-97393389D01*
X127599500Y-97566611D01*
X127626598Y-97737701D01*
X127629297Y-97746009D01*
X127680128Y-97902447D01*
X127735685Y-98011484D01*
X127758768Y-98056788D01*
X127860586Y-98196928D01*
X127983072Y-98319414D01*
X128123212Y-98421232D01*
X128277555Y-98499873D01*
X128442299Y-98553402D01*
X128613389Y-98580500D01*
X128613390Y-98580500D01*
X128786610Y-98580500D01*
X128786611Y-98580500D01*
X128957701Y-98553402D01*
X129122445Y-98499873D01*
X129276788Y-98421232D01*
X129416928Y-98319414D01*
X129539414Y-98196928D01*
X129641232Y-98056788D01*
X129719873Y-97902445D01*
X129773402Y-97737701D01*
X129800500Y-97566611D01*
X129800500Y-97393389D01*
X129773402Y-97222299D01*
X129719873Y-97057555D01*
X129641232Y-96903212D01*
X129539414Y-96763072D01*
X129416928Y-96640586D01*
X129276788Y-96538768D01*
X129122445Y-96460127D01*
X128957701Y-96406598D01*
X128957699Y-96406597D01*
X128957698Y-96406597D01*
X128826271Y-96385781D01*
X128786611Y-96379500D01*
X128613389Y-96379500D01*
X128573728Y-96385781D01*
X128442302Y-96406597D01*
X128277552Y-96460128D01*
X128123211Y-96538768D01*
X128043256Y-96596859D01*
X127983072Y-96640586D01*
X127983070Y-96640588D01*
X127983069Y-96640588D01*
X127860588Y-96763069D01*
X127860588Y-96763070D01*
X127860586Y-96763072D01*
X127816859Y-96823256D01*
X127758768Y-96903211D01*
X127680128Y-97057552D01*
X127626597Y-97222302D01*
X127626170Y-97225000D01*
X127599500Y-97393389D01*
X119800500Y-97393389D01*
X119773402Y-97222299D01*
X119719873Y-97057555D01*
X119641232Y-96903212D01*
X119539414Y-96763072D01*
X119416928Y-96640586D01*
X119276788Y-96538768D01*
X119122445Y-96460127D01*
X118957701Y-96406598D01*
X118957699Y-96406597D01*
X118957698Y-96406597D01*
X118826271Y-96385781D01*
X118786611Y-96379500D01*
X118613389Y-96379500D01*
X118573728Y-96385781D01*
X118442302Y-96406597D01*
X118277552Y-96460128D01*
X118123211Y-96538768D01*
X118043256Y-96596859D01*
X117983072Y-96640586D01*
X117983070Y-96640588D01*
X117983069Y-96640588D01*
X117860588Y-96763069D01*
X117860588Y-96763070D01*
X117860586Y-96763072D01*
X117816859Y-96823256D01*
X117758768Y-96903211D01*
X117680128Y-97057552D01*
X117626597Y-97222302D01*
X117626170Y-97225000D01*
X117599500Y-97393389D01*
X115600000Y-97393389D01*
X115600000Y-96527172D01*
X115599999Y-96527155D01*
X115593598Y-96467627D01*
X115593596Y-96467620D01*
X115543354Y-96332913D01*
X115543350Y-96332906D01*
X115457190Y-96217812D01*
X115457187Y-96217809D01*
X115342093Y-96131649D01*
X115342086Y-96131645D01*
X115207379Y-96081403D01*
X115207372Y-96081401D01*
X115147844Y-96075000D01*
X114100000Y-96075000D01*
X114100000Y-97276517D01*
X114081591Y-97265889D01*
X113928991Y-97225000D01*
X113771009Y-97225000D01*
X113618409Y-97265889D01*
X113600000Y-97276517D01*
X113600000Y-96075000D01*
X112552155Y-96075000D01*
X112492627Y-96081401D01*
X112492620Y-96081403D01*
X112357913Y-96131645D01*
X112357906Y-96131649D01*
X112242812Y-96217809D01*
X112242809Y-96217812D01*
X112156649Y-96332906D01*
X112156645Y-96332913D01*
X112106403Y-96467620D01*
X112106401Y-96467627D01*
X112100000Y-96527155D01*
X111212133Y-96527155D01*
X111198386Y-96481836D01*
X111059247Y-96145924D01*
X111021337Y-96075000D01*
X110887859Y-95825279D01*
X110887858Y-95825277D01*
X110887853Y-95825268D01*
X110685854Y-95522956D01*
X110455197Y-95241899D01*
X110455196Y-95241898D01*
X110455192Y-95241893D01*
X110198106Y-94984807D01*
X109917049Y-94754150D01*
X109917048Y-94754149D01*
X109917044Y-94754146D01*
X109614732Y-94552147D01*
X109614727Y-94552144D01*
X109614720Y-94552140D01*
X109294083Y-94380756D01*
X109294078Y-94380754D01*
X108958165Y-94241614D01*
X108610223Y-94136067D01*
X108610212Y-94136064D01*
X108253630Y-94065137D01*
X107981111Y-94038296D01*
X107891794Y-94029500D01*
X107528206Y-94029500D01*
X107445679Y-94037628D01*
X107166369Y-94065137D01*
X106809787Y-94136064D01*
X106809776Y-94136067D01*
X106461834Y-94241614D01*
X106125921Y-94380754D01*
X106125916Y-94380756D01*
X105805279Y-94552140D01*
X105805261Y-94552151D01*
X105502964Y-94754140D01*
X105502950Y-94754150D01*
X105221893Y-94984807D01*
X104962650Y-95244051D01*
X104961659Y-95243060D01*
X104906718Y-95276628D01*
X104836867Y-95275038D01*
X104778964Y-95235936D01*
X104751392Y-95171737D01*
X104750500Y-95156887D01*
X104750500Y-81363389D01*
X106819500Y-81363389D01*
X106819500Y-81536611D01*
X106846598Y-81707701D01*
X106900127Y-81872445D01*
X106978768Y-82026788D01*
X107080586Y-82166928D01*
X107203072Y-82289414D01*
X107343212Y-82391232D01*
X107497555Y-82469873D01*
X107662299Y-82523402D01*
X107833389Y-82550500D01*
X107833390Y-82550500D01*
X108006610Y-82550500D01*
X108006611Y-82550500D01*
X108177701Y-82523402D01*
X108342445Y-82469873D01*
X108496788Y-82391232D01*
X108636928Y-82289414D01*
X108759414Y-82166928D01*
X108861232Y-82026788D01*
X108939873Y-81872445D01*
X108993402Y-81707701D01*
X109020500Y-81536611D01*
X109020500Y-81363389D01*
X108993402Y-81192299D01*
X108939873Y-81027555D01*
X108861232Y-80873212D01*
X108759414Y-80733072D01*
X108636928Y-80610586D01*
X108496788Y-80508768D01*
X108342445Y-80430127D01*
X108177701Y-80376598D01*
X108177699Y-80376597D01*
X108177698Y-80376597D01*
X108046271Y-80355781D01*
X108006611Y-80349500D01*
X107833389Y-80349500D01*
X107793728Y-80355781D01*
X107662302Y-80376597D01*
X107497552Y-80430128D01*
X107343211Y-80508768D01*
X107263256Y-80566859D01*
X107203072Y-80610586D01*
X107203070Y-80610588D01*
X107203069Y-80610588D01*
X107080588Y-80733069D01*
X107080588Y-80733070D01*
X107080586Y-80733072D01*
X107045904Y-80780807D01*
X106978768Y-80873211D01*
X106900128Y-81027552D01*
X106846597Y-81192302D01*
X106834846Y-81266498D01*
X106819500Y-81363389D01*
X104750500Y-81363389D01*
X104750500Y-74721153D01*
X111699500Y-74721153D01*
X111699500Y-74878846D01*
X111730261Y-75033489D01*
X111730263Y-75033497D01*
X111740061Y-75057151D01*
X111749500Y-75104604D01*
X111749500Y-82723918D01*
X111749500Y-82723920D01*
X111749499Y-82723920D01*
X111778340Y-82868907D01*
X111778343Y-82868917D01*
X111834914Y-83005492D01*
X111867812Y-83054727D01*
X111867813Y-83054730D01*
X111917046Y-83128414D01*
X111917052Y-83128421D01*
X113671580Y-84882948D01*
X113671584Y-84882951D01*
X113794498Y-84965080D01*
X113794511Y-84965087D01*
X113931082Y-85021656D01*
X113931087Y-85021658D01*
X113931091Y-85021658D01*
X113931092Y-85021659D01*
X114076079Y-85050500D01*
X114076082Y-85050500D01*
X114223917Y-85050500D01*
X117487770Y-85050500D01*
X117554809Y-85070185D01*
X117575451Y-85086819D01*
X117913181Y-85424548D01*
X117946666Y-85485871D01*
X117949500Y-85512229D01*
X117949500Y-88619699D01*
X117929815Y-88686738D01*
X117877011Y-88732493D01*
X117864507Y-88737403D01*
X117831962Y-88748188D01*
X117780668Y-88765185D01*
X117780663Y-88765187D01*
X117631342Y-88857289D01*
X117507289Y-88981342D01*
X117415187Y-89130663D01*
X117415185Y-89130668D01*
X117410325Y-89145334D01*
X117360001Y-89297203D01*
X117360001Y-89297204D01*
X117360000Y-89297204D01*
X117349501Y-89399979D01*
X117349500Y-89399996D01*
X117349500Y-91200001D01*
X117349501Y-91200018D01*
X117360000Y-91302796D01*
X117360001Y-91302799D01*
X117405894Y-91441294D01*
X117415186Y-91469334D01*
X117507288Y-91618656D01*
X117631344Y-91742712D01*
X117780666Y-91834814D01*
X117947203Y-91889999D01*
X118049991Y-91900500D01*
X119350008Y-91900499D01*
X119452797Y-91889999D01*
X119619334Y-91834814D01*
X119768656Y-91742712D01*
X119892712Y-91618656D01*
X119984814Y-91469334D01*
X119984814Y-91469331D01*
X119988178Y-91463879D01*
X120040126Y-91417154D01*
X120109088Y-91405931D01*
X120173170Y-91433774D01*
X120181398Y-91441294D01*
X120320213Y-91580109D01*
X120492179Y-91705048D01*
X120492181Y-91705049D01*
X120492184Y-91705051D01*
X120681588Y-91801557D01*
X120883757Y-91867246D01*
X121093713Y-91900500D01*
X121093714Y-91900500D01*
X121306286Y-91900500D01*
X121306287Y-91900500D01*
X121516243Y-91867246D01*
X121718412Y-91801557D01*
X121907816Y-91705051D01*
X121957273Y-91669119D01*
X122079786Y-91580109D01*
X122079788Y-91580106D01*
X122079792Y-91580104D01*
X122230104Y-91429792D01*
X122349683Y-91265204D01*
X122405011Y-91222540D01*
X122474624Y-91216561D01*
X122536420Y-91249166D01*
X122550313Y-91265199D01*
X122648241Y-91399986D01*
X122669896Y-91429792D01*
X122820213Y-91580109D01*
X122992179Y-91705048D01*
X122992181Y-91705049D01*
X122992184Y-91705051D01*
X123181588Y-91801557D01*
X123383757Y-91867246D01*
X123593713Y-91900500D01*
X123593714Y-91900500D01*
X123806286Y-91900500D01*
X123806287Y-91900500D01*
X124016243Y-91867246D01*
X124218412Y-91801557D01*
X124407816Y-91705051D01*
X124457273Y-91669119D01*
X124579786Y-91580109D01*
X124579788Y-91580106D01*
X124579792Y-91580104D01*
X124730104Y-91429792D01*
X124849991Y-91264779D01*
X124905320Y-91222115D01*
X124974933Y-91216136D01*
X125036729Y-91248741D01*
X125050627Y-91264781D01*
X125170272Y-91429459D01*
X125170276Y-91429464D01*
X125320535Y-91579723D01*
X125320540Y-91579727D01*
X125492442Y-91704620D01*
X125681782Y-91801095D01*
X125883871Y-91866757D01*
X125950000Y-91877231D01*
X125950000Y-90848482D01*
X125968409Y-90859111D01*
X126121009Y-90900000D01*
X126278991Y-90900000D01*
X126431591Y-90859111D01*
X126450000Y-90848482D01*
X126450000Y-91877230D01*
X126516126Y-91866757D01*
X126516129Y-91866757D01*
X126718217Y-91801095D01*
X126907557Y-91704620D01*
X127079459Y-91579727D01*
X127079464Y-91579723D01*
X127229721Y-91429466D01*
X127349371Y-91264781D01*
X127404701Y-91222115D01*
X127474314Y-91216136D01*
X127536110Y-91248741D01*
X127550008Y-91264781D01*
X127669890Y-91429785D01*
X127669894Y-91429790D01*
X127820213Y-91580109D01*
X127992179Y-91705048D01*
X127992181Y-91705049D01*
X127992184Y-91705051D01*
X128181588Y-91801557D01*
X128383757Y-91867246D01*
X128593713Y-91900500D01*
X128593714Y-91900500D01*
X128806286Y-91900500D01*
X128806287Y-91900500D01*
X129016243Y-91867246D01*
X129218412Y-91801557D01*
X129407816Y-91705051D01*
X129457273Y-91669119D01*
X129579786Y-91580109D01*
X129579788Y-91580106D01*
X129579792Y-91580104D01*
X129730104Y-91429792D01*
X129730106Y-91429788D01*
X129730109Y-91429786D01*
X129855048Y-91257820D01*
X129855047Y-91257820D01*
X129855051Y-91257816D01*
X129951557Y-91068412D01*
X130017246Y-90866243D01*
X130050500Y-90656287D01*
X130050500Y-89943713D01*
X130017246Y-89733757D01*
X129951557Y-89531588D01*
X129855051Y-89342184D01*
X129855049Y-89342181D01*
X129855048Y-89342179D01*
X129730109Y-89170213D01*
X129579786Y-89019890D01*
X129407820Y-88894951D01*
X129218414Y-88798444D01*
X129218413Y-88798443D01*
X129218412Y-88798443D01*
X129016243Y-88732754D01*
X129016241Y-88732753D01*
X129016240Y-88732753D01*
X128854957Y-88707208D01*
X128806287Y-88699500D01*
X128593713Y-88699500D01*
X128545042Y-88707208D01*
X128383760Y-88732753D01*
X128181585Y-88798444D01*
X127992179Y-88894951D01*
X127820213Y-89019890D01*
X127669894Y-89170209D01*
X127669890Y-89170214D01*
X127550008Y-89335218D01*
X127494678Y-89377884D01*
X127425065Y-89383863D01*
X127363270Y-89351257D01*
X127349372Y-89335218D01*
X127229727Y-89170540D01*
X127229723Y-89170535D01*
X127079464Y-89020276D01*
X127079459Y-89020272D01*
X126907557Y-88895379D01*
X126718215Y-88798903D01*
X126516124Y-88733241D01*
X126450000Y-88722768D01*
X126450000Y-89751517D01*
X126431591Y-89740889D01*
X126278991Y-89700000D01*
X126121009Y-89700000D01*
X125968409Y-89740889D01*
X125950000Y-89751517D01*
X125950000Y-88722768D01*
X125949999Y-88722768D01*
X125883875Y-88733241D01*
X125681784Y-88798903D01*
X125492442Y-88895379D01*
X125320540Y-89020272D01*
X125320535Y-89020276D01*
X125170276Y-89170535D01*
X125170272Y-89170540D01*
X125050627Y-89335218D01*
X124995297Y-89377884D01*
X124925684Y-89383863D01*
X124863889Y-89351257D01*
X124849991Y-89335218D01*
X124730109Y-89170214D01*
X124730105Y-89170209D01*
X124579786Y-89019890D01*
X124407820Y-88894951D01*
X124218414Y-88798444D01*
X124218413Y-88798443D01*
X124218412Y-88798443D01*
X124016243Y-88732754D01*
X124016241Y-88732753D01*
X124016240Y-88732753D01*
X123854957Y-88707208D01*
X123806287Y-88699500D01*
X123593713Y-88699500D01*
X123545042Y-88707208D01*
X123383760Y-88732753D01*
X123181585Y-88798444D01*
X122992179Y-88894951D01*
X122820213Y-89019890D01*
X122669894Y-89170209D01*
X122669890Y-89170214D01*
X122550318Y-89334793D01*
X122494989Y-89377459D01*
X122425375Y-89383438D01*
X122363580Y-89350833D01*
X122349682Y-89334793D01*
X122230109Y-89170214D01*
X122230105Y-89170209D01*
X122079786Y-89019890D01*
X121907820Y-88894951D01*
X121718414Y-88798444D01*
X121718413Y-88798443D01*
X121718412Y-88798443D01*
X121516243Y-88732754D01*
X121516241Y-88732753D01*
X121516240Y-88732753D01*
X121354957Y-88707208D01*
X121306287Y-88699500D01*
X121093713Y-88699500D01*
X121045042Y-88707208D01*
X120883760Y-88732753D01*
X120681585Y-88798444D01*
X120492179Y-88894951D01*
X120320215Y-89019889D01*
X120181398Y-89158706D01*
X120120075Y-89192190D01*
X120050383Y-89187206D01*
X119994450Y-89145334D01*
X119988178Y-89136120D01*
X119892712Y-88981344D01*
X119768657Y-88857289D01*
X119768656Y-88857288D01*
X119673253Y-88798443D01*
X119619336Y-88765187D01*
X119619331Y-88765185D01*
X119617082Y-88764439D01*
X119535495Y-88737404D01*
X119478051Y-88697632D01*
X119451228Y-88633116D01*
X119450500Y-88619699D01*
X119450500Y-85076079D01*
X119440588Y-85026253D01*
X119428421Y-84965084D01*
X119421659Y-84931088D01*
X119366322Y-84797496D01*
X119365425Y-84795014D01*
X119282954Y-84671588D01*
X119282953Y-84671587D01*
X119282951Y-84671584D01*
X119178416Y-84567049D01*
X119011357Y-84399990D01*
X118328421Y-83717052D01*
X118328414Y-83717046D01*
X118254729Y-83667812D01*
X118254729Y-83667813D01*
X118205491Y-83634913D01*
X118068917Y-83578343D01*
X118068907Y-83578340D01*
X117923920Y-83549500D01*
X117923918Y-83549500D01*
X114512229Y-83549500D01*
X114445190Y-83529815D01*
X114424548Y-83513181D01*
X114137889Y-83226522D01*
X114055080Y-83143713D01*
X134969500Y-83143713D01*
X134969500Y-83356287D01*
X135002754Y-83566243D01*
X135037261Y-83672445D01*
X135068444Y-83768414D01*
X135164951Y-83957820D01*
X135289890Y-84129786D01*
X135440209Y-84280105D01*
X135440214Y-84280109D01*
X135605218Y-84399991D01*
X135647884Y-84455320D01*
X135653863Y-84524934D01*
X135621258Y-84586729D01*
X135605218Y-84600627D01*
X135440540Y-84720272D01*
X135440535Y-84720276D01*
X135290276Y-84870535D01*
X135290272Y-84870540D01*
X135165379Y-85042442D01*
X135068904Y-85231782D01*
X135003242Y-85433870D01*
X135003242Y-85433873D01*
X134992769Y-85500000D01*
X136021518Y-85500000D01*
X136010889Y-85518409D01*
X135970000Y-85671009D01*
X135970000Y-85828991D01*
X136010889Y-85981591D01*
X136021518Y-86000000D01*
X134992769Y-86000000D01*
X135003242Y-86066126D01*
X135003242Y-86066129D01*
X135068904Y-86268217D01*
X135165379Y-86457557D01*
X135290272Y-86629459D01*
X135290276Y-86629464D01*
X135440535Y-86779723D01*
X135440540Y-86779727D01*
X135605218Y-86899372D01*
X135647884Y-86954701D01*
X135653863Y-87024315D01*
X135621258Y-87086110D01*
X135605218Y-87100008D01*
X135440214Y-87219890D01*
X135440209Y-87219894D01*
X135289890Y-87370213D01*
X135164951Y-87542179D01*
X135068444Y-87731585D01*
X135002753Y-87933760D01*
X134969500Y-88143713D01*
X134969500Y-88356287D01*
X135002754Y-88566243D01*
X135067394Y-88765185D01*
X135068444Y-88768414D01*
X135164951Y-88957820D01*
X135289890Y-89129786D01*
X135429068Y-89268964D01*
X135462553Y-89330287D01*
X135457569Y-89399979D01*
X135415697Y-89455912D01*
X135406484Y-89462183D01*
X135251659Y-89557680D01*
X135251655Y-89557683D01*
X135127684Y-89681654D01*
X135035643Y-89830875D01*
X135035641Y-89830880D01*
X134980494Y-89997302D01*
X134980493Y-89997309D01*
X134970000Y-90100013D01*
X134970000Y-90500000D01*
X136021518Y-90500000D01*
X136010889Y-90518409D01*
X135970000Y-90671009D01*
X135970000Y-90828991D01*
X136010889Y-90981591D01*
X136021518Y-91000000D01*
X134970001Y-91000000D01*
X134970001Y-91399986D01*
X134980494Y-91502697D01*
X135035641Y-91669119D01*
X135035643Y-91669124D01*
X135127684Y-91818345D01*
X135251654Y-91942315D01*
X135400875Y-92034356D01*
X135400880Y-92034358D01*
X135567302Y-92089505D01*
X135567309Y-92089506D01*
X135670019Y-92099999D01*
X136319999Y-92099999D01*
X136320000Y-92099998D01*
X136320000Y-91298482D01*
X136338409Y-91309111D01*
X136491009Y-91350000D01*
X136648991Y-91350000D01*
X136801591Y-91309111D01*
X136820000Y-91298482D01*
X136820000Y-92099999D01*
X137469972Y-92099999D01*
X137469986Y-92099998D01*
X137572697Y-92089505D01*
X137739119Y-92034358D01*
X137739124Y-92034356D01*
X137888345Y-91942315D01*
X138012315Y-91818345D01*
X138104356Y-91669124D01*
X138104358Y-91669119D01*
X138159505Y-91502697D01*
X138159506Y-91502690D01*
X138169999Y-91399986D01*
X138170000Y-91399973D01*
X138170000Y-91000000D01*
X137118482Y-91000000D01*
X137129111Y-90981591D01*
X137170000Y-90828991D01*
X137170000Y-90671009D01*
X137167958Y-90663389D01*
X142649500Y-90663389D01*
X142649500Y-90836610D01*
X142672462Y-90981591D01*
X142676598Y-91007701D01*
X142730127Y-91172445D01*
X142808768Y-91326788D01*
X142910586Y-91466928D01*
X143033072Y-91589414D01*
X143173212Y-91691232D01*
X143327555Y-91769873D01*
X143492299Y-91823402D01*
X143663389Y-91850500D01*
X143663390Y-91850500D01*
X143836610Y-91850500D01*
X143836611Y-91850500D01*
X144007701Y-91823402D01*
X144172445Y-91769873D01*
X144326788Y-91691232D01*
X144466928Y-91589414D01*
X144589414Y-91466928D01*
X144691232Y-91326788D01*
X144769873Y-91172445D01*
X144823402Y-91007701D01*
X144850500Y-90836611D01*
X144850500Y-90663389D01*
X144823402Y-90492299D01*
X144769873Y-90327555D01*
X144691232Y-90173212D01*
X144589414Y-90033072D01*
X144466928Y-89910586D01*
X144326788Y-89808768D01*
X144172445Y-89730127D01*
X144007701Y-89676598D01*
X144007699Y-89676597D01*
X144007698Y-89676597D01*
X143876271Y-89655781D01*
X143836611Y-89649500D01*
X143663389Y-89649500D01*
X143623728Y-89655781D01*
X143492302Y-89676597D01*
X143327552Y-89730128D01*
X143173211Y-89808768D01*
X143093256Y-89866859D01*
X143033072Y-89910586D01*
X143033070Y-89910588D01*
X143033069Y-89910588D01*
X142910588Y-90033069D01*
X142910588Y-90033070D01*
X142910586Y-90033072D01*
X142884912Y-90068409D01*
X142808768Y-90173211D01*
X142730128Y-90327552D01*
X142676597Y-90492302D01*
X142649500Y-90663389D01*
X137167958Y-90663389D01*
X137129111Y-90518409D01*
X137118482Y-90500000D01*
X138169999Y-90500000D01*
X138169999Y-90100028D01*
X138169998Y-90100013D01*
X138159505Y-89997302D01*
X138104358Y-89830880D01*
X138104356Y-89830875D01*
X138012315Y-89681654D01*
X137888345Y-89557684D01*
X137733515Y-89462184D01*
X137686791Y-89410236D01*
X137675568Y-89341273D01*
X137703412Y-89277191D01*
X137710909Y-89268986D01*
X137850104Y-89129792D01*
X137975051Y-88957816D01*
X138071557Y-88768412D01*
X138137246Y-88566243D01*
X138170500Y-88356287D01*
X138170500Y-88143713D01*
X138137246Y-87933757D01*
X138071557Y-87731588D01*
X137975051Y-87542184D01*
X137975049Y-87542181D01*
X137975048Y-87542179D01*
X137850109Y-87370213D01*
X137699790Y-87219894D01*
X137699785Y-87219890D01*
X137534781Y-87100008D01*
X137492115Y-87044678D01*
X137486136Y-86975065D01*
X137518741Y-86913270D01*
X137534781Y-86899371D01*
X137699466Y-86779721D01*
X137849723Y-86629464D01*
X137849727Y-86629459D01*
X137974620Y-86457557D01*
X138071095Y-86268217D01*
X138136757Y-86066129D01*
X138136757Y-86066126D01*
X138147231Y-86000000D01*
X137118482Y-86000000D01*
X137129111Y-85981591D01*
X137170000Y-85828991D01*
X137170000Y-85671009D01*
X137129111Y-85518409D01*
X137118482Y-85500000D01*
X138147231Y-85500000D01*
X138136757Y-85433873D01*
X138136757Y-85433870D01*
X138071095Y-85231782D01*
X137974620Y-85042442D01*
X137849727Y-84870540D01*
X137849723Y-84870535D01*
X137699464Y-84720276D01*
X137699459Y-84720272D01*
X137534781Y-84600627D01*
X137492115Y-84545297D01*
X137486136Y-84475684D01*
X137518741Y-84413889D01*
X137534776Y-84399994D01*
X137699792Y-84280104D01*
X137850104Y-84129792D01*
X137850106Y-84129788D01*
X137850109Y-84129786D01*
X137975048Y-83957820D01*
X137975047Y-83957820D01*
X137975051Y-83957816D01*
X138071557Y-83768412D01*
X138137246Y-83566243D01*
X138170500Y-83356287D01*
X138170500Y-83163389D01*
X142649500Y-83163389D01*
X142649500Y-83336611D01*
X142676598Y-83507701D01*
X142730127Y-83672445D01*
X142808768Y-83826788D01*
X142910586Y-83966928D01*
X143033072Y-84089414D01*
X143173212Y-84191232D01*
X143327555Y-84269873D01*
X143492299Y-84323402D01*
X143663389Y-84350500D01*
X143663390Y-84350500D01*
X143836610Y-84350500D01*
X143836611Y-84350500D01*
X144007701Y-84323402D01*
X144172445Y-84269873D01*
X144326788Y-84191232D01*
X144466928Y-84089414D01*
X144589414Y-83966928D01*
X144691232Y-83826788D01*
X144769873Y-83672445D01*
X144823402Y-83507701D01*
X144850500Y-83336611D01*
X144850500Y-83163389D01*
X144823402Y-82992299D01*
X144769873Y-82827555D01*
X144691232Y-82673212D01*
X144589414Y-82533072D01*
X144466928Y-82410586D01*
X144326788Y-82308768D01*
X144172445Y-82230127D01*
X144007701Y-82176598D01*
X144007699Y-82176597D01*
X144007698Y-82176597D01*
X143876271Y-82155781D01*
X143836611Y-82149500D01*
X143663389Y-82149500D01*
X143623728Y-82155781D01*
X143492302Y-82176597D01*
X143327552Y-82230128D01*
X143173211Y-82308768D01*
X143093256Y-82366859D01*
X143033072Y-82410586D01*
X143033070Y-82410588D01*
X143033069Y-82410588D01*
X142910588Y-82533069D01*
X142910588Y-82533070D01*
X142910586Y-82533072D01*
X142903966Y-82542184D01*
X142808768Y-82673211D01*
X142730128Y-82827552D01*
X142676597Y-82992302D01*
X142666710Y-83054727D01*
X142649500Y-83163389D01*
X138170500Y-83163389D01*
X138170500Y-83143713D01*
X138137246Y-82933757D01*
X138071557Y-82731588D01*
X137975051Y-82542184D01*
X137975049Y-82542181D01*
X137975048Y-82542179D01*
X137850109Y-82370213D01*
X137699786Y-82219890D01*
X137527820Y-82094951D01*
X137338414Y-81998444D01*
X137338413Y-81998443D01*
X137338412Y-81998443D01*
X137136243Y-81932754D01*
X137136241Y-81932753D01*
X137136240Y-81932753D01*
X136974957Y-81907208D01*
X136926287Y-81899500D01*
X136213713Y-81899500D01*
X136165042Y-81907208D01*
X136003760Y-81932753D01*
X135801585Y-81998444D01*
X135612179Y-82094951D01*
X135440213Y-82219890D01*
X135289890Y-82370213D01*
X135164951Y-82542179D01*
X135068444Y-82731585D01*
X135002753Y-82933760D01*
X134971923Y-83128414D01*
X134969500Y-83143713D01*
X114055080Y-83143713D01*
X113845127Y-82933760D01*
X113286819Y-82375451D01*
X113253334Y-82314128D01*
X113250500Y-82287770D01*
X113250500Y-75104604D01*
X113259939Y-75057151D01*
X113269737Y-75033497D01*
X113300500Y-74878842D01*
X113300500Y-74721158D01*
X113300500Y-74721155D01*
X113300499Y-74721153D01*
X113274294Y-74589414D01*
X113269737Y-74566503D01*
X113263109Y-74550501D01*
X113209397Y-74420827D01*
X113209390Y-74420814D01*
X113121789Y-74289711D01*
X113121786Y-74289707D01*
X113010292Y-74178213D01*
X113010288Y-74178210D01*
X112879185Y-74090609D01*
X112879172Y-74090602D01*
X112733501Y-74030264D01*
X112733489Y-74030261D01*
X112578845Y-73999500D01*
X112578842Y-73999500D01*
X112421158Y-73999500D01*
X112421155Y-73999500D01*
X112266510Y-74030261D01*
X112266498Y-74030264D01*
X112120827Y-74090602D01*
X112120814Y-74090609D01*
X111989711Y-74178210D01*
X111989707Y-74178213D01*
X111878213Y-74289707D01*
X111878210Y-74289711D01*
X111790609Y-74420814D01*
X111790602Y-74420827D01*
X111730264Y-74566498D01*
X111730261Y-74566510D01*
X111699500Y-74721153D01*
X104750500Y-74721153D01*
X104750500Y-71363389D01*
X106819500Y-71363389D01*
X106819500Y-71536611D01*
X106827677Y-71588239D01*
X106845205Y-71698910D01*
X106846598Y-71707701D01*
X106900127Y-71872445D01*
X106978768Y-72026788D01*
X107080586Y-72166928D01*
X107203072Y-72289414D01*
X107343212Y-72391232D01*
X107497555Y-72469873D01*
X107662299Y-72523402D01*
X107833389Y-72550500D01*
X107833390Y-72550500D01*
X108006610Y-72550500D01*
X108006611Y-72550500D01*
X108177701Y-72523402D01*
X108342445Y-72469873D01*
X108496788Y-72391232D01*
X108636928Y-72289414D01*
X108759414Y-72166928D01*
X108861232Y-72026788D01*
X108939873Y-71872445D01*
X108993402Y-71707701D01*
X109020500Y-71536611D01*
X109020500Y-71363389D01*
X108993402Y-71192299D01*
X108939873Y-71027555D01*
X108861232Y-70873212D01*
X108861230Y-70873209D01*
X108858694Y-70869718D01*
X108832729Y-70833981D01*
X108808028Y-70799983D01*
X113499500Y-70799983D01*
X113499500Y-72100001D01*
X113499501Y-72100018D01*
X113510000Y-72202796D01*
X113510001Y-72202799D01*
X113538702Y-72289411D01*
X113565186Y-72369334D01*
X113657288Y-72518656D01*
X113781344Y-72642712D01*
X113923065Y-72730126D01*
X113936120Y-72738178D01*
X113982845Y-72790126D01*
X113994068Y-72859088D01*
X113966224Y-72923171D01*
X113958706Y-72931398D01*
X113819889Y-73070215D01*
X113694951Y-73242179D01*
X113598444Y-73431585D01*
X113532753Y-73633760D01*
X113500625Y-73836610D01*
X113499500Y-73843713D01*
X113499500Y-74056287D01*
X113532754Y-74266243D01*
X113597961Y-74466930D01*
X113598444Y-74468414D01*
X113694951Y-74657820D01*
X113819890Y-74829786D01*
X113970209Y-74980105D01*
X113970214Y-74980109D01*
X114134793Y-75099682D01*
X114177459Y-75155011D01*
X114183438Y-75224625D01*
X114150833Y-75286420D01*
X114134793Y-75300318D01*
X113970214Y-75419890D01*
X113970209Y-75419894D01*
X113819890Y-75570213D01*
X113694951Y-75742179D01*
X113598444Y-75931585D01*
X113532753Y-76133760D01*
X113514343Y-76249999D01*
X113499500Y-76343713D01*
X113499500Y-76556287D01*
X113532754Y-76766243D01*
X113597263Y-76964781D01*
X113598444Y-76968414D01*
X113694951Y-77157820D01*
X113819890Y-77329786D01*
X113970209Y-77480105D01*
X113970214Y-77480109D01*
X114135218Y-77599991D01*
X114177884Y-77655320D01*
X114183863Y-77724934D01*
X114151258Y-77786729D01*
X114135218Y-77800627D01*
X113970540Y-77920272D01*
X113970535Y-77920276D01*
X113820276Y-78070535D01*
X113820272Y-78070540D01*
X113695379Y-78242442D01*
X113598904Y-78431782D01*
X113533242Y-78633870D01*
X113533242Y-78633873D01*
X113522769Y-78700000D01*
X114551518Y-78700000D01*
X114540889Y-78718409D01*
X114500000Y-78871009D01*
X114500000Y-79028991D01*
X114540889Y-79181591D01*
X114551518Y-79200000D01*
X113522769Y-79200000D01*
X113533242Y-79266126D01*
X113533242Y-79266129D01*
X113598904Y-79468217D01*
X113695379Y-79657557D01*
X113820272Y-79829459D01*
X113820276Y-79829464D01*
X113970535Y-79979723D01*
X113970540Y-79979727D01*
X114135218Y-80099372D01*
X114177884Y-80154701D01*
X114183863Y-80224315D01*
X114151258Y-80286110D01*
X114135218Y-80300008D01*
X113970214Y-80419890D01*
X113970209Y-80419894D01*
X113819890Y-80570213D01*
X113694951Y-80742179D01*
X113598444Y-80931585D01*
X113532753Y-81133760D01*
X113499500Y-81343713D01*
X113499500Y-81556286D01*
X113527567Y-81733497D01*
X113532754Y-81766243D01*
X113569451Y-81879185D01*
X113598444Y-81968414D01*
X113694951Y-82157820D01*
X113819890Y-82329786D01*
X113970213Y-82480109D01*
X114142179Y-82605048D01*
X114142181Y-82605049D01*
X114142184Y-82605051D01*
X114331588Y-82701557D01*
X114533757Y-82767246D01*
X114743713Y-82800500D01*
X114743714Y-82800500D01*
X115456286Y-82800500D01*
X115456287Y-82800500D01*
X115666243Y-82767246D01*
X115868412Y-82701557D01*
X116057816Y-82605051D01*
X116144346Y-82542184D01*
X116229786Y-82480109D01*
X116229788Y-82480106D01*
X116229792Y-82480104D01*
X116380104Y-82329792D01*
X116380106Y-82329788D01*
X116380109Y-82329786D01*
X116505048Y-82157820D01*
X116505047Y-82157820D01*
X116505051Y-82157816D01*
X116601557Y-81968412D01*
X116667246Y-81766243D01*
X116700500Y-81556287D01*
X116700500Y-81343713D01*
X116667246Y-81133757D01*
X116601557Y-80931588D01*
X116505051Y-80742184D01*
X116505049Y-80742181D01*
X116505048Y-80742179D01*
X116380109Y-80570213D01*
X116229790Y-80419894D01*
X116229785Y-80419890D01*
X116064781Y-80300008D01*
X116022115Y-80244678D01*
X116016136Y-80175065D01*
X116048741Y-80113270D01*
X116064781Y-80099371D01*
X116229466Y-79979721D01*
X116379723Y-79829464D01*
X116379727Y-79829459D01*
X116504620Y-79657557D01*
X116601095Y-79468217D01*
X116666757Y-79266129D01*
X116666757Y-79266126D01*
X116677231Y-79200000D01*
X115648482Y-79200000D01*
X115659111Y-79181591D01*
X115700000Y-79028991D01*
X115700000Y-78871009D01*
X115659111Y-78718409D01*
X115648482Y-78700000D01*
X116677231Y-78700000D01*
X116666757Y-78633873D01*
X116666757Y-78633870D01*
X116601095Y-78431782D01*
X116504620Y-78242442D01*
X116379727Y-78070540D01*
X116379723Y-78070535D01*
X116229464Y-77920276D01*
X116229459Y-77920272D01*
X116064781Y-77800627D01*
X116022115Y-77745297D01*
X116016136Y-77675684D01*
X116048741Y-77613889D01*
X116064776Y-77599994D01*
X116229792Y-77480104D01*
X116380104Y-77329792D01*
X116380106Y-77329788D01*
X116380109Y-77329786D01*
X116505048Y-77157820D01*
X116505047Y-77157820D01*
X116505051Y-77157816D01*
X116601557Y-76968412D01*
X116667246Y-76766243D01*
X116700500Y-76556287D01*
X116700500Y-76343713D01*
X116667246Y-76133757D01*
X116601557Y-75931588D01*
X116505051Y-75742184D01*
X116505049Y-75742181D01*
X116505048Y-75742179D01*
X116380109Y-75570213D01*
X116229792Y-75419896D01*
X116161410Y-75370214D01*
X116065204Y-75300316D01*
X116022540Y-75244989D01*
X116016561Y-75175376D01*
X116049166Y-75113580D01*
X116065199Y-75099686D01*
X116229792Y-74980104D01*
X116380104Y-74829792D01*
X116380106Y-74829788D01*
X116380109Y-74829786D01*
X116438661Y-74749193D01*
X116505051Y-74657816D01*
X116505349Y-74657230D01*
X116525235Y-74618205D01*
X116573209Y-74567409D01*
X116635719Y-74550500D01*
X117513331Y-74550500D01*
X117513347Y-74550501D01*
X117520943Y-74550501D01*
X117679054Y-74550501D01*
X117679057Y-74550501D01*
X117831785Y-74509577D01*
X117881904Y-74480639D01*
X117968716Y-74430520D01*
X118080520Y-74318716D01*
X118080520Y-74318714D01*
X118090728Y-74308507D01*
X118090729Y-74308504D01*
X118930520Y-73468716D01*
X119009577Y-73331784D01*
X119050501Y-73179057D01*
X119050501Y-73020942D01*
X119050501Y-73013347D01*
X119050500Y-73013329D01*
X119050500Y-64339060D01*
X119050501Y-64339047D01*
X119050501Y-64170944D01*
X119044889Y-64150000D01*
X119009577Y-64018216D01*
X118984914Y-63975498D01*
X118930524Y-63881290D01*
X118930518Y-63881282D01*
X117336819Y-62287583D01*
X117303334Y-62226260D01*
X117300500Y-62199902D01*
X117300500Y-61927135D01*
X122149500Y-61927135D01*
X122149500Y-63522870D01*
X122149501Y-63522876D01*
X122155908Y-63582483D01*
X122206202Y-63717328D01*
X122206206Y-63717335D01*
X122292452Y-63832544D01*
X122292455Y-63832547D01*
X122407664Y-63918793D01*
X122407671Y-63918797D01*
X122542517Y-63969091D01*
X122542516Y-63969091D01*
X122549444Y-63969835D01*
X122602127Y-63975500D01*
X124197872Y-63975499D01*
X124257483Y-63969091D01*
X124392331Y-63918796D01*
X124507546Y-63832546D01*
X124593796Y-63717331D01*
X124644091Y-63582483D01*
X124650500Y-63522873D01*
X124650499Y-61927128D01*
X124644091Y-61867517D01*
X124638037Y-61851286D01*
X124593797Y-61732671D01*
X124593793Y-61732664D01*
X124507547Y-61617455D01*
X124507544Y-61617452D01*
X124392335Y-61531206D01*
X124392328Y-61531202D01*
X124257482Y-61480908D01*
X124257483Y-61480908D01*
X124197883Y-61474501D01*
X124197881Y-61474500D01*
X124197873Y-61474500D01*
X124197864Y-61474500D01*
X122602129Y-61474500D01*
X122602123Y-61474501D01*
X122542516Y-61480908D01*
X122407671Y-61531202D01*
X122407664Y-61531206D01*
X122292455Y-61617452D01*
X122292452Y-61617455D01*
X122206206Y-61732664D01*
X122206202Y-61732671D01*
X122155908Y-61867517D01*
X122149501Y-61927116D01*
X122149501Y-61927123D01*
X122149500Y-61927135D01*
X117300500Y-61927135D01*
X117300500Y-60820943D01*
X117294754Y-60799500D01*
X117281625Y-60750500D01*
X117259577Y-60668216D01*
X117214390Y-60589949D01*
X117180524Y-60531290D01*
X117180521Y-60531286D01*
X117180520Y-60531284D01*
X117068716Y-60419480D01*
X117068715Y-60419479D01*
X117064385Y-60415149D01*
X117064374Y-60415139D01*
X116677162Y-60027927D01*
X116643677Y-59966604D01*
X116646911Y-59901931D01*
X116707246Y-59716243D01*
X116740500Y-59506287D01*
X116740500Y-59293713D01*
X116707246Y-59083757D01*
X116641557Y-58881588D01*
X116545051Y-58692184D01*
X116545049Y-58692181D01*
X116545048Y-58692179D01*
X116420109Y-58520213D01*
X116281294Y-58381398D01*
X116247809Y-58320075D01*
X116252793Y-58250383D01*
X116294665Y-58194450D01*
X116303879Y-58188178D01*
X116309331Y-58184814D01*
X116309334Y-58184814D01*
X116458656Y-58092712D01*
X116582712Y-57968656D01*
X116674814Y-57819334D01*
X116729999Y-57652797D01*
X116740500Y-57550009D01*
X116740499Y-56249992D01*
X116739409Y-56239322D01*
X116738219Y-56227666D01*
X116737554Y-56221153D01*
X131199500Y-56221153D01*
X131199500Y-56378846D01*
X131230261Y-56533489D01*
X131230264Y-56533501D01*
X131290602Y-56679172D01*
X131290609Y-56679185D01*
X131378602Y-56810874D01*
X131399480Y-56877551D01*
X131399500Y-56879765D01*
X131399500Y-58921234D01*
X131379815Y-58988273D01*
X131378602Y-58990125D01*
X131290609Y-59121814D01*
X131290602Y-59121827D01*
X131230264Y-59267498D01*
X131230261Y-59267510D01*
X131199500Y-59422153D01*
X131199500Y-59579846D01*
X131230261Y-59734489D01*
X131230264Y-59734501D01*
X131290602Y-59880172D01*
X131290609Y-59880185D01*
X131378210Y-60011288D01*
X131378213Y-60011292D01*
X131489707Y-60122786D01*
X131489711Y-60122789D01*
X131620814Y-60210390D01*
X131620827Y-60210397D01*
X131744828Y-60261759D01*
X131766503Y-60270737D01*
X131921153Y-60301499D01*
X131921156Y-60301500D01*
X131921158Y-60301500D01*
X132078844Y-60301500D01*
X132078845Y-60301499D01*
X132233497Y-60270737D01*
X132379179Y-60210394D01*
X132456609Y-60158657D01*
X132523286Y-60137779D01*
X132590666Y-60156263D01*
X132637357Y-60208242D01*
X132649500Y-60261759D01*
X132649500Y-61163330D01*
X132649499Y-61163348D01*
X132649499Y-61329054D01*
X132649498Y-61329054D01*
X132690422Y-61481783D01*
X132708570Y-61513217D01*
X132769475Y-61618709D01*
X132769481Y-61618717D01*
X132881284Y-61730520D01*
X132915425Y-61764660D01*
X132948911Y-61825983D01*
X132949362Y-61828151D01*
X132980261Y-61983491D01*
X132980264Y-61983501D01*
X133040602Y-62129172D01*
X133040609Y-62129185D01*
X133128210Y-62260288D01*
X133128213Y-62260292D01*
X133239707Y-62371786D01*
X133239711Y-62371789D01*
X133370814Y-62459390D01*
X133370827Y-62459397D01*
X133449894Y-62492147D01*
X133516503Y-62519737D01*
X133671153Y-62550499D01*
X133671156Y-62550500D01*
X133671158Y-62550500D01*
X133828844Y-62550500D01*
X133828845Y-62550499D01*
X133983497Y-62519737D01*
X134129179Y-62459394D01*
X134139024Y-62452816D01*
X134260875Y-62371398D01*
X134327553Y-62350520D01*
X134329766Y-62350500D01*
X142075903Y-62350500D01*
X142142942Y-62370185D01*
X142188697Y-62422989D01*
X142198641Y-62492147D01*
X142169616Y-62555703D01*
X142163586Y-62562178D01*
X141648252Y-63077512D01*
X141156286Y-63569478D01*
X141044481Y-63681282D01*
X141044477Y-63681287D01*
X141023666Y-63717335D01*
X141018997Y-63725423D01*
X140965423Y-63818215D01*
X140924499Y-63970943D01*
X140924499Y-63970945D01*
X140924499Y-64139046D01*
X140924500Y-64139059D01*
X140924500Y-69174902D01*
X140904815Y-69241941D01*
X140888181Y-69262583D01*
X139787584Y-70363181D01*
X139726261Y-70396666D01*
X139699903Y-70399500D01*
X139279766Y-70399500D01*
X139212727Y-70379815D01*
X139210875Y-70378602D01*
X139079185Y-70290609D01*
X139079172Y-70290602D01*
X138933501Y-70230264D01*
X138933489Y-70230261D01*
X138778845Y-70199500D01*
X138778842Y-70199500D01*
X138621158Y-70199500D01*
X138621155Y-70199500D01*
X138466510Y-70230261D01*
X138466498Y-70230264D01*
X138320827Y-70290602D01*
X138320814Y-70290609D01*
X138189711Y-70378210D01*
X138189707Y-70378213D01*
X138078213Y-70489707D01*
X138078210Y-70489711D01*
X137990609Y-70620814D01*
X137990602Y-70620827D01*
X137930264Y-70766498D01*
X137930261Y-70766510D01*
X137899500Y-70921153D01*
X137899500Y-71078846D01*
X137930261Y-71233489D01*
X137930264Y-71233501D01*
X137990602Y-71379172D01*
X137990609Y-71379185D01*
X138078210Y-71510288D01*
X138078213Y-71510292D01*
X138189707Y-71621786D01*
X138189711Y-71621789D01*
X138265452Y-71672398D01*
X138310257Y-71726010D01*
X138318964Y-71795335D01*
X138288810Y-71858363D01*
X138229366Y-71895082D01*
X138196561Y-71899500D01*
X135406669Y-71899500D01*
X135406653Y-71899499D01*
X135399057Y-71899499D01*
X135240943Y-71899499D01*
X135133587Y-71928265D01*
X135088210Y-71940424D01*
X135088209Y-71940425D01*
X135038096Y-71969359D01*
X135038095Y-71969360D01*
X134994689Y-71994420D01*
X134951285Y-72019479D01*
X134951282Y-72019481D01*
X134839478Y-72131286D01*
X134554522Y-72416241D01*
X134493199Y-72449726D01*
X134428523Y-72446491D01*
X134386245Y-72432754D01*
X134246272Y-72410584D01*
X134176287Y-72399500D01*
X133963713Y-72399500D01*
X133915042Y-72407208D01*
X133753760Y-72432753D01*
X133551585Y-72498444D01*
X133362179Y-72594951D01*
X133190213Y-72719890D01*
X133039890Y-72870213D01*
X132914951Y-73042179D01*
X132818444Y-73231585D01*
X132752753Y-73433760D01*
X132743481Y-73492302D01*
X132719500Y-73643713D01*
X132719500Y-73856287D01*
X132752754Y-74066243D01*
X132817738Y-74266243D01*
X132818444Y-74268414D01*
X132914951Y-74457820D01*
X133039890Y-74629786D01*
X133039896Y-74629792D01*
X133190208Y-74780104D01*
X133355219Y-74899991D01*
X133397884Y-74955319D01*
X133403863Y-75024932D01*
X133371258Y-75086728D01*
X133355218Y-75100626D01*
X133308282Y-75134726D01*
X133308282Y-75134728D01*
X133858941Y-75685387D01*
X133838409Y-75690889D01*
X133701592Y-75769881D01*
X133589881Y-75881592D01*
X133510889Y-76018409D01*
X133505387Y-76038941D01*
X132954728Y-75488282D01*
X132954727Y-75488282D01*
X132915380Y-75542439D01*
X132818904Y-75731782D01*
X132753242Y-75933869D01*
X132753242Y-75933872D01*
X132720000Y-76143753D01*
X132720000Y-76356246D01*
X132753242Y-76566127D01*
X132753242Y-76566130D01*
X132818904Y-76768217D01*
X132915375Y-76957550D01*
X132954728Y-77011716D01*
X133505387Y-76461058D01*
X133510889Y-76481591D01*
X133589881Y-76618408D01*
X133701592Y-76730119D01*
X133838409Y-76809111D01*
X133858940Y-76814612D01*
X133290309Y-77383242D01*
X133290045Y-77384501D01*
X133278997Y-77396231D01*
X133272988Y-77408770D01*
X133245891Y-77431384D01*
X133243973Y-77432567D01*
X133214428Y-77440651D01*
X133215602Y-77444193D01*
X133150882Y-77465639D01*
X133150881Y-77465640D01*
X133001654Y-77557684D01*
X132877684Y-77681654D01*
X132785643Y-77830875D01*
X132785641Y-77830880D01*
X132730494Y-77997302D01*
X132730493Y-77997309D01*
X132720000Y-78100013D01*
X132720000Y-78500000D01*
X133521518Y-78500000D01*
X133510889Y-78518409D01*
X133470000Y-78671009D01*
X133470000Y-78828991D01*
X133510889Y-78981591D01*
X133521518Y-79000000D01*
X132720001Y-79000000D01*
X132720001Y-79399986D01*
X132730494Y-79502697D01*
X132785641Y-79669119D01*
X132785643Y-79669124D01*
X132877684Y-79818345D01*
X133001654Y-79942315D01*
X133150875Y-80034356D01*
X133150880Y-80034358D01*
X133317302Y-80089505D01*
X133317309Y-80089506D01*
X133420019Y-80099999D01*
X133819999Y-80099999D01*
X133820000Y-80099998D01*
X133820000Y-79298482D01*
X133838409Y-79309111D01*
X133991009Y-79350000D01*
X134148991Y-79350000D01*
X134301591Y-79309111D01*
X134320000Y-79298482D01*
X134320000Y-80099999D01*
X134719972Y-80099999D01*
X134719986Y-80099998D01*
X134822697Y-80089505D01*
X134989119Y-80034358D01*
X134989124Y-80034356D01*
X135138345Y-79942315D01*
X135262317Y-79818343D01*
X135357815Y-79663516D01*
X135409763Y-79616791D01*
X135478725Y-79605568D01*
X135542808Y-79633412D01*
X135551035Y-79640931D01*
X135690213Y-79780109D01*
X135862179Y-79905048D01*
X135862181Y-79905049D01*
X135862184Y-79905051D01*
X136051588Y-80001557D01*
X136253757Y-80067246D01*
X136463713Y-80100500D01*
X136463714Y-80100500D01*
X136676286Y-80100500D01*
X136676287Y-80100500D01*
X136886243Y-80067246D01*
X137088412Y-80001557D01*
X137277816Y-79905051D01*
X137352900Y-79850500D01*
X137449786Y-79780109D01*
X137449788Y-79780106D01*
X137449792Y-79780104D01*
X137600104Y-79629792D01*
X137600106Y-79629788D01*
X137600109Y-79629786D01*
X137725048Y-79457820D01*
X137725047Y-79457820D01*
X137725051Y-79457816D01*
X137821557Y-79268412D01*
X137887246Y-79066243D01*
X137920500Y-78856287D01*
X137920500Y-78643713D01*
X137887246Y-78433757D01*
X137821557Y-78231588D01*
X137725051Y-78042184D01*
X137673444Y-77971153D01*
X139699500Y-77971153D01*
X139699500Y-78128846D01*
X139730261Y-78283489D01*
X139730263Y-78283497D01*
X139740061Y-78307151D01*
X139749500Y-78354604D01*
X139749500Y-81073918D01*
X139749500Y-81073920D01*
X139749499Y-81073920D01*
X139778340Y-81218907D01*
X139778342Y-81218913D01*
X139798054Y-81266503D01*
X139834916Y-81355494D01*
X139834918Y-81355498D01*
X139840187Y-81363383D01*
X139840189Y-81363390D01*
X139840191Y-81363389D01*
X139917051Y-81478420D01*
X139917052Y-81478421D01*
X140253927Y-81815295D01*
X140280807Y-81855523D01*
X140290604Y-81879175D01*
X140290609Y-81879185D01*
X140378210Y-82010288D01*
X140378213Y-82010292D01*
X140489707Y-82121786D01*
X140489711Y-82121789D01*
X140620814Y-82209390D01*
X140620827Y-82209397D01*
X140766498Y-82269735D01*
X140766503Y-82269737D01*
X140921153Y-82300499D01*
X140921156Y-82300500D01*
X140921158Y-82300500D01*
X141078844Y-82300500D01*
X141078845Y-82300499D01*
X141233497Y-82269737D01*
X141379179Y-82209394D01*
X141510289Y-82121789D01*
X141621789Y-82010289D01*
X141709394Y-81879179D01*
X141712183Y-81872447D01*
X141769735Y-81733501D01*
X141769737Y-81733497D01*
X141800500Y-81578842D01*
X141800500Y-81421158D01*
X141800500Y-81421155D01*
X141800499Y-81421153D01*
X141787439Y-81355495D01*
X141769737Y-81266503D01*
X141739001Y-81192299D01*
X141709397Y-81120827D01*
X141709390Y-81120814D01*
X141621789Y-80989711D01*
X141621786Y-80989707D01*
X141510292Y-80878213D01*
X141510288Y-80878210D01*
X141379185Y-80790609D01*
X141379175Y-80790604D01*
X141355523Y-80780807D01*
X141348590Y-80776174D01*
X141343549Y-80775078D01*
X141315295Y-80753927D01*
X141286819Y-80725451D01*
X141253334Y-80664128D01*
X141250500Y-80637770D01*
X141250500Y-78663389D01*
X142649500Y-78663389D01*
X142649500Y-78836610D01*
X142672462Y-78981591D01*
X142676598Y-79007701D01*
X142730127Y-79172445D01*
X142808768Y-79326788D01*
X142910586Y-79466928D01*
X143033072Y-79589414D01*
X143173212Y-79691232D01*
X143327555Y-79769873D01*
X143492299Y-79823402D01*
X143663389Y-79850500D01*
X143663390Y-79850500D01*
X143836610Y-79850500D01*
X143836611Y-79850500D01*
X144007701Y-79823402D01*
X144172445Y-79769873D01*
X144326788Y-79691232D01*
X144466928Y-79589414D01*
X144589414Y-79466928D01*
X144691232Y-79326788D01*
X144769873Y-79172445D01*
X144823402Y-79007701D01*
X144850500Y-78836611D01*
X144850500Y-78663389D01*
X144823402Y-78492299D01*
X144769873Y-78327555D01*
X144691232Y-78173212D01*
X144589414Y-78033072D01*
X144466928Y-77910586D01*
X144326788Y-77808768D01*
X144172445Y-77730127D01*
X144007701Y-77676598D01*
X144007699Y-77676597D01*
X144007698Y-77676597D01*
X143873357Y-77655320D01*
X143836611Y-77649500D01*
X143663389Y-77649500D01*
X143626643Y-77655320D01*
X143492302Y-77676597D01*
X143327552Y-77730128D01*
X143173211Y-77808768D01*
X143103979Y-77859069D01*
X143033072Y-77910586D01*
X143033070Y-77910588D01*
X143033069Y-77910588D01*
X142910588Y-78033069D01*
X142910588Y-78033070D01*
X142910586Y-78033072D01*
X142883364Y-78070540D01*
X142808768Y-78173211D01*
X142730128Y-78327552D01*
X142676597Y-78492302D01*
X142649500Y-78663389D01*
X141250500Y-78663389D01*
X141250500Y-78354604D01*
X141259939Y-78307151D01*
X141269737Y-78283497D01*
X141300500Y-78128842D01*
X141300500Y-77971158D01*
X141300500Y-77971155D01*
X141300499Y-77971153D01*
X141283873Y-77887569D01*
X141269737Y-77816503D01*
X141263161Y-77800627D01*
X141209397Y-77670827D01*
X141209390Y-77670814D01*
X141121789Y-77539711D01*
X141121786Y-77539707D01*
X141010292Y-77428213D01*
X141010288Y-77428210D01*
X140879185Y-77340609D01*
X140879172Y-77340602D01*
X140733501Y-77280264D01*
X140733489Y-77280261D01*
X140578845Y-77249500D01*
X140578842Y-77249500D01*
X140421158Y-77249500D01*
X140421155Y-77249500D01*
X140266510Y-77280261D01*
X140266498Y-77280264D01*
X140120827Y-77340602D01*
X140120814Y-77340609D01*
X139989711Y-77428210D01*
X139989707Y-77428213D01*
X139878213Y-77539707D01*
X139878210Y-77539711D01*
X139790609Y-77670814D01*
X139790602Y-77670827D01*
X139730264Y-77816498D01*
X139730261Y-77816510D01*
X139699500Y-77971153D01*
X137673444Y-77971153D01*
X137600104Y-77870208D01*
X137449792Y-77719896D01*
X137285204Y-77600316D01*
X137242540Y-77544989D01*
X137236561Y-77475376D01*
X137269166Y-77413580D01*
X137285199Y-77399686D01*
X137449792Y-77280104D01*
X137600104Y-77129792D01*
X137600106Y-77129788D01*
X137600109Y-77129786D01*
X137685890Y-77011717D01*
X137725051Y-76957816D01*
X137725349Y-76957230D01*
X137745235Y-76918205D01*
X137793209Y-76867409D01*
X137855719Y-76850500D01*
X139464861Y-76850500D01*
X139464877Y-76850501D01*
X139472473Y-76850501D01*
X139630584Y-76850501D01*
X139630587Y-76850501D01*
X139783315Y-76809577D01*
X139833434Y-76780639D01*
X139920246Y-76730520D01*
X140032050Y-76618716D01*
X140032050Y-76618714D01*
X140042258Y-76608507D01*
X140042260Y-76608504D01*
X142525293Y-74125470D01*
X142586614Y-74091987D01*
X142656306Y-74096971D01*
X142712239Y-74138843D01*
X142727503Y-74168267D01*
X142728266Y-74167952D01*
X142730126Y-74172443D01*
X142730127Y-74172445D01*
X142808768Y-74326788D01*
X142910586Y-74466928D01*
X143033072Y-74589414D01*
X143173212Y-74691232D01*
X143327555Y-74769873D01*
X143492299Y-74823402D01*
X143663389Y-74850500D01*
X143663390Y-74850500D01*
X143836610Y-74850500D01*
X143836611Y-74850500D01*
X144007701Y-74823402D01*
X144172445Y-74769873D01*
X144326788Y-74691232D01*
X144466928Y-74589414D01*
X144589414Y-74466928D01*
X144691232Y-74326788D01*
X144769873Y-74172445D01*
X144823402Y-74007701D01*
X144850500Y-73836611D01*
X144850500Y-73663389D01*
X144823402Y-73492299D01*
X144769873Y-73327555D01*
X144691232Y-73173212D01*
X144589414Y-73033072D01*
X144466928Y-72910586D01*
X144326788Y-72808768D01*
X144172445Y-72730127D01*
X144172444Y-72730126D01*
X144172443Y-72730126D01*
X144167952Y-72728266D01*
X144168616Y-72726662D01*
X144117132Y-72691431D01*
X144089956Y-72627063D01*
X144101895Y-72558221D01*
X144125469Y-72525294D01*
X145708506Y-70942258D01*
X145708511Y-70942254D01*
X145718714Y-70932050D01*
X145718716Y-70932050D01*
X145830520Y-70820246D01*
X145880849Y-70733072D01*
X145909577Y-70683315D01*
X145950501Y-70530587D01*
X145950501Y-70372473D01*
X145950501Y-70364878D01*
X145950500Y-70364860D01*
X145950500Y-68136194D01*
X145970185Y-68069155D01*
X146018205Y-68025709D01*
X146107816Y-67980051D01*
X146199672Y-67913313D01*
X146279786Y-67855109D01*
X146279788Y-67855106D01*
X146279792Y-67855104D01*
X146430104Y-67704792D01*
X146430106Y-67704788D01*
X146430109Y-67704786D01*
X146555048Y-67532820D01*
X146555047Y-67532820D01*
X146555051Y-67532816D01*
X146651557Y-67343412D01*
X146717246Y-67141243D01*
X146750500Y-66931287D01*
X146750500Y-66718713D01*
X146717246Y-66508757D01*
X146651557Y-66306588D01*
X146555051Y-66117184D01*
X146555049Y-66117181D01*
X146555048Y-66117179D01*
X146430109Y-65945213D01*
X146279786Y-65794890D01*
X146107820Y-65669951D01*
X146107115Y-65669591D01*
X146099054Y-65665485D01*
X146048259Y-65617512D01*
X146031463Y-65549692D01*
X146053999Y-65483556D01*
X146099054Y-65444515D01*
X146107816Y-65440051D01*
X146129789Y-65424086D01*
X146279786Y-65315109D01*
X146279788Y-65315106D01*
X146279792Y-65315104D01*
X146430104Y-65164792D01*
X146430106Y-65164788D01*
X146430109Y-65164786D01*
X146549640Y-65000264D01*
X146555051Y-64992816D01*
X146651557Y-64803412D01*
X146717246Y-64601243D01*
X146750500Y-64391287D01*
X146750500Y-64178713D01*
X146717246Y-63968757D01*
X146651557Y-63766588D01*
X146555051Y-63577184D01*
X146555049Y-63577181D01*
X146555048Y-63577179D01*
X146430109Y-63405213D01*
X146279786Y-63254890D01*
X146107820Y-63129951D01*
X146099445Y-63125684D01*
X146099054Y-63125485D01*
X146048259Y-63077512D01*
X146031463Y-63009692D01*
X146053999Y-62943556D01*
X146099054Y-62904515D01*
X146107816Y-62900051D01*
X146129789Y-62884086D01*
X146279786Y-62775109D01*
X146279788Y-62775106D01*
X146279792Y-62775104D01*
X146430104Y-62624792D01*
X146430106Y-62624788D01*
X146430109Y-62624786D01*
X146555048Y-62452820D01*
X146555050Y-62452817D01*
X146555051Y-62452816D01*
X146651557Y-62263412D01*
X146717246Y-62061243D01*
X146750500Y-61851287D01*
X146750500Y-61638713D01*
X146717246Y-61428757D01*
X146651557Y-61226588D01*
X146555051Y-61037184D01*
X146555049Y-61037181D01*
X146555048Y-61037179D01*
X146430109Y-60865213D01*
X146279786Y-60714890D01*
X146107820Y-60589951D01*
X146107115Y-60589591D01*
X146099054Y-60585485D01*
X146048259Y-60537512D01*
X146031463Y-60469692D01*
X146053999Y-60403556D01*
X146099054Y-60364515D01*
X146107816Y-60360051D01*
X146188405Y-60301500D01*
X146279786Y-60235109D01*
X146279788Y-60235106D01*
X146279792Y-60235104D01*
X146430104Y-60084792D01*
X146430106Y-60084788D01*
X146430109Y-60084786D01*
X146555048Y-59912820D01*
X146555047Y-59912820D01*
X146555051Y-59912816D01*
X146651557Y-59723412D01*
X146717246Y-59521243D01*
X146750500Y-59311287D01*
X146750500Y-59098713D01*
X146717246Y-58888757D01*
X146651557Y-58686588D01*
X146555051Y-58497184D01*
X146555049Y-58497181D01*
X146555048Y-58497179D01*
X146430109Y-58325213D01*
X146279786Y-58174890D01*
X146107820Y-58049951D01*
X146107115Y-58049591D01*
X146099054Y-58045485D01*
X146048259Y-57997512D01*
X146031463Y-57929692D01*
X146053999Y-57863556D01*
X146099054Y-57824515D01*
X146107816Y-57820051D01*
X146129789Y-57804086D01*
X146279786Y-57695109D01*
X146279788Y-57695106D01*
X146279792Y-57695104D01*
X146430104Y-57544792D01*
X146430106Y-57544788D01*
X146430109Y-57544786D01*
X146555048Y-57372820D01*
X146555050Y-57372817D01*
X146555051Y-57372816D01*
X146651557Y-57183412D01*
X146717246Y-56981243D01*
X146750500Y-56771287D01*
X146750500Y-56558713D01*
X146717246Y-56348757D01*
X146651557Y-56146588D01*
X146555051Y-55957184D01*
X146555049Y-55957181D01*
X146555048Y-55957179D01*
X146430109Y-55785213D01*
X146316181Y-55671285D01*
X146282696Y-55609962D01*
X146287680Y-55540270D01*
X146329552Y-55484337D01*
X146360529Y-55467422D01*
X146492086Y-55418354D01*
X146492093Y-55418350D01*
X146607187Y-55332190D01*
X146607190Y-55332187D01*
X146693350Y-55217093D01*
X146693354Y-55217086D01*
X146743596Y-55082379D01*
X146743598Y-55082372D01*
X146749999Y-55022844D01*
X146750000Y-55022827D01*
X146750000Y-54375000D01*
X145833012Y-54375000D01*
X145865925Y-54317993D01*
X145900000Y-54190826D01*
X145900000Y-54059174D01*
X145865925Y-53932007D01*
X145833012Y-53875000D01*
X146750000Y-53875000D01*
X146750000Y-53227172D01*
X146749999Y-53227155D01*
X146743598Y-53167627D01*
X146743596Y-53167620D01*
X146693354Y-53032913D01*
X146693350Y-53032906D01*
X146607190Y-52917812D01*
X146607187Y-52917809D01*
X146492093Y-52831649D01*
X146492086Y-52831645D01*
X146357379Y-52781403D01*
X146357372Y-52781401D01*
X146297844Y-52775000D01*
X145650000Y-52775000D01*
X145650000Y-53691988D01*
X145592993Y-53659075D01*
X145465826Y-53625000D01*
X145334174Y-53625000D01*
X145207007Y-53659075D01*
X145150000Y-53691988D01*
X145150000Y-52775000D01*
X144502155Y-52775000D01*
X144442627Y-52781401D01*
X144442620Y-52781403D01*
X144307913Y-52831645D01*
X144307906Y-52831649D01*
X144192812Y-52917809D01*
X144192809Y-52917812D01*
X144106649Y-53032906D01*
X144106645Y-53032913D01*
X144056403Y-53167620D01*
X144056401Y-53167627D01*
X144050000Y-53227155D01*
X144050000Y-53875000D01*
X144966988Y-53875000D01*
X144934075Y-53932007D01*
X144900000Y-54059174D01*
X144900000Y-54190826D01*
X144934075Y-54317993D01*
X144966988Y-54375000D01*
X144050000Y-54375000D01*
X144050000Y-55022844D01*
X144056401Y-55082372D01*
X144056403Y-55082379D01*
X144106645Y-55217086D01*
X144106649Y-55217093D01*
X144192809Y-55332187D01*
X144192812Y-55332190D01*
X144307906Y-55418350D01*
X144307913Y-55418354D01*
X144439470Y-55467422D01*
X144495404Y-55509293D01*
X144519821Y-55574758D01*
X144504969Y-55643031D01*
X144483819Y-55671285D01*
X144369889Y-55785215D01*
X144244956Y-55957173D01*
X144244947Y-55957187D01*
X144219672Y-56006794D01*
X144171698Y-56057590D01*
X144109187Y-56074500D01*
X142741669Y-56074500D01*
X142741653Y-56074499D01*
X142734057Y-56074499D01*
X142575943Y-56074499D01*
X142468587Y-56103265D01*
X142423210Y-56115424D01*
X142423209Y-56115425D01*
X142373096Y-56144359D01*
X142373095Y-56144360D01*
X142334751Y-56166498D01*
X142286285Y-56194479D01*
X142286282Y-56194481D01*
X142174480Y-56306284D01*
X142174478Y-56306286D01*
X141847264Y-56633501D01*
X141542584Y-56938181D01*
X141481261Y-56971666D01*
X141454903Y-56974500D01*
X141396155Y-56974500D01*
X141241510Y-57005261D01*
X141241498Y-57005264D01*
X141095827Y-57065602D01*
X141095814Y-57065609D01*
X140964711Y-57153210D01*
X140964707Y-57153213D01*
X140853213Y-57264707D01*
X140853210Y-57264711D01*
X140765609Y-57395814D01*
X140765602Y-57395827D01*
X140705264Y-57541498D01*
X140705261Y-57541510D01*
X140674500Y-57696153D01*
X140674500Y-57853846D01*
X140705261Y-58008489D01*
X140705264Y-58008501D01*
X140765602Y-58154172D01*
X140765609Y-58154185D01*
X140853210Y-58285288D01*
X140853213Y-58285292D01*
X140964707Y-58396786D01*
X140964711Y-58396789D01*
X141095814Y-58484390D01*
X141095827Y-58484397D01*
X141182284Y-58520208D01*
X141241503Y-58544737D01*
X141396153Y-58575499D01*
X141396156Y-58575500D01*
X141396158Y-58575500D01*
X141553844Y-58575500D01*
X141553845Y-58575499D01*
X141708497Y-58544737D01*
X141854179Y-58484394D01*
X141985289Y-58396789D01*
X142096789Y-58285289D01*
X142184394Y-58154179D01*
X142244737Y-58008497D01*
X142255773Y-57953012D01*
X142288155Y-57891106D01*
X142289650Y-57889583D01*
X142867416Y-57311819D01*
X142928739Y-57278334D01*
X142955097Y-57275500D01*
X144119377Y-57275500D01*
X144186416Y-57295185D01*
X144229862Y-57343206D01*
X144244949Y-57372817D01*
X144369890Y-57544786D01*
X144520213Y-57695109D01*
X144692182Y-57820050D01*
X144700946Y-57824516D01*
X144751742Y-57872491D01*
X144768536Y-57940312D01*
X144745998Y-58006447D01*
X144700946Y-58045484D01*
X144692182Y-58049949D01*
X144520213Y-58174890D01*
X144369890Y-58325213D01*
X144244951Y-58497179D01*
X144148444Y-58686585D01*
X144082753Y-58888760D01*
X144049500Y-59098713D01*
X144049500Y-59224903D01*
X144029815Y-59291942D01*
X144013181Y-59312584D01*
X142212584Y-61113181D01*
X142151261Y-61146666D01*
X142124903Y-61149500D01*
X134329766Y-61149500D01*
X134262727Y-61129815D01*
X134260875Y-61128602D01*
X134129185Y-61040609D01*
X134129172Y-61040602D01*
X133983501Y-60980264D01*
X133983489Y-60980261D01*
X133950309Y-60973661D01*
X133888398Y-60941276D01*
X133853824Y-60880561D01*
X133850500Y-60852044D01*
X133850500Y-56979765D01*
X133870185Y-56912726D01*
X133871398Y-56910874D01*
X133892185Y-56879765D01*
X133959394Y-56779179D01*
X134019737Y-56633497D01*
X134050500Y-56478842D01*
X134050500Y-56321158D01*
X134050500Y-56321155D01*
X134050499Y-56321153D01*
X134031903Y-56227666D01*
X134019737Y-56166503D01*
X134011742Y-56147202D01*
X133959397Y-56020827D01*
X133959390Y-56020814D01*
X133871789Y-55889711D01*
X133871786Y-55889707D01*
X133760292Y-55778213D01*
X133760288Y-55778210D01*
X133629185Y-55690609D01*
X133629172Y-55690602D01*
X133483501Y-55630264D01*
X133483489Y-55630261D01*
X133328845Y-55599500D01*
X133328842Y-55599500D01*
X133171158Y-55599500D01*
X133171155Y-55599500D01*
X133016510Y-55630261D01*
X133016498Y-55630264D01*
X132870827Y-55690602D01*
X132870814Y-55690609D01*
X132746742Y-55773512D01*
X132680064Y-55794390D01*
X132612684Y-55775905D01*
X132590170Y-55758091D01*
X132510292Y-55678213D01*
X132510288Y-55678210D01*
X132379185Y-55590609D01*
X132379172Y-55590602D01*
X132233501Y-55530264D01*
X132233489Y-55530261D01*
X132078845Y-55499500D01*
X132078842Y-55499500D01*
X131921158Y-55499500D01*
X131921155Y-55499500D01*
X131766510Y-55530261D01*
X131766498Y-55530264D01*
X131620827Y-55590602D01*
X131620814Y-55590609D01*
X131489711Y-55678210D01*
X131489707Y-55678213D01*
X131378213Y-55789707D01*
X131378210Y-55789711D01*
X131290609Y-55920814D01*
X131290602Y-55920827D01*
X131230264Y-56066498D01*
X131230261Y-56066510D01*
X131199500Y-56221153D01*
X116737554Y-56221153D01*
X116731971Y-56166510D01*
X116729999Y-56147203D01*
X116674814Y-55980666D01*
X116582712Y-55831344D01*
X116458656Y-55707288D01*
X116341289Y-55634896D01*
X116309336Y-55615187D01*
X116309331Y-55615185D01*
X116293569Y-55609962D01*
X116142797Y-55560001D01*
X116142795Y-55560000D01*
X116040010Y-55549500D01*
X114239998Y-55549500D01*
X114239981Y-55549501D01*
X114137203Y-55560000D01*
X114137200Y-55560001D01*
X113970668Y-55615185D01*
X113970663Y-55615187D01*
X113821342Y-55707289D01*
X113697289Y-55831342D01*
X113605187Y-55980663D01*
X113605186Y-55980666D01*
X113550001Y-56147203D01*
X113550001Y-56147204D01*
X113550000Y-56147204D01*
X113539500Y-56249983D01*
X113539500Y-57550001D01*
X113539501Y-57550018D01*
X113550000Y-57652796D01*
X113550001Y-57652799D01*
X113605185Y-57819331D01*
X113605187Y-57819336D01*
X113626473Y-57853846D01*
X113679805Y-57940312D01*
X113697289Y-57968657D01*
X113821344Y-58092712D01*
X113976120Y-58188178D01*
X114022845Y-58240126D01*
X114034068Y-58309088D01*
X114006224Y-58373171D01*
X113998706Y-58381398D01*
X113859889Y-58520215D01*
X113734951Y-58692179D01*
X113638444Y-58881585D01*
X113572753Y-59083760D01*
X113539500Y-59293713D01*
X113539500Y-59506287D01*
X113572754Y-59716243D01*
X113626022Y-59880185D01*
X113638444Y-59918414D01*
X113734951Y-60107820D01*
X113859890Y-60279786D01*
X114010209Y-60430105D01*
X114010214Y-60430109D01*
X114174793Y-60549682D01*
X114217459Y-60605011D01*
X114223438Y-60674625D01*
X114190833Y-60736420D01*
X114174793Y-60750318D01*
X114010214Y-60869890D01*
X114010209Y-60869894D01*
X113859890Y-61020213D01*
X113734951Y-61192179D01*
X113638444Y-61381585D01*
X113572753Y-61583760D01*
X113539500Y-61793713D01*
X113539500Y-62006286D01*
X113570165Y-62199902D01*
X113572754Y-62216243D01*
X113629957Y-62392296D01*
X113638444Y-62418414D01*
X113734951Y-62607820D01*
X113859890Y-62779786D01*
X114010209Y-62930105D01*
X114010214Y-62930109D01*
X114175218Y-63049991D01*
X114217884Y-63105320D01*
X114223863Y-63174934D01*
X114191258Y-63236729D01*
X114175218Y-63250627D01*
X114010540Y-63370272D01*
X114010535Y-63370276D01*
X113860276Y-63520535D01*
X113860272Y-63520540D01*
X113735379Y-63692442D01*
X113638904Y-63881782D01*
X113573242Y-64083870D01*
X113573242Y-64083873D01*
X113562769Y-64150000D01*
X114591518Y-64150000D01*
X114580889Y-64168409D01*
X114540000Y-64321009D01*
X114540000Y-64478991D01*
X114580889Y-64631591D01*
X114591518Y-64650000D01*
X113562769Y-64650000D01*
X113573242Y-64716126D01*
X113573242Y-64716129D01*
X113638904Y-64918217D01*
X113735379Y-65107557D01*
X113860272Y-65279459D01*
X113860276Y-65279464D01*
X114010535Y-65429723D01*
X114010540Y-65429727D01*
X114175218Y-65549372D01*
X114217884Y-65604701D01*
X114223863Y-65674315D01*
X114191258Y-65736110D01*
X114175218Y-65750008D01*
X114010214Y-65869890D01*
X114010209Y-65869894D01*
X113859890Y-66020213D01*
X113734951Y-66192179D01*
X113638444Y-66381585D01*
X113572753Y-66583760D01*
X113563481Y-66642301D01*
X113539500Y-66793713D01*
X113539500Y-67006287D01*
X113572754Y-67216243D01*
X113607261Y-67322445D01*
X113638444Y-67418414D01*
X113734951Y-67607820D01*
X113859890Y-67779786D01*
X114010213Y-67930109D01*
X114182179Y-68055048D01*
X114182181Y-68055049D01*
X114182184Y-68055051D01*
X114371588Y-68151557D01*
X114573757Y-68217246D01*
X114783713Y-68250500D01*
X114783714Y-68250500D01*
X115496286Y-68250500D01*
X115496287Y-68250500D01*
X115706243Y-68217246D01*
X115908412Y-68151557D01*
X116097816Y-68055051D01*
X116172900Y-68000500D01*
X116269786Y-67930109D01*
X116269788Y-67930106D01*
X116269792Y-67930104D01*
X116420104Y-67779792D01*
X116420106Y-67779788D01*
X116420109Y-67779786D01*
X116545048Y-67607820D01*
X116545047Y-67607820D01*
X116545051Y-67607816D01*
X116641557Y-67418412D01*
X116707246Y-67216243D01*
X116740500Y-67006287D01*
X116740500Y-66793713D01*
X116707246Y-66583757D01*
X116641557Y-66381588D01*
X116545051Y-66192184D01*
X116545049Y-66192181D01*
X116545048Y-66192179D01*
X116420109Y-66020213D01*
X116269790Y-65869894D01*
X116269785Y-65869890D01*
X116104781Y-65750008D01*
X116062115Y-65694678D01*
X116056136Y-65625065D01*
X116088741Y-65563270D01*
X116104781Y-65549371D01*
X116269466Y-65429721D01*
X116419723Y-65279464D01*
X116419727Y-65279459D01*
X116544620Y-65107557D01*
X116641095Y-64918217D01*
X116706757Y-64716129D01*
X116706757Y-64716126D01*
X116717231Y-64650000D01*
X115688482Y-64650000D01*
X115699111Y-64631591D01*
X115740000Y-64478991D01*
X115740000Y-64321009D01*
X115699111Y-64168409D01*
X115688482Y-64150000D01*
X116717231Y-64150000D01*
X116706757Y-64083873D01*
X116706757Y-64083870D01*
X116641095Y-63881782D01*
X116544620Y-63692442D01*
X116419727Y-63520540D01*
X116419723Y-63520535D01*
X116269464Y-63370276D01*
X116269459Y-63370272D01*
X116104781Y-63250627D01*
X116062115Y-63195297D01*
X116056136Y-63125684D01*
X116088741Y-63063889D01*
X116104781Y-63049991D01*
X116173135Y-63000329D01*
X116190528Y-62987691D01*
X116256334Y-62964212D01*
X116324388Y-62980037D01*
X116351094Y-63000329D01*
X117813181Y-64462416D01*
X117846666Y-64523739D01*
X117849500Y-64550097D01*
X117849500Y-72799902D01*
X117829815Y-72866941D01*
X117813181Y-72887583D01*
X117387584Y-73313181D01*
X117326261Y-73346666D01*
X117299903Y-73349500D01*
X116635719Y-73349500D01*
X116568680Y-73329815D01*
X116525235Y-73281795D01*
X116505052Y-73242185D01*
X116505051Y-73242184D01*
X116380109Y-73070213D01*
X116241294Y-72931398D01*
X116207809Y-72870075D01*
X116212793Y-72800383D01*
X116254665Y-72744450D01*
X116263879Y-72738178D01*
X116269331Y-72734814D01*
X116269334Y-72734814D01*
X116418656Y-72642712D01*
X116542712Y-72518656D01*
X116634814Y-72369334D01*
X116689999Y-72202797D01*
X116700500Y-72100009D01*
X116700499Y-70799992D01*
X116693706Y-70733497D01*
X116689999Y-70697203D01*
X116689998Y-70697200D01*
X116662462Y-70614103D01*
X116634814Y-70530666D01*
X116542712Y-70381344D01*
X116418656Y-70257288D01*
X116269334Y-70165186D01*
X116102797Y-70110001D01*
X116102795Y-70110000D01*
X116000010Y-70099500D01*
X114199998Y-70099500D01*
X114199981Y-70099501D01*
X114097203Y-70110000D01*
X114097200Y-70110001D01*
X113930668Y-70165185D01*
X113930663Y-70165187D01*
X113781342Y-70257289D01*
X113657289Y-70381342D01*
X113565187Y-70530663D01*
X113565186Y-70530666D01*
X113510001Y-70697203D01*
X113510001Y-70697204D01*
X113510000Y-70697204D01*
X113499500Y-70799983D01*
X108808028Y-70799983D01*
X108759414Y-70733072D01*
X108636928Y-70610586D01*
X108496788Y-70508768D01*
X108342445Y-70430127D01*
X108177701Y-70376598D01*
X108177699Y-70376597D01*
X108177698Y-70376597D01*
X108046271Y-70355781D01*
X108006611Y-70349500D01*
X107833389Y-70349500D01*
X107793728Y-70355781D01*
X107662302Y-70376597D01*
X107497552Y-70430128D01*
X107343211Y-70508768D01*
X107313069Y-70530668D01*
X107203072Y-70610586D01*
X107203070Y-70610588D01*
X107203069Y-70610588D01*
X107134091Y-70679567D01*
X107080586Y-70733072D01*
X107056301Y-70766498D01*
X106978768Y-70873211D01*
X106900128Y-71027552D01*
X106846597Y-71192302D01*
X106840072Y-71233501D01*
X106819500Y-71363389D01*
X104750500Y-71363389D01*
X104750500Y-66813389D01*
X106859500Y-66813389D01*
X106859500Y-66986610D01*
X106883990Y-67141239D01*
X106886598Y-67157701D01*
X106940127Y-67322445D01*
X107018768Y-67476788D01*
X107120586Y-67616928D01*
X107243072Y-67739414D01*
X107383212Y-67841232D01*
X107537555Y-67919873D01*
X107702299Y-67973402D01*
X107873389Y-68000500D01*
X107873390Y-68000500D01*
X108046610Y-68000500D01*
X108046611Y-68000500D01*
X108217701Y-67973402D01*
X108382445Y-67919873D01*
X108536788Y-67841232D01*
X108676928Y-67739414D01*
X108799414Y-67616928D01*
X108901232Y-67476788D01*
X108979873Y-67322445D01*
X109033402Y-67157701D01*
X109060500Y-66986611D01*
X109060500Y-66813389D01*
X109033402Y-66642299D01*
X108979873Y-66477555D01*
X108901232Y-66323212D01*
X108799414Y-66183072D01*
X108676928Y-66060586D01*
X108536788Y-65958768D01*
X108382445Y-65880127D01*
X108217701Y-65826598D01*
X108217699Y-65826597D01*
X108217698Y-65826597D01*
X108086271Y-65805781D01*
X108046611Y-65799500D01*
X107873389Y-65799500D01*
X107833728Y-65805781D01*
X107702302Y-65826597D01*
X107537552Y-65880128D01*
X107383211Y-65958768D01*
X107303256Y-66016859D01*
X107243072Y-66060586D01*
X107243070Y-66060588D01*
X107243069Y-66060588D01*
X107120588Y-66183069D01*
X107120588Y-66183070D01*
X107120586Y-66183072D01*
X107113966Y-66192184D01*
X107018768Y-66323211D01*
X106940128Y-66477552D01*
X106886597Y-66642302D01*
X106859500Y-66813389D01*
X104750500Y-66813389D01*
X104750500Y-56813389D01*
X106859500Y-56813389D01*
X106859500Y-56986610D01*
X106885886Y-57153210D01*
X106886598Y-57157701D01*
X106940127Y-57322445D01*
X107018768Y-57476788D01*
X107120586Y-57616928D01*
X107243072Y-57739414D01*
X107383212Y-57841232D01*
X107537555Y-57919873D01*
X107702299Y-57973402D01*
X107873389Y-58000500D01*
X107873390Y-58000500D01*
X108046610Y-58000500D01*
X108046611Y-58000500D01*
X108217701Y-57973402D01*
X108382445Y-57919873D01*
X108536788Y-57841232D01*
X108676928Y-57739414D01*
X108799414Y-57616928D01*
X108901232Y-57476788D01*
X108979873Y-57322445D01*
X109033402Y-57157701D01*
X109060500Y-56986611D01*
X109060500Y-56813389D01*
X109033402Y-56642299D01*
X108979873Y-56477555D01*
X108901232Y-56323212D01*
X108799414Y-56183072D01*
X108676928Y-56060586D01*
X108536788Y-55958768D01*
X108382445Y-55880127D01*
X108217701Y-55826598D01*
X108217699Y-55826597D01*
X108217698Y-55826597D01*
X108086271Y-55805781D01*
X108046611Y-55799500D01*
X107873389Y-55799500D01*
X107833728Y-55805781D01*
X107702302Y-55826597D01*
X107537552Y-55880128D01*
X107383211Y-55958768D01*
X107353069Y-55980668D01*
X107243072Y-56060586D01*
X107243070Y-56060588D01*
X107243069Y-56060588D01*
X107120588Y-56183069D01*
X107120588Y-56183070D01*
X107120586Y-56183072D01*
X107076859Y-56243256D01*
X107018768Y-56323211D01*
X106940128Y-56477552D01*
X106886597Y-56642302D01*
X106859500Y-56813389D01*
X104750500Y-56813389D01*
X104750500Y-53843161D01*
X104770185Y-53776122D01*
X104822989Y-53730367D01*
X104892147Y-53720423D01*
X104955703Y-53749448D01*
X104962181Y-53755480D01*
X105211893Y-54005192D01*
X105211898Y-54005196D01*
X105211899Y-54005197D01*
X105492956Y-54235854D01*
X105795268Y-54437853D01*
X105795277Y-54437858D01*
X105795279Y-54437859D01*
X106115916Y-54609243D01*
X106115918Y-54609243D01*
X106115924Y-54609247D01*
X106451836Y-54748386D01*
X106799767Y-54853930D01*
X106799773Y-54853931D01*
X106799776Y-54853932D01*
X106799787Y-54853935D01*
X107156369Y-54924862D01*
X107518206Y-54960500D01*
X107518209Y-54960500D01*
X107881791Y-54960500D01*
X107881794Y-54960500D01*
X108243631Y-54924862D01*
X108313045Y-54911054D01*
X108600212Y-54853935D01*
X108600223Y-54853932D01*
X108600223Y-54853931D01*
X108600233Y-54853930D01*
X108948164Y-54748386D01*
X109284076Y-54609247D01*
X109604732Y-54437853D01*
X109907044Y-54235854D01*
X110188101Y-54005197D01*
X110445197Y-53748101D01*
X110675854Y-53467044D01*
X110877853Y-53164732D01*
X111049247Y-52844076D01*
X111188386Y-52508164D01*
X111293930Y-52160233D01*
X111293932Y-52160223D01*
X111293935Y-52160212D01*
X111364862Y-51803630D01*
X111400500Y-51441794D01*
X111400500Y-51078206D01*
X111364862Y-50716369D01*
X111327462Y-50528343D01*
X111293935Y-50359787D01*
X111293932Y-50359776D01*
X111293931Y-50359773D01*
X111293930Y-50359767D01*
X111188386Y-50011836D01*
X111135559Y-49884301D01*
X111128091Y-49814835D01*
X111159366Y-49752355D01*
X111219455Y-49716703D01*
X111289280Y-49719197D01*
X111337802Y-49749170D01*
X112666839Y-51078206D01*
X113317049Y-51728416D01*
X113392263Y-51803630D01*
X113421585Y-51832952D01*
X113544498Y-51915080D01*
X113544511Y-51915087D01*
X113681082Y-51971656D01*
X113681087Y-51971658D01*
X113681091Y-51971658D01*
X113681092Y-51971659D01*
X113826079Y-52000500D01*
X113826082Y-52000500D01*
X126786770Y-52000500D01*
X126853809Y-52020185D01*
X126874451Y-52036819D01*
X127153927Y-52316295D01*
X127180806Y-52356521D01*
X127190606Y-52380179D01*
X127190607Y-52380181D01*
X127278207Y-52511284D01*
X127278213Y-52511292D01*
X127389707Y-52622786D01*
X127389711Y-52622789D01*
X127520814Y-52710390D01*
X127520827Y-52710397D01*
X127666498Y-52770735D01*
X127666503Y-52770737D01*
X127821153Y-52801499D01*
X127821156Y-52801500D01*
X127821158Y-52801500D01*
X127978844Y-52801500D01*
X127978845Y-52801499D01*
X128133497Y-52770737D01*
X128279179Y-52710394D01*
X128410289Y-52622789D01*
X128521789Y-52511289D01*
X128609394Y-52380179D01*
X128669737Y-52234497D01*
X128700500Y-52079842D01*
X128700500Y-51922158D01*
X128700500Y-51922155D01*
X128700499Y-51922153D01*
X128699092Y-51915080D01*
X128669737Y-51767503D01*
X128653547Y-51728416D01*
X128609397Y-51621827D01*
X128609390Y-51621814D01*
X128521789Y-51490711D01*
X128521786Y-51490707D01*
X128410292Y-51379213D01*
X128410284Y-51379207D01*
X128279181Y-51291607D01*
X128279179Y-51291606D01*
X128255521Y-51281806D01*
X128248589Y-51277174D01*
X128243549Y-51276078D01*
X128215295Y-51254927D01*
X128123211Y-51162843D01*
X128038577Y-51078209D01*
X134749500Y-51078209D01*
X134749500Y-51441790D01*
X134785137Y-51803630D01*
X134856064Y-52160212D01*
X134856067Y-52160223D01*
X134961614Y-52508165D01*
X135009092Y-52622786D01*
X135083117Y-52801500D01*
X135100754Y-52844078D01*
X135100756Y-52844083D01*
X135272140Y-53164720D01*
X135272151Y-53164738D01*
X135474140Y-53467035D01*
X135474150Y-53467049D01*
X135704807Y-53748106D01*
X135961893Y-54005192D01*
X135961898Y-54005196D01*
X135961899Y-54005197D01*
X136242956Y-54235854D01*
X136545268Y-54437853D01*
X136545277Y-54437858D01*
X136545279Y-54437859D01*
X136865916Y-54609243D01*
X136865918Y-54609243D01*
X136865924Y-54609247D01*
X137201836Y-54748386D01*
X137549767Y-54853930D01*
X137549773Y-54853931D01*
X137549776Y-54853932D01*
X137549787Y-54853935D01*
X137906369Y-54924862D01*
X138268206Y-54960500D01*
X138268209Y-54960500D01*
X138631791Y-54960500D01*
X138631794Y-54960500D01*
X138993631Y-54924862D01*
X139063045Y-54911054D01*
X139350212Y-54853935D01*
X139350223Y-54853932D01*
X139350223Y-54853931D01*
X139350233Y-54853930D01*
X139698164Y-54748386D01*
X140034076Y-54609247D01*
X140354732Y-54437853D01*
X140657044Y-54235854D01*
X140938101Y-54005197D01*
X141195197Y-53748101D01*
X141425854Y-53467044D01*
X141627853Y-53164732D01*
X141799247Y-52844076D01*
X141938386Y-52508164D01*
X142043930Y-52160233D01*
X142043932Y-52160223D01*
X142043935Y-52160212D01*
X142114862Y-51803630D01*
X142150500Y-51441794D01*
X142150500Y-51078206D01*
X142114862Y-50716369D01*
X142077462Y-50528343D01*
X142043935Y-50359787D01*
X142043932Y-50359776D01*
X142043931Y-50359773D01*
X142043930Y-50359767D01*
X141938386Y-50011836D01*
X141799247Y-49675924D01*
X141627853Y-49355268D01*
X141425854Y-49052956D01*
X141195197Y-48771899D01*
X141195196Y-48771898D01*
X141195192Y-48771893D01*
X140938106Y-48514807D01*
X140657049Y-48284150D01*
X140657048Y-48284149D01*
X140657044Y-48284146D01*
X140354732Y-48082147D01*
X140354727Y-48082144D01*
X140354720Y-48082140D01*
X140034083Y-47910756D01*
X140034078Y-47910754D01*
X139698165Y-47771614D01*
X139350223Y-47666067D01*
X139350212Y-47666064D01*
X138993630Y-47595137D01*
X138721111Y-47568296D01*
X138631794Y-47559500D01*
X138268206Y-47559500D01*
X138185679Y-47567628D01*
X137906369Y-47595137D01*
X137549787Y-47666064D01*
X137549776Y-47666067D01*
X137201834Y-47771614D01*
X136865921Y-47910754D01*
X136865916Y-47910756D01*
X136545279Y-48082140D01*
X136545261Y-48082151D01*
X136242964Y-48284140D01*
X136242950Y-48284150D01*
X135961893Y-48514807D01*
X135704807Y-48771893D01*
X135474150Y-49052950D01*
X135474140Y-49052964D01*
X135272151Y-49355261D01*
X135272140Y-49355279D01*
X135100756Y-49675916D01*
X135100754Y-49675921D01*
X134961614Y-50011834D01*
X134856067Y-50359776D01*
X134856064Y-50359787D01*
X134785137Y-50716369D01*
X134749500Y-51078209D01*
X128038577Y-51078209D01*
X127627421Y-50667052D01*
X127627414Y-50667046D01*
X127553729Y-50617812D01*
X127553729Y-50617813D01*
X127504491Y-50584913D01*
X127367917Y-50528343D01*
X127367907Y-50528340D01*
X127222920Y-50499500D01*
X127222918Y-50499500D01*
X114262229Y-50499500D01*
X114195190Y-50479815D01*
X114174548Y-50463181D01*
X112196071Y-48484703D01*
X112169191Y-48444475D01*
X112159394Y-48420821D01*
X112112407Y-48350500D01*
X112071789Y-48289710D01*
X111960292Y-48178213D01*
X111960288Y-48178210D01*
X111829185Y-48090609D01*
X111829172Y-48090602D01*
X111683501Y-48030264D01*
X111683489Y-48030261D01*
X111528845Y-47999500D01*
X111528842Y-47999500D01*
X111371158Y-47999500D01*
X111371155Y-47999500D01*
X111216510Y-48030261D01*
X111216498Y-48030264D01*
X111070827Y-48090602D01*
X111070814Y-48090609D01*
X110939711Y-48178210D01*
X110939707Y-48178213D01*
X110828213Y-48289707D01*
X110828210Y-48289711D01*
X110740609Y-48420814D01*
X110740602Y-48420827D01*
X110680264Y-48566498D01*
X110680261Y-48566508D01*
X110652443Y-48706357D01*
X110620058Y-48768268D01*
X110559342Y-48802842D01*
X110489572Y-48799101D01*
X110443145Y-48769846D01*
X110188106Y-48514807D01*
X109907049Y-48284150D01*
X109907048Y-48284149D01*
X109907044Y-48284146D01*
X109604732Y-48082147D01*
X109604727Y-48082144D01*
X109604720Y-48082140D01*
X109284083Y-47910756D01*
X109284078Y-47910754D01*
X108948165Y-47771614D01*
X108600223Y-47666067D01*
X108600212Y-47666064D01*
X108243630Y-47595137D01*
X108175922Y-47588469D01*
X108052210Y-47576284D01*
X107881794Y-47559500D01*
X107518206Y-47559500D01*
X107435679Y-47567628D01*
X107156369Y-47595137D01*
X106799787Y-47666064D01*
X106799776Y-47666067D01*
X106451834Y-47771614D01*
X106115921Y-47910754D01*
X106115916Y-47910756D01*
X105795279Y-48082140D01*
X105795261Y-48082151D01*
X105492964Y-48284140D01*
X105492950Y-48284150D01*
X105211893Y-48514807D01*
X104962181Y-48764520D01*
X104900858Y-48798005D01*
X104831166Y-48793021D01*
X104775233Y-48751149D01*
X104750816Y-48685685D01*
X104750500Y-48676839D01*
X104750500Y-47471153D01*
X121399500Y-47471153D01*
X121399500Y-47628846D01*
X121430261Y-47783489D01*
X121430264Y-47783501D01*
X121490602Y-47929172D01*
X121490609Y-47929185D01*
X121578210Y-48060288D01*
X121578213Y-48060292D01*
X121689707Y-48171786D01*
X121689711Y-48171789D01*
X121820814Y-48259390D01*
X121820827Y-48259397D01*
X121894013Y-48289711D01*
X121966503Y-48319737D01*
X122121153Y-48350499D01*
X122121156Y-48350500D01*
X122121158Y-48350500D01*
X122278844Y-48350500D01*
X122278845Y-48350499D01*
X122433497Y-48319737D01*
X122579179Y-48259394D01*
X122710289Y-48171789D01*
X122821789Y-48060289D01*
X122909394Y-47929179D01*
X122969737Y-47783497D01*
X122982420Y-47719735D01*
X122996231Y-47650308D01*
X123028616Y-47588397D01*
X123089332Y-47553823D01*
X123117848Y-47550500D01*
X128420234Y-47550500D01*
X128487273Y-47570185D01*
X128489125Y-47571398D01*
X128620814Y-47659390D01*
X128620827Y-47659397D01*
X128766498Y-47719735D01*
X128766503Y-47719737D01*
X128921153Y-47750499D01*
X128921156Y-47750500D01*
X128921158Y-47750500D01*
X129078844Y-47750500D01*
X129078845Y-47750499D01*
X129233497Y-47719737D01*
X129379179Y-47659394D01*
X129510289Y-47571789D01*
X129621789Y-47460289D01*
X129709394Y-47329179D01*
X129769737Y-47183497D01*
X129800500Y-47028842D01*
X129800500Y-46871158D01*
X129800500Y-46871155D01*
X129800499Y-46871153D01*
X129782419Y-46780261D01*
X129769737Y-46716503D01*
X129769291Y-46715427D01*
X129709397Y-46570827D01*
X129709390Y-46570814D01*
X129621789Y-46439711D01*
X129621786Y-46439707D01*
X129510292Y-46328213D01*
X129510288Y-46328210D01*
X129379185Y-46240609D01*
X129379172Y-46240602D01*
X129233501Y-46180264D01*
X129233489Y-46180261D01*
X129078845Y-46149500D01*
X129078842Y-46149500D01*
X128921158Y-46149500D01*
X128921155Y-46149500D01*
X128766510Y-46180261D01*
X128766498Y-46180264D01*
X128620827Y-46240602D01*
X128620814Y-46240609D01*
X128489125Y-46328602D01*
X128422447Y-46349480D01*
X128420234Y-46349500D01*
X122879057Y-46349500D01*
X122720943Y-46349500D01*
X122568215Y-46390423D01*
X122568214Y-46390423D01*
X122568212Y-46390424D01*
X122568209Y-46390425D01*
X122518096Y-46419359D01*
X122518095Y-46419360D01*
X122482853Y-46439707D01*
X122431285Y-46469479D01*
X122431282Y-46469481D01*
X122319480Y-46581283D01*
X122319480Y-46581284D01*
X122319478Y-46581286D01*
X122244849Y-46655915D01*
X122185337Y-46715427D01*
X122124014Y-46748911D01*
X122121848Y-46749362D01*
X121966508Y-46780261D01*
X121966498Y-46780264D01*
X121820827Y-46840602D01*
X121820814Y-46840609D01*
X121689711Y-46928210D01*
X121689707Y-46928213D01*
X121578213Y-47039707D01*
X121578210Y-47039711D01*
X121490609Y-47170814D01*
X121490602Y-47170827D01*
X121430264Y-47316498D01*
X121430261Y-47316510D01*
X121399500Y-47471153D01*
X104750500Y-47471153D01*
X104750500Y-43253750D01*
X104750726Y-43246263D01*
X104768271Y-42956205D01*
X104770076Y-42941340D01*
X104821780Y-42659201D01*
X104825364Y-42644663D01*
X104902096Y-42398422D01*
X104910696Y-42370822D01*
X104915998Y-42356841D01*
X105033731Y-42095249D01*
X105040676Y-42082016D01*
X105189080Y-41836526D01*
X105197567Y-41824230D01*
X105374480Y-41598417D01*
X105384395Y-41587226D01*
X105587226Y-41384395D01*
X105598417Y-41374480D01*
X105824230Y-41197567D01*
X105836526Y-41189080D01*
X106082016Y-41040676D01*
X106095249Y-41033731D01*
X106356841Y-40915998D01*
X106370822Y-40910696D01*
X106644668Y-40825362D01*
X106659197Y-40821780D01*
X106941344Y-40770075D01*
X106956201Y-40768271D01*
X107246264Y-40750726D01*
X107253751Y-40750500D01*
X107315892Y-40750500D01*
X144684108Y-40750500D01*
X144746249Y-40750500D01*
X144753736Y-40750726D01*
G37*
%TD.AperFunction*%
%TD*%
M02*
